<?xml version="1.0" encoding="utf-8"?>
<!-- Generator: Adobe Illustrator 17.1.0, SVG Export Plug-In . SVG Version: 6.00 Build 0)  -->
<!DOCTYPE svg PUBLIC "-//W3C//DTD SVG 1.1//EN" "http://www.w3.org/Graphics/SVG/1.1/DTD/svg11.dtd">
<svg version="1.1" xmlns="http://www.w3.org/2000/svg" xmlns:xlink="http://www.w3.org/1999/xlink" x="0px" y="0px"
	 viewBox="0 0 300 760.8" enable-background="new 0 0 300 760.8" xml:space="preserve">
<g id="Warstwa_1">
</g>
<g id="Warstwa_2">
	<g>
		<defs>
			<rect id="SVGID_1_" x="0" width="300" height="760.8"/>
		</defs>
		<clipPath id="SVGID_2_">
			<use xlink:href="#SVGID_1_"  overflow="visible"/>
		</clipPath>
		<polygon clip-path="url(#SVGID_2_)" fill="#171D2A" points="0,760.8 200,814.4 200,614.4 0,560.8 		"/>
		<polygon clip-path="url(#SVGID_2_)" fill="#121723" points="200,614.4 200,814.4 300,760.8 300,560.8 		"/>
		<polygon clip-path="url(#SVGID_2_)" fill="#1A202D" points="300,560.8 300,560.8 299.8,560.7 100,507.2 0,560.8 0,560.8 0,560.8 
			0,560.8 0.2,560.8 200,614.4 300,560.8 300,560.8 		"/>
		<polygon clip-path="url(#SVGID_2_)" fill="#171D2A" points="100,507.2 300,560.8 300,360.8 100,307.2 		"/>
		<polygon clip-path="url(#SVGID_2_)" fill="#121723" points="0,360.8 0,560.8 100,507.2 100,307.2 		"/>
		<polygon clip-path="url(#SVGID_2_)" fill="#1A202D" points="400,307.2 400,307.2 399.8,307.1 200,253.6 100,307.2 100,307.2 
			100,307.2 100,307.2 100.2,307.2 300,360.8 400,307.2 400,307.2 		"/>
		<polygon clip-path="url(#SVGID_2_)" fill="#1A202D" points="100,307.2 100,307.2 99.8,307.1 -100,253.6 -200,307.2 -200,307.2 
			-200,307.2 -200,307.2 -199.8,307.2 0,360.8 100,307.2 100,307.2 		"/>
		<polygon clip-path="url(#SVGID_2_)" fill="#171D2A" points="-100,253.6 100,307.2 100,107.2 -100,53.6 		"/>
		<polygon clip-path="url(#SVGID_2_)" fill="#121723" points="100,107.2 100,307.2 200,253.6 200,53.6 		"/>
		<polygon clip-path="url(#SVGID_2_)" fill="#171D2A" points="200,253.6 400,307.2 400,107.2 200,53.6 		"/>
		<polygon clip-path="url(#SVGID_2_)" fill="#121723" points="200,-146.4 200,53.6 300,0 300,-200 		"/>
		<polygon clip-path="url(#SVGID_2_)" fill="#1A202D" points="500,53.6 500,53.6 499.8,53.5 300,0 200,53.6 200,53.6 200,53.6 
			200,53.6 200.2,53.6 400,107.2 500,53.6 500,53.6 		"/>
		<polygon clip-path="url(#SVGID_2_)" fill="#1A202D" points="200,53.6 200,53.6 199.8,53.5 0,0 -100,53.6 -100,53.6 -100,53.6 
			-100,53.6 -99.8,53.6 100,107.2 200,53.6 200,53.6 		"/>
		<polygon clip-path="url(#SVGID_2_)" fill="#171D2A" points="0,0 200,53.6 200,-146.4 0,-200 		"/>
		<polygon clip-path="url(#SVGID_2_)" fill="#1A202D" points="300,-200 300,-200 299.8,-200 100,-253.6 0,-200 0,-200 0,-200 
			0,-200 0.2,-200 200,-146.4 300,-200 300,-200 		"/>
	</g>
</g>
</svg>
