<?xml version="1.0" encoding="utf-8"?>
<!-- Generator: Adobe Illustrator 17.1.0, SVG Export Plug-In . SVG Version: 6.00 Build 0)  -->
<!DOCTYPE svg PUBLIC "-//W3C//DTD SVG 1.1//EN" "http://www.w3.org/Graphics/SVG/1.1/DTD/svg11.dtd">
<svg version="1.1" id="Layer_1" xmlns="http://www.w3.org/2000/svg" xmlns:xlink="http://www.w3.org/1999/xlink" x="0px" y="0px"
	 viewBox="-303.7 967.1 205.5 205.5" enable-background="new -303.7 967.1 205.5 205.5" xml:space="preserve">
<g>
	<g>
		<g>
			<path fill="#3ebfc1" d="M-192.3,1172.6c-8.7,0-16.9-4.3-21.9-11.4l-1.2-1.7l-1.7,1.2c-4.6,3.4-10,5.2-15.8,5.2
				c-5.1,0-10.1-1.5-14.4-4.2l-0.8-0.5l-0.9,0.3c-1,0.3-2.2,0.6-3.4,0.8l-0.2,0c-0.1,0-0.3,0-0.4,0.1c-1.4,0.2-2.5,0.3-3.5,0.3
				c-14.7,0-26.7-12-26.7-26.7c0-3.3,0.6-6.5,1.8-9.6l0.4-1l-0.6-0.9c-3.2-4.5-5-10-5-15.5c0-11.7,7.9-22.3,19.1-25.6l1.2-0.4
				l0.2-1.3c1.8-13.1,13.1-23.1,26.4-23.1c2.4,0,4.9,0.3,7.2,1l1.2,0.3l0.8-0.9c1.1-1.2,2.3-2.3,3.7-3.3l0.9-0.6v-25.6
				c0-8.5-7-15.5-15.5-15.5h-20.2c-8.5,0-15.5,7-15.5,15.5v6.7c0,6.3-5.2,11.5-11.5,11.5h-10.7l7.3,9.7l-2.2,1.6l-9.5-12.7l9.5-12.7
				l2.2,1.6l-7.3,9.7h10.7c4.8,0,8.7-3.9,8.7-8.7v-6.7c0-10.1,8.2-18.2,18.2-18.2h12.1v-6.7h2.7v6.7h5.4c10.1,0,18.2,8.2,18.2,18.2
				v23.9l2.6-0.8c2.1-0.6,4.1-0.9,6.2-0.9c5.9,0,11.7,2.5,15.8,6.8l1.2,1.3l1.4-1.1c5.9-4.6,12.9-7,20.4-7c1.5,0,3,0.1,4.8,0.4
				l2.3,0.3v-14.8h-3.9l0.1-2.7h4.4l0.4-1.4c2.7-9.2,11-15.4,20.7-15.4h13.5c10.4,0,18.9-8.5,18.9-18.9v-27.6l-9.7,7.3l-1.6-2.2
				l12.7-9.5l12.7,9.5l-1.6,2.2l-9.7-7.3v27.6c0,11.9-9.7,21.6-21.6,21.6h-13.5c-10.4,0-18.9,8.5-18.9,18.9v13.6l1.3,0.5
				c12,4.2,20.7,15.2,22,27.9l0.1,1.3l1.3,0.4c7.4,2.2,13.4,7.5,16.7,14.6l0.5,1.2h1.9v2.7h-0.9l0.4,2.4c0.3,1.6,0.4,3.2,0.4,4.7
				c0,7.2-2.8,13.9-7.9,19l-0.9,0.9l0.5,1.2c1.1,3,1.7,6.1,1.7,9.2c0,14.7-12,26.7-26.7,26.7c-4.9,0-9.5-1.3-13.7-3.8l-1.5-0.9
				l-1.1,1.4C-176.6,1169-184.2,1172.6-192.3,1172.6z M-213.8,1156.6c4.1,8.2,12.3,13.3,21.4,13.3c7.3,0,14.1-3.3,18.6-8.9l1.1-1.4
				l-1.3-1.3c-4.2-4.1-6.9-9.5-7.8-15.3l2.7-0.2c0.8,5.4,3.4,10.4,7.5,14.1l0.1,0.1l1.3,1.1c4.3,3.3,9.3,5.1,14.7,5.1
				c12.9,0,23.4-10.1,23.9-23.1v-0.1c-0.4-12.6-8.5-21.8-20.3-23.5l0.2-2.3c7.4,1,13.7,4.6,17.9,10.3l1.5,2l1.7-1.9
				c3.8-4.4,5.9-9.9,5.9-15.7c0-1.7-0.2-3.5-0.7-5.5l-0.4-1.5h-2.3l0-2.7l1.2,0c-3-6.9-9.9-12.3-17-13.6l-1.1-0.2l0-1.1
				c-0.4-11.7-7.3-22-18-26.8l-2.8-1.3v14c0,11.9-9.7,21.6-21.6,21.6h-1.4v-2.7h1.4c10.4,0,18.9-8.5,18.9-18.9v-14.7l-1.6-0.3
				c-1.8-0.3-3.7-0.5-5.5-0.5c-7.9,0-15.4,3-21.1,8.5l-2,1.7l-0.1,0.1c-5.3,5.9-8.2,13.2-8.2,20.4c0,16.7,14.3,29.4,27.8,30.6v2.8
				c-14.6-1.2-30.6-15.3-30.6-33.3c0-7.5,3.3-15.3,9.2-22.1l1.2-1.4l-1.3-1.3c-3.6-3.8-8.5-5.9-13.7-5.9c-2.6,0-5.1,0.5-7.6,1.6
				l-1.2,0.5v21.5h-2.7v-20.8l-3.6,4.8c-0.1,0.1-0.1,0.2-0.2,0.3l-0.6,0.8l-1-0.4c-2.7-1-5.6-1.6-8.4-1.6c-1.8,0-3.7,0.2-5.5,0.7
				l-1.5,0.4v9.1h-2.7v-8.3l-3.1,2c-6.5,4.2-10.6,11.3-11,19l0,1.1l-1.1,0.2c-11.1,2.2-19.2,12.1-19.2,23.5c0,5.6,2,11,5.5,15.3
				l0.6,0.7l-0.4,0.8c-1.5,3.3-2.3,6.7-2.3,10.2c0,13.2,10.7,23.9,23.9,23.9c1.3,0,2.6-0.1,4-0.4l0.2,0c1.4-0.2,2.7-0.6,3.9-1.1
				c9.4-3.4,15.8-12.5,15.8-22.5c0-8.2-4.2-15.8-11.1-20.2l1.3-2.4c5.3,3.3,9.3,8.4,11.2,14.5l0.5,1.6l1.7-0.3
				c3.9-0.7,7.6-2.3,10.7-4.6l1.9,2c-3.5,2.7-7.5,4.5-11.9,5.3l-1.8,0.3l0.1,1.8c0,0.2,0,0.5,0.1,0.7c0,0.5,0.1,0.9,0.1,1.3
				c0,8.9-4.4,17.2-11.9,22.2l-3.2,2.2l3.6,1.4c2.8,1.1,5.6,1.6,8.4,1.6c6.4,0,12.3-2.5,16.9-6.9l1.4-1.3L-213.8,1156.6z"/>
			<rect x="-148.2" y="1099" fill="#3ebfc1" width="6.1" height="2.7"/>
			<rect x="-131.3" y="1034.9" fill="#3ebfc1" width="6.1" height="2.7"/>
			<path fill="#3ebfc1" d="M-186.3,1033.7c-1.8-1.3-3.5-2.9-4.8-4.7l2.4-1.4c1.1,1.4,2.4,2.7,3.9,3.8L-186.3,1033.7z"/>
			<polygon fill="#3ebfc1" points="-195.4,1008 -192.6,1008 -192.6,1014.6 -195.4,1014.9 			"/>
			<rect x="-195.4" y="987.7" fill="#3ebfc1" width="2.7" height="6.1"/>
			<path fill="#3ebfc1" d="M-109.1,1095.7c1.5-1,2.8-2.3,4-3.7l2.3,1.5c-1.4,1.8-3.1,3.3-4.9,4.6L-109.1,1095.7z"/>
			<polygon fill="#3ebfc1" points="-100.9,1079.5 -100.9,1072.1 -98.2,1072.1 -98.2,1079.7 			"/>
			<rect x="-151.5" y="1034.9" fill="#3ebfc1" width="6.1" height="2.7"/>
			<path fill="#3ebfc1" d="M-100.9,1057.9v-1.4c0-1-0.1-2-0.2-2.9l2.7-0.7c0.2,1.2,0.3,2.4,0.3,3.7v1.4H-100.9z"/>
			<path fill="#3ebfc1" d="M-107.6,1042.2c-1.4-1.2-2.9-2.1-4.6-2.9l0.8-2.6c2.1,0.9,4,2.1,5.7,3.6L-107.6,1042.2z"/>
			<rect x="-249.4" y="984.3" fill="#3ebfc1" width="2.7" height="6.1"/>
			<rect x="-249.4" y="1045.1" fill="#3ebfc1" width="2.7" height="6.1"/>
			<rect x="-249.4" y="1024.8" fill="#3ebfc1" width="2.7" height="6.1"/>
			<rect x="-249.4" y="1085.5" fill="#3ebfc1" width="2.7" height="6.1"/>
			<polygon fill="#3ebfc1" points="-248,970.6 -259.1,978.9 -260.7,976.7 -248,967.1 -235.3,976.7 -236.9,978.9 			"/>
			<polygon fill="#3ebfc1" points="-194,970.6 -205.1,978.9 -206.7,976.7 -194,967.2 -181.3,976.7 -182.9,978.9 			"/>
		</g>
	</g>
</g>
</svg>
