<?xml version="1.0" encoding="iso-8859-1"?>
<!-- Generator: Adobe Illustrator 19.0.0, SVG Export Plug-In . SVG Version: 6.00 Build 0)  -->
<svg version="1.1" id="Capa_1" xmlns="http://www.w3.org/2000/svg" xmlns:xlink="http://www.w3.org/1999/xlink" x="0px" y="0px"
	 viewBox="0 0 368.128 368.128" style="enable-background:new 0 0 368.128 368.128;" xml:space="preserve">
<g>
	<g>
		<path d="M158.464,36.864l-4.608-5.12c-2.048-2.048-5.12-2.56-7.168-0.512c-2.048,2.048-2.56,5.12-0.512,7.168l4.096,5.12
			c1.024,1.024,2.56,1.536,4.096,1.536c1.024,0,2.56-0.512,3.584-1.024C160,41.984,160.512,38.912,158.464,36.864z"/>
	</g>
</g>
<g>
	<g>
		<path d="M245.504,34.304l-4.608-5.12c-2.048-2.048-5.12-2.56-7.168-0.512c-2.048,2.048-2.56,5.12-0.512,7.168l4.096,5.12
			c1.024,1.024,2.56,1.536,4.096,1.536c1.024,0,2.56-0.512,3.584-1.024C247.04,39.424,247.552,36.352,245.504,34.304z"/>
	</g>
</g>
<g>
	<g>
		<path d="M182.016,64c-1.024-2.56-4.096-4.096-6.656-3.072l-6.656,2.56c-2.56,1.024-4.096,4.096-3.072,6.656
			c0.512,2.048,2.56,3.584,4.608,3.584c0.512,0,1.024,0,2.048-0.512l6.656-2.56C181.504,69.632,183.04,66.56,182.016,64z"/>
	</g>
</g>
<g>
	<g>
		<path d="M101.12,37.888c-1.024-2.56-4.096-4.096-6.656-3.072l-6.656,2.56c-2.56,1.024-4.096,4.096-3.072,6.656
			c0.512,2.56,2.56,3.584,4.608,3.584c0.512,0,1.024,0,2.048-0.512l6.656-2.56C100.608,43.52,102.144,40.448,101.12,37.888z"/>
	</g>
</g>
<g>
	<g>
		<path d="M206.08,36.864c-1.024-2.56-4.096-4.096-6.656-3.072l-7.168,3.072c-2.56,1.024-4.096,4.096-3.072,6.656
			c1.024,1.536,3.072,3.072,5.12,3.072c0.512,0,1.024,0,2.048-0.512l6.656-2.56C205.568,42.496,207.104,39.424,206.08,36.864z"/>
	</g>
</g>
<g>
	<g>
		<path d="M284.928,45.568c-1.024-2.56-4.096-4.096-6.656-3.072l-6.656,2.56c-2.56,1.536-4.096,4.096-3.072,6.656
			c1.024,2.048,2.56,3.584,4.608,3.584c0.512,0,1.024,0,2.048-0.512l6.656-2.56C284.416,51.2,285.952,48.128,284.928,45.568z"/>
	</g>
</g>
<g>
	<g>
		<path d="M124.672,55.808l-7.168-1.024c-2.56-0.512-5.632,1.536-5.632,4.096c-1.024,3.072,1.024,6.144,4.096,6.144l7.168,1.024
			h0.512c2.56,0,4.608-2.048,5.12-4.608C129.28,58.88,127.232,55.808,124.672,55.808z"/>
	</g>
</g>
<g>
	<g>
		<path d="M231.168,55.296L224,54.272c-2.56-0.512-5.632,1.536-5.632,4.096c-0.512,3.072,1.536,6.144,4.096,6.144l7.168,1.024h0.512
			c2.56,0,4.608-2.048,5.12-4.608C235.776,58.368,233.728,55.296,231.168,55.296z"/>
	</g>
</g>
<g>
	<g>
		<path d="M335.104,159.744v-26.112c5.632-1.536,10.752-4.608,14.336-9.216c5.12-6.656,7.168-14.848,5.12-23.04l-1.024-4.608
			C339.712,39.936,289.536,0,230.656,0h-94.72C75.52,0,23.296,43.008,12.032,102.4c-1.024,8.192,1.024,15.872,6.144,22.528
			c4.096,4.608,9.216,7.68,14.848,9.216v26.112C18.176,161.28,6.4,173.568,6.4,188.416v7.168c0,12.8,8.704,23.552,20.48,27.136
			c-12.8,12.8-10.752,28.16-10.752,29.184c0.512,2.56,2.56,4.608,5.12,4.608c5.632,0,9.216,1.024,12.288,2.048v29.696
			c-4.096,1.536-8.192,4.096-11.264,7.68c-5.12,5.632-7.168,13.312-5.632,20.992l2.56,16.896
			c3.072,19.968,20.48,34.304,40.448,34.304H308.48c19.968,0,36.864-14.336,40.448-34.304l2.56-16.896
			c1.024-7.68-1.024-14.848-5.632-20.992c-2.56-3.072-6.144-5.632-10.24-7.168V258.56c3.072-1.024,6.144-1.536,11.264-1.536
			c2.56,0,5.12-2.048,5.12-5.12c0-0.512,0-14.848-11.264-28.16c12.288-3.072,20.992-14.336,20.992-27.648v-7.168
			C361.728,173.056,349.952,160.768,335.104,159.744z M25.856,118.272c-3.072-4.096-4.608-9.216-3.584-13.824
			C32.512,49.664,80.128,10.24,135.936,10.24h94.72c53.76,0,100.352,36.352,112.64,89.088l1.024,4.608
			c1.024,5.12,0,10.24-3.072,14.336c-3.072,4.096-8.192,6.656-13.312,6.656H39.168C34.048,124.416,29.44,121.856,25.856,118.272z
			 M324.864,134.656v25.088H202.496c-16.896,0-32.256,6.656-44.544,18.432l-17.92,17.92l-17.92-17.92
			c-11.776-11.776-27.648-18.432-44.544-18.432H42.752v-25.088H324.864z M338.176,302.08c3.072,3.584,4.096,8.192,3.584,12.288
			l-2.56,16.896c-2.56,14.848-15.36,25.6-30.208,25.6H59.648c-14.848,0-27.648-10.752-30.208-25.6l-2.56-16.896
			c-0.512-4.608,0.512-9.216,3.584-12.288c2.56-3.072,5.632-4.608,9.216-5.12h125.44c14.848,0,29.184,5.632,39.424,16.384
			l20.48,20.48c1.024,1.024,2.048,1.536,3.584,1.536c1.536,0,2.56-0.512,3.584-1.536l20.48-20.48
			c10.752-10.752,24.576-16.384,39.424-16.384h36.352C332.032,297.472,335.616,299.52,338.176,302.08z M43.776,286.72v-23.552
			c4.608,2.048,9.728,3.584,18.432,3.584c11.264,0,17.408-3.072,22.528-5.632s9.216-4.608,17.92-4.608
			c8.704,0,13.312,2.048,17.92,4.608c5.12,2.56,11.264,5.632,22.528,5.632c11.264,0,17.408-3.072,22.528-5.632
			s9.216-4.608,17.92-4.608s13.312,2.048,17.92,4.608c5.12,2.56,11.264,5.632,22.528,5.632s17.408-3.072,22.528-5.632
			s9.216-4.608,17.92-4.608c8.704,0,13.312,2.048,17.92,4.608c5.12,2.56,11.264,5.632,22.528,5.632
			c9.216,0,14.848-2.048,19.456-4.096v24.064c0,0,0,0-0.512,0h-32.768c-17.92,0-34.304,6.656-47.104,19.456l-15.36,16.896
			l-16.896-16.896c-12.288-12.288-29.184-19.456-47.104-19.456H43.776z M341.248,246.272c-7.68,1.024-12.8,3.072-16.896,5.632
			c-5.12,2.56-9.216,4.608-17.92,4.608s-13.312-2.048-17.92-4.608c-5.12-2.56-11.264-5.632-22.528-5.632
			c-11.264,0-17.408,3.072-22.528,5.632s-9.216,4.608-17.92,4.608c-8.704,0-13.312-2.048-17.92-4.608
			c-5.12-2.56-11.264-5.632-22.528-5.632c-11.264,0-17.408,3.072-22.528,5.632s-9.216,4.608-17.92,4.608
			c-8.704,0-13.312-2.048-17.92-4.608c-5.12-2.56-11.264-5.632-22.528-5.632c-11.264,0-17.408,3.072-22.528,5.632
			s-9.216,4.608-17.92,4.608c-8.704,0-13.312-2.048-17.92-4.608c-4.608-2.048-9.216-4.608-17.408-5.632
			c0.512-5.632,3.072-14.848,14.848-21.504c0.512,0,0.512-0.512,1.024-1.024H328.96c0,0,0,0.512,0.512,0.512
			C336.64,231.936,339.712,241.152,341.248,246.272z M333.056,214.016H35.072c-10.24,0-18.432-8.192-18.432-18.432v-7.168
			c0-10.24,8.192-18.432,18.432-18.432h3.584c0.512,0,0.512,0,1.024,0h38.4c13.824,0,27.136,5.632,36.864,15.36l21.504,21.504
			c1.024,1.024,2.048,1.536,3.584,1.536s2.56-0.512,3.584-1.536l21.504-21.504c9.728-9.728,23.04-15.36,36.864-15.36h127.488
			c0.512,0,1.024,0,1.024,0c0.512,0.512,1.536,0.512,2.048,0.512c10.24,0,18.432,8.192,18.432,18.432v6.656h0.512
			C351.488,205.824,343.296,214.016,333.056,214.016z"/>
	</g>
</g>
<g>
</g>
<g>
</g>
<g>
</g>
<g>
</g>
<g>
</g>
<g>
</g>
<g>
</g>
<g>
</g>
<g>
</g>
<g>
</g>
<g>
</g>
<g>
</g>
<g>
</g>
<g>
</g>
<g>
</g>
</svg>
