<?xml version="1.0" encoding="utf-8"?>
<!-- Generator: Adobe Illustrator 17.1.0, SVG Export Plug-In . SVG Version: 6.00 Build 0)  -->
<!DOCTYPE svg PUBLIC "-//W3C//DTD SVG 1.1//EN" "http://www.w3.org/Graphics/SVG/1.1/DTD/svg11.dtd">
<svg version="1.1" id="Layer_1" xmlns="http://www.w3.org/2000/svg" xmlns:xlink="http://www.w3.org/1999/xlink" x="0px" y="0px"
	 viewBox="-239 935.5 206 206" enable-background="new -239 935.5 206 206" xml:space="preserve">
<g>
	<g>
		<path fill="#3ebfc1" d="M-146.2,1141.5c-6.4,0-11.5-5.2-11.5-11.5s5.2-11.5,11.5-11.5h8.8v-17.5h-20.3v-23.1h20.3v-14.2h-78.5
			v14.2h20.3v23.1H-239v-23.1h20.3v-31.1H-239v-23.1h43.4v23.1h-20.3v14.2h78.5v-14.7l-22-11l22-11v-14.7h-7.1
			c-3.6,0-6.5-2.9-6.5-6.5c0-2,0.9-3.9,2.6-5.1l0.8-0.6v-5.5l-0.7-0.6c-3.9-3.5-6.1-8.3-6.1-13.6c0-10.1,8.2-18.3,18.3-18.3
			c10.1,0,18.3,8.2,18.3,18.3c0,5.2-2.2,10.1-6.1,13.6l-0.7,0.6v5.5l0.8,0.6c1.6,1.2,2.6,3.1,2.6,5.1c0,3.6-2.9,6.5-6.5,6.5h-7.1
			v14.7l19.3,9.6h38.9v-10.2H-33v23.1h-20.3v31.1l1.5,0.4c5.1,1.3,8.7,5.9,8.7,11.1c0,6.4-5.2,11.5-11.5,11.5s-11.5-5.2-11.5-11.5
			c0-5.2,3.6-9.8,8.7-11.1l1.5-0.4v-31.1h-20.3v-10.2h-38.9l-19.3,9.6v31.6h20.3v23.1h-20.3v17.5h8.8c6.4,0,11.5,5.2,11.5,11.5
			s-5.2,11.5-11.5,11.5H-146.2z M-146.2,1121.2c-4.8,0-8.8,3.9-8.8,8.8s3.9,8.8,8.8,8.8h20.3c4.8,0,8.8-3.9,8.8-8.8
			s-3.9-8.8-8.8-8.8H-146.2z M-54.7,1080.5c-4.8,0-8.8,3.9-8.8,8.8s3.9,8.8,8.8,8.8s8.8-3.9,8.8-8.8S-49.9,1080.5-54.7,1080.5z
			 M-155,1098.1h37.9v-17.5H-155V1098.1z M-236.2,1098.1h37.9v-17.5h-37.9V1098.1z M-73.7,1043.9h37.9v-17.5h-37.9V1043.9z
			 M-236.2,1043.9h37.9v-17.5h-37.9V1043.9z M-153.2,1035.1l17.2,8.6l17.2-8.6l-17.2-8.6L-153.2,1035.1z M-144.5,999.2
			c-2,0-3.7,1.7-3.7,3.7s1.7,3.7,3.7,3.7h16.9c2,0,3.7-1.7,3.7-3.7s-1.7-3.7-3.7-3.7H-144.5z M-136,969.3c4.5,0,8.2,3.7,8.2,8.2
			c0,3.4-2.2,6.5-5.4,7.7l-1.3,0.5v10.8h7.4v-6.2l0.5-0.4c4-3,6.2-7.5,6.2-12.4c0-8.6-7-15.5-15.5-15.5c-4.1,0-8.1,1.6-11,4.6
			c-2.9,2.9-4.6,6.8-4.6,11c0,4.9,2.3,9.4,6.2,12.4l0.5,0.4v6.2h7.4v-10.8l-1.3-0.5c-3.3-1.2-5.4-4.2-5.4-7.7
			C-144.2,973-140.5,969.3-136,969.3z M-136,972.1c-3,0-5.4,2.4-5.4,5.4s2.4,5.4,5.4,5.4c3,0,5.4-2.4,5.4-5.4
			S-133.1,972.1-136,972.1z"/>
		<path fill="#3ebfc1" d="M-110.3,992.4v-16.3h6.8l-0.2-2.2c-1.8-16.5-15.7-28.9-32.3-28.9c-16.6,0-30.4,12.4-32.3,28.9l-0.2,2.2
			h6.8v16.3h-16.3v-16.3h6.8l0.2-1.8c0.9-10.3,6.4-19.6,14.9-25.6l5.2-3.6h-20.9l-0.5,1.3c-1.2,3.3-4.2,5.4-7.7,5.4
			c-4.5,0-8.2-3.7-8.2-8.2c0-4.5,3.7-8.2,8.2-8.2c3.4,0,6.5,2.2,7.7,5.4l0.5,1.3h71.8l0.5-1.3c1.2-3.3,4.2-5.4,7.7-5.4
			c4.5,0,8.2,3.7,8.2,8.2c0,4.5-3.7,8.2-8.2,8.2c-3.4,0-6.5-2.2-7.7-5.4l-0.5-1.3H-121l5.2,3.6c8.5,6,14,15.3,14.9,25.6l0.2,1.8h6.8
			v16.3H-110.3z M-107.5,989.7h10.8v-10.8h-10.8V989.7z M-175.3,989.7h10.8v-10.8h-10.8V989.7z M-92,938.3c-3,0-5.4,2.4-5.4,5.4
			c0,3,2.4,5.4,5.4,5.4s5.4-2.4,5.4-5.4S-89,938.3-92,938.3z M-180.1,938.3c-3,0-5.4,2.4-5.4,5.4c0,3,2.4,5.4,5.4,5.4
			s5.4-2.4,5.4-5.4S-177.1,938.3-180.1,938.3z"/>
	</g>
</g>
</svg>
