<?xml version="1.0" encoding="utf-8"?>
<!-- Generator: Adobe Illustrator 17.1.0, SVG Export Plug-In . SVG Version: 6.00 Build 0)  -->
<!DOCTYPE svg PUBLIC "-//W3C//DTD SVG 1.1//EN" "http://www.w3.org/Graphics/SVG/1.1/DTD/svg11.dtd">
<svg version="1.1" id="Layer_1" xmlns="http://www.w3.org/2000/svg" xmlns:xlink="http://www.w3.org/1999/xlink" x="0px" y="0px"
	 viewBox="-363.9 944.3 205.4 205.1" enable-background="new -363.9 944.3 205.4 205.1" xml:space="preserve">
<g>
	<g>
		<path fill="#3ebfc1" d="M-213.8,1149.4c-11.2,0-22-3.4-31.3-9.8l-0.5-0.4h-117.9v-46.6h94.4v-14.1h-52.5l-27.7,3.5l-14.7-18.3
			l14.7-18.3l27.7,3.5h52.5v-10.7h-66.5l-18.6-14.9l18.6-14.9h66.5v-2c0-4.5,3.6-8.1,8.1-8.1h33.8l-1-2.7c-0.3-1-0.5-1.8-0.5-2.7
			c0-4.5,3.6-8.1,8.1-8.1h5.4v-32.3c0-3-2.4-5.4-5.4-5.4h-80.9c-3,0-5.4,2.4-5.4,5.4v27c0,4.5-3.6,8.1-8.1,8.1h-32.3v8.7
			c0,4.5-3.6,8.1-8.1,8.1h-8.1v-36.5h8.1c4.5,0,8.1,3.6,8.1,8.1v8.7h32.3c3,0,5.4-2.4,5.4-5.4v-27c0-4.5,3.6-8.1,8.1-8.1h80.9
			c4.5,0,8.1,3.6,8.1,8.1v32.3h5.4c4.5,0,8.1,3.6,8.1,8.1c0,0.9-0.2,1.7-0.5,2.7l-1,2.7h33.8c4.5,0,8.1,3.6,8.1,8.1v87.7
			C-158.4,1124.5-183.3,1149.4-213.8,1149.4z M-266.3,1094c0,29,23.6,52.6,52.6,52.6s52.6-23.6,52.6-52.6v-52.6h-105.2V1094z
			 M-360.7,1136.5h111.3l-3.4-3.4c-9.5-9.6-15.2-22.3-16-35.8l-0.1-1.9h-10.8v13.5h-2.7v-13.5h-10.7v10.1h-2.7v-10.1h-10.7v13.5
			h-2.7v-13.5h-10.7v10.1h-2.7v-10.1h-10.7v13.5h-2.7v-13.5h-10.7v10.1h-2.7v-10.1h-10.7V1136.5z M-348,1079.1l25-3.1v-24.6l-25-3.1
			l-11.2,14h9.3l0.5-1.3c1.2-3.2,4.2-5.4,7.6-5.4c4.5,0,8.1,3.6,8.1,8.1c0,4.5-3.6,8.1-8.1,8.1c-3.4,0-6.5-2.2-7.6-5.4l-0.5-1.3
			h-9.3L-348,1079.1z M-320.3,1075.8h10.7v-20.2h2.7v20.2h37.7v-24.2l-51.2,0V1075.8z M-341.9,1058.3c-3,0-5.4,2.4-5.4,5.4
			s2.4,5.4,5.4,5.4c3,0,5.4-2.4,5.4-5.4S-338.9,1058.3-341.9,1058.3z M-212.4,1038.7h51.2v-32.3c0-3-2.4-5.4-5.4-5.4H-261
			c-3,0-5.4,2.4-5.4,5.4v32.3h51.2v-27h2.7V1038.7z M-333.8,1035.3h64.7v-10.7h-64.7V1035.3z M-349.8,1023.2l13.3,10.6v-21.3
			L-349.8,1023.2z M-333.8,1021.9h64.7v-10.7h-64.7V1021.9z M-360.7,1001.6h5.4c3,0,5.4-2.4,5.4-5.4V976c0-3-2.4-5.4-5.4-5.4h-5.4
			V1001.6z M-220.5,987.5c-3,0-5.4,2.4-5.4,5.4c0,3,2.4,5.4,5.4,5.4h13.5c3,0,5.4-2.4,5.4-5.4c0-3-2.4-5.4-5.4-5.4H-220.5z"/>
	</g>
</g>
</svg>
