<?xml version="1.0" encoding="utf-8"?>
<!-- Generator: Adobe Illustrator 17.1.0, SVG Export Plug-In . SVG Version: 6.00 Build 0)  -->
<!DOCTYPE svg PUBLIC "-//W3C//DTD SVG 1.1//EN" "http://www.w3.org/Graphics/SVG/1.1/DTD/svg11.dtd">
<svg version="1.1" id="Capa_1" xmlns="http://www.w3.org/2000/svg" xmlns:xlink="http://www.w3.org/1999/xlink" x="0px" y="0px"
	 viewBox="2 947 205.9 206" enable-background="new 2 947 205.9 206" xml:space="preserve">
<g>
	<g>
		<g>
			
				<rect x="36.7" y="1087.7" transform="matrix(-0.9396 0.3422 -0.3422 -0.9396 446.4585 2099.2412)" fill="#3ebfc1" width="2.8" height="2.7"/>
			
				<rect x="44.7" y="1109.6" transform="matrix(-0.9396 0.3423 -0.3423 -0.9396 469.5262 2139.0662)" fill="#3ebfc1" width="2.8" height="2.7"/>
			
				<rect x="52.6" y="1131.6" transform="matrix(-0.9396 0.3423 -0.3423 -0.9396 492.5293 2178.8762)" fill="#3ebfc1" width="2.8" height="2.7"/>
			<rect x="22.3" y="1038.4" fill="#3ebfc1" width="2.8" height="2.8"/>
			<path fill="#3ebfc1" d="M173.1,1153c-3,0-6-0.5-8.9-1.5l-0.8-0.3l-0.8,0.4c-0.1,0.1-0.2,0.1-0.3,0.2c-1.1,0.5-2.3,0.8-3.4,0.8
				c-0.9,0-1.9-0.2-2.8-0.5l-12.5-4.6c-2.1-0.8-3.8-2.4-4.7-4.5l-0.3-0.8l-12.7-4.6c-2-0.7-3.6-2.2-4.5-4.2c-0.9-2-1-4.1-0.3-6.2
				l20.5-56.4c0.7-2,2.2-3.6,4.2-4.5c1.1-0.5,2.2-0.8,3.4-0.8c0.9,0,1.9,0.2,2.8,0.5l12.7,4.6l0.8-0.4c0.5-0.3,1-0.5,1.5-0.6
				l1.9-0.6l-0.6-1.9c-0.3-1-0.3-2,0.1-2.9l4.6-12.5c0.5-1.3,1.5-2.3,2.8-2.8l2.3-0.9l-1.3-2.1c-1.2-1.9-1.8-4-1.8-6.2
				c0-15.2-5.1-30.2-14.3-42.3l-1.4-1.8l-1.6,1.6c-2,2.1-4.7,3.2-7.6,3.2c-2,0-4-0.6-5.7-1.7l-6.5-4.1c-9.8-6.3-21.1-9.6-32.6-9.6
				c-11.6,0-22.8,3.3-32.6,9.6l-6.5,4.1c-1.7,1.1-3.7,1.7-5.7,1.7c-2.9,0-5.5-1.1-7.6-3.2l-1.6-1.6l-1.4,1.8
				c-9.2,12.1-14.3,27.1-14.3,42.3c0,2.2-0.6,4.3-1.8,6.2l-1.3,2.1l2.3,0.9c1.3,0.5,2.3,1.5,2.8,2.8l4.6,12.5
				c0.3,0.9,0.4,1.9,0.1,2.9l-0.6,1.9l1.9,0.6c0.5,0.1,1,0.4,1.5,0.6l0.8,0.4l12.7-4.6c0.9-0.3,1.8-0.5,2.8-0.5
				c1.2,0,2.3,0.3,3.4,0.8c2,0.9,3.4,2.5,4.2,4.5l20.5,56.4c0.7,2,0.6,4.2-0.3,6.2c-0.9,2-2.5,3.4-4.5,4.2l-12.7,4.6l-0.3,0.8
				c-0.9,2.2-2.5,3.8-4.7,4.5l-12.5,4.6c-0.9,0.3-1.8,0.5-2.8,0.5c-1.2,0-2.3-0.3-3.4-0.8c-0.1-0.1-0.2-0.2-0.4-0.2l-0.8-0.4
				l-0.8,0.3c-2.9,1-5.9,1.5-8.9,1.5c-4.1,0-8.1-0.9-11.8-2.6c-6.8-3.2-12-8.8-14.5-15.8l-6.8-18.8c-5.2-14.2,2.1-30.2,16.1-35.7
				l0.8-0.3l0.3-0.8c0.3-0.8,0.7-1.5,1.2-2.1l1.3-1.6l-1.6-1.3c-0.7-0.6-1.2-1.3-1.5-2l-4.6-12.5c-0.8-2.3,0.3-4.9,2.5-5.9l3.7-1.7
				l-3.6-1.9c-3.9-2-6.3-5.9-6.3-10.2c0-25.7,10.7-50.3,29.5-67.9l0.7,0.8l1.3-2.8c1-2.3,2.7-4.2,4.8-5.5l5.5-3.3
				C69.4,951.9,87,947,105,947c18,0,35.6,4.9,51,14.1l5.5,3.3c2.1,1.3,3.8,3.2,4.8,5.5l1.2,2.9l0.8-0.8
				c18.8,17.5,29.5,42.1,29.5,67.9c0,4.3-2.4,8.2-6.2,10.2l-3.6,1.9l3.7,1.7c2.2,1,3.3,3.6,2.5,5.9l-4.6,12.5
				c-0.3,0.7-0.8,1.4-1.5,2l-1.6,1.3l1.3,1.6c0.5,0.6,0.9,1.3,1.2,2.1l0.3,0.8l0.8,0.3c14,5.5,21.3,21.5,16.1,35.7l-6.8,18.8
				c-2.6,7-7.7,12.7-14.5,15.8C181.2,1152.1,177.2,1153,173.1,1153z M18.1,1083.9c-11,5.9-16,19.2-11.8,30.9l6.8,18.8
				c2.3,6.4,7,11.4,13.1,14.3c3.4,1.6,6.9,2.4,10.6,2.4c1.7,0,3.5-0.2,5.2-0.5l2.3-0.5l-24.2-66.4L18.1,1083.9z M165.7,1149.2
				l2.3,0.5c1.7,0.4,3.4,0.5,5.2,0.5c3.7,0,7.3-0.8,10.6-2.4c6.1-2.9,10.8-7.9,13.1-14.3l6.8-18.8c4.3-11.7-0.8-25-11.8-30.9l-2-1.1
				L165.7,1149.2z M141.3,1138.2c-1,2.7,0.4,5.8,3.2,6.8l12.5,4.6c0.6,0.2,1.2,0.3,1.8,0.3c0.8,0,1.5-0.2,2.2-0.5
				c1.3-0.6,2.2-1.6,2.7-3l22.8-62.7c1-2.7-0.4-5.8-3.2-6.8l-12.5-4.6c-0.6-0.2-1.2-0.3-1.8-0.3c-2.2,0-4.2,1.4-5,3.5l-1.3,3.6
				l-2.6-0.9l2-5.4l-11.2-4.1c-0.6-0.2-1.2-0.3-1.8-0.3c-0.8,0-1.5,0.2-2.2,0.5c-1.3,0.6-2.2,1.6-2.7,3l-20.5,56.4
				c-1,2.7,0.4,5.8,3.2,6.8l11.2,4.1l18.4-50.4l2.6,0.9L141.3,1138.2z M40.9,1072c-0.6,0-1.2,0.1-1.8,0.3l-12.5,4.6
				c-1.3,0.5-2.4,1.5-3,2.7c-0.6,1.3-0.7,2.7-0.2,4l22.8,62.7c0.5,1.3,1.5,2.4,2.7,3c0.7,0.3,1.4,0.5,2.2,0.5c0.6,0,1.2-0.1,1.8-0.3
				l12.5-4.6c1.3-0.5,2.4-1.4,3-2.7c0.6-1.3,0.7-2.7,0.2-4l-4.1-11.3l2.6-0.9l4.8,13.2l11.2-4.1c1.3-0.5,2.4-1.4,3-2.7
				c0.6-1.3,0.7-2.7,0.2-4l-20.5-56.4c-0.5-1.3-1.5-2.4-2.7-3c-0.7-0.3-1.4-0.5-2.2-0.5c-0.6,0-1.2,0.1-1.8,0.3l-11.2,4.1l15.5,42.7
				l-2.6,0.9l-14.9-40.8C45.1,1073.4,43.1,1072,40.9,1072z M17.7,1056.7l6,16.2l16.1-5.9l-5.9-16.2L17.7,1056.7z M170.2,1067
				l16.2,5.9l5.8-16.2l-16.2-5.8L170.2,1067z M186.3,1031.1c-4.8,0-8.8,3.9-8.8,8.8s3.9,8.8,8.8,8.8s8.8-3.9,8.8-8.8
				S191.1,1031.1,186.3,1031.1z M23.7,1031.1c-4.8,0-8.8,3.9-8.8,8.8s3.9,8.8,8.8,8.8s8.8-3.9,8.8-8.8S28.5,1031.1,23.7,1031.1z
				 M23.7,1028.3c2.3,0,4.6,0.7,6.5,2.1l2.6,1.8l0.5-3.2c2-13,7.4-25.3,15.9-35.4l0.6-0.7l-0.2-0.9c-0.2-0.8-0.2-1.5-0.2-2.3v-0.4
				c0-0.5,0.1-1.1,0.2-1.8l0.2-1.4l-1.2-0.7c-2.6-1.5-4.5-4-5.4-6.9l-1-3.3l-2.4,2.5c-13.1,13.7-21.4,30.9-24,49.7l-0.5,3.7l3.4-1.6
				C20.3,1028.7,22,1028.3,23.7,1028.3z M166.8,978.5c-0.9,2.9-2.8,5.3-5.4,6.9l-1.2,0.7l0.2,1.4c0.1,0.7,0.2,1.3,0.2,1.8v0.4
				c0,0.8-0.1,1.5-0.2,2.3l-0.2,0.9l0.6,0.7c8.4,10.1,13.9,22.4,15.9,35.4l0.5,3.2l2.6-1.8c1.9-1.3,4.2-2.1,6.5-2.1
				c1.7,0,3.4,0.4,5,1.2l3.4,1.6l-0.5-3.7c-2.6-18.8-10.9-36-24-49.7l-2.4-2.5L166.8,978.5z M147,997.4l1.7,0.2l0.2,0
				c0.2,0,0.5,0.1,0.9,0.1c4.4,0,8-3.7,8-8.2v-0.4c0-0.1,0-0.3,0-0.4l-0.1-1.9l-1.9,0.1c-0.1,0-0.3,0-0.4,0c-1.8,0-3.7-0.5-5.4-1.4
				l-2.9-1.5V997.4z M52.2,988.9c0,0.1,0,0.2,0,0.4v0.4c0,4.5,3.6,8.2,8,8.2c0.4,0,0.7-0.1,0.9-0.1l0.2,0l1.7-0.2v-13.3l-2.9,1.5
				c-1.7,0.9-3.6,1.4-5.4,1.4c-0.1,0-0.3,0-0.4,0l-2-0.1L52.2,988.9z M133.5,989.2l1.1,0.6c1.7,0.9,3.2,1.8,4.6,2.6l5.1,3.3v-13.5
				l-2.4-1.5c-1.6-1-3.4-2-5.4-3l-2.9-1.5V989.2z M73.6,977.6c-2.1,1.1-3.8,2-5.4,3l-2.4,1.5v13.5l5.1-3.3c1.4-0.9,2.9-1.7,4.6-2.6
				l1.1-0.6v-13.1L73.6,977.6z M119.9,984.2l1.5,0.4c2.3,0.6,4.5,1.3,6.6,2.2l2.7,1.1V975l-1.3-0.5c-2.2-0.8-4.5-1.5-7-2.2l-2.5-0.7
				V984.2z M87.6,972.4c-2.5,0.6-4.8,1.4-7,2.2l-1.3,0.5v12.8l2.7-1.1c2.1-0.8,4.3-1.6,6.6-2.2l1.5-0.4v-12.5L87.6,972.4z
				 M105,967.3c13.6,0,26.8,3.8,38.3,11l7.3,4.6c1.4,0.9,3.1,1.4,4.8,1.4c5,0,9.1-4.1,9.1-9.1v-0.4c0-3.2-1.7-6.2-4.4-7.8l-5.5-3.3
				c-15-9-32.1-13.7-49.6-13.7s-34.6,4.8-49.6,13.7l-5.5,3.3c-2.7,1.6-4.4,4.6-4.4,7.8v0.4c0,5,4.1,9.1,9.1,9.1
				c1.7,0,3.4-0.5,4.8-1.4l7.3-4.6C78.2,971.1,91.4,967.3,105,967.3z M106.4,982.4l1.9,0.1c2.2,0.1,4.4,0.3,6.6,0.7l2.3,0.4v-12.4
				l-1.7-0.3c-2.2-0.3-4.6-0.6-7-0.7l-2.1-0.1V982.4z M101.5,970.2c-2.4,0.1-4.7,0.4-7,0.7l-1.7,0.3v12.4l2.3-0.4
				c2.1-0.3,4.3-0.6,6.6-0.7l1.9-0.1v-12.3L101.5,970.2z"/>
			
				<rect x="170.6" y="1087.6" transform="matrix(-0.3424 0.9395 -0.9395 -0.3424 1253.9745 1300.3619)" fill="#3ebfc1" width="2.7" height="2.8"/>
			
				<rect x="162.6" y="1109.5" transform="matrix(-0.3424 0.9395 -0.9395 -0.3424 1263.8608 1337.298)" fill="#3ebfc1" width="2.7" height="2.8"/>
			
				<rect x="154.6" y="1131.5" transform="matrix(-0.3424 0.9395 -0.9395 -0.3424 1273.75 1374.2965)" fill="#3ebfc1" width="2.7" height="2.8"/>
			<rect x="184.9" y="1038.4" fill="#3ebfc1" width="2.8" height="2.8"/>
		</g>
	</g>
</g>
</svg>
