<?xml version="1.0" encoding="iso-8859-1"?>
<!-- Generator: Adobe Illustrator 19.0.0, SVG Export Plug-In . SVG Version: 6.00 Build 0)  -->
<svg version="1.1" id="Capa_1" xmlns="http://www.w3.org/2000/svg" xmlns:xlink="http://www.w3.org/1999/xlink" x="0px" y="0px"
	 viewBox="0 0 496.024 496.024" style="enable-background:new 0 0 496.024 496.024;" xml:space="preserve">
<g>
	<g>
		<g>
			<rect x="82.002" y="332.138" transform="matrix(0.3423 0.9396 -0.9396 0.3423 378.7067 139.2571)" width="15.76" height="16"/>
			
				<rect x="100.749" y="384.118" transform="matrix(-0.9396 0.3423 -0.3423 -0.9396 345.1077 723.0927)" width="16" height="15.76"/>
			<rect x="119.618" y="435.93" transform="matrix(-0.9396 0.3423 -0.3423 -0.9396 399.443 817.1264)" width="16" height="15.76"/>
			<rect x="48.007" y="216" width="16" height="16"/>
			<path d="M450.975,314.504c-0.896-2.232-2.12-4.304-3.648-6.184c2.152-1.744,3.96-3.968,4.976-6.752l10.752-29.536
				c2.848-7.816-0.904-16.376-8.344-19.776c10.224-5.344,17.296-15.936,17.296-28.256c0-63.632-27.208-124.488-74.664-166.96
				l-0.064,0.072c-2.696-6.24-7.256-11.632-13.224-15.216l-13.048-7.832C333.847,11.784,291.319,0,248.007,0
				s-85.84,11.784-123,34.064l-13.048,7.832c-5.968,3.584-10.536,8.976-13.224,15.216l-0.064-0.072
				C51.215,99.512,24.007,160.368,24.007,224c0,12.32,7.072,22.912,17.304,28.256c-7.44,3.4-11.184,11.96-8.344,19.776
				l10.752,29.528c1.016,2.792,2.824,5.008,4.976,6.76c-1.528,1.88-2.752,3.952-3.648,6.184
				C9.399,328.544-8.865,368.6,4.319,404.816l16.168,44.424c6.472,17.832,19.52,32.072,36.712,40.088
				c9.552,4.456,19.744,6.688,29.976,6.688c7.584,0,15.184-1.288,22.56-3.76c0.384,0.208,0.72,0.48,1.12,0.664
				c3.192,1.488,6.6,2.24,10.024,2.24c2.744,0,5.496-0.48,8.144-1.448l29.616-10.776c6.56-2.384,11.352-7.408,13.792-13.408
				l27.936-10.168c12.312-4.48,18.688-18.144,14.2-30.456l-48.504-133.28c-2.168-5.96-6.528-10.72-12.28-13.4
				s-12.2-2.976-18.168-0.792L107.679,291.6c-1.392-0.736-2.84-1.336-4.352-1.784c0.944-3.224,0.896-6.64-0.28-9.856l-10.752-29.528
				c-1.64-4.512-5.16-7.768-9.336-9.344c3.16-4.952,5.048-10.792,5.048-17.088c0-35.24,11.624-69.192,32.832-96.968
				c5.448,5.536,12.976,8.968,21.272,8.968c5.672,0,11.216-1.624,16.024-4.696l15.336-9.8c22.376-14.312,48.16-21.872,74.536-21.872
				s52.168,7.56,74.544,21.872l15.328,9.8c4.808,3.072,10.352,4.696,16.024,4.696c8.296,0,15.816-3.432,21.272-8.968
				c21.208,27.776,32.832,61.728,32.832,96.968c0,6.296,1.888,12.136,5.04,17.088c-4.176,1.576-7.696,4.832-9.336,9.344
				l-10.752,29.528c-1.176,3.216-1.224,6.632-0.272,9.856c-1.512,0.448-2.96,1.048-4.352,1.784l-27.944-10.176
				c-5.952-2.176-12.408-1.896-18.168,0.792c-5.752,2.68-10.112,7.44-12.28,13.408l-48.496,133.288
				c-4.488,12.312,1.888,25.976,14.2,30.456l27.936,10.168c2.44,6,7.24,11.024,13.792,13.408l29.616,10.776
				c2.648,0.968,5.4,1.448,8.144,1.448c3.424,0,6.832-0.752,10.024-2.24c0.4-0.184,0.736-0.456,1.12-0.664
				c7.376,2.472,14.976,3.76,22.56,3.76c10.224,0,20.432-2.24,29.976-6.688c17.192-8.016,30.24-22.256,36.728-40.088l16.168-44.424
				C504.887,368.608,486.615,328.544,450.975,314.504z M440.007,240c-8.824,0-16-7.176-16-16c0-8.824,7.176-16,16-16
				c8.824,0,16,7.176,16,16C456.007,232.824,448.831,240,440.007,240z M40.007,224c0-8.824,7.176-16,16-16c8.824,0,16,7.176,16,16
				c0,8.824-7.176,16-16,16S40.007,232.824,40.007,224z M63.967,474.832c-13.328-6.208-23.432-17.24-28.464-31.056l-16.168-44.424
				c-9.448-25.96,1.976-54.456,25.6-67.192L98.311,478.8C86.783,481.192,74.839,479.896,63.967,474.832z M93.959,305.24
				c4.024-1.456,8.496,0.616,9.952,4.632l36.704,100.856l15.032-5.472l-36.664-100.744l22.096-8.048
				c1.952-0.712,4.064-0.624,5.928,0.264c1.88,0.872,3.304,2.432,4.016,4.376l48.504,133.272c1.464,4.024-0.616,8.488-4.64,9.944
				l-22.104,8.04l-11.32-31.104l-15.032,5.472l11.36,31.224c1.464,4.024-0.616,8.488-4.632,9.944l-29.616,10.776
				c-1.936,0.712-4.056,0.624-5.928-0.256c-1.88-0.872-3.304-2.432-4.016-4.376L59.711,325.96c-1.464-4.016,0.616-8.48,4.632-9.944
				L93.959,305.24z M87.975,285.304l-29.224,10.784l-10.832-29.344l29.352-10.832L87.975,285.304z M74.151,197.688
				C68.983,194.12,62.743,192,56.007,192c-5.016,0-9.704,1.264-13.936,3.328c6.008-43,25.376-83.232,55.464-114.816
				c2.424,8.064,7.792,14.776,14.936,18.936c-0.264,1.64-0.464,3.304-0.464,4.992v0.96c0,2.184,0.24,4.304,0.672,6.352
				C92.143,136.488,78.903,166.144,74.151,197.688z M144.007,119.728c-0.632,0.088-1.256,0.272-1.896,0.272
				c-7.776,0-14.104-6.552-14.104-14.608v-0.96c0-0.176,0.04-0.344,0.048-0.52c0.28,0.008,0.536,0.088,0.816,0.088
				c5.304,0,10.464-1.352,15.136-3.776V119.728z M176.007,101.592c-3.784,1.992-7.52,4.112-11.16,6.432l-4.84,3.096V90.44
				l3.536-2.208c4.048-2.528,8.232-4.8,12.464-6.944V101.592z M208.007,89.016c-5.424,1.464-10.76,3.208-16,5.256V74.216
				c5.24-1.976,10.584-3.624,16-5.024V89.016z M240.007,83.92c-5.376,0.28-10.712,0.824-16,1.656V65.864
				c5.288-0.808,10.624-1.32,16-1.584V83.92z M272.007,85.576c-5.288-0.832-10.624-1.376-16-1.656V64.28
				c5.376,0.272,10.712,0.784,16,1.584V85.576z M304.007,94.272c-5.24-2.048-10.584-3.792-16-5.256V69.192
				c5.416,1.408,10.76,3.056,16,5.024V94.272z M336.007,111.12l-4.832-3.096c-3.64-2.328-7.376-4.44-11.168-6.44V81.28
				c4.232,2.144,8.408,4.416,12.464,6.944l3.536,2.216V111.12z M368.007,105.392c0,8.056-6.328,14.608-14.104,14.608
				c-0.648,0-1.264-0.184-1.896-0.272v-19.504c4.672,2.424,9.832,3.776,15.136,3.776c0.28,0,0.544-0.08,0.816-0.08
				c0.008,0.176,0.048,0.344,0.048,0.52V105.392z M367.143,88c-3.168,0-6.256-0.888-8.936-2.568l-17.248-10.776
				C313.047,57.216,280.903,48,248.007,48s-65.04,9.216-92.944,26.656L137.815,85.44c-2.68,1.672-5.776,2.56-8.944,2.56
				c-9.296,0-16.864-7.568-16.864-16.864V70.08c0-5.888,3.144-11.432,8.184-14.464l13.048-7.832
				C167.903,26.992,207.591,16,248.007,16s80.104,10.992,114.768,31.784l13.048,7.832c5.04,3.032,8.184,8.576,8.184,14.464v1.048
				C384.007,80.432,376.439,88,367.143,88z M383.335,111.752c0.432-2.056,0.672-4.176,0.672-6.36v-0.952
				c0-1.688-0.2-3.344-0.464-4.992c7.144-4.152,12.512-10.872,14.936-18.936c30.088,31.592,49.456,71.824,55.464,114.816
				c-4.232-2.064-8.92-3.328-13.936-3.328c-6.736,0-12.976,2.12-18.144,5.688C417.111,166.144,403.871,136.488,383.335,111.752z
				 M418.567,255.992l29.448,10.568l-10.568,29.448l-29.4-10.704L418.567,255.992z M382.407,474.04
				c-0.712,1.952-2.136,3.504-4.016,4.376c-1.872,0.88-3.992,0.968-5.928,0.256l-29.616-10.776c-4.016-1.464-6.096-5.92-4.632-9.944
				l43.392-119.224l-15.032-5.472L323.223,452.36l-22.104-8.04c-4.024-1.464-6.104-5.92-4.64-9.944l48.504-133.272
				c0.712-1.952,2.136-3.504,4.016-4.376c1.872-0.88,3.976-0.968,5.928-0.264l22.104,8.048l-4.64,12.752l15.032,5.472l4.68-12.856
				c1.464-4.016,5.904-6.112,9.952-4.64l29.616,10.784c4.016,1.464,6.096,5.928,4.632,9.944L382.407,474.04z M476.671,399.344
				l-16.168,44.424c-5.032,13.816-15.136,24.84-28.464,31.056c-10.88,5.064-22.816,6.36-34.352,3.968l53.376-146.64
				C474.695,344.896,486.111,373.392,476.671,399.344z"/>
			
				<rect x="398.106" y="332.265" transform="matrix(-0.9396 -0.3423 0.3423 -0.9396 671.2492 798.7509)" width="16" height="15.76"/>
			<rect x="379.252" y="384.059" transform="matrix(-0.9396 -0.3423 0.3423 -0.9396 616.95 892.7567)" width="16" height="15.76"/>
			<rect x="360.348" y="435.93" transform="matrix(-0.9396 -0.3423 0.3423 -0.9396 562.53 986.8941)" width="16" height="15.76"/>
			<rect x="432.007" y="216" width="16" height="16"/>
		</g>
	</g>
</g>
<g>
</g>
<g>
</g>
<g>
</g>
<g>
</g>
<g>
</g>
<g>
</g>
<g>
</g>
<g>
</g>
<g>
</g>
<g>
</g>
<g>
</g>
<g>
</g>
<g>
</g>
<g>
</g>
<g>
</g>
</svg>
