<?xml version="1.0" encoding="utf-8"?>
<!-- Generator: Adobe Illustrator 17.1.0, SVG Export Plug-In . SVG Version: 6.00 Build 0)  -->
<!DOCTYPE svg PUBLIC "-//W3C//DTD SVG 1.1//EN" "http://www.w3.org/Graphics/SVG/1.1/DTD/svg11.dtd">


<svg class="svg" version="1.1" xmlns="http://www.w3.org/2000/svg" xmlns:xlink="http://www.w3.org/1999/xlink" x="0px" y="0px" enable-background="new 0 0 297.5 200.3" xml:space="preserve">

<defs>
    
    <symbol id="mb-logo" viewBox="0 0 297.5 200.3">
    
        <polyline fill="#00A8A7" points="173.5,39.9 173.5,14.9 297.5,48.1 297.5,172.2 173.5,139 173.5,114.2 " />
        <g>
            <path fill="#20677D" d="M148.8,157.2V33.2l99.2,26.6v24.8l24.8,6.6V116l-24.8-6.6v24.8l24.8,6.6v24.8l-24.8-6.6v24.8L148.8,157.2z
                 M173.5,89.4l74.4,19.9V84.6l-74.4-19.9V89.4z M173.5,139l74.4,19.9v-24.8l-74.4-19.9V139z" />
        </g>
        <polyline fill="#20677D" points="50,56.3 62,59.5 124,76.1 124,138.2 124,200.3 62,183.7 0,167.1 0,105 0,42.9 24.8,49.6 " />
        <g>
            <path fill="#00A8A7" d="M24.8,123.9V0l24.8,6.6v24.8l24.8,6.6v24.8l24.8,6.6V44.7l24.8,6.6V26.6l24.8,6.6v123.9l-24.8-6.6V76.1
                l-24.8-6.6v24.8l-24.8-6.6V62.9l-24.8-6.6v74.4L24.8,123.9z" />
        </g>
        
    </symbol>
    
</defs>

</svg>
