<?xml version="1.0" encoding="utf-8"?>
<!-- Generator: Adobe Illustrator 17.1.0, SVG Export Plug-In . SVG Version: 6.00 Build 0)  -->
<!DOCTYPE svg PUBLIC "-//W3C//DTD SVG 1.1//EN" "http://www.w3.org/Graphics/SVG/1.1/DTD/svg11.dtd">
<svg version="1.1" id="Warstwa_1" xmlns="http://www.w3.org/2000/svg" xmlns:xlink="http://www.w3.org/1999/xlink" x="0px" y="0px"
	 viewBox="0 783.7 210 532.5" enable-background="new 0 783.7 210 532.5" xml:space="preserve">
<polygon fill="#171D2A" points="-0.3,784.7 0,782.7 141,782.7 141,822.5 "/>
<polygon fill="#121723" points="139,782.7 210,782.7 210.5,784.6 139,822.9 "/>
<polygon fill="#171D2A" points="69,1139.5 69,997.5 210.9,1035.5 210.9,1177.6 "/>
<polygon fill="#1A202D" points="69.7,999.7 69.8,999 69.5,997.9 139.8,960.2 210.9,979.2 210.9,1037.6 "/>
<polygon fill="#121723" points="-1,1035.7 71,997.1 71,1139.3 -1,1177.9 "/>
<polygon fill="#1A202D" points="-1,978.7 70.2,997.8 70,998.7 70,998.8 70.5,999.6 -1,1037.9 "/>
<polygon fill="#171D2A" points="139,962 139,819.9 210.9,839.2 210.9,981.3 "/>
<polygon fill="#171D2A" points="-1,980.8 -1,838.7 71,858 71,1000.1 "/>
<polygon fill="#121723" points="69,858.2 141,819.6 141,961.8 69,1000.4 "/>
<polygon fill="#1A202D" points="-1,840.8 -1,782.4 140.1,820.2 141,820.2 141,821.2 141,822.2 140.2,822.3 70.1,859.8 "/>
<polygon fill="#1A202D" points="140,821.2 140,821.2 0,783.7 0,840 70,858.8 140,821.3 140,821.3 "/>
<polygon fill="#171D2A" points="-1,1317.3 -1,1175 141,1213 141,1317.3 "/>
<polygon fill="#121723" points="139,1317.3 139,1213.2 210.9,1174.6 210.9,1317.3 "/>
<polygon fill="#1A202D" points="-0.1,1177.3 -1,1177.3 -1,1176.3 -1,1175.3 -0.2,1175.3 69.9,1137.7 210.1,1175.3 212.4,1175.3 
	210.7,1177 210,1176.3 210.5,1177.1 140.1,1214.8 "/>
<polygon fill="#1A202D" points="139,822 139,821.3 139.7,821.2 139.5,820.4 210.9,782.1 210.9,841.3 "/>
<polygon fill="#1A202D" points="209.9,783.7 140,821.2 140,821.2 140,821.2 140,821.3 140,821.3 209.9,840 "/>
<polygon fill="#171D2A" points="0,783.7 140,821.2 140,783.7 "/>
<polygon fill="#121723" points="140,783.7 140,821.2 210,783.7 "/>
<polygon fill="#171D2A" points="209.9,840 140,821.2 140,961.2 209.9,980 "/>
<polygon fill="#121723" points="70,858.8 70,998.8 140,961.2 140,821.2 "/>
<polygon fill="#171D2A" points="0,840 0,980 70,998.8 70,858.8 "/>
<polygon fill="#171D2A" points="209.9,1176.3 70,1138.7 70,998.8 209.9,1036.3 "/>
<polygon fill="#1A202D" points="209.9,980 140,961.3 70,998.8 70,998.8 70,998.8 70,998.8 70,998.8 209.9,1036.3 "/>
<polygon fill="#121723" points="0,1036.3 0,1176.3 70,1138.7 70,998.8 "/>
<polygon fill="#1A202D" points="70,998.8 70,998.8 0,980 0,1036.3 70,998.8 70,998.8 70,998.8 "/>
<polygon fill="#171D2A" points="140,1316.3 140,1213.8 0,1176.3 0,1316.3 0,1316.3 "/>
<polygon fill="#121723" points="209.9,1316.3 209.9,1316.3 209.9,1176.3 140,1213.8 140,1316.3 "/>
<polygon fill="#1A202D" points="210,1176.3 210,1176.3 210,1176.3 70,1138.7 0,1176.3 0,1176.3 0,1176.3 0,1176.3 0,1176.3 
	140,1213.8 210,1176.3 210,1176.3 "/>
</svg>
