<?xml version="1.0" encoding="iso-8859-1"?>
<!-- Generator: Adobe Illustrator 19.0.0, SVG Export Plug-In . SVG Version: 6.00 Build 0)  -->
<svg version="1.1" id="Layer_1" xmlns="http://www.w3.org/2000/svg" xmlns:xlink="http://www.w3.org/1999/xlink" x="0px" y="0px"
	 viewBox="0 0 300 300" style="enable-background:new 0 0 300 300;" xml:space="preserve">
<g>
	<g>
		<g>
			<path d="M285.484,62.904v-38.71H14.516v38.71H0v212.903h106.452h87.097H300V62.904H285.484z M24.194,33.871h251.612v4.839H24.194
				V33.871z M24.194,48.388h251.613v14.516H24.194V48.388z M9.677,130.645h58.065v4.839H9.677V130.645z M9.677,145.162h58.065v4.839
				H9.677V145.162z M125.806,266.129h-9.677v-4.839h9.677V266.129z M145.161,266.129h-9.677v-4.839h9.677V266.129z M164.516,266.129
				h-9.677v-4.839h9.677V266.129z M183.871,266.129h-9.677v-4.839h9.677V266.129z M290.323,266.13h-96.774v-14.516h-87.097v14.516
				H9.677V159.678h67.742v-38.71H9.677v-9.677h280.645v9.677h-67.741v0.001v38.71h67.742V266.13z M232.258,145.162h58.064v4.839
				h-58.064V145.162z M290.323,135.485h-58.064v-4.839h58.064V135.485z M290.323,101.613H9.677V72.581h4.839h270.968h4.839V101.613z
				"/>
			<path d="M58.065,169.355c-24.01,0-43.548,19.534-43.548,43.548c0,24.014,19.539,43.548,43.548,43.548
				s43.548-19.534,43.548-43.548C101.613,188.889,82.074,169.355,58.065,169.355z M91.151,205.714
				c0.503,2.318,0.784,4.723,0.784,7.19c0,5.308-1.262,10.316-3.45,14.797c-0.45-0.135-0.895-0.281-1.389-0.281
				c-2.671,0-4.839,2.168-4.839,4.839c0,1.166,0.465,2.197,1.156,3.034c-6.213,7.021-15.261,11.482-25.35,11.482
				s-19.137-4.461-25.35-11.482c0.692-0.837,1.156-1.868,1.156-3.034c0-2.671-2.168-4.839-4.839-4.839
				c-0.494,0-0.939,0.145-1.389,0.281c-2.187-4.481-3.45-9.489-3.45-14.797c0-2.468,0.281-4.873,0.784-7.19
				c0.856,1.379,2.313,2.352,4.055,2.352c2.671,0,4.839-2.168,4.839-4.839c0-2.671-2.168-4.839-4.839-4.839
				c-0.6,0-1.161,0.14-1.689,0.339c1.655-3.566,3.885-6.813,6.615-9.581c0.232,2.458,2.235,4.403,4.752,4.403
				c2.671,0,4.839-2.168,4.839-4.839c0-2.139-1.413-3.895-3.339-4.534c5.192-3.242,11.298-5.144,17.855-5.144
				s12.663,1.902,17.855,5.144c-1.926,0.639-3.339,2.395-3.339,4.534c0,2.671,2.168,4.839,4.839,4.839
				c2.516,0,4.519-1.945,4.752-4.403c2.729,2.768,4.96,6.015,6.615,9.581c-0.527-0.198-1.089-0.339-1.689-0.339
				c-2.671,0-4.839,2.168-4.839,4.839c0,2.671,2.168,4.839,4.839,4.839C88.838,208.066,90.294,207.092,91.151,205.714z"/>
			<circle cx="48.387" cy="232.258" r="4.839"/>
			<circle cx="67.742" cy="232.258" r="4.839"/>
			<circle cx="58.065" cy="217.743" r="4.839"/>
			<circle cx="77.419" cy="217.743" r="4.839"/>
			<circle cx="38.71" cy="217.743" r="4.839"/>
			<circle cx="48.387" cy="203.226" r="4.839"/>
			<circle cx="67.742" cy="203.226" r="4.839"/>
			<circle cx="58.065" cy="188.71" r="4.839"/>
			<path d="M198.387,212.904c0,24.015,19.539,43.548,43.548,43.548c24.009,0,43.548-19.534,43.548-43.548
				c0-24.014-19.539-43.548-43.548-43.548C217.926,169.355,198.387,188.889,198.387,212.904z M217.828,189.146
				c0.232,2.458,2.235,4.403,4.752,4.403c2.671,0,4.839-2.168,4.839-4.839c0-2.139-1.413-3.895-3.339-4.534
				c5.192-3.242,11.298-5.144,17.855-5.144s12.663,1.902,17.855,5.144c-1.926,0.639-3.339,2.395-3.339,4.534
				c0,2.671,2.168,4.839,4.839,4.839c2.516,0,4.519-1.945,4.752-4.403c2.729,2.768,4.96,6.015,6.615,9.581
				c-0.527-0.198-1.089-0.339-1.689-0.339c-2.671,0-4.839,2.168-4.839,4.839s2.168,4.839,4.839,4.839
				c1.742,0,3.198-0.973,4.055-2.352c0.503,2.318,0.784,4.723,0.784,7.19c0,5.308-1.263,10.316-3.45,14.797
				c-0.45-0.135-0.895-0.281-1.389-0.281c-2.671,0-4.839,2.168-4.839,4.839c0,1.166,0.465,2.197,1.156,3.034
				c-6.213,7.021-15.261,11.482-25.35,11.482s-19.137-4.461-25.35-11.482c0.692-0.837,1.156-1.868,1.156-3.034
				c0-2.671-2.168-4.839-4.839-4.839c-0.494,0-0.939,0.145-1.389,0.281c-2.187-4.481-3.45-9.489-3.45-14.797
				c0-2.468,0.281-4.873,0.784-7.19c0.856,1.379,2.313,2.352,4.055,2.352c2.671,0,4.839-2.168,4.839-4.839s-2.168-4.839-4.839-4.839
				c-0.6,0-1.161,0.14-1.689,0.339C212.868,195.162,215.098,191.915,217.828,189.146z"/>
			<circle cx="232.258" cy="232.258" r="4.839"/>
			<circle cx="251.613" cy="232.258" r="4.839"/>
			<circle cx="241.935" cy="217.743" r="4.839"/>
			<circle cx="261.29" cy="217.743" r="4.839"/>
			<circle cx="222.581" cy="217.743" r="4.839"/>
			<circle cx="232.258" cy="203.226" r="4.839"/>
			<circle cx="251.613" cy="203.226" r="4.839"/>
			<circle cx="241.935" cy="188.71" r="4.839"/>
			<path d="M106.452,241.936h87.097v-82.258h-87.097V241.936z M116.129,169.355h67.742v43.548h-67.742V169.355z M116.129,222.581
				h67.742v9.677h-67.742V222.581z"/>
			<polygon points="256.452,77.42 246.774,77.42 246.774,82.258 19.355,82.258 19.355,91.936 246.774,91.936 246.774,96.774 
				256.452,96.774 256.452,91.936 280.645,91.936 280.645,82.258 256.452,82.258 			"/>
			<path d="M188.71,150.001c8.003,0,14.516-6.513,14.516-14.516c0-8.003-6.513-14.516-14.516-14.516s-14.516,6.513-14.516,14.516
				S180.706,150.001,188.71,150.001z M188.71,130.646c2.666,0,4.839,2.168,4.839,4.839s-2.173,4.839-4.839,4.839
				s-4.839-2.168-4.839-4.839S186.044,130.646,188.71,130.646z"/>
			<path d="M150,150.001c8.003,0,14.516-6.513,14.516-14.516c0-8.003-6.513-14.516-14.516-14.516s-14.516,6.513-14.516,14.516
				S141.997,150.001,150,150.001z M150,130.646c2.666,0,4.839,2.168,4.839,4.839s-2.173,4.839-4.839,4.839s-4.839-2.168-4.839-4.839
				S147.334,130.646,150,130.646z"/>
			<path d="M125.806,135.485c0-8.003-6.513-14.516-14.516-14.516c-8.003,0-14.516,6.513-14.516,14.516s6.513,14.516,14.516,14.516
				C119.293,150.001,125.806,143.488,125.806,135.485z M106.452,135.485c0-2.671,2.173-4.839,4.839-4.839s4.839,2.168,4.839,4.839
				c0,2.671-2.173,4.839-4.839,4.839S106.452,138.155,106.452,135.485z"/>
		</g>
	</g>
</g>
<g>
</g>
<g>
</g>
<g>
</g>
<g>
</g>
<g>
</g>
<g>
</g>
<g>
</g>
<g>
</g>
<g>
</g>
<g>
</g>
<g>
</g>
<g>
</g>
<g>
</g>
<g>
</g>
<g>
</g>
</svg>
