<?xml version="1.0" encoding="utf-8"?>
<!-- Generator: Adobe Illustrator 17.1.0, SVG Export Plug-In . SVG Version: 6.00 Build 0)  -->
<!DOCTYPE svg PUBLIC "-//W3C//DTD SVG 1.1//EN" "http://www.w3.org/Graphics/SVG/1.1/DTD/svg11.dtd">
<svg version="1.1" id="Warstwa_1" xmlns="http://www.w3.org/2000/svg" xmlns:xlink="http://www.w3.org/1999/xlink" x="0px" y="0px"
	 viewBox="0 0 80 53.9" enable-background="new 0 0 80 53.9" xml:space="preserve">
<polyline fill="#00A8A7" points="46.7,10.7 46.7,4 80,12.9 80,46.3 46.7,37.4 46.7,30.7 "/>
<g>
	<path fill="#18CDCA" d="M40,42.3V8.9l26.7,7.1v6.7l6.7,1.8v6.7l-6.7-1.8v6.7l6.7,1.8v6.7l-6.7-1.8v6.7L40,42.3z M46.7,24.1l20,5.4
		v-6.7l-20-5.4V24.1z M46.7,37.4l20,5.4v-6.7l-20-5.4V37.4z"/>
</g>
<polyline fill="#18CDCA" points="13.4,15.1 16.7,16 33.3,20.5 33.3,37.2 33.3,53.9 16.7,49.4 0,44.9 0,28.2 0,11.5 6.7,13.3 "/>
<g>
	<path fill="#00A8A7" d="M6.7,33.3V0l6.7,1.8v6.7l6.7,1.8v6.7l6.7,1.8V12l6.7,1.8V7.1L40,8.9v33.3l-6.7-1.8v-20l-6.7-1.8v6.7
		L20,23.6v-6.7l-6.7-1.8v20L6.7,33.3z"/>
</g>
</svg>
