<?xml version="1.0" encoding="utf-8"?>
<!-- Generator: Adobe Illustrator 17.1.0, SVG Export Plug-In . SVG Version: 6.00 Build 0)  -->
<!DOCTYPE svg PUBLIC "-//W3C//DTD SVG 1.1//EN" "http://www.w3.org/Graphics/SVG/1.1/DTD/svg11.dtd">
<svg version="1.1" id="Warstwa_1" xmlns="http://www.w3.org/2000/svg" xmlns:xlink="http://www.w3.org/1999/xlink" x="0px" y="0px"
	 viewBox="0 0 1569.5 3980" enable-background="new 0 0 1569.5 3980" xml:space="preserve">
<polygon fill="#171D2A" points="0,0 1046,280.3 1046,0 "/>
<polygon fill="#121723" points="1046,0 1046,280.3 1569.5,0 "/>
<polygon fill="#171D2A" points="1569,2933.7 523,2653.3 523,1607 1569,1887.3 "/>
<polygon fill="#1A202D" points="1569,1466.8 1046.1,1326.7 523.1,1607 523.1,1607 523.2,1607 523.1,1607 523.1,1607 1569,1887.3 "/>
<polygon fill="#121723" points="0,1887.3 0,2933.6 523,2653.3 523,1607 "/>
<polygon fill="#1A202D" points="523.2,1607 523,1607 0,1466.8 0,1887.3 523.1,1607 523.2,1607 523.1,1607 "/>
<polygon fill="#171D2A" points="1569,420.5 1046,280.3 1046,1326.6 1569,1466.8 "/>
<polygon fill="#171D2A" points="0,420.5 0,1466.8 523,1607 523,560.7 "/>
<polygon fill="#121723" points="523,560.7 523,1607 1046,1326.6 1046,280.3 "/>
<polygon fill="#1A202D" points="1046.3,280.3 1046.1,280.3 0,0 0,420.5 523.2,560.7 1046.2,280.4 1046.3,280.4 1046.3,280.3 "/>
<polygon fill="#171D2A" points="1046,3980 1046,3214 0,2933.6 0,3980 0,3980 "/>
<polygon fill="#121723" points="1569,3980 1569,3980 1569,2933.6 1046,3214 1046,3980 "/>
<polygon fill="#1A202D" points="1569.4,2933.7 1569.5,2933.6 1569.3,2933.6 523.2,2653.3 0.1,2933.6 0,2933.6 0,2933.6 0,2933.7 
	0.2,2933.7 1046.3,3214 1569.4,2933.7 1569.5,2933.7 "/>
<polygon fill="#1A202D" points="1569,0 1046.2,280.3 1046.2,280.3 1046.3,280.3 1046.3,280.4 1046.3,280.4 1569,420.5 "/>
</svg>
