<?xml version="1.0" encoding="iso-8859-1"?>
<!-- Generator: Adobe Illustrator 19.0.0, SVG Export Plug-In . SVG Version: 6.00 Build 0)  -->
<svg version="1.1" id="Capa_1" xmlns="http://www.w3.org/2000/svg" xmlns:xlink="http://www.w3.org/1999/xlink" x="0px" y="0px"
	 viewBox="0 0 512.001 512.001" style="enable-background:new 0 0 512.001 512.001;" xml:space="preserve">
<g>
	<g>
		<path d="M489.189,0.808h-49.66c-15.584,0-28.913,11.202-31.596,26.553l-7.155,40.946h-43.893c-4.199,0-7.604,3.405-7.604,7.604
			s3.405,7.604,7.604,7.604h41.236l-3.984,22.799H26.944c-5.932,0-11.126-4.394-11.683-10.3
			c-0.639-6.778,4.699-12.499,11.347-12.499h294.79c4.199,0,7.604-3.405,7.604-7.604s-3.405-7.604-7.604-7.604H27.173
			c-14.478,0-26.731,11.33-27.161,25.801c-0.447,15.038,11.656,27.414,26.596,27.414h2.518l38.54,220.539
			c0.636,3.64,3.796,6.295,7.49,6.295h276.681l-3.532,20.214h-214.47c-4.199,0-7.604,3.405-7.604,7.604s3.405,7.604,7.604,7.604
			h220.862c3.695,0,6.855-2.655,7.49-6.295L422.914,29.98c1.41-8.072,8.42-13.963,16.615-13.963h49.395
			c3.865,0,7.313,2.771,7.805,6.603c0.595,4.637-3.018,8.605-7.54,8.605h-44.665c-3.695,0-6.855,2.655-7.49,6.295L377.145,380.23
			c-1.899,10.87-11.286,18.758-22.321,18.758H68.167c-3.864,0-7.312-2.771-7.804-6.603c-0.595-4.637,3.017-8.605,7.54-8.605H98.35
			c4.199,0,7.604-3.405,7.604-7.604s-3.405-7.604-7.604-7.604H68.459c-12.337,0-22.863,9.562-23.351,21.889
			c-0.514,12.956,9.844,23.664,22.673,23.731c-13.27,11.47-21.686,28.411-21.667,47.291c0.004,4.173,3.431,7.539,7.604,7.539h5.634
			c3.671,23.849,24.333,42.171,49.193,42.171c24.861,0,45.521-18.32,49.194-42.171h5.634c4.173,0,7.6-3.366,7.604-7.539
			c0.019-18.879-8.396-35.819-21.664-47.288h152.456c-13.268,11.47-21.683,28.409-21.664,47.288
			c0.004,4.173,3.431,7.539,7.604,7.539h5.634c3.671,23.849,24.333,42.171,49.194,42.171c24.86,0,45.521-18.32,49.193-42.171h5.634
			c4.184,0,7.602-3.385,7.604-7.57c0.012-22.463-11.905-42.188-29.746-53.197c8.695-5.554,15.017-14.598,16.906-25.408
			l58.79-336.415h37.714c12.353,0,22.888-9.587,23.355-21.931C512.476,11.524,502.061,0.808,489.189,0.808z M81.548,333.149
			L44.566,121.523h29.836l27.75,211.626H81.548z M117.491,333.149l-27.75-211.626h29.985l18.506,211.626H117.491z M153.497,333.149
			l-18.506-211.626h40.612l7.105,211.626H153.497z M238.11,333.148h-40.185l-7.105-211.625h54.396L238.11,333.148z M253.327,333.149
			l7.105-211.626h40.617l-18.506,211.626H253.327z M297.808,333.149l18.506-211.626h29.987l-27.75,211.626H297.808z
			 M354.495,333.149H333.89l27.75-211.626h29.837L354.495,333.149z M108.545,495.984c-16.447,0-30.237-11.55-33.712-26.963h67.425
			C138.783,484.435,124.992,495.984,108.545,495.984z M155.156,453.815H61.934c3.646-22.438,23.16-39.619,46.611-39.619
			C131.996,414.196,151.51,431.377,155.156,453.815z M342.536,495.984c-16.447,0-30.238-11.55-33.713-26.963h67.425
			C372.773,484.435,358.982,495.984,342.536,495.984z M389.146,453.815h-93.223c3.647-22.438,23.16-39.619,46.611-39.619
			C365.987,414.196,385.5,431.377,389.146,453.815z"/>
	</g>
</g>
<g>
</g>
<g>
</g>
<g>
</g>
<g>
</g>
<g>
</g>
<g>
</g>
<g>
</g>
<g>
</g>
<g>
</g>
<g>
</g>
<g>
</g>
<g>
</g>
<g>
</g>
<g>
</g>
<g>
</g>
</svg>
