<?xml version="1.0" encoding="iso-8859-1"?>
<!-- Generator: Adobe Illustrator 19.0.0, SVG Export Plug-In . SVG Version: 6.00 Build 0)  -->
<svg version="1.1" id="Capa_1" xmlns="http://www.w3.org/2000/svg" xmlns:xlink="http://www.w3.org/1999/xlink" x="0px" y="0px"
	 viewBox="0 0 512 512" style="enable-background:new 0 0 512 512;" xml:space="preserve">
<g>
	<g>
		<path d="M504.338,68.78H428.64V56.424C428.64,25.31,403.33,0,372.216,0s-56.424,25.31-56.424,56.424V68.78h-75.698
			c-4.193,0-7.596,3.393-7.596,7.596v70.361h-11.759v-15.061c0-34.76-28.278-63.038-63.038-63.038
			c-34.77,0-63.048,28.278-63.048,63.038v15.061H7.662c-4.193,0-7.596,3.393-7.596,7.596v350.071c0,4.194,3.403,7.596,7.596,7.596
			H307.73c4.193,0,7.596-3.402,7.596-7.596V392.254h189.012c4.193,0,7.596-3.403,7.596-7.596V76.377
			C511.934,72.173,508.531,68.78,504.338,68.78z M330.984,56.424c0-22.738,18.494-41.232,41.232-41.232
			c22.738,0,41.232,18.494,41.232,41.232V68.78h-82.464V56.424z M157.701,83.831c26.384,0,47.846,21.462,47.846,47.846v15.061
			h-95.701c0,0,0-15.061,0-15.061C109.845,105.293,131.307,83.831,157.701,83.831z M15.258,161.929h79.395v26.718
			c0,4.194,3.403,7.596,7.596,7.596c4.193,0,7.596-3.402,7.596-7.596v-26.718h95.701v26.718c0,4.194,3.403,7.596,7.596,7.596
			c4.193,0,7.596-3.402,7.596-7.596v-26.718h79.395v41.91H15.258V161.929z M496.742,119.067h-30.516
			c-4.193,0-7.596,3.403-7.596,7.596c0,2.097,0.851,3.991,2.228,5.369c1.377,1.376,3.271,2.227,5.368,2.227h30.516v242.803H315.326
			v-55.573c0-4.193-3.403-7.596-7.596-7.596c-2.096,0-4.001,0.851-5.378,2.228c-1.367,1.376-2.218,3.27-2.218,5.368v175.319H15.258
			V219.032h284.875v67.008c0,4.193,3.393,7.596,7.596,7.596c2.097,0,4.001-0.851,5.368-2.228c1.377-1.376,2.228-3.27,2.228-5.368
			V154.333c0-4.203-3.403-7.596-7.596-7.596h-60.04v-12.478h183.087c4.193,0,7.596-3.402,7.596-7.596
			c0-2.096-0.851-3.99-2.228-5.368c-1.377-1.376-3.271-2.228-5.368-2.228H247.69V83.973h68.102v22.302
			c0,4.163,3.201,7.789,7.363,7.911c4.304,0.132,7.829-3.313,7.829-7.586V83.973h82.464v22.302c0,4.163,3.211,7.789,7.363,7.911
			c4.304,0.132,7.829-3.313,7.829-7.586V83.973h68.102V119.067z"/>
	</g>
</g>
<g>
</g>
<g>
</g>
<g>
</g>
<g>
</g>
<g>
</g>
<g>
</g>
<g>
</g>
<g>
</g>
<g>
</g>
<g>
</g>
<g>
</g>
<g>
</g>
<g>
</g>
<g>
</g>
<g>
</g>
</svg>
