<?xml version="1.0" encoding="iso-8859-1"?>
<!-- Generator: Adobe Illustrator 19.0.0, SVG Export Plug-In . SVG Version: 6.00 Build 0)  -->
<svg version="1.1" id="Capa_1" xmlns="http://www.w3.org/2000/svg" xmlns:xlink="http://www.w3.org/1999/xlink" x="0px" y="0px"
	 viewBox="0 0 512 512" style="enable-background:new 0 0 512 512;" xml:space="preserve">
<g>
	<g>
		<path d="M504.388,191.315h-27.22c-26.519-23.821-58.824-43.253-96.109-57.756c-30.503-11.865-64.382-20.488-100.694-25.626
			c-57.498-8.135-102.047-4.967-109.476-4.342c-7.273-1.178-48.006-6.671-74.881,13.053c-12.987,9.532-20.658,23.288-22.805,40.887
			c-1.231,10.085-0.831,19.977,1.17,29.508c-1.492,0.485-2.962,0.981-4.381,1.503c-13.567,4.994-21.443,10.775-25.847,16.386
			v-46.849c0-4.204-3.408-7.612-7.612-7.612c-4.204,0-7.612,3.408-7.612,7.612v262.453H15.224V91.469h13.699v31.085
			c0,4.204,3.408,7.612,7.612,7.612s7.612-3.408,7.612-7.612V83.857c0-4.204-3.408-7.612-7.612-7.612H7.612
			C3.408,76.245,0,79.654,0,83.857v344.285c0,4.204,3.408,7.612,7.612,7.612h28.923c4.204,0,7.612-3.408,7.612-7.612v-33.734
			h422.501v33.735c0,4.204,3.408,7.612,7.612,7.612h30.129c4.204,0,7.612-3.408,7.612-7.612V198.927
			C512,194.723,508.592,191.315,504.388,191.315z M88.316,159.374c1.637-13.432,7.088-23.386,16.663-30.429
			c18.027-13.261,45.711-12.263,57.987-11.016v62.173c-8.932-1.045-18.226-1.575-27.735-1.575c-16.407,0-32.197,1.599-46.112,4.588
			C87.601,175.459,87.324,167.504,88.316,159.374z M75.251,202.828c15.904-5.854,37.203-9.077,59.978-9.077
			c9.556,0,18.852,0.576,27.735,1.698v46.548c-8.887,1.12-18.182,1.698-27.735,1.698c-22.776,0-44.077-3.222-59.979-9.073
			C59.787,228.932,54.3,222.504,54.3,218.727S59.787,208.521,75.251,202.828z M44.146,232.525
			c2.938,3.742,7.434,7.561,14.125,11.172H44.146V232.525z M44.146,258.921h118.818v15.221H44.146V258.921z M466.647,281.753v24.169
			h-39.368c-4.204,0-7.612,3.408-7.612,7.612s3.408,7.612,7.612,7.612h39.368v58.039H44.152v-89.817h118.813v24.168
			c0,4.204,3.408,7.612,7.612,7.612h221.179c4.204,0,7.612-3.408,7.612-7.612s-3.408-7.612-7.612-7.612H178.188v-24.168v-30.446
			V118.363c5.131-0.284,12.958-0.596,22.862-0.629v61.709c0,4.168,3.212,7.803,7.378,7.927c4.31,0.129,7.845-3.327,7.845-7.609
			v-61.86c17.445,0.441,38.879,1.821,62.333,5.158c54.193,7.709,130.451,27.724,188.04,79.24V281.753z M496.776,420.531h-14.905
			v-33.734v-73.262v-31.781v-75.214h14.905V420.531z"/>
	</g>
</g>
<g>
</g>
<g>
</g>
<g>
</g>
<g>
</g>
<g>
</g>
<g>
</g>
<g>
</g>
<g>
</g>
<g>
</g>
<g>
</g>
<g>
</g>
<g>
</g>
<g>
</g>
<g>
</g>
<g>
</g>
</svg>
