<?xml version="1.0" encoding="iso-8859-1"?>
<!-- Generator: Adobe Illustrator 19.0.0, SVG Export Plug-In . SVG Version: 6.00 Build 0)  -->
<svg version="1.1" id="Capa_1" xmlns="http://www.w3.org/2000/svg" xmlns:xlink="http://www.w3.org/1999/xlink" x="0px" y="0px"
	 viewBox="0 0 512 512" style="enable-background:new 0 0 512 512;" xml:space="preserve">
<g>
	<g>
		<path d="M504.388,259.057c4.204,0,7.612-3.408,7.612-7.612v-52.518c0-4.204-3.408-7.612-7.612-7.612H474.26
			c-4.204,0-7.612,3.408-7.612,7.612v44.77H212.194c15.546-8.391,19.194-17.909,19.194-24.972c0-8.58-5.364-20.781-30.917-30.184
			c-17.545-6.456-40.714-10.012-65.24-10.012c-24.526,0-47.696,3.556-65.24,10.012c-13.564,4.991-21.439,10.771-25.844,16.38V83.857
			c0-4.204-3.408-7.612-7.612-7.612H7.612C3.408,76.246,0,79.654,0,83.857v344.285c0,4.204,3.408,7.612,7.612,7.612h28.924
			c4.204,0,7.612-3.408,7.612-7.612v-33.74h34.003c4.204,0,7.612-3.408,7.612-7.612s-3.408-7.612-7.612-7.612H44.148v-89.813h81.91
			h340.591v89.813H113.674c-4.204,0-7.612,3.408-7.612,7.612s3.408,7.612,7.612,7.612h352.974v33.739
			c0,4.204,3.408,7.612,7.612,7.612h30.129c4.204,0,7.612-3.408,7.612-7.612V286.968c0-4.204-3.408-7.612-7.612-7.612
			s-7.612,3.408-7.612,7.612v133.563h-14.905v-33.74V281.754v-30.446v-44.77h14.905v44.907
			C496.776,255.649,500.184,259.057,504.388,259.057z M28.924,251.308v30.446v105.037v33.739h-13.7V91.469h13.7V251.308z
			 M44.148,232.528c2.938,3.742,7.433,7.558,14.12,11.168h-14.12V232.528z M118.446,274.143H44.148V258.92h74.298V274.143z
			 M75.248,234.62c-15.464-5.69-20.951-12.119-20.951-15.896s5.487-10.206,20.951-15.898c15.904-5.853,37.206-9.075,59.983-9.075
			s44.08,3.223,59.983,9.075c15.464,5.691,20.952,12.12,20.952,15.898s-5.487,10.207-20.952,15.896
			c-15.904,5.853-37.206,9.075-59.983,9.075C112.454,243.695,91.152,240.472,75.248,234.62z M466.649,274.143H133.669V258.92
			h332.979V274.143z"/>
	</g>
</g>
<g>
</g>
<g>
</g>
<g>
</g>
<g>
</g>
<g>
</g>
<g>
</g>
<g>
</g>
<g>
</g>
<g>
</g>
<g>
</g>
<g>
</g>
<g>
</g>
<g>
</g>
<g>
</g>
<g>
</g>
</svg>
