<?xml version="1.0" encoding="iso-8859-1"?>
<!-- Generator: Adobe Illustrator 19.0.0, SVG Export Plug-In . SVG Version: 6.00 Build 0)  -->
<svg version="1.1" id="Capa_1" xmlns="http://www.w3.org/2000/svg" xmlns:xlink="http://www.w3.org/1999/xlink" x="0px" y="0px"
	 viewBox="0 0 511.999 511.999" style="enable-background:new 0 0 511.999 511.999;" xml:space="preserve">
<g>
	<g>
		<path d="M501.253,292.968l-37.1-16.632c-3.328-1.493-6.943-1.924-10.415-1.346v-52.458c0-19.937-16.162-36.098-36.098-36.098
			h-15.658v-26.719h80c4.199,0,7.604-3.405,7.604-7.604V29.941c0-4.199-3.405-7.604-7.604-7.604h-80v-9.646
			c0-4.164-3.208-7.795-7.37-7.919c-4.306-0.13-7.838,3.322-7.838,7.601v9.964h-80.008c-4.199,0-7.604,3.405-7.604,7.604v122.168
			c0,4.199,3.405,7.604,7.604,7.604h80.008v26.719H284.494c-11.573,0-21.885,5.481-28.496,13.976
			c-6.61-8.495-16.921-13.976-28.495-13.976h-88.08c-4.199,0-7.604,3.405-7.604,7.604s3.405,7.604,7.604,7.604h88.08
			c11.538,0,20.891,9.353,20.891,20.891V368.64H73.468v-75.712V222.53c0-11.538,9.353-20.891,20.891-20.891h9.931
			c4.199,0,7.604-3.405,7.604-7.604s-3.405-7.604-7.604-7.604h-9.93c-19.937,0-36.098,16.162-36.098,36.098v52.457
			c-3.471-0.578-7.087-0.146-10.415,1.347l-37.099,16.632c-7.092,3.178-11.38,10.514-10.67,18.255L14.92,473.021
			c0.359,3.914,3.642,6.908,7.573,6.908h43.372h24.078v19.698c0,4.199,3.405,7.604,7.604,7.604h54.371
			c4.199,0,7.604-3.405,7.604-7.604v-19.698h192.956v19.698c0,4.199,3.405,7.604,7.604,7.604h54.371
			c4.199,0,7.604-3.405,7.604-7.604v-19.698h24.078h43.372c3.93,0,7.213-2.995,7.573-6.908l14.844-161.8
			C512.632,303.482,508.344,296.147,501.253,292.968z M58.261,464.723H29.43L15.22,309.834c-0.117-1.267,0.585-2.468,1.747-2.988
			l37.1-16.632c1.288-0.577,2.328-0.109,2.835,0.218c0.507,0.328,1.359,1.089,1.359,2.497V464.723z M314.371,144.505V37.545h79.908
			c0.033,0,0.065,0.005,0.098,0.005s0.065-0.005,0.098-0.005h79.902v106.96H314.371z M144.313,492.024H105.15V479.93h39.163V492.024
			z M406.848,492.024h-39.163V479.93h39.163V492.024z M438.53,431.439H337.666c-4.199,0-7.604,3.405-7.604,7.604
			s3.405,7.604,7.604,7.604H438.53v18.075h-24.078h-54.371H151.917H97.546H73.468v-18.075h229.065c4.199,0,7.604-3.405,7.604-7.604
			s-3.405-7.604-7.604-7.604H73.468v-47.592h182.531H438.53V431.439z M438.53,368.64H263.603V222.531
			c0-11.519,9.372-20.891,20.892-20.891h109.824c0.02,0,0.039,0.003,0.059,0.003c0.02,0,0.039-0.003,0.059-0.003h23.203
			c11.519,0,20.891,9.371,20.891,20.891V368.64z M496.778,309.833l-14.21,154.889h-28.83V292.928c0-1.408,0.851-2.17,1.359-2.497
			c0.507-0.326,1.551-0.795,2.835-0.218l37.1,16.632C496.193,307.366,496.895,308.567,496.778,309.833z"/>
	</g>
</g>
<g>
	<g>
		<path d="M319.246,245.976c-2.46-6.146-11.554-6.088-14.042,0c-1.25,3.059-0.362,6.694,2.201,8.79
			c2.457,2.009,5.989,2.267,8.715,0.653C319.33,253.518,320.667,249.415,319.246,245.976z"/>
	</g>
</g>
<g>
	<g>
		<path d="M396.929,245.976c-2.532-6.001-11.329-6.171-13.976-0.169c-1.344,3.048-0.51,6.737,2.04,8.888
			c2.354,1.986,5.776,2.349,8.493,0.897C396.933,253.75,398.336,249.575,396.929,245.976z"/>
	</g>
</g>
<g>
	<g>
		<path d="M319.246,318.487c-2.431-6.208-11.527-6.052-14.036-0.003c-1.213,2.923-0.444,6.417,1.913,8.541
			c2.421,2.181,6.025,2.565,8.857,0.972C319.263,326.152,320.716,321.965,319.246,318.487z"/>
	</g>
</g>
<g>
	<g>
		<path d="M396.929,318.487c-1.158-2.803-3.985-4.705-7.025-4.704c-3.186,0-6.076,2.069-7.154,5.05
			c-1.076,2.978-0.122,6.433,2.33,8.435c2.608,2.13,6.399,2.275,9.165,0.36C397.163,325.608,398.238,321.762,396.929,318.487z"/>
	</g>
</g>
<g>
	<g>
		<path d="M126.527,242.711c-2.45-1.74-5.755-1.876-8.337-0.34c-3.18,1.892-4.557,6.003-3.114,9.424
			c2.65,6.283,11.851,6.054,14.177-0.346C130.394,248.313,129.246,244.643,126.527,242.711z"/>
	</g>
</g>
<g>
	<g>
		<path d="M207.225,247.406c-1.342-6.461-10.092-8.285-13.778-2.737c-1.811,2.726-1.657,6.349,0.351,8.928
			c2.02,2.594,5.646,3.568,8.702,2.384C205.883,254.669,207.971,250.986,207.225,247.406z"/>
	</g>
</g>
<g>
	<g>
		<path d="M118.255,314.836c-3.223,1.878-4.634,6.009-3.178,9.46c1.273,3.017,4.372,4.946,7.655,4.668
			c3.147-0.267,5.837-2.505,6.689-5.545C131.231,316.963,124.006,311.485,118.255,314.836z"/>
	</g>
</g>
<g>
	<g>
		<path d="M206.789,318.487c-1.208-2.927-4.224-4.853-7.393-4.691c-3.044,0.156-5.753,2.172-6.784,5.036
			c-2.359,6.556,5.013,12.603,10.998,9.115C206.828,326.073,208.246,321.931,206.789,318.487z"/>
	</g>
</g>
<g>
</g>
<g>
</g>
<g>
</g>
<g>
</g>
<g>
</g>
<g>
</g>
<g>
</g>
<g>
</g>
<g>
</g>
<g>
</g>
<g>
</g>
<g>
</g>
<g>
</g>
<g>
</g>
<g>
</g>
</svg>
