<?xml version="1.0" encoding="iso-8859-1"?>
<!-- Generator: Adobe Illustrator 19.0.0, SVG Export Plug-In . SVG Version: 6.00 Build 0)  -->
<svg version="1.1" id="Capa_1" xmlns="http://www.w3.org/2000/svg" xmlns:xlink="http://www.w3.org/1999/xlink" x="0px" y="0px"
	 viewBox="0 0 512 512" style="enable-background:new 0 0 512 512;" xml:space="preserve">
<g>
	<g>
		<path d="M362.193,38.527H123.955c-4.199,0-7.604,3.405-7.604,7.604v85.573c0,4.199,3.405,7.604,7.604,7.604
			s7.604-3.405,7.604-7.604V53.735h223.03v184.289h-223.03v-70.832c0-4.199-3.405-7.604-7.604-7.604
			c-4.199,0-7.604,3.405-7.604,7.604v78.436c0,4.199,3.405,7.604,7.604,7.604h238.238c4.199,0,7.604-3.405,7.604-7.604V46.131
			C369.797,41.931,366.393,38.527,362.193,38.527z"/>
	</g>
</g>
<g>
	<g>
		<path d="M362.193,309.496H123.955c-4.199,0-7.604,3.405-7.604,7.604v148.769c0,4.199,3.405,7.604,7.604,7.604h190.957
			c4.199,0,7.604-3.405,7.604-7.604s-3.405-7.604-7.604-7.604H131.559V324.704h223.03v133.561h-4.191
			c-4.199,0-7.604,3.405-7.604,7.604s3.405,7.604,7.604,7.604h11.795c4.199,0,7.604-3.405,7.604-7.604V317.1
			C369.797,312.9,366.393,309.496,362.193,309.496z"/>
	</g>
</g>
<g>
	<g>
		<path d="M198.464,273.506H160.66c-3.139-8.85-11.591-15.208-21.503-15.208c-12.578,0-22.811,10.234-22.811,22.812
			c0,12.578,10.233,22.811,22.811,22.811c9.913,0,18.364-6.358,21.503-15.207h37.805c4.199,0,7.604-3.404,7.604-7.604
			S202.664,273.506,198.464,273.506z M139.157,288.713c-4.192,0-7.603-3.411-7.603-7.603c0-4.193,3.411-7.604,7.603-7.604
			c4.192,0,7.604,3.411,7.604,7.604C146.76,285.303,143.35,288.713,139.157,288.713z"/>
	</g>
</g>
<g>
	<g>
		<path d="M426.572,162.476c4.199,0,7.604-3.404,7.604-7.604V78.837c0-4.2-3.405-7.604-7.604-7.604h-18.248V7.604
			c0-4.2-3.405-7.604-7.604-7.604H85.428c-4.199,0-7.604,3.404-7.604,7.604v496.792c0,4.2,3.405,7.604,7.604,7.604H400.72
			c4.199,0,7.604-3.404,7.604-7.604v-63.629h18.248c4.199,0,7.604-3.404,7.604-7.604v-76.036c0-4.2-3.405-7.604-7.604-7.604h-18.248
			V162.476H426.572z M408.324,86.441h10.645v60.828h-10.645V86.441z M393.116,78.837v76.036v202.255v76.036v63.629H93.032V15.208
			h300.084V78.837z M418.968,364.732v60.828h-10.645v-60.828H418.968z"/>
	</g>
</g>
<g>
</g>
<g>
</g>
<g>
</g>
<g>
</g>
<g>
</g>
<g>
</g>
<g>
</g>
<g>
</g>
<g>
</g>
<g>
</g>
<g>
</g>
<g>
</g>
<g>
</g>
<g>
</g>
<g>
</g>
</svg>
