<?xml version="1.0" encoding="iso-8859-1"?>
<!-- Generator: Adobe Illustrator 19.0.0, SVG Export Plug-In . SVG Version: 6.00 Build 0)  -->
<svg version="1.1" id="Capa_1" xmlns="http://www.w3.org/2000/svg" xmlns:xlink="http://www.w3.org/1999/xlink" x="0px" y="0px"
	 viewBox="0 0 512 512" style="enable-background:new 0 0 512 512;" xml:space="preserve">
<g>
	<g>
		<path d="M504.396,0.116H7.604C3.405,0.116,0,3.52,0,7.72v321.475c0,4.199,3.405,7.604,7.604,7.604h75.534
			c4.199,0,7.604-3.405,7.604-7.604s-3.405-7.604-7.604-7.604H27.353L184.736,178.76l66.15,60.04c1.45,1.316,3.28,1.973,5.111,1.973
			c1.831,0,3.661-0.658,5.111-1.973l66.15-60.04l157.384,142.832H337.283v-60.235c0-4.199-3.405-7.604-7.604-7.604H182.288
			c-4.199,0-7.604,3.405-7.604,7.604v60.235h-56.06c-4.199,0-7.604,3.405-7.604,7.604s3.405,7.604,7.604,7.604h56.06v34.321h-49.498
			c-2.515,0-4.96,1.125-6.409,3.182c-2.237,3.174-1.738,7.356,0.93,9.913l131.015,125.556c1.47,1.409,3.366,2.114,5.261,2.114
			c1.895,0,3.791-0.705,5.261-2.114L392.26,384.215c2.667-2.557,3.166-6.738,0.93-9.913c-1.449-2.057-3.893-3.182-6.409-3.182
			h-49.497V336.8h167.112c4.199,0,7.604-3.405,7.604-7.604V7.72C512,3.52,508.595,0.116,504.396,0.116z M368.072,386.329
			l-112.089,107.42L143.893,386.328h38.395c4.2,0,7.604-3.405,7.604-7.604V268.961h132.183v109.764c0,4.199,3.404,7.604,7.604,7.604
			H368.072z M15.208,312.077V24.892l158.214,143.599L15.208,312.077z M496.792,312.081l-158.22-143.59l87.429-79.353
			c3.11-2.823,3.343-7.631,0.52-10.741v-0.001c-2.824-3.109-7.632-3.342-10.742-0.519L255.997,222.899L27.295,15.324H484.7
			l-43.265,39.269c-3.109,2.823-3.343,7.631-0.52,10.741c2.823,3.109,7.631,3.342,10.741,0.52l45.136-40.967V312.081z"/>
	</g>
</g>
<g>
</g>
<g>
</g>
<g>
</g>
<g>
</g>
<g>
</g>
<g>
</g>
<g>
</g>
<g>
</g>
<g>
</g>
<g>
</g>
<g>
</g>
<g>
</g>
<g>
</g>
<g>
</g>
<g>
</g>
</svg>
