<?xml version="1.0" encoding="iso-8859-1"?>
<!-- Generator: Adobe Illustrator 19.0.0, SVG Export Plug-In . SVG Version: 6.00 Build 0)  -->
<svg version="1.1" id="Capa_1" xmlns="http://www.w3.org/2000/svg" xmlns:xlink="http://www.w3.org/1999/xlink" x="0px" y="0px"
	 viewBox="0 0 512.001 512.001" style="enable-background:new 0 0 512.001 512.001;" xml:space="preserve">
<g>
	<g>
		<path d="M387.009,184.656c-9.815-88.27-51.036-139.757-83.882-167.402c-27.313-23.006-66.962-23.005-94.273-0.001
			c-32.852,27.658-74.07,79.153-83.874,167.404c-12.903,116.118,17.071,227.1,82.235,304.488
			c12.225,14.523,30.001,22.854,48.768,22.856c0.004,0,0.005,0,0.008,0c18.769-0.001,36.551-8.33,48.783-22.855
			c15.07-17.887,28.468-37.916,39.893-59.626c1.985-3.771,0.472-8.444-3.341-10.347l-0.001-0.001
			c-3.701-1.846-8.19-0.389-10.117,3.271c-10.915,20.741-23.698,39.856-38.064,56.906c-9.337,11.087-22.878,17.444-37.152,17.444
			c-0.002,0-0.004,0-0.006,0c-14.271-0.002-27.807-6.359-37.138-17.443c-62.494-74.217-91.199-181.016-78.754-293.014
			c9.25-83.261,47.824-131.578,78.556-157.452c21.637-18.224,53.045-18.224,74.684,0.002c30.728,25.862,69.301,74.172,78.563,157.45
			c8.046,72.399-0.967,142.979-26.071,204.657c-1.559,3.83,0.228,8.199,4.026,9.837h0.001c3.913,1.688,8.455-0.168,10.062-4.116
			C385.966,332.696,395.334,259.564,387.009,184.656z"/>
	</g>
</g>
<g>
	<g>
		<path d="M252.58,40.791c-43.422,1.809-77.767,38.482-76.88,81.933c0.301,14.748,4.516,28.773,12.299,41.076
			c2.401,3.795,7.578,4.651,11.108,1.878c3.032-2.383,3.846-6.689,1.783-9.947c-6.276-9.91-9.695-21.203-9.981-33.084
			c-0.821-34.132,25.248-63.493,59.26-66.465c39.879-3.485,73.226,29.236,70.794,68.918c-2.074,33.839-30.351,60.659-64.251,61.022
			c-11.793,0.126-23.154-2.856-33.197-8.66c-3.338-1.929-7.605-0.947-9.866,2.177v0.001c-2.633,3.638-1.571,8.781,2.317,11.026
			c12.487,7.206,26.617,10.879,41.274,10.658c43.138-0.649,78.374-35.893,79.044-79.03C337,76.298,298.832,38.864,252.58,40.791z"/>
	</g>
</g>
<g>
	<g>
		<path d="M183.651,220.624c-19.505,0-34.214,29.09-34.214,67.667c0,38.576,14.709,67.667,34.214,67.667s34.214-29.09,34.214-67.667
			C217.865,249.715,203.156,220.624,183.651,220.624z M183.651,340.751c-7.75,0-19.007-20.436-19.007-52.46
			s11.257-52.46,19.007-52.46c7.75,0,19.007,20.436,19.007,52.46S191.401,340.751,183.651,340.751z"/>
	</g>
</g>
<g>
	<g>
		<path d="M328.332,220.624c-19.505,0-34.214,29.09-34.214,67.667c0,38.576,14.709,67.667,34.214,67.667
			c19.504,0,34.213-29.09,34.213-67.667C362.545,249.715,347.837,220.624,328.332,220.624z M328.332,340.751
			c-7.75,0-19.007-20.436-19.007-52.46s11.257-52.46,19.007-52.46c7.749,0,19.006,20.436,19.006,52.46
			S336.083,340.751,328.332,340.751z"/>
	</g>
</g>
<g>
</g>
<g>
</g>
<g>
</g>
<g>
</g>
<g>
</g>
<g>
</g>
<g>
</g>
<g>
</g>
<g>
</g>
<g>
</g>
<g>
</g>
<g>
</g>
<g>
</g>
<g>
</g>
<g>
</g>
</svg>
