<?xml version="1.0" encoding="iso-8859-1"?>
<!-- Generator: Adobe Illustrator 19.0.0, SVG Export Plug-In . SVG Version: 6.00 Build 0)  -->
<svg version="1.1" id="Capa_1" xmlns="http://www.w3.org/2000/svg" xmlns:xlink="http://www.w3.org/1999/xlink" x="0px" y="0px"
	 viewBox="0 0 512 512" style="enable-background:new 0 0 512 512;" xml:space="preserve">
<g>
	<g>
		<path d="M470.002,244.126l-0.001-0.001c-3.115-2.67-7.755-2.403-10.592,0.56c-0.685,0.714-1.377,1.421-2.077,2.121
			c-34.928,34.928-86.079,47.821-133.495,33.649c-2.712-0.81-5.641-0.068-7.641,1.93l-73.464,73.464
			c-1.019,1.019-1.731,2.305-2.056,3.71l-8.291,35.95l-35.95,8.291c-2.866,0.662-5.104,2.9-5.765,5.765l-8.291,35.949l-35.949,8.291
			c-2.866,0.662-5.104,2.9-5.764,5.765l-7.524,32.618l-82.949-25.126l226.133-226.133c3.003-3.004,3.003-7.872,0-10.876
			c-3.004-3.002-7.872-3.002-10.876,0L37.967,457.535l-21.012-44.48l78.411-78.411c3.003-3.003,3.003-7.871,0-10.875l-0.002-0.002
			c-3.003-3.003-7.871-3.003-10.875,0L2.253,406.007c-2.296,2.296-2.903,5.787-1.515,8.723l27.991,59.253
			c0.928,1.966,2.644,3.445,4.724,4.076l103.107,31.231c0.73,0.221,1.481,0.33,2.229,0.33c2.386,0,4.74-1.109,6.284-3.239
			c0.605-0.835,0.999-1.806,1.23-2.81l8.27-35.861l35.95-8.291c2.866-0.662,5.104-2.9,5.765-5.765l8.291-35.95l35.949-8.291
			c2.866-0.662,5.104-2.9,5.765-5.765l8.875-38.483l68.717-68.717c51.568,13.714,106.484-0.926,144.326-38.768
			c0.803-0.803,1.596-1.615,2.38-2.435C473.626,252.071,473.336,246.984,470.002,244.126z"/>
	</g>
</g>
<g>
	<g>
		<path d="M511.189,136.293c-3.557-33.931-18.842-65.945-43.042-90.144c-58.337-58.336-153.228-58.365-211.533-0.062
			c-37.83,37.83-52.462,92.739-38.746,144.303L109.852,298.407c-3.003,3.003-3.003,7.871,0,10.875l0.002,0.002
			c3.003,3.003,7.871,3.003,10.875,0L231.933,198.08c1.998-1.998,2.74-4.934,1.93-7.641c-14.175-47.411-1.29-98.556,33.63-133.475
			c52.306-52.308,137.443-52.278,189.78,0.062c21.715,21.714,35.432,50.435,38.622,80.871c2.892,27.59-2.891,55.575-16.333,79.59
			c-1.985,3.547-0.825,8.027,2.606,10.204c3.722,2.361,8.678,1.124,10.831-2.723C507.967,198.2,514.411,167.023,511.189,136.293z"/>
	</g>
</g>
<g>
	<g>
		<path d="M300.162,253.885c-3.003-3.001-7.871-3.003-10.876,0L122.059,421.11c-3.003,3.003-3.003,7.871,0,10.876
			c1.502,1.501,3.471,2.252,5.438,2.252s3.936-0.751,5.438-2.252L300.162,264.76C303.165,261.756,303.165,256.888,300.162,253.885z"
			/>
	</g>
</g>
<g>
	<g>
		<path d="M433.543,80.752c-21.774-21.774-57.205-21.773-78.981,0.001c-21.774,21.775-21.774,57.205,0.001,78.981
			c10.887,10.887,25.188,16.33,39.49,16.33c14.302,0,28.603-5.443,39.489-16.33C455.318,137.958,455.318,102.528,433.543,80.752z
			 M422.669,148.858c-15.78,15.781-41.452,15.778-57.231,0.001c-15.779-15.78-15.779-41.453-0.001-57.231
			c7.891-7.89,18.252-11.833,28.616-11.833c10.362,0,20.727,3.945,28.615,11.832C438.446,107.407,438.446,133.08,422.669,148.858z"
			/>
	</g>
</g>
<g>
</g>
<g>
</g>
<g>
</g>
<g>
</g>
<g>
</g>
<g>
</g>
<g>
</g>
<g>
</g>
<g>
</g>
<g>
</g>
<g>
</g>
<g>
</g>
<g>
</g>
<g>
</g>
<g>
</g>
</svg>
