<?xml version="1.0" encoding="iso-8859-1"?>
<!-- Generator: Adobe Illustrator 19.0.0, SVG Export Plug-In . SVG Version: 6.00 Build 0)  -->
<svg version="1.1" id="Capa_1" xmlns="http://www.w3.org/2000/svg" xmlns:xlink="http://www.w3.org/1999/xlink" x="0px" y="0px"
	 viewBox="0 0 512.001 512.001" style="enable-background:new 0 0 512.001 512.001;" xml:space="preserve">
<g>
	<g>
		<path d="M494.518,421.602c-0.748-3.509-3.849-6.018-7.437-6.018h-26.788v-21.29h19.158c17.502,0,32.229-13.824,32.544-31.324
			c0.157-8.75-3.173-16.998-9.34-23.166c-6.026-6.025-14.043-9.344-22.573-9.344c-3.191,0-5.843-2.508-6.036-5.709
			c-6.323-105.012-86.702-189.237-188.412-203.112V90.692c5.159-2.06,9.961-4.667,14.26-7.789
			c12.554-9.119,19.467-21.476,19.467-34.794c0-13.318-6.914-25.674-19.467-34.793C288.075,4.729,272.485,0,255.997,0
			c-16.487,0-32.079,4.729-43.899,13.316c-12.554,9.119-19.467,21.476-19.467,34.793c0,13.319,6.914,25.675,19.467,34.794
			c4.298,3.123,9.099,5.727,14.257,7.787v30.915c-32.252,4.361-62.954,15.842-90.318,33.872c-3.614,2.382-4.565,7.264-2.056,10.791
			l0.001,0.001c2.386,3.352,6.987,4.171,10.421,1.907c33.152-21.843,71.577-33.35,111.597-33.35
			c107.314,0,196.424,83.827,202.868,190.841c0.1,1.662,0.411,3.261,0.869,4.795H52.264c0.457-1.535,0.768-3.134,0.869-4.796
			c1.662-27.609,8.778-54.095,21.152-78.721c10.909-21.71,25.417-41.055,43.184-57.597c3.011-2.803,3.299-7.468,0.604-10.577
			c-2.83-3.264-7.796-3.506-10.958-0.563c-19.098,17.778-34.693,38.57-46.421,61.909c-13.305,26.479-20.957,54.954-22.743,84.634
			c-0.193,3.202-2.845,5.71-6.037,5.71c-8.902,0-17.243,3.613-23.347,10.147c-5.236,5.602-8.293,13-8.55,20.663
			c-0.3,8.94,3.04,17.393,9.326,23.681c6.025,6.024,14.042,9.344,22.572,9.344h19.792v21.29H24.92c-3.589,0-6.688,2.509-7.437,6.018
			l-17.27,80.994c-0.325,1.527-0.268,3.134,0.311,4.584C1.718,510.167,4.553,512,7.604,512h396.927c4.199,0,7.604-3.405,7.604-7.604
			s-3.405-7.604-7.604-7.604H17.001l14.072-66h449.855l14.071,66h-54.983c-4.199,0-7.604,3.405-7.604,7.604s3.405,7.604,7.604,7.604
			h64.169c1.421,0,2.846-0.315,4.066-1.044c2.911-1.739,4.245-5.036,3.581-8.145L494.518,421.602z M207.839,48.109
			c0-18.142,21.604-32.901,48.158-32.901c26.554,0,48.158,14.76,48.158,32.901c0,18.143-21.604,32.902-48.158,32.902
			C229.443,81.011,207.839,66.252,207.839,48.109z M270.428,120.105c-4.772-0.313-9.581-0.486-14.427-0.486
			c-4.837-0.001-9.65,0.166-14.437,0.477V94.971c4.682,0.819,9.517,1.248,14.434,1.248c4.916,0,9.749-0.43,14.43-1.247V120.105z
			 M445.086,415.584H66.915v-21.29h378.17V415.584z M59.311,379.086H31.917c-4.468,0-8.666-1.737-11.818-4.889
			c-3.154-3.154-4.891-7.352-4.891-11.82c0-4.467,1.737-8.664,4.89-11.818c3.152-3.152,7.348-4.889,11.815-4.89v0.001h448.169
			v-0.001c0.001,0,0.001,0,0.001,0c4.469,0,8.667,1.737,11.82,4.889c3.153,3.154,4.89,7.352,4.89,11.819
			c0,9.213-7.497,16.708-16.708,16.708H452.69H59.311z"/>
	</g>
</g>
<g>
</g>
<g>
</g>
<g>
</g>
<g>
</g>
<g>
</g>
<g>
</g>
<g>
</g>
<g>
</g>
<g>
</g>
<g>
</g>
<g>
</g>
<g>
</g>
<g>
</g>
<g>
</g>
<g>
</g>
</svg>
