<?xml version="1.0" encoding="iso-8859-1"?>
<!-- Generator: Adobe Illustrator 19.0.0, SVG Export Plug-In . SVG Version: 6.00 Build 0)  -->
<svg version="1.1" id="Capa_1" xmlns="http://www.w3.org/2000/svg" xmlns:xlink="http://www.w3.org/1999/xlink" x="0px" y="0px"
	 viewBox="0 0 512 512" style="enable-background:new 0 0 512 512;" xml:space="preserve">
<g>
	<g>
		<path d="M288.319,62.166c-9.208-8.428-17.905-16.39-13.078-53.118c0.358-2.718-0.776-5.417-2.966-7.066
			c-2.19-1.65-5.097-1.992-7.61-0.897c-1.203,0.524-29.461,13.333-29.461,57.159c0.001,20.898,11.84,32.058,21.352,41.026
			c8.42,7.937,13.58,13.245,13.58,22.01c0,14.007-3.096,19.641-3.728,20.642c-2.972,2.721-3.023,7.06-0.426,10.187
			c1.44,1.734,3.575,2.585,5.745,2.585c1.811,0,3.646-0.593,5.119-1.762c1.15-0.912,28.171-22.725,28.171-54.538
			C305.017,77.451,296.146,69.33,288.319,62.166z M285.193,117.927c-1.267-13.756-10.228-22.205-18.204-29.722
			c-8.894-8.385-16.576-15.625-16.576-29.96c0-14.94,3.909-25.088,8.308-31.777c-0.176,29.056,10.481,38.816,19.33,46.915
			c6.826,6.248,11.759,10.763,11.759,25.012C289.81,105.544,287.899,112.153,285.193,117.927z"/>
	</g>
</g>
<g>
	<g>
		<path d="M146.445,156.878c-2.953-1.243-6.465-0.408-8.59,1.971c-2.147,2.403-2.503,5.99-0.935,8.792
			c3.333,5.952,12.54,4.523,14.028-2.075C151.756,161.98,149.813,158.305,146.445,156.878z"/>
	</g>
</g>
<g>
	<g>
		<path d="M481.838,217.051H411.33c-8.059-17.257-17.782-36.91-24.778-50.859c-3.384-6.75-9.514-11.68-16.819-13.525
			c-7.341-1.854-15.124-0.416-21.353,3.948c-19.84,13.902-46.106,35.409-61.379,60.436h-96.675
			c2.721-5.925,5.014-13.775,5.014-23.436c0-21.275-34.827-73.35-42.591-84.692c-13.397-27.968-47.425-28.184-72.684-19.774
			c-13.741,4.583-28.276,13.795-38.881,24.643c-14.279,14.606-21.826,32.038-21.826,50.409c0,12.064,3.396,30.363,18.137,52.852
			H29.49c-7.888,0-15.294,3.072-20.838,8.634C3.072,231.245,0,238.65,0,246.54c0,13.625,9.299,25.116,21.885,28.478v43.352
			c0,26.838,7.596,52.925,21.967,75.441c13.247,20.757,31.649,37.619,53.38,48.993l8.38,62.155c0.508,3.773,3.729,6.588,7.536,6.588
			h25.732c4.199,0,7.604-3.405,7.604-7.604v-46.051c5.247,0.588,10.537,0.888,15.813,0.888h8.034c4.199,0,7.604-3.405,7.604-7.604
			c0-4.199-3.405-7.604-7.604-7.604h-8.034c-5.28,0-10.576-0.34-15.813-0.999v-33.41c0-12.858-8.842-24.291-21.445-26.838
			c-9.605-1.942-19.29,1.465-25.551,8.627c-5.092,5.826-7.418,13.563-6.383,21.229l1.556,11.544
			c-15.205-9.769-28.182-22.732-37.988-38.097c-12.808-20.068-19.579-43.326-19.579-67.26v-42.352h330.941
			c4.199,0,7.604-3.405,7.604-7.604s-3.405-7.604-7.604-7.604H29.909c-8.024,0-14.872-6.567-14.698-14.588
			c0.08-3.698,1.556-7.156,4.192-9.783c2.687-2.695,6.269-4.179,10.085-4.179h22.748c0.019,0,0.039,0,0.057,0h65.738
			c0.01,0,0.021,0.002,0.031,0.002s0.019-0.002,0.029-0.002h364.021c7.681,0,14.289,5.899,14.66,13.571
			c0.197,4.071-1.303,7.938-4.151,10.796c-2.706,2.698-6.294,4.184-10.102,4.184h-79.002c-4.199,0-7.604,3.405-7.604,7.604
			s3.405,7.604,7.604,7.604h71.213c-1.229,28.359-9.291,56.037-23.541,80.479c-12.341,21.167-29.051,39.555-48.842,53.888
			c0.471-7.069-1.867-14.063-6.562-19.433c-6.263-7.162-15.95-10.568-25.555-8.625c-12.602,2.55-21.443,13.985-21.443,26.842v27.439
			c-15.884,4.618-32.35,6.964-49.032,6.964h-93.941c-4.199,0-7.604,3.405-7.604,7.604c0,4.199,3.405,7.604,7.604,7.604h93.941
			c16.641,0,33.087-2.149,49.032-6.387v51.55c0,4.199,3.405,7.604,7.604,7.604h25.732c3.807,0,7.027-2.814,7.536-6.587
			l10.053-74.533c26.571-16.431,48.869-39.264,64.614-66.27c15.765-27.042,24.582-57.714,25.675-89.099
			c5.003-1.305,9.6-3.917,13.373-7.678c5.639-5.655,8.708-13.182,8.623-21.162C511.825,229.946,498.11,217.051,481.838,217.051z
			 M110.938,400.961c2.236-2.557,5.338-3.966,8.735-3.966c6.397,0,11.603,5.205,11.603,11.603v87.741h-11.48l-11.621-86.19
			C107.721,406.782,108.702,403.52,110.938,400.961z M56.116,217.051c-8.932-11.817-21.551-32.169-21.551-52.852
			c0-32.17,30.087-53.881,50.308-60.623c4.141-1.38,39.382-12.33,52.742,9.282c-4.377,8.146-18.259,30.974-40.405,39.931
			c-0.32,0.13-0.633,0.282-0.933,0.454c-3.384,0.697-13.465,3.49-19.006,12.778c-4.321,7.243-4.62,16.159-0.888,26.5
			c4.141,11.477,11.118,19.263,18.192,24.529H56.116z M172.819,217.051h-50.955c-2.704-3.129-6.057-5.63-9.884-7.334
			c-0.053-0.025-0.106-0.051-0.16-0.074c-7.131-3.21-16.587-9.681-21.133-22.282c-2.096-5.808-2.229-10.344-0.396-13.481
			c2.706-4.629,9.251-5.779,9.253-5.78c0.314-0.047,0.625-0.113,0.93-0.199c1.198-0.337,2.163-0.793,2.919-1.209
			c21.183-8.758,35.681-27.272,43.334-39.38c15.026,23.101,33.404,55.042,33.404,66.302
			C180.132,205.626,175.471,213.523,172.819,217.051z M305.324,217.05c15.256-20.709,38.188-38.455,51.783-47.981
			c2.606-1.825,5.85-2.429,8.902-1.659c3.059,0.773,5.527,2.761,6.949,5.598c6.092,12.147,14.264,28.644,21.565,44.042H305.324z
			 M387.105,410.15l-11.625,86.189H364v-87.739c0-6.4,5.206-11.605,11.605-11.605c3.397,0,6.5,1.409,8.736,3.966
			C386.577,403.519,387.559,406.782,387.105,410.15z"/>
	</g>
</g>
<g>
</g>
<g>
</g>
<g>
</g>
<g>
</g>
<g>
</g>
<g>
</g>
<g>
</g>
<g>
</g>
<g>
</g>
<g>
</g>
<g>
</g>
<g>
</g>
<g>
</g>
<g>
</g>
<g>
</g>
</svg>
