<?xml version="1.0" encoding="iso-8859-1"?>
<!-- Generator: Adobe Illustrator 19.0.0, SVG Export Plug-In . SVG Version: 6.00 Build 0)  -->
<svg version="1.1" id="Capa_1" xmlns="http://www.w3.org/2000/svg" xmlns:xlink="http://www.w3.org/1999/xlink" x="0px" y="0px"
	 viewBox="0 0 512 512" style="enable-background:new 0 0 512 512;" xml:space="preserve">
<g>
	<g>
		<path d="M481.839,216.138h-32.826V75.686c0-40.402-32.261-73.927-72.661-74.318c-40.796-0.395-74.11,32.676-74.11,73.382v12.266
			c-5.249,2.244-10.127,5.37-14.414,9.317c-7.969,7.339-13.304,16.926-15.368,27.414c-8.051,3.437-13.651,11.54-13.378,20.893
			c0.35,11.982,10.55,21.34,22.538,21.34h81.12c11.987,0,22.188-9.358,22.538-21.34c0.273-9.353-5.327-17.456-13.378-20.893
			c-2.064-10.487-7.398-20.074-15.367-27.414c-4.287-3.948-9.165-7.075-14.414-9.317V75.417c0-18.748,15.343-34.492,34.088-34.172
			c18.211,0.31,32.931,15.221,32.931,33.505v141.389H117.649c-4.199,0-7.604,3.405-7.604,7.604c0,4.199,3.405,7.604,7.604,7.604
			h299.031c0.02,0,0.039,0.003,0.059,0.003h24.668c0.02,0,0.039-0.003,0.059-0.003h40.648c7.681,0,14.288,5.899,14.659,13.57
			c0.197,4.071-1.302,7.939-4.15,10.796c-2.706,2.698-6.294,4.184-10.102,4.184H29.909c-8.027,0-14.875-6.569-14.698-14.594
			c0.081-3.695,1.557-7.151,4.192-9.778c2.688-2.695,6.27-4.179,10.086-4.179h52.674c4.199,0,7.604-3.405,7.604-7.604
			c0-4.199-3.405-7.604-7.604-7.604H29.489c-7.888,0-15.294,3.072-20.839,8.634C3.072,230.333,0,237.739,0,245.628
			c0,13.625,9.299,25.117,21.885,28.478v43.352c0,26.838,7.596,52.925,21.967,75.441c13.247,20.757,31.649,37.619,53.38,48.993
			l8.38,62.155c0.508,3.773,3.729,6.588,7.536,6.588h25.732c4.199,0,7.604-3.405,7.604-7.604v-46.051
			c5.247,0.588,10.537,0.888,15.813,0.888h137.462c16.641,0,33.087-2.149,49.032-6.387v51.55c0,4.199,3.405,7.604,7.604,7.604
			h25.732c3.807,0,7.027-2.814,7.536-6.587l10.051-74.519c15.97-9.869,30.3-21.945,42.714-35.996
			c2.872-3.25,2.485-8.234-0.882-10.968c-3.152-2.561-7.774-2.205-10.462,0.839c-8.612,9.755-18.226,18.474-28.733,26.072
			c0.472-7.07-1.866-14.066-6.561-19.437c-6.263-7.162-15.95-10.568-25.555-8.625c-12.602,2.55-21.443,13.984-21.443,26.842v27.439
			c-15.884,4.618-32.35,6.964-49.032,6.964H162.297c-5.28,0-10.576-0.34-15.813-0.999v-33.41c0-12.858-8.842-24.291-21.445-26.838
			c-9.605-1.942-19.29,1.465-25.551,8.627c-5.092,5.826-7.418,13.563-6.383,21.229l1.556,11.544
			c-15.205-9.769-28.182-22.732-37.988-38.097c-12.808-20.068-19.579-43.326-19.579-67.26v-42.352h437.641
			c-1.229,28.587-9.357,56.276-23.773,80.87c-2.053,3.502-0.949,8.002,2.465,10.198l0.001,0.001
			c3.653,2.349,8.508,1.157,10.703-2.591c15.917-27.181,24.786-57.828,25.877-89.438c5.003-1.306,9.599-3.918,13.371-7.678
			c5.634-5.653,8.703-13.175,8.62-21.153C511.831,229.039,498.114,216.138,481.839,216.138z M363.293,137.2
			c3.742,0,6.786,3.045,6.786,6.786s-3.044,6.786-6.786,6.786h-82.227c-3.742,0-6.786-3.045-6.786-6.786s3.044-6.786,6.786-6.786
			H363.293z M355.697,121.991h-67.036c4.862-13.887,18.228-23.849,33.518-23.849C337.469,98.142,350.835,108.104,355.697,121.991z
			 M433.804,216.139h-9.46V74.75c0.001-26.864-21.854-48.718-48.717-48.718s-48.717,21.855-48.717,48.718v8.404
			c-1.565-0.146-3.143-0.22-4.731-0.22c-1.588,0-3.165,0.074-4.731,0.22V74.75c0-32.08,26.099-58.178,58.177-58.178
			c32.08,0,58.178,26.099,58.178,58.178V216.139z M364,407.688c0-6.4,5.206-11.605,11.605-11.605c3.397,0,6.5,1.409,8.736,3.966
			s3.218,5.821,2.765,9.189l-11.625,86.189H364V407.688z M110.939,400.05c2.236-2.557,5.338-3.966,8.735-3.966
			c6.397,0,11.603,5.205,11.603,11.603v87.741h-11.48l-11.621-86.19C107.722,405.87,108.702,402.607,110.939,400.05z"/>
	</g>
</g>
<g>
</g>
<g>
</g>
<g>
</g>
<g>
</g>
<g>
</g>
<g>
</g>
<g>
</g>
<g>
</g>
<g>
</g>
<g>
</g>
<g>
</g>
<g>
</g>
<g>
</g>
<g>
</g>
<g>
</g>
</svg>
