<?xml version="1.0" encoding="iso-8859-1"?>
<!-- Generator: Adobe Illustrator 19.0.0, SVG Export Plug-In . SVG Version: 6.00 Build 0)  -->
<svg version="1.1" id="Capa_1" xmlns="http://www.w3.org/2000/svg" xmlns:xlink="http://www.w3.org/1999/xlink" x="0px" y="0px"
	 viewBox="0 0 512 512" style="enable-background:new 0 0 512 512;" xml:space="preserve">
<g>
	<g>
		<path d="M420.736,323.024c-1.167-0.646-2.504-0.922-3.839-0.922h-60.34v-78.626h11.379c4.194,0,7.595-3.401,7.595-7.595v-42.473
			c0-4.194-3.4-7.595-7.595-7.595h-8.782v-49.889c0-35.629-14.144-69.911-39.058-95.265c-3.062-3.116-8.124-3.003-11.055,0.239
			c-2.697,2.983-2.592,7.544,0.226,10.412c22.132,22.525,34.697,52.975,34.697,84.614v49.889H288.27v-48.902
			c0-35.692-28.342-65.475-64.03-66.019c-36.324-0.554-66.05,28.833-66.05,65.032v257.524c0,4.194,3.401,7.594,7.594,7.594h0.002
			c4.194,0,7.594-3.4,7.594-7.594V136.761c0-27.297,21.596-50.16,48.888-50.677c27.927-0.53,50.813,22.033,50.813,49.841v49.889
			h-8.782c-4.194,0-7.595,3.4-7.595,7.595v42.473c0,4.194,3.401,7.595,7.595,7.595h11.379v78.626h-61.038
			c-1.334,0-2.671,0.275-3.839,0.922c-2.81,1.555-4.264,4.574-3.904,7.579l20.967,174.707c0.458,3.818,3.695,6.69,7.54,6.69h160.731
			c3.845,0,7.082-2.873,7.54-6.69l20.965-174.708C425,327.598,423.546,324.579,420.736,323.024z M271.895,228.287v-27.284h8.781
			h70.885h8.782v27.284h-11.379h-65.689H271.895z M290.868,322.104v-78.626h50.5v78.626H290.868z M341.368,337.292v65.88h-50.5
			v-65.88H341.368z M223,337.292h52.679v65.88h-44.774L223,337.292z M389.396,496.81H242.141l-9.414-78.45h50.507
			c0.013,0,0.026,0.002,0.039,0.002h65.689c0.013,0,0.026-0.002,0.039-0.002h49.807L389.396,496.81z M400.633,403.172h-44.074
			v-65.88h51.98L400.633,403.172z"/>
	</g>
</g>
<g>
	<g>
		<path d="M165.787,421.297h-0.002c-4.194,0-7.594,3.401-7.594,7.594v75.514h15.19v-75.514
			C173.381,424.697,169.981,421.297,165.787,421.297z"/>
	</g>
</g>
<g>
	<g>
		<path d="M287.867,16.375C268.074,5.639,245.893,0,223.231,0C148.282,0,87.306,60.975,87.306,135.925v368.481h15.19V135.925
			c0-66.574,54.161-120.736,120.735-120.736c20.119,0,39.81,5.005,57.379,14.529c3.537,1.917,7.95,0.761,10.074-2.654
			C292.991,23.355,291.707,18.456,287.867,16.375z"/>
	</g>
</g>
<g>
</g>
<g>
</g>
<g>
</g>
<g>
</g>
<g>
</g>
<g>
</g>
<g>
</g>
<g>
</g>
<g>
</g>
<g>
</g>
<g>
</g>
<g>
</g>
<g>
</g>
<g>
</g>
<g>
</g>
</svg>
