<?xml version="1.0" encoding="iso-8859-1"?>
<!-- Generator: Adobe Illustrator 19.0.0, SVG Export Plug-In . SVG Version: 6.00 Build 0)  -->
<svg version="1.1" id="Capa_1" xmlns="http://www.w3.org/2000/svg" xmlns:xlink="http://www.w3.org/1999/xlink" x="0px" y="0px"
	 viewBox="0 0 512 512" style="enable-background:new 0 0 512 512;" xml:space="preserve">
<g>
	<g>
		<path d="M443.706,261.457h-21.9c-4.199,0-7.604,3.405-7.604,7.604s3.405,7.604,7.604,7.604h22.232
			c3.835,0,7.208,2.854,7.519,6.676c0.209,2.571-0.912,5.015-3.025,6.544c-1.274,0.924-2.844,1.352-4.418,1.352H216.001
			c2.416-4.297,3.8-9.247,3.8-14.518c0-0.018-0.001-0.036-0.001-0.055h166.519c4.199,0,7.604-3.405,7.604-7.604
			s-3.405-7.604-7.604-7.604H215.574c-2.519-4.194-6.044-7.716-10.237-10.237V23.084c0-12.399-10.139-23.107-22.537-23.084
			c-5.978,0.011-11.605,2.344-15.859,6.582c-4.25,4.251-6.591,9.902-6.591,15.911v36.448c-3.005-1.284-6.31-1.995-9.78-1.995
			h-11.002V40.437c0-4.199-3.405-7.604-7.604-7.604h-43.16c-4.199,0-7.604,3.405-7.604,7.604v16.51H70.198
			c-13.801,0-24.988,11.187-24.988,24.988v48.752c0,4.199,3.405,7.604,7.604,7.604s7.604-3.405,7.604-7.604v-17.907h99.93v163.94
			v14.518H97.885c-20.692,0-37.466-16.774-37.466-37.466v-87.6c0-4.199-3.405-7.604-7.604-7.604s-7.604,3.405-7.604,7.604v87.6
			c0,25.306,17.94,46.495,41.769,51.532c2.843,36.302,29.068,62.331,46.762,79.879c1.165,1.156,2.301,2.282,3.403,3.384
			c17.496,17.497,39.271,39.272,39.271,57.545c0,13.286-4.614,22.227-7.158,26.153c-10.331,1.625-18.267,10.562-18.267,21.344
			v10.788c0,4.199,3.405,7.604,7.604,7.604h245.556c4.199,0,7.604-3.405,7.604-7.604v-10.789c0-11.947-9.685-21.633-21.633-21.633
			h-0.122c-8.036-3.317-15.951-21.244-15.951-36.635c0-6.114,1.246-11.023,3.439-13.628c0.379-0.255,0.752-0.509,1.105-0.752
			c41.041-27.794,70.292-74.557,73.07-115.771c3.177-1.1,6.1-2.893,8.555-5.345c4.231-4.246,6.564-9.88,6.571-15.863
			C466.806,271.589,456.097,261.457,443.706,261.457z M175.557,81.933v-59.44c0-1.948,0.759-3.78,2.127-5.147
			c1.384-1.378,3.216-2.137,5.159-2.137c4.018,0,7.287,3.269,7.287,7.286v224.501c-0.017,0-0.034-0.001-0.053-0.001
			c-5.271,0-10.222,1.385-14.519,3.801V81.933z M190.076,262.201c8.005,0,14.518,6.513,14.518,14.518
			c0,7.999-6.503,14.507-14.499,14.517h-0.024v0.001c-8.003-0.003-14.514-6.515-14.514-14.518
			C175.557,268.714,182.07,262.201,190.076,262.201z M96.408,48.041h27.951v8.906H96.408V48.041z M60.419,97.571V81.933
			c0-5.392,4.387-9.78,9.78-9.78h18.606h43.159h18.606c5.393,0,9.78,4.387,9.78,9.78v15.638H60.419z M388.739,487.183h1.381
			c3.542,0,6.425,2.882,6.425,6.425v3.185H166.198v-3.185c0-3.542,2.881-6.425,6.424-6.425h0.685H388.739z M419.085,355.909
			c-12.222,20.878-29.173,39.017-49.075,52.497c-0.546,0.377-1.093,0.743-1.639,1.102c-0.438,0.286-0.845,0.616-1.214,0.987
			c-5.44,5.443-8.317,14.035-8.317,24.846c0,10.138,2.559,21.35,7.022,30.763c0.993,2.092,2.06,4.052,3.195,5.872H186.483
			c2.721-6.409,5.14-15.126,5.14-25.864c0-24.571-24.244-48.816-43.728-68.302c-1.113-1.113-2.264-2.255-3.444-3.425
			c-16.554-16.419-38.736-38.439-42.083-67.939h65.586c2.995,0,5.578-1.737,6.818-4.253c4.474,2.698,9.711,4.253,15.305,4.253
			c0.013,0,0.026-0.001,0.04-0.001h246.187C434.796,322.003,428.823,339.273,419.085,355.909z"/>
	</g>
</g>
<g>
</g>
<g>
</g>
<g>
</g>
<g>
</g>
<g>
</g>
<g>
</g>
<g>
</g>
<g>
</g>
<g>
</g>
<g>
</g>
<g>
</g>
<g>
</g>
<g>
</g>
<g>
</g>
<g>
</g>
</svg>
