<?xml version="1.0" encoding="iso-8859-1"?>
<!-- Generator: Adobe Illustrator 19.0.0, SVG Export Plug-In . SVG Version: 6.00 Build 0)  -->
<svg version="1.1" id="Capa_1" xmlns="http://www.w3.org/2000/svg" xmlns:xlink="http://www.w3.org/1999/xlink" x="0px" y="0px"
	 viewBox="0 0 511.999 511.999" style="enable-background:new 0 0 511.999 511.999;" xml:space="preserve">
<g>
	<g>
		<path d="M323.675,303.231V68.651c0-37.215-29.634-68.204-66.848-68.646c-18.378-0.219-35.698,6.838-48.687,19.813
			c-12.78,12.78-19.817,29.772-19.817,47.848v30.052c0,4.199,3.405,7.604,7.604,7.604c4.199,0,7.604-3.405,7.604-7.604V67.666
			c0-14.013,5.456-27.186,15.36-37.091c9.87-9.861,22.969-15.313,36.902-15.366c28.972-0.111,52.673,24.414,52.673,53.386v238.598
			c0,2.54,1.271,4.903,3.378,6.321c27.735,18.668,44.294,49.745,44.294,83.133c0,26.576-10.301,51.607-29.004,70.484
			c-18.692,18.863-43.599,29.396-70.135,29.656c-0.331,0.004-0.658,0.005-0.987,0.005c-26.411,0-51.351-10.295-70.32-29.051
			c-19.198-18.984-29.792-44.173-29.833-70.933c-0.055-33.448,16.504-64.584,44.295-83.293c2.106-1.418,3.377-3.783,3.377-6.321
			v-173.99c0-4.199-3.405-7.604-7.604-7.604s-7.604,3.405-7.604,7.604v170.028c-29.989,21.745-47.733,56.431-47.672,93.6
			c0.047,30.844,12.246,59.867,34.348,81.722c21.84,21.595,50.567,33.447,81.009,33.446c0.378,0,0.761-0.002,1.141-0.005
			c30.568-0.3,59.26-12.431,80.789-34.159c21.545-21.743,33.409-50.577,33.409-81.188
			C371.347,359.55,353.601,324.931,323.675,303.231z"/>
	</g>
</g>
<g>
	<g>
		<path d="M298.813,332.853l-13.664-9.197V159.249c0-0.02-0.003-0.039-0.003-0.059V76.141c-0.001-16.365-13.557-29.622-30.03-29.133
			c-15.852,0.47-28.263,13.893-28.263,29.753v82.431c0,0.02-0.003,0.039-0.003,0.059v164.408l-13.651,9.192
			c-22.787,15.316-35.752,41.536-33.835,69.177c2.825,40.734,37.709,72.416,78.529,71.428c22.997-0.557,44.164-11.219,58.3-29.106
			c2.798-3.54,1.885-8.737-1.934-11.139l-0.001-0.001c-3.281-2.065-7.592-1.332-9.997,1.708
			C292.608,449.651,275.015,458.27,256,458.27c-33.974,0-61.613-27.644-61.613-61.622c0-20.556,10.205-39.688,27.303-51.179
			l17.013-11.457c2.099-1.413,3.357-3.778,3.357-6.307V166.857h27.881v160.847c0,2.531,1.259,4.896,3.359,6.308l17.025,11.459
			c17.088,11.49,27.288,30.622,27.288,51.177c0,3.245-0.253,6.476-0.757,9.657c-0.602,3.807,1.785,7.449,5.503,8.468
			c4.353,1.192,8.815-1.641,9.519-6.099c0.628-3.965,0.943-7.986,0.943-12.026C332.821,371.021,320.107,347.171,298.813,332.853z
			 M269.937,151.646h-27.875V76.141c0-7.685,6.253-13.938,13.938-13.938c7.685,0,13.938,6.253,13.938,13.938V151.646z"/>
	</g>
</g>
<g>
</g>
<g>
</g>
<g>
</g>
<g>
</g>
<g>
</g>
<g>
</g>
<g>
</g>
<g>
</g>
<g>
</g>
<g>
</g>
<g>
</g>
<g>
</g>
<g>
</g>
<g>
</g>
<g>
</g>
</svg>
