<?xml version="1.0" encoding="iso-8859-1"?>
<!-- Generator: Adobe Illustrator 19.0.0, SVG Export Plug-In . SVG Version: 6.00 Build 0)  -->
<svg version="1.1" id="Capa_1" xmlns="http://www.w3.org/2000/svg" xmlns:xlink="http://www.w3.org/1999/xlink" x="0px" y="0px"
	 viewBox="0 0 512 512" style="enable-background:new 0 0 512 512;" xml:space="preserve">
<g>
	<g>
		<path d="M509.716,2.283c-3.045-3.044-7.982-3.044-11.025,0L386.566,114.406c-3.775-1.894-8.011-2.803-12.388-2.572
			c-6.243,0.33-12.093,3.169-16.514,7.59l-7.546,7.546l-21.515-21.515c-3.045-3.044-7.982-3.044-11.025,0l-22.991,22.991
			c-3.045,3.045-3.045,7.98,0,11.025c3.045,3.045,7.982,3.045,11.026,0l17.478-17.479l66.898,66.898L266.065,312.816l-66.9-66.9
			l80.744-80.739c3.045-3.045,3.045-7.982,0-11.026c-3.045-3.044-7.981-3.044-11.025,0L97.168,325.855l-28.283-28.283
			c-3.045-3.044-7.981-3.047-11.024-0.001l-22.391,22.38c-0.768,0.767-1.422,1.657-1.829,2.664c-1.22,3.028-0.459,6.327,1.702,8.489
			l50.082,50.082l-37.832,37.832l-12.541-12.541c-0.768-0.768-1.658-1.423-2.666-1.83c-3.029-1.221-6.329-0.461-8.489,1.701
			L2.284,427.963c-3.045,3.046-3.045,7.982,0,11.026l70.597,70.598c0.768,0.768,1.658,1.423,2.666,1.83
			c3.029,1.221,6.329,0.461,8.489-1.701l21.615-21.615c3.045-3.046,3.045-7.982,0-11.026L92.986,464.41l37.832-37.833l13.496,13.496
			c3.045,3.045,7.982,3.045,11.026,0c3.045-3.045,3.045-7.982,0-11.026L51.884,325.591l11.488-11.482l134.52,134.519l-11.488,11.482
			l-5.337-5.337c-3.045-3.045-7.982-3.045-11.026,0c-3.045,3.045-3.045,7.982,0,11.026l10.85,10.849
			c1.523,1.522,3.518,2.283,5.513,2.283c1.994,0,3.99-0.76,5.512-2.282l22.391-22.38c0.768-0.767,1.422-1.657,1.829-2.664
			c1.22-3.028,0.459-6.327-1.702-8.489l-28.309-28.308l220.403-220.403c3.045-3.046,3.045-7.982,0-11.026l-21.493-21.493l7.55-7.55
			c4.426-4.426,7.264-10.284,7.589-16.535c0.227-4.374-0.683-8.603-2.575-12.37l112.119-112.12
			C512.761,10.264,512.761,5.329,509.716,2.283z M78.523,493.178l-59.7-59.701l10.59-10.59l59.701,59.702L78.523,493.178z
			 M119.792,415.551L81.96,453.384l-23.341-23.341l37.832-37.833L119.792,415.551z M108.215,336.858l59.707-59.703l10.765,10.764
			l-59.705,59.705L108.215,336.858z M130.01,358.65l59.704-59.704l23.339,23.339l-59.703,59.702L130.01,358.65z M175.123,403.756
			l-10.746-10.744l59.702-59.701l10.745,10.745L175.123,403.756z M245.85,333.03l-66.9-66.899l9.189-9.19l66.899,66.9L245.85,333.03
			z M381.947,142.919l-7.939,7.939l-12.863-12.862l7.938-7.938c1.718-1.719,4.003-2.665,6.432-2.665s4.712,0.947,6.436,2.67
			c1.717,1.714,2.663,3.996,2.663,6.423C384.613,138.915,383.666,141.2,381.947,142.919z"/>
	</g>
</g>
<g>
</g>
<g>
</g>
<g>
</g>
<g>
</g>
<g>
</g>
<g>
</g>
<g>
</g>
<g>
</g>
<g>
</g>
<g>
</g>
<g>
</g>
<g>
</g>
<g>
</g>
<g>
</g>
<g>
</g>
</svg>
