<?xml version="1.0" encoding="iso-8859-1"?>
<!-- Generator: Adobe Illustrator 19.0.0, SVG Export Plug-In . SVG Version: 6.00 Build 0)  -->
<svg version="1.1" id="Capa_1" xmlns="http://www.w3.org/2000/svg" xmlns:xlink="http://www.w3.org/1999/xlink" x="0px" y="0px"
	 viewBox="0 0 512 512" style="enable-background:new 0 0 512 512;" xml:space="preserve">
<g>
	<g>
		<path d="M476.783,306.75l-29.815-29.815c-2.97-2.97-7.783-2.97-10.753,0l-0.002,0.002c-2.97,2.97-2.97,7.783,0,10.753
			l29.815,29.815c41.587,41.586,40.939,109.656-1.943,150.417c-18.717,17.791-43.493,28.109-69.305,28.827
			c-29.171,0.811-56.728-10.175-77.275-30.721L187.118,335.641l148.524-148.524l75.503,75.504c2.97,2.97,7.783,2.97,10.753,0
			l0.002-0.002c2.97-2.97,2.97-7.783,0-10.753L206.177,36.144C183.645,13.612,153.279,0.31,121.416,0.006
			C88.865-0.306,58.21,12.228,35.219,35.218C29.906,40.533,25.11,46.313,20.9,52.47c-2.496,3.651-1.409,8.648,2.404,10.888
			l0.004,0.002c3.457,2.031,7.877,1.013,10.14-2.297c3.68-5.384,7.875-10.44,12.525-15.091
			c19.838-19.838,46.212-30.764,74.261-30.764s54.424,10.925,74.262,30.765l130.391,130.391L176.364,324.886L45.973,194.496
			C18.89,167.412,8.82,127.458,19.372,90.965c1.116-3.862-0.899-7.931-4.675-9.31c-4.115-1.503-8.68,0.764-9.9,4.972
			c-12.13,41.802-0.607,87.593,30.424,118.623l27.738,27.728l243.793,243.803C329.461,499.492,359.655,512,391.768,512
			c32.113,0,62.306-12.508,85.016-35.217C523.66,429.903,523.66,353.628,476.783,306.75z"/>
	</g>
</g>
<g>
</g>
<g>
</g>
<g>
</g>
<g>
</g>
<g>
</g>
<g>
</g>
<g>
</g>
<g>
</g>
<g>
</g>
<g>
</g>
<g>
</g>
<g>
</g>
<g>
</g>
<g>
</g>
<g>
</g>
</svg>
