<?xml version="1.0" encoding="iso-8859-1"?>
<!-- Generator: Adobe Illustrator 19.0.0, SVG Export Plug-In . SVG Version: 6.00 Build 0)  -->
<svg version="1.1" id="Capa_1" xmlns="http://www.w3.org/2000/svg" xmlns:xlink="http://www.w3.org/1999/xlink" x="0px" y="0px"
	 viewBox="0 0 512.001 512.001" style="enable-background:new 0 0 512.001 512.001;" xml:space="preserve">
<g>
	<g>
		<path d="M407.262,244.571l3.426-3.426c9.302-9.302,9.302-24.439,0-33.744c-9.304-9.302-24.438-9.302-33.743,0l-76.101,76.101
			c-9.302,9.303-9.302,24.439,0.001,33.743c4.651,4.651,10.762,6.976,16.871,6.976s12.22-2.325,16.871-6.976l7.011-7.011
			c4.466,6.578,6.872,14.333,6.872,22.464c0,19.589-13.91,36.016-32.837,39.446c-18.591-16.032-42.783-25.739-69.2-25.739
			c-17.455,0-33.938,4.239-48.476,11.739c-23.018-27.861-32.487-58.654-28.131-91.616c2.609-19.75,9.696-34.813,13.101-41.149
			c20.706-1.761,38.049-15.476,45.075-34.207l6.641,6.641c-0.742,7.726,1.838,15.716,7.743,21.621
			c5.246,5.245,12.136,7.868,19.026,7.868c0.863,0,1.726-0.042,2.586-0.124l15.41,15.411c4.136,4.135,9.57,6.203,15.003,6.203
			c2.938,0,5.869-0.626,8.603-1.836l5.683,5.683c1.487,1.487,3.436,2.231,5.385,2.231c1.891,0,3.782-0.701,5.251-2.1
			c3.106-2.961,2.936-8.097-0.098-11.131l-4.435-4.435l16.071-16.071c4.006-4.007,6.214-9.336,6.214-15.003
			c0-5.666-2.207-10.995-6.214-15.002l-15.409-15.409c0.741-7.725-1.84-15.713-7.744-21.617c-5.904-5.903-13.889-8.484-21.614-7.744
			l-50.682-50.682c-2.974-2.974-7.796-2.974-10.769,0s-2.974,7.796,0,10.769l46.386,46.387c-0.467,0.407-0.927,0.825-1.372,1.269
			l-27.281,27.281c-0.443,0.444-0.86,0.902-1.266,1.368l-9.768-9.768c0.001-0.118,0.009-0.235,0.009-0.352
			c0-29.199-23.755-52.954-52.954-52.954c-0.118,0-0.234,0.008-0.352,0.009l-17.895-17.887l1.272-1.272
			c0.016-0.016,0.034-0.029,0.052-0.047l27.281-27.281c0.018-0.018,0.034-0.039,0.051-0.057l1.267-1.267l9.486,9.487
			c2.974,2.974,7.795,2.974,10.769,0c2.974-2.974,2.974-7.795,0-10.769l-14.871-14.871c-2.974-2.973-7.796-2.973-10.768,0
			l-1.321,1.321l-17.291-17.291c5.547-10.204,4.017-23.264-4.603-31.885c-10.49-10.49-27.56-10.49-38.051,0L96.154,35.149
			c-10.491,10.491-10.491,27.56,0,38.052c5.245,5.245,12.135,7.868,19.025,7.868c4.434,0,8.865-1.092,12.86-3.264l17.291,17.291
			l-1.183,1.183c-0.752,0.752-1.395,1.621-1.795,2.607c-1.202,2.961-0.457,6.189,1.657,8.303l15.857,15.85
			c-20.079,7.533-34.411,26.919-34.411,49.596c0,3.878,0.43,7.657,1.227,11.301c-4.281,8.512-16.866,35.982-21.303,72.617
			c-4.77,39.385-0.517,96.85,45.737,149.395c-6.898,14.065-10.779,29.867-10.779,46.561v51.879c0,4.205,3.409,7.615,7.615,7.615
			h196.969c4.205,0,7.615-3.409,7.615-7.615v-51.879c0-7.17-0.719-14.174-2.081-20.949c4.672-2.478,9.202-5.22,13.55-8.207
			c3.602-2.475,4.351-7.493,1.665-10.941l-0.001-0.002c-2.47-3.174-6.983-3.88-10.298-1.603c-2.955,2.029-6.002,3.929-9.128,5.698
			c-4.255-11.758-10.532-22.555-18.409-31.972c21.171-7.885,35.87-28.187,35.87-51.83c0-12.213-3.937-23.813-11.194-33.371
			l43.45-43.45c8.211,16.713,12.529,35.18,12.529,53.977c0,28.889-10.06,56.493-28.467,78.493
			c-2.587,3.092-2.315,7.661,0.622,10.423l0.002,0.002c3.178,2.988,8.234,2.719,11.034-0.625
			c20.716-24.743,32.038-55.795,32.038-88.292C423.714,286.989,418.032,264.55,407.262,244.571z M308.986,190.781l11.115,11.115
			c1.131,1.13,1.754,2.634,1.754,4.233c0,1.6-0.622,3.104-1.754,4.234l-21.455,21.455c-2.334,2.336-6.133,2.336-8.468,0
			l-11.114-11.115c0.467-0.406,0.928-0.825,1.373-1.27l27.281-27.281C308.162,191.707,308.58,191.248,308.986,190.781z
			 M253.156,192.152l27.281-27.281c2.275-2.276,5.266-3.414,8.255-3.414c2.99,0,5.981,1.138,8.256,3.414
			c4.553,4.552,4.553,11.959,0,16.512l-27.281,27.281c-4.552,4.554-11.961,4.552-16.512,0
			C248.602,204.111,248.602,196.704,253.156,192.152z M123.432,62.427c-4.553,4.554-11.959,4.554-16.512,0
			c-4.553-4.552-4.553-11.959,0-16.512l27.281-27.281c2.276-2.276,5.266-3.414,8.256-3.414c2.99,0,5.98,1.138,8.255,3.413
			c4.553,4.553,4.553,11.96,0,16.513L123.432,62.427z M156.096,84.322l-16.51-16.51l16.513-16.513l16.51,16.51L156.096,84.322z
			 M178.406,134.904c20.802,0,37.725,16.923,37.725,37.725s-16.923,37.725-37.725,37.725s-37.725-16.923-37.725-37.725
			S157.605,134.904,178.406,134.904z M124.83,326.73c-5.719-21.355-7.2-44.17-4.4-67.811c2.811-23.736,9.434-43.61,14.498-56.116
			c7.39,10.616,18.56,18.403,31.546,21.408c-4.081,8.748-9.303,22.543-11.652,39.622c-3.539,25.749-0.902,63.816,30.029,102.32
			c-9.935,7.105-18.593,15.883-25.57,25.914C142.73,372.262,131.149,350.329,124.83,326.73z M337.302,452.503v44.264H155.563
			v-44.264c0-50.106,40.764-90.87,90.87-90.87S337.302,402.397,337.302,452.503z M399.917,230.374l-76.1,76.101
			c-3.364,3.365-8.839,3.365-12.205,0c-3.365-3.364-3.365-8.839,0-12.204l76.101-76.101c1.682-1.682,3.892-2.524,6.102-2.524
			s4.421,0.842,6.102,2.523C403.282,221.534,403.282,227.01,399.917,230.374z"/>
	</g>
</g>
<g>
	<g>
		<path d="M178.406,146.112c-14.621,0-26.517,11.895-26.517,26.517s11.895,26.517,26.517,26.517s26.517-11.895,26.517-26.517
			S193.028,146.112,178.406,146.112z M178.406,183.916c-6.224,0-11.287-5.063-11.287-11.287s5.063-11.287,11.287-11.287
			s11.287,5.063,11.287,11.287S184.63,183.916,178.406,183.916z"/>
	</g>
</g>
<g>
	<g>
		<path d="M246.433,387.017c-23.261,0-42.184,18.924-42.184,42.184c0,23.261,18.924,42.185,42.184,42.185
			s42.184-18.924,42.184-42.185S269.692,387.017,246.433,387.017z M246.433,456.155c-14.863,0-26.954-12.092-26.954-26.955
			s12.092-26.954,26.954-26.954c14.862,0,26.954,12.091,26.954,26.954S261.295,456.155,246.433,456.155z"/>
	</g>
</g>
<g>
</g>
<g>
</g>
<g>
</g>
<g>
</g>
<g>
</g>
<g>
</g>
<g>
</g>
<g>
</g>
<g>
</g>
<g>
</g>
<g>
</g>
<g>
</g>
<g>
</g>
<g>
</g>
<g>
</g>
</svg>
