<?xml version="1.0" encoding="iso-8859-1"?>
<!-- Generator: Adobe Illustrator 19.0.0, SVG Export Plug-In . SVG Version: 6.00 Build 0)  -->
<svg version="1.1" id="Capa_1" xmlns="http://www.w3.org/2000/svg" xmlns:xlink="http://www.w3.org/1999/xlink" x="0px" y="0px"
	 viewBox="0 0 512 512" style="enable-background:new 0 0 512 512;" xml:space="preserve">
<g>
	<g>
		<path d="M510.967,157.59L476.038,5.88c-0.158-0.686-0.392-1.361-0.742-1.973c-1.768-3.099-5.191-4.44-8.348-3.714l-64.03,14.742
			c-4.081,0.939-6.627,5.009-5.687,9.089l1.262,5.479l-12.951,2.984c-4.08,0.94-6.626,5.01-5.685,9.09v0.001
			c0.94,4.08,5.01,6.625,9.09,5.685l12.949-2.983l25.601,111.199l-202.342,46.577l-3.506-15.228
			c-0.005-0.022-0.007-0.045-0.012-0.068l-18.555-80.596c-0.006-0.026-0.016-0.052-0.022-0.078l-3.505-15.222l154.944-35.68
			c4.08-0.939,6.626-5.009,5.687-9.09c-0.94-4.08-5.009-6.626-9.09-5.687L188.763,77.79c-4.08,0.94-6.626,5.009-5.686,9.089
			l3.523,15.301L55.168,132.438c-1.029,0.237-2.027,0.634-2.88,1.256c-2.566,1.868-3.637,4.978-2.971,7.872l4.204,18.26L6.72,170.6
			c-4.08,0.939-6.626,5.008-5.687,9.088l6.512,28.298c0.228,0.995,0.607,1.961,1.195,2.795c1.501,2.127,3.844,3.255,6.232,3.255
			c0.568,0,1.138-0.064,1.7-0.193l46.804-10.773l4.395,19.091c0.808,3.509,3.928,5.882,7.382,5.882c0.564,0,1.136-0.064,1.707-0.195
			l131.596-30.297l3.522,15.296c0.808,3.509,3.928,5.882,7.382,5.882c0.563,0,1.136-0.064,1.707-0.195l15.89-3.657
			c0.727,3.715,1.816,7.291,3.227,10.693l-26.762,130.474c-0.841,4.102,1.801,8.109,5.904,8.951s8.108-1.801,8.951-5.904
			l23.734-115.709c7.997,8.102,18.452,13.744,30.188,15.788l-57.847,201.091h-16.826l13.641-66.503
			c0.841-4.102-1.801-8.109-5.904-8.951s-8.108,1.801-8.951,5.904l-22.968,111.971c-0.311,1.516-0.243,3.109,0.338,4.543
			c1.198,2.959,4.015,4.772,7.046,4.772h28.811c3.38,0,6.352-2.237,7.287-5.486l65.195-226.637l65.196,226.637
			c0.934,3.249,3.906,5.486,7.287,5.486h28.617c1.409,0,2.821-0.314,4.031-1.036c2.887-1.723,4.224-4.98,3.59-8.069l-56.904-277.42
			c2.779-6.647,4.32-13.935,4.32-21.579c0-4.846-0.613-9.594-1.814-14.198l84.456-19.441l1.226,5.327
			c0.229,0.992,0.606,1.954,1.194,2.784c1.501,2.12,3.843,3.247,6.229,3.247c0.568,0,1.138-0.064,1.701-0.193l64.03-14.742
			C509.359,165.741,511.906,161.67,510.967,157.59z M20.661,197.366l-3.15-13.69l39.412-9.075l3.152,13.692L20.661,197.366z
			 M80.948,211.37l-15.153-65.819l19.31-4.445l15.153,65.819L80.948,211.37z M115.033,203.523L99.88,137.705l90.121-20.748
			l15.154,65.819L115.033,203.523z M213.932,496.836h-13.808l4.391-21.411h15.575L213.932,496.836z M251.841,211.474l79.817-18.373
			c0.95,3.493,1.436,7.104,1.436,10.795c0,22.593-18.38,40.972-40.972,40.972C272.014,244.868,255.368,230.627,251.841,211.474z
			 M384.118,496.836H370.31l-6.159-21.411h15.576L384.118,496.836z M376.617,460.262H359.79l-57.852-201.108
			c11.7-2.073,22.16-7.772,30.165-15.904L376.617,460.262z M445.235,164.943L413.71,28.01l49.253-11.34l31.526,136.934
			L445.235,164.943z"/>
	</g>
</g>
<g>
	<g>
		<path d="M137.16,150.987c-1.239-6.612-10.289-8.175-13.836-2.572c-3.731,5.895,2.19,13.446,8.787,11.247
			C135.678,158.473,137.932,154.697,137.16,150.987z"/>
	</g>
</g>
<g>
</g>
<g>
</g>
<g>
</g>
<g>
</g>
<g>
</g>
<g>
</g>
<g>
</g>
<g>
</g>
<g>
</g>
<g>
</g>
<g>
</g>
<g>
</g>
<g>
</g>
<g>
</g>
<g>
</g>
</svg>
