<?xml version="1.0" encoding="iso-8859-1"?>
<!-- Generator: Adobe Illustrator 19.0.0, SVG Export Plug-In . SVG Version: 6.00 Build 0)  -->
<svg version="1.1" id="Capa_1" xmlns="http://www.w3.org/2000/svg" xmlns:xlink="http://www.w3.org/1999/xlink" x="0px" y="0px"
	 viewBox="0 0 512 512" style="enable-background:new 0 0 512 512;" xml:space="preserve">
<g>
	<g>
		<path d="M366.371,436.506V170.36c15.463-5.077,26.665-19.642,26.665-36.782c0-20.037-15.302-36.566-34.834-38.517
			C354.39,42.003,310.01,0,256,0c-18.446,0-36.244,4.859-51.947,14.121c-3.847,2.269-4.984,7.309-2.413,10.963l0.001,0.002
			c2.265,3.22,6.633,4.211,10.021,2.207c13.395-7.924,28.587-12.082,44.339-12.082c45.551,0,83.04,35.091,86.908,79.656H169.081
			c1.461-16.841,7.744-32.818,18.161-46.121c2.464-3.147,2.165-7.637-0.773-10.346c-3.273-3.02-8.419-2.585-11.166,0.92
			c-12.57,16.035-20.017,35.383-21.48,55.74c-19.543,1.941-34.858,18.474-34.858,38.519c0,17.14,11.201,31.706,26.665,36.782
			v266.146c-15.733,5.166-27.054,20.154-26.655,37.682c0.482,21.147,18.277,37.812,39.43,37.812h121.426
			c4.199,0,7.603-3.404,7.603-7.603v-0.003c0-4.199-3.404-7.603-7.603-7.603H158.255c-12.727,0-23.58-9.876-24.061-22.593
			c-0.506-13.369,10.224-24.409,23.484-24.409h196.07c12.726,0,23.58,9.876,24.061,22.593c0.506,13.369-10.224,24.408-23.484,24.408
			h-39.003c-4.199,0-7.603,3.404-7.603,7.603v0.003c0,4.199,3.404,7.603,7.603,7.603h38.274c21.153,0,38.948-16.665,39.43-37.812
			C393.425,456.66,382.104,441.672,366.371,436.506z M351.16,434.577h-39.657l39.657-18.98V434.577z M351.16,398.735l-74.888,35.842
			h-89.528l164.416-78.688V398.735z M351.16,339.028L160.84,430.112v-42.85l190.319-91.084V339.028z M351.16,279.316L160.84,370.4
			v-42.849l190.319-91.084V279.316z M351.16,219.605L160.84,310.689v-42.85l190.319-91.084V219.605z M235.729,172.289h89.528
			L160.84,250.977v-42.846L235.729,172.289z M160.84,191.269v-18.98h39.657L160.84,191.269z M157.677,157.078
			c-12.958,0-23.501-10.542-23.501-23.5s10.542-23.501,23.501-23.501h196.647c12.958,0,23.501,10.542,23.501,23.501
			c0,12.959-10.543,23.5-23.501,23.5H157.677z"/>
	</g>
</g>
<g>
</g>
<g>
</g>
<g>
</g>
<g>
</g>
<g>
</g>
<g>
</g>
<g>
</g>
<g>
</g>
<g>
</g>
<g>
</g>
<g>
</g>
<g>
</g>
<g>
</g>
<g>
</g>
<g>
</g>
</svg>
