<?xml version="1.0" encoding="iso-8859-1"?>
<!-- Generator: Adobe Illustrator 19.0.0, SVG Export Plug-In . SVG Version: 6.00 Build 0)  -->
<svg version="1.1" id="Capa_1" xmlns="http://www.w3.org/2000/svg" xmlns:xlink="http://www.w3.org/1999/xlink" x="0px" y="0px"
	 viewBox="0 0 512.002 512.002" style="enable-background:new 0 0 512.002 512.002;" xml:space="preserve">
<g>
	<g>
		<path d="M451.998,195.996c0-20.829-14.195-38.398-33.417-43.563c15.271-15.291,18.097-40.283,4.17-58.973
			c-5-6.711-11.843-11.913-19.651-14.929c-9.213-3.558-18.954-4.017-28.067-1.567c2.449-9.115,1.991-18.857-1.57-28.072
			c-3.017-7.808-8.22-14.65-14.933-19.651c-18.692-13.924-43.679-11.097-58.968,4.173C294.399,14.195,276.83,0,256.002,0
			c-20.831,0-38.4,14.196-43.564,33.418c-14.084-14.065-36.396-17.575-54.435-7.159c-18.035,10.412-26.153,31.483-21.022,50.708
			c-7.564-2.035-15.56-2.068-23.327,0.013c-11.638,3.12-21.366,10.583-27.391,21.019c-10.414,18.039-6.905,40.352,7.158,54.435
			c-19.222,5.164-33.417,22.733-33.417,43.563c0,20.831,14.195,38.399,33.417,43.564c-14.064,14.084-17.572,36.396-7.159,54.435
			c8.346,14.455,23.539,22.546,39.141,22.546c3.868,0,7.759-0.502,11.58-1.522c-5.136,19.228,2.982,40.302,21.02,50.716
			c7.087,4.091,14.83,6.035,22.478,6.035c11.821,0,23.404-4.655,31.956-13.196c4.055,15.097,15.763,27.085,30.695,31.539
			c-4.992,8.832-11.744,23.084-16.78,42.422c-1.1,4.222,1.554,8.516,5.817,9.451h0.001c4.058,0.89,8.069-1.603,9.119-5.622
			c4.446-17.016,10.342-29.703,14.717-37.635c2.701,4.885,5.974,11.569,9.114,19.94c6.223,16.589,13.113,43.197,11.95,77.914H234.93
			c-0.298-8.867-0.095-17.614,0.609-26.141c0.339-4.112-2.685-7.74-6.782-8.224c-4.311-0.509-8.227,2.635-8.584,6.962
			c-0.956,11.589-1.048,23.541-0.273,35.635c0.259,4.045,3.638,7.188,7.691,7.188h56.82c4.065,0,7.431-3.158,7.693-7.216
			c3.726-57.986-13.223-97.078-23.21-114.679c14.92-4.459,26.618-16.443,30.672-31.533c8.552,8.541,20.133,13.196,31.956,13.196
			c9.194,0,18.534-2.811,26.692-8.784c6.876-5.034,12.208-11.982,15.271-19.934c3.541-9.195,3.995-18.914,1.554-28.008
			c3.774,1.014,7.656,1.526,11.565,1.526c3.917,0,7.86-0.515,11.746-1.556c11.641-3.119,21.369-10.586,27.388-21.024
			c1.823-3.161,3.242-6.467,4.244-9.89c1.373-4.688-1.947-9.45-6.818-9.821l-0.022-0.002c-3.595-0.274-6.937,1.972-7.944,5.435
			c-0.771,2.651-1.921,5.198-3.441,7.612c-3.33,5.291-8.299,9.442-14.121,11.72c-8.617,3.371-17.951,2.644-25.803-1.89
			c-14.179-8.191-19.056-26.383-10.871-40.556c3.966-6.871,10.37-11.785,18.03-13.837c7.659-2.054,15.66-1,22.534,2.967
			c3.254,1.88,6.088,4.326,8.383,7.216c2.244,2.825,6.19,3.638,9.415,2.02c4.415-2.215,5.603-7.932,2.501-11.776
			c-1.021-1.265-2.109-2.474-3.259-3.623C437.793,234.407,451.998,216.833,451.998,195.996z M371.827,94.84
			c4.664-2.693,9.762-3.972,14.796-3.972c10.268-0.001,20.271,5.325,25.763,14.839c8.186,14.178,3.311,32.372-10.868,40.558
			c-14.181,8.187-32.374,3.31-40.559-10.867C352.775,121.22,357.65,103.026,371.827,94.84z M305.732,50.478
			c5.494-9.515,15.493-14.84,25.762-14.84c5.033,0,10.132,1.28,14.796,3.972c14.178,8.186,19.053,26.381,10.867,40.559
			c-3.965,6.869-10.368,11.781-18.029,13.834c-7.663,2.052-15.662,0.998-22.53-2.966C302.422,82.851,297.546,64.656,305.732,50.478z
			 M256.002,15.418c16.372,0,29.691,13.32,29.691,29.692c0,16.372-13.319,29.691-29.691,29.691
			c-16.372,0-29.692-13.319-29.692-29.691C226.31,28.738,239.63,15.418,256.002,15.418z M165.712,39.61
			c4.575-2.642,9.653-3.991,14.797-3.991c2.578,0,5.174,0.339,7.732,1.025c7.661,2.053,14.063,6.965,18.029,13.834
			c8.186,14.178,3.311,32.373-10.867,40.559c-6.868,3.966-14.869,5.02-22.53,2.966c-7.661-2.053-14.063-6.966-18.029-13.834
			C146.658,65.991,151.534,47.796,165.712,39.61z M99.616,105.708c5.494-9.515,15.494-14.84,25.763-14.84
			c5.032,0,10.132,1.28,14.796,3.972c6.868,3.965,11.781,10.368,13.834,18.029c2.053,7.66,0.999,15.661-2.966,22.53
			c-8.186,14.178-26.379,19.054-40.559,10.867C96.306,138.08,91.431,119.886,99.616,105.708z M75.422,195.996
			c0-16.372,13.32-29.691,29.692-29.691c16.372,0,29.691,13.319,29.691,29.691c0,16.372-13.319,29.692-29.691,29.692
			C88.742,225.688,75.422,212.367,75.422,195.996z M140.175,297.154c-14.181,8.187-32.375,3.309-40.559-10.869
			c-8.185-14.178-3.31-32.372,10.867-40.558c4.664-2.693,9.762-3.972,14.796-3.972c10.268,0,20.271,5.326,25.763,14.84
			C159.228,270.774,154.353,288.968,140.175,297.154z M206.27,341.515c-3.965,6.869-10.368,11.781-18.029,13.834
			s-15.661,0.998-22.53-2.966c-14.178-8.186-19.053-26.381-10.867-40.559c3.965-6.868,10.368-11.781,18.029-13.834
			c2.558-0.686,5.154-1.025,7.733-1.025c5.144,0,10.222,1.35,14.797,3.991C209.581,309.142,214.456,327.337,206.27,341.515z
			 M256.061,376.574c-0.021,0-0.041-0.003-0.062-0.003s-0.04,0.003-0.06,0.003c-16.343-0.034-29.629-13.339-29.629-29.69
			c0-16.372,13.32-29.691,29.692-29.691c16.372,0,29.691,13.319,29.691,29.691C285.692,363.236,272.405,376.541,256.061,376.574z
			 M357.157,311.823c8.187,14.178,3.312,32.373-10.866,40.559c-14.177,8.188-32.371,3.312-40.558-10.867
			c-8.186-14.178-3.311-32.373,10.867-40.559c4.575-2.642,9.653-3.991,14.797-3.991c2.578,0,5.174,0.339,7.732,1.025
			C346.789,300.042,353.191,304.954,357.157,311.823z M374.997,227.869c-11.637,3.119-21.366,10.584-27.389,21.021
			c-6.222,10.771-7.478,23.07-4.482,34.232c-11.16-2.994-23.461-1.738-34.235,4.482c-10.774,6.221-18.012,16.245-21,27.408
			c-8.168-8.174-19.449-13.236-31.889-13.236c-12.432,0-23.705,5.055-31.873,13.218c-3.119-11.638-10.583-21.366-21.018-27.39
			c-10.433-6.024-22.589-7.626-34.228-4.507c2.985-11.154,1.727-23.444-4.49-34.21c-6.024-10.435-15.752-17.899-27.39-21.018
			c8.162-8.167,13.218-19.441,13.218-31.873c0-12.432-5.055-23.704-13.218-31.872c11.638-3.119,21.366-10.583,27.39-21.018
			c6.215-10.767,7.475-23.056,4.49-34.21c3.885,1.041,7.829,1.556,11.747,1.556c7.816,0,15.53-2.05,22.48-6.062
			c10.435-6.024,17.899-15.752,21.018-27.39c8.167,8.162,19.441,13.218,31.873,13.218c12.44,0,23.721-5.062,31.889-13.236
			c2.988,11.163,10.226,21.187,21,27.408c7.087,4.091,14.83,6.034,22.478,6.034c3.983,0,7.936-0.534,11.759-1.56
			c-2.996,11.162-1.741,23.466,4.479,34.242c6.222,10.775,16.249,18.008,27.413,20.995c-8.176,8.169-13.241,19.451-13.241,31.894
			C361.779,208.428,366.834,219.702,374.997,227.869z M406.888,225.687c-16.372,0-29.691-13.32-29.691-29.692
			c0-16.372,13.319-29.691,29.691-29.691s29.692,13.319,29.692,29.691C436.58,212.367,423.26,225.687,406.888,225.687z"/>
	</g>
</g>
<g>
</g>
<g>
</g>
<g>
</g>
<g>
</g>
<g>
</g>
<g>
</g>
<g>
</g>
<g>
</g>
<g>
</g>
<g>
</g>
<g>
</g>
<g>
</g>
<g>
</g>
<g>
</g>
<g>
</g>
</svg>
