<?xml version="1.0" encoding="iso-8859-1"?>
<!-- Generator: Adobe Illustrator 19.0.0, SVG Export Plug-In . SVG Version: 6.00 Build 0)  -->
<svg version="1.1" id="Capa_1" xmlns="http://www.w3.org/2000/svg" xmlns:xlink="http://www.w3.org/1999/xlink" x="0px" y="0px"
	 viewBox="0 0 512.001 512.001" style="enable-background:new 0 0 512.001 512.001;" xml:space="preserve">
<g>
	<g>
		<path d="M443.159,73.046c-29.475-29.376-62.675-38.129-101.207-26.623v-6.805h8.396c4.302,0,7.791-3.488,7.791-7.791V7.791
			c0-4.302-3.488-7.791-7.791-7.791H162.423c-4.302,0-7.791,3.488-7.791,7.791v24.038c0,4.302,3.488,7.791,7.791,7.791h8.396v7.039
			c-38.86-11.856-72.308-3.182-101.987,26.398c-20.068,20.066-25.458,48.321-16.021,83.976c7.28,27.507,22.07,53.942,33.603,71.798
			c-9.115,58.135,6.499,110.917,46.469,157.075c2.851,3.293,7.883,3.532,11.084,0.578l0.095-0.087
			c3.07-2.833,3.294-7.576,0.563-10.737c-4.87-5.637-9.341-11.38-13.428-17.224h250.357c-7.236,10.35-15.687,20.387-25.388,30.089
			c-39.405,39.395-49.034,54.696-50.674,74.96h-98.206c-1.444-18.024-9.124-31.896-37.861-61.895
			c-2.983-3.114-7.944-3.193-11.026-0.177l-0.051,0.05c-3.036,2.971-3.114,7.837-0.177,10.907
			c26.68,27.883,32.351,39.2,33.518,51.117h-11.414c-4.302,0-7.791,3.488-7.791,7.791v32.937c0,4.302,3.488,7.791,7.791,7.791
			h152.221c4.302,0,7.791-3.488,7.791-7.791v-32.937c0-4.302-3.488-7.791-7.791-7.791h-11.416
			c1.325-13.635,8.511-26.36,46.104-63.944c49.562-49.563,69.388-107.293,59.007-171.648c11.441-17.837,25.845-43.834,32.999-70.86
			C468.625,121.376,463.235,93.121,443.159,73.046z M324.706,479.063v17.355h-136.64v-17.355H324.706z M170.215,24.038v-8.456
			h172.344v8.456h-8.396H178.611H170.215z M180.411,138.33h95.236c4.302,0,7.791-3.488,7.791-7.791s-3.488-7.791-7.791-7.791
			h-89.246v-83.13h139.971v83.13h-14.368c-4.302,0-7.791,3.488-7.791,7.791s3.488,7.791,7.791,7.791h20.357
			c9.99,4.991,68.303,36.169,77.732,87.785c0.737,4.034,1.336,8.039,1.816,12.017H100.863c0.48-3.979,1.074-7.984,1.81-12.017
			C112.08,174.629,170.435,143.332,180.411,138.33z M341.954,125.729V98.983c19.798-7.732,37.969-6.842,54.058,2.688
			c23.073,13.73,16.628,44.628,5.031,71.26c-6.84-8.421-14.971-16.511-24.323-24.151
			C362.337,137.03,348.765,129.296,341.954,125.729z M115.976,101.679c16.309-9.662,34.744-10.459,54.844-2.398v26.432
			c-10.881,5.661-38.742,21.765-59.635,47.737C99.445,146.701,92.765,115.491,115.976,101.679z M67.874,153.044
			c-7.914-29.905-3.885-53.111,11.967-68.962c16.925-16.867,44.601-37.077,90.978-21.047V82.7
			c-22.448-7.437-43.974-5.57-62.797,5.581c-13.765,8.192-21.709,21.437-22.971,38.303c-1.259,16.826,4.069,37.555,15.806,61.611
			c-3.623,6.041-6.766,12.498-9.238,19.356C82.555,192.006,73.08,172.712,67.874,153.044z M131.158,342.851h-9.785
			c-9.92-17.592-16.477-36.039-19.642-55.275h29.427V342.851z M391.394,342.851H349.89v0v-63.108c0-4.304-3.488-7.791-7.791-7.791
			h-37.036c-4.302,0-7.791,3.487-7.791,7.791c0,4.303,3.488,7.791,7.791,7.791h29.246v55.317h-86.004v-63.108
			c0-4.304-3.488-7.791-7.791-7.791h-37.036c-4.302,0-7.791,3.487-7.791,7.791c0,4.303,3.488,7.791,7.791,7.791h29.246v55.317
			H146.74v-63.065c0-4.304-3.488-7.791-7.791-7.791H99.925c-0.414-6.023-0.515-12.117-0.292-18.282h63.249v63.065
			c0,4.304,3.488,7.791,7.791,7.791h37.036c4.302,0,7.791-3.487,7.791-7.791c0-4.303-3.488-7.791-7.791-7.791h-29.246v-55.275
			h86.004v63.065c0,4.304,3.488,7.791,7.791,7.791h37.036c4.302,0,7.791-3.487,7.791-7.791c0-4.303-3.488-7.791-7.791-7.791h-29.246
			v-55.275h86.005v63.065c0,4.304,3.488,7.791,7.791,7.791h26.509C397.754,330.759,394.776,336.855,391.394,342.851z
			 M406.007,308.988h-24.372v-55.275h31.506C413.835,272.836,411.445,291.277,406.007,308.988z M444.127,153.044
			c-5.121,19.348-14.373,38.32-23.3,53.732c-2.428-6.503-5.568-12.911-9.393-19.181c11.532-23.801,16.764-44.325,15.516-61.011
			c-1.262-16.866-9.205-30.111-22.984-38.311c-18.595-11.015-39.843-12.961-62.012-5.821V62.749
			c23.307-8.037,56.309-12.451,90.198,21.324C448.012,99.933,452.041,123.139,444.127,153.044z"/>
	</g>
</g>
<g>
</g>
<g>
</g>
<g>
</g>
<g>
</g>
<g>
</g>
<g>
</g>
<g>
</g>
<g>
</g>
<g>
</g>
<g>
</g>
<g>
</g>
<g>
</g>
<g>
</g>
<g>
</g>
<g>
</g>
</svg>
