<?xml version="1.0" encoding="iso-8859-1"?>
<!-- Generator: Adobe Illustrator 19.0.0, SVG Export Plug-In . SVG Version: 6.00 Build 0)  -->
<svg version="1.1" id="Capa_1" xmlns="http://www.w3.org/2000/svg" xmlns:xlink="http://www.w3.org/1999/xlink" x="0px" y="0px"
	 viewBox="0 0 512.001 512.001" style="enable-background:new 0 0 512.001 512.001;" xml:space="preserve">
<g>
	<g>
		<path d="M439.247,68.338c-4.199,0-7.604,3.405-7.604,7.604v340.645H112.856c-12.548,0-23.973,4.878-32.498,12.825V47.706
			c0-17.948,14.55-32.498,32.498-32.498h318.786v25.248c0,4.199,3.405,7.604,7.604,7.604s7.604-3.405,7.604-7.604V7.604
			c0-4.199-3.405-7.604-7.604-7.604h-326.39C86.509,0,65.15,21.359,65.15,47.706v416.589c0,26.347,21.359,47.706,47.706,47.706
			h326.39c4.199,0,7.604-3.405,7.604-7.604v-80.203V75.942C446.851,71.743,443.446,68.338,439.247,68.338z M112.856,431.797h288.377
			v9.126H206.511c-4.199,0-7.604,3.404-7.604,7.604c0,4.2,3.405,7.604,7.604,7.604h194.722v9.125H112.861
			c-8.678,0-16.839-3.382-22.981-9.523c-2.155-2.156-3.971-4.567-5.433-7.193C90.001,438.562,100.652,431.797,112.856,431.797z
			 M431.643,496.792H112.856c-16.719,0-30.523-12.692-32.3-28.945c8.833,8.145,20.226,12.614,32.304,12.614h295.977
			c4.199,0,7.604-3.404,7.604-7.604v-41.062h15.202V496.792z"/>
	</g>
</g>
<g>
	<g>
		<path d="M181.162,440.922h-41.496c-4.199,0-7.604,3.404-7.604,7.604c0,4.2,3.405,7.604,7.604,7.604h41.496
			c4.199,0,7.604-3.404,7.604-7.604C188.766,444.326,185.362,440.922,181.162,440.922z"/>
	</g>
</g>
<g>
	<g>
		<path d="M310.663,231.52h-12.37v-39.214c0-4.668-4.902-6.77-9.804-6.77c-4.902,0-9.804,2.101-9.804,6.77v39.214h-40.38
			l51.118-101.769c0.7-1.167,0.934-2.101,0.934-3.269c0-4.668-5.836-7.702-9.57-7.702c-3.501,0-6.769,1.633-8.869,5.602
			l-57.653,113.673c-0.935,1.401-1.167,3.034-1.167,4.435c0,4.668,2.801,7.703,7.236,7.703h58.354v32.211
			c-0.002,4.668,4.9,7.003,9.802,7.003c4.902,0,9.804-2.335,9.804-7.002v-32.211h12.37c3.968,0,7.003-4.668,7.003-9.337
			S315.331,231.52,310.663,231.52z"/>
	</g>
</g>
<g>
</g>
<g>
</g>
<g>
</g>
<g>
</g>
<g>
</g>
<g>
</g>
<g>
</g>
<g>
</g>
<g>
</g>
<g>
</g>
<g>
</g>
<g>
</g>
<g>
</g>
<g>
</g>
<g>
</g>
</svg>
