<?xml version="1.0" encoding="iso-8859-1"?>
<!-- Generator: Adobe Illustrator 19.0.0, SVG Export Plug-In . SVG Version: 6.00 Build 0)  -->
<svg version="1.1" id="Capa_1" xmlns="http://www.w3.org/2000/svg" xmlns:xlink="http://www.w3.org/1999/xlink" x="0px" y="0px"
	 viewBox="0 0 511.999 511.999" style="enable-background:new 0 0 511.999 511.999;" xml:space="preserve">
<g>
	<g>
		<path d="M392.076,330.385c19.86-50.185,29.515-95.104,29.515-137.321c0-50.736-18.901-82.985-34.758-101.103
			c-7.678-8.774-15.375-15.164-21.642-19.596c0.92-0.85,1.783-1.772,2.575-2.774c4.581-5.797,6.227-13.244,4.519-20.431
			l-1.481-6.234C364.794,17.65,342.456,0,316.479,0h-120.96c-25.978,0-48.316,17.65-54.323,42.924l-1.482,6.234
			c-1.708,7.188-0.062,14.635,4.519,20.431c0.792,1.002,1.656,1.924,2.575,2.774c-6.266,4.432-13.963,10.822-21.642,19.596
			c-15.857,18.119-34.758,50.368-34.758,101.103c0,42.218,9.654,87.136,29.515,137.321c15.448,39.036,36.465,79.949,66.141,128.756
			c2.586,4.253,4.313,8.898,5.155,13.682c-7.66,2.539-13.206,9.756-13.206,18.256v1.68c0,10.609,8.631,19.241,19.24,19.241h117.49
			c10.609,0,19.24-8.632,19.24-19.241v-1.68c0-8.5-5.547-15.717-13.206-18.256c0.843-4.783,2.569-9.428,5.156-13.682
			C355.611,410.335,376.628,369.421,392.076,330.385z M154.509,52.675l1.482-6.234c0.288-1.213,0.632-2.399,1.02-3.562h40.346
			c4.199,0,7.604-3.405,7.604-7.604s-3.405-7.604-7.604-7.604h-31.16c7.451-7.769,17.901-12.463,29.322-12.463h120.96
			c11.421,0,21.871,4.694,29.321,12.463H232.844c-4.199,0-7.604,3.405-7.604,7.604s3.405,7.604,7.604,7.604h122.142
			c0.389,1.162,0.732,2.349,1.02,3.562l1.421,5.983c0.565,2.375,0.254,4.918-1.055,6.977c-1.648,2.591-4.424,4.102-7.44,4.102h-0.7
			H163.765h-0.439c-2.44,0-4.843-0.889-6.544-2.639C154.641,58.662,153.812,55.61,154.509,52.675z M106.714,217.263h233.598
			c4.199,0,7.604-3.405,7.604-7.604s-3.405-7.604-7.604-7.604H105.775c-0.102-3.013-0.159-6.011-0.159-8.992
			c0-36.62,10.259-67.071,30.491-90.508c12.589-14.582,25.364-21.793,29.391-23.845H346.51
			c8.818,4.474,59.872,33.888,59.872,114.352c0,2.981-0.058,5.979-0.159,8.992h-30.425c-4.199,0-7.604,3.405-7.604,7.604
			s3.405,7.604,7.604,7.604h29.486c-2.583,28.998-9.767,59.614-21.731,92.687H128.445
			C116.48,276.877,109.297,246.262,106.714,217.263z M318.777,492.759h-0.001c0,2.223-1.809,4.033-4.032,4.033h-117.49
			c-2.223,0-4.032-1.809-4.032-4.033v-1.68c0-2.222,1.809-4.032,4.032-4.032h2.174h113.144h2.174c2.223,0,4.032,1.809,4.032,4.032
			V492.759z M312.939,451.24c-3.869,6.364-6.384,13.374-7.427,20.599h-99.028c-1.041-7.226-3.558-14.236-7.427-20.599
			c-29.125-47.9-49.736-87.976-64.847-126.082h243.574C362.676,363.265,342.065,403.34,312.939,451.24z"/>
	</g>
</g>
<g>
	<g>
		<path d="M284.534,242.417h-57.069c-12.579,0-22.812,10.234-22.812,22.812v2.196c0,12.578,10.233,22.812,22.812,22.812h57.069
			c12.579,0,22.812-10.234,22.812-22.812v-2.196C307.346,252.651,297.113,242.417,284.534,242.417z M292.138,267.425
			c0,4.193-3.411,7.604-7.604,7.604h-57.069c-4.193,0-7.604-3.411-7.604-7.604v-2.196c0-4.193,3.411-7.604,7.604-7.604h57.069
			c4.193,0,7.604,3.411,7.604,7.604V267.425z"/>
	</g>
</g>
<g>
	<g>
		<path d="M169.883,242.417h-23.442c-12.579,0-22.812,10.234-22.812,22.812v2.196c0,12.578,10.233,22.812,22.812,22.812h23.442
			c12.579,0,22.812-10.234,22.812-22.812v-2.196C192.694,252.651,182.462,242.417,169.883,242.417z M177.487,267.425
			c0,4.193-3.411,7.604-7.604,7.604h-23.442c-4.193,0-7.604-3.411-7.604-7.604v-2.196c0-4.193,3.411-7.604,7.604-7.604h23.442
			c4.193,0,7.604,3.411,7.604,7.604V267.425z"/>
	</g>
</g>
<g>
	<g>
		<path d="M365.558,242.417h-23.442c-12.579,0-22.812,10.234-22.812,22.812v2.196c0,12.578,10.233,22.812,22.812,22.812h23.442
			c12.579,0,22.812-10.234,22.812-22.812v-2.196C388.37,252.651,378.137,242.417,365.558,242.417z M373.162,267.425
			c0,4.193-3.411,7.604-7.604,7.604h-23.442c-4.193,0-7.604-3.411-7.604-7.604v-2.196c0-4.193,3.411-7.604,7.604-7.604h23.442
			c4.193,0,7.604,3.411,7.604,7.604V267.425z"/>
	</g>
</g>
<g>
</g>
<g>
</g>
<g>
</g>
<g>
</g>
<g>
</g>
<g>
</g>
<g>
</g>
<g>
</g>
<g>
</g>
<g>
</g>
<g>
</g>
<g>
</g>
<g>
</g>
<g>
</g>
<g>
</g>
</svg>
