<?xml version="1.0" encoding="iso-8859-1"?>
<!-- Generator: Adobe Illustrator 19.0.0, SVG Export Plug-In . SVG Version: 6.00 Build 0)  -->
<svg version="1.1" id="Capa_1" xmlns="http://www.w3.org/2000/svg" xmlns:xlink="http://www.w3.org/1999/xlink" x="0px" y="0px"
	 viewBox="0 0 512.001 512.001" style="enable-background:new 0 0 512.001 512.001;" xml:space="preserve">
<g>
	<g>
		<path d="M439.247,0h-60.888c-4.199,0-7.604,3.405-7.604,7.604s3.405,7.604,7.604,7.604h53.285v401.381H112.856
			c-12.548,0-23.973,4.878-32.498,12.825V47.706c0-17.948,14.55-32.498,32.498-32.498h230.017c4.199,0,7.604-3.405,7.604-7.604
			S347.073,0,342.873,0H112.856C86.509,0,65.15,21.359,65.15,47.706v416.589c0,26.347,21.359,47.706,47.706,47.706h65.773
			c4.199,0,7.604-3.405,7.604-7.604s-3.405-7.604-7.604-7.604h-65.773c-16.719,0-30.523-12.692-32.3-28.945
			c8.833,8.145,20.225,12.614,32.304,12.614h295.977c4.199,0,7.604-3.405,7.604-7.604v-41.062h15.202v64.996H214.116
			c-4.199,0-7.604,3.405-7.604,7.604s3.405,7.604,7.604,7.604h225.131c4.199,0,7.604-3.405,7.604-7.604v-80.204V7.604
			C446.851,3.405,443.446,0,439.247,0z M401.233,465.255H112.861c-8.678,0-16.839-3.382-22.981-9.523
			c-2.155-2.156-3.971-4.567-5.433-7.193c5.555-9.975,16.205-16.742,28.409-16.742h288.377v9.126H139.666
			c-4.199,0-7.604,3.404-7.604,7.604c0,4.2,3.405,7.604,7.604,7.604h261.567V465.255z"/>
	</g>
</g>
<g>
	<g>
		<path d="M295.808,199.309c10.971-5.134,18.906-18.906,18.906-39.214c0-30.344-18.44-41.314-44.583-41.314
			c-37.814,0-47.383,24.508-47.383,38.514c0,7.702,1.868,10.036,10.269,10.036c6.77,0,9.337-3.502,9.337-8.637
			c0-9.804,5.369-22.408,27.31-22.408c17.506,0,26.142,8.403,26.142,27.31c0,22.408-10.504,28.01-27.076,28.01
			c-4.901,0-6.768,4.201-6.768,8.17c0,4.202,1.868,8.17,6.768,8.17c18.906,0,31.279,8.17,31.279,28.477v4.435
			c-0.001,22.407-10.738,32.211-31.279,32.211c-22.642,0-30.577-13.305-30.577-23.342c0-4.901-2.101-7.702-10.036-7.702
			c-6.535,0-9.103,1.868-9.103,9.103c0,17.74,15.171,39.681,49.717,39.681c28.01,0,50.885-13.538,50.885-49.951v-4.435
			C319.616,216.115,309.579,204.911,295.808,199.309z"/>
	</g>
</g>
<g>
</g>
<g>
</g>
<g>
</g>
<g>
</g>
<g>
</g>
<g>
</g>
<g>
</g>
<g>
</g>
<g>
</g>
<g>
</g>
<g>
</g>
<g>
</g>
<g>
</g>
<g>
</g>
<g>
</g>
</svg>
