<?xml version="1.0" encoding="iso-8859-1"?>
<!-- Generator: Adobe Illustrator 19.0.0, SVG Export Plug-In . SVG Version: 6.00 Build 0)  -->
<svg version="1.1" id="Capa_1" xmlns="http://www.w3.org/2000/svg" xmlns:xlink="http://www.w3.org/1999/xlink" x="0px" y="0px"
	 viewBox="0 0 512.001 512.001" style="enable-background:new 0 0 512.001 512.001;" xml:space="preserve">
<g>
	<g>
		<path d="M396.494,123.915L329.562,3.897C328.221,1.491,325.683,0,322.928,0H189.073c-2.755,0-5.293,1.491-6.635,3.897
			l-66.932,120.018c-0.853,1.529-1.152,3.306-0.846,5.029l50.056,281.804c0.733,4.131,4.678,6.885,8.808,6.151
			c4.132-0.733,6.886-4.678,6.151-8.808l-48.171-271.194l22.267,3.741l57.755,325.136l-17.822,21.267l-7.826-44.066
			c-0.733-4.131-4.678-6.886-8.808-6.151c-4.131,0.733-6.886,4.678-6.151,8.808l10.674,60.101c0.644,3.626,3.796,6.269,7.48,6.269
			h133.855c3.683,0,6.835-2.642,7.48-6.268l53.347-300.331c0.733-4.132-2.021-8.075-6.151-8.808s-8.075,2.021-8.808,6.151
			l-50.499,284.299l-17.825-21.271l57.755-325.136l22.27-3.742l-5.499,30.955c-0.734,4.132,2.021,8.075,6.151,8.809
			c4.131,0.733,8.075-2.021,8.808-6.151l7.383-41.564C397.646,127.221,397.347,125.444,396.494,123.915z M309.658,15.193
			l-12.493,21.271h-82.331L202.34,15.193H309.658z M134.02,121.912l55.222-99.021l12.491,21.268l-45.444,81.495L134.02,121.912z
			 M306.655,496.808H205.342l17.83-21.276h65.653L306.655,496.808z M286.004,460.338h-60.011L168.267,135.37l46.68-83.712h82.104
			l46.68,83.712L286.004,460.338z M355.709,125.653l-45.444-81.495l12.492-21.27l55.224,99.023L355.709,125.653z"/>
	</g>
</g>
<g>
</g>
<g>
</g>
<g>
</g>
<g>
</g>
<g>
</g>
<g>
</g>
<g>
</g>
<g>
</g>
<g>
</g>
<g>
</g>
<g>
</g>
<g>
</g>
<g>
</g>
<g>
</g>
<g>
</g>
</svg>
