<?xml version="1.0" encoding="iso-8859-1"?>
<!-- Generator: Adobe Illustrator 19.0.0, SVG Export Plug-In . SVG Version: 6.00 Build 0)  -->
<svg version="1.1" id="Capa_1" xmlns="http://www.w3.org/2000/svg" xmlns:xlink="http://www.w3.org/1999/xlink" x="0px" y="0px"
	 viewBox="0 0 512 512" style="enable-background:new 0 0 512 512;" xml:space="preserve">
<g>
	<g>
		<path d="M439.247,178.344c-4.199,0-7.604,3.405-7.604,7.604v230.64h-0.001H112.855c-12.548,0-23.973,4.878-32.498,12.825V386.18
			c0-4.199-3.405-7.604-7.604-7.604c-4.199,0-7.604,3.405-7.604,7.604v78.114c0,26.347,21.359,47.706,47.706,47.706h326.391
			c4.199,0,7.604-3.405,7.604-7.604v-80.204V185.948C446.851,181.749,443.446,178.344,439.247,178.344z M112.855,431.797h288.377
			v9.126H139.666c-4.2,0-7.604,3.404-7.604,7.604c0,4.2,3.404,7.604,7.604,7.604h261.566v9.125H112.86
			c-8.678,0-16.838-3.382-22.98-9.524c-2.155-2.155-3.972-4.566-5.433-7.192C90,438.562,100.65,431.797,112.855,431.797z
			 M431.643,496.792L431.643,496.792H112.855c-16.719,0-30.524-12.692-32.3-28.946c8.834,8.145,20.226,12.615,32.304,12.615h295.977
			c4.2,0,7.604-3.404,7.604-7.604v-41.062h15.203V496.792z"/>
	</g>
</g>
<g>
	<g>
		<path d="M439.246,0h-326.39C86.507,0,65.149,21.359,65.149,47.706v302.987c0,4.199,3.405,7.604,7.604,7.604
			c4.199,0,7.604-3.405,7.604-7.604V47.706c0-17.948,14.55-32.498,32.498-32.498h318.787v135.254c0,4.199,3.405,7.604,7.604,7.604
			c4.199,0,7.604-3.405,7.604-7.604V7.604C446.85,3.405,443.445,0,439.246,0z"/>
	</g>
</g>
<g>
	<g>
		<path d="M317.954,273.695h-71.66v-11.904c0-29.177,77.028-45.283,77.028-95.467c0-26.377-21.008-45.516-48.084-45.516
			c-24.975,0-45.516,16.338-45.516,39.914c0,8.637,3.268,11.437,8.869,11.437c6.536,0,10.271-3.735,10.271-7.703
			c0-17.273,11.436-25.443,26.376-25.443c19.607,0,28.477,14.706,28.477,28.01c0,38.516-77.728,56.488-77.728,94.769v22.642
			c0,4.201,5.134,7.002,8.869,7.002h83.097c3.735,0,6.769-4.435,6.769-8.869C324.722,277.663,321.689,273.695,317.954,273.695z"/>
	</g>
</g>
<g>
</g>
<g>
</g>
<g>
</g>
<g>
</g>
<g>
</g>
<g>
</g>
<g>
</g>
<g>
</g>
<g>
</g>
<g>
</g>
<g>
</g>
<g>
</g>
<g>
</g>
<g>
</g>
<g>
</g>
</svg>
