<?xml version="1.0" encoding="iso-8859-1"?>
<!-- Generator: Adobe Illustrator 19.0.0, SVG Export Plug-In . SVG Version: 6.00 Build 0)  -->
<svg version="1.1" id="Capa_1" xmlns="http://www.w3.org/2000/svg" xmlns:xlink="http://www.w3.org/1999/xlink" x="0px" y="0px"
	 viewBox="0 0 512.001 512.001" style="enable-background:new 0 0 512.001 512.001;" xml:space="preserve">
<g>
	<g>
		<path d="M450.803,171.748h-41.102V87.242c0-4.199-3.405-7.604-7.604-7.604h-25.51V7.604c0-4.199-3.405-7.604-7.604-7.604H143.009
			c-4.199,0-7.604,3.405-7.604,7.604v72.034h-25.513c-4.199,0-7.604,3.405-7.604,7.604v84.505H61.197
			C27.399,171.748,0,199.146,0,232.944v182.629c0,4.199,3.405,7.604,7.604,7.604h14.204v24.525c0,4.199,3.405,7.604,7.604,7.604
			h76.061l-9.825,24.333c-0.655,1.623-0.836,3.43-0.348,5.111c0.981,3.375,4.01,5.532,7.322,5.532h25.124
			c4.199,0,7.604-3.405,7.604-7.604c0-4.199-3.405-7.604-7.604-7.604h-13.855l38.685-95.803h206.839l38.685,95.803h-69.871H183.762
			h-20.53c-4.199,0-7.604,3.405-7.604,7.604s3.405,7.604,7.604,7.604h13.93c3.36,12.494,14.779,21.719,28.318,21.719h101.031
			c13.539,0,24.958-9.225,28.316-21.719h74.336c1.751,0,3.495-0.509,4.871-1.592c2.762-2.175,3.627-5.789,2.388-8.859l-9.902-24.524
			h76.068c4.199,0,7.604-3.405,7.604-7.604v-24.525h14.204c4.199,0,7.604-3.405,7.604-7.604V232.944
			C512,199.146,484.601,171.748,450.803,171.748z M306.513,496.793H205.481c-4.985,0-9.375-2.599-11.887-6.511h124.804
			C315.887,494.195,311.497,496.793,306.513,496.793z M376.588,94.846h17.906v76.901h-17.906V94.846z M150.613,15.208H361.38
			v156.539H150.613V15.208z M117.496,94.846h17.909v76.901h-17.909V94.846z M111.615,440.098H37.016v-16.921h81.431L111.615,440.098
			z M474.984,440.098h-74.605l-6.832-16.921h81.437V440.098z M496.792,407.969h-14.204h-95.182l-11.588-28.698h9.79
			c4.199,0,7.604-3.405,7.604-7.604s-3.405-7.604-7.604-7.604h-21.061H147.447h-21.061c-4.199,0-7.604,3.405-7.604,7.604
			s3.405,7.604,7.604,7.604h9.79l-11.588,28.698H29.412H15.208V232.944c0-25.359,20.63-45.989,45.989-45.989h48.696h33.107
			c0.003,0,0.006,0,0.01,0h225.974c0.003,0,0.006,0,0.01,0h33.104h48.706c25.359,0,45.989,20.63,45.989,45.989V407.969z"/>
	</g>
</g>
<g>
	<g>
		<path d="M458.239,231.723c-0.419-11.11-9.9-19.738-21.017-19.738h-67.16c-4.199,0-7.604,3.405-7.604,7.604
			s3.405,7.604,7.604,7.604h67.428c2.778,0,5.263,2.026,5.533,4.791c0.309,3.172-2.186,5.854-5.295,5.854H74.512
			c-2.778,0-5.263-2.026-5.533-4.79c-0.309-3.172,2.186-5.854,5.295-5.854h260.3c4.199,0,7.604-3.405,7.604-7.604
			s-3.405-7.604-7.604-7.604H74.778c-11.118,0-20.599,8.628-21.019,19.738c-0.442,11.68,8.931,21.323,20.514,21.323h363.451
			C449.308,253.045,458.681,243.402,458.239,231.723z"/>
	</g>
</g>
<g>
	<g>
		<path d="M89.481,261.663H74.273c-11.321,0-20.53,9.21-20.53,20.53c0,11.32,9.209,20.531,20.53,20.531h15.208
			c11.321,0,20.531-9.21,20.531-20.531S100.802,261.663,89.481,261.663z M89.481,287.515H74.273c-2.935,0-5.322-2.388-5.322-5.323
			s2.387-5.322,5.322-5.322h15.208c2.935,0,5.323,2.388,5.323,5.322C94.804,285.127,92.417,287.515,89.481,287.515z"/>
	</g>
</g>
<g>
	<g>
		<path d="M157.272,261.663h-15.208c-11.321,0-20.531,9.21-20.531,20.53c0,11.32,9.21,20.531,20.531,20.531h15.208
			c11.321,0,20.53-9.21,20.53-20.531S168.593,261.663,157.272,261.663z M157.272,287.515h-15.208c-2.935,0-5.323-2.388-5.323-5.323
			s2.388-5.322,5.323-5.322h15.208c2.935,0,5.322,2.388,5.322,5.322C162.594,285.127,160.207,287.515,157.272,287.515z"/>
	</g>
</g>
<g>
</g>
<g>
</g>
<g>
</g>
<g>
</g>
<g>
</g>
<g>
</g>
<g>
</g>
<g>
</g>
<g>
</g>
<g>
</g>
<g>
</g>
<g>
</g>
<g>
</g>
<g>
</g>
<g>
</g>
</svg>
