<?xml version="1.0" encoding="iso-8859-1"?>
<!-- Generator: Adobe Illustrator 19.0.0, SVG Export Plug-In . SVG Version: 6.00 Build 0)  -->
<svg version="1.1" id="Capa_1" xmlns="http://www.w3.org/2000/svg" xmlns:xlink="http://www.w3.org/1999/xlink" x="0px" y="0px"
	 viewBox="0 0 512.001 512.001" style="enable-background:new 0 0 512.001 512.001;" xml:space="preserve">
<g>
	<g>
		<path d="M439.247,346.138c-4.199,0-7.604,3.405-7.604,7.604v62.846h-0.001H112.856c-12.548,0-23.973,4.878-32.498,12.825V47.706
			c0-17.948,14.55-32.498,32.498-32.498h67.8c4.199,0,7.604-3.405,7.604-7.604S184.855,0,180.656,0h-67.8
			C86.508,0,65.15,21.359,65.15,47.706v416.589c0,26.347,21.359,47.706,47.706,47.706h326.391c4.199,0,7.604-3.405,7.604-7.604
			v-80.203v-70.451C446.851,349.543,443.447,346.138,439.247,346.138z M112.856,431.797h288.377v9.126H139.667
			c-4.2,0-7.604,3.404-7.604,7.604c0,4.2,3.404,7.604,7.604,7.604h261.566v9.125H112.86c-8.678,0-16.838-3.382-22.98-9.524
			c-2.155-2.155-3.972-4.566-5.433-7.192C90,438.562,100.65,431.797,112.856,431.797z M431.643,496.792L431.643,496.792H112.856
			c-16.719,0-30.524-12.692-32.3-28.946c8.834,8.145,20.226,12.615,32.304,12.615h295.977c4.2,0,7.604-3.404,7.604-7.604v-41.062
			h15.203V496.792z"/>
	</g>
</g>
<g>
	<g>
		<path d="M439.246,0H216.143c-4.199,0-7.604,3.405-7.604,7.604s3.405,7.604,7.604,7.604h215.5v303.046
			c0,4.199,3.405,7.604,7.604,7.604c4.199,0,7.604-3.405,7.604-7.604V7.604C446.85,3.405,443.446,0,439.246,0z"/>
	</g>
</g>
<g>
	<g>
		<path d="M276.381,118.547c-2.801,0-4.436,1.401-6.069,3.034l-21.475,25.442c-2.1,1.634-4.201,5.369-4.201,8.171
			c0,4.201,3.034,8.17,7.236,8.17c1.4,0,3.268-0.7,4.902-2.567l8.637-12.838v134.447c0,4.666,4.901,7.001,9.803,7.001
			s9.803-2.335,9.803-7.002V125.549C285.017,121.114,280.582,118.547,276.381,118.547z"/>
	</g>
</g>
<g>
</g>
<g>
</g>
<g>
</g>
<g>
</g>
<g>
</g>
<g>
</g>
<g>
</g>
<g>
</g>
<g>
</g>
<g>
</g>
<g>
</g>
<g>
</g>
<g>
</g>
<g>
</g>
<g>
</g>
</svg>
