<?xml version="1.0" encoding="iso-8859-1"?>
<!-- Generator: Adobe Illustrator 19.0.0, SVG Export Plug-In . SVG Version: 6.00 Build 0)  -->
<svg version="1.1" id="Capa_1" xmlns="http://www.w3.org/2000/svg" xmlns:xlink="http://www.w3.org/1999/xlink" x="0px" y="0px"
	 viewBox="0 0 511.999 511.999" style="enable-background:new 0 0 511.999 511.999;" xml:space="preserve">
<g>
	<g>
		<path d="M505.068,470.912c-5.581-5.579-13.276-7.762-20.529-6.592c-2.533-12.26-11.403-28.182-26.77-48.143
			c-10.362-13.46-21.08-25.383-27.223-31.988l41.187-41.187c2.085-2.086,2.828-5.262,1.673-8.189
			c-0.384-0.972-0.998-1.846-1.739-2.583c-13.652-13.58-35.809-13.559-49.435,0.066l-23.117,23.117L298.528,254.827l191.27-191.282
			c0.799-0.798,1.409-1.767,1.786-2.833l17.55-49.724c0.776-2.199,0.63-4.67-0.591-6.657c-1.925-3.132-5.686-4.378-8.993-3.208
			l-49.931,17.623c-1.066,0.376-2.035,0.987-2.833,1.786l-98.206,98.21c-2.956,2.956-2.956,7.748,0,10.705
			c2.956,2.956,7.748,2.955,10.705,0l96.992-96.996l33.386-11.783l-11.784,33.385L287.823,244.122l-21.603-21.603l69.241-69.245
			c2.956-2.956,2.955-7.749-0.001-10.705c-2.956-2.955-7.748-2.955-10.705,0.001l-69.241,69.245L65.212,21.51
			c-0.799-0.798-1.767-1.409-2.833-1.785L12.445,2.101c-3.303-1.167-7.062,0.074-8.99,3.203C2.231,7.291,2.083,9.762,2.86,11.963
			l17.553,49.731c0.376,1.066,0.986,2.034,1.785,2.832L212.5,254.828l-99.611,99.611l-23.121-23.12
			c-13.648-13.647-35.854-13.646-49.501,0c-2.956,2.957-2.956,7.749,0,10.706l41.188,41.188c-2.416,2.6-5.539,6.022-9.082,10.05
			c-2.79,3.171-2.439,8.02,0.774,10.759l0.001,0.001c3.149,2.685,7.868,2.337,10.602-0.77c3.24-3.682,6.135-6.859,8.42-9.325
			l24.235,24.234c-6.495,6.02-17.969,16.303-30.604,26.023c-24.873,19.135-37.735,23.614-43.904,24.261
			c0.594-5.688,4.446-17.062,20.024-38.287c2.429-3.31,1.768-7.961-1.485-10.469l-0.01-0.008c-3.354-2.584-8.182-1.927-10.698,1.48
			c-9.579,12.976-19.57,28.579-22.312,42.141c-1.229-0.195-2.481-0.298-3.75-0.298c-7.763,0-14.955,3.711-19.548,10.296
			c-1.881,2.697-3.161,5.792-3.733,9.029c-1.396,7.894,1.065,15.593,6.547,21.076c4.614,4.613,10.674,6.919,16.734,6.919
			s12.121-2.306,16.734-6.919c0,0,0,0,0-0.001c4.469-4.47,6.931-10.413,6.931-16.734c0-1.293-0.108-2.568-0.311-3.82
			c12.258-2.538,28.161-11.385,48.113-26.746c13.459-10.363,25.382-21.082,31.987-27.226l41.066,41.065
			c0.746,0.746,1.61,1.382,2.589,1.776c2.941,1.186,6.145,0.447,8.242-1.651c13.648-13.648,13.648-35.854,0-49.503l-23.115-23.114
			l99.611-99.611l100.586,100.586l-23.116,23.116c-6.611,6.612-10.253,15.402-10.253,24.75s3.641,18.139,10.253,24.75
			c1.478,1.478,3.415,2.216,5.352,2.216s3.875-0.739,5.352-2.216l41.187-41.187c6.605,6.143,18.528,16.863,31.988,27.223
			c19.955,15.361,35.857,24.206,48.116,26.744c-0.202,1.253-0.311,2.528-0.311,3.821c0,7.37,3.346,14.226,9.32,18.833
			c3.411,2.63,7.531,4.26,11.817,4.702c8.723,0.899,17.016-2.883,22.102-10.201c1.866-2.685,3.137-5.764,3.707-8.985
			C513.014,484.101,510.552,476.398,505.068,470.912z M29.694,492.701c-3.325,3.324-8.734,3.324-12.057,0
			c-1.611-1.612-2.498-3.753-2.498-6.031c0-2.277,0.886-4.419,2.498-6.03c1.61-1.611,3.752-2.497,6.029-2.497
			c2.277,0,4.419,0.886,6.03,2.498c1.611,1.61,2.497,3.752,2.497,6.029C32.192,488.948,31.305,491.089,29.694,492.701z
			 M168.312,431.274c5.85,5.849,7.281,14.47,4.293,21.678L57.385,337.731c7.206-2.989,15.828-1.556,21.678,4.294L168.312,431.274z
			 M145.197,386.747l-21.603-21.602l99.611-99.61l21.602,21.602L145.197,386.747z M34.117,55.035L22.332,21.647L55.721,33.43
			l332.687,332.688l-21.604,21.604L34.117,55.035z M339.394,453.928c-2.988-7.207-1.557-15.828,4.293-21.678l28.47-28.47
			l32.31-32.31l28.47-28.47c3.872-3.873,8.959-5.809,14.046-5.809c2.598,0,5.196,0.505,7.632,1.515L339.394,453.928z
			 M426.197,445.163c-12.637-9.721-24.109-20.003-30.605-26.021l24.237-24.237c5.998,6.473,16.234,17.892,25.943,30.506
			c19.198,24.939,23.688,37.829,24.335,44.01C463.936,468.774,451.071,464.296,426.197,445.163z M494.362,493.677
			c-1.61,1.611-3.752,2.497-6.029,2.497s-4.419-0.886-6.029-2.497v-0.001c-1.611-1.61-2.497-3.752-2.497-6.029
			c0-2.278,0.887-4.419,2.497-6.03c1.662-1.662,3.845-2.494,6.03-2.494c2.183,0,4.367,0.831,6.029,2.493
			c1.611,1.612,2.498,3.753,2.498,6.031C496.86,489.924,495.973,492.066,494.362,493.677z"/>
	</g>
</g>
<g>
</g>
<g>
</g>
<g>
</g>
<g>
</g>
<g>
</g>
<g>
</g>
<g>
</g>
<g>
</g>
<g>
</g>
<g>
</g>
<g>
</g>
<g>
</g>
<g>
</g>
<g>
</g>
<g>
</g>
</svg>
