<?xml version="1.0" encoding="iso-8859-1"?>
<!-- Generator: Adobe Illustrator 19.0.0, SVG Export Plug-In . SVG Version: 6.00 Build 0)  -->
<svg version="1.1" id="Capa_1" xmlns="http://www.w3.org/2000/svg" xmlns:xlink="http://www.w3.org/1999/xlink" x="0px" y="0px"
	 viewBox="0 0 512.001 512.001" style="enable-background:new 0 0 512.001 512.001;" xml:space="preserve">
<g>
	<g>
		<path d="M446.818,223.506h-39.855v-70.882c0-83.344-68.188-152.935-151.531-152.623c-34.89,0.131-68.364,12.222-95.171,34.236
			c-3.374,2.77-3.746,7.803-0.801,11.026c2.721,2.977,7.298,3.316,10.414,0.755c24.111-19.813,54.225-30.695,85.616-30.812
			c74.949-0.281,136.268,62.3,136.268,137.249v71.05h-36.493v-71.283c0-54.65-43.64-99.994-98.287-100.521
			c-55.182-0.531-100.244,44.204-100.244,99.265v29.965h-36.493v-29.965c0-29.291,9.526-57.853,26.954-81.203
			c2.415-3.235,1.874-7.79-1.227-10.374c-3.352-2.793-8.364-2.199-10.973,1.298c-19.373,25.964-29.961,57.717-29.961,90.279v37.567
			c0,4.199,3.404,7.603,7.603,7.603h51.698c4.199,0,7.603-3.404,7.603-7.603v-36.494c0-46.28,36.952-84.682,83.23-85.134
			c46.73-0.456,84.89,37.429,84.89,84.061v72.539H65.183c-4.199,0-7.603,3.404-7.603,7.603v273.288c0,4.199,3.404,7.603,7.603,7.603
			H317.58c4.199,0,7.602-3.404,7.602-7.602v-0.001c0-4.199-3.404-7.602-7.602-7.602H72.786V238.712h366.429v258.083H353.06
			c-4.199,0-7.602,3.404-7.602,7.602v0.001c0,4.199,3.404,7.602,7.602,7.602h93.758c4.199,0,7.603-3.404,7.603-7.603V231.109
			C454.42,226.91,451.018,223.506,446.818,223.506z"/>
	</g>
</g>
<g>
	<g>
		<path d="M304.656,342.102c0-26.828-21.827-48.655-48.655-48.655c-26.828,0-48.655,21.827-48.655,48.655
			c0,16.099,7.92,30.995,20.983,40.024l-5.969,45.656c-0.284,2.17,0.381,4.357,1.825,6.001c1.443,1.645,3.526,2.588,5.714,2.588
			h52.205c2.189,0,4.27-0.943,5.714-2.588c1.444-1.644,2.108-3.831,1.825-6.001l-5.969-45.656
			C296.735,373.097,304.656,358.201,304.656,342.102z M271.88,371.548c-2.77,1.499-4.331,4.549-3.922,7.674l5.483,41.943H238.56
			l5.483-41.943c0.409-3.124-1.152-6.175-3.922-7.674c-10.837-5.859-17.57-17.143-17.57-29.447c0-18.444,15.006-33.45,33.45-33.45
			c18.444,0,33.45,15.006,33.45,33.45C289.451,354.406,282.718,365.689,271.88,371.548z"/>
	</g>
</g>
<g>
</g>
<g>
</g>
<g>
</g>
<g>
</g>
<g>
</g>
<g>
</g>
<g>
</g>
<g>
</g>
<g>
</g>
<g>
</g>
<g>
</g>
<g>
</g>
<g>
</g>
<g>
</g>
<g>
</g>
</svg>
