<?xml version="1.0" encoding="iso-8859-1"?>
<!-- Generator: Adobe Illustrator 19.0.0, SVG Export Plug-In . SVG Version: 6.00 Build 0)  -->
<svg version="1.1" id="Capa_1" xmlns="http://www.w3.org/2000/svg" xmlns:xlink="http://www.w3.org/1999/xlink" x="0px" y="0px"
	 viewBox="0 0 512.001 512.001" style="enable-background:new 0 0 512.001 512.001;" xml:space="preserve">
<g>
	<g>
		<path d="M446.818,223.507h-39.855v-28.888c0-4.199-3.404-7.603-7.603-7.603c-4.199,0-7.603,3.404-7.603,7.603v28.888h-36.493
			v-71.283c0-54.65-43.64-99.994-98.287-100.521c-55.182-0.531-100.244,44.203-100.244,99.265v72.539h-36.493v-71.043
			c0-74.914,60.052-136.822,134.965-137.255c75.22-0.435,136.552,60.635,136.552,135.76v8.17c0,4.199,3.404,7.603,7.603,7.603
			c4.199,0,7.603-3.404,7.603-7.603v-6.719c0-83.446-67.09-152.189-150.536-152.419c-83.438-0.229-151.391,67.583-151.391,150.968
			v72.539H65.183c-4.199,0-7.603,3.404-7.603,7.603v198.684c0,4.199,3.404,7.603,7.603,7.603c4.199,0,7.603-3.404,7.603-7.603
			V238.712h366.429v258.083H72.786v-31.522c0-4.199-3.404-7.603-7.603-7.603c-4.199,0-7.603,3.404-7.603,7.603v39.124
			c0,4.199,3.404,7.603,7.603,7.603h381.635c4.199,0,7.603-3.404,7.603-7.603V231.109
			C454.42,226.911,451.017,223.507,446.818,223.507z M340.059,223.508h-168.12v-72.539c0-46.354,37.711-84.065,84.065-84.065
			c46.348,0,84.055,37.711,84.055,84.065V223.508z"/>
	</g>
</g>
<g>
	<g>
		<path d="M304.656,342.102c0-26.828-21.827-48.655-48.655-48.655c-26.828,0-48.655,21.827-48.655,48.655
			c0,16.099,7.92,30.995,20.983,40.024l-5.969,45.656c-0.284,2.17,0.381,4.357,1.825,6.001c1.443,1.645,3.526,2.588,5.714,2.588
			h52.205c2.189,0,4.27-0.943,5.714-2.588c1.444-1.644,2.108-3.831,1.825-6.001l-5.969-45.656
			C296.735,373.098,304.656,358.202,304.656,342.102z M271.88,371.549c-2.77,1.499-4.331,4.549-3.922,7.674l5.483,41.943h-34.882
			l5.483-41.943c0.409-3.124-1.152-6.175-3.922-7.674c-10.837-5.859-17.57-17.143-17.57-29.447c0-18.444,15.006-33.45,33.45-33.45
			c18.444,0,33.45,15.006,33.45,33.45C289.451,354.406,282.718,365.69,271.88,371.549z"/>
	</g>
</g>
<g>
</g>
<g>
</g>
<g>
</g>
<g>
</g>
<g>
</g>
<g>
</g>
<g>
</g>
<g>
</g>
<g>
</g>
<g>
</g>
<g>
</g>
<g>
</g>
<g>
</g>
<g>
</g>
<g>
</g>
</svg>
