<?xml version="1.0" encoding="iso-8859-1"?>
<!-- Generator: Adobe Illustrator 19.0.0, SVG Export Plug-In . SVG Version: 6.00 Build 0)  -->
<svg version="1.1" id="Capa_1" xmlns="http://www.w3.org/2000/svg" xmlns:xlink="http://www.w3.org/1999/xlink" x="0px" y="0px"
	 viewBox="0 0 512 512" style="enable-background:new 0 0 512 512;" xml:space="preserve">
<g>
	<g>
		<path d="M402.328,53.924c-33.86,0-64.183,15.419-84.316,39.598c-10.569-21.794-26.427-40.53-46.461-54.682
			c-24.152-17.06-52.574-26.129-82.229-26.246c-79.353-0.31-144.276,65.884-144.276,145.239v66.937H7.604
			c-4.199,0-7.604,3.405-7.604,7.604v188.22c0,4.199,3.405,7.604,7.604,7.604s7.604-3.405,7.604-7.604V239.976h308.489
			c6.646,6.832,14.23,12.855,22.635,17.851v68.1l-14.739,23.582c-1.541,2.466-1.541,5.594,0,8.059l13.375,21.401l-13.374,21.398
			c-1.541,2.466-1.541,5.596,0,8.061l13.374,21.398l-13.374,21.396c-1.117,1.785-1.443,3.953-0.9,5.988s1.904,3.753,3.76,4.748
			l27.826,14.889v7.354H15.208v-29.154c0-4.199-3.405-7.604-7.604-7.604S0,450.846,0,455.046v36.758
			c0,4.199,3.405,7.604,7.604,7.604h362.281c4.199,0,7.604-3.405,7.604-7.604v-6.821l25.279,13.525
			c1.115,0.596,2.348,0.899,3.587,0.899c0.866,0,1.733-0.148,2.564-0.445l44.365-15.894c3.022-1.083,5.04-3.948,5.04-7.159V294.307
			c0-4.199-3.405-7.604-7.604-7.604c-4.199,0-7.604,3.405-7.604,7.604v176.249l-29.157,10.447V252.909
			c0-4.164-3.209-7.795-7.371-7.919c-4.306-0.129-7.837,3.323-7.837,7.601v226.521l-49.949-26.725l11.582-18.527
			c1.542-2.467,1.542-5.596,0.001-8.061l-13.375-21.398l13.375-21.398c1.541-2.467,1.541-5.596,0-8.06l-13.375-21.401l13.375-21.4
			c0.754-1.208,1.156-2.605,1.156-4.03v-74.72c0-2.819-1.579-5.376-4.057-6.716c-30.608-16.553-49.618-48.404-49.618-83.138
			c0-52.054,42.376-94.402,94.463-94.402c52.087,0,94.464,42.349,94.464,94.402c0,34.749-19.037,66.612-49.685,83.154
			c-2.46,1.327-3.993,3.896-3.993,6.692v6.473c0,4.199,3.405,7.604,7.604,7.604c4.199,0,7.604-3.405,7.604-7.604v-2.044
			C491.549,238.064,512,202.354,512,163.539C512,103.095,462.802,53.924,402.328,53.924z M268.151,224.768H109.329v-68.471
			c0-43.789,35.626-79.415,79.416-79.415c43.785,0,79.405,35.626,79.405,79.415V224.768z M311.355,224.768h-27.996v-68.471
			c0-52.176-42.444-94.623-94.613-94.623c-52.176,0-94.624,42.448-94.624,94.623v68.471H60.253v-68.475
			c0-70.851,57.641-128.492,128.491-128.492c26.703,0,52.303,8.113,74.032,23.461c20.278,14.323,35.782,33.888,45.042,56.727
			c-9.627,16.299-15.16,35.288-15.16,55.546C292.657,185.772,299.378,206.985,311.355,224.768z"/>
	</g>
</g>
<g>
	<g>
		<path d="M382.117,244.986c-4.201,0-7.604,3.404-7.604,7.604v170.072c0,4.2,3.404,7.604,7.604,7.604c4.2,0,7.604-3.404,7.604-7.604
			V252.59C389.721,248.39,386.317,244.986,382.117,244.986z"/>
	</g>
</g>
<g>
	<g>
		<path d="M402.328,89.12c-23.29,0-42.236,18.947-42.236,42.237s18.947,42.236,42.236,42.236s42.237-18.947,42.237-42.236
			C444.565,108.067,425.617,89.12,402.328,89.12z M402.328,158.384c-14.903,0-27.028-12.125-27.028-27.028
			c0-14.904,12.125-27.029,27.028-27.029c14.904,0,27.029,12.125,27.029,27.029C429.357,146.259,417.232,158.384,402.328,158.384z"
			/>
	</g>
</g>
<g>
</g>
<g>
</g>
<g>
</g>
<g>
</g>
<g>
</g>
<g>
</g>
<g>
</g>
<g>
</g>
<g>
</g>
<g>
</g>
<g>
</g>
<g>
</g>
<g>
</g>
<g>
</g>
<g>
</g>
</svg>
