<?xml version="1.0" encoding="iso-8859-1"?>
<!-- Generator: Adobe Illustrator 19.0.0, SVG Export Plug-In . SVG Version: 6.00 Build 0)  -->
<svg version="1.1" id="Capa_1" xmlns="http://www.w3.org/2000/svg" xmlns:xlink="http://www.w3.org/1999/xlink" x="0px" y="0px"
	 viewBox="0 0 512 512" style="enable-background:new 0 0 512 512;" xml:space="preserve">
<g>
	<g>
		<path d="M454.535,57.466c-76.623-76.621-201.293-76.621-277.915,0c-70.224,70.225-76.074,180.806-17.575,257.771l-11.624,11.625
			c-12.866-7.949-29.996-6.36-41.143,4.786l-96.501,96.5c-6.305,6.304-9.776,14.686-9.776,23.602c0,8.915,3.473,17.297,9.776,23.601
			l26.42,26.421c6.256,6.256,14.645,10.078,23.491,10.222c9.124,0.149,17.727-3.336,24.163-9.771l32.586-32.586
			c2.995-2.995,2.995-7.85,0-10.844l-0.001-0.001c-2.995-2.995-7.85-2.995-10.845,0l-32.296,32.296
			c-3.198,3.198-7.417,5.271-11.931,5.541c-5.231,0.313-10.202-1.582-13.871-5.251l-26.582-26.584
			c-3.198-3.198-5.271-7.42-5.54-11.935c-0.311-5.229,1.584-10.197,5.251-13.865l96.501-96.501
			c7.033-7.033,18.474-7.034,25.509-0.002c0.001,0.001,0.001,0.001,0.002,0.002l26.582,26.582c3.197,3.198,5.271,7.417,5.541,11.931
			c0.313,5.231-1.582,10.201-5.251,13.871l-37.733,37.733c-2.995,2.995-2.995,7.85,0,10.844l0.001,0.001
			c2.995,2.995,7.85,2.995,10.845,0l37.732-37.733c6.305-6.304,9.776-14.686,9.776-23.601c0-6.3-1.74-12.329-4.982-17.551
			l11.616-11.616c34.977,26.586,76.893,39.892,118.814,39.892c50.323,0,100.646-19.155,138.958-57.466
			C531.154,258.759,531.154,134.086,454.535,57.466z M174.93,353.097l-16.027-16.027l9.94-9.94c2.501,2.805,5.087,5.561,7.777,8.251
			s5.445,5.275,8.25,7.775L174.93,353.097z M443.688,324.534c-70.639,70.641-185.581,70.641-256.222,0
			c-70.64-70.641-70.64-185.581,0-256.222c35.325-35.326,81.71-52.981,128.112-52.981c46.389,0,92.795,17.664,128.111,52.981
			C514.329,138.953,514.329,253.893,443.688,324.534z"/>
	</g>
</g>
<g>
	<g>
		<path d="M470.5,168.545c-0.779-4.326-5.014-7.126-9.295-6.13c-3.973,0.923-6.531,4.797-5.806,8.809
			c8.293,45.921-6.152,92.426-39.374,125.647c-27.696,27.698-64.066,41.545-100.448,41.542
			c-36.393-0.004-72.8-13.867-100.495-41.588c-26.593-26.617-41.561-62.778-41.561-100.403c0-37.944,14.777-73.617,41.607-100.446
			c55.388-55.389,145.51-55.389,200.897,0c11.718,11.718,21.153,25.12,28.112,39.917c1.732,3.684,6.058,5.351,9.826,3.808
			c4.073-1.668,5.902-6.41,4.028-10.392c-7.71-16.381-18.153-31.213-31.119-44.179c-61.369-61.367-161.22-61.367-222.589,0
			c-29.727,29.727-46.099,69.253-46.099,111.294c0,42.042,16.372,81.567,46.099,111.295c30.684,30.683,70.989,46.025,111.294,46.025
			s80.611-15.342,111.295-46.025C463.672,270.917,479.676,219.407,470.5,168.545z"/>
	</g>
</g>
<g>
</g>
<g>
</g>
<g>
</g>
<g>
</g>
<g>
</g>
<g>
</g>
<g>
</g>
<g>
</g>
<g>
</g>
<g>
</g>
<g>
</g>
<g>
</g>
<g>
</g>
<g>
</g>
<g>
</g>
</svg>
