<?xml version="1.0" encoding="iso-8859-1"?>
<!-- Generator: Adobe Illustrator 19.0.0, SVG Export Plug-In . SVG Version: 6.00 Build 0)  -->
<svg version="1.1" id="Capa_1" xmlns="http://www.w3.org/2000/svg" xmlns:xlink="http://www.w3.org/1999/xlink" x="0px" y="0px"
	 viewBox="0 0 512 512" style="enable-background:new 0 0 512 512;" xml:space="preserve">
<g>
	<g>
		<path d="M512,95.104c0.031-20.199-7.82-39.194-22.098-53.472l-19.551-19.552c-29.417-29.416-77.283-29.417-106.701,0.001
			l-28.408,28.409c-8.009-4.664-18.464-3.592-25.32,3.261l-24.006,24.006c-6.854,6.855-7.926,17.31-3.262,25.319L57.148,328.581
			c-0.814,0.814-1.397,1.769-1.766,2.784l-0.007-0.002L1.494,479.404c-3.259,8.956-1.099,18.704,5.641,25.443
			c4.663,4.663,10.768,7.135,17.053,7.135c2.798,0,5.632-0.49,8.39-1.494l148.041-53.882l-0.003-0.007
			c1.037-0.377,1.992-0.97,2.785-1.765l15.201-15.201c2.977-2.976,2.977-7.802,0-10.778c-2.976-2.976-7.802-2.976-10.778,0
			l-9.813,9.812l-23.118-23.118l219.613-219.612l23.117,23.117L212.974,403.703c-2.976,2.976-2.976,7.801,0,10.778l0.001,0.001
			c2.976,2.976,7.802,2.976,10.779,0l185.153-185.153c3.243,1.888,6.879,2.857,10.524,2.857c5.357,0,10.716-2.039,14.795-6.119
			l24.006-24.006c6.853-6.854,7.925-17.31,3.262-25.319l27.708-27.708C503.527,134.708,511.968,115.364,512,95.104z M27.364,496.165
			c-3.377,1.23-6.91,0.445-9.452-2.096c-2.541-2.541-3.324-6.074-2.095-9.451l28.028-77.008l60.526,60.526L27.364,496.165z
			 M164.161,446.374l-43.985,16.009l-70.578-70.578l16.009-43.985l25.432,25.432c0.002,0.002,0.003,0.004,0.005,0.005l47.682,47.682
			L164.161,446.374z M144.116,404.771l-36.904-36.903L260.738,214.34c2.977-2.976,2.977-7.801,0-10.778l-0.001-0.001
			c-2.977-2.976-7.802-2.976-10.779,0L96.432,357.089l-23.118-23.118l219.612-219.613l23.118,23.118l-40.935,40.936
			c-2.976,2.976-2.976,7.801,0,10.778l0.001,0.001c2.976,2.976,7.802,2.976,10.779,0l40.935-40.936l36.904,36.904L144.116,404.771z
			 M447.452,191.282l-24.006,24.006c-2.215,2.214-5.818,2.215-8.032,0L296.694,96.567c-2.214-2.214-2.214-5.818,0-8.031
			l24.006-24.006c2.215-2.215,5.818-2.215,8.032,0l1.619,1.619c0.002,0.001,0.003,0.003,0.005,0.005L445.83,181.629
			c0.003,0.003,0.007,0.006,0.01,0.009l1.612,1.612C449.666,185.464,449.666,189.067,447.452,191.282z M451.219,165.459
			L346.523,60.764l27.904-27.904c23.474-23.475,61.67-23.475,85.146,0l19.551,19.551c11.371,11.37,17.634,26.49,17.634,42.573
			c0,16.082-6.263,31.201-17.634,42.572L451.219,165.459z"/>
	</g>
</g>
<g>
</g>
<g>
</g>
<g>
</g>
<g>
</g>
<g>
</g>
<g>
</g>
<g>
</g>
<g>
</g>
<g>
</g>
<g>
</g>
<g>
</g>
<g>
</g>
<g>
</g>
<g>
</g>
<g>
</g>
</svg>
