<?xml version="1.0" encoding="iso-8859-1"?>
<!-- Generator: Adobe Illustrator 19.0.0, SVG Export Plug-In . SVG Version: 6.00 Build 0)  -->
<svg version="1.1" id="Capa_1" xmlns="http://www.w3.org/2000/svg" xmlns:xlink="http://www.w3.org/1999/xlink" x="0px" y="0px"
	 viewBox="0 0 512 512" style="enable-background:new 0 0 512 512;" xml:space="preserve">
<g>
	<g>
		<path d="M311.111,496.789H15.209V80.027c0-4.2-3.405-7.604-7.604-7.604s-7.604,3.405-7.604,7.604v424.366
			c0,4.199,3.405,7.604,7.604,7.604h303.507c4.199,0,7.604-3.405,7.604-7.604S315.311,496.789,311.111,496.789z"/>
	</g>
</g>
<g>
	<g>
		<path d="M511.999,186.67c0-12.506-4.87-24.264-13.713-33.107l-11.304-11.302c-8.864-8.865-20.658-13.738-33.2-13.714
			c-12.627,0.024-24.665,5.366-33.594,14.294l-9.724,9.723V98.841c0-2.018-0.802-3.953-2.229-5.38L316.917,2.224
			C315.49,0.8,313.558,0,311.542,0H7.607C3.408,0,0.003,3.405,0.003,7.604V44.54c0,4.199,3.405,7.604,7.604,7.604
			s7.604-3.405,7.604-7.604V15.208h288.727v83.631c0,4.199,3.405,7.604,7.604,7.604h83.715v50.601
			c-2.025,0.739-3.928,1.904-5.55,3.526l-13.879,13.879c-4.381,4.381-5.531,10.775-3.475,16.228l-71.832,71.832H82.812
			c-4.199,0-7.604,3.405-7.604,7.604c0,4.199,3.405,7.604,7.604,7.604h202.502l-41.749,41.749c-0.812,0.813-1.394,1.765-1.762,2.779
			l-0.006-0.002l-31.153,85.591c-2.314,6.358-0.78,13.281,4.006,18.065c3.311,3.311,7.645,5.065,12.108,5.065
			c1.986,0,3.999-0.348,5.956-1.06l85.591-31.153l-0.003-0.008c1.034-0.376,1.986-0.967,2.779-1.76l74.177-74.176v173.986h-48.655
			c-4.199,0-7.604,3.405-7.604,7.604s3.405,7.604,7.604,7.604h56.259c4.199,0,7.604-3.405,7.604-7.604V307.598l39.405-39.405
			c1.741,0.656,3.575,0.997,5.412,0.997c3.917,0,7.833-1.49,10.815-4.472l13.878-13.878c2.889-2.888,4.48-6.73,4.48-10.815
			c0-1.883-0.353-3.708-1-5.417l14.831-14.831C507.129,210.934,511.999,199.176,511.999,186.67z M319.146,91.236V25.951
			l65.343,65.286H319.146z M227.512,415.612c-0.995,0.359-1.696-0.055-2.11-0.467c-0.414-0.414-0.83-1.115-0.467-2.11l14.488-39.807
			l27.895,27.895L227.512,415.612z M283.088,395.385l-37.926-37.924l6.843-18.8l49.882,49.882L283.088,395.385z M322.231,374.323
			l-6.528,6.529l-56.009-56.009l122.448-122.448l56.009,56.01L322.231,374.323z M455.344,253.964c-0.034,0.033-0.088,0.033-0.123,0
			l-68.639-68.639c-0.033-0.032-0.033-0.088,0-0.121l13.879-13.879c0.034-0.034,0.088-0.034,0.122,0
			c0-0.001,68.668,68.731,68.639,68.761L455.344,253.964z M487.533,209.022l-13.873,13.874l-56.009-56.009l13.872-13.872
			c5.971-5.972,13.909-9.26,22.353-9.26c8.443,0,16.382,3.288,22.353,9.26l11.304,11.302c5.971,5.972,9.259,13.91,9.259,22.354
			C496.79,195.114,493.503,203.051,487.533,209.022z"/>
	</g>
</g>
<g>
	<g>
		<path d="M327.652,133.252H82.817c-4.199,0-7.604,3.405-7.604,7.604s3.405,7.604,7.604,7.604h244.834
			c4.199,0,7.604-3.405,7.604-7.604S331.851,133.252,327.652,133.252z"/>
	</g>
</g>
<g>
	<g>
		<path d="M327.652,197.882H82.817c-4.199,0-7.604,3.405-7.604,7.604s3.405,7.604,7.604,7.604h244.834
			c4.199,0,7.604-3.405,7.604-7.604S331.851,197.882,327.652,197.882z"/>
	</g>
</g>
<g>
</g>
<g>
</g>
<g>
</g>
<g>
</g>
<g>
</g>
<g>
</g>
<g>
</g>
<g>
</g>
<g>
</g>
<g>
</g>
<g>
</g>
<g>
</g>
<g>
</g>
<g>
</g>
<g>
</g>
</svg>
