<?xml version="1.0" encoding="iso-8859-1"?>
<!-- Generator: Adobe Illustrator 19.0.0, SVG Export Plug-In . SVG Version: 6.00 Build 0)  -->
<svg version="1.1" id="Capa_1" xmlns="http://www.w3.org/2000/svg" xmlns:xlink="http://www.w3.org/1999/xlink" x="0px" y="0px"
	 viewBox="0 0 512.001 512.001" style="enable-background:new 0 0 512.001 512.001;" xml:space="preserve">
<g>
	<g>
		<path d="M509.774,99.026L412.975,2.227c-2.971-2.969-7.784-2.969-10.754,0L301.635,102.813c-2.97,2.97-2.97,7.784,0,10.754
			c2.97,2.97,7.784,2.97,10.754,0l22.421-22.42l86.045,86.045L228.001,370.045l-10.916-10.916c-2.97-2.97-7.784-2.97-10.754,0
			s-2.97,7.784,0,10.754l10.916,10.916l-13.376,13.376l-86.045-86.045l13.376-13.376l50.034,50.035c2.97,2.97,7.784,2.97,10.754,0
			c2.97-2.97,2.97-7.784,0-10.754L141.956,284l145.34-145.339c2.97-2.97,2.97-7.784,0-10.754c-2.97-2.97-7.784-2.97-10.754,0
			L53.035,351.412c-2.97,2.971-2.97,7.784,0,10.754l6.095,6.095L1.258,455.948c-1.989,3.014-1.585,7.011,0.969,9.566l44.26,44.26
			c1.469,1.469,3.417,2.227,5.381,2.227c1.449,0,2.906-0.413,4.185-1.257l87.685-57.873l6.095,6.095
			c1.485,1.484,3.432,2.226,5.378,2.226s3.892-0.742,5.378-2.226L509.774,109.78c1.426-1.427,2.226-3.36,2.226-5.378
			C512.001,102.385,511.2,100.452,509.774,99.026z M52.855,494.632l-35.485-35.485l52.738-79.907l62.654,62.654L52.855,494.632z
			 M155.211,442.834l-5.097-5.097c-0.003-0.003-0.005-0.006-0.008-0.009l-75.834-75.833l-5.106-5.106l13.772-13.772l86.045,86.045
			L155.211,442.834z M179.738,418.307l-86.045-86.045l13.376-13.376l86.045,86.045L179.738,418.307z M431.609,166.437
			l-86.045-86.045l13.376-13.376l86.045,86.045L431.609,166.437z M455.739,142.307l-86.045-86.045l13.376-13.376l86.045,86.045
			L455.739,142.307z M479.87,118.176l-86.045-86.045l13.773-13.773l86.045,86.045L479.87,118.176z"/>
	</g>
</g>
<g>
</g>
<g>
</g>
<g>
</g>
<g>
</g>
<g>
</g>
<g>
</g>
<g>
</g>
<g>
</g>
<g>
</g>
<g>
</g>
<g>
</g>
<g>
</g>
<g>
</g>
<g>
</g>
<g>
</g>
</svg>
