<?xml version="1.0" encoding="iso-8859-1"?>
<!-- Generator: Adobe Illustrator 19.0.0, SVG Export Plug-In . SVG Version: 6.00 Build 0)  -->
<svg version="1.1" id="Capa_1" xmlns="http://www.w3.org/2000/svg" xmlns:xlink="http://www.w3.org/1999/xlink" x="0px" y="0px"
	 viewBox="0 0 512.001 512.001" style="enable-background:new 0 0 512.001 512.001;" xml:space="preserve">
<g>
	<g>
		<path d="M511.711,409.631l-13.99-49.312c-0.718-2.53-2.696-4.508-5.226-5.226l-36.891-10.466l15.543-15.542
			c2.962-2.962,2.962-7.763,0.001-10.724c-2.962-2.962-7.764-2.963-10.726-0.001l-10.16,10.159l-78.034-78.034l42.303-42.305
			l78.036,78.036l-7.123,7.122c-2.962,2.962-2.962,7.764,0,10.726l0.001,0.001c2.962,2.962,7.764,2.962,10.724,0l12.485-12.485
			c2.962-2.963,2.962-7.764,0-10.726l-88.761-88.761c-2.102-2.1-5.307-2.841-8.252-1.656c-0.98,0.394-1.846,1.03-2.594,1.777
			l-39.106,39.108c-0.984-1.345-2.391-2.357-4.044-2.825l-45.232-12.827l-12.827-45.233c-0.718-2.531-2.697-4.51-5.228-5.228
			l-36.878-10.458l0.015-0.015c0.017-0.017,0.031-0.035,0.047-0.053l52.983-52.982c1.422-1.423,2.221-3.351,2.221-5.363
			c0-2.012-0.799-3.94-2.221-5.363L230.024,2.221c-2.963-2.961-7.764-2.961-10.726,0l-53.004,53.004
			c-0.009,0.009-0.02,0.017-0.029,0.026l-29.102,29.105L2.223,219.295c-1.422,1.423-2.221,3.351-2.221,5.363
			c0,2.012,0.799,3.94,2.221,5.363l88.756,88.756c1.481,1.48,3.423,2.221,5.363,2.221s3.882-0.74,5.363-2.221l53.045-53.045
			l10.459,36.882c0.718,2.531,2.697,4.51,5.228,5.228l45.233,12.827l12.827,45.232c0.469,1.653,1.482,3.062,2.829,4.047
			l-39.224,39.226c-2.962,2.962-2.962,7.763,0,10.724l88.751,88.751c1.481,1.48,3.422,2.221,5.363,2.221
			c1.94,0,3.882-0.74,5.362-2.221l52.986-52.983c0.016-0.015,0.033-0.028,0.05-0.044l0.016-0.016l10.466,36.892
			c0.718,2.53,2.696,4.508,5.226,5.226l49.312,13.99c0.682,0.194,1.378,0.288,2.069,0.288c1.984,0,3.921-0.78,5.364-2.221
			l92.716-92.716C511.722,415.119,512.461,412.275,511.711,409.631z M470.664,364.666l-78.749,43.65l34.158-34.158l17.251-17.25
			L470.664,364.666z M280.784,174.786l-78.736,43.648l8.194-8.194l43.209-43.206L280.784,174.786z M224.661,18.308l78.031,78.03
			l-42.307,42.307l-78.03-78.031L224.661,18.308z M149.372,249.655l-30.308-30.309c-2.962-2.962-7.764-2.962-10.724,0l-0.001,0.001
			c-2.962,2.962-2.962,7.764,0,10.725l30.311,30.311l-42.307,42.307L18.31,224.658l42.307-42.307l22.698,22.699
			c2.962,2.962,7.764,2.962,10.726,0l0.001-0.001c2.962-2.962,2.962-7.764,0-10.725L71.346,171.63l64.486-64.493l35.798-35.798
			l78.03,78.031l-60.172,60.172L149.372,249.655z M167.459,254.951l128.397-71.179l9.732,34.317L177.19,289.272L167.459,254.951z
			 M220.863,306.374l-28.607-8.111l123.205-68.304l28.612,8.114L220.863,306.374z M230.746,318.239l117.311-65.032l-77.024,77.028
			l-25.904,25.904c-0.004,0.004-0.008,0.009-0.012,0.013l-1.902,1.902l-1.281-0.364L230.746,318.239z M286.213,492.56
			l-78.025-78.025l42.305-42.306l78.027,78.028L286.213,492.56z M339.246,439.531l-78.028-78.028l3.246-3.246l97.041-97.042
			l78.03,78.03l-39.049,39.049L339.246,439.531z M409.485,495.905l-27.35-7.76l78.776-43.665L409.485,495.905z M367.072,479.154
			l-9.739-34.328l128.404-71.174l9.739,34.327L367.072,479.154z"/>
	</g>
</g>
<g>
</g>
<g>
</g>
<g>
</g>
<g>
</g>
<g>
</g>
<g>
</g>
<g>
</g>
<g>
</g>
<g>
</g>
<g>
</g>
<g>
</g>
<g>
</g>
<g>
</g>
<g>
</g>
<g>
</g>
</svg>
