<?xml version="1.0" encoding="iso-8859-1"?>
<!-- Generator: Adobe Illustrator 19.0.0, SVG Export Plug-In . SVG Version: 6.00 Build 0)  -->
<svg version="1.1" id="Capa_1" xmlns="http://www.w3.org/2000/svg" xmlns:xlink="http://www.w3.org/1999/xlink" x="0px" y="0px"
	 viewBox="0 0 512 512" style="enable-background:new 0 0 512 512;" xml:space="preserve">
<g>
	<g>
		<path d="M468.819,34.483H43.18C19.332,34.483,0,53.815,0,77.663v287.736c0,23.848,19.332,43.18,43.18,43.18h28.806
			c4.199,0,7.604-3.405,7.604-7.604s-3.405-7.604-7.604-7.604H43.18c-15.449,0-27.972-12.524-27.972-27.972v-17.745h481.584v17.744
			c0,15.449-12.524,27.973-27.973,27.973H300.861h-89.723H107.472c-4.199,0-7.604,3.405-7.604,7.604s3.405,7.604,7.604,7.604h96.062
			v14.191h-14.037c-16.876,0-30.556,13.68-30.556,30.556v16.587c0,4.199,3.405,7.604,7.604,7.604h178.906
			c4.199,0,7.604-3.405,7.604-7.604v-16.587c0-16.876-13.68-30.556-30.556-30.556h-14.036V408.58h160.354
			c23.848,0,43.181-19.333,43.181-43.181V77.664C512,53.816,492.668,34.483,468.819,34.483z M218.743,408.581h74.515v14.191h-74.515
			V408.581z M322.503,437.979c8.461,0,15.346,6.885,15.346,15.348v8.983H174.151v-8.983c0-8.463,6.885-15.348,15.348-15.348h21.641
			h89.723H322.503z M496.792,332.447H15.208V77.663c0-15.425,12.549-27.973,27.972-27.973h425.638
			c15.425,0,27.973,12.549,27.973,27.973V332.447z"/>
	</g>
</g>
<g>
	<g>
		<path d="M471.181,66.419H40.818c-4.199,0-7.604,3.405-7.604,7.604v236.08c0,4.199,3.405,7.604,7.604,7.604h340.397
			c4.199,0,7.604-3.405,7.604-7.604s-3.405-7.604-7.604-7.604H48.422V81.626h415.155v220.872h-46.875
			c-4.199,0-7.604,3.405-7.604,7.604s3.405,7.604,7.604,7.604h54.479c4.199,0,7.604-3.405,7.604-7.604V74.022
			C478.785,69.823,475.38,66.419,471.181,66.419z"/>
	</g>
</g>
<g>
	<g>
		<path d="M251.176,363.166c-3.003,2.441-3.614,6.89-1.499,10.101c1.633,2.481,4.709,3.766,7.623,3.265
			c3.274-0.563,5.827-3.277,6.245-6.561C264.396,363.3,256.376,358.935,251.176,363.166z"/>
	</g>
</g>
<g>
</g>
<g>
</g>
<g>
</g>
<g>
</g>
<g>
</g>
<g>
</g>
<g>
</g>
<g>
</g>
<g>
</g>
<g>
</g>
<g>
</g>
<g>
</g>
<g>
</g>
<g>
</g>
<g>
</g>
</svg>
