<?xml version="1.0" encoding="iso-8859-1"?>
<!-- Generator: Adobe Illustrator 19.0.0, SVG Export Plug-In . SVG Version: 6.00 Build 0)  -->
<svg version="1.1" id="Capa_1" xmlns="http://www.w3.org/2000/svg" xmlns:xlink="http://www.w3.org/1999/xlink" x="0px" y="0px"
	 viewBox="0 0 511.999 511.999" style="enable-background:new 0 0 511.999 511.999;" xml:space="preserve">
<g>
	<g>
		<path d="M497.056,14.907c-19.076-19.074-53.976-19.791-98.8-2.208c-4.29,1.682-6.337,6.593-4.522,10.828v0.001
			c1.737,4.055,6.385,5.999,10.492,4.387c37.876-14.864,67.262-15.462,81.273-1.45c19.58,19.58,10.626,67.19-23.152,125.488
			L360.021,49.63c3.589-2.078,7.153-4.078,10.674-5.98c3.891-2.104,5.367-6.95,3.353-10.888l-0.001-0.002
			c-2.094-4.098-7.147-5.64-11.197-3.452c-4.87,2.631-9.814,5.437-14.794,8.384c-4.369-4.226-10.214-6.397-16.363-5.985
			c-5.313,0.355-10.269,2.814-14.034,6.578l-5.973,5.973c-3.005,3.005-5.228,6.758-6.128,10.912
			c-0.794,3.665-0.605,7.272,0.369,10.615c-31.082,23.729-62.031,50.95-92.081,80.998C153.53,207.099,98.258,277.437,62.201,339.764
			c-17.812,30.791-35.507,67.622-39.119,97.304c-4.321,1.939-8.224,4.624-11.623,8.021c-15.279,15.279-15.279,40.138,0,55.417
			c7.639,7.639,17.674,11.458,27.708,11.458c10.034,0,20.069-3.819,27.709-11.459c3.412-3.413,6.107-7.338,8.047-11.688
			c35.591-4.359,81.302-28.852,113.62-48.811c3.87-2.39,5.029-7.483,2.594-11.323l-0.002-0.002
			c-2.398-3.781-7.397-4.919-11.206-2.564c-32.48,20.073-61.859,34.428-85.325,41.662c-24.103,7.428-41.738,7.16-49.653-0.753
			c-8.886-8.888-6.568-27.44-3.058-41.436c5.236-20.878,17.151-47.724,34.457-77.639c35.374-61.147,89.703-130.257,149.055-189.609
			c29.419-29.419,59.693-56.063,90.073-79.287l117.44,117.44c-23.224,30.374-49.868,60.647-79.286,90.074
			c-43.757,43.757-94.042,85.784-142.343,119.023c-3.688,2.537-4.63,7.571-2.129,11.283c2.543,3.775,7.674,4.743,11.422,2.163
			c49.094-33.788,100.178-76.481,144.609-120.911c24.517-24.526,47.145-49.647,67.539-74.942c2.826,5.943,2.61,11.769-0.669,17.4
			c-8.951,15.36-23.666,26.09-37.898,36.468c-25.026,18.249-50.903,37.118-39.906,78.837c2.963,11.257,10.132,20.684,20.187,26.545
			c6.75,3.935,14.254,5.947,21.864,5.947c3.727,0,7.479-0.483,11.178-1.459c11.26-2.967,20.689-10.139,26.551-20.193
			c5.863-10.057,7.454-21.795,4.483-33.044c-1.703-6.477-4.879-12.437-9.217-17.44c0.21-0.16,0.422-0.323,0.633-0.484
			c27.401-20.955,58.458-44.705,68.152-81.466c9.062-34.347-8.033-58.321-22.917-71.88c17.768-30.271,29.628-58.751,34.404-82.746
			C515.249,51.167,510.92,28.772,497.056,14.907z M55.366,488.893c-0.017,0.017-0.032,0.037-0.049,0.055
			c-8.905,8.906-23.395,8.905-32.301,0.001c-8.905-8.906-8.905-23.397,0-32.302c0.01-0.01,0.022-0.019,0.032-0.028
			c1.277,8.666,4.541,16.161,10.344,21.964C39.192,484.382,46.69,487.632,55.366,488.893z M322.902,63.361
			c-0.962-0.961-1.493-2.24-1.493-3.601c0-1.36,0.53-2.639,1.493-3.603l6.662-6.662c0.962-0.963,2.242-1.493,3.603-1.493
			s2.639,0.53,3.603,1.493l125.705,125.703c1.987,1.987,1.987,5.22,0.001,7.205l-6.665,6.664c-0.962,0.962-2.242,1.492-3.601,1.492
			c-1.361,0-2.64-0.53-3.603-1.493L322.902,63.361z M477.14,189.984c9.043,15.576,7.632,30.711,5.144,40.142
			c-8.266,31.346-36.96,53.29-62.276,72.65c-1.357,1.037-2.701,2.066-4.033,3.088c-5.636-2.842-11.817-4.433-18.166-4.639
			c-4.534-0.175-8.286,3.393-8.433,7.905c-0.146,4.511,3.393,8.286,7.904,8.432c5.216,0.168,10.255,1.837,14.581,4.821
			c0.021,0.015,0.039,0.033,0.06,0.047c5.319,3.697,9.151,9.17,10.795,15.418c1.857,7.032,0.863,14.366-2.798,20.648
			c-3.662,6.283-9.556,10.765-16.596,12.62c-7.03,1.854-14.361,0.858-20.641-2.803c-6.282-3.662-10.761-9.553-12.613-16.59
			c-8.153-30.925,9.415-43.735,33.73-61.465c14.865-10.839,31.714-23.127,42.39-41.447c7.34-12.606,6.308-26.639-2.652-39.318
			c0.889-1.152,1.779-2.302,2.659-3.453c1.931,0.562,3.95,0.862,6.016,0.862c5.726,0,11.111-2.231,15.16-6.28l6.665-6.664
			C475.255,192.739,476.275,191.396,477.14,189.984z"/>
	</g>
</g>
<g>
</g>
<g>
</g>
<g>
</g>
<g>
</g>
<g>
</g>
<g>
</g>
<g>
</g>
<g>
</g>
<g>
</g>
<g>
</g>
<g>
</g>
<g>
</g>
<g>
</g>
<g>
</g>
<g>
</g>
</svg>
