<?xml version="1.0" encoding="iso-8859-1"?>
<!-- Generator: Adobe Illustrator 19.0.0, SVG Export Plug-In . SVG Version: 6.00 Build 0)  -->
<svg version="1.1" id="Capa_1" xmlns="http://www.w3.org/2000/svg" xmlns:xlink="http://www.w3.org/1999/xlink" x="0px" y="0px"
	 viewBox="0 0 512 512" style="enable-background:new 0 0 512 512;" xml:space="preserve">
<g>
	<g>
		<path d="M464.217,293.901c3.264,3.265,7.578,5.006,12.014,5.006c1.822,0,3.665-0.294,5.464-0.897
			c6.178-2.071,10.574-7.368,11.471-13.822l15.067-108.452c1.444-10.433-2.14-21.107-9.588-28.554l-26.278-26.278l0.747-0.747
			c6.428-6.428,9.904-15.028,9.75-24.159c-0.15-8.867-3.984-17.274-10.254-23.545l-13.63-13.63
			c-13.045-13.044-34.245-13.071-47.258-0.059l-0.747,0.747l-6.295-6.295c-2.97-2.97-7.785-2.97-10.754,0l-0.001,0.001
			c-2.97,2.97-2.969,7.784,0,10.754l93.966,93.967c4.098,4.098,6.071,9.973,5.277,15.71l-15.067,108.447
			c-0.13,0.936-0.748,1.33-1.244,1.497c-0.494,0.165-1.223,0.222-1.888-0.443L281.157,89.331c-3.024-3.025-4.957-7.053-5.067-11.329
			c-0.115-4.47,1.572-8.688,4.718-11.835l46.24-46.252c6.295-6.288,16.538-6.286,22.829-0.004l18.958,18.966
			c2.969,2.97,7.783,2.971,10.754,0.002c2.97-2.969,2.972-7.784,0.002-10.754L360.63,9.156
			c-12.222-12.21-32.108-12.208-44.333,0.003l-46.243,46.254c-5.918,5.918-9.178,13.789-9.178,22.162
			c0,8.373,3.259,16.244,9.178,22.162l50.318,50.318l-57.348,57.348l-57.348-57.348l42.081-42.081
			c12.242-12.242,12.242-32.09,0-44.332l-46.245-46.243c-12.223-12.222-32.109-12.223-44.33,0l-42.082,42.082l-0.717-0.717
			c-13.013-13.01-34.212-12.987-47.258,0.059L53.495,72.452c-6.27,6.27-10.104,14.678-10.254,23.545
			c-0.154,9.131,3.322,17.731,9.75,24.159l0.717,0.717l-41.09,41.089c-12.222,12.223-12.221,32.11,0,44.331l46.246,46.246
			c6.111,6.11,14.138,9.166,22.165,9.166c8.027,0,16.054-3.056,22.165-9.166l41.09-41.089l57.346,57.346L29.624,440.8
			c-6.302,6.302-9.756,14.707-9.725,23.666c0.03,8.938,3.528,17.339,9.845,23.65l14.016,14.025
			c6.344,6.339,14.757,9.84,23.689,9.859c0.024,0,0.048,0,0.072,0c8.908,0,17.271-3.461,23.552-9.749l86.636-86.636
			c2.97-2.97,2.97-7.784,0-10.754l-0.001-0.001c-2.97-2.97-7.784-2.97-10.754,0L80.316,491.5c-3.41,3.414-7.952,5.293-12.796,5.293
			c-0.013,0-0.026,0-0.039,0c-4.884-0.011-9.491-1.932-12.968-5.405l-14.016-14.025c-3.459-3.455-5.373-8.054-5.39-12.948
			c-0.017-4.877,1.855-9.443,5.27-12.858L212.384,279.55l39.946,39.946l-60.293,60.284c-2.97,2.97-2.97,7.784-0.001,10.754
			c2.97,2.97,7.784,2.97,10.754,0.001l60.294-60.285l172.002,172.002c6.496,6.495,15.032,9.742,23.576,9.742
			c8.571,0,17.149-3.268,23.683-9.8l13.631-13.631c6.269-6.269,10.103-14.676,10.253-23.541c0.155-9.132-3.321-17.733-9.75-24.163
			L324.475,268.856l57.348-57.349L464.217,293.901z M462.363,109.403l-0.748,0.748L421.73,70.267l0.747-0.748
			c7.082-7.084,18.635-7.059,25.75,0.059l14.076,14.076c3.45,3.449,5.352,8.033,5.359,12.905
			C467.668,101.419,465.786,105.98,462.363,109.403z M63.803,83.653l14.075-14.075c7.116-7.118,18.667-7.141,25.749-0.06
			l0.717,0.717L64.46,110.119l-0.716-0.717c-3.423-3.423-5.305-7.984-5.3-12.844C58.45,91.686,60.353,87.103,63.803,83.653z
			 M92.44,241.784c-3.048,3.049-7.1,4.727-11.411,4.727c-4.311,0-8.364-1.678-11.412-4.727l-46.246-46.245
			c-6.292-6.291-6.292-16.53,0-22.822L167.937,28.153c3.048-3.049,7.1-4.727,11.411-4.727s8.363,1.678,11.411,4.727l46.247,46.246
			c3.048,3.048,4.727,7.1,4.727,11.411c0,4.311-1.679,8.364-4.727,11.412L92.44,241.784z M485.725,451.614
			c3.422,3.423,5.305,7.985,5.3,12.844c-0.005,4.873-1.908,9.455-5.359,12.906l-14.075,14.076
			c-7.116,7.115-18.667,7.141-25.75,0.058L155.038,200.695l39.884-39.884L485.725,451.614z M313.72,258.102l-39.942-39.942
			l57.348-57.349l39.942,39.942L313.72,258.102z"/>
	</g>
</g>
<g>
</g>
<g>
</g>
<g>
</g>
<g>
</g>
<g>
</g>
<g>
</g>
<g>
</g>
<g>
</g>
<g>
</g>
<g>
</g>
<g>
</g>
<g>
</g>
<g>
</g>
<g>
</g>
<g>
</g>
</svg>
