<?xml version="1.0" encoding="iso-8859-1"?>
<!-- Generator: Adobe Illustrator 19.0.0, SVG Export Plug-In . SVG Version: 6.00 Build 0)  -->
<svg version="1.1" id="Capa_1" xmlns="http://www.w3.org/2000/svg" xmlns:xlink="http://www.w3.org/1999/xlink" x="0px" y="0px"
	 viewBox="0 0 511.999 511.999" style="enable-background:new 0 0 511.999 511.999;" xml:space="preserve">
<g>
	<g>
		<path d="M144.148,53.617c-10.381-10.382-24.182-16.097-38.861-16.097s-28.481,5.716-38.86,16.097v-0.001
			C56.046,63.997,50.329,77.797,50.329,92.478s5.717,28.481,16.097,38.861c10.715,10.715,24.786,16.072,38.86,16.071
			c14.072-0.001,28.148-5.359,38.861-16.071C165.576,109.911,165.576,75.045,144.148,53.617z M133.33,120.52
			c-15.463,15.465-40.623,15.465-56.086,0c-7.491-7.49-11.616-17.448-11.616-28.042c0-10.594,4.125-20.552,11.616-28.042
			c0,0,0,0,0-0.001c7.491-7.491,17.45-11.616,28.043-11.616c10.594,0,20.552,4.125,28.043,11.617
			C148.792,79.898,148.792,105.057,133.33,120.52z"/>
	</g>
</g>
<g>
	<g>
		<path d="M341.288,157.972c17.471,17.471,40.709,27.092,65.434,27.092c24.725,0,47.961-9.623,65.426-27.092
			c36.078-36.079,36.078-94.783,0.001-130.861c-31.11-31.12-79.515-35.79-115.746-12.24c-3.778,2.456-4.648,7.62-1.861,11.161
			c2.468,3.138,6.906,3.803,10.255,1.631c30.227-19.607,70.586-15.69,96.535,10.267c30.113,30.113,30.113,79.111-0.001,109.225
			c-14.576,14.581-33.97,22.611-54.608,22.611c-20.638,0-40.034-8.031-54.616-22.611c-7.104-7.105-12.678-15.411-16.571-24.691
			c-1.117-2.663-3.639-4.47-6.52-4.671c-2.889-0.209-5.631,1.237-7.108,3.719l-26.897,45.198
			c-6.344-6.853-14.348-11.891-23.174-14.638c3.582-5.172,7.405-10.698,11.375-16.438c8.442-12.205,17.533-25.348,26.29-37.944
			l8.039-11.576c10.933-15.682,18.926-27.025,24.602-34.911c2.448-3.401,1.697-8.131-1.677-10.616l-0.003-0.002
			c-3.427-2.524-8.251-1.773-10.738,1.683c-5.733,7.967-13.771,19.375-24.742,35.109l-8.045,11.583
			c-8.762,12.604-17.859,25.757-26.308,37.972c-5.196,7.512-10.14,14.658-14.623,21.125c-4.683-6.754-9.877-14.262-15.336-22.155
			c-8.247-11.923-17.08-24.693-25.595-36.946l-8.055-11.589c-28.21-40.477-34.118-48.075-36.299-50.258
			C153.25,9.639,130.013,0.018,105.29,0.018s-47.96,9.62-65.429,27.09c-36.09,36.09-36.09,94.773,0,130.864
			c17.469,17.469,40.706,27.09,65.429,27.09c24.723,0,47.961-9.621,65.431-27.092c5.101-5.101,9.543-10.716,13.288-16.787
			l23.089,38.805l-73.754,105.68C88.73,349.612,68.461,427.546,76.267,505.114l7.562-0.761h0.056l6.085,4.621l87.686-115.442
			c2.555-3.364,1.899-8.161-1.465-10.716l-0.003-0.002c-3.364-2.555-8.16-1.899-10.715,1.465L90.13,483.471
			c-2.379-67.183,17.095-133.629,55.759-189.048l57.844-82.882c1.394,8.266,4.759,16.27,10.093,23.294l32.577,42.89l-59.348,78.138
			c-2.555,3.364-1.899,8.161,1.465,10.715l0.003,0.002c3.364,2.555,8.16,1.899,10.715-1.465l56.771-74.745l166.04,218.606
			c1.47,1.935,3.74,3.023,6.092,3.023c1.161,0,2.341-0.265,3.458-0.823c2.376-1.187,3.906-3.604,4.171-6.247
			c7.755-77.51-12.521-155.368-57.103-219.251l-73.755-105.688l23.093-38.805C331.748,147.258,336.189,152.872,341.288,157.972z
			 M190.108,121.512c-1.477-2.48-4.218-3.919-7.108-3.719c-2.881,0.201-5.403,2.008-6.521,4.671
			c-3.89,9.272-9.468,17.578-16.576,24.688c-14.581,14.581-33.975,22.61-54.613,22.61c-20.638,0-40.032-8.03-54.613-22.61
			c-30.114-30.113-30.114-79.112,0-109.225c14.58-14.581,33.975-22.61,54.613-22.61c20.638,0,40.032,8.03,54.606,22.602
			c1.584,1.628,8.867,11.31,34.569,48.187l8.05,11.581c8.508,12.243,17.334,25.004,25.575,36.917
			c4.234,6.121,8.312,12.016,12.114,17.507c-8.822,2.769-16.815,7.828-23.144,14.7L190.108,121.512z M366.122,294.432
			c38.671,55.414,58.154,121.862,55.773,189.05L226.008,225.581c-9.923-13.065-10.305-30.897-0.951-44.374
			c5.885-8.478,14.578-13.978,24.462-15.669c0.06,0.086,0.123,0.177,0.184,0.263l0.531-0.371c1.896-0.288,3.83-0.452,5.798-0.455
			c0.017,0,0.034,0,0.051,0c1.935,0,3.836,0.157,5.702,0.433l0.54,0.373l0.185-0.265c9.903,1.658,18.626,7.137,24.541,15.611
			L366.122,294.432z"/>
	</g>
</g>
<g>
	<g>
		<path d="M445.586,53.616c-10.381-10.381-24.181-16.096-38.861-16.096s-28.481,5.716-38.861,16.096
			c-21.428,21.428-21.428,56.293,0,77.722c10.714,10.713,24.788,16.071,38.861,16.071c14.074,0,28.147-5.358,38.861-16.071
			C467.014,109.91,467.014,75.044,445.586,53.616z M434.768,120.52c-15.463,15.465-40.624,15.465-56.086,0
			c-15.463-15.463-15.463-40.622,0-56.084c7.491-7.492,17.45-11.617,28.043-11.617c10.594,0,20.552,4.124,28.043,11.617
			C450.231,79.898,450.231,105.057,434.768,120.52z"/>
	</g>
</g>
<g>
	<g>
		<path d="M255.819,177.568c-14.014,0-25.415,11.401-25.415,25.416c0,14.013,11.401,25.415,25.415,25.415
			c14.014,0,25.416-11.401,25.416-25.415C281.235,188.969,269.832,177.568,255.819,177.568z M255.819,213.1
			c-5.579,0-10.116-4.538-10.116-10.116s4.539-10.117,10.116-10.117c5.579,0,10.117,4.539,10.117,10.117
			S261.397,213.1,255.819,213.1z"/>
	</g>
</g>
<g>
</g>
<g>
</g>
<g>
</g>
<g>
</g>
<g>
</g>
<g>
</g>
<g>
</g>
<g>
</g>
<g>
</g>
<g>
</g>
<g>
</g>
<g>
</g>
<g>
</g>
<g>
</g>
<g>
</g>
</svg>
