<?xml version="1.0" encoding="iso-8859-1"?>
<!-- Generator: Adobe Illustrator 19.0.0, SVG Export Plug-In . SVG Version: 6.00 Build 0)  -->
<svg version="1.1" id="Capa_1" xmlns="http://www.w3.org/2000/svg" xmlns:xlink="http://www.w3.org/1999/xlink" x="0px" y="0px"
	 viewBox="0 0 512 512" style="enable-background:new 0 0 512 512;" xml:space="preserve">
<g>
	<g>
		<path d="M497.01,402.127L296.185,201.292c-4.772-4.755-11.985-5.629-17.663-2.624l-24.633-24.633l1.023-1.023
			c4.122-4.122,6.796-9.562,7.145-15.381c0.404-6.745-2.038-13.155-6.77-17.886l-1.712-1.713c2.229-3.399,4.826-6.967,7.773-10.678
			c2.548-3.209,2.135-7.848-0.978-10.512l-0.032-0.027c-3.257-2.786-8.191-2.325-10.856,1.031c-2.507,3.156-4.795,6.235-6.856,9.225
			l-40.582-40.62c9.647-9.653,15.689-15.693,16.48-16.475C249.827,38.671,296.1,29.603,335.396,45.75
			c-20.298,11.109-42.076,27.219-61.184,45.367c-3.081,2.926-3.12,7.828-0.118,10.835l0.033,0.033
			c2.913,2.917,7.609,2.956,10.599,0.118c22.281-21.163,48.228-39.331,70.584-49.298c2.097-0.935,3.787-2.667,4.437-4.869
			c1.017-3.445-0.472-7.004-3.434-8.743C308.644,11.193,247.561,19.429,207.8,59.191c-0.784,0.775-6.841,6.83-16.505,16.5
			l-0.216-0.216c-4.362-4.365-10.28-6.817-16.451-6.817c-6.212,0-12.053,2.42-16.446,6.812l-70.367,70.367
			c-2.959,2.959-2.907,7.75,0.003,10.758c0.959,0.992,1.755,2.113,2.371,3.346c3.857,7.671,0.839,19.055-7.176,27.071
			c-7.966,7.965-18.95,10.979-26.757,7.303c-1.344-0.622-2.565-1.459-3.631-2.487c-3.023-2.917-7.808-2.995-10.778-0.024
			L2.227,231.425c-2.97,2.971-2.97,7.784,0,10.754l86.256,86.256c0.749,0.749,1.617,1.388,2.601,1.784
			c2.954,1.191,6.172,0.449,8.279-1.659l39.622-39.622c2.937-2.937,2.974-7.688,0.083-10.67c-1.003-1.035-1.829-2.215-2.466-3.533
			c-3.793-7.778-0.814-18.838,7.243-26.896c7.99-7.991,19.36-11.017,27.03-7.195c1.254,0.625,2.402,1.437,3.411,2.413
			c2.982,2.888,7.731,2.85,10.667-0.085l11.507-11.507l24.623,24.623c-1.146,2.147-1.755,4.555-1.755,7.056
			c0,4.013,1.563,7.786,4.402,10.624l115.535,115.536c2.97,2.97,7.784,2.97,10.754,0c2.97-2.97,2.97-7.784,0-10.754L234.612,263.145
			l50.96-50.961l200.686,200.696c6.906,6.903,10.647,16.101,10.532,25.901c-0.115,9.797-4.077,18.91-11.154,25.663
			c-14.035,13.383-36.872,12.853-50.907-1.182l-59.641-59.642c-2.97-2.97-7.784-2.97-10.754,0c-2.97,2.97-2.97,7.784,0,10.754
			l59.642,59.643c10.178,10.177,23.66,15.299,37.074,15.299c12.715,0,25.368-4.603,35.081-13.866
			c10.069-9.603,15.704-22.562,15.866-36.491C512.16,425.03,506.837,411.948,497.01,402.127z M93.986,312.431l-75.629-75.629
			l28.868-28.868l75.628,75.628L93.986,312.431z M133.091,237.087c-6.538,6.538-10.801,14.606-12.465,22.741l-49.521-49.521
			c8.073-1.66,16.06-5.938,22.664-12.541c7.215-7.215,11.657-16.245,12.91-25.184l51.603,51.604
			C149.335,225.437,140.299,229.88,133.091,237.087z M181.011,225.406l-75.628-75.629l63.554-63.555
			c1.521-1.52,3.541-2.357,5.692-2.357c0.001,0,0.003,0,0.004,0c2.152,0.001,4.174,0.841,5.694,2.363l5.581,5.593
			c0.001,0,0.001,0.001,0.002,0.002l58.625,58.675c1.521,1.52,2.358,3.541,2.358,5.691c0,2.15-0.837,4.172-2.358,5.692
			L181.011,225.406z M231.375,244.875l-24.162-24.163l35.923-35.923l24.162,24.163L231.375,244.875z"/>
	</g>
</g>
<g>
</g>
<g>
</g>
<g>
</g>
<g>
</g>
<g>
</g>
<g>
</g>
<g>
</g>
<g>
</g>
<g>
</g>
<g>
</g>
<g>
</g>
<g>
</g>
<g>
</g>
<g>
</g>
<g>
</g>
</svg>
