<?xml version="1.0" encoding="iso-8859-1"?>
<!-- Generator: Adobe Illustrator 19.0.0, SVG Export Plug-In . SVG Version: 6.00 Build 0)  -->
<svg version="1.1" id="Capa_1" xmlns="http://www.w3.org/2000/svg" xmlns:xlink="http://www.w3.org/1999/xlink" x="0px" y="0px"
	 viewBox="0 0 511.998 511.998" style="enable-background:new 0 0 511.998 511.998;" xml:space="preserve">
<g>
	<g>
		<path d="M362.188,50.812c-2.742-3.403-7.794-3.785-11.029-0.848l-0.005,0.005c-2.982,2.707-3.326,7.262-0.798,10.398
			c17.31,21.482,26.765,48.185,26.765,75.957c0,47.838-28.253,91.301-71.979,110.73c-0.115,0.051-0.229,0.104-0.34,0.16
			c-15.407,6.785-31.823,10.226-48.797,10.226c-17.1,0-33.633-3.491-49.137-10.375c-43.733-19.438-71.99-62.906-71.99-110.741
			c0-66.784,54.337-121.117,121.126-121.117c25.497,0,49.59,7.698,70.117,22.332c3.275,2.335,7.801,1.705,10.32-1.431
			c2.729-3.397,2.066-8.415-1.487-10.938C312.008,8.89,284.274,0,256.005,0C180.83,0,119.67,61.154,119.67,136.324
			c0,52.518,30.271,100.346,77.444,122.967l13.701,65.704c0.857,4.109,4.883,6.746,8.992,5.889l0.007-0.001
			c4.109-0.857,6.745-4.883,5.888-8.992l-11.638-55.811c13.482,4.363,27.534,6.568,41.941,6.568c14.406,0,28.458-2.205,41.939-6.568
			l-41.94,201.078l-23.071-110.597c-0.857-4.109-4.883-6.745-8.992-5.888l-0.007,0.001c-4.109,0.857-6.745,4.883-5.889,8.992
			l30.516,146.281c0.736,3.526,3.843,6.052,7.444,6.052c3.601,0,6.709-2.526,7.444-6.052l51.449-246.672
			c47.163-22.609,77.43-70.43,77.43-122.95C392.328,105.058,381.68,74.994,362.188,50.812z"/>
	</g>
</g>
<g>
</g>
<g>
</g>
<g>
</g>
<g>
</g>
<g>
</g>
<g>
</g>
<g>
</g>
<g>
</g>
<g>
</g>
<g>
</g>
<g>
</g>
<g>
</g>
<g>
</g>
<g>
</g>
<g>
</g>
</svg>
