<?xml version="1.0" encoding="iso-8859-1"?>
<!-- Generator: Adobe Illustrator 19.0.0, SVG Export Plug-In . SVG Version: 6.00 Build 0)  -->
<svg version="1.1" id="Capa_1" xmlns="http://www.w3.org/2000/svg" xmlns:xlink="http://www.w3.org/1999/xlink" x="0px" y="0px"
	 viewBox="0 0 512 512" style="enable-background:new 0 0 512 512;" xml:space="preserve">
<g>
	<g>
		<path d="M509.772,180.911L331.08,2.23c-2.455-2.455-6.323-2.98-9.415-1.071c-1.99,1.23-3.249,3.376-3.53,5.7
			c-3.057,25.347-0.319,51.233,7.916,75.198L217.249,190.866c-8.386-4.095-17.044-7.682-25.869-10.712
			c-4.046-1.39-8.436,0.903-9.683,4.995v0.001c-1.2,3.94,0.965,8.086,4.86,9.427c9.467,3.258,18.73,7.206,27.636,11.77
			l88.617,86.103c18.612,33.857,27.598,73.007,25.856,111.892L107.634,183.311c15.286-0.713,30.563,0.221,45.645,2.79
			c4.061,0.691,7.951-1.912,8.783-5.948c0.864-4.191-1.894-8.303-6.113-9.024c-21.848-3.733-44.074-4.26-66.187-1.563
			c-3.474,0.423-6.291,3.189-6.654,6.838c-0.23,2.314,0.707,4.595,2.35,6.239l88.177,88.177L1.525,499.823
			c-2.275,3.026-1.976,7.267,0.701,9.946c1.474,1.473,3.422,2.226,5.38,2.226c1.599,0,3.206-0.503,4.566-1.526l229.005-172.109
			l88.326,88.327c1.451,1.45,3.394,2.226,5.378,2.226c0.829,0,1.668-0.136,2.478-0.416c2.75-0.948,4.716-3.381,5.069-6.269
			c5.572-45.73-3.032-92.818-24.236-133.272l69.713-69.714c2.969-2.969,2.97-7.781,0.001-10.751l-0.001-0.001
			c-2.969-2.971-7.784-2.972-10.754-0.001l-68.466,68.466l-79.132-76.888L334.786,94.828l76.38,79.651l-8.926,8.926
			c-2.97,2.97-2.97,7.784,0,10.753c2.97,2.969,7.783,2.969,10.753-0.001l10.556-10.557c19.492,7.596,40.286,11.483,61.237,11.483
			c6.776,0,13.573-0.407,20.339-1.223c2.323-0.28,4.472-1.533,5.708-3.519C512.756,187.252,512.233,183.371,509.772,180.911z
			 M45.89,466.106L184.495,281.68l45.82,45.82L45.89,466.106z M426.341,168.331l-84.978-88.617
			c-6.376-17.494-9.502-36.189-9.219-54.913l155.065,155.056C466.321,180.181,445.596,176.269,426.341,168.331z"/>
	</g>
</g>
<g>
</g>
<g>
</g>
<g>
</g>
<g>
</g>
<g>
</g>
<g>
</g>
<g>
</g>
<g>
</g>
<g>
</g>
<g>
</g>
<g>
</g>
<g>
</g>
<g>
</g>
<g>
</g>
<g>
</g>
</svg>
