<?xml version="1.0" encoding="iso-8859-1"?>
<!-- Generator: Adobe Illustrator 19.0.0, SVG Export Plug-In . SVG Version: 6.00 Build 0)  -->
<svg version="1.1" id="Capa_1" xmlns="http://www.w3.org/2000/svg" xmlns:xlink="http://www.w3.org/1999/xlink" x="0px" y="0px"
	 viewBox="0 0 512 512" style="enable-background:new 0 0 512 512;" xml:space="preserve">
<g>
	<g>
		<path d="M510.971,179.419L416.094,15.944c-1.361-2.345-3.866-3.787-6.576-3.787H102.481c-2.71,0-5.216,1.443-6.577,3.787
			L53.022,89.827c-2.108,3.633-0.873,8.285,2.76,10.394c3.632,2.108,8.285,0.872,10.393-2.76l40.683-70.097h67.846l-30.343,148.27
			H20.808l27.584-47.521c2.108-3.632,0.873-8.285-2.759-10.393c-3.632-2.109-8.285-0.873-10.394,2.759l-34.212,58.94
			c-1.579,2.719-1.32,6.13,0.65,8.581l248.396,309.004c0.188,0.233,0.388,0.452,0.599,0.659c0.017,0.017,0.038,0.031,0.056,0.049
			c0.237,0.229,0.491,0.437,0.754,0.632c0.071,0.052,0.142,0.101,0.215,0.151c0.245,0.169,0.499,0.323,0.762,0.462
			c0.052,0.027,0.101,0.058,0.153,0.084c0.321,0.16,0.653,0.296,0.994,0.41c0.05,0.016,0.1,0.028,0.15,0.044
			c0.3,0.092,0.606,0.165,0.919,0.221c0.072,0.013,0.143,0.026,0.215,0.037c0.366,0.054,0.735,0.091,1.109,0.091
			c0.377,0,0.747-0.038,1.115-0.092c0.064-0.009,0.127-0.021,0.19-0.032c0.328-0.058,0.653-0.134,0.969-0.233
			c0.033-0.01,0.068-0.018,0.101-0.029c0.354-0.117,0.699-0.259,1.031-0.425c0.025-0.013,0.05-0.028,0.074-0.042
			c0.297-0.153,0.583-0.328,0.858-0.52c0.049-0.034,0.097-0.067,0.145-0.102c0.532-0.389,1.022-0.84,1.444-1.365l248.396-309.004
			C512.292,185.549,512.551,182.139,510.971,179.419z M190.227,27.364h131.537l30.343,148.27H159.884L190.227,27.364z
			 M23.474,190.843h121.653l89.715,262.941L23.474,190.843z M255.996,468.688l-94.8-277.845h189.599L255.996,468.688z
			 M448.717,190.843h39.807L277.147,453.795l89.719-262.953h46.366c4.199,0,7.604-3.405,7.604-7.604s-3.405-7.604-7.604-7.604h-45.6
			l-30.343-148.27h67.853l86.052,148.271h-42.476c-4.199,0-7.604,3.405-7.604,7.604
			C441.113,187.439,444.518,190.843,448.717,190.843z"/>
	</g>
</g>
<g>
</g>
<g>
</g>
<g>
</g>
<g>
</g>
<g>
</g>
<g>
</g>
<g>
</g>
<g>
</g>
<g>
</g>
<g>
</g>
<g>
</g>
<g>
</g>
<g>
</g>
<g>
</g>
<g>
</g>
</svg>
