<?xml version="1.0" encoding="iso-8859-1"?>
<!-- Generator: Adobe Illustrator 19.0.0, SVG Export Plug-In . SVG Version: 6.00 Build 0)  -->
<svg version="1.1" id="Capa_1" xmlns="http://www.w3.org/2000/svg" xmlns:xlink="http://www.w3.org/1999/xlink" x="0px" y="0px"
	 viewBox="0 0 512.001 512.001" style="enable-background:new 0 0 512.001 512.001;" xml:space="preserve">
<g>
	<g>
		<path d="M368.441,153.642c-10.722-11.194-22.11-20.785-34-28.649c3.576-5.146,5.681-11.387,5.681-18.114
			c0-11.249-5.873-21.147-14.708-26.807c21.956-19.094,24.762-42.461,16.869-58.109C333.98,5.5,315.191-0.588,296.594,7.163
			c-31.952,13.313-53.488,12.859-67.779-1.433c-9.503-9.504-26.962-6.935-39.746,5.849c-8.843,8.843-13.471,20.571-13.03,33.02
			c0.405,11.419,4.922,22.758,13.423,33.833c-10.416,5.234-17.583,16.015-17.583,28.445c0,6.728,2.105,12.972,5.683,18.117
			c-30.081,19.941-57.166,51.303-76.961,89.35c-21.257,40.854-32.964,87.009-32.964,129.963c0,33.37,6.995,62.6,20.81,87.026
			c2.203,3.896,7.24,5.129,11,2.703l0.003-0.002c3.461-2.233,4.578-6.773,2.551-10.358c-12.478-22.07-18.796-48.728-18.796-79.368
			c0.001-40.498,11.083-84.102,31.207-122.778c19.429-37.343,46.123-67.69,75.507-85.974c4.171,2.012,8.846,3.141,13.779,3.141
			h104.603c4.933,0,9.607-1.128,13.779-3.141c12.31,7.651,24.108,17.347,35.187,28.925c2.886,3.017,7.657,3.176,10.772,0.395
			l0.004-0.004C371.346,161.925,371.504,156.84,368.441,153.642z M200.078,22.588c6.639-6.639,14.983-8.594,17.729-5.848
			c25.758,25.758,42.165,36.525,77.111,36.525c4.299,0,7.784-3.484,7.784-7.784s-3.485-7.784-7.784-7.784
			c-13.166,0-23.018-1.63-32.07-5.611c11.759-0.89,24.968-4.403,39.733-10.554c8.808-3.669,20.212-3.644,25.802,7.44
			c5.966,11.83,1.408,31.102-22.296,46.084h-99.083c-9.739-10.424-15.056-21.096-15.407-31.01
			C191.211,33.141,196.745,25.921,200.078,22.588z M308.301,123.131H203.698c-8.962,0-16.252-7.29-16.252-16.251
			s7.293-16.253,16.255-16.253h104.594c0.005,0,0.01,0.001,0.016,0.001c0.002,0,0.003,0,0.005,0
			c8.955,0.007,16.239,7.295,16.239,16.252C324.554,115.841,317.263,123.131,308.301,123.131z"/>
	</g>
</g>
<g>
	<g>
		<path d="M392.179,182.63c-2.515-3.584-7.513-4.349-11.017-1.726l-0.003,0.002c-3.378,2.528-4.105,7.272-1.681,10.727
			c30.98,44.164,49.317,100.659,49.317,152.675c0,50.432-16.807,89.38-49.953,115.765c-29.884,23.787-72.361,36.36-122.836,36.36
			c-57.297,0-103.186-15.751-133.302-45.645c-2.932-2.91-7.612-3.048-10.688-0.29c-3.327,2.984-3.476,8.164-0.303,11.31
			c16.027,15.896,36.127,28.238,59.864,36.74c24.922,8.925,53.328,13.451,84.43,13.451c54.034,0,99.862-13.745,132.531-39.749
			c17.797-14.165,31.573-31.869,40.945-52.616c9.874-21.86,14.88-47.204,14.88-75.328
			C444.363,289.183,424.96,229.353,392.179,182.63z"/>
	</g>
</g>
<g>
	<g>
		<path d="M256.002,282.14c-15.181,0-27.532-12.35-27.532-27.532c0-15.181,12.35-27.532,27.532-27.532
			c15.181,0,27.532,12.35,27.532,27.532c0,4.3,3.485,7.784,7.784,7.784s7.784-3.484,7.784-7.784
			c0-21.106-15.255-38.706-35.315-42.382v-7.875c0-4.3-3.485-7.784-7.784-7.784c-4.299,0-7.784,3.484-7.784,7.784v7.875
			c-20.06,3.676-35.315,21.276-35.315,42.382c0,23.764,19.334,43.099,43.099,43.099c15.181,0,27.532,12.35,27.532,27.532
			c0,15.181-12.35,27.532-27.532,27.532c-15.181,0-27.532-12.35-27.532-27.532c0-4.3-3.485-7.784-7.784-7.784
			s-7.784,3.484-7.784,7.784c0,21.106,15.255,38.706,35.315,42.382v7.875c0,4.3,3.485,7.784,7.784,7.784
			c4.299,0,7.784-3.484,7.784-7.784v-7.875c20.06-3.676,35.315-21.276,35.315-42.382C299.101,301.475,279.767,282.14,256.002,282.14
			z"/>
	</g>
</g>
<g>
</g>
<g>
</g>
<g>
</g>
<g>
</g>
<g>
</g>
<g>
</g>
<g>
</g>
<g>
</g>
<g>
</g>
<g>
</g>
<g>
</g>
<g>
</g>
<g>
</g>
<g>
</g>
<g>
</g>
</svg>
