<?xml version="1.0" encoding="iso-8859-1"?>
<!-- Generator: Adobe Illustrator 19.0.0, SVG Export Plug-In . SVG Version: 6.00 Build 0)  -->
<svg version="1.1" id="Capa_1" xmlns="http://www.w3.org/2000/svg" xmlns:xlink="http://www.w3.org/1999/xlink" x="0px" y="0px"
	 viewBox="0 0 512 512" style="enable-background:new 0 0 512 512;" xml:space="preserve">
<g>
	<g>
		<path d="M511.997,368.735V70.127c0-4.199-3.404-7.604-7.604-7.604h-196.86H204.464H7.604c-4.2,0-7.604,3.405-7.604,7.604v298.67
			c0,0.02,0.003,0.04,0.003,0.059v73.017c0,4.199,3.404,7.604,7.604,7.604h496.789c4.2,0,7.604-3.405,7.604-7.604v-73.079
			C512,368.774,511.997,368.754,511.997,368.735z M196.86,434.269H15.211v-8.911H196.86V434.269z M196.86,410.149H15.211v-9.632
			H196.86V410.149z M196.86,385.31H15.211v-8.909H196.86V385.31z M299.929,434.266h-87.861v-57.865h87.861V434.266z
			 M299.929,361.193h-87.861V140.918c0-4.198-3.404-7.602-7.602-7.602h-0.004c-4.198,0-7.602,3.404-7.602,7.602V361.19H15.208
			V77.731H196.86v27.705c0,4.198,3.404,7.602,7.602,7.602h0.004c4.198,0,7.602-3.404,7.602-7.602V77.731h87.861V361.193z
			 M315.137,77.731h181.652V361.19h-20.505c-1.826-27.195-13.146-47.364-22.572-59.692c3.719-2.878,7.176-6.093,10.35-9.626
			c3.001-3.34,2.421-8.557-1.208-11.201c-3.115-2.269-7.479-1.89-10.052,0.978c-4.11,4.583-8.799,8.499-14,11.689
			c-1.194,0.732-2.244,1.711-2.909,2.944c-1.592,2.949-1.087,6.421,1.018,8.759c8.378,9.303,21.969,28.409,24.134,56.148h-58.902
			l13.164-49.52c0.806-3.029-0.318-6.327-3.036-8.222c-1.33-0.928-2.952-1.328-4.575-1.335
			c-34.256-0.152-62.079-30.112-62.079-66.913c0-10.408,2.176-20.394,6.467-29.679c1.44-3.117,0.612-6.811-2.017-9.016
			c-2.031-1.703-4.451-4.286-4.451-6.919c0-8.682,24.286-21.291,62.342-21.291c38.05,0,62.332,12.61,62.332,21.291v45.613
			c0,6.416-0.833,12.7-2.482,18.756c-1.02,3.747,1.018,7.65,4.648,9.029l0.003,0.001c4.225,1.606,8.881-0.814,10.062-5.177
			c1.978-7.313,2.977-14.886,2.977-22.61v-45.613c0-10.997-8.944-20.75-25.187-27.459c-14.11-5.83-32.702-9.04-52.353-9.04
			c-19.656,0-38.252,3.211-52.362,9.04c-16.243,6.71-25.189,16.462-25.189,27.459c0,3.763,1.105,9.034,5.766,14.511
			c-3.827,9.865-5.766,20.302-5.766,31.103c0,41.797,29.64,76.401,67.831,81.481l-11.833,44.511h-71.268V77.731z M496.792,434.269
			H315.137v-8.911h181.656V434.269z M496.792,410.149H315.137v-9.632h181.656V410.149z M496.792,385.31H315.137v-8.909h181.656
			V385.31z"/>
	</g>
</g>
<g>
	<g>
		<path d="M64.96,291.451c-17.613,0-31.943,14.329-31.943,31.941c0,17.614,14.33,31.943,31.943,31.943
			c17.613,0,31.943-14.329,31.943-31.943C96.902,305.78,82.572,291.451,64.96,291.451z M64.96,340.127
			c-9.228,0-16.735-7.507-16.735-16.735c0-9.227,7.508-16.734,16.735-16.734c9.228,0,16.735,7.507,16.735,16.734
			C81.694,332.621,74.188,340.127,64.96,340.127z"/>
	</g>
</g>
<g>
	<g>
		<path d="M145.317,270.223h-46.2c7.24-9.079,9.72-18.528,10.32-25.969c0.354-4.387,0.093-8.37-0.399-11.731h30.096
			c4.2,0,7.604-3.404,7.604-7.604s-3.404-7.604-7.604-7.604h-26.111c-13.615,0-24.691-11.076-24.691-24.69
			c0-13.615,11.076-24.691,24.691-24.691s24.691,11.076,24.691,24.691c0,4.199,3.404,7.604,7.604,7.604
			c4.2,0,7.604-3.405,7.604-7.604c0-22.001-17.899-39.899-39.899-39.899s-39.899,17.899-39.899,39.899
			c0,9.317,3.219,17.892,8.592,24.69h-9.922c-4.2,0-7.604,3.405-7.604,7.604s3.405,7.603,7.604,7.603h21.793
			c0.588,2.829,1.063,6.723,0.639,11.079c-1.101,11.291-7.653,20.614-19.472,27.706c-2.931,1.758-4.329,5.257-3.416,8.55
			c0.911,3.294,3.909,5.574,7.328,5.574h66.651c4.2,0,7.604-3.405,7.604-7.604S149.517,270.223,145.317,270.223z"/>
	</g>
</g>
<g>
	<g>
		<path d="M477.073,90.913h-67.338c-4.2,0-7.604,3.405-7.604,7.604v32.982c0,4.2,3.404,7.605,7.604,7.605h67.338
			c4.2,0,7.604-3.405,7.604-7.604V98.517C484.677,94.318,481.273,90.913,477.073,90.913z M469.469,123.895h-52.13v-17.774h52.13
			V123.895z"/>
	</g>
</g>
<g>
</g>
<g>
</g>
<g>
</g>
<g>
</g>
<g>
</g>
<g>
</g>
<g>
</g>
<g>
</g>
<g>
</g>
<g>
</g>
<g>
</g>
<g>
</g>
<g>
</g>
<g>
</g>
<g>
</g>
</svg>
