<?xml version="1.0" encoding="iso-8859-1"?>
<!-- Generator: Adobe Illustrator 19.0.0, SVG Export Plug-In . SVG Version: 6.00 Build 0)  -->
<svg version="1.1" id="Capa_1" xmlns="http://www.w3.org/2000/svg" xmlns:xlink="http://www.w3.org/1999/xlink" x="0px" y="0px"
	 viewBox="0 0 512 512" style="enable-background:new 0 0 512 512;" xml:space="preserve">
<g>
	<g>
		<path d="M511.997,368.735V70.127c0-4.199-3.404-7.604-7.604-7.604H7.604c-4.2,0-7.604,3.405-7.604,7.604v298.67
			c0,0.02,0.003,0.04,0.003,0.059v73.017c0,4.199,3.404,7.604,7.604,7.604h496.789c4.2,0,7.604-3.405,7.604-7.604v-73.079
			C512,368.774,511.997,368.754,511.997,368.735z M381.78,77.731h115.009V361.19H381.78V197.186h71.471
			c4.2,0,7.604-3.404,7.604-7.604v-82.118c0-4.199-3.404-7.604-7.604-7.604H381.78V77.731z M315.137,77.731h51.435V99.86h-51.435
			V77.731z M315.137,115.067h130.511v66.91H315.137V115.067z M315.137,197.186h51.435V361.19h-51.435V197.186z M196.86,434.269
			H15.211v-8.911H196.86V434.269z M196.86,410.149H15.211v-9.632H196.86V410.149z M196.86,385.31H15.211v-8.909H196.86V385.31z
			 M299.929,434.266h-87.861v-57.865h87.861V434.266z M299.929,107.464v82.118v171.612h-87.861v-34.747
			c0-4.199-3.405-7.604-7.604-7.604s-7.604,3.405-7.604,7.604v34.744H15.208V77.731H196.86V290.96c0,4.199,3.405,7.604,7.604,7.604
			s7.604-3.405,7.604-7.604V77.731h87.861V107.464z M496.792,434.269H315.137v-8.911h181.656V434.269z M496.792,385.31h-63.31
			c-4.199,0-7.604,3.405-7.604,7.604s3.405,7.604,7.604,7.604h63.31v9.632H315.137v-9.632h82.859c4.199,0,7.604-3.405,7.604-7.604
			s-3.405-7.604-7.604-7.604h-82.859v-8.909h181.656V385.31z"/>
	</g>
</g>
<g>
	<g>
		<path d="M144.134,245.394c4.2,0,7.604-3.405,7.604-7.604c0-4.199-3.404-7.604-7.604-7.604H92.476
			c9.652-16.657,29.177-28.081,51.658-28.081c4.2,0,7.604-3.405,7.604-7.604c0-4.199-3.404-7.604-7.604-7.604
			c-31.32,0-58.103,18.02-68.577,43.289H54.708c-4.2,0-7.604,3.405-7.604,7.604c0,4.199,3.404,7.604,7.604,7.604h16.725
			c-0.378,2.746-0.595,5.535-0.595,8.371c0,2.837,0.217,5.627,0.595,8.371H54.708c-4.2,0-7.604,3.404-7.604,7.604
			s3.404,7.604,7.604,7.604h20.849c10.474,25.268,37.256,43.289,68.577,43.289c4.2,0,7.604-3.405,7.604-7.604
			s-3.404-7.604-7.604-7.604c-22.481,0-42.006-11.424-51.659-28.081h51.659c4.2,0,7.604-3.405,7.604-7.604s-3.404-7.604-7.604-7.604
			H86.82c-0.502-2.726-0.775-5.521-0.775-8.371c0-2.851,0.273-5.645,0.775-8.371H144.134z"/>
	</g>
</g>
<g>
	<g>
		<path d="M92.844,89.214H35.056c-4.2,0-7.604,3.405-7.604,7.604v39.538c0,4.199,3.405,7.604,7.604,7.604h57.788
			c4.2,0,7.604-3.405,7.604-7.604V96.818C100.448,92.619,97.044,89.214,92.844,89.214z M85.24,128.753H42.66v-24.331h42.58V128.753z
			"/>
	</g>
</g>
<g>
	<g>
		<path d="M179.523,89.214h-57.787c-4.2,0-7.604,3.405-7.604,7.604v39.538c0,4.199,3.405,7.604,7.604,7.604h57.787
			c4.2,0,7.604-3.405,7.604-7.604V96.818C187.127,92.619,183.724,89.214,179.523,89.214z M171.919,128.753h-42.579v-24.331h42.579
			V128.753z"/>
	</g>
</g>
<g>
	<g>
		<path d="M442.099,224.558c-24.317,0-44.101,19.783-44.101,44.101s19.783,44.101,44.101,44.101s44.102-19.783,44.102-44.101
			S466.416,224.558,442.099,224.558z M442.099,297.551c-15.932,0-28.893-12.961-28.893-28.893s12.961-28.893,28.893-28.893
			s28.894,12.961,28.894,28.893C470.993,284.59,458.031,297.551,442.099,297.551z"/>
	</g>
</g>
<g>
</g>
<g>
</g>
<g>
</g>
<g>
</g>
<g>
</g>
<g>
</g>
<g>
</g>
<g>
</g>
<g>
</g>
<g>
</g>
<g>
</g>
<g>
</g>
<g>
</g>
<g>
</g>
<g>
</g>
</svg>
