<?xml version="1.0" encoding="iso-8859-1"?>
<!-- Generator: Adobe Illustrator 19.0.0, SVG Export Plug-In . SVG Version: 6.00 Build 0)  -->
<svg version="1.1" id="Capa_1" xmlns="http://www.w3.org/2000/svg" xmlns:xlink="http://www.w3.org/1999/xlink" x="0px" y="0px"
	 viewBox="0 0 511.999 511.999" style="enable-background:new 0 0 511.999 511.999;" xml:space="preserve">
<g>
	<g>
		<path d="M505.088,27.244c-2.326-4.727-6.551-8.311-11.592-9.835c-5.032-1.521-10.52-0.88-15.06,1.76
			c-6.513,3.784-13.072,8.13-19.495,12.916c-11.961,8.911-21.193,18.048-28.67,26.964c3.437-10.799,7.508-21.304,12.753-30.226
			c4.632-7.878,3.071-17.971-3.712-23.999c-4.282-3.805-9.982-5.478-15.648-4.59c-5.638,0.885-10.53,4.205-13.422,9.11
			c-9.343,15.84-15.287,33.866-20.106,51.108c-16.385-1.308-32.756,2.893-46.173,11.924l-35.819-35.828
			c-13.837-13.824-36.339-13.819-50.163,0.002L56.637,237.895c-2.97,2.97-2.97,7.785,0,10.753c2.97,2.97,7.785,2.97,10.753,0
			L268.737,47.301c7.897-7.896,20.754-7.896,28.657,0l34.884,34.893c-10.999,11.403-17.93,26.006-19.854,41.553
			c-8.903,3.128-17.045,8.235-23.782,14.971c-24.709,24.71-24.713,64.911-0.008,89.617c12.357,12.356,28.582,18.532,44.812,18.532
			c16.226,0,32.459-6.179,44.811-18.532c6.732-6.731,11.837-14.863,14.967-23.752c15.516-1.859,30.024-8.702,41.559-19.882
			l6.803,6.803c2.97,2.97,7.784,2.97,10.753,0c2.97-2.97,2.97-7.785,0-10.754l-7.779-7.78c6.432-9.633,10.542-20.754,11.814-32.357
			c1.584-14.441-1.243-29.121-7.96-41.864c7.755-11.886,17.567-24.376,33.292-36.092c5.295-3.939,10.641-7.492,15.892-10.561
			C506.188,47.081,509.477,36.163,505.088,27.244z M398.942,86.319c0.55-2.071,1.107-4.173,1.692-6.34l0.081-0.308
			c5.668-21.526,11.528-43.786,22.626-62.602c0.787-1.333,2.017-1.707,2.681-1.812c0.171-0.026,0.382-0.048,0.622-0.048
			c0.711,0,1.672,0.189,2.564,0.982c1.392,1.238,1.682,3.263,0.705,4.924c-10.629,18.081-16.588,40.692-21.864,60.709l-0.887,3.339
			c-0.902,3.399-1.79,6.741-2.695,9.994c-0.417,1.497-1.507,2.171-2.119,2.439c-0.106,0.047-0.237,0.094-0.377,0.139l-4.797-4.797
			C397.76,90.776,398.346,88.565,398.942,86.319z M392.162,111.046c0.891,0.455,1.81,0.828,2.744,1.136l7.768,7.77
			c0.132,0.264,0.267,0.526,0.413,0.785c1.874,3.346,4.672,5.958,7.971,7.598l7.47,7.47c-0.286,3.1-0.987,6.142-2.085,9.045
			l-44.434-44.435c2.872-1.112,5.911-1.82,9.017-2.113l1.734,1.734C384.293,104.679,387.581,108.713,392.162,111.046z
			 M407.825,157.737c-3.937,3.686-8.585,6.319-13.612,7.785c-2.968-10.084-8.399-19.243-15.962-26.805
			c-7.557-7.557-16.714-12.986-26.798-15.956c1.479-5.047,4.123-9.692,7.784-13.613L407.825,157.737z M350.298,86.513
			c10.192-7.612,22.894-11.47,35.802-11.063c-0.03,0.116-0.062,0.233-0.092,0.348l-0.068,0.262c-0.579,2.142-1.143,4.267-1.698,6.36
			c-0.047,0.174-0.092,0.346-0.138,0.52c-8.878,0.034-17.596,2.431-25.099,6.985c-17.348,10.541-26.414,29.442-23.661,49.325
			c0.034,0.249,0.053,0.494,0.053,0.725c0,2.03-1.331,4.188-3.801,4.188c-1.963,0-3.643-1.379-3.909-3.216
			C324.634,120.059,333.298,99.201,350.298,86.513z M367.506,217.581c-9.098,9.096-21.194,14.105-34.059,14.105
			c-12.865,0-24.961-5.01-34.058-14.106c-9.097-9.096-14.104-21.19-14.102-34.053c0.002-12.863,5.013-24.958,14.11-34.056
			c3.781-3.781,8.142-6.884,12.883-9.207c0.101,0.957,0.216,1.914,0.356,2.872c1.34,9.256,9.491,16.236,18.959,16.236
			c10.66,0,19.01-8.52,19.01-19.397c0-0.492-0.021-0.99-0.058-1.487c6.317,2.39,12.072,6.104,16.951,10.984
			c4.883,4.884,8.598,10.64,10.989,16.954c-5.252-0.433-10.447,1.209-14.404,4.645c-4.129,3.586-6.497,8.786-6.497,14.281
			c0,9.499,7.069,17.674,16.445,19.017c0.895,0.128,1.791,0.238,2.684,0.334C374.39,209.44,371.287,213.799,367.506,217.581z
			 M424.853,173.163c-12.855,12.843-30.593,18.729-48.67,16.148c-1.932-0.277-3.389-1.98-3.389-3.974
			c0-1.396,0.686-2.284,1.261-2.785c0.917-0.796,2.175-1.15,3.433-0.97c15.585,2.241,30.862-2.816,41.92-13.873
			c11.429-11.429,16.461-27.716,13.747-43.496c1.154-1.263,2.147-2.696,2.938-4.276c0.904-1.815,1.824-3.64,2.671-5.249
			C445.489,134.903,440.495,157.522,424.853,173.163z M489.927,38.968c-5.734,3.351-11.553,7.217-17.3,11.492
			c-19.627,14.623-30.734,29.928-39.6,44.122l-0.001,0.001c-1.9,3.042-3.699,6.035-5.455,8.956l-0.215,0.358
			c-1.376,2.322-2.944,5.38-4.872,9.248c-0.848,1.695-2.403,1.912-3.032,1.927c-0.046,0.001-0.1-0.002-0.15-0.003l-3.384-3.384
			c-0.011-0.482,0.069-0.965,0.262-1.419c0.453-1.057,0.93-2.192,1.407-3.328c1.007-2.398,2.528-6.023,3.102-6.987
			c9.825-16.41,22.052-36.833,47.338-55.671c5.962-4.443,12.034-8.467,18.049-11.962c0.68-0.395,1.34-0.517,1.897-0.517
			c0.462,0,0.853,0.084,1.121,0.166c0.599,0.18,1.701,0.68,2.345,1.99C492.326,35.755,491.661,37.955,489.927,38.968z"/>
	</g>
</g>
<g>
	<g>
		<path d="M480.42,208.828l-2.998-2.998c-2.97-2.969-7.785-2.969-10.754,0.001s-2.969,7.785,0,10.753l2.998,2.998
			c7.897,7.898,7.897,20.748,0,28.646L227.019,490.875c-7.897,7.896-20.754,7.895-28.657,0L26.094,318.606
			c-7.898-7.905-7.899-20.762-0.002-28.659l16.341-16.341c2.97-2.97,2.97-7.785,0-10.753c-2.97-2.97-7.785-2.97-10.753,0
			l-16.341,16.341c-13.825,13.824-13.826,36.327,0,50.165l172.273,172.274c6.918,6.911,16,10.367,25.084,10.366
			c9.083-0.001,18.166-3.456,25.078-10.369l242.648-242.647C494.248,245.155,494.248,222.657,480.42,208.828z"/>
	</g>
</g>
<g>
</g>
<g>
</g>
<g>
</g>
<g>
</g>
<g>
</g>
<g>
</g>
<g>
</g>
<g>
</g>
<g>
</g>
<g>
</g>
<g>
</g>
<g>
</g>
<g>
</g>
<g>
</g>
<g>
</g>
</svg>
