<?xml version="1.0" encoding="iso-8859-1"?>
<!-- Generator: Adobe Illustrator 19.0.0, SVG Export Plug-In . SVG Version: 6.00 Build 0)  -->
<svg version="1.1" id="Capa_1" xmlns="http://www.w3.org/2000/svg" xmlns:xlink="http://www.w3.org/1999/xlink" x="0px" y="0px"
	 viewBox="0 0 512 512" style="enable-background:new 0 0 512 512;" xml:space="preserve">
<g>
	<g>
		<path d="M511.997,368.735V70.127c0-4.199-3.404-7.604-7.604-7.604h-196.86H204.464H7.604C3.405,62.523,0,65.928,0,70.127v298.67
			c0,0.023,0.003,0.046,0.003,0.069v73.007c0,4.199,3.405,7.604,7.604,7.604h496.789c4.2,0,7.604-3.405,7.604-7.604v-73.079
			C512,368.775,511.998,368.755,511.997,368.735z M196.86,434.269H15.211v-8.911H196.86V434.269z M196.86,385.311H90.844
			c-4.199,0-7.604,3.405-7.604,7.604c0,4.199,3.404,7.604,7.604,7.604H196.86v9.632H15.211v-9.632h40.147
			c4.199,0,7.604-3.405,7.604-7.604c0-4.199-3.404-7.604-7.604-7.604H15.211v-8.909H196.86V385.311z M196.86,266.899
			c-8.455-13.791-13.115-30.337-13.115-47.612c0-17.239,4.661-33.758,13.115-47.537V266.899z M196.86,147.075
			c-18.035,18.528-28.323,44.648-28.323,72.212c0,27.614,10.289,53.765,28.323,72.294v69.608H15.208V77.731H196.86V147.075z
			 M299.929,434.267h-87.861v-57.865h87.861V434.267z M307.533,161.198c-4.199,0-7.604,3.405-7.604,7.604v192.392h-87.861V77.731
			h87.862v55.584c0,4.199,3.404,7.604,7.604,7.604s7.604-3.405,7.604-7.604V77.731h181.651V361.19H315.137V168.802
			C315.137,164.602,311.732,161.198,307.533,161.198z M496.793,434.269H315.138v-8.911h181.656V434.269z M496.793,410.15H315.138
			v-9.632h181.656V410.15z M496.793,385.311H315.138v-8.909h181.656V385.311z"/>
	</g>
</g>
<g>
	<g>
		<path d="M145.311,152.61c-2.97-2.97-7.784-2.97-10.753,0l-40.066,40.067L54.426,152.61c-2.97-2.97-7.784-2.97-10.753,0
			c-2.97,2.97-2.97,7.784,0,10.753l40.02,40.02H68.725c-4.199,0-7.604,3.405-7.604,7.604c0,4.199,3.405,7.604,7.604,7.604h18.163
			v21.897H68.725c-4.199,0-7.604,3.405-7.604,7.604s3.405,7.604,7.604,7.604h18.163v27.439c0,4.199,3.405,7.604,7.604,7.604
			c4.199,0,7.604-3.405,7.604-7.604v-27.439h18.163c4.199,0,7.604-3.404,7.604-7.604s-3.405-7.604-7.604-7.604h-18.163V218.59
			h18.163c4.199,0,7.604-3.405,7.604-7.604c0-4.199-3.405-7.604-7.604-7.604h-14.968l40.02-40.02
			C148.28,160.394,148.28,155.579,145.311,152.61z"/>
	</g>
</g>
<g>
	<g>
		<path d="M144.069,284.626c-17.19,0-31.175,13.985-31.175,31.175c0,17.19,13.985,31.175,31.175,31.175
			c17.19,0,31.175-13.985,31.175-31.175C175.244,298.611,161.259,284.626,144.069,284.626z M144.068,331.768
			c-8.804,0-15.967-7.163-15.967-15.967s7.163-15.967,15.967-15.967s15.967,7.163,15.967,15.967S152.872,331.768,144.068,331.768z"
			/>
	</g>
</g>
<g>
	<g>
		<path d="M473.407,307.036c-10.452-9.143-22.518-16.46-28.997-20.12c1.173-4.956,4.182-10.318,7.776-16.724
			c7.653-13.635,17.175-30.606,17.175-57.375c0-22.11-5.429-40.498-15.703-53.178c-10.458-12.907-25.535-19.731-43.6-19.731
			c-36.631,0-59.386,27.937-59.386,72.908c0,26.776,9.556,43.747,17.232,57.385c3.605,6.401,6.622,11.763,7.8,16.714
			c-6.485,3.66-18.563,10.979-29.028,20.113c-2.388,2.084-3.232,5.431-2.12,8.399c1.113,2.969,3.951,4.934,7.12,4.934h116.722
			c3.168,0,6.004-1.965,7.118-4.929C476.633,312.468,475.791,309.122,473.407,307.036z M374.86,305.154
			c7.016-4.441,12.344-7.185,12.436-7.233c2.544-1.3,4.145-3.914,4.145-6.771c0-10.142-4.995-19.015-10.285-28.409
			c-7.161-12.719-15.277-27.135-15.277-49.923c0-36.669,16.102-57.701,44.178-57.701c28.023,0,44.095,21.031,44.095,57.701
			c0,22.795-8.091,37.213-15.229,49.932c-5.27,9.392-10.248,18.264-10.248,28.399c0,2.854,1.601,5.47,4.142,6.771
			c0.095,0.049,5.42,2.791,12.432,7.235H374.86z"/>
	</g>
</g>
<g>
	<g>
		<path d="M474.566,93.777h-53.224c-4.2,0-7.604,3.405-7.604,7.604s3.404,7.604,7.604,7.604h45.62v52.21
			c0,4.199,3.404,7.604,7.604,7.604c4.2,0,7.604-3.405,7.604-7.604V101.38C482.17,97.181,478.767,93.777,474.566,93.777z"/>
	</g>
</g>
<g>
	<g>
		<path d="M151.672,93.777H33.057c-4.199,0-7.604,3.405-7.604,7.604s3.404,7.604,7.604,7.604h118.615
			c4.199,0,7.604-3.404,7.604-7.604S155.871,93.777,151.672,93.777z"/>
	</g>
</g>
<g>
	<g>
		<path d="M96.927,333.034H49.784v-41.565c0-4.199-3.405-7.604-7.604-7.604c-4.199,0-7.604,3.405-7.604,7.604v49.169
			c0,4.199,3.405,7.604,7.604,7.604h54.745c4.199,0,7.604-3.404,7.604-7.604S101.126,333.034,96.927,333.034z"/>
	</g>
</g>
<g>
</g>
<g>
</g>
<g>
</g>
<g>
</g>
<g>
</g>
<g>
</g>
<g>
</g>
<g>
</g>
<g>
</g>
<g>
</g>
<g>
</g>
<g>
</g>
<g>
</g>
<g>
</g>
<g>
</g>
</svg>
