<?xml version="1.0" encoding="iso-8859-1"?>
<!-- Generator: Adobe Illustrator 19.0.0, SVG Export Plug-In . SVG Version: 6.00 Build 0)  -->
<svg version="1.1" id="Capa_1" xmlns="http://www.w3.org/2000/svg" xmlns:xlink="http://www.w3.org/1999/xlink" x="0px" y="0px"
	 viewBox="0 0 512 512" style="enable-background:new 0 0 512 512;" xml:space="preserve">
<g>
	<g>
		<path d="M108.612,215.064c-10.584,0-19.194-8.611-19.194-19.193c0-10.584,8.611-19.194,19.194-19.194
			c10.583,0,19.193,8.611,19.193,19.194c0,4.199,3.405,7.604,7.604,7.604c4.199,0,7.604-3.404,7.604-7.604
			c0-16.356-11.477-30.073-26.797-33.544v-4.591c0-4.199-3.404-7.604-7.604-7.604s-7.604,3.405-7.604,7.604v4.591
			c-15.321,3.471-26.798,17.189-26.798,33.544c0,18.968,15.433,34.401,34.402,34.401c10.583,0,19.193,8.611,19.193,19.194
			c0,10.584-8.611,19.194-19.193,19.194c-10.584,0-19.194-8.611-19.194-19.194c0-4.199-3.405-7.604-7.604-7.604
			s-7.604,3.405-7.604,7.604c0,16.355,11.477,30.073,26.798,33.544v4.591c0,4.199,3.404,7.604,7.604,7.604s7.604-3.405,7.604-7.604
			v-4.591c15.32-3.471,26.797-17.189,26.797-33.544C143.013,230.497,127.58,215.064,108.612,215.064z"/>
	</g>
</g>
<g>
	<g>
		<path d="M405.448,186.206c-20.106,0-36.462,16.357-36.462,36.462s16.357,36.463,36.462,36.463s36.463-16.358,36.463-36.463
			C441.911,202.562,425.554,186.206,405.448,186.206z M405.448,243.923c-11.72,0-21.254-9.535-21.254-21.255
			c-0.001-11.719,9.534-21.254,21.254-21.254c11.72,0,21.255,9.535,21.255,21.254C426.703,234.388,417.168,243.923,405.448,243.923z
			"/>
	</g>
</g>
<g>
	<g>
		<path d="M511.997,368.725V70.127c0-4.199-3.405-7.604-7.604-7.604h-196.86H204.464H7.604C3.405,62.523,0,65.928,0,70.127v298.67
			c0,0.023,0.003,0.046,0.003,0.069v73.007c0,4.199,3.405,7.604,7.604,7.604h496.789c4.199,0,7.604-3.405,7.604-7.604v-73.079
			C512,368.771,511.997,368.748,511.997,368.725z M196.86,434.269H15.211v-9.926H196.86V434.269z M196.86,409.135H15.211v-7.604
			H196.86V409.135z M196.86,386.324H15.211v-9.923H196.86V386.324z M196.86,266.899c-2.503-4.084-4.679-8.404-6.494-12.919
			c2.08-0.954,4.246-1.861,6.494-2.717V266.899z M196.86,235.127c-3.822,1.271-7.488,2.663-10.963,4.183
			c-1.4-6.481-2.152-13.19-2.152-20.023c0-17.239,4.661-33.758,13.115-47.537V235.127z M196.86,95.505H68.382
			c-4.141,0-7.643,3.308-7.613,7.449c0.085,11.252-9.086,20.422-20.338,20.338c-4.141-0.031-7.449,3.471-7.449,7.613v97.6
			c0,4.199,3.405,7.604,7.604,7.604c4.199,0,7.604-3.404,7.604-7.604v-90.826c13.422-2.95,24.015-13.543,26.966-26.966H196.86
			v36.363c-18.035,18.528-28.323,44.648-28.323,72.212c0,27.614,10.289,53.765,28.323,72.294v15.093h-16.58
			c-4.164,0-7.795,3.208-7.919,7.37c-0.13,4.306,3.323,7.838,7.601,7.838h16.898v8.618H75.155
			c-2.95-13.422-13.543-24.014-26.966-26.964v-39.545c0-4.199-3.405-7.604-7.604-7.604c-4.199,0-7.604,3.404-7.604,7.604v46.319
			c0,4.141,3.308,7.643,7.449,7.613c11.252-0.085,20.422,9.086,20.338,20.337c-0.031,4.141,3.471,7.449,7.613,7.449H196.86v15.482
			H15.208V77.731H196.86V95.505z M299.929,434.267h-87.861v-57.865h87.861V434.267z M299.929,361.193h-87.861v-46.855
			c0-0.02,0.003-0.04,0.003-0.059c0-0.019-0.003-0.039-0.003-0.059V77.731h87.861V361.193z M315.137,171.773
			c8.457,13.792,13.115,30.302,13.115,47.515c0,6.839-0.756,13.561-2.165,20.054c-3.47-1.521-7.131-2.916-10.951-4.188V171.773z
			 M315.137,251.295c2.24,0.855,4.398,1.759,6.47,2.713c-1.81,4.495-3.977,8.799-6.47,12.87V251.295z M315.137,345.708h128.403
			c4.139,0,7.639-3.306,7.607-7.445c-0.087-11.245,9.107-20.413,20.396-20.342c4.156,0.026,7.474-3.491,7.474-7.646V130.938
			c0-4.156-3.317-7.673-7.474-7.646c-11.287,0.071-20.483-9.097-20.396-20.342c0.032-4.139-3.468-7.445-7.607-7.445h-39.4
			c-4.199,0-7.604,3.405-7.604,7.604c0,4.199,3.405,7.604,7.604,7.604h32.624c2.958,13.429,13.584,24.024,27.046,26.97v165.849
			c-13.461,2.945-24.087,13.541-27.046,26.969H315.137v-8.618h16.576c4.164,0,7.795-3.208,7.919-7.37
			c0.13-4.306-3.323-7.838-7.601-7.838h-16.894V291.58c18.036-18.573,28.323-44.715,28.323-72.292
			c0-27.527-10.287-53.639-28.323-72.209v-36.366h53.515c4.199,0,7.604-3.405,7.604-7.604c0-4.199-3.405-7.604-7.604-7.604h-53.515
			V77.731h181.652V361.19H315.137V345.708z M496.792,434.269H315.137v-9.926h181.656V434.269z M496.792,409.135H315.137v-7.604
			h181.656V409.135z M496.792,386.323H315.137v-9.923h181.656V386.323z"/>
	</g>
</g>
<g>
	<g>
		<path d="M438.144,270.179h-65.391c-4.199,0-7.604,3.405-7.604,7.604s3.405,7.604,7.604,7.604h65.391
			c4.199,0,7.604-3.404,7.604-7.604S442.343,270.179,438.144,270.179z"/>
	</g>
</g>
<g>
</g>
<g>
</g>
<g>
</g>
<g>
</g>
<g>
</g>
<g>
</g>
<g>
</g>
<g>
</g>
<g>
</g>
<g>
</g>
<g>
</g>
<g>
</g>
<g>
</g>
<g>
</g>
<g>
</g>
</svg>
