<?xml version="1.0" encoding="iso-8859-1"?>
<!-- Generator: Adobe Illustrator 19.0.0, SVG Export Plug-In . SVG Version: 6.00 Build 0)  -->
<svg version="1.1" id="Capa_1" xmlns="http://www.w3.org/2000/svg" xmlns:xlink="http://www.w3.org/1999/xlink" x="0px" y="0px"
	 viewBox="0 0 512 512" style="enable-background:new 0 0 512 512;" xml:space="preserve">
<g>
	<g>
		<path d="M504.396,75.034h-23.331V61.35c0-4.199-3.405-7.604-7.604-7.604H298.977c-18.125,0-34.045,9.588-42.978,23.951
			c-8.933-14.364-24.854-23.951-42.977-23.951H38.536c-4.199,0-7.604,3.405-7.604,7.604v13.683H7.607
			c-4.199,0-7.604,3.405-7.604,7.604v341.059c0,0.023-0.003,0.046-0.003,0.069v26.885c0,4.199,3.405,7.604,7.604,7.604h496.789
			c4.199,0,7.604-3.405,7.604-7.604v-26.812c0-0.023,0.003-0.046,0.003-0.069V82.638C512,78.438,508.595,75.034,504.396,75.034z
			 M248.395,443.047H15.208v-11.674h233.187V443.047z M248.395,383.739H46.14v-9.629h126.218c4.199,0,7.604-3.405,7.604-7.604
			s-3.405-7.604-7.604-7.604H46.14v-10.139h79.077c4.199,0,7.604-3.405,7.604-7.604s-3.405-7.604-7.604-7.604H46.14v-9.124h166.882
			c19.505,0,35.373,15.869,35.373,35.374V383.739z M248.395,323.698c-9.128-8.944-21.614-14.473-35.373-14.473H46.14V188.079
			c0-4.199-3.404-7.604-7.604-7.604s-7.604,3.405-7.604,7.604v128.75v74.514c0,4.199,3.405,7.604,7.604,7.604h209.859v17.214H15.211
			V90.242h15.721v62.351c0,4.199,3.405,7.604,7.604,7.604s7.604-3.405,7.604-7.604V68.954h166.882
			c19.536,0,35.373,15.837,35.373,35.373V323.698z M263.602,359.808c0-19.537,15.837-35.374,35.374-35.374h65.113
			c4.199,0,7.604-3.405,7.604-7.604c0-4.199-3.405-7.604-7.604-7.604h-65.113c-13.759,0-26.246,5.53-35.374,14.473v-219.37
			c0-19.536,15.837-35.374,35.374-35.374h166.882v240.271h-66.282c-4.199,0-7.604,3.404-7.604,7.604s3.405,7.604,7.604,7.604h66.282
			v9.124h-83.2c-4.164,0-7.794,3.208-7.919,7.37c-0.13,4.306,3.323,7.838,7.601,7.838h83.518v10.139H335.516
			c-4.164,0-7.794,3.208-7.919,7.37c-0.13,4.306,3.323,7.838,7.601,7.838h130.661v9.63H263.602V359.808z M496.789,443.047H263.602
			v-11.674h233.187V443.047z M496.792,416.162h-233.19v-17.214h209.859c4.199,0,7.604-3.405,7.604-7.604v-74.514V90.242h15.727
			V416.162z"/>
	</g>
</g>
<g>
	<g>
		<path d="M409.591,99.367h-83.639c-4.199,0-7.604,3.405-7.604,7.604s3.404,7.604,7.604,7.604h83.639
			c4.199,0,7.604-3.404,7.604-7.604S413.79,99.367,409.591,99.367z"/>
	</g>
</g>
<g>
	<g>
		<path d="M409.591,237.752h-83.639c-4.199,0-7.604,3.405-7.604,7.604s3.404,7.604,7.604,7.604h83.639
			c4.199,0,7.604-3.404,7.604-7.604S413.79,237.752,409.591,237.752z"/>
	</g>
</g>
<g>
	<g>
		<path d="M409.591,203.156h-83.639c-4.199,0-7.604,3.405-7.604,7.604c0,4.199,3.404,7.604,7.604,7.604h83.639
			c4.199,0,7.604-3.405,7.604-7.604C417.194,206.56,413.79,203.156,409.591,203.156z"/>
	</g>
</g>
<g>
	<g>
		<path d="M409.591,168.56h-83.639c-4.199,0-7.604,3.404-7.604,7.604s3.404,7.604,7.604,7.604h83.639
			c4.199,0,7.604-3.405,7.604-7.604S413.79,168.56,409.591,168.56z"/>
	</g>
</g>
<g>
	<g>
		<path d="M409.591,133.964h-83.639c-4.199,0-7.604,3.405-7.604,7.604s3.404,7.604,7.604,7.604h83.639
			c4.199,0,7.604-3.404,7.604-7.604S413.79,133.964,409.591,133.964z"/>
	</g>
</g>
<g>
	<g>
		<path d="M186.046,99.367h-83.639c-4.199,0-7.604,3.405-7.604,7.604s3.405,7.604,7.604,7.604h83.639
			c4.199,0,7.604-3.404,7.604-7.604S190.246,99.367,186.046,99.367z"/>
	</g>
</g>
<g>
	<g>
		<path d="M186.046,237.752h-83.639c-4.199,0-7.604,3.405-7.604,7.604s3.405,7.604,7.604,7.604h83.639
			c4.199,0,7.604-3.404,7.604-7.604S190.246,237.752,186.046,237.752z"/>
	</g>
</g>
<g>
	<g>
		<path d="M186.046,203.156h-83.639c-4.199,0-7.604,3.405-7.604,7.604c0,4.199,3.405,7.604,7.604,7.604h83.639
			c4.199,0,7.604-3.405,7.604-7.604C193.65,206.56,190.246,203.156,186.046,203.156z"/>
	</g>
</g>
<g>
	<g>
		<path d="M186.046,168.56h-83.639c-4.199,0-7.604,3.404-7.604,7.604s3.405,7.604,7.604,7.604h83.639
			c4.199,0,7.604-3.405,7.604-7.604S190.246,168.56,186.046,168.56z"/>
	</g>
</g>
<g>
	<g>
		<path d="M186.046,133.964h-83.639c-4.199,0-7.604,3.405-7.604,7.604s3.405,7.604,7.604,7.604h83.639
			c4.199,0,7.604-3.404,7.604-7.604S190.246,133.964,186.046,133.964z"/>
	</g>
</g>
<g>
</g>
<g>
</g>
<g>
</g>
<g>
</g>
<g>
</g>
<g>
</g>
<g>
</g>
<g>
</g>
<g>
</g>
<g>
</g>
<g>
</g>
<g>
</g>
<g>
</g>
<g>
</g>
<g>
</g>
</svg>
