<?xml version="1.0" encoding="iso-8859-1"?>
<!-- Generator: Adobe Illustrator 19.0.0, SVG Export Plug-In . SVG Version: 6.00 Build 0)  -->
<svg version="1.1" id="Capa_1" xmlns="http://www.w3.org/2000/svg" xmlns:xlink="http://www.w3.org/1999/xlink" x="0px" y="0px"
	 viewBox="0 0 512 512" style="enable-background:new 0 0 512 512;" xml:space="preserve">
<g>
	<g>
		<path d="M376.081,0H161.391c-4.219,0-7.639,3.42-7.639,7.639v77.339H135.93c-18.788,0-34.018,15.231-34.018,34.018v273.976
			l-0.001,0.04c-0.474,18.709,14.451,34.017,33.166,34.017h1.464v50.878c0,0.026-0.002,0.052-0.002,0.078
			c0,18.758,15.26,34.017,34.017,34.017h214.692c4.219,0,7.639-3.42,7.639-7.639v-52.756c0-0.006-0.001-0.013-0.001-0.02v-60.093
			c0-4.219-3.42-7.639-7.639-7.639c-4.219,0-7.639,3.42-7.639,7.639v52.474H170.555c-6.92,0-13.361,2.082-18.737,5.646v-22.585
			h198.801c4.219,0,7.639-3.42,7.639-7.639v-52.756c0-0.01-0.001-0.019-0.001-0.03v-24.549h17.827c0.511,0,1.018-0.016,1.525-0.039
			v13.828c0,4.219,3.42,7.639,7.639,7.639s7.639-3.42,7.639-7.639v-18.247c10.27-5.861,17.215-16.911,17.215-29.559V34.017
			C410.099,15.229,394.868,0,376.081,0z M117.188,118.995c0-10.35,8.39-18.74,18.74-18.74h17.823v67.169
			c0,4.219,3.42,7.639,7.639,7.639c4.219,0,7.639-3.42,7.639-7.639V15.277h207.053c10.349,0,18.739,8.389,18.739,18.739v245.651
			c-5.378-3.565-11.819-5.647-18.739-5.647H169.029v-70.948c0-4.219-3.42-7.639-7.639-7.639s-7.639,3.42-7.639,7.639v78.587v52.756
			c0,4.219,3.42,7.639,7.639,7.639h181.588v16.94H135.926c-6.92,0-13.361,2.082-18.738,5.646V118.995z M170.555,459.244h207.053
			v11.1H174.499c-4.219,0-7.639,3.42-7.639,7.639c0,4.219,3.42,7.639,7.639,7.639h203.108v11.102H170.555
			c-10.334,0-18.739-8.407-18.739-18.739c0,0,0,0,0-0.001h0.002v-0.039C151.838,467.63,160.235,459.244,170.555,459.244z
			 M342.979,385.37H139.871c-4.219,0-7.639,3.42-7.639,7.639s3.42,7.639,7.639,7.639h203.108v11.103H135.926
			c-10.333,0-18.739-8.407-18.739-18.739v-0.001h0.001v-0.018c0.011-10.324,8.412-18.72,18.738-18.72h207.053V385.37z
			 M376.082,326.777H169.029v-11.1h203.108c4.219,0,7.639-3.42,7.639-7.639c0-4.219-3.42-7.639-7.639-7.639H169.029v-11.101h207.053
			c10.333,0,18.739,8.407,18.739,18.739C394.822,318.371,386.415,326.777,376.082,326.777z"/>
	</g>
</g>
<g>
</g>
<g>
</g>
<g>
</g>
<g>
</g>
<g>
</g>
<g>
</g>
<g>
</g>
<g>
</g>
<g>
</g>
<g>
</g>
<g>
</g>
<g>
</g>
<g>
</g>
<g>
</g>
<g>
</g>
</svg>
