<?xml version="1.0" encoding="iso-8859-1"?>
<!-- Generator: Adobe Illustrator 19.0.0, SVG Export Plug-In . SVG Version: 6.00 Build 0)  -->
<svg version="1.1" id="Capa_1" xmlns="http://www.w3.org/2000/svg" xmlns:xlink="http://www.w3.org/1999/xlink" x="0px" y="0px"
	 viewBox="0 0 512.002 512.002" style="enable-background:new 0 0 512.002 512.002;" xml:space="preserve">
<g>
	<g>
		<path d="M424.537,0H122.516C108.001,0,95.63,9.334,91.073,22.311h-4.108c-15.514,0-28.135,12.622-28.135,28.135
			c0,7.516,2.927,14.581,8.233,19.888c5.303,5.318,12.372,8.247,19.902,8.247h2.231v16.3h-2.231
			c-15.514,0-28.135,12.622-28.135,28.135c0,7.516,2.927,14.581,8.233,19.888c5.303,5.318,12.372,8.247,19.902,8.247h2.231v16.3
			h-2.231c-15.514,0-28.135,12.622-28.135,28.135c0,7.516,2.927,14.581,8.233,19.888c5.303,5.318,12.372,8.247,19.902,8.247h2.231
			v16.3h-2.231c-15.514,0-28.135,12.622-28.135,28.135c0,7.516,2.927,14.581,8.233,19.888c5.303,5.318,12.372,8.247,19.902,8.247
			h2.231v16.3h-2.231c-15.514,0-28.135,12.622-28.135,28.135c0,7.517,2.927,14.582,8.233,19.888
			c5.303,5.318,12.372,8.247,19.902,8.247h2.231v16.3h-2.231c-15.514,0-28.135,12.622-28.135,28.135
			c0,7.517,2.927,14.582,8.233,19.888c5.303,5.318,12.372,8.247,19.902,8.247h2.231v37.255c0,18.373,14.947,33.321,33.321,33.321
			h302.021c15.789,0,28.635-12.845,28.635-28.634V28.634C453.172,12.846,440.326,0,424.537,0z M89.195,426.216h-2.23
			c-3.46,0-6.704-1.341-9.142-3.786c-2.44-2.44-3.785-5.687-3.785-9.141c0-7.128,5.799-12.927,12.927-12.927h2.23V426.216z
			 M89.195,353.648h-2.23c-3.46,0-6.704-1.341-9.142-3.786c-2.44-2.44-3.785-5.687-3.785-9.141c0-7.127,5.799-12.927,12.927-12.927
			h2.23V353.648z M89.195,281.079h-2.23c-3.46,0-6.704-1.341-9.141-3.785c-2.441-2.441-3.786-5.688-3.786-9.142
			c0-7.127,5.799-12.927,12.927-12.927h2.23V281.079z M89.195,208.51h-2.23c-3.46,0-6.704-1.341-9.141-3.785
			c-2.441-2.441-3.786-5.688-3.786-9.142c0-7.127,5.799-12.927,12.927-12.927h2.23V208.51z M89.195,135.942h-2.23
			c-3.46,0-6.704-1.341-9.141-3.785c-2.441-2.441-3.786-5.688-3.786-9.142c0-7.127,5.799-12.927,12.927-12.927h2.23V135.942z
			 M89.195,63.372h-2.23c-3.46,0-6.704-1.341-9.141-3.785c-2.441-2.441-3.786-5.688-3.786-9.142c0-7.127,5.799-12.927,12.927-12.927
			h2.23V63.372z M437.964,483.366c0,7.415-6.011,13.427-13.427,13.427H122.516c-9.464,0-17.246-7.301-18.035-16.565
			c5.331,3.445,11.541,5.3,18.04,5.3h200.402c4.199,0,7.604-3.405,7.604-7.604c0-4.199-3.405-7.604-7.604-7.604H122.521
			c-4.624,0-8.971-1.736-12.334-4.873c3.237-3.018,7.564-4.881,12.329-4.881H338.64h28.893h57.004c4.843,0,9.407-1.213,13.41-3.345
			c-0.175,7.251-6.115,13.098-13.407,13.098h-66.13c-4.199,0-7.604,3.405-7.604,7.604c0,4.199,3.405,7.604,7.604,7.604h66.13
			c4.848,0,9.417-1.216,13.424-3.352V483.366z M437.97,389.099v26.475h-0.006v16.358c0,7.415-6.011,13.427-13.427,13.427h-57.004
			H338.64H172.883V95.212c0-4.199-3.405-7.604-7.604-7.604s-7.604,3.405-7.604,7.604v350.146h-35.159
			c-6.675,0-12.894,1.981-18.113,5.374v-50.37h8.039c3.371,0,6.695,1.154,9.162,3.45c2.601,2.421,4.066,5.714,4.128,9.239
			c0.066,3.702,2.514,7.034,6.155,7.706c4.838,0.893,9.055-2.795,9.055-7.47c0-7.849-3.191-15.208-8.961-20.593
			c-5.328-4.972-12.465-7.542-19.753-7.542h-7.825v-57.361h8.039c3.371,0,6.695,1.154,9.162,3.45
			c2.601,2.421,4.066,5.714,4.128,9.239c0.066,3.702,2.514,7.034,6.155,7.706c4.838,0.893,9.055-2.795,9.055-7.47
			c0-7.849-3.191-15.208-8.961-20.593c-5.328-4.972-12.465-7.542-19.753-7.542h-7.825v-57.361h8.039c3.371,0,6.695,1.154,9.162,3.45
			c2.601,2.421,4.066,5.714,4.128,9.239c0.066,3.702,2.514,7.034,6.155,7.706c4.838,0.893,9.055-2.795,9.055-7.47
			c0-7.849-3.191-15.208-8.961-20.593c-5.328-4.972-12.465-7.542-19.753-7.542h-7.825v-57.361h8.039c3.371,0,6.695,1.154,9.162,3.45
			c2.601,2.421,4.066,5.714,4.128,9.239c0.066,3.702,2.514,7.034,6.155,7.706c4.838,0.893,9.055-2.795,9.055-7.47
			c0-7.849-3.191-15.208-8.961-20.593c-5.328-4.972-12.465-7.542-19.753-7.542h-7.825v-57.361h8.039c3.371,0,6.695,1.154,9.162,3.45
			c2.601,2.421,4.066,5.714,4.128,9.239c0.066,3.702,2.514,7.034,6.155,7.706c4.838,0.893,9.055-2.795,9.055-7.47
			c0-7.849-3.191-15.208-8.961-20.593c-5.328-4.972-12.465-7.542-19.753-7.542h-7.825V37.519h8.039c3.371,0,6.695,1.154,9.162,3.45
			c2.601,2.421,4.066,5.714,4.128,9.239c0.066,3.702,2.514,7.034,6.155,7.706c4.838,0.893,9.055-2.795,9.055-7.47
			c0-7.849-3.191-15.208-8.96-20.593c-5.328-4.972-12.465-7.542-19.753-7.542h-4.062c3.314-4.309,8.505-7.103,14.349-7.103h35.159
			v44.518c0,4.199,3.405,7.604,7.604,7.604c4.199,0,7.604-3.405,7.604-7.604V15.208h251.655c7.415,0,13.427,6.011,13.427,13.427
			V389.099z"/>
	</g>
</g>
<g>
	<g>
		<path d="M371.758,126.636H224.925c-16.118,0-29.233,13.114-29.233,29.233v63.193c0,16.118,13.114,29.233,29.233,29.233h146.833
			c16.118,0,29.232-13.114,29.232-29.233v-63.193C400.989,139.751,387.877,126.636,371.758,126.636z M385.781,219.062
			c0,7.733-6.291,14.025-14.024,14.025H224.925c-7.734,0-14.025-6.292-14.025-14.025v-63.193c0-7.733,6.291-14.025,14.025-14.025
			h146.833c7.733,0,14.024,6.292,14.024,14.025V219.062z"/>
	</g>
</g>
<g>
</g>
<g>
</g>
<g>
</g>
<g>
</g>
<g>
</g>
<g>
</g>
<g>
</g>
<g>
</g>
<g>
</g>
<g>
</g>
<g>
</g>
<g>
</g>
<g>
</g>
<g>
</g>
<g>
</g>
</svg>
