<?xml version="1.0" encoding="iso-8859-1"?>
<!-- Generator: Adobe Illustrator 19.0.0, SVG Export Plug-In . SVG Version: 6.00 Build 0)  -->
<svg version="1.1" id="Capa_1" xmlns="http://www.w3.org/2000/svg" xmlns:xlink="http://www.w3.org/1999/xlink" x="0px" y="0px"
	 viewBox="0 0 512 512" style="enable-background:new 0 0 512 512;" xml:space="preserve">
<g>
	<g>
		<path d="M425.418,462.899h-1.413v-97.593h0.854c13.734,0,25.337-11.239,25.105-24.971c-0.225-13.344-11.151-24.129-24.547-24.129
			h-1.413v-97.593h1.414c13.396,0,24.321-10.786,24.547-24.129c0.232-13.732-11.371-24.971-25.105-24.971h-0.854V71.921h0.855
			c13.734,0,25.336-11.239,25.104-24.971c-0.226-13.344-11.151-24.129-24.547-24.129h-28.696V7.607c0-4.201-3.406-7.607-7.607-7.607
			h-77.587c-4.201,0-7.607,3.406-7.607,7.607V22.82H87.14c-13.734,0-25.337,11.239-25.105,24.972
			c0.226,13.344,11.151,24.128,24.547,24.128h1.419v97.593H87.14c-13.734,0-25.337,11.239-25.105,24.971
			c0.225,13.344,11.151,24.129,24.547,24.129h1.419v97.593H87.14c-13.734,0-25.337,11.239-25.105,24.971
			c0.225,13.344,11.151,24.129,24.547,24.129h1.419v11.257c0,4.201,3.406,7.607,7.607,7.607c4.201,0,7.607-3.406,7.607-7.607
			v-11.257h305.577v97.593H103.215v-50.835c0-4.201-3.406-7.607-7.607-7.607s-7.607,3.406-7.607,7.607v50.835H87.14
			c-13.734,0-25.337,11.239-25.105,24.971C62.26,501.214,73.185,512,86.582,512H424.86c13.734,0,25.337-11.239,25.105-24.971
			C449.74,473.685,438.815,462.899,425.418,462.899z M319.135,15.214h62.373v7.606h-62.373V15.214z M86.582,56.707
			c-5.147,0-9.336-4.188-9.336-9.336c0-5.148,4.189-9.336,9.336-9.336h224.947h77.587h36.303c5.148,0,9.336,4.188,9.336,9.336
			s-4.188,9.336-9.336,9.336H86.582z M86.582,203.401c-5.359-0.001-9.679-4.541-9.315-9.976c0.332-4.957,4.677-8.697,9.645-8.697
			h208.86c4.201,0,7.607-3.406,7.607-7.607c0-4.201-3.406-7.607-7.607-7.607H103.215V71.921h305.577v97.593h-77.52
			c-4.201,0-7.607,3.406-7.607,7.607c0,4.201,3.406,7.607,7.607,7.607h93.817c4.968,0,9.312,3.741,9.645,8.697
			c0.364,5.436-3.955,9.976-9.315,9.976H86.582z M408.791,218.614v97.593H103.215v-97.593H408.791z M86.582,350.093
			c-5.147,0-9.336-4.188-9.336-9.336s4.189-9.336,9.336-9.336h338.837c5.148,0,9.336,4.188,9.336,9.336s-4.188,9.336-9.336,9.336
			H86.582z M425.418,496.786H86.582c-5.147,0-9.336-4.188-9.336-9.336c0-5.148,4.189-9.336,9.336-9.336h9.017
			c0.003,0,0.006,0,0.01,0h320.791c0.003,0,0.006,0,0.01,0h9.01c5.147,0,9.335,4.188,9.335,9.336
			C434.755,492.598,430.567,496.786,425.418,496.786z"/>
	</g>
</g>
<g>
</g>
<g>
</g>
<g>
</g>
<g>
</g>
<g>
</g>
<g>
</g>
<g>
</g>
<g>
</g>
<g>
</g>
<g>
</g>
<g>
</g>
<g>
</g>
<g>
</g>
<g>
</g>
<g>
</g>
</svg>
