<?xml version="1.0" encoding="iso-8859-1"?>
<!-- Generator: Adobe Illustrator 19.0.0, SVG Export Plug-In . SVG Version: 6.00 Build 0)  -->
<svg version="1.1" id="Capa_1" xmlns="http://www.w3.org/2000/svg" xmlns:xlink="http://www.w3.org/1999/xlink" x="0px" y="0px"
	 viewBox="0 0 511.999 511.999" style="enable-background:new 0 0 511.999 511.999;" xml:space="preserve">
<g>
	<g>
		<path d="M171.95,188.438l-30.186-35.051c-1.445-1.678-3.547-2.642-5.762-2.642c-0.001,0-0.002,0-0.003,0
			c-2.215,0.001-4.319,0.967-5.764,2.647l-29.813,34.677c-2.447,2.848-2.451,7.057-0.006,9.906l30.061,35.052
			c1.443,1.681,3.545,2.65,5.76,2.654c0.005,0,0.009,0,0.013,0c2.21,0,4.311-0.962,5.756-2.635l29.937-34.678
			C174.407,195.517,174.41,191.293,171.95,188.438z M136.271,216.419l-20.057-23.388l19.795-23.025l20.14,23.387L136.271,216.419z"
			/>
	</g>
</g>
<g>
	<g>
		<path d="M231.828,258.044l-30.062-34.927c-1.444-1.677-3.545-2.642-5.758-2.643c-0.002,0-0.004,0-0.006,0
			c-2.21,0-4.311,0.962-5.756,2.635l-29.937,34.677c-2.463,2.852-2.465,7.077-0.006,9.931l30.187,35.052
			c1.445,1.678,3.547,2.642,5.762,2.642c0.003,0,0.007,0,0.01,0c2.217-0.003,4.323-0.973,5.766-2.657l29.813-34.803
			C234.283,265.099,234.278,260.891,231.828,258.044z M196.235,286.137l-20.13-23.376l19.888-23.037l20.048,23.292L196.235,286.137z
			"/>
	</g>
</g>
<g>
	<g>
		<path d="M291.825,327.771L261.64,292.72c-1.445-1.678-3.547-2.642-5.762-2.642c-0.003,0-0.007,0-0.01,0
			c-2.217,0.003-4.323,0.973-5.766,2.657l-29.813,34.802c-2.446,2.857-2.437,7.074,0.021,9.92l30.188,34.927
			c1.445,1.671,3.544,2.632,5.754,2.632c0.003,0,0.007,0,0.01,0c2.213-0.003,4.314-0.969,5.757-2.647l29.812-34.678
			C294.282,334.838,294.281,330.621,291.825,327.771z M256.236,355.765l-20.139-23.303l19.796-23.11l20.139,23.386L256.236,355.765z
			"/>
	</g>
</g>
<g>
	<g>
		<path d="M171.942,327.761l-30.186-34.927c-1.445-1.671-3.544-2.632-5.754-2.632c-0.003,0-0.007,0-0.01,0
			c-2.213,0.003-4.314,0.969-5.757,2.647l-29.813,34.677c-2.452,2.852-2.451,7.068,0.003,9.918l30.061,34.928
			c1.444,1.677,3.545,2.642,5.758,2.643c0.002,0,0.004,0,0.006,0c2.21,0,4.311-0.962,5.756-2.635l29.937-34.678
			C174.41,334.847,174.409,330.615,171.942,327.761z M136.261,355.765l-20.041-23.283l19.798-23.028l20.124,23.283L136.261,355.765z
			"/>
	</g>
</g>
<g>
	<g>
		<path d="M351.711,258.178l-30.062-35.051c-1.444-1.683-3.551-2.652-5.767-2.653c-0.002,0-0.003,0-0.005,0
			c-2.216,0-4.322,0.967-5.767,2.647l-29.813,34.677c-2.448,2.848-2.451,7.056-0.006,9.907l30.062,35.052
			c1.444,1.683,3.551,2.652,5.767,2.653c0.002,0,0.003,0,0.005,0c2.216,0,4.322-0.966,5.767-2.647l29.813-34.678
			C354.153,265.237,354.155,261.029,351.711,258.178z M316.132,286.135l-20.046-23.374l19.783-23.012l20.046,23.374L316.132,286.135
			z"/>
	</g>
</g>
<g>
	<g>
		<path d="M231.836,118.72l-30.062-35.051c-1.444-1.683-3.551-2.652-5.767-2.653c-0.002,0-0.003,0-0.005,0
			c-2.216,0-4.322,0.966-5.767,2.647l-29.813,34.678c-2.448,2.848-2.451,7.056-0.006,9.907l30.062,35.051
			c1.444,1.683,3.551,2.652,5.767,2.653c0.002,0,0.003,0,0.005,0c2.216,0,4.322-0.966,5.767-2.647l29.813-34.678
			C234.279,125.78,234.281,121.571,231.836,118.72z M196.259,146.676l-20.046-23.374l19.784-23.012l20.046,23.374L196.259,146.676z"
			/>
	</g>
</g>
<g>
	<g>
		<path d="M291.824,188.438l-30.186-35.051c-1.445-1.678-3.547-2.642-5.762-2.642c-0.001,0-0.002,0-0.003,0
			c-2.215,0.001-4.319,0.967-5.764,2.647l-29.813,34.677c-2.451,2.852-2.451,7.069,0.005,9.919l30.187,35.052
			c1.445,1.678,3.547,2.642,5.762,2.642c0.001,0,0.002,0,0.003,0c2.215-0.001,4.32-0.967,5.764-2.647l29.812-34.678
			C294.281,195.505,294.28,191.288,291.824,188.438z M256.247,216.419l-20.151-23.398l19.787-23.015l20.149,23.398L256.247,216.419z
			"/>
	</g>
</g>
<g>
	<g>
		<path d="M411.701,327.773l-30.061-34.927c-1.444-1.677-3.545-2.642-5.758-2.643c-0.002,0-0.004,0-0.006,0
			c-2.21,0-4.311,0.962-5.756,2.635l-29.937,34.677c-2.462,2.852-2.466,7.075-0.008,9.93l30.062,34.927
			c1.444,1.677,3.545,2.642,5.758,2.643c0.002,0,0.004,0,0.006,0c2.21,0,4.312-0.962,5.756-2.635l29.936-34.678
			C414.155,334.851,414.159,330.627,411.701,327.773z M376.01,355.765l-20.032-23.273l19.889-23.039l20.032,23.273L376.01,355.765z"
			/>
	</g>
</g>
<g>
	<g>
		<path d="M411.71,188.451l-30.061-35.051c-1.443-1.681-3.545-2.65-5.76-2.654c-0.005,0-0.009,0-0.013,0
			c-2.21,0-4.311,0.962-5.756,2.635l-29.937,34.677c-2.463,2.852-2.465,7.077-0.006,9.931l30.187,35.052
			c1.445,1.678,3.547,2.642,5.762,2.642c0.001,0,0.002,0,0.003,0c2.215-0.001,4.32-0.967,5.764-2.647l29.812-34.678
			C414.152,195.509,414.155,191.3,411.71,188.451z M376.121,216.419l-20.141-23.388l19.878-23.025l20.057,23.388L376.121,216.419z"
			/>
	</g>
</g>
<g>
	<g>
		<path d="M351.711,118.72l-30.062-35.051c-1.444-1.683-3.551-2.652-5.767-2.653c-0.002,0-0.003,0-0.005,0
			c-2.216,0-4.322,0.966-5.767,2.647l-29.813,34.678c-2.448,2.848-2.451,7.056-0.006,9.907l30.062,35.051
			c1.444,1.683,3.551,2.652,5.767,2.653c0.002,0,0.003,0,0.005,0c2.216,0,4.322-0.966,5.767-2.647l29.813-34.678
			C354.153,125.78,354.155,121.571,351.711,118.72z M316.133,146.676l-20.046-23.374l19.784-23.012l20.046,23.374L316.133,146.676z"
			/>
	</g>
</g>
<g>
	<g>
		<path d="M457.255,0h-61.911c-4.199,0-7.604,3.405-7.604,7.604s3.405,7.604,7.604,7.604h61.911c3.912,0,7.084,3.171,7.084,7.084
			v28.829c0,3.911-3.171,7.083-7.083,7.083H54.748c-3.912,0-7.084-3.171-7.084-7.084V22.292c0-3.912,3.171-7.084,7.084-7.084h305.11
			c4.199,0,7.604-3.405,7.604-7.604S364.058,0,359.858,0H54.748C42.436,0,32.455,9.98,32.455,22.292v28.829
			c0,12.311,9.98,22.291,22.291,22.291h0.734l23.249,326.03c0.299,4.189,3.937,7.342,8.126,7.044h0.001
			c4.189-0.299,7.342-3.937,7.043-8.125L86.705,297.47l25.251-29.388c2.447-2.848,2.449-7.055,0.005-9.906l-30.06-35.049
			c-0.169-0.198-0.35-0.383-0.537-0.562l-4.042-56.681c1.863-0.232,3.588-1.144,4.827-2.583l29.807-34.674
			c2.448-2.848,2.451-7.057,0.006-9.907L81.901,83.67c-1.443-1.681-3.544-2.649-5.76-2.653c-0.004,0-0.009,0-0.013,0
			c-1.738,0-3.402,0.602-4.74,1.669l-0.661-9.273h370.549l-0.668,9.369c-1.354-1.124-3.062-1.763-4.848-1.765h-0.006
			c-2.215,0-4.321,0.966-5.766,2.646l-29.818,34.674c-2.45,2.848-2.452,7.056-0.007,9.908l30.06,35.049
			c1.156,1.347,2.74,2.227,4.463,2.53l-4.037,56.623c-0.232,0.211-0.455,0.432-0.662,0.672l-29.819,34.675
			c-2.453,2.852-2.452,7.068,0.002,9.919l25.167,29.236l-11.242,157.692c-0.323,4.524-4.126,8.068-8.658,8.074H106.551
			c-4.527-0.005-8.324-3.549-8.646-8.073l-1.497-21.006c-0.299-4.189-3.937-7.342-8.125-7.044h-0.001
			c-4.189,0.299-7.342,3.937-7.044,8.125l1.497,21.005c0.689,9.67,7.169,17.69,15.869,20.798v10.97
			c0,13.536,10.973,24.509,24.509,24.509h265.772c13.536,0,24.509-10.973,24.509-24.509v-10.972
			c8.701-3.109,15.182-11.127,15.872-20.796l27.256-382.31h0.731c12.311,0,22.292-9.98,22.292-22.292V22.292
			C479.548,9.98,469.567,0,457.255,0z M96.167,263.121l-10.998,12.801l-1.993-27.948L96.167,263.121z M76.109,100.278l20.057,23.387
			l-19.793,23.026l-0.458-0.531l-3.007-42.174L76.109,100.278z M398.188,487.491c0.001,5.129-4.172,9.301-9.3,9.301H123.116
			c-5.129,0-9.301-4.172-9.301-9.301v-9.568h284.373V487.491z M426.876,275.421l-10.907-12.671l12.878-14.976L426.876,275.421z
			 M436.058,146.609l-0.054,0.063l-20.045-23.372l19.786-23.007l3.338,3.894L436.058,146.609z"/>
	</g>
</g>
<g>
</g>
<g>
</g>
<g>
</g>
<g>
</g>
<g>
</g>
<g>
</g>
<g>
</g>
<g>
</g>
<g>
</g>
<g>
</g>
<g>
</g>
<g>
</g>
<g>
</g>
<g>
</g>
<g>
</g>
</svg>
