<?xml version="1.0" encoding="iso-8859-1"?>
<!-- Generator: Adobe Illustrator 19.0.0, SVG Export Plug-In . SVG Version: 6.00 Build 0)  -->
<svg version="1.1" id="Capa_1" xmlns="http://www.w3.org/2000/svg" xmlns:xlink="http://www.w3.org/1999/xlink" x="0px" y="0px"
	 viewBox="0 0 512 512" style="enable-background:new 0 0 512 512;" xml:space="preserve">
<g>
	<g>
		<path d="M430.384,325.215c-4.199,0-7.604,3.405-7.604,7.604v56.279v26.475v16.358c0,7.415-6.011,13.427-13.427,13.427h-57.004
			h-28.893H152.629V15.208h41.019c4.199,0,7.604-3.405,7.604-7.604S197.847,0,193.648,0h-86.315
			C88.93,0,74.012,14.918,74.012,33.321v445.358c0,18.404,14.918,33.322,33.322,33.322h302.02c15.814,0,28.635-12.82,28.635-28.634
			v-26.47v-24.964v-16.358v-26.475v-56.279C437.988,328.62,434.584,325.215,430.384,325.215z M323.456,460.566h28.893h57.004
			c4.843,0,9.407-1.213,13.41-3.345c-0.175,7.25-6.115,13.097-13.407,13.097H107.338c-4.624,0-8.972-1.736-12.334-4.872
			c3.237-3.018,7.564-4.881,12.329-4.881H323.456z M125.283,15.208h12.138v430.15h-12.138V15.208z M89.22,33.321
			c0-9.988,8.126-18.113,18.113-18.113h2.742v430.15h-2.742c-6.676,0-12.894,1.981-18.113,5.374V33.321z M422.78,483.366
			c0,7.403-6.022,13.427-13.427,13.427H107.332c-9.464,0-17.245-7.301-18.035-16.565c5.331,3.445,11.541,5.3,18.04,5.3h302.019
			c4.848,0,9.417-1.216,13.424-3.352V483.366z"/>
	</g>
</g>
<g>
	<g>
		<path d="M409.354,0h-180.22c-4.199,0-7.604,3.405-7.604,7.604s3.405,7.604,7.604,7.604h180.22c7.415,0,13.427,6.011,13.427,13.427
			v268.698c0,4.199,3.405,7.604,7.604,7.604s7.604-3.405,7.604-7.604V28.634C437.988,12.82,425.168,0,409.354,0z"/>
	</g>
</g>
<g>
	<g>
		<path d="M356.573,126.636H209.742c-16.118,0-29.233,13.114-29.233,29.233v63.193c0,16.118,13.114,29.233,29.233,29.233h146.831
			c16.118,0,29.233-13.114,29.233-29.233v-63.193C385.806,139.751,372.691,126.636,356.573,126.636z M370.598,219.062
			c0,7.733-6.291,14.025-14.025,14.025H209.742c-7.734,0-14.025-6.292-14.025-14.025v-63.193c0-7.733,6.291-14.025,14.025-14.025
			h146.831c7.734,0,14.025,6.292,14.025,14.025V219.062z"/>
	</g>
</g>
<g>
</g>
<g>
</g>
<g>
</g>
<g>
</g>
<g>
</g>
<g>
</g>
<g>
</g>
<g>
</g>
<g>
</g>
<g>
</g>
<g>
</g>
<g>
</g>
<g>
</g>
<g>
</g>
<g>
</g>
</svg>
