<?xml version="1.0" encoding="iso-8859-1"?>
<!-- Generator: Adobe Illustrator 19.0.0, SVG Export Plug-In . SVG Version: 6.00 Build 0)  -->
<svg version="1.1" id="Capa_1" xmlns="http://www.w3.org/2000/svg" xmlns:xlink="http://www.w3.org/1999/xlink" x="0px" y="0px"
	 viewBox="0 0 512 512" style="enable-background:new 0 0 512 512;" xml:space="preserve">
<g>
	<g>
		<path d="M409.354,0h-40.22h-60.829H107.332C88.959,0,74.012,14.947,74.012,33.321v445.358c0,18.373,14.947,33.322,33.321,33.322
			h302.02c15.79,0,28.636-12.846,28.636-28.634v-26.47v-24.964v-16.358v-26.475V28.634C437.988,12.846,425.143,0,409.354,0z
			 M315.909,15.208h45.621v55.984L343.493,56.64c-1.393-1.123-3.083-1.686-4.774-1.686s-3.381,0.562-4.774,1.686l-18.036,14.552
			V15.208z M89.22,33.321c0-9.988,8.125-18.113,18.113-18.113h35.158v430.15h-35.158c-6.676,0-12.894,1.981-18.113,5.374V33.321z
			 M422.779,483.366c0.001,7.415-6.01,13.427-13.426,13.427H107.332c-9.465,0-17.245-7.301-18.035-16.565
			c5.331,3.445,11.541,5.3,18.039,5.3h40.69c4.199,0,7.604-3.405,7.604-7.604c0-4.199-3.405-7.604-7.604-7.604h-40.689
			c-4.623,0-8.97-1.736-12.334-4.872c3.237-3.018,7.564-4.881,12.33-4.881h216.123h28.894h57.003c4.843,0,9.407-1.213,13.41-3.345
			c-0.175,7.25-6.115,13.097-13.406,13.097H183.514c-4.199,0-7.604,3.405-7.604,7.604c0,4.199,3.405,7.604,7.604,7.604h225.843
			c4.848,0,9.417-1.216,13.423-3.352V483.366z M422.78,389.099v26.475v16.358c0,7.403-6.022,13.427-13.427,13.427H352.35h-28.894
			H157.699V15.208h143.002v71.89c0,2.929,1.682,5.598,4.324,6.861c2.643,1.263,5.776,0.897,8.054-0.943l25.64-20.686l25.641,20.686
			c1.378,1.112,3.069,1.686,4.775,1.686c1.114,0,2.235-0.244,3.279-0.743c2.641-1.263,4.324-3.932,4.324-6.861v-71.89h32.616
			c7.403,0,13.427,6.023,13.427,13.427V389.099z"/>
	</g>
</g>
<g>
	<g>
		<path d="M356.574,126.636h-26.47c-4.199,0-7.604,3.405-7.604,7.604c0,4.199,3.405,7.604,7.604,7.604h26.47
			c7.746,0,14.025,6.279,14.025,14.025v63.193c0,7.745-6.279,14.025-14.025,14.025H209.742c-7.746,0-14.025-6.279-14.025-14.025
			v-63.193c0-7.746,6.279-14.025,14.025-14.025h84.876c4.199,0,7.604-3.405,7.604-7.604c0-4.199-3.405-7.604-7.604-7.604h-84.876
			c-16.145,0-29.233,13.088-29.233,29.233v63.193c0,16.145,13.088,29.233,29.233,29.233h146.834
			c16.145,0,29.233-13.088,29.233-29.233v-63.193C385.807,139.724,372.719,126.636,356.574,126.636z"/>
	</g>
</g>
<g>
</g>
<g>
</g>
<g>
</g>
<g>
</g>
<g>
</g>
<g>
</g>
<g>
</g>
<g>
</g>
<g>
</g>
<g>
</g>
<g>
</g>
<g>
</g>
<g>
</g>
<g>
</g>
<g>
</g>
</svg>
