<?xml version="1.0" encoding="iso-8859-1"?>
<!-- Generator: Adobe Illustrator 19.0.0, SVG Export Plug-In . SVG Version: 6.00 Build 0)  -->
<svg version="1.1" id="Capa_1" xmlns="http://www.w3.org/2000/svg" xmlns:xlink="http://www.w3.org/1999/xlink" x="0px" y="0px"
	 viewBox="0 0 512 512" style="enable-background:new 0 0 512 512;" xml:space="preserve">
<g>
	<g>
		<path d="M398.186,366.783c4.198,0,7.603-3.405,7.603-7.604v-93.799c11.106-3.37,19.214-13.7,19.214-25.893v-97.174
			c0-24.56-19.909-44.469-44.469-44.469h-50.359c-4.199,0-7.604,3.405-7.604,7.604s3.405,7.604,7.604,7.604h50.359
			c16.161,0,29.261,13.101,29.261,29.261v97.174c0,6.543-5.305,11.848-11.848,11.848h-14.896c-14.987,0-27.166,12.248-27.055,27.262
			c0.049,6.463-5.386,11.642-11.849,11.642h-14.896c-14.942,0-27.056,12.114-27.056,27.056v40.278
			c0,10.449-8.109,19.36-18.551,19.755c-10.977,0.416-20.041-8.395-20.041-19.282v-40.751c0-14.942-12.114-27.056-27.056-27.056
			h-14.896c-6.543,0-11.848-5.305-11.848-11.848v-0.888c0-19.305-15.798-35.515-35.1-35.186
			c-18.751,0.319-33.908,15.672-33.908,34.499v23.283c0,10.45-8.11,19.361-18.552,19.755c-10.977,0.415-20.04-8.395-20.04-19.282
			V142.314c0-16.161,13.101-29.261,29.261-29.261h163.22c4.199,0,7.604-3.405,7.604-7.604c0-4.199-3.405-7.604-7.604-7.604h-31.081
			V82.82c8.306-1.78,15.776-6.461,21.167-13.565c3.766-4.962,6.154-10.881,6.901-17.065c1.36-11.251-2.413-22.08-10.255-29.922
			l-20.041-20.04C259.951,0.801,258.017,0,256.001,0c-2.017,0-3.95,0.801-5.378,2.227l-20.04,20.041
			c-7.835,7.835-11.608,18.649-10.259,29.889c0.742,6.187,3.127,12.11,6.89,17.077c5.392,7.117,12.869,11.806,21.184,13.588v15.023
			h-116.93c-24.56,0-44.47,19.91-44.47,44.47v158.259c0,13.537,7.84,25.272,19.215,30.92v130.082c0,0.622-0.497,1.142-1.119,1.142
			c-9.024-0.012-16.371,7.327-16.371,16.349v16.586c0,9.029,7.32,16.349,16.349,16.349h301.858c9.029,0,16.35-7.32,16.35-16.35
			v-16.586c0-9.022-7.346-16.361-16.371-16.349c-0.622,0.001-1.119-0.519-1.119-1.142v-66.909c0-4.199-3.405-7.604-7.604-7.604
			c-4.199,0-7.604,3.405-7.604,7.604v66.909c0,9.022,7.345,16.362,16.371,16.349c0.622-0.001,1.119,0.519,1.119,1.142v16.586
			c0,0.631-0.511,1.142-1.142,1.142H105.071c-0.63,0-1.141-0.511-1.141-1.141v-16.587c0-0.622,0.497-1.142,1.119-1.142
			c9.024,0.012,16.371-7.327,16.371-16.349v-126.5c0.027,0,0.054,0.002,0.082,0.002c19.025,0,34.504-15.479,34.504-34.504V277.29
			c0-10.45,8.11-19.361,18.552-19.755c10.977-0.415,20.04,8.395,20.04,19.282v1.576c0,14.942,12.114,27.056,27.056,27.056h14.896
			c6.543,0,11.848,5.305,11.848,11.848v40.064c0,19.305,15.797,35.515,35.099,35.186c18.751-0.318,33.908-15.672,33.908-34.499
			v-40.751c0-6.544,5.305-11.848,11.848-11.848h14.896c14.988,0,27.169-12.25,27.056-27.263
			c-0.049-6.463,5.386-11.641,11.848-11.641h7.53v92.636C390.582,363.379,393.986,366.783,398.186,366.783z M241.337,62.349
			c-3.918-3.916-6.075-9.124-6.075-14.663c0-5.54,2.156-10.747,6.074-14.664l14.665-14.664l14.664,14.664
			c3.917,3.917,6.073,9.125,6.073,14.664c0,5.539-2.156,10.747-6.074,14.664C262.578,70.434,249.423,70.434,241.337,62.349z"/>
	</g>
</g>
<g>
</g>
<g>
</g>
<g>
</g>
<g>
</g>
<g>
</g>
<g>
</g>
<g>
</g>
<g>
</g>
<g>
</g>
<g>
</g>
<g>
</g>
<g>
</g>
<g>
</g>
<g>
</g>
<g>
</g>
</svg>
