<?xml version="1.0" encoding="iso-8859-1"?>
<!-- Generator: Adobe Illustrator 19.0.0, SVG Export Plug-In . SVG Version: 6.00 Build 0)  -->
<svg version="1.1" id="Capa_1" xmlns="http://www.w3.org/2000/svg" xmlns:xlink="http://www.w3.org/1999/xlink" x="0px" y="0px"
	 viewBox="0 0 512 512" style="enable-background:new 0 0 512 512;" xml:space="preserve">
<g>
	<g>
		<path d="M495.492,381.105c-4.199,0-7.604,3.405-7.604,7.604v59.525h-0.001c0,26.818-21.74,48.558-48.558,48.558H113.932
			c13.754-11.705,22.503-29.124,22.503-48.558V218.472v-99.438c0-4.199-3.405-7.604-7.604-7.604c-4.199,0-7.604,3.405-7.604,7.604
			v91.834H16.508c-4.199,0-7.604,3.405-7.604,7.604v229.762C8.904,483.452,37.453,512,72.67,512h366.66
			c35.216,0,63.766-28.548,63.766-63.766v-59.525C503.096,384.51,499.691,381.105,495.492,381.105z M72.67,496.792
			c-26.775,0-48.558-21.783-48.558-48.558V226.076h97.115v28.494H54.714c-4.199,0-7.604,3.405-7.604,7.604s3.405,7.604,7.604,7.604
			h66.513v21.859H54.714c-4.199,0-7.604,3.405-7.604,7.604s3.405,7.604,7.604,7.604h66.513v21.859H54.714
			c-4.199,0-7.604,3.405-7.604,7.604s3.405,7.604,7.604,7.604h66.513v21.859H54.714c-4.199,0-7.604,3.405-7.604,7.604
			s3.405,7.604,7.604,7.604h66.513v21.86H54.714c-4.199,0-7.604,3.405-7.604,7.604c0,4.199,3.405,7.604,7.604,7.604h66.513v21.859
			H54.714c-4.199,0-7.604,3.405-7.604,7.604c0,4.199,3.405,7.604,7.604,7.604h66.018C117.379,478.641,97.109,496.792,72.67,496.792z
			"/>
	</g>
</g>
<g>
	<g>
		<path d="M495.491,0h-366.66c-4.199,0-7.604,3.405-7.604,7.604v75.944c0,4.199,3.405,7.604,7.604,7.604
			c4.199,0,7.604-3.405,7.604-7.604v-68.34h351.452v338.016c0,4.199,3.405,7.604,7.604,7.604s7.604-3.405,7.604-7.604V7.604
			C503.095,3.405,499.69,0,495.491,0z"/>
	</g>
</g>
<g>
	<g>
		<path d="M455.555,75.945H168.767c-4.199,0-7.604,3.405-7.604,7.604c0,4.199,3.405,7.604,7.604,7.604h286.788
			c4.199,0,7.604-3.405,7.604-7.604C463.159,79.35,459.754,75.945,455.555,75.945z"/>
	</g>
</g>
<g>
	<g>
		<path d="M215.281,38.435h-46.514c-4.199,0-7.604,3.405-7.604,7.604s3.405,7.604,7.604,7.604h46.514
			c4.199,0,7.604-3.405,7.604-7.604S219.48,38.435,215.281,38.435z"/>
	</g>
</g>
<g>
	<g>
		<path d="M455.555,38.435h-24.332c-4.199,0-7.604,3.405-7.604,7.604s3.405,7.604,7.604,7.604h24.332
			c4.199,0,7.604-3.405,7.604-7.604S459.754,38.435,455.555,38.435z"/>
	</g>
</g>
<g>
	<g>
		<path d="M408.412,38.435h-24.332c-4.199,0-7.604,3.405-7.604,7.604s3.405,7.604,7.604,7.604h24.332
			c4.199,0,7.604-3.405,7.604-7.604S412.612,38.435,408.412,38.435z"/>
	</g>
</g>
<g>
	<g>
		<path d="M455.558,143.369H327.365c-4.199,0-7.604,3.405-7.604,7.604s3.405,7.604,7.604,7.604h128.193
			c4.199,0,7.604-3.405,7.604-7.604S459.757,143.369,455.558,143.369z"/>
	</g>
</g>
<g>
	<g>
		<path d="M296.949,143.369H168.767c-4.199,0-7.604,3.405-7.604,7.604s3.405,7.604,7.604,7.604h128.182
			c4.199,0,7.604-3.405,7.604-7.604S301.149,143.369,296.949,143.369z"/>
	</g>
</g>
<g>
	<g>
		<path d="M455.558,180.436H327.365c-4.199,0-7.604,3.405-7.604,7.604s3.405,7.604,7.604,7.604h128.193
			c4.199,0,7.604-3.405,7.604-7.604S459.757,180.436,455.558,180.436z"/>
	</g>
</g>
<g>
	<g>
		<path d="M296.949,180.436H168.767c-4.199,0-7.604,3.405-7.604,7.604s3.405,7.604,7.604,7.604h128.182
			c4.199,0,7.604-3.405,7.604-7.604S301.149,180.436,296.949,180.436z"/>
	</g>
</g>
<g>
	<g>
		<path d="M296.949,217.503H168.767c-4.199,0-7.604,3.405-7.604,7.604s3.405,7.604,7.604,7.604h128.182
			c4.199,0,7.604-3.405,7.604-7.604S301.149,217.503,296.949,217.503z"/>
	</g>
</g>
<g>
	<g>
		<path d="M296.949,254.569H168.767c-4.199,0-7.604,3.405-7.604,7.604s3.405,7.604,7.604,7.604h128.182
			c4.199,0,7.604-3.405,7.604-7.604S301.149,254.569,296.949,254.569z"/>
	</g>
</g>
<g>
	<g>
		<path d="M296.949,291.636H168.767c-4.199,0-7.604,3.405-7.604,7.604s3.405,7.604,7.604,7.604h128.182
			c4.199,0,7.604-3.405,7.604-7.604S301.149,291.636,296.949,291.636z"/>
	</g>
</g>
<g>
	<g>
		<path d="M463.162,225.107c0-4.199-3.405-7.604-7.604-7.604H327.365c-4.199,0-7.604,3.405-7.604,7.604v111.2
			c0,4.199,3.405,7.604,7.604,7.604h128.193c4.199,0,7.604-3.405,7.604-7.604L463.162,225.107L463.162,225.107z M447.954,328.703
			H334.969v-95.992h112.985V328.703z"/>
	</g>
</g>
<g>
	<g>
		<path d="M296.949,328.703H168.767c-4.199,0-7.604,3.405-7.604,7.604c0,4.199,3.405,7.604,7.604,7.604h128.182
			c4.199,0,7.604-3.405,7.604-7.604C304.553,332.108,301.149,328.703,296.949,328.703z"/>
	</g>
</g>
<g>
	<g>
		<path d="M455.558,365.771H327.365c-4.199,0-7.604,3.405-7.604,7.604c0,4.199,3.405,7.604,7.604,7.604h128.193
			c4.199,0,7.604-3.405,7.604-7.604C463.162,369.175,459.757,365.771,455.558,365.771z"/>
	</g>
</g>
<g>
	<g>
		<path d="M455.558,402.838H327.365c-4.199,0-7.604,3.405-7.604,7.604c0,4.199,3.405,7.604,7.604,7.604h128.193
			c4.199,0,7.604-3.405,7.604-7.604C463.162,406.242,459.757,402.838,455.558,402.838z"/>
	</g>
</g>
<g>
	<g>
		<path d="M455.558,439.904H327.365c-4.199,0-7.604,3.405-7.604,7.604s3.405,7.604,7.604,7.604h128.193
			c4.199,0,7.604-3.405,7.604-7.604S459.757,439.904,455.558,439.904z"/>
	</g>
</g>
<g>
	<g>
		<path d="M296.949,365.771H168.767c-4.199,0-7.604,3.405-7.604,7.604v74.134c0,4.199,3.405,7.604,7.604,7.604h128.182
			c4.199,0,7.604-3.405,7.604-7.604v-74.134C304.553,369.175,301.149,365.771,296.949,365.771z M289.345,439.905H176.371v-58.927
			h112.975V439.905z"/>
	</g>
</g>
<g>
</g>
<g>
</g>
<g>
</g>
<g>
</g>
<g>
</g>
<g>
</g>
<g>
</g>
<g>
</g>
<g>
</g>
<g>
</g>
<g>
</g>
<g>
</g>
<g>
</g>
<g>
</g>
<g>
</g>
</svg>
