<?xml version="1.0" encoding="iso-8859-1"?>
<!-- Generator: Adobe Illustrator 19.0.0, SVG Export Plug-In . SVG Version: 6.00 Build 0)  -->
<svg version="1.1" id="Capa_1" xmlns="http://www.w3.org/2000/svg" xmlns:xlink="http://www.w3.org/1999/xlink" x="0px" y="0px"
	 viewBox="0 0 512 512" style="enable-background:new 0 0 512 512;" xml:space="preserve">
<g>
	<g>
		<path d="M208.225,252.729h233.758c12.271,0,23.394,7.714,27.686,19.22c1.21,3.212,1.832,6.611,1.857,10.106l0.005,135.439
			c0,4.135,3.352,7.488,7.488,7.488s7.488-3.352,7.488-7.488l0.005-135.217c-0.001-0.074-0.006-0.148-0.006-0.222V44.518
			C486.505,19.931,466.573,0,441.987,0h-50.39c-12.846,0-25.06,5.54-33.507,15.199L326.012,51.85
			c-5.604,6.408-13.709,10.084-22.234,10.084H182.32c-4.136,0-7.49,3.353-7.49,7.49c0,4.136,3.353,7.49,7.49,7.49h121.459
			l167.746,0.003v71.93h-87.498h-14.719c-8.529,0-16.635-3.677-22.243-10.091l-32.068-36.642
			c-8.449-9.666-20.661-15.209-33.508-15.209h-50.981c-12.844,0-25.057,5.543-33.505,15.206l-32.073,36.649
			c-5.604,6.411-13.71,10.088-22.24,10.088h-22.284H40.473v-42.385c0-3.583,0.624-7.055,1.863-10.343
			c4.288-11.488,15.411-19.206,27.676-19.206h77.355c4.136,0,7.49-3.353,7.49-7.49c0-4.136-3.353-7.49-7.49-7.49H70.012
			c-18.484,0-35.245,11.633-41.7,28.924c-1.87,4.959-2.818,10.21-2.818,15.604v113.679c0,0.064-0.005,0.128-0.005,0.192v204.647
			h0.005v57.41c0,16.352,13.257,29.609,29.609,29.609h401.793c16.352,0,29.608-13.257,29.608-29.608v-29.948
			c0-4.136-3.353-7.49-7.49-7.49c-4.136,0-7.49,3.353-7.49,7.49v29.948c0,8.08-6.55,14.63-14.63,14.63H55.103
			c-8.08,0-14.629-6.55-14.629-14.629V252.729H208.225z M337.082,61.935c0.067-0.075,0.138-0.146,0.204-0.221l32.078-36.651
			c5.604-6.409,13.708-10.084,22.233-10.084h50.391c16.287,0,29.538,13.252,29.538,29.539v17.42L337.082,61.935z M176.205,148.621
			l32.074-36.648c5.605-6.411,13.708-10.089,22.23-10.089h50.981c8.523,0,16.625,3.677,22.233,10.091l32.068,36.642
			c0.069,0.079,0.143,0.151,0.212,0.229H175.996C176.064,148.77,176.137,148.698,176.205,148.621z M40.474,163.828h79.933h22.284
			h226.618h14.719h87.498v85.185c-7.996-7.08-18.457-11.263-29.543-11.263H208.225c-8.529,0-16.635-3.677-22.242-10.091
			l-32.068-36.642c-8.45-9.666-20.662-15.208-33.508-15.208h-50.39c-11.328,0-21.676,4.259-29.543,11.251V163.828z M40.473,237.749
			v-17.608c0.104-16.205,13.315-29.355,29.543-29.355h50.39c8.522,0,16.624,3.677,22.233,10.091l32.068,36.642
			c0.069,0.079,0.143,0.152,0.212,0.23H40.473z"/>
	</g>
</g>
<g>
</g>
<g>
</g>
<g>
</g>
<g>
</g>
<g>
</g>
<g>
</g>
<g>
</g>
<g>
</g>
<g>
</g>
<g>
</g>
<g>
</g>
<g>
</g>
<g>
</g>
<g>
</g>
<g>
</g>
</svg>
