<?xml version="1.0" encoding="iso-8859-1"?>
<!-- Generator: Adobe Illustrator 19.0.0, SVG Export Plug-In . SVG Version: 6.00 Build 0)  -->
<svg version="1.1" id="Capa_1" xmlns="http://www.w3.org/2000/svg" xmlns:xlink="http://www.w3.org/1999/xlink" x="0px" y="0px"
	 viewBox="0 0 512 512" style="enable-background:new 0 0 512 512;" xml:space="preserve">
<g>
	<g>
		<path d="M491.589,99.295h-25.955V25.096c0-12.72-9.872-23.568-22.583-24.05c-13.364-0.506-24.397,10.219-24.397,23.473v74.778
			H361.83V25.094c0-12.72-9.873-23.568-22.584-24.049c-13.364-0.505-24.396,10.22-24.396,23.473v74.778h-25.954
			c-11.273,0-20.412,9.139-20.412,20.412v16.956c0,12.1,7.83,22.399,18.686,26.117v74.881c0,2.232,0.985,4.35,2.69,5.789
			l44.073,37.175v25.546c0,4.183,3.391,7.573,7.573,7.573h23.878v80.678c0,36.857-29.268,67.614-66.122,68.176
			c-37.511,0.573-68.208-29.775-68.208-67.157V215.057c0-63.75-51.104-116.432-114.853-116.798C52.194,97.89,0,149.858,0,213.786
			v289.611c0,4.183,3.391,7.573,7.573,7.573H40.79c4.183,0,7.573-3.391,7.573-7.573V307.266c0-4.182-3.391-7.573-7.573-7.573
			s-7.573,3.391-7.573,7.573v188.559h-18.07V215.066c0-55.265,44.13-101.121,99.391-101.657
			c55.803-0.541,101.373,44.696,101.373,100.377v180.607c0,45.317,36.186,82.919,81.501,83.357
			c45.758,0.443,83.123-36.651,83.123-82.308v-81.697h18.071v80.418c0,55.265-44.13,101.121-99.391,101.657
			c-55.803,0.541-101.373-44.696-101.373-100.377V214.836c0-45.316-36.186-82.918-81.5-83.357
			c-45.758-0.443-83.125,36.65-83.125,82.308v58.136c0,4.183,3.391,7.573,7.573,7.573s7.573-3.391,7.573-7.573v-57.115
			c0-36.858,29.269-67.614,66.122-68.177c37.511-0.573,68.208,29.775,68.208,67.157v180.385
			c0,63.751,51.105,116.433,114.855,116.798c64.011,0.367,116.202-51.6,116.202-115.527v-81.697h23.88
			c4.182,0,7.573-3.391,7.573-7.573v-25.546l44.073-37.175c1.706-1.439,2.69-3.556,2.69-5.788v-24.307
			c0-4.183-3.391-7.573-7.573-7.573c-4.183,0-7.573,3.391-7.573,7.573v20.786l-41.958,35.391h-90.588l-41.959-35.391V164.27h174.505
			v13.743c0,4.183,3.391,7.573,7.573,7.573s7.573-3.391,7.573-7.573v-14.809C503.518,159.904,512,149.259,512,136.665v-16.957
			C512,108.434,502.861,99.295,491.589,99.295z M349.082,284.68h80.977v13.918h-23.88H372.96h-23.878V284.68z M442.145,16.175
			c4.601,0,8.344,3.743,8.344,8.343v74.778h-16.686V24.518h-0.001C433.802,19.918,437.544,16.175,442.145,16.175z M338.342,16.175
			c4.601,0,8.343,3.743,8.343,8.343v74.778h-16.686V24.518h-0.001C329.998,19.918,333.741,16.175,338.342,16.175z M484.395,149.12
			H296.09c-6.87,0-12.458-5.588-12.458-12.457v-16.957c0-2.903,2.362-5.264,5.265-5.264h33.527h31.833h71.971h31.833h33.528
			c2.902,0,5.264,2.361,5.264,5.264v16.957h0.001C496.853,143.532,491.265,149.12,484.395,149.12z"/>
	</g>
</g>
<g>
</g>
<g>
</g>
<g>
</g>
<g>
</g>
<g>
</g>
<g>
</g>
<g>
</g>
<g>
</g>
<g>
</g>
<g>
</g>
<g>
</g>
<g>
</g>
<g>
</g>
<g>
</g>
<g>
</g>
</svg>
