<?xml version="1.0" encoding="iso-8859-1"?>
<!-- Generator: Adobe Illustrator 19.0.0, SVG Export Plug-In . SVG Version: 6.00 Build 0)  -->
<svg version="1.1" id="Capa_1" xmlns="http://www.w3.org/2000/svg" xmlns:xlink="http://www.w3.org/1999/xlink" x="0px" y="0px"
	 viewBox="0 0 512 512" style="enable-background:new 0 0 512 512;" xml:space="preserve">
<g>
	<g>
		<path d="M486.124,350.787c-10.285-12.056-23.296-21.365-37.776-27.226c35.426-20.903,59.248-59.463,59.248-103.489
			c0-46.915-27.049-87.624-66.366-107.373c9.913-12.228,15.447-27.579,15.447-43.538C456.677,31.026,425.651,0,387.515,0
			c-38.136,0-69.162,31.026-69.162,69.162c0,15.965,5.536,31.318,15.448,43.542c-39.313,19.75-66.358,60.457-66.358,107.369
			c0,44.026,23.822,82.587,59.248,103.489c-14.48,5.86-27.49,15.169-37.774,27.225c-15.051,17.644-23.34,40.15-23.34,63.372v90.181
			c0,4.23,3.428,7.659,7.659,7.659h228.571c4.231,0,7.659-3.429,7.659-7.659V414.16
			C509.465,390.937,501.175,368.431,486.124,350.787z M333.67,69.162c0-29.69,24.154-53.845,53.845-53.845
			s53.846,24.155,53.846,53.845c0,13.947-5.438,27.292-15.028,37.274c-12.181-4.172-25.236-6.441-38.813-6.441
			c-13.58,0-26.638,2.27-38.821,6.444C339.108,96.462,333.67,83.115,333.67,69.162z M298.948,275.948
			c-10.245-16.183-16.185-35.347-16.185-55.876c-0.002-57.764,46.992-104.759,104.757-104.759
			c57.764,0,104.759,46.995,104.759,104.759c0,20.535-5.943,39.706-16.194,55.891c0-0.048,0.003-0.095,0.003-0.143
			c0-26.784-11.935-51.846-32.743-68.76c-2.814-2.287-6.847-2.287-9.661,0c-13.188,10.719-29.15,16.386-46.16,16.386
			s-32.973-5.667-46.158-16.386c-2.816-2.287-6.848-2.289-9.662,0c-20.818,16.921-32.757,41.983-32.757,68.76
			C298.945,275.863,298.948,275.905,298.948,275.948z M317.743,298.138c-2.302-7.174-3.482-14.669-3.482-22.317
			c0-20.161,8.187-39.148,22.65-52.952c14.78,10.289,32.515,15.896,50.612,15.896c18.096,0,35.831-5.605,50.613-15.896
			c14.454,13.799,22.635,32.786,22.635,52.952c0,7.655-1.182,15.153-3.484,22.327c-18.539,16.583-42.994,26.683-69.766,26.683
			C360.741,324.832,336.283,314.729,317.743,298.138z M347.546,333.3c10.213,3.616,21.055,5.886,32.315,6.598v17.566
			c-19.252-1.193-37.677-6.877-54.159-16.686C332.457,337.336,339.785,334.796,347.546,333.3z M298.327,496.682h-17.433v-26.051
			h17.433V496.682z M330.94,496.682h-17.297v-26.051h17.297V496.682z M315.378,435.299h25.527v20.014h-60.013V414.16
			c0.002-25.779,11.783-49.02,30.643-64.203c20.396,13.699,43.784,21.5,68.325,22.849v8.588
			c-20.09,2.542-36.045,18.498-38.587,38.587h-25.895c-4.231,0-7.659,3.429-7.659,7.659
			C307.719,431.87,311.147,435.299,315.378,435.299z M379.86,396.888v58.427h-23.636v-29.708
			C356.224,411.394,366.408,399.517,379.86,396.888z M363.555,496.682h-17.297v-26.051h2.307h14.99V496.682z M396.169,496.682
			h-17.297v-26.051h8.647h8.649V496.682z M395.179,455.313v-58.427c13.453,2.63,23.636,14.508,23.636,28.719v29.708H395.179z
			 M428.782,496.682h-17.297v-26.051h14.988h2.309V496.682z M461.397,496.682H444.1v-26.051h17.297V496.682z M494.146,496.682
			h-17.432v-26.051h17.432V496.682z M494.147,455.313h-60.015v-20.014h25.207c4.194,0,7.851-3.231,7.976-7.423
			c0.131-4.337-3.346-7.895-7.656-7.895h-25.895c-2.543-20.09-18.498-36.045-38.587-38.587v-8.573
			c5.778-0.321,11.522-1.001,17.188-2.039c4.335-0.794,7.097-5.094,6.042-9.372c-0.966-3.92-4.811-6.427-8.782-5.697
			c-4.763,0.875-9.59,1.465-14.448,1.769v-17.583c11.26-0.713,22.102-2.983,32.315-6.599c7.766,1.497,15.098,4.039,21.855,7.482
			c-3.097,1.841-6.274,3.545-9.518,5.102c-3.645,1.749-5.29,6.035-3.763,9.779l0.001,0.002c1.662,4.077,6.42,5.934,10.388,4.029
			c5.898-2.832,11.594-6.093,17.038-9.746c18.866,15.184,30.653,38.428,30.653,64.213V455.313z"/>
	</g>
</g>
<g>
	<g>
		<path d="M221.007,348.427c-11.841-13.014-26.804-22.454-43.304-27.571c26.936-21.422,44.791-58.595,44.791-100.784
			c0-40.289-16.281-76.005-41.206-97.797c20.058-13.011,31.724-32.23,31.724-53.113c0-16.634-7.337-32.243-20.835-44.675
			c-3.331-3.068-8.6-2.549-11.308,1.081l-0.003,0.005c-2.332,3.126-1.955,7.523,0.913,10.167
			c10.314,9.513,15.916,21.183,15.916,33.421c0,17.152-11.063,33.095-29.805,43.274c-13.093-7.957-27.83-12.441-43.409-12.441
			c-15.582,0-30.323,4.485-43.417,12.446c-18.738-10.189-29.799-26.135-29.799-43.28c0-29.69,32.846-53.845,73.221-53.845
			c11.641,0,23.003,2.03,33.263,5.911c3.747,1.417,7.952-0.205,9.685-3.817c1.951-4.065-0.023-8.905-4.241-10.5
			C151.198,2.374,137.977,0,124.485,0c-48.82,0-88.538,31.026-88.538,69.162c0,20.877,11.665,40.098,31.722,53.117
			c-24.922,21.793-41.201,57.508-41.201,97.794c0,42.189,17.854,79.361,44.79,100.783c-16.5,5.117-31.465,14.557-43.305,27.571
			C11.562,366.442,2.536,389.786,2.536,414.16v90.181c0,4.23,3.429,7.659,7.659,7.659h228.571c4.23,0,7.659-3.429,7.659-7.659
			V414.16C246.424,389.786,237.397,366.442,221.007,348.427z M209.678,358.735c13.819,15.188,21.428,34.871,21.428,55.424v41.155
			h-70.686c0.589-1.958,0.914-4.03,0.914-6.177v-35.387l43.256,24.291c1.186,0.666,2.473,0.982,3.743,0.982
			c2.679,0,5.281-1.408,6.685-3.91c2.071-3.688,0.761-8.357-2.928-10.428l-51.299-28.807c-2.165-9.578-10.729-16.758-20.952-16.758
			h-1.525c-2.148,0-4.219,0.326-6.176,0.914v-40.25c9.395-0.893,18.419-3.423,26.891-7.345
			C178.472,334.863,196.397,344.138,209.678,358.735z M124.481,115.314c45.161,0,81.976,46.099,82.679,103.1
			c-5.735-11.014-12.937-20.877-21.451-29.22c-7.998-7.839-20.147-9.617-30.233-4.428c-9.849,5.067-20.274,7.637-30.99,7.637
			c-10.721,0-21.151-2.569-30.999-7.636c-10.089-5.191-22.238-3.41-30.235,4.43c-8.513,8.344-15.714,18.211-21.448,29.23
			C42.5,161.42,79.318,115.314,124.481,115.314z M45.609,251.576c5.082-20.439,14.858-38.201,28.364-51.441
			c3.273-3.21,8.299-3.912,12.504-1.748c12.038,6.193,24.826,9.334,38.008,9.334c13.176,0,25.96-3.14,37.998-9.335
			c4.204-2.163,9.229-1.461,12.503,1.747c13.51,13.24,23.288,30.995,28.37,51.424c-10.576,42.427-41.936,73.274-78.877,73.274
			C87.544,324.831,56.19,293.993,45.609,251.576z M17.854,414.161c0.001-20.553,7.611-40.237,21.429-55.425
			c13.28-14.597,31.206-23.873,50.649-26.297c8.472,3.922,17.496,6.452,26.891,7.345v40.25c-1.959-0.589-4.03-0.914-6.177-0.914
			h-1.525c-10.223,0-18.787,7.18-20.952,16.759l-51.298,28.806c-3.689,2.071-5,6.74-2.928,10.428c1.405,2.502,4.005,3.91,6.685,3.91
			c1.269,0,2.557-0.317,3.743-0.982l43.255-24.291v35.387c0,2.148,0.326,4.219,0.914,6.177H17.854V414.161z M35.287,496.682H17.855
			v-26.051h17.433V496.682z M67.901,496.682H50.605v-26.051h17.296V496.682z M100.515,496.682H83.218v-26.051h17.297V496.682z
			 M110.645,455.314h-1.525c-3.406-0.001-6.177-2.771-6.177-6.177v-48.522c0-3.406,2.771-6.177,6.177-6.177h1.525
			c3.406,0,6.177,2.771,6.177,6.177v0.051v48.471C116.822,452.543,114.051,455.314,110.645,455.314z M133.13,496.682h-17.297
			v-26.051h17.297V496.682z M146.017,449.136c0,3.406-2.771,6.177-6.177,6.177h-1.525c-3.406,0-6.176-2.771-6.176-6.177v-48.471
			v-0.051c0-3.406,2.77-6.177,6.176-6.177h1.525c3.407,0.001,6.177,2.771,6.177,6.177V449.136z M165.742,496.682h-17.296v-26.051
			h17.296V496.682z M198.355,496.682h-17.297v-26.051h17.297V496.682z M231.107,496.682h-17.434v-26.051h17.434V496.682z"/>
	</g>
</g>
<g>
	<g>
		<path d="M368.375,257.282c-10.063-10.065-26.444-10.067-36.51,0c-2.992,2.991-2.992,7.841-0.001,10.832
			c2.991,2.99,7.841,2.991,10.831,0c4.095-4.093,10.755-4.094,14.85,0c1.495,1.495,3.456,2.244,5.415,2.244s3.92-0.747,5.416-2.244
			C371.366,265.123,371.366,260.273,368.375,257.282z"/>
	</g>
</g>
<g>
	<g>
		<path d="M443.167,257.281c-4.875-4.876-11.359-7.562-18.255-7.562c-6.897,0-13.381,2.686-18.256,7.562
			c-2.991,2.991-2.991,7.841,0.001,10.831c2.989,2.993,7.839,2.992,10.83,0.001c1.982-1.983,4.619-3.075,7.424-3.075
			c2.805,0,5.441,1.092,7.425,3.075c1.495,1.495,3.456,2.244,5.415,2.244s3.92-0.747,5.416-2.244
			C446.159,265.122,446.159,260.272,443.167,257.281z"/>
	</g>
</g>
<g>
	<g>
		<path d="M405.776,296.08c-2.991-2.99-7.841-2.991-10.831,0c-4.096,4.095-10.756,4.093-14.85,0c-2.99-2.991-7.84-2.99-10.831,0
			c-2.991,2.991-2.991,7.841,0.001,10.832c5.032,5.032,11.643,7.55,18.255,7.55c6.61,0,13.222-2.516,18.255-7.55
			C408.767,303.92,408.767,299.071,405.776,296.08z"/>
	</g>
</g>
<g>
	<g>
		<path d="M105.342,245.095c-10.065-10.066-26.445-10.067-36.512,0c-2.991,2.991-2.991,7.84,0,10.831
			c2.991,2.992,7.84,2.992,10.832,0c4.094-4.095,10.756-4.093,14.848,0c1.496,1.496,3.457,2.244,5.416,2.244s3.92-0.747,5.416-2.244
			C108.333,252.935,108.333,248.086,105.342,245.095z"/>
	</g>
</g>
<g>
	<g>
		<path d="M180.133,245.095c-10.066-10.066-26.445-10.067-36.512,0c-2.991,2.991-2.991,7.84,0,10.831
			c2.991,2.992,7.84,2.992,10.832,0c4.094-4.095,10.756-4.093,14.848,0c1.496,1.496,3.457,2.244,5.416,2.244s3.92-0.747,5.416-2.244
			C183.125,252.935,183.125,248.086,180.133,245.095z"/>
	</g>
</g>
<g>
	<g>
		<path d="M142.741,278.813c-2.992-2.991-7.841-2.991-10.832,0c-1.982,1.983-4.619,3.075-7.424,3.075s-5.441-1.092-7.424-3.075
			c-2.991-2.99-7.841-2.992-10.831-0.001c-2.991,2.991-2.991,7.841-0.001,10.832c4.875,4.876,11.359,7.562,18.256,7.562
			c6.896,0,13.38-2.686,18.256-7.562C145.732,286.652,145.732,281.804,142.741,278.813z"/>
	</g>
</g>
<g>
</g>
<g>
</g>
<g>
</g>
<g>
</g>
<g>
</g>
<g>
</g>
<g>
</g>
<g>
</g>
<g>
</g>
<g>
</g>
<g>
</g>
<g>
</g>
<g>
</g>
<g>
</g>
<g>
</g>
</svg>
