<?xml version="1.0" encoding="iso-8859-1"?>
<!-- Generator: Adobe Illustrator 19.0.0, SVG Export Plug-In . SVG Version: 6.00 Build 0)  -->
<svg version="1.1" id="Capa_1" xmlns="http://www.w3.org/2000/svg" xmlns:xlink="http://www.w3.org/1999/xlink" x="0px" y="0px"
	 viewBox="0 0 512 512" style="enable-background:new 0 0 512 512;" xml:space="preserve">
<g>
	<g>
		<path d="M502.339,207.524c-7.901-9.376-19.733-14.531-31.994-14.531h-1.724v-62.072c0-24.997-20.264-45.262-45.262-45.262H278.162
			c-8.671,0-16.91-3.738-22.61-10.257l-32.596-37.246c-8.59-9.825-21.003-15.459-34.06-15.459H45.262
			C20.264,22.696,0,42.96,0,67.956v46.712c0,4.205,3.409,7.613,7.613,7.613c4.205,0,7.613-3.409,7.613-7.613V67.956
			c0-16.587,13.447-30.035,30.035-30.035h143.634c8.663,0,16.898,3.737,22.6,10.257l32.596,37.246
			c8.589,9.825,21.006,15.46,34.07,15.46H423.36c16.587,0,30.035,13.447,30.035,30.035v62.072h-80.147
			c-4.204,0-7.613,3.409-7.613,7.613s3.409,7.613,7.613,7.613h97.233c7.823,0,15.395,3.286,20.38,9.314
			c5.1,6.168,7.023,14.214,5.278,22.004L448.165,453.62c-2.699,12.044-13.204,20.456-25.547,20.456H59.351
			c1.808-2.958,3.166-6.254,3.964-9.812l49.209-219.593c4.808-21.463,23.53-36.453,45.525-36.453h179.67
			c4.204,0,7.613-3.409,7.613-7.613s-3.409-7.613-7.613-7.613h-179.67c-29.173,0-54.004,19.881-60.382,48.349l-49.105,219.13
			c-1.684,7.514-8.082,13.256-15.775,13.589c-9.611,0.415-17.561-7.283-17.561-16.803V150.197c0-4.204-3.409-7.613-7.613-7.613
			c-4.204,0-7.613,3.409-7.613,7.613v307.061c0,17.698,14.347,32.045,32.045,32.045H422.62c19.52,0,36.136-13.304,40.404-32.353
			l47.974-214.083C513.806,230.334,510.649,217.385,502.339,207.524z"/>
	</g>
</g>
<g>
</g>
<g>
</g>
<g>
</g>
<g>
</g>
<g>
</g>
<g>
</g>
<g>
</g>
<g>
</g>
<g>
</g>
<g>
</g>
<g>
</g>
<g>
</g>
<g>
</g>
<g>
</g>
<g>
</g>
</svg>
