<?xml version="1.0" encoding="iso-8859-1"?>
<!-- Generator: Adobe Illustrator 19.0.0, SVG Export Plug-In . SVG Version: 6.00 Build 0)  -->
<svg version="1.1" id="Capa_1" xmlns="http://www.w3.org/2000/svg" xmlns:xlink="http://www.w3.org/1999/xlink" x="0px" y="0px"
	 viewBox="0 0 512 512" style="enable-background:new 0 0 512 512;" xml:space="preserve">
<g>
	<g>
		<path d="M321.682,191.745h-41.484V150.26c0-4.199-3.404-7.604-7.604-7.604h-33.187c-4.2,0-7.604,3.405-7.604,7.604v41.484h-41.485
			c-4.2,0-7.604,3.405-7.604,7.604v33.187c0,4.199,3.404,7.604,7.604,7.604h41.485v41.485c0,4.199,3.404,7.604,7.604,7.604h33.187
			c4.2,0,7.604-3.405,7.604-7.604v-41.485h41.484c4.2,0,7.604-3.405,7.604-7.604v-33.187
			C329.286,195.148,325.881,191.745,321.682,191.745z M314.078,224.93h-41.484c-4.2,0-7.604,3.405-7.604,7.604v41.485h-17.979
			v-41.485c0-4.199-3.404-7.604-7.604-7.604h-41.485v-17.979h41.485c4.2,0,7.604-3.405,7.604-7.604v-41.484h17.979v41.484
			c0,4.199,3.404,7.604,7.604,7.604h41.484V224.93z"/>
	</g>
</g>
<g>
	<g>
		<path d="M321.682,377.271H190.317c-4.2,0-7.604,3.405-7.604,7.604v33.187c0,4.199,3.404,7.604,7.604,7.604h131.364
			c4.2,0,7.604-3.405,7.604-7.604v-33.187C329.286,380.676,325.881,377.271,321.682,377.271z M197.921,410.458v-17.979h116.156
			v17.979H197.921z"/>
	</g>
</g>
<g>
	<g>
		<path d="M404.849,56.321h-50.327V7.604c0-4.199-3.404-7.604-7.604-7.604H165.081c-4.2,0-7.604,3.405-7.604,7.604v48.717h-50.326
			c-4.2,0-7.604,3.405-7.604,7.604v56.803v326.866v56.803c0,4.199,3.404,7.604,7.604,7.604h297.698c4.2,0,7.604-3.405,7.604-7.604
			v-56.803V120.728V63.925C412.453,59.726,409.049,56.321,404.849,56.321z M172.685,15.208h166.63v41.113h-166.63V15.208z
			 M397.246,113.124H169.757c-4.199,0-7.604,3.405-7.604,7.604c0,4.199,3.405,7.604,7.604,7.604h227.488V439.99H359.35
			c-4.199,0-7.604,3.405-7.604,7.604s3.405,7.604,7.604,7.604h37.895v41.595h-282.49v-41.595h209.109
			c4.199,0,7.604-3.405,7.604-7.604s-3.405-7.604-7.604-7.604H114.755V128.332h19.516c4.199,0,7.604-3.405,7.604-7.604
			c0-4.199-3.405-7.604-7.604-7.604h-19.516V71.529h50.326h181.838h50.327V113.124z"/>
	</g>
</g>
<g>
</g>
<g>
</g>
<g>
</g>
<g>
</g>
<g>
</g>
<g>
</g>
<g>
</g>
<g>
</g>
<g>
</g>
<g>
</g>
<g>
</g>
<g>
</g>
<g>
</g>
<g>
</g>
<g>
</g>
</svg>
