<?xml version="1.0" encoding="iso-8859-1"?>
<!-- Generator: Adobe Illustrator 19.0.0, SVG Export Plug-In . SVG Version: 6.00 Build 0)  -->
<svg version="1.1" id="Capa_1" xmlns="http://www.w3.org/2000/svg" xmlns:xlink="http://www.w3.org/1999/xlink" x="0px" y="0px"
	 viewBox="0 0 511.999 511.999" style="enable-background:new 0 0 511.999 511.999;" xml:space="preserve">
<g>
	<g>
		<path d="M456.442,311.804l-34.57-34.57c-2.974-2.971-7.793-2.972-10.766,0.001c-2.973,2.973-2.973,7.792,0,10.765l29.078,29.077
			c-71.803,66.144-184.037,64.385-253.695-5.271c-69.657-69.657-71.417-181.89-5.271-253.695l205.425,205.426
			c2.973,2.973,7.792,2.973,10.765,0c2.973-2.973,2.973-7.792,0-10.765l-40.176-40.176l19.923-74.354
			c5.679,2.92,11.919,4.386,18.16,4.386c9.913,0,19.828-3.683,27.487-11.048c15.703-15.101,16.179-40.518,1.027-56.172
			c-8.4-8.678-20.043-13.025-32.228-11.924c-7.475,0.676-14.655,3.507-20.571,8.125c-15.711,12.262-19.364,33.217-10.976,49.533
			l-74.354,19.923l-99.211-99.21c-1.427-1.428-3.363-2.23-5.382-2.23s-3.955,0.802-5.382,2.23
			c-71.124,71.124-76.878,183.234-17.276,260.999c-2.337-0.325-4.72-0.505-7.145-0.505c-28.54,0-51.757,23.218-51.757,51.757
			c0,14.246,5.787,27.165,15.132,36.534H98.786c-34.987,0-63.349,28.363-63.349,63.349v9.719H21.315
			c-4.204,0-7.612,3.408-7.612,7.612v33.069c0,4.204,3.408,7.612,7.612,7.612H274.01c4.204,0,7.612-3.408,7.612-7.612v-33.069
			c0-4.204-3.408-7.612-7.612-7.612h-14.119v-9.719c0-34.987-28.363-63.349-63.349-63.349h-8.612
			c9.345-9.368,15.132-22.287,15.132-36.534c0-3.174-0.302-6.277-0.852-9.294c34.041,23.865,73.957,35.804,113.875,35.804
			c50.815,0,101.631-19.337,140.325-58.011C459.388,319.625,459.421,314.784,456.442,311.804z M378.03,85.697
			c4.618-4.617,10.756-7.159,17.284-7.159c6.53,0,12.666,2.542,17.283,7.159c9.531,9.53,9.531,25.036,0,34.567
			c-9.528,9.529-25.034,9.531-34.566,0C368.5,110.733,368.5,95.228,378.03,85.697z M361.884,136.411l-17.083,63.755l-46.672-46.672
			L361.884,136.411z M151.303,317.572c20.145,0,36.534,16.388,36.534,36.534c0,20.145-16.388,36.534-36.534,36.534
			c-20.144-0.001-36.534-16.389-36.534-36.534C114.769,333.96,131.158,317.572,151.303,317.572z M196.541,405.863
			c26.58-0.001,48.127,21.546,48.127,48.125v9.72h-45.253c-4.204,0-7.612,3.408-7.612,7.612s3.408,7.612,7.612,7.612h66.984v17.846
			H28.927v-17.846h134.966c4.204,0,7.612-3.408,7.612-7.612s-3.408-7.612-7.612-7.612H50.658v-9.719
			c0-26.58,21.547-48.126,48.126-48.126H196.541z"/>
	</g>
</g>
<g>
	<g>
		<path d="M395.314,31.205c-4.205,0-7.612,3.408-7.612,7.612c0,4.204,3.407,7.612,7.612,7.612c31.185,0,56.554,25.37,56.554,56.554
			c0,4.204,3.407,7.612,7.612,7.612c4.205,0,7.612-3.408,7.612-7.612C467.091,63.403,434.891,31.205,395.314,31.205z"/>
	</g>
</g>
<g>
	<g>
		<path d="M395.314,0c-4.205,0-7.612,3.408-7.612,7.612c0,4.204,3.407,7.612,7.612,7.612c48.39,0,87.758,39.369,87.758,87.757
			c0,4.204,3.407,7.612,7.612,7.612c4.205,0,7.612-3.408,7.612-7.612C498.295,46.198,452.099,0,395.314,0z"/>
	</g>
</g>
<g>
	<g>
		<path d="M151.303,325.182c-15.948,0-28.923,12.975-28.923,28.923s12.975,28.923,28.923,28.923
			c15.948,0,28.923-12.974,28.923-28.923S167.252,325.182,151.303,325.182z M151.303,367.805c-7.554,0-13.7-6.145-13.7-13.7
			s6.146-13.7,13.7-13.7c7.554,0,13.7,6.146,13.7,13.7S158.857,367.805,151.303,367.805z"/>
	</g>
</g>
<g>
</g>
<g>
</g>
<g>
</g>
<g>
</g>
<g>
</g>
<g>
</g>
<g>
</g>
<g>
</g>
<g>
</g>
<g>
</g>
<g>
</g>
<g>
</g>
<g>
</g>
<g>
</g>
<g>
</g>
</svg>
