<?xml version="1.0" encoding="iso-8859-1"?>
<!-- Generator: Adobe Illustrator 19.0.0, SVG Export Plug-In . SVG Version: 6.00 Build 0)  -->
<svg version="1.1" id="Capa_1" xmlns="http://www.w3.org/2000/svg" xmlns:xlink="http://www.w3.org/1999/xlink" x="0px" y="0px"
	 viewBox="0 0 512 512" style="enable-background:new 0 0 512 512;" xml:space="preserve">
<g>
	<g>
		<path d="M211.067,139.806c-3.108-2.825-7.917-2.595-10.741,0.512l-26.277,28.905l-20.475-18.017
			c-3.152-2.774-7.958-2.468-10.732,0.685c-2.774,3.153-2.468,7.958,0.685,10.732l26.092,22.961
			c1.443,1.269,3.234,1.895,5.021,1.895c2.069,0,4.129-0.84,5.629-2.489l31.31-34.442
			C214.403,147.441,214.174,142.632,211.067,139.806z"/>
	</g>
</g>
<g>
	<g>
		<path d="M403.155,0h-294.31C86.429,0,68.191,18.237,68.191,40.655v430.691c0,22.417,18.237,40.654,40.654,40.654h294.31
			c22.416,0,40.654-18.237,40.654-40.654V40.655C443.809,18.237,425.571,0,403.155,0z M428.601,471.346
			c0,14.031-11.415,25.446-25.446,25.446h-294.31c-14.031,0-25.446-11.415-25.446-25.446V40.655
			c0-14.032,11.415-25.447,25.446-25.447h294.31c14.031,0,25.446,11.415,25.446,25.447V471.346z"/>
	</g>
</g>
<g>
	<g>
		<path d="M396.667,125.146c-4.199,0-7.604,3.405-7.604,7.604v285.386H164.505c-4.199,0-7.604,3.405-7.604,7.604
			s3.405,7.604,7.604,7.604h232.162c4.199,0,7.604-3.405,7.604-7.604V132.75C404.271,128.551,400.867,125.146,396.667,125.146z"/>
	</g>
</g>
<g>
	<g>
		<path d="M396.667,48.604h-52.465v-0.65c0-11.401-9.242-20.643-20.643-20.643H188.441c-11.401,0-20.642,9.242-20.642,20.642v0.651
			h-52.467c-4.199,0-7.604,3.405-7.604,7.604V425.74c0,4.199,3.405,7.604,7.604,7.604h13.687c4.199,0,7.604-3.405,7.604-7.604
			s-3.405-7.604-7.604-7.604h-6.083V63.811h44.863v11.289c0,11.401,9.242,20.643,20.643,20.643h135.118
			c11.401,0,20.642-9.242,20.642-20.642v-11.29h44.861v33.451c0,4.199,3.405,7.604,7.604,7.604s7.604-3.405,7.604-7.604V56.207
			C404.271,52.008,400.867,48.604,396.667,48.604z M328.994,75.101c0,2.997-2.438,5.435-5.434,5.435H188.441
			c-2.997,0-5.434-2.438-5.434-5.435V47.954c0-2.997,2.438-5.435,5.434-5.435H323.56c2.997,0,5.434,2.438,5.434,5.435V75.101z"/>
	</g>
</g>
<g>
	<g>
		<path d="M359.661,155.051H244.09c-4.199,0-7.604,3.405-7.604,7.604s3.405,7.604,7.604,7.604h115.571
			c4.199,0,7.604-3.405,7.604-7.604S363.861,155.051,359.661,155.051z"/>
	</g>
</g>
<g>
	<g>
		<path d="M359.661,242.163H244.09c-4.199,0-7.604,3.405-7.604,7.604s3.405,7.604,7.604,7.604h115.571
			c4.199,0,7.604-3.405,7.604-7.604S363.861,242.163,359.661,242.163z"/>
	</g>
</g>
<g>
	<g>
		<path d="M359.661,329.274H244.09c-4.199,0-7.604,3.405-7.604,7.604s3.405,7.604,7.604,7.604h115.571
			c4.199,0,7.604-3.405,7.604-7.604S363.861,329.274,359.661,329.274z"/>
	</g>
</g>
<g>
	<g>
		<path d="M197.249,220.214h-43.897c-4.199,0-7.604,3.405-7.604,7.604v43.897c0,4.199,3.405,7.604,7.604,7.604h43.897
			c4.199,0,7.604-3.405,7.604-7.604v-43.897C204.853,223.618,201.448,220.214,197.249,220.214z M189.645,264.111h-28.689v-28.689
			h28.689V264.111z"/>
	</g>
</g>
<g>
	<g>
		<path d="M197.249,307.326h-43.897c-4.199,0-7.604,3.405-7.604,7.604v43.897c0,4.199,3.405,7.604,7.604,7.604h43.897
			c4.199,0,7.604-3.405,7.604-7.604V314.93C204.853,310.73,201.448,307.326,197.249,307.326z M189.645,351.223h-28.689v-28.689
			h28.689V351.223z"/>
	</g>
</g>
<g>
</g>
<g>
</g>
<g>
</g>
<g>
</g>
<g>
</g>
<g>
</g>
<g>
</g>
<g>
</g>
<g>
</g>
<g>
</g>
<g>
</g>
<g>
</g>
<g>
</g>
<g>
</g>
<g>
</g>
</svg>
