<?xml version="1.0" encoding="iso-8859-1"?>
<!-- Generator: Adobe Illustrator 19.0.0, SVG Export Plug-In . SVG Version: 6.00 Build 0)  -->
<svg version="1.1" id="Capa_1" xmlns="http://www.w3.org/2000/svg" xmlns:xlink="http://www.w3.org/1999/xlink" x="0px" y="0px"
	 viewBox="0 0 512.002 512.002" style="enable-background:new 0 0 512.002 512.002;" xml:space="preserve">
<g>
	<g>
		<path d="M426.892,443.8h-24.567v-25.529c0-4.199-3.405-7.604-7.604-7.604h-7.342v-25.065c0-58.924-39.629-110.947-96.293-126.488
			c-3.133-0.895-5.238-3.631-5.238-6.806c0-3.139,2.095-5.839,5.163-6.704c56.74-15.588,96.368-67.611,96.368-126.51v-17.759h7.342
			c4.199,0,7.604-3.405,7.604-7.604V68.202h24.567c4.199,0,7.604-3.405,7.604-7.604V7.604c0-4.199-3.405-7.604-7.604-7.604H85.11
			c-4.199,0-7.604,3.405-7.604,7.604v52.995c0,4.199,3.405,7.604,7.604,7.604h24.567v25.529c0,4.199,3.405,7.604,7.604,7.604h7.342
			v17.758c0,58.883,39.625,110.939,96.382,126.596c3.031,0.826,5.148,3.581,5.148,6.699c0,3.138-2.095,5.838-5.174,6.707
			c-41.534,11.476-75.042,43.082-89.113,83.457c-1.437,4.121,0.949,8.599,5.151,9.775c3.886,1.088,7.913-1.062,9.244-4.872
			c12.458-35.654,42.071-63.563,78.807-73.714c9.744-2.749,16.292-11.33,16.292-21.354c0-9.957-6.726-18.745-16.333-21.365
			c-50.163-13.838-85.197-59.865-85.197-111.929v-17.757h232.341v17.758c0,52.073-35.031,98.066-85.238,111.859
			c-9.745,2.748-16.293,11.329-16.293,21.354c0,10.037,6.537,18.649,16.345,21.451c50.156,13.757,85.186,59.749,85.186,111.844
			v25.064h-45.802c-12.122-11.503-26.913-19.88-42.985-24.306c-8.02-2.191-14.971-7.069-19.786-13.822V231.584
			c4.82-6.757,11.771-11.633,19.805-13.824c21.028-5.801,39.336-17.982,52.945-35.226c13.533-17.147,21.14-37.669,22.007-59.361
			c0.051-1.259-0.145-2.534-0.677-3.675c-1.292-2.775-4.015-4.43-6.914-4.43h-33.124c-4.199,0-7.603,3.405-7.603,7.603v0.001
			c0,4.199,3.405,7.603,7.603,7.603h24.869c-2.008,15.6-8.189,30.277-18.1,42.836c-11.589,14.684-27.167,25.054-45.031,29.981
			c-8.974,2.447-17.012,7.254-23.368,13.868c-6.293-6.564-14.239-11.369-23.117-13.875l-0.208-0.058
			c-17.91-4.92-33.503-15.276-45.097-29.946c-9.91-12.542-16.091-27.209-18.099-42.807h112.665c4.199,0,7.603-3.405,7.603-7.603
			v-0.001c0-4.199-3.405-7.603-7.603-7.603H161.319c-0.973,0-1.95,0.148-2.852,0.512c-3.133,1.262-4.947,4.255-4.828,7.38
			c0.825,21.774,8.439,42.367,22.02,59.552c13.616,17.231,31.943,29.397,52.982,35.177l0.158,0.044
			c7.924,2.236,14.805,7.109,19.592,13.817V372.56c-4.776,6.699-11.638,11.568-19.538,13.809l-0.203,0.054
			c-16.079,4.429-30.876,12.784-42.993,24.24h-45.827v-25.061c0-2.45,0.077-4.908,0.23-7.357c0.251-4.008-2.655-7.517-6.641-8.013
			l-0.008-0.001c-4.321-0.538-8.251,2.652-8.525,6.998c-0.176,2.788-0.265,5.585-0.265,8.373v25.064h-7.342
			c-4.199,0-7.604,3.405-7.604,7.604V443.8H85.11c-4.199,0-7.604,3.405-7.604,7.604v52.995c0,4.199,3.405,7.604,7.604,7.604h341.783
			c4.199,0,7.604-3.405,7.604-7.604v-52.995C434.496,447.204,431.092,443.8,426.892,443.8z M117.281,52.995H92.714V15.208h326.575
			v37.787h-24.567H117.281z M124.885,86.128V68.202h262.232v17.925H124.885z M232.613,401.107l0.197-0.052
			c0.041-0.01,0.08-0.021,0.12-0.032c8.851-2.495,16.79-7.301,23.08-13.865c6.353,6.61,14.388,11.418,23.352,13.868
			c7.813,2.151,15.269,5.415,22.156,9.64h-90.936C217.441,406.479,224.858,403.243,232.613,401.107z M124.885,425.872h262.232
			v17.925H124.885V425.872z M92.714,496.792v-37.787h24.567h277.44h24.567v37.787H92.714z"/>
	</g>
</g>
<g>
</g>
<g>
</g>
<g>
</g>
<g>
</g>
<g>
</g>
<g>
</g>
<g>
</g>
<g>
</g>
<g>
</g>
<g>
</g>
<g>
</g>
<g>
</g>
<g>
</g>
<g>
</g>
<g>
</g>
</svg>
