<?xml version="1.0" encoding="iso-8859-1"?>
<!-- Generator: Adobe Illustrator 19.0.0, SVG Export Plug-In . SVG Version: 6.00 Build 0)  -->
<svg version="1.1" id="Capa_1" xmlns="http://www.w3.org/2000/svg" xmlns:xlink="http://www.w3.org/1999/xlink" x="0px" y="0px"
	 viewBox="0 0 512 512" style="enable-background:new 0 0 512 512;" xml:space="preserve">
<g>
	<g>
		<path d="M291.008,245.6c56.742-15.58,96.372-67.6,96.372-126.501v-17.763h7.341c4.199,0,7.604-3.405,7.604-7.604V68.202h24.567
			c4.199,0,7.604-3.405,7.604-7.604V7.604c0-4.199-3.405-7.604-7.604-7.604H85.109c-4.199,0-7.604,3.405-7.604,7.604v52.995
			c0,4.199,3.405,7.604,7.604,7.604h24.567v25.529c0,4.199,3.405,7.604,7.604,7.604h7.342v17.758
			c0,58.883,39.625,110.939,96.382,126.596c3.031,0.826,5.148,3.581,5.148,6.699c0,3.138-2.095,5.838-5.174,6.707
			c-56.734,15.674-96.357,67.697-96.357,126.507v25.064h-7.342c-4.199,0-7.604,3.405-7.604,7.604v25.529H85.109
			c-4.199,0-7.604,3.405-7.604,7.604v52.995c0,4.199,3.405,7.604,7.604,7.604h341.783c4.199,0,7.604-3.405,7.604-7.604v-52.995
			c0-4.199-3.405-7.604-7.604-7.604h-24.567v-25.529c0-4.199-3.405-7.604-7.604-7.604h-7.341v-25.064
			c0-15.519-2.649-30.606-7.887-44.958c-1.497-4.105-6.172-6.078-10.177-4.332l-0.003,0.001c-3.675,1.602-5.477,5.785-4.103,9.552
			c4.623,12.678,6.962,26.013,6.962,39.736v25.064h-15.998c-6.547-44.224-39.733-84.067-96.478-115.592
			c-2.297-1.276-5.089-1.275-7.386,0c-56.751,31.524-89.941,71.369-96.488,115.593h-15.993v-25.063
			c0-51.995,35.036-97.988,85.239-111.859c9.744-2.749,16.292-11.33,16.292-21.354c0-9.957-6.726-18.745-16.333-21.365
			c-50.163-13.838-85.197-59.865-85.197-111.929v-17.759h232.342v17.762c0,52.075-35.032,98.065-85.252,111.854
			c-9.735,2.761-16.277,11.343-16.277,21.357c0,10.035,6.535,18.646,16.338,21.445c25.091,6.886,47.035,21.988,62.484,42.855
			c2.399,3.24,6.887,4.079,10.267,1.883c3.664-2.381,4.593-7.366,1.994-10.879c-17.473-23.627-42.306-40.726-70.646-48.503
			c-3.129-0.894-5.232-3.628-5.232-6.801C285.851,249.171,287.948,246.468,291.008,245.6z M394.72,459.005h24.567v37.787H92.713
			v-37.787h24.567H394.72z M256.003,310.45c49.189,28.191,78.285,62.639,84.778,100.215H171.216
			C177.709,373.089,206.809,338.64,256.003,310.45z M387.117,425.872v17.925H124.884v-17.925H387.117z M124.884,86.129V68.202
			h72.478c4.199,0,7.603-3.405,7.603-7.603c0-4.2-3.405-7.604-7.604-7.604H92.713V15.208h326.575v37.787h-186.44
			c-4.199,0-7.604,3.405-7.604,7.604v0.001c0,4.199,3.405,7.604,7.604,7.604h154.269v17.925H124.884z"/>
	</g>
</g>
<g>
</g>
<g>
</g>
<g>
</g>
<g>
</g>
<g>
</g>
<g>
</g>
<g>
</g>
<g>
</g>
<g>
</g>
<g>
</g>
<g>
</g>
<g>
</g>
<g>
</g>
<g>
</g>
<g>
</g>
</svg>
