<?xml version="1.0" encoding="iso-8859-1"?>
<!-- Generator: Adobe Illustrator 19.0.0, SVG Export Plug-In . SVG Version: 6.00 Build 0)  -->
<svg version="1.1" id="Capa_1" xmlns="http://www.w3.org/2000/svg" xmlns:xlink="http://www.w3.org/1999/xlink" x="0px" y="0px"
	 viewBox="0 0 512 512" style="enable-background:new 0 0 512 512;" xml:space="preserve">
<g>
	<g>
		<path d="M404.549,0H107.451C86.188,0,68.952,17.237,68.952,38.499v58.763c0,4.199,3.405,7.604,7.604,7.604
			s7.604-3.405,7.604-7.604V38.499c0-12.864,10.428-23.291,23.291-23.291h297.098c12.863,0,23.291,10.428,23.291,23.291v403.296
			c0,12.864-10.428,23.291-23.291,23.291H107.451c-12.864,0-23.291-10.428-23.291-23.291V132.75c0-4.199-3.405-7.604-7.604-7.604
			s-7.604,3.405-7.604,7.604v309.045c0,20.381,15.921,37.103,35.977,38.408v24.193c0,4.199,3.405,7.604,7.604,7.604h71.474
			c4.199,0,7.604-3.405,7.604-7.604v-24.102h128.779v24.102c0,4.199,3.405,7.604,7.604,7.604h71.474
			c4.199,0,7.604-3.405,7.604-7.604v-24.193c20.056-1.305,35.977-18.027,35.977-38.408V38.499C443.048,17.237,425.812,0,404.549,0z
			 M176.403,496.792h-56.266v-16.498h56.266V496.792z M391.864,496.792h-56.266v-16.498h56.266V496.792z"/>
	</g>
</g>
<g>
	<g>
		<path d="M391.573,41.568H120.427c-5.463,0-9.907,4.445-9.907,9.907v165.381c0,4.199,3.405,7.604,7.604,7.604h275.752
			c4.199,0,7.604-3.405,7.604-7.604V51.476C401.48,46.012,397.035,41.568,391.573,41.568z M386.272,209.253H125.728V56.776h260.544
			V209.253z"/>
	</g>
</g>
<g>
	<g>
		<path d="M393.876,255.834H118.124c-4.199,0-7.604,3.405-7.604,7.604v165.381c0,5.472,4.436,9.907,9.907,9.907h187.275
			c4.199,0,7.604-3.405,7.604-7.604s-3.405-7.604-7.604-7.604H125.728V271.042h260.544v152.477H343.19
			c-4.199,0-7.604,3.405-7.604,7.604s3.405,7.604,7.604,7.604h48.382c5.472,0,9.907-4.436,9.907-9.907V263.438
			C401.48,259.238,398.075,255.834,393.876,255.834z"/>
	</g>
</g>
<g>
	<g>
		<path d="M304.663,71.986h-97.327c-4.199,0-7.604,3.405-7.604,7.604v45.622c0,4.199,3.405,7.604,7.604,7.604h97.327
			c4.199,0,7.604-3.405,7.604-7.604V79.59C312.267,75.391,308.863,71.986,304.663,71.986z M297.059,117.608h-82.119V87.194h82.119
			V117.608z"/>
	</g>
</g>
<g>
	<g>
		<path d="M304.663,286.252h-97.327c-4.199,0-7.604,3.405-7.604,7.604v45.622c0,4.199,3.405,7.604,7.604,7.604h97.327
			c4.199,0,7.604-3.405,7.604-7.604v-45.622C312.267,289.656,308.863,286.252,304.663,286.252z M297.059,331.872h-82.119v-30.414
			h82.119V331.872z"/>
	</g>
</g>
<g>
	<g>
		<path d="M304.663,150.492h-97.327c-4.199,0-7.604,3.405-7.604,7.604s3.405,7.604,7.604,7.604h97.327
			c4.199,0,7.604-3.405,7.604-7.604S308.863,150.492,304.663,150.492z"/>
	</g>
</g>
<g>
	<g>
		<path d="M304.663,364.912h-97.327c-4.199,0-7.604,3.405-7.604,7.604s3.405,7.604,7.604,7.604h97.327
			c4.199,0,7.604-3.405,7.604-7.604S308.863,364.912,304.663,364.912z"/>
	</g>
</g>
<g>
</g>
<g>
</g>
<g>
</g>
<g>
</g>
<g>
</g>
<g>
</g>
<g>
</g>
<g>
</g>
<g>
</g>
<g>
</g>
<g>
</g>
<g>
</g>
<g>
</g>
<g>
</g>
<g>
</g>
</svg>
