<?xml version="1.0" encoding="iso-8859-1"?>
<!-- Generator: Adobe Illustrator 19.0.0, SVG Export Plug-In . SVG Version: 6.00 Build 0)  -->
<svg version="1.1" id="Capa_1" xmlns="http://www.w3.org/2000/svg" xmlns:xlink="http://www.w3.org/1999/xlink" x="0px" y="0px"
	 viewBox="0 0 512 512" style="enable-background:new 0 0 512 512;" xml:space="preserve">
<g>
	<g>
		<path d="M256,86.451c-66.146,0-119.961,53.815-119.961,119.961c0,66.146,53.815,119.962,119.961,119.962
			s119.961-53.815,119.961-119.961S322.146,86.451,256,86.451z M256,311.166c-57.762,0-104.753-46.992-104.753-104.753
			S198.238,101.659,256,101.659s104.753,46.992,104.753,104.753C360.753,264.173,313.762,311.166,256,311.166z"/>
	</g>
</g>
<g>
	<g>
		<path d="M492.081,384.036v-23.912c8.916-2.178,15.562-10.213,15.562-19.79v-21.27c0-11.244-9.147-20.391-20.391-20.391h-25.6
			c-28.308,0-51.338-23.03-51.338-51.339v-40.922c0-85.088-69.224-154.313-154.314-154.313
			c-85.088,0-154.313,69.224-154.313,154.313v40.922c0,28.308-23.03,51.339-51.338,51.339h-25.6
			c-11.245,0-20.392,9.147-20.392,20.391v21.27c0,9.58,6.649,17.616,15.568,19.792v23.909C8.476,387.02,0,397.448,0,409.82v42.477
			c0,4.199,3.404,7.604,7.604,7.604h94.29c4.2,0,7.604-3.405,7.604-7.604s-3.404-7.604-7.604-7.604H15.208V409.82
			c0-6.307,5.131-11.438,11.437-11.438h0.815c0.023,0,0.046,0.003,0.069,0.003s0.046-0.003,0.069-0.003h457.755
			c6.307,0,11.438,5.131,11.438,11.438v34.873h-364.48c-4.2,0-7.604,3.405-7.604,7.604s3.404,7.604,7.604,7.604h372.084
			c4.2,0,7.604-3.405,7.604-7.604V409.82C512,397.45,503.527,387.023,492.081,384.036z M487.252,345.518h-2.684
			c-0.031,0-0.061-0.005-0.091-0.005h-44.456c-4.199,0-7.604,3.405-7.604,7.604s3.405,7.604,7.604,7.604h7.601l29.251,0.004v22.449
			H35.133v-22.448h370.11c4.199,0,7.604-3.405,7.604-7.604s-3.405-7.604-7.604-7.604H256.098c-0.032,0-0.065-0.005-0.098-0.005
			H27.529c-0.033,0-0.065,0.004-0.098,0.005h-2.683c-2.863,0-5.184-2.321-5.184-5.184v-21.27h0.001c0-2.862,2.321-5.183,5.183-5.183
			h25.6c36.753,0,66.546-29.793,66.546-66.546v-39.576c0-76.892,61.819-140.237,138.711-140.452
			c76.883-0.214,139.499,62.27,139.499,139.105v40.924c0,36.752,29.793,66.546,66.546,66.546h25.6c2.862,0,5.183,2.321,5.183,5.183
			v21.272C492.433,343.198,490.114,345.518,487.252,345.518z"/>
	</g>
</g>
<g>
	<g>
		<path d="M256,116.278c-4.2,0-7.604,3.405-7.604,7.604v6.877c0,4.199,3.404,7.604,7.604,7.604s7.604-3.405,7.604-7.604v-6.877
			C263.604,119.682,260.2,116.278,256,116.278z"/>
	</g>
</g>
<g>
	<g>
		<path d="M256,274.462c-4.2,0-7.604,3.405-7.604,7.604v6.878c0,4.199,3.404,7.604,7.604,7.604s7.604-3.405,7.604-7.604v-6.878
			C263.604,277.867,260.2,274.462,256,274.462z"/>
	</g>
</g>
<g>
	<g>
		<path d="M301.068,128.353c-3.639-2.102-8.288-0.854-10.387,2.783l-3.439,5.956c-2.101,3.637-0.854,8.287,2.783,10.387
			c1.198,0.691,2.505,1.02,3.795,1.02c2.628,0,5.184-1.365,6.592-3.803l3.439-5.956
			C305.951,135.103,304.705,130.453,301.068,128.353z"/>
	</g>
</g>
<g>
	<g>
		<path d="M221.975,265.346c-3.639-2.101-8.288-0.854-10.387,2.783l-3.439,5.956c-2.101,3.637-0.854,8.287,2.783,10.387
			c1.198,0.691,2.505,1.02,3.795,1.02c2.628,0,5.184-1.365,6.592-3.803l3.439-5.956
			C226.858,272.096,225.612,267.445,221.975,265.346z"/>
	</g>
</g>
<g>
	<g>
		<path d="M334.059,161.345c-2.101-3.637-6.751-4.882-10.387-2.783l-5.956,3.439c-3.637,2.1-4.883,6.75-2.783,10.387
			c1.409,2.439,3.964,3.803,6.592,3.803c1.29,0,2.599-0.329,3.795-1.02l5.956-3.439
			C334.913,169.632,336.159,164.982,334.059,161.345z"/>
	</g>
</g>
<g>
	<g>
		<path d="M197.066,240.437c-2.1-3.637-6.751-4.882-10.387-2.783l-5.955,3.439c-3.637,2.1-4.883,6.75-2.783,10.387
			c1.409,2.439,3.964,3.803,6.592,3.803c1.29,0,2.598-0.328,3.795-1.02l5.955-3.439C197.92,248.725,199.166,244.074,197.066,240.437
			z"/>
	</g>
</g>
<g>
	<g>
		<path d="M338.53,198.808h-6.877c-4.199,0-7.604,3.405-7.604,7.604s3.404,7.604,7.604,7.604h6.877c4.2,0,7.604-3.405,7.604-7.604
			S342.731,198.808,338.53,198.808z"/>
	</g>
</g>
<g>
	<g>
		<path d="M180.346,198.808h-6.877c-4.2,0-7.604,3.405-7.604,7.604s3.404,7.604,7.604,7.604h6.877c4.199,0,7.604-3.405,7.604-7.604
			S184.546,198.808,180.346,198.808z"/>
	</g>
</g>
<g>
	<g>
		<path d="M331.276,241.093l-5.956-3.439c-3.64-2.101-8.288-0.854-10.387,2.784c-2.1,3.637-0.854,8.287,2.783,10.387l5.956,3.439
			c1.198,0.691,2.505,1.02,3.795,1.02c2.628,0,5.184-1.365,6.592-3.804C336.159,247.844,334.913,243.193,331.276,241.093z"/>
	</g>
</g>
<g>
	<g>
		<path d="M194.284,162.001l-5.955-3.439c-3.639-2.103-8.288-0.855-10.388,2.782c-2.1,3.637-0.855,8.287,2.782,10.387l5.955,3.439
			c1.198,0.692,2.506,1.021,3.796,1.021c2.628,0,5.183-1.364,6.592-3.803C199.166,168.751,197.921,164.101,194.284,162.001z"/>
	</g>
</g>
<g>
	<g>
		<path d="M303.851,274.085l-3.439-5.956c-2.099-3.638-6.752-4.884-10.387-2.783c-3.637,2.1-4.883,6.75-2.783,10.387l3.439,5.956
			c1.408,2.439,3.964,3.803,6.592,3.803c1.29,0,2.599-0.328,3.795-1.02C304.705,282.373,305.951,277.722,303.851,274.085z"/>
	</g>
</g>
<g>
	<g>
		<path d="M224.757,137.092l-3.439-5.956c-2.099-3.638-6.752-4.884-10.387-2.783c-3.637,2.1-4.883,6.75-2.783,10.387l3.439,5.956
			c1.408,2.439,3.964,3.803,6.592,3.803c1.29,0,2.599-0.328,3.795-1.02C225.611,145.38,226.857,140.729,224.757,137.092z"/>
	</g>
</g>
<g>
	<g>
		<path d="M281.687,198.808h-18.083v-43.922c0-4.199-3.404-7.604-7.604-7.604s-7.604,3.405-7.604,7.604v51.525
			c0,4.199,3.404,7.604,7.604,7.604h25.687c4.2,0,7.604-3.405,7.604-7.604S285.888,198.808,281.687,198.808z"/>
	</g>
</g>
<g>
</g>
<g>
</g>
<g>
</g>
<g>
</g>
<g>
</g>
<g>
</g>
<g>
</g>
<g>
</g>
<g>
</g>
<g>
</g>
<g>
</g>
<g>
</g>
<g>
</g>
<g>
</g>
<g>
</g>
</svg>
