<?xml version="1.0" encoding="iso-8859-1"?>
<!-- Generator: Adobe Illustrator 19.0.0, SVG Export Plug-In . SVG Version: 6.00 Build 0)  -->
<svg version="1.1" id="Capa_1" xmlns="http://www.w3.org/2000/svg" xmlns:xlink="http://www.w3.org/1999/xlink" x="0px" y="0px"
	 viewBox="0 0 512 512" style="enable-background:new 0 0 512 512;" xml:space="preserve">
<g>
	<g>
		<path d="M303.43,111.994c-2.794-3.143-7.61-3.43-10.755-0.632l-51.609,45.875l-29.477-24.118
			c-3.256-2.664-8.057-2.185-10.721,1.072c-2.665,3.257-2.184,8.057,1.073,10.721l34.507,28.233c1.406,1.15,3.116,1.722,4.823,1.722
			c1.812,0,3.622-0.644,5.062-1.925l56.465-50.192C305.943,119.955,306.226,115.139,303.43,111.994z"/>
	</g>
</g>
<g>
	<g>
		<path d="M504.381,364.828c4.208,0,7.619-3.411,7.619-7.619V234.296c0-4.208-3.411-7.619-7.619-7.619H363.81
			c0.182-24.559,4.818-106.467,55.854-164.09c2.381-2.688,2.609-6.749,0.31-9.736c-1.472-1.911-3.825-2.935-6.237-2.935H179.12
			c-2.18,0-4.258,0.935-5.703,2.567c-33.77,38.129-48.167,85.636-54.297,118.774c-4.546,24.574-5.364,44.807-5.413,55.419H65.02
			c-4.208,0-7.619,3.411-7.619,7.619s3.411,7.619,7.619,7.619h56.43h192.456v204.932H15.238V241.914h14.225
			c4.208,0,7.619-3.411,7.619-7.619c0-4.208-3.411-7.619-7.619-7.619H7.619c-4.208,0-7.619,3.411-7.619,7.619v220.17
			c0,4.208,3.411,7.619,7.619,7.619h313.906h182.856c4.208,0,7.619-3.411,7.619-7.619v-61.7c0-4.208-3.411-7.619-7.619-7.619
			c-4.208,0-7.619,3.411-7.619,7.619v54.081H329.144V241.914h27.148h140.47v115.295
			C496.762,361.417,500.173,364.828,504.381,364.828z M353.962,171.258c-4.546,24.573-5.363,44.807-5.411,55.419h-27.025H128.968
			c0.18-24.205,4.681-104.065,53.625-161.523h215.374C371.47,100.72,359.428,141.703,353.962,171.258z"/>
	</g>
</g>
<g>
</g>
<g>
</g>
<g>
</g>
<g>
</g>
<g>
</g>
<g>
</g>
<g>
</g>
<g>
</g>
<g>
</g>
<g>
</g>
<g>
</g>
<g>
</g>
<g>
</g>
<g>
</g>
<g>
</g>
</svg>
