<?xml version="1.0" encoding="iso-8859-1"?>
<!-- Generator: Adobe Illustrator 19.0.0, SVG Export Plug-In . SVG Version: 6.00 Build 0)  -->
<svg version="1.1" id="Capa_1" xmlns="http://www.w3.org/2000/svg" xmlns:xlink="http://www.w3.org/1999/xlink" x="0px" y="0px"
	 viewBox="0 0 512.001 512.001" style="enable-background:new 0 0 512.001 512.001;" xml:space="preserve">
<g>
	<g>
		<path d="M256.027,102.762c-102.989,0-186.777,83.788-186.777,186.777c0,102.99,83.788,186.777,186.777,186.777
			s186.777-83.788,186.777-186.777S359.015,102.762,256.027,102.762z M408.223,368.641l-13.876-8.012
			c-3.639-2.102-8.296-0.854-10.395,2.785c-2.101,3.64-0.854,8.294,2.785,10.395l13.859,8.003
			c-13.447,20.994-31.338,38.879-52.336,52.32l-7.997-13.85c-2.101-3.641-6.757-4.888-10.395-2.785
			c-3.64,2.101-4.887,6.756-2.785,10.395l8.004,13.863c-21.565,11.246-45.801,18.04-71.487,19.162v-42.46
			c0-4.203-3.406-7.61-7.61-7.61c-4.204,0-7.61,3.407-7.61,7.61v42.457c-25.682-1.132-49.911-7.936-71.469-19.189l7.988-13.834
			c2.101-3.64,0.854-8.294-2.785-10.395c-3.639-2.102-8.295-0.855-10.395,2.785l-7.977,13.817
			c-20.986-13.443-38.864-31.328-52.303-52.318l13.807-7.971c3.64-2.101,4.887-6.756,2.785-10.395
			c-2.102-3.64-6.758-4.886-10.395-2.785l-13.82,7.979c-11.245-21.558-18.04-45.784-19.166-71.462h42.422
			c4.204,0,7.61-3.407,7.61-7.61c0-4.203-3.406-7.61-7.61-7.61H84.648c1.126-25.677,7.923-49.905,19.166-71.462l13.82,7.979
			c1.199,0.692,2.507,1.021,3.798,1.021c2.63,0,5.188-1.366,6.597-3.806c2.101-3.64,0.854-8.294-2.785-10.395l-13.807-7.971
			c13.437-20.99,31.317-38.874,52.303-52.318l7.977,13.817c1.41,2.441,3.967,3.806,6.597,3.806c1.291,0,2.601-0.329,3.798-1.021
			c3.64-2.101,4.887-6.756,2.785-10.395l-7.988-13.834c21.558-11.253,45.787-18.056,71.469-19.189v42.457
			c0,4.203,3.406,7.61,7.61,7.61c4.204,0,7.61-3.407,7.61-7.61v-42.456c25.687,1.121,49.922,7.915,71.487,19.162l-8.004,13.862
			c-2.101,3.64-0.854,8.294,2.785,10.395c1.198,0.692,2.507,1.021,3.798,1.021c2.63,0,5.188-1.365,6.597-3.806l7.997-13.85
			c20.999,13.44,38.891,31.326,52.337,52.32l-13.859,8.002c-3.64,2.101-4.887,6.756-2.785,10.395
			c1.41,2.441,3.967,3.806,6.597,3.806c1.291,0,2.601-0.329,3.798-1.021l13.876-8.011c11.254,21.565,18.056,45.804,19.184,71.493
			h-42.495c-4.204,0-7.61,3.407-7.61,7.61c0,4.203,3.406,7.61,7.61,7.61h42.495C426.279,322.838,419.478,347.076,408.223,368.641z"
			/>
	</g>
</g>
<g>
	<g>
		<path d="M314.943,281.929h-23.095c-2.991-14.096-14.114-25.219-28.211-28.211V190.81c0-4.203-3.406-7.61-7.61-7.61
			c-4.204,0-7.61,3.407-7.61,7.61v62.908c-16.552,3.513-29.012,18.237-29.012,35.821c0,20.193,16.428,36.622,36.622,36.622
			c17.584,0,32.308-12.459,35.821-29.012h23.095c4.204,0,7.61-3.407,7.61-7.61C322.553,285.336,319.147,281.929,314.943,281.929z
			 M256.027,310.941c-11.801,0-21.402-9.601-21.402-21.402s9.601-21.402,21.402-21.402c11.801,0,21.402,9.601,21.402,21.402
			S267.827,310.941,256.027,310.941z"/>
	</g>
</g>
<g>
	<g>
		<path d="M469.815,179.271c1.428,1.428,3.363,2.229,5.382,2.229c2.019,0,3.953-0.802,5.382-2.229
			c39.259-39.259,40.868-102.12,4.843-143.323l10.792-12.479c2.799-3.238,2.387-8.163-0.957-10.884
			c-3.232-2.63-8.038-1.982-10.764,1.17l-9.907,11.456C455.577,8.898,431.633,0,406.322,0c-28.062,0-54.445,10.933-74.283,30.784
			c-2.96,2.962-2.935,7.776,0.025,10.736l68.861,68.861l-6.136,7.096c-8.745-7.047-18.088-13.479-27.982-19.215
			c-3.737-2.166-8.526-0.821-10.559,2.99c-1.918,3.596-0.677,8.091,2.85,10.134c63.542,36.8,102.712,104.401,102.712,178.153
			c0,113.644-92.597,206.066-206.305,205.783c-112.826-0.281-204.98-92.435-205.262-205.261
			c-0.283-113.708,92.14-206.305,205.783-206.305c25.327,0,49.96,4.52,73.331,13.447c3.81,1.455,8.087-0.401,9.676-4.157
			l0.001-0.003c1.685-3.985-0.294-8.551-4.337-10.092c-25.083-9.568-51.509-14.413-78.672-14.413
			c-51.111,0-99.565,17.244-138.744,48.962l-6.154-7.117l68.859-68.86c2.961-2.961,2.985-7.775,0.025-10.736
			C160.176,10.933,133.794,0,105.732,0C80.421,0,56.478,8.898,37.47,25.209l-9.906-11.455c-2.725-3.152-7.532-3.8-10.764-1.17
			c-3.344,2.721-3.756,7.647-0.957,10.884l10.789,12.474C9.874,55.079,0.718,79.342,0.718,105.015
			c0,27.998,10.882,54.323,30.647,74.146c0.747,0.749,1.619,1.383,2.602,1.777c2.954,1.184,6.165,0.44,8.273-1.666l26.698-26.699
			c2.971-2.971,2.971-7.789,0-10.76l-0.003-0.003c-2.971-2.971-7.789-2.971-10.76,0l-21.094,21.094
			c-13.686-16.175-21.143-36.459-21.143-57.889c0-23.985,9.34-46.534,26.301-63.494C59.198,24.56,81.748,15.22,105.732,15.22
			c21.431,0,41.714,7.457,57.89,21.143l-81.605,81.605c-2.971,2.971-2.971,7.789,0,10.76l0.003,0.003
			c2.971,2.971,7.789,2.971,10.76,0l7.559-7.559l5.449,6.302c-2.038,1.893-4.057,3.815-6.034,5.792
			c-41.742,41.742-64.73,97.241-64.73,156.273c0,57.283,21.649,111.235,61.07,152.523l-26.179,59.253
			c-1.281,2.897-0.631,6.284,1.628,8.504c1.454,1.429,3.38,2.182,5.335,2.182c1.081,0,2.172-0.23,3.195-0.704l65.413-30.292
			c33.238,19.263,71.096,29.539,110.539,29.539c39.443,0,77.301-10.277,110.539-29.539l65.415,30.291
			c1.024,0.474,2.114,0.704,3.195,0.704c1.955,0,3.881-0.753,5.335-2.182c2.26-2.22,2.908-5.607,1.628-8.504l-26.178-59.252
			c39.422-41.287,61.071-95.241,61.071-152.523c0-62.48-26.177-120.845-70.726-162.108l5.411-6.258L469.815,179.271z
			 M91.995,489.002l15.729-35.6c7.156,6.492,14.676,12.457,22.5,17.897L91.995,489.002z M420.057,489.002l-38.228-17.703
			c7.824-5.44,15.344-11.404,22.5-17.896L420.057,489.002z M348.431,36.363c16.175-13.686,36.459-21.143,57.89-21.143
			c23.985,0,46.534,9.34,63.493,26.3c33.199,33.198,34.917,86.139,5.156,121.381L348.431,36.363z"/>
	</g>
</g>
<g>
</g>
<g>
</g>
<g>
</g>
<g>
</g>
<g>
</g>
<g>
</g>
<g>
</g>
<g>
</g>
<g>
</g>
<g>
</g>
<g>
</g>
<g>
</g>
<g>
</g>
<g>
</g>
<g>
</g>
</svg>
