<?xml version="1.0" encoding="iso-8859-1"?>
<!-- Generator: Adobe Illustrator 19.0.0, SVG Export Plug-In . SVG Version: 6.00 Build 0)  -->
<svg version="1.1" id="Capa_1" xmlns="http://www.w3.org/2000/svg" xmlns:xlink="http://www.w3.org/1999/xlink" x="0px" y="0px"
	 viewBox="0 0 512 512" style="enable-background:new 0 0 512 512;" xml:space="preserve">
<g>
	<g>
		<path d="M504.396,20.92H7.604C3.405,20.92,0,24.325,0,28.524v75.549v80.592v77.047v221.763c0,4.199,3.405,7.604,7.604,7.604
			h78.577c4.199,0,7.604-3.405,7.604-7.604s-3.405-7.604-7.604-7.604H15.208V269.317h481.584v206.555H121.667
			c-4.199,0-7.604,3.405-7.604,7.604s3.405,7.604,7.604,7.604h382.729c4.199,0,7.604-3.405,7.604-7.604V261.713v-31.417V104.072
			V28.524C512,24.324,508.595,20.92,504.396,20.92z M328.587,254.109H15.208v-69.444c0-10.853,8.83-19.682,19.682-19.682h88.535
			h15.557c5.679,0,11.071,2.448,14.803,6.724l23.625,26.989c6.622,7.574,16.193,11.918,26.26,11.918h88.535h16.699
			c10.852,0,19.682,8.83,19.682,19.683V254.109z M263.067,195.405h-59.396c-5.68,0-11.077-2.45-14.814-6.723l-20.746-23.699h34.983
			h24.424c5.678-0.001,11.07,2.447,14.803,6.723L263.067,195.405z M256.648,164.983h50.538c5.679,0,11.071,2.448,14.804,6.724
			l20.745,23.699h-33.83h-16.699c-5.679-0.001-11.076-2.451-14.813-6.724L256.648,164.983z M417.124,254.109h-73.328v-23.813
			c0-7.298-2.256-14.075-6.101-19.683h34.181h25.567c10.852,0,19.682,8.83,19.682,19.683V254.109z M496.792,254.109h-64.46v-23.813
			c0-7.298-2.256-14.075-6.101-19.683h50.88c10.852,0,19.682,8.83,19.682,19.683V254.109z M496.792,96.468h-92.258
			c-4.199,0-7.604,3.405-7.604,7.604s3.405,7.604,7.604,7.604h92.258v89.83c-5.607-3.846-12.385-6.101-19.682-6.101h-79.668h-25.567
			c-5.68,0-11.077-2.45-14.814-6.723l-23.621-26.985c-6.614-7.578-16.184-11.923-26.255-11.923h-79.668h-24.424h-64.112h-15.557
			H34.89c-7.298,0-14.075,2.256-19.682,6.1v-44.198h353.84c4.199,0,7.604-3.405,7.604-7.604s-3.405-7.604-7.604-7.604H15.208v-60.34
			h481.584V96.468z"/>
	</g>
</g>
<g>
	<g>
		<path d="M336.095,326.463h-160.19c-4.2,0-7.604,3.405-7.604,7.604v77.053c0,4.199,3.404,7.604,7.604,7.604h160.19
			c4.2,0,7.604-3.405,7.604-7.604v-77.053C343.699,329.867,340.295,326.463,336.095,326.463z M328.491,403.516H183.509v-61.846
			h144.982V403.516z"/>
	</g>
</g>
<g>
</g>
<g>
</g>
<g>
</g>
<g>
</g>
<g>
</g>
<g>
</g>
<g>
</g>
<g>
</g>
<g>
</g>
<g>
</g>
<g>
</g>
<g>
</g>
<g>
</g>
<g>
</g>
<g>
</g>
</svg>
