<?xml version="1.0" encoding="iso-8859-1"?>
<!-- Generator: Adobe Illustrator 19.0.0, SVG Export Plug-In . SVG Version: 6.00 Build 0)  -->
<svg version="1.1" id="Capa_1" xmlns="http://www.w3.org/2000/svg" xmlns:xlink="http://www.w3.org/1999/xlink" x="0px" y="0px"
	 viewBox="0 0 512 512" style="enable-background:new 0 0 512 512;" xml:space="preserve">
<g>
	<g>
		<path d="M256,51.967C143.496,51.967,51.967,143.496,51.967,256S143.496,460.033,256,460.033S460.033,368.504,460.033,256
			S368.504,51.967,256,51.967z M256,444.825c-104.118,0-188.825-84.706-188.825-188.825c0-104.117,84.706-188.825,188.825-188.825
			c104.117,0,188.825,84.706,188.825,188.825S360.117,444.825,256,444.825z"/>
	</g>
</g>
<g>
	<g>
		<path d="M417.646,57.481C372.085,20.356,314.997,0,256,0C187.03,0,122.225,27.089,73.734,76.236
			C26.071,124.542,0,190.102,0,257.963v147.855c0,4.199,3.405,7.604,7.604,7.604s7.604-3.405,7.604-7.604V257.846
			c0-63.83,24.523-125.495,69.353-170.931C130.172,40.688,191.128,15.208,256,15.208c55.499,0,109.203,19.151,152.056,54.075
			c3.193,2.603,7.865,2.224,10.564-0.886l0.005-0.005C421.451,65.136,420.989,60.205,417.646,57.481z"/>
	</g>
</g>
<g>
	<g>
		<path d="M441.911,80.004c-2.94-3.1-7.877-3.128-10.888-0.097c-2.91,2.927-2.932,7.622-0.094,10.618
			c42.531,44.89,65.863,103.36,65.863,165.475v240.792H15.208v-55.489c0-4.199-3.405-7.604-7.604-7.604S0,437.104,0,441.303v63.093
			C0,508.595,3.405,512,7.604,512h496.792c4.199,0,7.604-3.405,7.604-7.604V256C512,189.93,487.171,127.737,441.911,80.004z"/>
	</g>
</g>
<g>
	<g>
		<path d="M263.455,86.471c-0.101-0.477-0.243-0.963-0.436-1.419s-0.426-0.902-0.7-1.308c-0.274-0.416-0.588-0.811-0.943-1.156
			c-1.764-1.774-4.39-2.585-6.864-2.078c-0.487,0.091-0.963,0.243-1.419,0.426c-0.456,0.193-0.902,0.426-1.318,0.7
			c-0.416,0.284-0.801,0.598-1.156,0.953c-1.409,1.409-2.22,3.376-2.22,5.373s0.811,3.964,2.22,5.373
			c0.355,0.355,0.74,0.669,1.156,0.953c0.416,0.274,0.862,0.507,1.318,0.689c0.456,0.193,0.933,0.345,1.419,0.436
			c0.497,0.101,0.994,0.152,1.49,0.152c1.997,0,3.953-0.811,5.373-2.23c1.419-1.409,2.231-3.376,2.231-5.373
			C263.607,87.465,263.556,86.968,263.455,86.471z"/>
	</g>
</g>
<g>
	<g>
		<path d="M263.455,422.556c-0.101-0.487-0.244-0.963-0.436-1.43c-0.193-0.456-0.426-0.892-0.7-1.308
			c-0.274-0.416-0.588-0.801-0.943-1.156c-1.764-1.764-4.39-2.575-6.864-2.078c-0.487,0.101-0.963,0.243-1.419,0.436
			s-0.902,0.426-1.318,0.7c-0.416,0.274-0.801,0.588-1.156,0.943c-0.345,0.355-0.669,0.74-0.943,1.156
			c-0.274,0.416-0.507,0.852-0.7,1.308c-0.193,0.466-0.335,0.943-0.436,1.43c-0.091,0.487-0.142,0.983-0.142,1.48
			s0.051,1.004,0.142,1.49c0.101,0.487,0.243,0.963,0.436,1.419c0.193,0.456,0.426,0.902,0.7,1.318
			c0.274,0.416,0.598,0.801,0.943,1.156c0.355,0.345,0.74,0.669,1.156,0.943c0.416,0.274,0.862,0.507,1.318,0.7
			s0.933,0.335,1.419,0.436c0.497,0.091,0.994,0.142,1.49,0.142c1.997,0,3.964-0.811,5.373-2.22c0.355-0.355,0.669-0.74,0.943-1.156
			c0.275-0.416,0.507-0.862,0.7-1.318c0.192-0.456,0.335-0.933,0.436-1.419c0.102-0.487,0.152-0.994,0.152-1.49
			S263.556,423.043,263.455,422.556z"/>
	</g>
</g>
<g>
	<g>
		<path d="M205.979,96.61c-0.091-0.487-0.243-0.963-0.426-1.419c-0.193-0.466-0.426-0.902-0.7-1.318
			c-0.284-0.416-0.598-0.801-0.953-1.156c-0.345-0.345-0.74-0.669-1.156-0.943c-0.406-0.274-0.852-0.507-1.308-0.7
			s-0.943-0.335-1.419-0.436c-0.983-0.193-1.997-0.193-2.981,0c-0.477,0.101-0.963,0.243-1.419,0.436s-0.902,0.426-1.308,0.7
			c-0.416,0.274-0.811,0.598-1.156,0.943c-0.355,0.355-0.669,0.74-0.953,1.156c-0.274,0.416-0.507,0.852-0.7,1.318
			c-0.182,0.456-0.335,0.933-0.426,1.419c-0.101,0.487-0.152,0.994-0.152,1.49c0,0.487,0.051,0.994,0.152,1.48
			c0.091,0.487,0.243,0.963,0.426,1.419c0.193,0.466,0.426,0.902,0.7,1.318c0.284,0.416,0.598,0.801,0.953,1.156
			c0.345,0.345,0.74,0.669,1.156,0.943c0.406,0.274,0.852,0.507,1.308,0.7s0.943,0.335,1.419,0.436
			c0.497,0.101,0.994,0.152,1.49,0.152c0.497,0,0.994-0.051,1.49-0.152c0.477-0.101,0.963-0.243,1.419-0.436s0.902-0.426,1.308-0.7
			c0.416-0.274,0.811-0.598,1.156-0.943c0.355-0.355,0.669-0.74,0.953-1.156c0.274-0.416,0.507-0.852,0.7-1.318
			c0.182-0.456,0.335-0.933,0.426-1.419c0.101-0.487,0.152-0.994,0.152-1.48C206.131,97.603,206.081,97.096,205.979,96.61z"/>
	</g>
</g>
<g>
	<g>
		<path d="M320.921,412.418c-0.092-0.487-0.243-0.963-0.427-1.419c-0.192-0.456-0.426-0.902-0.699-1.318
			c-0.275-0.416-0.598-0.801-0.943-1.156c-0.356-0.345-0.74-0.659-1.157-0.943c-0.416-0.274-0.852-0.507-1.318-0.7
			c-0.456-0.182-0.933-0.335-1.419-0.426c-0.983-0.203-1.987-0.203-2.971,0c-0.486,0.091-0.963,0.243-1.43,0.426
			c-0.456,0.193-0.892,0.426-1.308,0.7c-0.416,0.284-0.801,0.598-1.156,0.943c-0.355,0.355-0.669,0.74-0.943,1.156
			c-0.275,0.416-0.507,0.862-0.7,1.318c-0.193,0.456-0.335,0.933-0.436,1.419c-0.102,0.497-0.152,0.994-0.152,1.49
			s0.051,0.994,0.152,1.48c0.101,0.487,0.242,0.963,0.436,1.43c0.193,0.456,0.426,0.892,0.7,1.308
			c0.274,0.416,0.588,0.811,0.943,1.156c0.355,0.355,0.739,0.669,1.156,0.943c0.417,0.274,0.852,0.517,1.308,0.7
			c0.466,0.193,0.944,0.335,1.43,0.436c0.487,0.101,0.983,0.152,1.48,0.152c0.497,0,0.994-0.051,1.49-0.152
			c0.487-0.101,0.963-0.243,1.419-0.436c0.466-0.182,0.902-0.426,1.318-0.7c0.416-0.274,0.801-0.588,1.157-0.943
			c0.345-0.345,0.668-0.74,0.943-1.156c0.274-0.416,0.507-0.852,0.699-1.308c0.183-0.466,0.335-0.943,0.427-1.43
			c0.101-0.487,0.151-0.983,0.151-1.48S321.021,412.914,320.921,412.418z"/>
	</g>
</g>
<g>
	<g>
		<path d="M155.438,125.789c-0.091-0.487-0.243-0.963-0.436-1.419c-0.182-0.466-0.416-0.902-0.689-1.318
			c-0.284-0.416-0.598-0.801-0.953-1.156c-0.345-0.345-0.74-0.669-1.156-0.943c-0.406-0.274-0.852-0.507-1.308-0.7
			c-0.456-0.193-0.943-0.335-1.419-0.436c-0.983-0.193-1.997-0.193-2.971,0c-0.487,0.101-0.973,0.243-1.43,0.436
			c-0.456,0.193-0.902,0.426-1.308,0.7c-0.416,0.274-0.811,0.598-1.156,0.943c-0.355,0.355-0.669,0.74-0.953,1.156
			c-0.274,0.416-0.507,0.852-0.7,1.318c-0.182,0.456-0.335,0.933-0.426,1.419c-0.101,0.487-0.152,0.994-0.152,1.49
			c0,0.487,0.051,0.994,0.152,1.48c0.091,0.487,0.243,0.963,0.426,1.419c0.193,0.466,0.426,0.902,0.7,1.318
			c0.284,0.416,0.598,0.801,0.953,1.156c0.345,0.345,0.74,0.669,1.156,0.943c0.406,0.274,0.852,0.507,1.308,0.7
			c0.456,0.193,0.943,0.335,1.43,0.436c0.487,0.101,0.983,0.152,1.48,0.152c0.497,0,0.994-0.051,1.49-0.152
			c0.477-0.101,0.963-0.243,1.419-0.436s0.902-0.426,1.308-0.7c0.416-0.274,0.811-0.598,1.156-0.943
			c0.355-0.355,0.669-0.74,0.953-1.156c0.274-0.416,0.507-0.852,0.689-1.318c0.193-0.456,0.345-0.933,0.436-1.419
			c0.101-0.487,0.152-0.994,0.152-1.48C155.59,126.782,155.539,126.275,155.438,125.789z"/>
	</g>
</g>
<g>
	<g>
		<path d="M371.472,383.239c-0.101-0.487-0.244-0.963-0.436-1.419c-0.193-0.456-0.426-0.902-0.7-1.318
			c-0.274-0.416-0.598-0.801-0.943-1.156c-0.355-0.345-0.74-0.669-1.156-0.943c-0.416-0.274-0.863-0.507-1.319-0.7
			c-0.455-0.193-0.933-0.335-1.418-0.436c-0.983-0.193-1.997-0.193-2.972,0c-0.486,0.101-0.962,0.243-1.429,0.436
			c-0.456,0.193-0.892,0.426-1.308,0.7c-0.416,0.274-0.801,0.598-1.157,0.943c-0.355,0.355-0.669,0.74-0.943,1.156
			c-0.274,0.416-0.517,0.862-0.7,1.318c-0.192,0.456-0.334,0.933-0.436,1.419c-0.101,0.487-0.151,0.994-0.151,1.49
			c0,1.997,0.811,3.954,2.229,5.373c0.356,0.355,0.74,0.669,1.157,0.943c0.417,0.274,0.852,0.517,1.308,0.7
			c0.466,0.193,0.943,0.335,1.429,0.436c0.487,0.101,0.984,0.152,1.481,0.152c0.496,0,0.993-0.051,1.49-0.152
			c0.486-0.101,0.963-0.243,1.418-0.436c0.456-0.182,0.903-0.426,1.319-0.7c0.415-0.274,0.801-0.588,1.156-0.943
			c0.345-0.355,0.669-0.74,0.943-1.156c0.275-0.416,0.507-0.852,0.7-1.308c0.192-0.466,0.335-0.943,0.436-1.43
			c0.091-0.487,0.143-0.983,0.143-1.48S371.563,383.725,371.472,383.239z"/>
	</g>
</g>
<g>
	<g>
		<path d="M117.925,170.49c-0.091-0.477-0.243-0.963-0.426-1.419c-0.193-0.456-0.426-0.902-0.7-1.308
			c-0.284-0.416-0.598-0.811-0.953-1.156c-0.345-0.355-0.74-0.669-1.156-0.953c-0.406-0.274-0.852-0.507-1.308-0.689
			c-0.456-0.193-0.943-0.345-1.419-0.436c-0.983-0.203-1.997-0.203-2.971,0c-0.487,0.091-0.973,0.243-1.43,0.436
			c-0.456,0.182-0.902,0.416-1.308,0.689c-0.416,0.284-0.811,0.598-1.156,0.953c-0.355,0.345-0.669,0.74-0.953,1.156
			c-0.274,0.406-0.507,0.852-0.689,1.308c-0.193,0.456-0.345,0.943-0.436,1.419c-0.101,0.497-0.152,0.994-0.152,1.49
			c0,0.497,0.051,0.994,0.152,1.49c0.091,0.477,0.243,0.963,0.436,1.419c0.182,0.456,0.416,0.902,0.689,1.308
			c0.284,0.416,0.598,0.811,0.953,1.156c0.345,0.355,0.74,0.669,1.156,0.953c0.406,0.274,0.852,0.507,1.308,0.7
			c0.456,0.182,0.943,0.335,1.43,0.426c0.487,0.101,0.983,0.152,1.48,0.152c0.497,0,0.994-0.051,1.49-0.152
			c0.477-0.091,0.963-0.243,1.419-0.426c0.456-0.193,0.902-0.426,1.308-0.7c0.416-0.284,0.811-0.598,1.156-0.953
			c0.355-0.345,0.669-0.74,0.953-1.156c0.274-0.406,0.507-0.852,0.7-1.308c0.182-0.456,0.335-0.943,0.426-1.419
			c0.101-0.497,0.152-0.994,0.152-1.49C118.077,171.484,118.027,170.987,117.925,170.49z"/>
	</g>
</g>
<g>
	<g>
		<path d="M408.984,338.537c-0.101-0.487-0.243-0.963-0.436-1.43c-0.193-0.456-0.426-0.892-0.7-1.308
			c-0.274-0.416-0.598-0.811-0.943-1.156c-1.419-1.419-3.376-2.23-5.384-2.23c-1.998,0-3.964,0.811-5.375,2.23
			c-0.355,0.345-0.669,0.74-0.943,1.156c-0.274,0.416-0.517,0.852-0.7,1.308c-0.192,0.466-0.345,0.943-0.436,1.43
			c-0.101,0.487-0.151,0.983-0.151,1.48c0,2.007,0.811,3.964,2.229,5.384c1.411,1.409,3.378,2.22,5.375,2.22
			c2.006,0,3.963-0.811,5.384-2.22c1.409-1.419,2.22-3.376,2.22-5.384C409.127,339.521,409.075,339.024,408.984,338.537z"/>
	</g>
</g>
<g>
	<g>
		<path d="M97.972,225.34c-0.101-0.487-0.243-0.963-0.436-1.43c-0.193-0.456-0.426-0.902-0.7-1.308
			c-0.274-0.416-0.598-0.811-0.943-1.156c-0.355-0.355-0.74-0.669-1.156-0.943c-0.416-0.274-0.852-0.517-1.318-0.7
			c-0.456-0.193-0.933-0.345-1.419-0.436c-0.983-0.203-1.987-0.203-2.971,0c-0.487,0.091-0.963,0.243-1.419,0.436
			c-0.466,0.182-0.902,0.426-1.318,0.7c-0.416,0.274-0.811,0.588-1.156,0.943c-1.419,1.409-2.23,3.376-2.23,5.373
			c0,2.007,0.811,3.964,2.23,5.373c0.345,0.355,0.74,0.669,1.156,0.953c0.416,0.274,0.852,0.507,1.318,0.7
			c0.456,0.182,0.933,0.335,1.419,0.426c0.487,0.101,0.994,0.152,1.48,0.152c0.497,0,1.004-0.051,1.49-0.152
			c0.487-0.091,0.963-0.243,1.419-0.426c0.466-0.193,0.902-0.426,1.318-0.7c0.416-0.284,0.801-0.598,1.156-0.953
			c0.345-0.345,0.669-0.74,0.943-1.156c0.274-0.406,0.507-0.852,0.7-1.308s0.335-0.943,0.436-1.419
			c0.091-0.497,0.142-0.994,0.142-1.49C98.114,226.323,98.064,225.827,97.972,225.34z"/>
	</g>
</g>
<g>
	<g>
		<path d="M428.935,283.698c-0.091-0.487-0.242-0.963-0.426-1.43c-0.192-0.456-0.426-0.902-0.699-1.308
			c-0.284-0.416-0.598-0.811-0.953-1.156c-1.763-1.764-4.39-2.575-6.854-2.078c-0.486,0.101-0.973,0.243-1.43,0.436
			c-0.456,0.182-0.902,0.426-1.308,0.7c-0.416,0.274-0.811,0.588-1.156,0.943c-0.356,0.345-0.669,0.74-0.953,1.156
			c-0.274,0.406-0.507,0.852-0.699,1.308c-0.183,0.466-0.335,0.943-0.426,1.43c-0.102,0.487-0.152,0.983-0.152,1.48
			s0.051,0.994,0.152,1.49c0.091,0.487,0.242,0.963,0.426,1.419c0.192,0.456,0.426,0.902,0.699,1.308
			c0.284,0.426,0.598,0.811,0.953,1.166c0.345,0.345,0.739,0.659,1.156,0.943c0.406,0.274,0.852,0.507,1.308,0.7
			c0.456,0.182,0.944,0.335,1.43,0.426c0.487,0.101,0.983,0.152,1.48,0.152c2.007,0,3.964-0.811,5.373-2.22
			c0.356-0.355,0.669-0.74,0.953-1.166c0.274-0.406,0.507-0.852,0.699-1.308c0.184-0.456,0.335-0.933,0.426-1.419
			c0.102-0.497,0.152-0.994,0.152-1.49S429.037,284.184,428.935,283.698z"/>
	</g>
</g>
<g>
	<g>
		<path d="M97.972,283.698c-0.101-0.487-0.243-0.963-0.436-1.43c-0.193-0.456-0.426-0.902-0.7-1.308
			c-0.274-0.416-0.598-0.811-0.943-1.156c-0.355-0.355-0.74-0.669-1.156-0.943c-0.416-0.274-0.852-0.517-1.318-0.7
			c-0.456-0.193-0.933-0.335-1.419-0.436c-0.983-0.203-1.987-0.203-2.971,0c-0.487,0.101-0.963,0.243-1.419,0.436
			c-0.466,0.182-0.902,0.426-1.318,0.7c-0.416,0.274-0.811,0.588-1.156,0.943c-1.419,1.409-2.23,3.376-2.23,5.373
			c0,2.008,0.811,3.964,2.23,5.373c0.355,0.355,0.74,0.669,1.156,0.953c0.416,0.274,0.852,0.507,1.318,0.7
			c0.456,0.182,0.933,0.335,1.419,0.436c0.487,0.091,0.994,0.142,1.48,0.142c2.007,0,3.964-0.811,5.384-2.231
			c0.345-0.345,0.669-0.73,0.943-1.156c0.274-0.406,0.507-0.852,0.7-1.308s0.335-0.933,0.436-1.419
			c0.091-0.497,0.142-0.994,0.142-1.49S98.064,284.184,97.972,283.698z"/>
	</g>
</g>
<g>
	<g>
		<path d="M428.935,225.34c-0.091-0.487-0.242-0.963-0.426-1.43c-0.192-0.456-0.426-0.902-0.699-1.308
			c-0.284-0.416-0.598-0.811-0.953-1.156c-1.763-1.764-4.39-2.575-6.854-2.078c-0.486,0.091-0.973,0.243-1.43,0.436
			c-0.456,0.182-0.902,0.426-1.308,0.7c-0.416,0.274-0.811,0.588-1.156,0.943c-0.356,0.345-0.669,0.74-0.953,1.156
			c-0.274,0.406-0.507,0.852-0.699,1.308c-0.183,0.466-0.335,0.943-0.426,1.43c-0.102,0.487-0.152,0.983-0.152,1.48
			c0,0.497,0.051,0.994,0.152,1.49c0.091,0.477,0.242,0.963,0.426,1.419c0.192,0.456,0.426,0.902,0.699,1.308
			c0.284,0.426,0.598,0.811,0.953,1.156c0.345,0.355,0.739,0.669,1.156,0.953c0.406,0.274,0.852,0.507,1.308,0.7
			c0.456,0.182,0.944,0.335,1.43,0.426c0.487,0.101,0.983,0.152,1.48,0.152c2.007,0,3.964-0.811,5.373-2.23
			c0.356-0.345,0.669-0.73,0.953-1.156c0.274-0.406,0.507-0.852,0.699-1.308c0.184-0.456,0.335-0.943,0.426-1.419
			c0.102-0.497,0.152-0.994,0.152-1.49C429.087,226.323,429.037,225.826,428.935,225.34z"/>
	</g>
</g>
<g>
	<g>
		<path d="M117.925,338.537c-0.091-0.487-0.243-0.963-0.426-1.43c-0.193-0.456-0.426-0.892-0.7-1.308
			c-0.284-0.416-0.598-0.811-0.953-1.156c-0.345-0.355-0.74-0.669-1.156-0.943c-0.406-0.274-0.852-0.517-1.308-0.7
			c-0.456-0.193-0.943-0.335-1.419-0.436c-0.983-0.193-1.997-0.193-2.971,0c-0.487,0.101-0.973,0.243-1.43,0.436
			c-0.456,0.182-0.902,0.426-1.308,0.7c-0.416,0.274-0.811,0.588-1.156,0.943c-0.355,0.345-0.669,0.74-0.953,1.156
			c-0.274,0.416-0.507,0.852-0.689,1.308c-0.193,0.466-0.345,0.943-0.436,1.43c-0.101,0.487-0.152,0.983-0.152,1.48
			c0,0.497,0.051,0.994,0.152,1.49c0.091,0.487,0.243,0.963,0.436,1.419c0.182,0.456,0.416,0.902,0.689,1.318
			c0.284,0.416,0.598,0.801,0.953,1.156c0.345,0.345,0.74,0.659,1.156,0.943c0.406,0.274,0.852,0.507,1.308,0.7
			c0.456,0.182,0.943,0.335,1.43,0.436c0.487,0.091,0.983,0.142,1.48,0.142c0.497,0,0.994-0.051,1.49-0.142
			c0.477-0.101,0.963-0.253,1.419-0.436c0.456-0.193,0.902-0.426,1.308-0.7c0.416-0.284,0.811-0.598,1.156-0.943
			c0.355-0.355,0.669-0.74,0.953-1.156c0.274-0.416,0.507-0.862,0.7-1.318c0.182-0.456,0.335-0.933,0.426-1.419
			c0.101-0.497,0.152-0.994,0.152-1.49C118.077,339.521,118.027,339.024,117.925,338.537z"/>
	</g>
</g>
<g>
	<g>
		<path d="M406.906,166.607c-0.355-0.355-0.74-0.669-1.156-0.953c-0.416-0.274-0.863-0.507-1.319-0.7
			c-0.455-0.182-0.933-0.335-1.418-0.426c-0.983-0.203-1.987-0.203-2.972,0c-0.486,0.091-0.962,0.243-1.429,0.426
			c-0.456,0.193-0.892,0.426-1.308,0.7c-0.416,0.284-0.812,0.598-1.157,0.953c-1.418,1.409-2.229,3.376-2.229,5.373
			c0,2.007,0.811,3.964,2.229,5.373c0.345,0.355,0.741,0.669,1.157,0.953c0.416,0.274,0.852,0.507,1.308,0.7
			c0.466,0.182,0.943,0.335,1.429,0.426c0.487,0.101,0.984,0.152,1.481,0.152c0.496,0,0.993-0.051,1.49-0.152
			c0.486-0.091,0.963-0.243,1.418-0.426c0.456-0.193,0.903-0.426,1.319-0.7c0.415-0.284,0.801-0.598,1.156-0.953
			c1.409-1.409,2.22-3.366,2.22-5.373C409.127,169.983,408.314,168.016,406.906,166.607z"/>
	</g>
</g>
<g>
	<g>
		<path d="M153.36,379.345c-0.345-0.345-0.74-0.669-1.156-0.943c-0.406-0.274-0.852-0.507-1.308-0.7
			c-0.456-0.193-0.943-0.335-1.419-0.436c-0.983-0.193-1.997-0.193-2.971,0c-0.487,0.101-0.973,0.243-1.43,0.436
			c-0.456,0.193-0.902,0.426-1.308,0.7c-0.416,0.274-0.811,0.598-1.156,0.943c-1.419,1.419-2.23,3.376-2.23,5.384
			c0,0.497,0.051,0.994,0.152,1.48c0.091,0.487,0.243,0.963,0.426,1.43c0.193,0.456,0.426,0.892,0.7,1.308
			c0.284,0.416,0.598,0.801,0.953,1.156c0.345,0.355,0.74,0.669,1.156,0.943c0.406,0.274,0.852,0.507,1.308,0.7
			c0.456,0.193,0.943,0.335,1.43,0.436c0.487,0.101,0.983,0.152,1.48,0.152c0.497,0,0.994-0.051,1.49-0.152
			c0.477-0.101,0.963-0.243,1.419-0.436c0.456-0.193,0.902-0.426,1.308-0.7c0.416-0.274,0.811-0.588,1.156-0.943
			c0.355-0.355,0.669-0.74,0.953-1.156c0.274-0.416,0.507-0.852,0.689-1.308c0.193-0.466,0.345-0.943,0.436-1.43
			c0.101-0.487,0.152-0.983,0.152-1.48C155.59,382.721,154.779,380.765,153.36,379.345z"/>
	</g>
</g>
<g>
	<g>
		<path d="M371.472,125.789c-0.101-0.487-0.244-0.963-0.436-1.419c-0.193-0.466-0.426-0.902-0.7-1.318
			c-0.274-0.416-0.598-0.801-0.943-1.156c-0.355-0.345-0.74-0.669-1.156-0.943c-0.416-0.274-0.863-0.507-1.319-0.7
			c-0.455-0.193-0.933-0.335-1.418-0.436c-0.983-0.193-1.997-0.193-2.972,0c-0.486,0.101-0.962,0.243-1.429,0.436
			c-0.456,0.193-0.892,0.426-1.308,0.7s-0.801,0.598-1.157,0.943c-0.355,0.355-0.669,0.74-0.943,1.156
			c-0.274,0.416-0.517,0.852-0.7,1.318c-0.192,0.456-0.334,0.933-0.436,1.419c-0.101,0.487-0.151,0.994-0.151,1.49
			c0,0.497,0.051,0.994,0.151,1.48c0.102,0.487,0.243,0.963,0.436,1.419c0.184,0.466,0.427,0.902,0.7,1.318
			c0.274,0.416,0.588,0.801,0.943,1.156c0.356,0.345,0.74,0.669,1.157,0.943s0.852,0.507,1.308,0.7
			c0.466,0.193,0.943,0.335,1.429,0.436c0.487,0.101,0.984,0.152,1.481,0.152c0.496,0,0.993-0.051,1.49-0.152
			c0.486-0.101,0.963-0.243,1.418-0.436c0.456-0.193,0.903-0.426,1.319-0.7c0.415-0.274,0.801-0.598,1.156-0.943
			c0.345-0.355,0.669-0.74,0.943-1.156c0.275-0.416,0.507-0.852,0.7-1.318c0.192-0.456,0.335-0.933,0.436-1.419
			c0.091-0.487,0.143-0.983,0.143-1.48C371.615,126.782,371.563,126.275,371.472,125.789z"/>
	</g>
</g>
<g>
	<g>
		<path d="M203.901,408.524c-0.345-0.345-0.74-0.659-1.156-0.943c-0.406-0.274-0.852-0.507-1.308-0.7
			c-0.456-0.193-0.943-0.335-1.419-0.436c-0.983-0.193-1.997-0.193-2.981,0c-0.477,0.101-0.963,0.243-1.419,0.436
			s-0.902,0.426-1.308,0.7c-0.416,0.284-0.811,0.598-1.156,0.943c-1.419,1.419-2.23,3.376-2.23,5.384
			c0,0.497,0.051,0.994,0.152,1.48c0.091,0.487,0.243,0.963,0.426,1.43c0.193,0.456,0.426,0.892,0.7,1.308
			c0.284,0.416,0.598,0.811,0.953,1.156c0.345,0.355,0.74,0.669,1.156,0.943c0.406,0.274,0.852,0.517,1.308,0.7
			c0.456,0.193,0.943,0.335,1.419,0.436c0.497,0.101,0.994,0.152,1.49,0.152c0.497,0,0.994-0.051,1.49-0.152
			c0.477-0.101,0.963-0.243,1.419-0.436c0.456-0.182,0.902-0.426,1.308-0.7c0.416-0.274,0.811-0.588,1.156-0.943
			c0.355-0.345,0.669-0.74,0.953-1.156c0.274-0.416,0.507-0.852,0.7-1.308c0.182-0.466,0.335-0.943,0.426-1.43
			c0.101-0.487,0.152-0.983,0.152-1.48C206.131,411.9,205.32,409.944,203.901,408.524z"/>
	</g>
</g>
<g>
	<g>
		<path d="M318.853,92.717c-0.356-0.345-0.74-0.669-1.157-0.943s-0.852-0.507-1.318-0.7c-0.456-0.193-0.933-0.335-1.419-0.436
			c-0.983-0.193-1.987-0.193-2.971,0c-0.486,0.101-0.963,0.243-1.43,0.436c-0.456,0.193-0.892,0.426-1.308,0.7
			s-0.801,0.598-1.156,0.943c-1.419,1.419-2.231,3.376-2.231,5.384c0,0.487,0.051,0.994,0.152,1.48
			c0.101,0.487,0.242,0.963,0.436,1.419c0.193,0.466,0.426,0.902,0.7,1.318c0.274,0.416,0.588,0.801,0.943,1.156
			c0.355,0.345,0.739,0.669,1.156,0.943c0.417,0.274,0.852,0.507,1.308,0.7c0.466,0.193,0.944,0.335,1.43,0.436
			c0.487,0.101,0.983,0.142,1.48,0.142c0.497,0,0.994-0.041,1.49-0.142c0.487-0.101,0.963-0.243,1.419-0.436
			c0.466-0.193,0.902-0.426,1.318-0.7s0.801-0.598,1.157-0.943c0.345-0.355,0.668-0.74,0.943-1.156
			c0.274-0.416,0.507-0.852,0.699-1.318c0.184-0.456,0.335-0.933,0.427-1.419c0.101-0.487,0.151-0.994,0.151-1.48
			C321.073,96.093,320.262,94.136,318.853,92.717z"/>
	</g>
</g>
<g>
	<g>
		<path d="M357.83,154.171c-1.922-1.921-4.723-2.672-7.345-1.968l-71.237,19.088c-2.624,0.704-4.673,2.753-5.377,5.376
			c-0.703,2.624,0.047,5.424,1.967,7.345l15.124,15.124l-85.324,44.815c-2.14,1.123-3.618,3.199-3.981,5.588
			c-0.364,2.39,0.431,4.811,2.14,6.52l52.149,52.148c1.437,1.437,3.376,2.227,5.376,2.227c0.379,0,0.761-0.028,1.143-0.086
			c2.39-0.363,4.465-1.841,5.589-3.981l44.815-85.324l15.119,15.119c1.446,1.445,3.387,2.227,5.378,2.227
			c0.656,0,1.318-0.084,1.968-0.259c2.624-0.704,4.673-2.753,5.377-5.377l19.088-71.237
			C360.5,158.891,359.75,156.092,357.83,154.171z M259.395,290.149l-37.539-37.538l79.067-41.528L259.395,290.149z M329.429,216.094
			l-33.522-33.523L341.7,170.3L329.429,216.094z"/>
	</g>
</g>
<g>
</g>
<g>
</g>
<g>
</g>
<g>
</g>
<g>
</g>
<g>
</g>
<g>
</g>
<g>
</g>
<g>
</g>
<g>
</g>
<g>
</g>
<g>
</g>
<g>
</g>
<g>
</g>
<g>
</g>
</svg>
