<?xml version="1.0" encoding="iso-8859-1"?>
<!-- Generator: Adobe Illustrator 19.0.0, SVG Export Plug-In . SVG Version: 6.00 Build 0)  -->
<svg version="1.1" id="Capa_1" xmlns="http://www.w3.org/2000/svg" xmlns:xlink="http://www.w3.org/1999/xlink" x="0px" y="0px"
	 viewBox="0 0 512.001 512.001" style="enable-background:new 0 0 512.001 512.001;" xml:space="preserve">
<g>
	<g>
		<path d="M504.329,432.014h-13.813V293.921h13.812v0.001c4.237,0,7.672-3.435,7.672-7.672V151.226c0-4.237-3.435-7.672-7.672-7.672
			h-56.264c-4.237,0-7.672,3.435-7.672,7.672v21.129h-16.505V26.558c0-4.237-3.435-7.672-7.672-7.672H95.784
			c-4.237,0-7.672,3.435-7.672,7.672v23.911c0,4.237,3.435,7.672,7.672,7.672c4.237,0,7.672-3.435,7.672-7.672V34.23h305.089
			v138.125h-41.02H144.475h-41.02V86.272c0-4.237-3.435-7.672-7.672-7.672c-4.237,0-7.672,3.435-7.672,7.672v86.083H71.607v-21.129
			c0-4.237-3.435-7.672-7.672-7.672H7.672c-4.237,0-7.672,3.435-7.672,7.672V286.25c0,4.237,3.435,7.672,7.672,7.672h13.812v138.093
			H7.672c-4.237,0-7.672,3.435-7.672,7.672v45.756c0,4.237,3.435,7.672,7.672,7.672h77.748c4.237,0,7.672-3.435,7.672-7.672v-45.756
			c0-4.237-3.435-7.672-7.672-7.672H71.607V286.25v-21.129h16.505v145.797c0,4.237,3.435,7.672,7.672,7.672h218.253
			c4.237,0,7.672-3.435,7.672-7.672c0-4.237-3.435-7.672-7.672-7.672H103.455V265.12h41.02h223.049h41.02v138.125H349.84
			c-4.237,0-7.672,3.435-7.672,7.672c0,4.237,3.435,7.672,7.672,7.672h66.377c4.237,0,7.672-3.435,7.672-7.672V265.12h16.505v21.129
			v145.765h-13.812c-4.237,0-7.672,3.435-7.672,7.672v45.756c0,4.237,3.435,7.672,7.672,7.672h77.749
			c4.237,0,7.672-3.435,7.672-7.672v-45.756C512.001,435.449,508.566,432.014,504.329,432.014z M15.344,278.578V158.897h40.92
			v119.681H15.344z M56.263,293.922v138.093H36.828V293.922H56.263z M77.748,447.359v30.412H15.344v-30.412h13.812h34.779H77.748z
			 M136.803,249.776h-41.02H71.607v-62.079h24.177h41.02V249.776z M359.853,249.776H152.147v-62.079h207.706V249.776z
			 M440.392,249.776h-65.195v-62.079h65.195V249.776z M455.736,158.897h40.921v119.681h-40.921V158.897z M455.736,293.922h19.435
			v138.093h-19.435V293.922z M496.656,477.771h-62.405v-30.412h13.812h34.779h13.813V477.771z"/>
	</g>
</g>
<g>
	<g>
		<path d="M201.006,47.4h-77.741c-4.237,0-7.672,3.435-7.672,7.672v96.154c0,4.237,3.435,7.672,7.672,7.672h77.741
			c4.237,0,7.672-3.435,7.672-7.672V55.072C208.677,50.835,205.242,47.4,201.006,47.4z M193.334,143.554h-62.398v-80.81h62.398
			V143.554z"/>
	</g>
</g>
<g>
	<g>
		<path d="M373.878,47.4H235.785c-4.237,0-7.672,3.435-7.672,7.672c0,4.237,3.435,7.672,7.672,7.672h138.093
			c4.238,0,7.672-3.435,7.672-7.672C381.55,50.835,378.116,47.4,373.878,47.4z"/>
	</g>
</g>
<g>
	<g>
		<path d="M373.878,79.451H235.785c-4.237,0-7.672,3.435-7.672,7.672c0,4.237,3.435,7.672,7.672,7.672h138.093
			c4.238,0,7.672-3.435,7.672-7.672C381.55,82.886,378.116,79.451,373.878,79.451z"/>
	</g>
</g>
<g>
	<g>
		<path d="M373.878,111.502H235.785c-4.237,0-7.672,3.435-7.672,7.672c0,4.237,3.435,7.672,7.672,7.672h138.093
			c4.238,0,7.672-3.435,7.672-7.672C381.55,114.937,378.116,111.502,373.878,111.502z"/>
	</g>
</g>
<g>
	<g>
		<path d="M281.816,143.554h-46.031c-4.237,0-7.672,3.435-7.672,7.672c0,4.237,3.435,7.672,7.672,7.672h46.031
			c4.238,0,7.672-3.435,7.672-7.672C289.488,146.989,286.054,143.554,281.816,143.554z"/>
	</g>
</g>
<g>
	<g>
		<path d="M188.219,93.942c0-14.383-11.702-26.084-26.084-26.084c-14.383,0-26.084,11.701-26.084,26.084
			c0,7.18,2.916,13.691,7.627,18.412c-4.709,4.722-7.627,11.233-7.627,18.412c0,4.237,3.435,7.672,7.672,7.672
			c4.237,0,7.672-3.435,7.672-7.672c0-5.923,4.818-10.741,10.741-10.741s10.741,4.818,10.741,10.741
			c0,4.237,3.435,7.672,7.672,7.672c4.237,0,7.672-3.435,7.672-7.672c0-7.18-2.916-13.691-7.627-18.412
			C185.302,107.633,188.219,101.122,188.219,93.942z M162.135,104.683c-5.923,0-10.741-4.818-10.741-10.741
			s4.818-10.741,10.741-10.741s10.741,4.818,10.741,10.741S168.058,104.683,162.135,104.683z"/>
	</g>
</g>
<g>
</g>
<g>
</g>
<g>
</g>
<g>
</g>
<g>
</g>
<g>
</g>
<g>
</g>
<g>
</g>
<g>
</g>
<g>
</g>
<g>
</g>
<g>
</g>
<g>
</g>
<g>
</g>
<g>
</g>
</svg>
