<?xml version="1.0" encoding="iso-8859-1"?>
<!-- Generator: Adobe Illustrator 19.0.0, SVG Export Plug-In . SVG Version: 6.00 Build 0)  -->
<svg version="1.1" id="Capa_1" xmlns="http://www.w3.org/2000/svg" xmlns:xlink="http://www.w3.org/1999/xlink" x="0px" y="0px"
	 viewBox="0 0 512 512" style="enable-background:new 0 0 512 512;" xml:space="preserve">
<g>
	<g>
		<path d="M281.208,116.625v-15.222c18.64-9.854,29.985-29.727,28.49-51.376c-1.894-27.422-24.621-49.204-52.096-50.004
			c-30.412-0.885-55.434,23.597-55.434,53.813c0,20.153,11.081,38.296,28.621,47.559v15.231
			c-15.825,2.016-31.068,5.914-45.512,11.44l-9.468-17.68c-1.982-3.703-6.591-5.096-10.293-3.113l-30.69,16.436
			c-0.137,0.064-0.273,0.134-0.408,0.207c-3.666,2-5.034,6.583-3.062,10.265l9.505,17.749
			c-50.416,36.029-83.344,95.032-83.344,161.585c0,6.024,0.273,12.077,0.814,18.075c0.389,4.321,4.265,7.468,8.567,6.905
			c4.027-0.526,6.955-4.126,6.588-8.172c-0.506-5.576-0.761-11.205-0.761-16.809c0-101.213,82.468-183.527,183.74-183.275
			c100.485,0.249,182.56,82.325,182.811,182.809C439.529,414.322,357.214,496.792,256,496.792
			c-80.642,0-151.658-52.781-175.181-129.231c-1.194-3.881-5.27-6.101-9.195-5.061h-0.001c-4.194,1.111-6.585,5.495-5.307,9.642
			C91.825,454.884,168.708,512,256,512c109.444,0,198.484-89.039,198.484-198.484C454.484,212.61,378.794,129.049,281.208,116.625z
			 M153.618,143.536l-5.261-9.822l17.634-9.444l5.248,9.798C165.192,136.935,159.311,140.094,153.618,143.536z M266,115.284
			c-3.313-0.165-6.646-0.251-10-0.251c-3.355,0-6.689,0.086-10.004,0.251V66.367H266V115.284z M273.604,51.159h-35.211
			c-4.199,0-7.604,3.405-7.604,7.604v24.332c-8.378-7.196-13.413-17.766-13.413-29.259c0-21.299,17.329-38.628,38.628-38.628
			c21.294,0,38.618,17.329,38.618,38.628c0,11.49-5.035,22.061-13.413,29.263V58.763C281.208,54.564,277.803,51.159,273.604,51.159z
			"/>
	</g>
</g>
<g>
	<g>
		<path d="M256,406.234c-4.199,0-7.604,3.405-7.604,7.604v39.1c0,4.199,3.405,7.604,7.604,7.604s7.604-3.405,7.604-7.604v-39.1
			C263.604,409.638,260.199,406.234,256,406.234z"/>
	</g>
</g>
<g>
	<g>
		<path d="M256,166.491c-4.199,0-7.604,3.405-7.604,7.604v39.1c0,4.199,3.405,7.604,7.604,7.604s7.604-3.405,7.604-7.604v-39.1
			C263.604,169.896,260.199,166.491,256,166.491z"/>
	</g>
</g>
<g>
	<g>
		<path d="M332.296,430.456l-9.261-16.039c-2.101-3.637-6.75-4.883-10.387-2.783s-4.883,6.75-2.783,10.387l9.261,16.039
			c1.408,2.439,3.964,3.803,6.592,3.803c1.29,0,2.598-0.329,3.795-1.02C333.15,438.743,334.396,434.093,332.296,430.456z"/>
	</g>
</g>
<g>
	<g>
		<path d="M202.135,205.011l-9.261-16.039c-2.1-3.638-6.75-4.883-10.387-2.783c-3.637,2.1-4.883,6.75-2.783,10.387l9.261,16.039
			c1.408,2.439,3.964,3.803,6.592,3.803c1.29,0,2.598-0.328,3.795-1.02C202.989,213.299,204.235,208.649,202.135,205.011z"/>
	</g>
</g>
<g>
	<g>
		<path d="M380.545,376.642l-16.039-9.261c-3.637-2.101-8.287-0.854-10.387,2.783s-0.854,8.287,2.783,10.387l16.039,9.261
			c1.197,0.691,2.505,1.02,3.795,1.02c2.628,0,5.184-1.365,6.592-3.803C385.427,383.393,384.181,378.742,380.545,376.642z"/>
	</g>
</g>
<g>
	<g>
		<path d="M155.098,246.481l-16.039-9.261c-3.637-2.101-8.287-0.854-10.387,2.783c-2.1,3.637-0.854,8.287,2.783,10.387l16.039,9.261
			c1.197,0.691,2.505,1.02,3.795,1.02c2.628,0,5.184-1.365,6.592-3.803C159.981,253.231,158.735,248.581,155.098,246.481z"/>
	</g>
</g>
<g>
	<g>
		<path d="M383.328,240.003c-2.1-3.637-6.75-4.884-10.387-2.783l-16.039,9.261c-3.637,2.1-4.883,6.75-2.783,10.387
			c1.408,2.439,3.964,3.803,6.592,3.803c1.29,0,2.598-0.328,3.795-1.02l16.039-9.261
			C384.181,248.291,385.427,243.64,383.328,240.003z"/>
	</g>
</g>
<g>
	<g>
		<path d="M157.881,370.165c-2.1-3.638-6.749-4.884-10.387-2.783l-16.039,9.261c-3.637,2.1-4.883,6.75-2.783,10.387
			c1.408,2.439,3.964,3.803,6.592,3.803c1.29,0,2.597-0.328,3.795-1.02l16.039-9.261
			C158.735,378.452,159.981,373.802,157.881,370.165z"/>
	</g>
</g>
<g>
	<g>
		<path d="M329.513,186.19c-3.637-2.101-8.287-0.855-10.387,2.783l-9.261,16.039c-2.1,3.637-0.854,8.287,2.783,10.387
			c1.197,0.691,2.504,1.02,3.795,1.02c2.628,0,5.184-1.365,6.592-3.803l9.261-16.039C334.396,192.94,333.15,188.289,329.513,186.19z
			"/>
	</g>
</g>
<g>
	<g>
		<path d="M199.351,411.634c-3.638-2.101-8.288-0.854-10.387,2.783l-9.261,16.039c-2.1,3.637-0.854,8.287,2.783,10.387
			c1.197,0.691,2.505,1.02,3.795,1.02c2.628,0,5.184-1.365,6.592-3.803l9.261-16.039
			C204.235,418.384,202.989,413.733,199.351,411.634z"/>
	</g>
</g>
<g>
	<g>
		<path d="M155.678,305.912h-39.1c-4.199,0-7.604,3.405-7.604,7.604s3.405,7.604,7.604,7.604h39.1c4.199,0,7.604-3.405,7.604-7.604
			S159.878,305.912,155.678,305.912z"/>
	</g>
</g>
<g>
	<g>
		<path d="M395.421,305.912h-39.1c-4.199,0-7.604,3.405-7.604,7.604s3.405,7.604,7.604,7.604h39.1c4.199,0,7.604-3.405,7.604-7.604
			S399.621,305.912,395.421,305.912z"/>
	</g>
</g>
<g>
	<g>
		<path d="M340.428,384.198l-55.765-53.015c7.998-12.976,6.387-30.241-4.85-41.479c-13.13-13.13-34.495-13.13-47.625,0
			c-13.13,13.131-13.13,34.495,0,47.625c6.36,6.361,14.818,9.864,23.813,9.864c6.461,0,12.641-1.817,17.969-5.193l55.981,53.22
			c1.471,1.399,3.356,2.093,5.239,2.093c2.01,0,4.017-0.792,5.511-2.364C343.594,391.904,343.472,387.091,340.428,384.198z
			 M269.057,326.575c-3.488,3.488-8.126,5.409-13.059,5.409c-4.932,0-9.57-1.921-13.058-5.409c-7.201-7.201-7.201-18.918,0-26.118
			c3.6-3.6,8.33-5.401,13.059-5.401c4.729,0,9.458,1.8,13.059,5.401C276.258,307.657,276.258,319.373,269.057,326.575z"/>
	</g>
</g>
<g>
	<g>
		<path d="M393.589,202.829c-2.728-3.388-7.724-3.839-10.985-0.961c-3.036,2.68-3.454,7.282-0.912,10.435
			c23.059,28.611,35.68,64.274,35.68,101.214c0,89.401-73.076,162.056-162.633,161.368C166.964,474.21,95.302,402.547,94.63,314.773
			c-0.686-89.556,71.968-162.631,161.368-162.631c37.812,0,74.128,13.155,103.055,37.186c3.114,2.586,7.721,2.231,10.443-0.764
			c2.928-3.221,2.544-8.221-0.806-11.001c-31.642-26.257-71.35-40.628-112.692-40.628c-97.365,0.001-176.578,79.214-176.579,176.581
			c0,97.76,78.82,176.581,176.579,176.582c97.367,0.001,176.582-79.213,176.582-176.581
			C432.58,273.125,418.789,234.128,393.589,202.829z"/>
	</g>
</g>
<g>
</g>
<g>
</g>
<g>
</g>
<g>
</g>
<g>
</g>
<g>
</g>
<g>
</g>
<g>
</g>
<g>
</g>
<g>
</g>
<g>
</g>
<g>
</g>
<g>
</g>
<g>
</g>
<g>
</g>
</svg>
