<?xml version="1.0" encoding="iso-8859-1"?>
<!-- Generator: Adobe Illustrator 19.0.0, SVG Export Plug-In . SVG Version: 6.00 Build 0)  -->
<svg version="1.1" id="Capa_1" xmlns="http://www.w3.org/2000/svg" xmlns:xlink="http://www.w3.org/1999/xlink" x="0px" y="0px"
	 viewBox="0 0 512 512" style="enable-background:new 0 0 512 512;" xml:space="preserve">
<g>
	<g>
		<path d="M449.649,0H62.351C27.916,0,0,27.916,0,62.351v256.273c0,4.199,3.405,7.604,7.604,7.604s7.604-3.405,7.604-7.604V62.35
			c0-26.036,21.107-47.143,47.143-47.143h387.298c26.037,0,47.144,21.107,47.144,47.143V449.65
			c0,26.036-21.107,47.144-47.144,47.144H62.35c-26.036-0.001-47.143-21.108-47.143-47.143V354.11c0-4.199-3.405-7.604-7.604-7.604
			S0,349.911,0,354.11v95.539C0,484.084,27.916,512,62.35,512h387.298C484.084,512,512,484.084,512,449.649V62.351
			C512,27.916,484.084,0,449.649,0z"/>
	</g>
</g>
<g>
	<g>
		<path d="M137.401,76.69c-44.442,0-80.599,36.156-80.599,80.599s36.157,80.599,80.599,80.599s80.598-36.156,80.598-80.599
			C217.998,112.847,181.842,76.69,137.401,76.69z M137.401,222.68c-36.056,0-65.391-29.334-65.391-65.391
			c0.001-33.483,25.302-61.152,57.787-64.934v64.934c0,4.199,3.405,7.604,7.604,7.604s7.604-3.405,7.604-7.604V92.356
			c32.485,3.782,57.786,31.451,57.786,64.934C202.791,193.345,173.456,222.68,137.401,222.68z"/>
	</g>
</g>
<g>
	<g>
		<path d="M132.028,54.079c-2.516,2.519-2.958,6.62-0.953,9.59c1.837,2.689,5.197,3.972,8.355,3.105
			c3.067-0.843,5.31-3.595,5.552-6.763C145.506,53.163,136.9,49.199,132.028,54.079z"/>
	</g>
</g>
<g>
	<g>
		<path d="M99.117,59.476c-2.966,2.445-3.659,6.893-1.5,10.094c1.748,2.652,5.095,3.924,8.17,3.154
			c3.073-0.769,5.412-3.466,5.714-6.628C112.131,59.504,104.239,55.253,99.117,59.476z"/>
	</g>
</g>
<g>
	<g>
		<path d="M81.218,78.761c-1.519-2.866-4.823-4.459-8.011-3.901c-3.277,0.573-5.819,3.259-6.237,6.554
			c-0.422,3.317,1.509,6.7,4.632,7.948C78.082,92.102,84.467,84.889,81.218,78.761z"/>
	</g>
</g>
<g>
	<g>
		<path d="M229.345,203.823c-1.003-3.072-3.98-5.219-7.214-5.218c-3.182,0-6.078,2.06-7.154,5.041
			c-1.18,3.271,0.086,6.944,2.935,8.89c2.821,1.902,6.739,1.621,9.269-0.646C229.426,209.877,230.28,206.687,229.345,203.823z"/>
	</g>
</g>
<g>
	<g>
		<path d="M59.689,105.461c-1.149-2.878-4.123-4.768-7.203-4.689c-3.095,0.079-5.885,2.079-6.946,4.984
			c-1.078,2.951-0.202,6.348,2.191,8.395c2.501,2.14,6.222,2.403,9.003,0.645C59.82,112.845,61.086,108.836,59.689,105.461z"/>
	</g>
</g>
<g>
	<g>
		<path d="M241.211,172.791c-0.7-3.373-3.627-5.939-7.084-6.106c-3.182-0.154-6.174,1.751-7.393,4.687
			c-2.634,6.347,4.208,12.738,10.358,9.738C240.181,179.602,241.829,176.147,241.211,172.791z"/>
	</g>
</g>
<g>
	<g>
		<path d="M47.811,136.827c-1.528-2.973-4.964-4.64-8.247-3.981c-2.96,0.617-5.323,2.927-5.957,5.893
			c-0.712,3.326,0.993,6.829,4.027,8.35c2.843,1.426,6.38,0.906,8.681-1.298C48.716,143.488,49.327,139.777,47.811,136.827z"/>
	</g>
</g>
<g>
	<g>
		<path d="M241.211,138.817c-0.646-3.111-3.182-5.568-6.341-6.034c-2.983-0.441-6.026,0.979-7.598,3.549
			c-1.645,2.693-1.435,6.195,0.508,8.678c2.065,2.64,5.789,3.602,8.878,2.315C239.989,145.934,241.875,142.349,241.211,138.817z"/>
	</g>
</g>
<g>
	<g>
		<path d="M34.943,169.748c-2.224,2.999-1.893,7.267,0.728,9.907c4.69,4.69,12.991,1.253,12.988-5.373
			C48.654,167.104,39.205,163.999,34.943,169.748z"/>
	</g>
</g>
<g>
	<g>
		<path d="M229.156,105.461c-1.257-2.98-4.339-4.92-7.584-4.671c-3.176,0.244-5.915,2.484-6.764,5.554
			c-0.809,2.922,0.238,6.117,2.618,7.996c2.633,2.081,6.456,2.155,9.169,0.181C229.425,112.464,230.448,108.695,229.156,105.461z"/>
	</g>
</g>
<g>
	<g>
		<path d="M57.137,200.061c-2.703-1.938-6.393-1.909-9.058,0.089c-2.713,2.036-3.755,5.835-2.432,8.968
			c1.261,2.988,4.331,4.92,7.584,4.671c3.182-0.244,5.9-2.483,6.76-5.552C60.833,205.234,59.679,201.882,57.137,200.061z"/>
	</g>
</g>
<g>
	<g>
		<path d="M203.54,75.471c-2.659-1.264-5.918-0.833-8.166,1.07c-2.916,2.469-3.503,6.841-1.409,10.022
			c1.675,2.456,4.676,3.798,7.623,3.268c3.149-0.567,5.622-3.04,6.189-6.189C208.376,80.315,206.576,76.915,203.54,75.471z"/>
	</g>
</g>
<g>
	<g>
		<path d="M165.711,59.762c-2.714,2.493-3.233,6.746-1.168,9.808c1.748,2.652,5.098,3.923,8.17,3.154
			c3.278-0.819,5.662-3.808,5.747-7.186C178.622,58.966,170.548,55.32,165.711,59.762z"/>
	</g>
</g>
<g>
	<g>
		<path d="M431.586,100.295c-31.401-31.401-82.483-31.421-113.91-0.061c-0.022,0.021-0.047,0.041-0.069,0.063
			c-0.024,0.024-0.045,0.052-0.069,0.076c-31.349,31.434-31.326,82.508,0.073,113.907c11.706,11.711,26.48,19.438,42.725,22.345
			c4.767,0.853,9.561,1.276,14.332,1.276c8.426,0,16.786-1.321,24.82-3.932c4.136-1.344,6.218-5.958,4.468-9.94l-0.215-0.489
			c-1.534-3.489-5.466-5.16-9.091-3.983c-23.27,7.553-48.673,1.589-66.284-16.031c-23.676-23.676-25.351-61.13-5.057-86.774
			l45.913,45.913c1.484,1.484,3.431,2.227,5.377,2.227c1.946,0,3.892-0.742,5.376-2.227c2.97-2.97,2.97-7.784,0-10.753
			l-45.914-45.914c27.498-21.766,68.579-18.266,91.685,10.535c8.139,10.146,13.047,22.591,14.043,35.559
			c1.487,19.381-5.385,37.863-18.957,51.434c-0.014,0.014-0.029,0.029-0.044,0.044c-2.438,2.435-2.674,6.303-0.479,8.961
			l1.246,1.509c2.47,2.991,6.99,3.253,9.746,0.523c0.095-0.094,0.191-0.19,0.285-0.284c15.225-15.224,23.61-35.465,23.61-56.992
			C455.195,135.76,446.81,115.519,431.586,100.295z"/>
	</g>
</g>
<g>
	<g>
		<path d="M369.549,53.771c-2.789,2.484-3.37,6.79-1.271,9.898c3.75,5.696,12.82,3.596,13.845-3.099
			C383.177,53.689,374.713,49.171,369.549,53.771z"/>
	</g>
</g>
<g>
	<g>
		<path d="M336.086,59.672c-2.782,2.476-3.368,6.796-1.275,9.898c1.796,2.629,5.06,3.93,8.17,3.154
			c2.906-0.725,5.155-3.165,5.654-6.116C349.805,59.693,341.327,55.008,336.086,59.672z"/>
	</g>
</g>
<g>
	<g>
		<path d="M306.33,76.96c-2.545,2.53-2.902,6.625-0.942,9.602c1.779,2.702,5.241,3.971,8.348,3.1
			c3.049-0.855,5.331-3.581,5.551-6.76C319.762,76.045,311.239,72.083,306.33,76.96z"/>
	</g>
</g>
<g>
	<g>
		<path d="M454.389,200.428c-2.874,2.46-3.509,6.85-1.383,9.998c3.753,5.701,12.819,3.596,13.844-3.099
			C467.895,200.51,459.594,195.973,454.389,200.428z"/>
	</g>
</g>
<g>
	<g>
		<path d="M296.892,105.461c-1.288-3.044-4.457-4.996-7.77-4.657c-3.179,0.326-5.835,2.629-6.625,5.721
			c-0.733,2.872,0.342,5.982,2.663,7.816c2.636,2.082,6.461,2.153,9.179,0.182C297.13,112.497,298.24,108.651,296.892,105.461z"/>
	</g>
</g>
<g>
	<g>
		<path d="M478.404,172.791c-1.377-6.602-10.468-8.341-13.976-2.42c-1.723,2.908-1.317,6.691,1.013,9.148
			c2.139,2.255,5.552,2.97,8.417,1.782C477.154,179.936,479.12,176.301,478.404,172.791z"/>
	</g>
</g>
<g>
	<g>
		<path d="M282.269,133.85c-2.958-1.846-6.932-1.408-9.395,1.074c-2.393,2.393-2.893,6.171-1.242,9.121
			c1.484,2.651,4.55,4.178,7.56,3.797c3.08-0.389,5.674-2.676,6.427-5.691C286.411,138.983,285.037,135.576,282.269,133.85z"/>
	</g>
</g>
<g>
	<g>
		<path d="M478.404,138.817c-1.397-6.701-10.691-8.338-14.088-2.228c-1.526,2.746-1.191,6.221,0.826,8.627
			c2.139,2.55,5.827,3.368,8.86,2.043C477.214,145.855,479.122,142.265,478.404,138.817z"/>
	</g>
</g>
<g>
	<g>
		<path d="M272.278,169.569c-2.36,2.974-2.095,7.414,0.596,10.086c4.733,4.768,13.146,1.141,12.973-5.56
			C285.667,167.112,276.6,164.122,272.278,169.569z"/>
	</g>
</g>
<g>
	<g>
		<path d="M466.349,105.461c-1.208-2.863-4.086-4.769-7.208-4.689c-3.107,0.079-5.92,2.111-6.97,5.037
			c-2.375,6.617,5.142,12.708,11.127,9.049C466.435,112.939,467.784,108.857,466.349,105.461z"/>
	</g>
</g>
<g>
	<g>
		<path d="M296.893,203.298c-1.245-2.989-4.346-4.919-7.584-4.671c-3.108,0.239-5.802,2.391-6.71,5.373
			c-0.975,3.198,0.305,6.66,3.049,8.534c2.76,1.817,6.486,1.658,9.046-0.451C297.244,209.983,298.166,206.354,296.893,203.298z"/>
	</g>
</g>
<g>
	<g>
		<path d="M444.812,80.313c-0.912-3.256-3.939-5.574-7.327-5.574c-3.254,0-6.185,2.142-7.211,5.218
			c-1.067,3.197,0.169,6.846,2.992,8.704C439.012,92.444,446.681,86.975,444.812,80.313z"/>
	</g>
</g>
<g>
	<g>
		<path d="M402.904,59.763c-2.708,2.478-3.225,6.758-1.169,9.807c1.803,2.635,5.057,3.923,8.172,3.154
			c3.217-0.794,5.575-3.699,5.75-7C416.01,59.06,407.79,55.292,402.904,59.763z"/>
	</g>
</g>
<g>
	<g>
		<path d="M207.225,339.298c-10.753-18.651-28.125-31.998-48.916-37.584c-20.792-5.585-42.514-2.739-61.165,8.014
			c-38.502,22.198-51.767,71.58-29.57,110.081c10.754,18.651,28.127,31.999,48.918,37.584c6.959,1.87,14.023,2.794,21.04,2.794
			c13.948,0,27.716-3.654,40.125-10.808c18.651-10.752,31.998-28.125,37.583-48.916
			C220.824,379.672,217.978,357.949,207.225,339.298z M200.554,396.517c-4.531,16.869-15.36,30.962-30.492,39.687
			c-15.132,8.724-32.756,11.032-49.623,6.502c-14.395-3.867-26.756-12.332-35.496-24.13l56.258-32.433
			c3.638-2.098,4.887-6.747,2.789-10.386c-2.098-3.638-6.747-4.887-10.386-2.789l-56.255,32.431
			c-12.949-30.033-1.615-65.772,27.393-82.496c15.132-8.723,32.756-11.032,49.623-6.502c16.869,4.531,30.962,15.36,39.687,30.493
			C202.775,362.026,205.085,379.648,200.554,396.517z"/>
	</g>
</g>
<g>
	<g>
		<path d="M140.818,274.93c-2.992-1.507-6.72-0.837-8.998,1.623c-2.361,2.551-2.654,6.489-0.745,9.385
			c1.829,2.677,5.213,3.98,8.355,3.1c3.006-0.841,5.219-3.474,5.538-6.578C145.285,279.364,143.586,276.324,140.818,274.93z"/>
	</g>
</g>
<g>
	<g>
		<path d="M98.832,281.983c-2.767,2.501-3.257,6.755-1.215,9.856c1.815,2.753,5.381,4.016,8.528,3.051
			c3.044-0.934,5.224-3.722,5.383-6.904C111.858,281.349,103.742,277.547,98.832,281.983z"/>
	</g>
</g>
<g>
	<g>
		<path d="M69.35,299.021c-2.72,2.507-3.192,6.732-1.165,9.81c1.825,2.676,5.215,3.979,8.354,3.1
			c2.931-0.821,5.133-3.362,5.515-6.383C82.928,298.661,74.446,294.328,69.35,299.021z"/>
	</g>
</g>
<g>
	<g>
		<path d="M229.366,426.154c-0.957-2.976-3.726-5.129-6.861-5.274c-3.294-0.153-6.369,1.888-7.509,4.978
			c-1.195,3.24,0.021,7.028,2.916,8.935c2.832,1.91,6.724,1.627,9.269-0.64C229.404,432.173,230.277,428.988,229.366,426.154z"/>
	</g>
</g>
<g>
	<g>
		<path d="M60.216,329.704c-0.395-3.092-2.672-5.678-5.699-6.443c-3.232-0.817-6.724,0.656-8.404,3.531
			c-1.726,2.952-1.232,6.796,1.176,9.221c2.432,2.36,6.156,2.908,9.125,1.232C59.058,335.752,60.602,332.722,60.216,329.704z"/>
	</g>
</g>
<g>
	<g>
		<path d="M239.63,391.719c-4.416-5.408-13.485-2.138-13.485,4.823c0,3.557,2.61,6.793,6.124,7.451
			C239.153,405.428,244.019,397.091,239.63,391.719z"/>
	</g>
</g>
<g>
	<g>
		<path d="M48.598,361.621c-0.859-6.78-9.971-9.011-13.825-3.341c-2.036,2.994-1.656,7.087,0.897,9.659
			c2.313,2.313,5.951,2.87,8.855,1.383C47.328,367.886,48.995,364.749,48.598,361.621z"/>
	</g>
</g>
<g>
	<g>
		<path d="M241.211,361.076c-0.7-3.372-3.627-5.939-7.084-6.107c-3.18-0.154-6.175,1.753-7.393,4.687
			c-2.635,6.348,4.208,12.738,10.358,9.738C240.181,367.886,241.829,364.431,241.211,361.076z"/>
	</g>
</g>
<g>
	<g>
		<path d="M48.615,395.756c-0.726-6.941-10.11-9.245-13.93-3.366c-1.936,2.981-1.532,7.005,0.987,9.524
			C40.624,406.868,49.343,402.716,48.615,395.756z"/>
	</g>
</g>
<g>
	<g>
		<path d="M229.651,329.533c-0.446-3.01-2.711-5.529-5.667-6.272c-3.276-0.823-6.795,0.689-8.461,3.621
			c-1.671,2.939-1.16,6.738,1.234,9.131c2.496,2.496,6.458,2.908,9.435,1.042C228.703,335.482,230.085,332.463,229.651,329.533z"/>
	</g>
</g>
<g>
	<g>
		<path d="M57.495,422.596c-3.016-2.464-7.435-2.196-10.206,0.498c-4.702,4.837-1.129,13.331,5.756,12.978
			C59.832,435.723,62.763,426.898,57.495,422.596z"/>
	</g>
</g>
<g>
	<g>
		<path d="M195.376,298.809c-2.921,2.464-3.505,6.842-1.411,10.022c1.679,2.461,4.676,3.771,7.623,3.265
			c3.275-0.563,5.828-3.275,6.245-6.561C208.692,298.785,200.519,294.47,195.376,298.809z"/>
	</g>
</g>
<g>
	<g>
		<path d="M174.179,280.781c-2.726-1.32-6.078-0.87-8.352,1.139c-2.447,2.161-3.235,5.763-1.923,8.749
			c1.406,3.201,4.995,5.121,8.445,4.405c3.071-0.641,5.484-3.104,6.008-6.206C178.913,285.578,177.178,282.232,174.179,280.781z"/>
	</g>
</g>
<g>
	<g>
		<path d="M374.598,298.954c-44.443,0-80.598,36.156-80.598,80.599c0,44.443,36.156,80.598,80.598,80.598
			s80.599-36.156,80.599-80.598C455.197,335.112,419.041,298.954,374.598,298.954z M374.598,444.944
			c-36.056,0-65.39-29.334-65.39-65.39c0-36.056,29.334-65.391,65.39-65.391c33.483,0,61.153,25.302,64.934,57.787h-64.934
			c-4.199,0-7.604,3.405-7.604,7.604s3.405,7.604,7.604,7.604h64.934C435.75,419.643,408.081,444.944,374.598,444.944z"/>
	</g>
</g>
<g>
	<g>
		<path d="M377.845,274.847c-2.927-1.384-6.518-0.72-8.751,1.626c-2.433,2.556-2.753,6.527-0.816,9.465
			c1.74,2.643,5.111,3.93,8.17,3.15c3.082-0.786,5.4-3.463,5.723-6.629C382.493,279.3,380.705,276.199,377.845,274.847z"/>
	</g>
</g>
<g>
	<g>
		<path d="M344.553,280.831c-2.942-1.481-6.609-0.863-8.894,1.515c-2.447,2.549-2.789,6.547-0.849,9.494
			c1.788,2.619,5.072,3.93,8.17,3.15c3.094-0.779,5.4-3.461,5.722-6.63C349.018,285.261,347.325,282.226,344.553,280.831z"/>
	</g>
</g>
<g>
	<g>
		<path d="M306.771,298.823c-2.883,2.449-3.501,6.858-1.383,9.998c3.698,5.751,12.866,3.563,13.843-3.1
			C320.232,298.9,312.009,294.374,306.771,298.823z"/>
	</g>
</g>
<g>
	<g>
		<path d="M464.005,422.479c-2.477-1.93-5.967-2.12-8.647-0.489c-3.136,1.908-4.482,5.994-3.051,9.386
			c1.187,2.868,4.101,4.779,7.211,4.699c3.111-0.08,5.916-2.123,6.967-5.046C467.582,427.979,466.561,424.47,464.005,422.479z"/>
	</g>
</g>
<g>
	<g>
		<path d="M295.748,325.811c-2.135-2.612-5.883-3.493-8.961-2.121c-3.189,1.419-5.093,4.985-4.374,8.429
			c0.625,2.993,2.967,5.356,5.972,5.972c3.179,0.651,6.54-0.911,8.116-3.743C298.006,331.643,297.708,328.209,295.748,325.811z"/>
	</g>
</g>
<g>
	<g>
		<path d="M477.099,392.076c-1.9-2.649-5.448-3.773-8.535-2.746c-3.19,1.062-5.344,4.159-5.209,7.526
			c0.139,3.481,2.714,6.438,6.107,7.146C476.101,405.22,481.088,397.638,477.099,392.076z"/>
	</g>
</g>
<g>
	<g>
		<path d="M285.825,361.934c-0.27-3.196-2.601-5.943-5.706-6.736c-3.061-0.782-6.365,0.479-8.146,3.082
			c-2.036,2.972-1.66,7.116,0.901,9.659C277.754,372.856,286.407,368.823,285.825,361.934z"/>
	</g>
</g>
<g>
	<g>
		<path d="M476.325,357.182c-2.44-2.436-6.328-2.893-9.284-1.141c-2.618,1.551-4.048,4.636-3.612,7.637
			c0.979,6.738,10.097,8.758,13.839,3.104C479.248,363.792,478.867,359.724,476.325,357.182z"/>
	</g>
</g>
<g>
	<g>
		<path d="M283.828,391.379c-2.026-2.186-5.231-2.998-8.049-2.027c-3.542,1.221-5.738,4.99-4.984,8.679
			c1.225,6.54,10.132,8.202,13.778,2.737C286.498,397.885,286.185,393.921,283.828,391.379z"/>
	</g>
</g>
<g>
	<g>
		<path d="M464.924,325.484c-2.221-2.397-5.808-3.111-8.778-1.751c-3.177,1.456-4.917,4.975-4.276,8.387
			c0.664,3.185,3.292,5.647,6.526,6.062c3.186,0.409,6.372-1.348,7.765-4.232C467.506,331.169,467.031,327.758,464.924,325.484z"/>
	</g>
</g>
<g>
	<g>
		<path d="M294.547,422.48c-2.985-2.325-7.375-2.066-10.054,0.613c-4.68,4.68-1.265,12.988,5.373,12.988
			c3.178,0,6.089-2.068,7.161-5.05C298.122,427.984,297.097,424.466,294.547,422.48z"/>
	</g>
</g>
<g>
	<g>
		<path d="M444.763,302.401c-0.959-3.169-3.965-5.396-7.276-5.402c-3.176-0.006-6.085,2.067-7.153,5.046
			c-1.173,3.273,0.077,6.936,2.933,8.884c2.806,1.847,6.599,1.646,9.161-0.545C444.694,308.445,445.627,305.256,444.763,302.401z"/>
	</g>
</g>
<g>
	<g>
		<path d="M411.644,280.914c-2.976-1.584-6.767-0.993-9.092,1.459c-2.164,2.281-2.693,5.754-1.32,8.578
			c1.478,3.041,4.981,4.814,8.311,4.122c3.128-0.652,5.572-3.194,6.041-6.362C416.045,285.582,414.433,282.399,411.644,280.914z"/>
	</g>
</g>
<g>
</g>
<g>
</g>
<g>
</g>
<g>
</g>
<g>
</g>
<g>
</g>
<g>
</g>
<g>
</g>
<g>
</g>
<g>
</g>
<g>
</g>
<g>
</g>
<g>
</g>
<g>
</g>
<g>
</g>
</svg>
