<?xml version="1.0" encoding="iso-8859-1"?>
<!-- Generator: Adobe Illustrator 19.0.0, SVG Export Plug-In . SVG Version: 6.00 Build 0)  -->
<svg version="1.1" id="Capa_1" xmlns="http://www.w3.org/2000/svg" xmlns:xlink="http://www.w3.org/1999/xlink" x="0px" y="0px"
	 viewBox="0 0 512 512" style="enable-background:new 0 0 512 512;" xml:space="preserve">
<g>
	<g>
		<path d="M205.943,256.756h-44.495c-4.21,0-7.623,3.413-7.623,7.623c0,13.476-10.963,24.439-24.439,24.439
			c-4.076,0-7.43,3.206-7.615,7.277l-1.309,28.79c-0.095,2.08,0.666,4.108,2.104,5.613c1.438,1.504,3.429,2.356,5.511,2.356h25.748
			v136.329c0,4.21,3.413,7.623,7.623,7.623h44.495c4.21,0,7.623-3.413,7.623-7.623V264.379
			C213.566,260.169,210.153,256.756,205.943,256.756z M198.321,461.56h-29.249V325.232c0-4.21-3.413-7.623-7.623-7.623h-25.393
			l0.646-14.22c15.925-2.98,28.533-15.505,31.636-31.387h29.983V461.56z"/>
	</g>
</g>
<g>
	<g>
		<path d="M383.924,257.41H242.588c-4.21,0-7.623,3.413-7.623,7.623v42.531c0,4.21,3.413,7.623,7.623,7.623h69.305
			c-19.779,22.622-33.958,51.765-41.308,68.963c-13.495,31.573-21.878,64.155-21.878,85.032c0,4.21,3.413,7.623,7.623,7.623h48.42
			c4.21,0,7.623-3.413,7.623-7.623c0-23.839,7.497-86.784,76.941-156.228c1.43-1.429,2.233-3.368,2.233-5.39v-42.531
			C391.547,260.823,388.134,257.41,383.924,257.41z M376.299,304.429c-14.802,15.092-35.046,38.628-51.631,68.464
			c-16.784,30.194-25.969,59.98-27.358,88.667h-32.979c1.736-18.84,9.308-45.767,20.272-71.417
			c14.501-33.927,32.483-61.201,50.632-76.797c2.418-2.078,3.287-5.442,2.179-8.43c-1.108-2.989-3.96-4.974-7.147-4.974h-80.056
			v-27.285h126.088V304.429z"/>
	</g>
</g>
<g>
	<g>
		<path d="M468.431,353.019c-4.21,0-7.623,3.413-7.623,7.623v47.811c-42.466-18.157-65.937-3.853-66.994-3.183
			c-2.207,1.398-3.544,3.828-3.544,6.44c0,21.248-6.32,42.24-17.34,57.595c-9.562,13.324-22.382,21.987-37.631,25.571
			c-9.632,1.465-15.987,1.831-16.941,1.879H51.192V218.347c0-4.21-3.413-7.623-7.623-7.623c-4.21,0-7.623,3.413-7.623,7.623v286.03
			c0,4.21,3.413,7.623,7.623,7.623h424.862c4.21,0,7.623-3.413,7.623-7.623V360.642
			C476.055,356.432,472.642,353.019,468.431,353.019z M385.317,478.194c11.965-16.671,19.175-38.857,20.099-61.524
			c7.061-2.439,24.601-5.669,52.543,7.19c-15.408,26.306-41.06,46.193-76.406,59.222
			C382.849,481.514,384.104,479.884,385.317,478.194z M460.808,496.754h-72.322c30.647-11.615,55.172-28.705,72.322-50.253V496.754z
			"/>
	</g>
</g>
<g>
	<g>
		<path d="M468.431,9.891H345.616V7.943c0-4.174-3.216-7.814-7.388-7.939c-4.317-0.13-7.858,3.332-7.858,7.62v2.268H181.631V7.943
			c0-4.174-3.216-7.814-7.388-7.939c-4.317-0.13-7.858,3.332-7.858,7.62v2.268H43.569c-4.21,0-7.623,3.413-7.623,7.623v165.257
			c0,4.21,3.413,7.623,7.623,7.623c4.21,0,7.623-3.413,7.623-7.623v-33.358h409.616v175.652c0,4.21,3.413,7.623,7.623,7.623
			c4.21,0,7.623-3.413,7.623-7.623V17.514C476.055,13.304,472.642,9.891,468.431,9.891z M337.993,82.33
			c4.21,0,7.623-3.413,7.623-7.623v-14.92c5.422,2.782,9.148,8.418,9.148,14.919c0,9.247-7.524,16.771-16.771,16.771
			c-9.247,0-16.771-7.523-16.771-16.771c0-6.501,3.726-12.138,9.148-14.919v14.92C330.369,78.917,333.783,82.33,337.993,82.33z
			 M174.008,82.33c4.21,0,7.623-3.413,7.623-7.623v-14.92c5.422,2.782,9.148,8.418,9.148,14.919c0,9.247-7.523,16.771-16.771,16.771
			s-16.771-7.523-16.771-16.771c0-6.501,3.726-12.138,9.148-14.919v14.92C166.385,78.917,169.798,82.33,174.008,82.33z
			 M460.808,134.168H51.192V25.138h115.193v18.476c-13.985,3.429-24.394,16.065-24.394,31.093c0,17.654,14.363,32.017,32.017,32.017
			s32.017-14.363,32.017-32.017c0-15.028-10.409-27.663-24.394-31.093V25.138H330.37v18.476
			c-13.985,3.429-24.394,16.065-24.394,31.093c0,17.654,14.363,32.017,32.017,32.017c17.654,0,32.017-14.363,32.017-32.017
			c0-15.028-10.409-27.663-24.394-31.093V25.138h115.193V134.168z"/>
	</g>
</g>
<g>
	<g>
		<path d="M206.874,170.07c-4.21,0-7.623,3.413-7.623,7.623v28.255c0,8.053-6.552,14.606-14.606,14.606
			c-8.054,0-14.606-6.552-14.606-14.606c0-4.21-3.413-7.623-7.623-7.623c-4.21,0-7.623,3.413-7.623,7.623
			c0,16.461,13.391,29.852,29.852,29.852s29.852-13.391,29.852-29.852v-28.255C214.497,173.483,211.084,170.07,206.874,170.07z"/>
	</g>
</g>
<g>
	<g>
		<path d="M278.229,170.07c-4.21,0-7.623,3.413-7.623,7.623v28.255c0,8.053-6.552,14.606-14.606,14.606
			c-8.053,0-14.606-6.552-14.606-14.606v-28.255c0-4.21-3.413-7.623-7.623-7.623s-7.623,3.413-7.623,7.623v28.255
			c0,16.46,13.391,29.852,29.852,29.852c16.46,0,29.852-13.391,29.852-29.852v-28.255
			C285.852,173.483,282.439,170.07,278.229,170.07z"/>
	</g>
</g>
<g>
	<g>
		<path d="M349.585,220.554H312.75v-42.861c0-4.21-3.413-7.623-7.623-7.623c-4.21,0-7.623,3.413-7.623,7.623v50.484
			c0,4.21,3.413,7.623,7.623,7.623h44.458c4.21,0,7.623-3.413,7.623-7.623S353.795,220.554,349.585,220.554z"/>
	</g>
</g>
<g>
</g>
<g>
</g>
<g>
</g>
<g>
</g>
<g>
</g>
<g>
</g>
<g>
</g>
<g>
</g>
<g>
</g>
<g>
</g>
<g>
</g>
<g>
</g>
<g>
</g>
<g>
</g>
<g>
</g>
</svg>
