<?xml version="1.0" encoding="iso-8859-1"?>
<!-- Generator: Adobe Illustrator 19.0.0, SVG Export Plug-In . SVG Version: 6.00 Build 0)  -->
<svg version="1.1" id="Capa_1" xmlns="http://www.w3.org/2000/svg" xmlns:xlink="http://www.w3.org/1999/xlink" x="0px" y="0px"
	 viewBox="0 0 511.999 511.999" style="enable-background:new 0 0 511.999 511.999;" xml:space="preserve">
<g>
	<g>
		<path d="M418.362,396.186c4.199,0,7.604-3.405,7.604-7.604V33.949C425.966,15.2,410.766,0,392.017,0H119.982
			c-18.749,0-33.949,15.199-33.949,33.948v444.103c0,18.749,15.199,33.948,33.948,33.948h272.035
			c18.749,0,33.948-15.199,33.948-33.948v-53.983c0-4.199-3.405-7.604-7.604-7.604c-4.199,0-7.604,3.405-7.604,7.604v53.983
			c0,10.35-8.391,18.74-18.74,18.74H119.982c-10.35,0-18.74-8.391-18.74-18.74V33.949c0-10.351,8.391-18.741,18.741-18.741h272.035
			c10.351,0,18.74,8.391,18.74,18.74v354.634C410.758,392.781,414.163,396.186,418.362,396.186z"/>
	</g>
</g>
<g>
	<g>
		<path d="M351.504,138.158h-54.646V59.553c0-13.237-10.731-23.968-23.968-23.968h-33.782c-13.237,0-23.968,10.731-23.968,23.968
			v78.605h-9.998c-4.199,0-7.604,3.405-7.604,7.604s3.405,7.604,7.604,7.604h146.361c9.687,0,17.541,7.853,17.541,17.541v32.847
			c0,9.687-7.853,17.541-17.541,17.541H160.495c-9.687,0-17.541-7.853-17.541-17.541v-32.847c0-9.687,7.853-17.541,17.541-17.541
			h9.162c4.199,0,7.604-3.405,7.604-7.604s-3.405-7.604-7.604-7.604h-9.162c-18.086,0-32.749,14.662-32.749,32.749v32.847
			c0,18.086,14.662,32.749,32.749,32.749h54.646v215.942c0,13.237,10.731,23.968,23.968,23.968h33.782
			c13.237,0,23.968-10.731,23.968-23.968V236.502h54.646c18.086,0,32.749-14.662,32.749-32.749v-32.847
			C384.253,152.82,369.59,138.158,351.504,138.158z M281.65,138.158h-51.301V59.553c0-4.83,3.93-8.76,8.76-8.76h33.782
			c4.83,0,8.76,3.93,8.76,8.76V138.158z M272.89,461.205h-33.782c-4.83,0-8.76-3.93-8.76-8.76V236.502h51.301v215.942h0
			C281.65,457.275,277.72,461.205,272.89,461.205z"/>
	</g>
</g>
<g>
	<g>
		<path d="M179.29,35.587h-32.444c-4.2,0-7.604,3.405-7.604,7.604s3.404,7.604,7.604,7.604h32.444c4.2,0,7.604-3.405,7.604-7.604
			S183.49,35.587,179.29,35.587z"/>
	</g>
</g>
<g>
	<g>
		<path d="M179.29,71.054h-32.444c-4.2,0-7.604,3.405-7.604,7.604c0,4.199,3.404,7.604,7.604,7.604h32.444
			c4.2,0,7.604-3.405,7.604-7.604C186.894,74.459,183.49,71.054,179.29,71.054z"/>
	</g>
</g>
<g>
	<g>
		<path d="M179.29,106.523h-32.444c-4.2,0-7.604,3.405-7.604,7.604c0,4.199,3.404,7.604,7.604,7.604h32.444
			c4.2,0,7.604-3.405,7.604-7.604C186.894,109.928,183.49,106.523,179.29,106.523z"/>
	</g>
</g>
<g>
	<g>
		<path d="M179.29,248.396h-32.444c-4.2,0-7.604,3.405-7.604,7.604s3.404,7.604,7.604,7.604h32.444c4.2,0,7.604-3.405,7.604-7.604
			S183.489,248.396,179.29,248.396z"/>
	</g>
</g>
<g>
	<g>
		<path d="M179.29,283.864h-32.444c-4.2,0-7.604,3.405-7.604,7.604c0,4.199,3.404,7.604,7.604,7.604h32.444
			c4.2,0,7.604-3.405,7.604-7.604C186.894,287.268,183.489,283.864,179.29,283.864z"/>
	</g>
</g>
<g>
	<g>
		<path d="M179.29,319.333h-32.444c-4.2,0-7.604,3.405-7.604,7.604c0,4.199,3.404,7.604,7.604,7.604h32.444
			c4.2,0,7.604-3.405,7.604-7.604C186.894,322.737,183.489,319.333,179.29,319.333z"/>
	</g>
</g>
<g>
	<g>
		<path d="M179.29,354.801h-32.444c-4.2,0-7.604,3.405-7.604,7.604s3.404,7.604,7.604,7.604h32.444c4.2,0,7.604-3.405,7.604-7.604
			S183.489,354.801,179.29,354.801z"/>
	</g>
</g>
<g>
	<g>
		<path d="M179.29,390.27h-32.444c-4.2,0-7.604,3.405-7.604,7.604c0,4.199,3.404,7.604,7.604,7.604h32.444
			c4.2,0,7.604-3.405,7.604-7.604C186.894,393.674,183.489,390.27,179.29,390.27z"/>
	</g>
</g>
<g>
	<g>
		<path d="M179.29,425.738h-32.444c-4.2,0-7.604,3.405-7.604,7.604s3.404,7.604,7.604,7.604h32.444c4.2,0,7.604-3.405,7.604-7.604
			S183.489,425.738,179.29,425.738z"/>
	</g>
</g>
<g>
	<g>
		<path d="M179.29,461.206h-32.444c-4.2,0-7.604,3.405-7.604,7.604s3.404,7.604,7.604,7.604h32.444c4.2,0,7.604-3.405,7.604-7.604
			S183.489,461.206,179.29,461.206z"/>
	</g>
</g>
<g>
	<g>
		<path d="M362.799,35.587h-32.444c-4.2,0-7.604,3.405-7.604,7.604s3.404,7.604,7.604,7.604h32.444c4.2,0,7.604-3.405,7.604-7.604
			S366.999,35.587,362.799,35.587z"/>
	</g>
</g>
<g>
	<g>
		<path d="M362.799,71.054h-32.444c-4.2,0-7.604,3.405-7.604,7.604c0,4.199,3.404,7.604,7.604,7.604h32.444
			c4.2,0,7.604-3.405,7.604-7.604C370.403,74.459,366.999,71.054,362.799,71.054z"/>
	</g>
</g>
<g>
	<g>
		<path d="M362.799,106.523h-32.444c-4.2,0-7.604,3.405-7.604,7.604c0,4.199,3.404,7.604,7.604,7.604h32.444
			c4.2,0,7.604-3.405,7.604-7.604C370.403,109.928,366.999,106.523,362.799,106.523z"/>
	</g>
</g>
<g>
	<g>
		<path d="M362.799,248.396h-32.444c-4.2,0-7.604,3.405-7.604,7.604s3.404,7.604,7.604,7.604h32.444c4.2,0,7.604-3.405,7.604-7.604
			S366.998,248.396,362.799,248.396z"/>
	</g>
</g>
<g>
	<g>
		<path d="M362.799,283.864h-32.444c-4.2,0-7.604,3.405-7.604,7.604c0,4.199,3.404,7.604,7.604,7.604h32.444
			c4.2,0,7.604-3.405,7.604-7.604C370.403,287.268,366.998,283.864,362.799,283.864z"/>
	</g>
</g>
<g>
	<g>
		<path d="M362.799,319.333h-32.444c-4.2,0-7.604,3.405-7.604,7.604c0,4.199,3.404,7.604,7.604,7.604h32.444
			c4.2,0,7.604-3.405,7.604-7.604C370.403,322.737,366.998,319.333,362.799,319.333z"/>
	</g>
</g>
<g>
	<g>
		<path d="M362.799,354.801h-32.444c-4.2,0-7.604,3.405-7.604,7.604s3.404,7.604,7.604,7.604h32.444c4.2,0,7.604-3.405,7.604-7.604
			S366.998,354.801,362.799,354.801z"/>
	</g>
</g>
<g>
	<g>
		<path d="M362.799,390.27h-32.444c-4.2,0-7.604,3.405-7.604,7.604c0,4.199,3.404,7.604,7.604,7.604h32.444
			c4.2,0,7.604-3.405,7.604-7.604C370.403,393.674,366.998,390.27,362.799,390.27z"/>
	</g>
</g>
<g>
	<g>
		<path d="M362.799,425.738h-32.444c-4.2,0-7.604,3.405-7.604,7.604s3.404,7.604,7.604,7.604h32.444c4.2,0,7.604-3.405,7.604-7.604
			S366.998,425.738,362.799,425.738z"/>
	</g>
</g>
<g>
	<g>
		<path d="M362.799,461.206h-32.444c-4.2,0-7.604,3.405-7.604,7.604s3.404,7.604,7.604,7.604h32.444c4.2,0,7.604-3.405,7.604-7.604
			S366.998,461.206,362.799,461.206z"/>
	</g>
</g>
<g>
</g>
<g>
</g>
<g>
</g>
<g>
</g>
<g>
</g>
<g>
</g>
<g>
</g>
<g>
</g>
<g>
</g>
<g>
</g>
<g>
</g>
<g>
</g>
<g>
</g>
<g>
</g>
<g>
</g>
</svg>
