<?xml version="1.0" encoding="iso-8859-1"?>
<!-- Generator: Adobe Illustrator 19.0.0, SVG Export Plug-In . SVG Version: 6.00 Build 0)  -->
<svg version="1.1" id="Capa_1" xmlns="http://www.w3.org/2000/svg" xmlns:xlink="http://www.w3.org/1999/xlink" x="0px" y="0px"
	 viewBox="0 0 512 512" style="enable-background:new 0 0 512 512;" xml:space="preserve">
<g>
	<g>
		<path d="M504.396,31.399h-38.84v-2.231c0-15.513-12.621-28.135-28.135-28.135c-7.516,0-14.582,2.926-19.888,8.232
			c-5.318,5.304-8.247,12.372-8.247,19.903v2.23h-16.3v-2.23c0-15.513-12.621-28.135-28.135-28.135
			c-7.516,0-14.581,2.926-19.887,8.232c-5.319,5.305-8.248,12.373-8.248,19.903v2.23h-16.299v-2.23
			c0-15.513-12.621-28.135-28.135-28.135c-7.516,0-14.582,2.926-19.888,8.232c-5.318,5.304-8.247,12.372-8.247,19.903v2.23h-16.3
			v-2.23c0-15.513-12.621-28.135-28.135-28.135c-7.516,0-14.581,2.926-19.887,8.232c-5.319,5.305-8.248,12.373-8.248,19.903v2.23
			h-16.299v-2.23c0-15.513-12.621-28.135-28.135-28.135c-7.516,0-14.582,2.926-19.888,8.232c-5.318,5.304-8.247,12.372-8.247,19.903
			v2.23h-16.3v-2.23c0-15.513-12.621-28.135-28.135-28.135c-7.516,0-14.581,2.926-19.887,8.232
			c-5.319,5.305-8.248,12.373-8.248,19.903v2.23H7.604c-4.2,0-7.604,3.405-7.604,7.604v77.393v386.966
			c0,4.199,3.404,7.604,7.604,7.604h496.792c4.2,0,7.604-3.405,7.604-7.604V116.396V39.003
			C512,34.804,508.596,31.399,504.396,31.399z M424.495,29.169c0-3.461,1.341-6.706,3.784-9.142
			c2.441-2.441,5.688-3.785,9.143-3.785c7.127,0,12.927,5.799,12.927,12.927v2.23h-25.853V29.169z M351.925,29.169
			c0-3.46,1.341-6.705,3.785-9.142c2.441-2.441,5.688-3.785,9.142-3.785c7.127,0,12.927,5.799,12.927,12.927v2.23h-25.854V29.169z
			 M279.357,29.169c0-3.461,1.341-6.706,3.784-9.142c2.441-2.441,5.688-3.785,9.143-3.785c7.127,0,12.927,5.799,12.927,12.927v2.23
			h-25.853V29.169z M206.788,29.169c0-3.46,1.341-6.705,3.785-9.142c2.441-2.441,5.688-3.785,9.142-3.785
			c7.127,0,12.927,5.799,12.927,12.927v2.23h-25.853V29.169z M134.22,29.169c0-3.461,1.341-6.706,3.784-9.142
			c2.441-2.441,5.688-3.785,9.143-3.785c7.127,0,12.927,5.799,12.927,12.927v2.23H134.22V29.169z M61.651,29.169
			c0-3.46,1.341-6.705,3.785-9.142c2.441-2.441,5.688-3.785,9.142-3.785c7.127,0,12.927,5.799,12.927,12.927v2.23H61.651V29.169z
			 M70.97,495.758H15.208v-62.185H70.97V495.758z M70.97,418.365H15.208V356.18H70.97V418.365z M70.97,340.972H15.208v-62.185H70.97
			V340.972z M70.97,263.579H15.208v-62.185H70.97V263.579z M70.97,186.185H15.208V124H70.97V186.185z M141.941,495.758H86.178
			v-62.185h55.762V495.758z M141.941,418.365H86.178V356.18h55.762V418.365z M141.941,340.972H86.178v-62.185h55.762V340.972z
			 M141.941,263.579H86.178v-62.185h55.762V263.579z M212.911,495.758h-55.762v-62.185h55.762V495.758z M212.911,418.365h-55.762
			V356.18h55.762V418.365z M212.911,340.972h-55.762v-62.185h55.762V340.972z M212.911,263.579h-55.762v-62.185h55.762V263.579z
			 M212.911,186.185h-55.762V124h55.762V186.185z M283.881,495.758h-55.762v-62.185h55.762V495.758z M283.881,418.365h-55.762
			V356.18h55.762V418.365z M283.881,340.972h-55.762v-62.185h55.762V340.972z M283.881,263.579h-55.762v-62.185h55.762V263.579z
			 M283.881,186.185h-55.762V124h55.762V186.185z M425.822,495.758h-55.762V482.04c0-4.199-3.405-7.604-7.604-7.604
			s-7.604,3.405-7.604,7.604v13.718h-55.762v-62.185h55.762v12.981c0,4.199,3.405,7.604,7.604,7.604s7.604-3.405,7.604-7.604
			v-12.981h55.762V495.758z M354.852,201.393v62.185h-55.762v-62.185H354.852z M299.089,186.185V124h55.762v62.185H299.089z
			 M354.852,278.787v62.185h-55.762v-62.185H354.852z M354.852,356.18v62.185h-55.762V356.18H354.852z M425.822,418.365h-55.762
			V356.18h55.762V418.365z M425.822,340.972h-55.762v-62.185h55.762V340.972z M425.822,263.579h-55.762v-62.185h55.762V263.579z
			 M425.822,186.185h-55.762V124h55.762V186.185z M496.792,495.758H441.03v-62.185h55.762V495.758z M496.792,418.365H441.03V356.18
			h55.762V418.365z M496.792,340.972H441.03v-62.185h55.762V340.972z M496.792,263.579H441.03v-62.185h55.762V263.579z
			 M496.792,186.185H441.03V124h55.762V186.185z M496.792,108.792H130.331c-4.199,0-7.604,3.405-7.604,7.604
			c0,4.199,3.405,7.604,7.604,7.604h11.61v62.185H86.178V124h8.667c4.199,0,7.604-3.405,7.604-7.604s-3.405-7.604-7.604-7.604
			H15.208V46.607h72.296v8.031c0,3.371-1.151,6.694-3.444,9.163c-2.421,2.607-5.718,4.074-9.247,4.136
			c-3.701,0.065-7.031,2.515-7.704,6.154c-0.894,4.837,2.794,9.056,7.469,9.056c7.851,0,15.211-3.193,20.596-8.964
			c4.971-5.327,7.539-12.463,7.539-19.749v-7.827h57.361v8.036c0,3.372-1.153,6.696-3.45,9.164c-2.421,2.602-5.715,4.067-9.24,4.129
			c-3.701,0.066-7.033,2.514-7.705,6.154c-0.894,4.837,2.794,9.056,7.469,9.056c7.516,0,14.581-2.926,19.896-8.24
			c5.313-5.315,8.239-12.376,8.239-19.885v-8.415h57.36v8.031c0,3.371-1.151,6.694-3.444,9.163
			c-2.421,2.607-5.718,4.074-9.247,4.136c-3.701,0.065-7.031,2.515-7.704,6.154c-0.894,4.837,2.794,9.056,7.469,9.056
			c7.851,0,15.211-3.193,20.596-8.964c4.971-5.327,7.539-12.463,7.539-19.749v-7.827h57.361v8.031c0,3.371-1.151,6.694-3.444,9.163
			c-2.421,2.607-5.718,4.074-9.247,4.136c-3.701,0.065-7.031,2.515-7.704,6.154c-0.894,4.837,2.794,9.056,7.469,9.056
			c7.517,0,14.582-2.926,19.896-8.24c5.313-5.315,8.239-12.376,8.239-19.885v-8.415h57.36v8.031c0,3.371-1.151,6.694-3.444,9.163
			c-2.421,2.607-5.718,4.074-9.247,4.136c-3.701,0.065-7.031,2.515-7.704,6.154c-0.894,4.837,2.794,9.056,7.469,9.056
			c7.851,0,15.211-3.193,20.596-8.964c4.971-5.327,7.539-12.463,7.539-19.749v-7.827h57.361v8.031c0,3.371-1.151,6.694-3.444,9.163
			c-2.421,2.607-5.718,4.074-9.247,4.136c-3.701,0.065-7.031,2.515-7.704,6.154c-0.894,4.837,2.794,9.056,7.469,9.056
			c7.517,0,14.582-2.926,19.896-8.24c5.313-5.315,8.239-12.376,8.239-19.885v-8.415h31.236V108.792z"/>
	</g>
</g>
<g>
	<g>
		<path d="M478.039,134.083h-17.236c-4.2,0-7.604,3.405-7.604,7.604s3.404,7.604,7.604,7.604h17.236c4.2,0,7.604-3.405,7.604-7.604
			S482.239,134.083,478.039,134.083z"/>
	</g>
</g>
<g>
	<g>
		<path d="M264.114,134.083h-17.236c-4.2,0-7.604,3.405-7.604,7.604s3.404,7.604,7.604,7.604h17.236c4.2,0,7.604-3.405,7.604-7.604
			S268.314,134.083,264.114,134.083z"/>
	</g>
</g>
<g>
	<g>
		<path d="M335.422,134.083h-17.236c-4.2,0-7.604,3.405-7.604,7.604s3.404,7.604,7.604,7.604h17.236c4.2,0,7.604-3.405,7.604-7.604
			S339.622,134.083,335.422,134.083z"/>
	</g>
</g>
<g>
	<g>
		<path d="M406.731,134.083h-17.236c-4.2,0-7.604,3.405-7.604,7.604s3.404,7.604,7.604,7.604h17.236c4.2,0,7.604-3.405,7.604-7.604
			S410.931,134.083,406.731,134.083z"/>
	</g>
</g>
<g>
	<g>
		<path d="M50.189,289.71H32.954c-4.2,0-7.604,3.405-7.604,7.604s3.404,7.604,7.604,7.604h17.236c4.2,0,7.604-3.405,7.604-7.604
			S54.39,289.71,50.189,289.71z"/>
	</g>
</g>
<g>
	<g>
		<path d="M478.039,289.71h-17.236c-4.2,0-7.604,3.405-7.604,7.604s3.404,7.604,7.604,7.604h17.236c4.2,0,7.604-3.405,7.604-7.604
			S482.239,289.71,478.039,289.71z"/>
	</g>
</g>
<g>
	<g>
		<path d="M264.114,289.71h-17.236c-4.2,0-7.604,3.405-7.604,7.604s3.404,7.604,7.604,7.604h17.236c4.2,0,7.604-3.405,7.604-7.604
			S268.314,289.71,264.114,289.71z"/>
	</g>
</g>
<g>
	<g>
		<path d="M121.497,289.71h-17.236c-4.2,0-7.604,3.405-7.604,7.604s3.404,7.604,7.604,7.604h17.236c4.2,0,7.604-3.405,7.604-7.604
			S125.698,289.71,121.497,289.71z"/>
	</g>
</g>
<g>
	<g>
		<path d="M335.422,289.71h-17.236c-4.2,0-7.604,3.405-7.604,7.604s3.404,7.604,7.604,7.604h17.236c4.2,0,7.604-3.405,7.604-7.604
			S339.622,289.71,335.422,289.71z"/>
	</g>
</g>
<g>
	<g>
		<path d="M192.806,289.71H175.57c-4.2,0-7.604,3.405-7.604,7.604s3.404,7.604,7.604,7.604h17.236c4.2,0,7.604-3.405,7.604-7.604
			S197.006,289.71,192.806,289.71z"/>
	</g>
</g>
<g>
	<g>
		<path d="M406.731,289.71h-17.236c-4.2,0-7.604,3.405-7.604,7.604s3.404,7.604,7.604,7.604h17.236c4.2,0,7.604-3.405,7.604-7.604
			S410.931,289.71,406.731,289.71z"/>
	</g>
</g>
<g>
	<g>
		<path d="M50.189,445.338H32.954c-4.2,0-7.604,3.405-7.604,7.604c0,4.199,3.404,7.604,7.604,7.604h17.236
			c4.2,0,7.604-3.405,7.604-7.604C57.793,448.742,54.39,445.338,50.189,445.338z"/>
	</g>
</g>
<g>
	<g>
		<path d="M264.114,445.338h-17.236c-4.2,0-7.604,3.405-7.604,7.604c0,4.199,3.404,7.604,7.604,7.604h17.236
			c4.2,0,7.604-3.405,7.604-7.604C271.718,448.742,268.314,445.338,264.114,445.338z"/>
	</g>
</g>
<g>
	<g>
		<path d="M121.497,445.338h-17.236c-4.2,0-7.604,3.405-7.604,7.604c0,4.199,3.404,7.604,7.604,7.604h17.236
			c4.2,0,7.604-3.405,7.604-7.604C129.101,448.742,125.698,445.338,121.497,445.338z"/>
	</g>
</g>
<g>
	<g>
		<path d="M192.806,445.338H175.57c-4.2,0-7.604,3.405-7.604,7.604c0,4.199,3.404,7.604,7.604,7.604h17.236
			c4.2,0,7.604-3.405,7.604-7.604C200.41,448.742,197.006,445.338,192.806,445.338z"/>
	</g>
</g>
<g>
	<g>
		<path d="M50.189,211.897H32.954c-4.2,0-7.604,3.405-7.604,7.604c0,4.199,3.404,7.604,7.604,7.604h17.236
			c4.2,0,7.604-3.405,7.604-7.604C57.793,215.302,54.39,211.897,50.189,211.897z"/>
	</g>
</g>
<g>
	<g>
		<path d="M478.039,211.897h-17.236c-4.2,0-7.604,3.405-7.604,7.604c0,4.199,3.404,7.604,7.604,7.604h17.236
			c4.2,0,7.604-3.405,7.604-7.604C485.643,215.302,482.239,211.897,478.039,211.897z"/>
	</g>
</g>
<g>
	<g>
		<path d="M264.114,211.897h-17.236c-4.2,0-7.604,3.405-7.604,7.604c0,4.199,3.404,7.604,7.604,7.604h17.236
			c4.2,0,7.604-3.405,7.604-7.604C271.718,215.302,268.314,211.897,264.114,211.897z"/>
	</g>
</g>
<g>
	<g>
		<path d="M121.497,211.897h-17.236c-4.2,0-7.604,3.405-7.604,7.604c0,4.199,3.404,7.604,7.604,7.604h17.236
			c4.2,0,7.604-3.405,7.604-7.604C129.101,215.302,125.698,211.897,121.497,211.897z"/>
	</g>
</g>
<g>
	<g>
		<path d="M335.422,211.897h-17.236c-4.2,0-7.604,3.405-7.604,7.604c0,4.199,3.404,7.604,7.604,7.604h17.236
			c4.2,0,7.604-3.405,7.604-7.604C343.026,215.302,339.622,211.897,335.422,211.897z"/>
	</g>
</g>
<g>
	<g>
		<path d="M192.806,211.897H175.57c-4.2,0-7.604,3.405-7.604,7.604c0,4.199,3.404,7.604,7.604,7.604h17.236
			c4.2,0,7.604-3.405,7.604-7.604C200.41,215.302,197.006,211.897,192.806,211.897z"/>
	</g>
</g>
<g>
	<g>
		<path d="M406.731,211.897h-17.236c-4.2,0-7.604,3.405-7.604,7.604c0,4.199,3.404,7.604,7.604,7.604h17.236
			c4.2,0,7.604-3.405,7.604-7.604C414.335,215.302,410.931,211.897,406.731,211.897z"/>
	</g>
</g>
<g>
	<g>
		<path d="M50.189,367.524H32.954c-4.2,0-7.604,3.405-7.604,7.604s3.404,7.604,7.604,7.604h17.236c4.2,0,7.604-3.405,7.604-7.604
			S54.39,367.524,50.189,367.524z"/>
	</g>
</g>
<g>
	<g>
		<path d="M478.039,367.524h-17.236c-4.2,0-7.604,3.405-7.604,7.604s3.404,7.604,7.604,7.604h17.236c4.2,0,7.604-3.405,7.604-7.604
			S482.239,367.524,478.039,367.524z"/>
	</g>
</g>
<g>
	<g>
		<path d="M264.114,367.524h-17.236c-4.2,0-7.604,3.405-7.604,7.604s3.404,7.604,7.604,7.604h17.236c4.2,0,7.604-3.405,7.604-7.604
			S268.314,367.524,264.114,367.524z"/>
	</g>
</g>
<g>
	<g>
		<path d="M121.497,367.524h-17.236c-4.2,0-7.604,3.405-7.604,7.604s3.404,7.604,7.604,7.604h17.236c4.2,0,7.604-3.405,7.604-7.604
			S125.698,367.524,121.497,367.524z"/>
	</g>
</g>
<g>
	<g>
		<path d="M335.422,367.524h-17.236c-4.2,0-7.604,3.405-7.604,7.604s3.404,7.604,7.604,7.604h17.236c4.2,0,7.604-3.405,7.604-7.604
			S339.622,367.524,335.422,367.524z"/>
	</g>
</g>
<g>
	<g>
		<path d="M192.806,367.524H175.57c-4.2,0-7.604,3.405-7.604,7.604s3.404,7.604,7.604,7.604h17.236c4.2,0,7.604-3.405,7.604-7.604
			S197.006,367.524,192.806,367.524z"/>
	</g>
</g>
<g>
	<g>
		<path d="M406.731,367.524h-17.236c-4.2,0-7.604,3.405-7.604,7.604s3.404,7.604,7.604,7.604h17.236c4.2,0,7.604-3.405,7.604-7.604
			S410.931,367.524,406.731,367.524z"/>
	</g>
</g>
<g>
</g>
<g>
</g>
<g>
</g>
<g>
</g>
<g>
</g>
<g>
</g>
<g>
</g>
<g>
</g>
<g>
</g>
<g>
</g>
<g>
</g>
<g>
</g>
<g>
</g>
<g>
</g>
<g>
</g>
</svg>
