<?xml version="1.0" encoding="iso-8859-1"?>
<!-- Generator: Adobe Illustrator 19.0.0, SVG Export Plug-In . SVG Version: 6.00 Build 0)  -->
<svg version="1.1" id="Capa_1" xmlns="http://www.w3.org/2000/svg" xmlns:xlink="http://www.w3.org/1999/xlink" x="0px" y="0px"
	 viewBox="0 0 512.001 512.001" style="enable-background:new 0 0 512.001 512.001;" xml:space="preserve">
<g>
	<g>
		<path d="M473.372,0.002H242.517c-21.334,0-38.628,17.294-38.628,38.628v152.996l-68.74-67.704
			c-2.606-2.567-6.745-2.967-9.85-0.706c-2.002,1.459-3.089,3.869-3.089,6.347v48.288H85.168c-4.199,0-7.604,3.405-7.604,7.604
			s3.404,7.604,7.604,7.604h44.646c4.199,0,7.604-3.404,7.604-7.604v-37.954l110.793,109.124L137.418,365.75v-37.954
			c0-4.199-3.405-7.604-7.604-7.604H15.208V193.058h34.474c4.199,0,7.604-3.404,7.604-7.604s-3.405-7.604-7.604-7.604H7.604
			c-4.199,0-7.604,3.405-7.604,7.604v142.342c0,4.199,3.405,7.604,7.604,7.604H122.21v48.276c0,2.544,1.145,5.015,3.235,6.463
			c1.342,0.931,2.863,1.377,4.368,1.377c1.959,0,3.886-0.757,5.337-2.187l68.74-67.704v151.746
			c0,21.333,17.294,38.628,38.628,38.628h230.855c21.334,0,38.628-17.294,38.628-38.628V38.63
			C512,17.296,494.706,0.002,473.372,0.002z M496.793,473.371h-0.001c0,12.935-10.485,23.42-23.42,23.42H242.517
			c-12.935,0-23.42-10.485-23.42-23.42V306.647l7.239-7.13v138.978c0,4.199,3.405,7.604,7.604,7.604h176.674
			c4.199,0,7.604-3.405,7.604-7.604c0-4.199-3.405-7.604-7.604-7.604H241.544V284.538l22.715-22.374
			c0.762-0.751,1.412-1.626,1.816-2.618c1.21-2.98,0.45-6.228-1.692-8.338l-22.838-22.494V78.668h233.836v352.224h-29.279
			c-4.199,0-7.604,3.405-7.604,7.604c0,4.199,3.405,7.604,7.604,7.604h36.883c4.199,0,7.604-3.405,7.604-7.604V71.064
			c0-4.199-3.405-7.604-7.604-7.604H233.941c-4.199,0-7.604,3.405-7.604,7.604v142.672l-7.239-7.13V38.631
			c0-12.935,10.485-23.42,23.42-23.42h230.855c12.935,0,23.42,10.485,23.42,23.42V473.371z"/>
	</g>
</g>
<g>
	<g>
		<path d="M389.066,449.559H326.82c-6.932,0-12.571,5.639-12.571,12.571v19.357c0,6.932,5.64,12.571,12.571,12.571h62.246
			c6.932,0,12.57-5.639,12.57-12.571v-19.357C401.636,455.198,395.998,449.559,389.066,449.559z M386.428,478.849L386.428,478.849
			h-56.971v-14.083h56.971V478.849z"/>
	</g>
</g>
<g>
	<g>
		<path d="M299.145,90.613h-27.728c-10.233,0-18.558,8.325-18.558,18.558v27.727c0,10.233,8.325,18.558,18.558,18.558h27.728
			c10.233,0,18.558-8.325,18.558-18.558v-27.727C317.702,98.938,309.377,90.613,299.145,90.613z M302.494,136.898
			c0,1.847-1.503,3.35-3.35,3.35h-27.728c-1.846,0-3.35-1.503-3.35-3.35v-27.727c0-1.847,1.503-3.35,3.35-3.35h27.728
			c1.846,0,3.35,1.503,3.35,3.35V136.898z"/>
	</g>
</g>
<g>
	<g>
		<path d="M372.329,90.613h-27.728c-10.233,0-18.558,8.325-18.558,18.558v27.727c0,10.233,8.325,18.558,18.558,18.558h27.728
			c10.233,0,18.559-8.325,18.559-18.558v-27.727C390.888,98.938,382.562,90.613,372.329,90.613z M375.68,136.898
			c0,1.847-1.503,3.35-3.351,3.35h-27.728c-1.846,0-3.35-1.503-3.35-3.35v-27.727c0-1.847,1.503-3.35,3.35-3.35h27.728
			c1.847,0,3.351,1.503,3.351,3.35V136.898z"/>
	</g>
</g>
<g>
	<g>
		<path d="M445.515,90.613h-27.728c-10.233,0-18.559,8.325-18.559,18.558v27.727c0,10.233,8.326,18.558,18.559,18.558h27.728
			c10.233,0,18.558-8.325,18.558-18.558v-27.727C464.073,98.938,455.748,90.613,445.515,90.613z M448.865,136.897
			c0,1.847-1.503,3.35-3.35,3.35h-27.728c-1.847,0-3.351-1.503-3.351-3.35V109.17c0-1.847,1.503-3.35,3.351-3.35h27.728
			c1.846,0,3.35,1.503,3.35,3.35V136.897z"/>
	</g>
</g>
<g>
	<g>
		<path d="M299.145,163.213h-27.728c-10.233,0-18.558,8.325-18.558,18.558v27.727c0,10.233,8.325,18.558,18.558,18.558h27.728
			c10.233,0,18.558-8.325,18.558-18.558v-27.727C317.702,171.538,309.377,163.213,299.145,163.213z M302.494,209.498
			c0,1.847-1.503,3.35-3.35,3.35h-27.728c-1.846,0-3.35-1.503-3.35-3.35v-27.727c0-1.847,1.503-3.35,3.35-3.35h27.728
			c1.846,0,3.35,1.503,3.35,3.35V209.498z"/>
	</g>
</g>
<g>
	<g>
		<path d="M372.329,163.213h-27.728c-10.233,0-18.558,8.325-18.558,18.558v27.727c0,10.233,8.325,18.558,18.558,18.558h27.728
			c10.233,0,18.559-8.325,18.559-18.558v-27.727C390.888,171.538,382.562,163.213,372.329,163.213z M375.68,209.498
			c0,1.847-1.503,3.35-3.351,3.35h-27.728c-1.846,0-3.35-1.503-3.35-3.35v-27.727c0-1.847,1.503-3.35,3.35-3.35h27.728
			c1.847,0,3.351,1.503,3.351,3.35V209.498z"/>
	</g>
</g>
<g>
	<g>
		<path d="M445.515,163.213h-27.728c-10.233,0-18.559,8.325-18.559,18.558v27.727c0,10.233,8.326,18.558,18.559,18.558h27.728
			c10.233,0,18.558-8.325,18.558-18.558v-27.727C464.073,171.538,455.748,163.213,445.515,163.213z M448.865,209.498
			c0,1.847-1.503,3.35-3.35,3.35h-27.728c-1.847,0-3.351-1.503-3.351-3.35v-27.727c0-1.847,1.503-3.35,3.351-3.35h27.728
			c1.846,0,3.35,1.503,3.35,3.35V209.498z"/>
	</g>
</g>
<g>
	<g>
		<path d="M299.145,354.493h-27.728c-10.233,0-18.558,8.325-18.558,18.558v27.727c0,10.233,8.325,18.558,18.558,18.558h27.728
			c10.233,0,18.558-8.325,18.558-18.558v-27.727C317.702,362.819,309.377,354.493,299.145,354.493z M302.494,400.779
			c0,1.847-1.503,3.35-3.35,3.35h-27.728c-1.846,0-3.35-1.503-3.35-3.35v-27.727c0-1.847,1.503-3.35,3.35-3.35h27.728
			c1.846,0,3.35,1.503,3.35,3.35V400.779z"/>
	</g>
</g>
<g>
	<g>
		<path d="M372.329,354.493h-27.728c-10.233,0-18.558,8.325-18.558,18.558v27.727c0,10.233,8.325,18.558,18.558,18.558h27.728
			c10.233,0,18.559-8.325,18.559-18.558v-27.727C390.888,362.819,382.562,354.493,372.329,354.493z M375.68,400.779
			c0,1.847-1.503,3.35-3.351,3.35h-27.728c-1.846,0-3.35-1.503-3.35-3.35v-27.727c0-1.847,1.503-3.35,3.35-3.35h27.728
			c1.847,0,3.351,1.503,3.351,3.35V400.779z"/>
	</g>
</g>
<g>
	<g>
		<path d="M445.514,354.495h-27.728c-10.233,0-18.559,8.325-18.559,18.558v27.727c0,10.233,8.326,18.558,18.559,18.558h27.728
			c10.234,0,18.558-8.325,18.558-18.558v-27.727C464.072,362.819,455.747,354.495,445.514,354.495z M448.865,400.779
			c0,1.847-1.503,3.35-3.35,3.35h-27.728c-1.847,0-3.351-1.503-3.351-3.35v-27.727c0-1.847,1.503-3.35,3.351-3.35h27.728
			c1.846,0,3.35,1.503,3.35,3.35V400.779z"/>
	</g>
</g>
<g>
	<g>
		<path d="M377.545,30.354h-39.203c-4.2,0-7.604,3.404-7.604,7.604s3.404,7.604,7.604,7.604h39.203c4.2,0,7.604-3.405,7.604-7.604
			S381.744,30.354,377.545,30.354z"/>
	</g>
</g>
<g>
</g>
<g>
</g>
<g>
</g>
<g>
</g>
<g>
</g>
<g>
</g>
<g>
</g>
<g>
</g>
<g>
</g>
<g>
</g>
<g>
</g>
<g>
</g>
<g>
</g>
<g>
</g>
<g>
</g>
</svg>
