<?xml version="1.0" encoding="iso-8859-1"?>
<!-- Generator: Adobe Illustrator 19.0.0, SVG Export Plug-In . SVG Version: 6.00 Build 0)  -->
<svg version="1.1" id="Capa_1" xmlns="http://www.w3.org/2000/svg" xmlns:xlink="http://www.w3.org/1999/xlink" x="0px" y="0px"
	 viewBox="0 0 512 512" style="enable-background:new 0 0 512 512;" xml:space="preserve">
<g>
	<g>
		<path d="M486.612,185.164c-0.543-4.219-4.411-7.198-8.622-6.656c-35.183,4.529-70.963,19.994-106.343,45.964
			c-3.43,2.517-4.169,7.338-1.651,10.766c1.51,2.056,3.846,3.146,6.215,3.146c1.583,0,3.178-0.486,4.551-1.493
			c33.254-24.41,66.629-38.912,99.194-43.104C484.175,193.243,487.155,189.382,486.612,185.164z"/>
	</g>
</g>
<g>
	<g>
		<path d="M386.367,138.103c-3.009-3.008-7.885-3.008-10.893,0l-78.684,78.684c-9.497-9.411-19.508-18.476-29.723-26.904
			c3.301-3.42,6.664-7.018,10.057-10.803c27.081-30.211,60.866-77.882,68.013-133.424c0.543-4.219-2.437-8.079-6.656-8.622
			c-4.21-0.541-8.08,2.437-8.622,6.656c-6.629,51.5-38.446,96.316-63.968,124.843c-3.692,4.126-7.36,8.034-10.952,11.721
			c-46.359-35.384-94.329-55.622-115.612-34.339c-3.093,3.093-5.898,7.401-7.436,13.366L87.548,286.908
			c-1.396,4.018,0.729,8.407,4.747,9.803c4.018,1.396,8.407-0.729,9.803-4.748l33.542-96.539c1.915,5.565,4.434,11.653,7.701,18.339
			c14.015,28.696,38.257,61.024,68.261,91.027c34.947,34.947,77.158,65.338,110.807,76.451L32.862,491.237l56.181-161.699
			c1.396-4.018-0.729-8.407-4.748-9.803c-4.018-1.396-8.406,0.729-9.803,4.748L12.895,501.77c-0.983,2.826-0.238,5.967,1.908,8.051
			c1.463,1.422,3.399,2.179,5.369,2.179c0.918,0,1.844-0.164,2.734-0.502l334.231-126.971c5.151-1.331,9.649-3.77,13.341-7.462
			c20.013-20.013,3.312-63.622-28.17-107.299c5.682-5.577,11.919-11.363,18.666-17.145c3.476-2.979,3.646-8.384,0.149-11.57
			c-2.909-2.651-7.409-2.499-10.396,0.065c-6.385,5.481-12.312,10.941-17.762,16.23c-7.885-10.056-16.45-19.993-25.423-29.527
			l78.825-78.825C389.375,145.987,389.375,141.111,386.367,138.103z M322.088,268.305c-18.729,19.589-29.51,34.704-30.144,35.601
			c-2.458,3.472-1.634,8.279,1.838,10.736c1.35,0.956,2.904,1.415,4.442,1.415c2.415,0,4.794-1.133,6.294-3.253
			c0.143-0.202,9.909-13.892,26.906-31.928c8.542,12.054,15.722,23.89,21.198,35.101c11.745,24.047,14.348,42.812,6.963,50.197
			c-7.384,7.385-26.151,4.781-50.197-6.963c-27.205-13.286-58.065-36.481-86.895-65.31c-28.829-28.829-52.025-59.69-65.311-86.895
			c-11.745-24.048-14.347-42.813-6.963-50.198c2.775-2.774,7.155-4.139,12.817-4.139c9.412,0,22.367,3.769,37.38,11.101
			c13.811,6.745,28.566,16.054,43.518,27.348c-18.524,17.593-32.8,27.801-33.091,28.008c-3.472,2.458-4.296,7.264-1.839,10.737
			c1.501,2.122,3.879,3.254,6.294,3.254c1.538,0,3.091-0.46,4.443-1.415c0.856-0.607,16.389-11.674,36.418-30.93
			c9.987,8.211,19.968,17.234,29.732,26.914l-23.895,23.895c-3.008,3.008-3.008,7.884,0,10.892c1.505,1.504,3.476,2.256,5.447,2.256
			c1.971,0,3.942-0.752,5.447-2.256l23.758-23.758C305.864,248.493,314.4,258.425,322.088,268.305z"/>
	</g>
</g>
<g>
	<g>
		<path d="M497.277,27.192c-3.009-3.008-7.885-3.008-10.893,0l-93.965,93.965c-3.008,3.008-3.008,7.884,0,10.892
			c1.504,1.504,3.476,2.256,5.447,2.256c1.971,0,3.942-0.752,5.447-2.256l93.965-93.965C500.284,35.076,500.284,30.2,497.277,27.192
			z"/>
	</g>
</g>
<g>
	<g>
		<path d="M448.409,237.223c-4.255,0-7.702,3.448-7.702,7.702v21.566c0,4.254,3.447,7.702,7.702,7.702
			c4.255,0,7.702-3.448,7.702-7.702v-21.566C456.111,240.672,452.662,237.223,448.409,237.223z"/>
	</g>
</g>
<g>
	<g>
		<path d="M448.409,294.732c-4.255,0-7.702,3.448-7.702,7.702V324c0,4.254,3.447,7.702,7.702,7.702c4.255,0,7.702-3.448,7.702-7.702
			v-21.566C456.111,298.181,452.662,294.732,448.409,294.732z"/>
	</g>
</g>
<g>
	<g>
		<path d="M487.946,276.761H466.38c-4.255,0-7.702,3.448-7.702,7.702s3.447,7.702,7.702,7.702h21.566
			c4.255,0,7.702-3.448,7.702-7.702S492.199,276.761,487.946,276.761z"/>
	</g>
</g>
<g>
	<g>
		<path d="M430.437,276.761h-21.566c-4.255,0-7.702,3.448-7.702,7.702s3.447,7.702,7.702,7.702h21.566
			c4.255,0,7.702-3.448,7.702-7.702S434.692,276.761,430.437,276.761z"/>
	</g>
</g>
<g>
	<g>
		<path d="M210.671,15.918c-4.254,0-7.702,3.448-7.702,7.702v21.566c0,4.254,3.448,7.702,7.702,7.702
			c4.254,0,7.702-3.448,7.702-7.702V23.62C218.373,19.366,214.924,15.918,210.671,15.918z"/>
	</g>
</g>
<g>
	<g>
		<path d="M210.671,73.426c-4.254,0-7.702,3.448-7.702,7.702v21.566c0,4.254,3.448,7.702,7.702,7.702
			c4.254,0,7.702-3.448,7.702-7.702V81.128C218.373,76.875,214.924,73.426,210.671,73.426z"/>
	</g>
</g>
<g>
	<g>
		<path d="M250.208,55.455h-21.566c-4.254,0-7.702,3.448-7.702,7.702c0,4.254,3.448,7.702,7.702,7.702h21.566
			c4.254,0,7.702-3.448,7.702-7.702C257.91,58.903,254.462,55.455,250.208,55.455z"/>
	</g>
</g>
<g>
	<g>
		<path d="M192.699,55.455h-21.566c-4.254,0-7.702,3.448-7.702,7.702c0,4.254,3.448,7.702,7.702,7.702h21.566
			c4.254,0,7.702-3.448,7.702-7.702C200.401,58.903,196.953,55.455,192.699,55.455z"/>
	</g>
</g>
<g>
	<g>
		<path d="M391.413,0c-14.156,0-25.674,11.517-25.674,25.674s11.516,25.674,25.674,25.674c14.156,0,25.674-11.517,25.674-25.674
			S405.57,0,391.413,0z M391.413,35.943c-5.663,0-10.269-4.607-10.269-10.269s4.607-10.269,10.269-10.269
			s10.269,4.607,10.269,10.269S397.076,35.943,391.413,35.943z"/>
	</g>
</g>
<g>
	<g>
		<path d="M110.544,67.778c-14.156,0-25.674,11.517-25.674,25.674s11.517,25.674,25.674,25.674s25.674-11.517,25.674-25.674
			S124.7,67.778,110.544,67.778z M110.544,103.721c-5.663,0-10.269-4.607-10.269-10.269s4.607-10.269,10.269-10.269
			c5.663,0,10.269,4.607,10.269,10.269S116.207,103.721,110.544,103.721z"/>
	</g>
</g>
<g>
	<g>
		<path d="M428.897,368.672c-14.156,0-25.674,11.517-25.674,25.674c0,14.156,11.517,25.674,25.674,25.674
			s25.674-11.517,25.674-25.674C454.57,380.189,443.053,368.672,428.897,368.672z M428.897,404.615
			c-5.663,0-10.269-4.607-10.269-10.269c0-5.663,4.607-10.269,10.269-10.269c5.663,0,10.269,4.607,10.269,10.269
			C439.166,400.008,434.558,404.615,428.897,404.615z"/>
	</g>
</g>
<g>
	<g>
		<path d="M441.22,120.152c-14.156,0-25.674,11.517-25.674,25.674c0,14.156,11.517,25.674,25.674,25.674
			c14.156,0,25.674-11.517,25.674-25.674C466.894,131.669,455.376,120.152,441.22,120.152z M441.22,156.095
			c-5.663,0-10.269-4.607-10.269-10.269c0-5.663,4.607-10.269,10.269-10.269c5.663,0,10.269,4.607,10.269,10.269
			C451.49,151.488,446.883,156.095,441.22,156.095z"/>
	</g>
</g>
<g>
	<g>
		<path d="M490.399,228.859c-2.083-2.662-5.875-3.663-8.993-2.343c-3.105,1.283-5.041,4.528-4.718,7.87
			c0.325,3.352,2.872,6.119,6.155,6.794C489.713,242.595,494.7,234.358,490.399,228.859z"/>
	</g>
</g>
<g>
	<g>
		<path d="M364.234,82.096c-2.457-2.209-6.087-2.599-8.963-0.99c-3.353,1.875-4.779,6.106-3.321,9.648
			c1.225,2.897,4.146,4.831,7.305,4.75c3.075-0.078,5.888-2.057,6.987-4.928C367.365,87.642,366.581,84.205,364.234,82.096z"/>
	</g>
</g>
<g>
	<g>
		<path d="M438.365,35.427c-0.887-3.164-3.746-5.478-7.041-5.637c-3.426-0.166-6.602,2.029-7.685,5.277
			c-1.075,3.227,0.187,6.94,3.03,8.816C432.498,47.721,440.256,42.173,438.365,35.427z"/>
	</g>
</g>
<g>
	<g>
		<path d="M386.661,178.249c-3.16-1.306-6.919-0.326-9.022,2.375c-1.968,2.527-2.146,6.099-0.459,8.815
			c3.553,5.72,12.503,4.162,14.032-2.339C392.066,183.469,390.075,179.69,386.661,178.249z"/>
	</g>
</g>
<g>
	<g>
		<path d="M262.188,103.793c-1.546-3.012-5.027-4.7-8.352-4.033c-3.224,0.673-5.718,3.328-6.132,6.601
			c-0.423,3.346,1.454,6.621,4.522,7.987c2.934,1.307,6.439,0.615,8.667-1.694C263.156,110.31,263.67,106.68,262.188,103.793z"/>
	</g>
</g>
<g>
</g>
<g>
</g>
<g>
</g>
<g>
</g>
<g>
</g>
<g>
</g>
<g>
</g>
<g>
</g>
<g>
</g>
<g>
</g>
<g>
</g>
<g>
</g>
<g>
</g>
<g>
</g>
<g>
</g>
</svg>
