<?xml version="1.0" encoding="iso-8859-1"?>
<!-- Generator: Adobe Illustrator 19.0.0, SVG Export Plug-In . SVG Version: 6.00 Build 0)  -->
<svg version="1.1" id="Capa_1" xmlns="http://www.w3.org/2000/svg" xmlns:xlink="http://www.w3.org/1999/xlink" x="0px" y="0px"
	 viewBox="0 0 512.001 512.001" style="enable-background:new 0 0 512.001 512.001;" xml:space="preserve">
<g>
	<g>
		<path d="M356.696,7.068c-3.414-0.48-6.549-0.896-9.548-1.27c-13.335-1.718-27.008-3.07-40.624-4.021
			c-9.853-0.704-20.02-1.206-30.214-1.49c-13.476-0.383-27.145-0.383-40.624,0c-10.201,0.284-20.368,0.786-30.206,1.489
			c-13.569,0.948-27.237,2.297-40.613,4.011c-3.199,0.406-6.386,0.833-9.578,1.282c-29.379,4.155-51.533,29.607-51.533,59.206
			V342.52c0,29.593,22.154,55.041,51.535,59.197c9.852,1.39,19.727,2.55,29.613,3.53v53.654c0,4.268,3.459,7.728,7.728,7.728h21.628
			v45.371h15.457v-103.7c8.758,0.319,17.519,0.488,26.281,0.488c8.759,0,17.518-0.168,26.273-0.487v103.699h15.457V466.63h21.64
			c4.269,0,7.728-3.46,7.728-7.728v-53.654c9.885-0.98,19.757-2.139,29.606-3.529c29.385-4.156,51.544-29.605,51.544-59.197V66.275
			C408.246,36.677,386.087,11.224,356.696,7.068z M313.701,17.834c8.286,0.678,16.55,1.51,24.731,2.478v19.985
			c0,6.819-5.547,12.366-12.366,12.366c-3.306,0-6.411-1.286-8.745-3.62c-2.335-2.335-3.62-5.441-3.62-8.745V17.834z M243.63,15.578
			c4.117-0.072,8.24-0.122,12.368-0.122c4.126,0,8.248,0.049,12.363,0.122v24.719c0,6.819-5.547,12.366-12.365,12.366
			c-3.306,0-6.411-1.286-8.746-3.62c-2.335-2.335-3.62-5.441-3.62-8.746V15.578z M173.569,20.306
			c8.189-0.966,16.451-1.795,24.721-2.472v22.463c0,6.819-5.543,12.366-12.355,12.366c-3.305,0-6.41-1.286-8.745-3.621
			c-2.334-2.334-3.62-5.44-3.62-8.745V20.306z M214.261,451.172h-13.9V406.61c4.631,0.359,9.265,0.676,13.9,0.945V451.172z
			 M311.639,451.172h-13.911v-43.617c4.639-0.269,9.276-0.586,13.911-0.945V451.172z M392.784,333.191H295.41
			c-6.818,0-12.364-5.547-12.364-12.365s5.547-12.364,12.364-12.364h97.373V333.191z M392.791,82.802h-96.787
			c-15.138,0-27.951,11.847-28.401,26.978c-0.467,15.724,12.188,28.664,27.809,28.664h97.378v14.425h-96.787
			c-15.138,0-27.951,11.847-28.401,26.978c-0.467,15.724,12.188,28.664,27.809,28.664h97.378v14.425h-96.787
			c-15.138,0-27.951,11.847-28.401,26.978c-0.467,15.724,12.188,28.664,27.809,28.664h22.607c4.268,0,7.728-3.46,7.728-7.728
			c0-4.268-3.46-7.728-7.728-7.728h-22.247c-6.434,0-12.068-4.766-12.671-11.172c-0.692-7.351,5.097-13.557,12.308-13.557h97.373
			v24.729h-38.699c-4.268,0-7.728,3.46-7.728,7.728c0,4.268,3.46,7.728,7.728,7.728h38.704v14.425h-96.787
			c-15.138,0-27.951,11.847-28.401,26.978c-0.467,15.724,12.188,28.664,27.809,28.664h96.946
			c-2.724,19.236-18.072,34.971-37.816,37.763c-65.386,9.228-131.696,9.228-197.088,0c-19.741-2.792-35.084-18.528-37.809-37.764
			h96.348c15.138,0,27.951-11.847,28.401-26.978c0.467-15.724-12.188-28.664-27.809-28.664h-97.372v-14.425h96.781
			c15.138,0,27.951-11.847,28.401-26.978c0.467-15.724-12.188-28.664-27.809-28.664h-97.372v-14.425h96.781
			c15.138,0,27.951-11.847,28.401-26.978c0.467-15.724-12.188-28.664-27.809-28.664h-97.372v-14.425h96.781
			c15.138,0,27.951-11.847,28.401-26.978c0.467-15.724-12.188-28.664-27.809-28.664h-28.403c-4.268,0-7.728,3.46-7.728,7.728
			c0,4.268,3.46,7.728,7.728,7.728h28.041c6.434,0,12.068,4.766,12.671,11.172c0.692,7.351-5.097,13.557-12.308,13.557h-97.372
			V98.258h32.903c4.268,0,7.728-3.46,7.728-7.728c0-4.268-3.46-7.728-7.728-7.728h-32.903V66.275
			c0-21.945,16.44-40.819,38.234-43.901c0.222-0.031,0.444-0.058,0.666-0.089v17.414c0,7.285,2.592,14.42,7.601,19.711
			c5.452,5.759,12.915,8.873,20.839,8.703c15.218-0.327,27.195-13.186,27.195-28.408V16.723c4.761-0.288,9.58-0.526,14.426-0.715
			v23.694c0,7.285,2.592,14.42,7.602,19.711c5.452,5.758,12.914,8.871,20.84,8.7c15.223-0.328,27.204-13.191,27.204-28.418V16.007
			c4.844,0.191,9.664,0.429,14.426,0.716v22.978c0,7.285,2.592,14.42,7.602,19.711c5.452,5.758,12.914,8.871,20.84,8.7
			c15.223-0.328,27.204-13.191,27.204-28.418V22.284c0.219,0.031,0.429,0.059,0.649,0.09c21.807,3.084,38.251,21.957,38.251,43.902
			V82.802z M392.784,98.258v24.729H295.41c-6.818,0-12.364-5.547-12.364-12.364s5.547-12.365,12.364-12.365H392.784z
			 M392.784,168.326v24.729H295.41c-6.818,0-12.364-5.547-12.364-12.365s5.547-12.364,12.364-12.364H392.784z M119.212,333.191
			v-24.729h97.372c6.818,0,12.364,5.547,12.364,12.365s-5.547,12.364-12.364,12.364H119.212z M119.212,263.122v-24.729h97.372
			c6.818,0,12.364,5.547,12.364,12.365s-5.547,12.364-12.364,12.364H119.212z M119.212,193.054v-24.729h97.372
			c6.818,0,12.364,5.547,12.364,12.364s-5.547,12.364-12.364,12.364H119.212z"/>
	</g>
</g>
<g>
</g>
<g>
</g>
<g>
</g>
<g>
</g>
<g>
</g>
<g>
</g>
<g>
</g>
<g>
</g>
<g>
</g>
<g>
</g>
<g>
</g>
<g>
</g>
<g>
</g>
<g>
</g>
<g>
</g>
</svg>
