<?xml version="1.0" encoding="iso-8859-1"?>
<!-- Generator: Adobe Illustrator 19.0.0, SVG Export Plug-In . SVG Version: 6.00 Build 0)  -->
<svg version="1.1" id="Capa_1" xmlns="http://www.w3.org/2000/svg" xmlns:xlink="http://www.w3.org/1999/xlink" x="0px" y="0px"
	 viewBox="0 0 512 512" style="enable-background:new 0 0 512 512;" xml:space="preserve">
<g>
	<g>
		<path d="M504.396,47.638h-38.84v-1.594c0-15.546-12.338-28.635-27.883-28.77c-7.611-0.066-14.775,2.866-20.139,8.232
			c-5.318,5.302-8.247,12.371-8.247,19.902v2.23h-16.299v-1.594c0-15.546-12.338-28.635-27.883-28.77
			c-7.611-0.066-14.775,2.866-20.139,8.232c-5.318,5.302-8.247,12.371-8.247,19.902v2.23h-16.3v-1.594
			c0-15.546-12.338-28.635-27.883-28.77c-7.611-0.066-14.775,2.866-20.139,8.232c-5.318,5.302-8.247,12.371-8.247,19.902v2.23
			h-16.299v-1.594c0-15.546-12.338-28.635-27.883-28.77c-7.611-0.066-14.775,2.866-20.139,8.232
			c-5.318,5.302-8.247,12.371-8.247,19.902v2.23h-16.3v-1.594c0-15.546-12.338-28.635-27.883-28.77
			c-7.611-0.066-14.775,2.866-20.139,8.232c-5.318,5.302-8.247,12.371-8.247,19.902v2.23h-16.3v-1.594
			c0-15.545-12.335-28.633-27.878-28.771c-7.611-0.067-14.777,2.865-20.143,8.232c-5.319,5.304-8.248,12.372-8.248,19.902v2.231
			H7.604C3.405,47.637,0,51.041,0,55.241v431.884c0,4.199,3.405,7.604,7.604,7.604h108.049c4.199,0,7.604-3.405,7.604-7.604
			c0-4.199-3.405-7.604-7.604-7.604H15.208V62.846h72.296v8.028c0,3.371-1.151,6.695-3.445,9.165
			c-2.421,2.607-5.718,4.074-9.247,4.137c-3.701,0.065-7.031,2.515-7.704,6.154c-0.894,4.837,2.794,9.056,7.469,9.056
			c7.851,0,15.211-3.193,20.596-8.964c4.971-5.327,7.539-12.464,7.539-19.751v-7.825h57.361v8.028c0,3.371-1.151,6.695-3.445,9.165
			c-2.421,2.607-5.718,4.074-9.247,4.137c-3.701,0.065-7.031,2.515-7.704,6.154c-0.894,4.837,2.794,9.056,7.469,9.056
			c7.851,0,15.211-3.193,20.596-8.964c4.971-5.327,7.539-12.464,7.539-19.751v-7.825h57.361v8.026c0,3.371-1.15,6.696-3.444,9.166
			c-2.421,2.608-5.719,4.076-9.248,4.139c-3.701,0.066-7.031,2.514-7.704,6.154c-0.894,4.837,2.794,9.056,7.469,9.056
			c7.851,0,15.211-3.194,20.597-8.966c4.97-5.328,7.538-12.465,7.538-19.751v-7.822h57.36v8.028c0,3.371-1.151,6.695-3.445,9.165
			c-2.421,2.607-5.718,4.074-9.247,4.137c-3.701,0.065-7.031,2.515-7.704,6.154c-0.894,4.837,2.794,9.056,7.469,9.056
			c7.851,0,15.211-3.193,20.596-8.964c4.971-5.327,7.539-12.464,7.539-19.751v-7.825h57.361v8.026c0,3.371-1.15,6.695-3.444,9.166
			c-2.421,2.608-5.719,4.076-9.248,4.139c-3.701,0.066-7.031,2.514-7.704,6.154c-0.894,4.837,2.794,9.056,7.469,9.056
			c7.851,0,15.211-3.194,20.597-8.966c4.97-5.328,7.538-12.465,7.538-19.751V62.85h57.36v8.028c0,3.371-1.151,6.695-3.445,9.165
			c-2.421,2.607-5.718,4.074-9.247,4.137c-3.701,0.065-7.031,2.515-7.704,6.154c-0.894,4.837,2.794,9.056,7.469,9.056
			c7.851,0,15.211-3.193,20.596-8.964c4.971-5.327,7.539-12.464,7.539-19.751V62.85h31.242v117.604c0,4.199,3.405,7.604,7.604,7.604
			s7.604-3.405,7.604-7.604V55.242C512,51.042,508.595,47.638,504.396,47.638z M87.504,47.638H61.651v-2.23
			c0-3.46,1.341-6.705,3.786-9.142c2.44-2.441,5.687-3.785,9.141-3.785c7.127,0,12.927,5.799,12.927,12.927V47.638z M160.073,47.638
			H134.22v-2.23c0-3.461,1.341-6.705,3.785-9.142c2.44-2.441,5.687-3.785,9.142-3.785c7.127,0,12.927,5.799,12.927,12.927V47.638z
			 M232.643,47.638h-25.854v-2.23c0-3.461,1.341-6.705,3.785-9.142c2.44-2.441,5.687-3.785,9.142-3.785
			c7.127,0,12.927,5.799,12.927,12.927V47.638z M305.211,47.638h-25.853v-2.23c0-3.461,1.341-6.705,3.785-9.142
			c2.44-2.441,5.687-3.785,9.142-3.785c7.127,0,12.927,5.799,12.927,12.927V47.638z M377.78,47.638h-25.853v-2.23
			c0-3.461,1.341-6.705,3.785-9.142c2.44-2.441,5.687-3.785,9.142-3.785c7.127,0,12.927,5.799,12.927,12.927V47.638z
			 M450.348,47.638h-25.853v-2.23c0-3.461,1.341-6.705,3.785-9.142c2.44-2.441,5.687-3.785,9.142-3.785
			c7.127,0,12.927,5.799,12.927,12.927V47.638z"/>
	</g>
</g>
<g>
	<g>
		<path d="M504.395,208.331c-4.199,0-7.604,3.405-7.604,7.604v141.84h0.001c-3.474,15.701-11.238,28.448-23.181,38.107H38.096
			c-4.164,0-7.795,3.208-7.919,7.37c-0.13,4.306,3.322,7.838,7.601,7.838H444c-16.188,4.983-29.811,5.094-29.957,5.095
			c-4.2,0-7.604,3.405-7.604,7.604c0,32.764-10.443,49.29-15.106,55.036L151.119,479.5c-4.199,0.012-7.595,3.426-7.583,7.625
			s3.426,7.594,7.625,7.582l239.646-0.673c0.967,0.44,2.028,0.695,3.137,0.695c3.76,0,7.764-0.222,11.944-0.737l98.527-0.277
			c4.191-0.012,7.583-3.413,7.583-7.604V215.935C511.999,211.735,508.594,208.331,504.395,208.331z M410.785,476.463
			c6.358-12.618,9.95-27.894,10.709-45.491c7.922-0.732,21.216-2.74,35.32-8.247c10.589-4.135,19.817-9.528,27.593-16.08
			c-3.298,7.711-7.288,15.593-12.004,23.173c-12.08,19.412-32.189,42.017-62.381,48.118
			C410.277,477.458,410.532,476.967,410.785,476.463z M496.792,478.528l-49.654,0.14c13.114-8.667,26.255-21.653,38.178-40.814
			c4.33-6.96,8.164-14.288,11.476-21.642V478.528z"/>
	</g>
</g>
<g>
	<g>
		<path d="M474.224,131.276H37.777c-4.2,0-7.604,3.405-7.604,7.604s3.404,7.604,7.604,7.604h436.446c4.2,0,7.604-3.405,7.604-7.604
			S478.424,131.276,474.224,131.276z"/>
	</g>
</g>
<g>
	<g>
		<path d="M474.224,263.579H37.777c-4.2,0-7.604,3.405-7.604,7.604c0,4.199,3.404,7.604,7.604,7.604h436.446
			c4.2,0,7.604-3.405,7.604-7.604C481.828,266.984,478.424,263.579,474.224,263.579z"/>
	</g>
</g>
<g>
	<g>
		<path d="M474.224,197.429H37.777c-4.2,0-7.604,3.405-7.604,7.604s3.404,7.604,7.604,7.604h436.446c4.2,0,7.604-3.405,7.604-7.604
			S478.424,197.429,474.224,197.429z"/>
	</g>
</g>
<g>
	<g>
		<path d="M474.224,329.731H37.777c-4.2,0-7.604,3.405-7.604,7.604s3.404,7.604,7.604,7.604h436.446c4.2,0,7.604-3.405,7.604-7.604
			S478.424,329.731,474.224,329.731z"/>
	</g>
</g>
<g>
</g>
<g>
</g>
<g>
</g>
<g>
</g>
<g>
</g>
<g>
</g>
<g>
</g>
<g>
</g>
<g>
</g>
<g>
</g>
<g>
</g>
<g>
</g>
<g>
</g>
<g>
</g>
<g>
</g>
</svg>
