<?xml version="1.0" encoding="iso-8859-1"?>
<!-- Generator: Adobe Illustrator 19.0.0, SVG Export Plug-In . SVG Version: 6.00 Build 0)  -->
<svg version="1.1" id="Capa_1" xmlns="http://www.w3.org/2000/svg" xmlns:xlink="http://www.w3.org/1999/xlink" x="0px" y="0px"
	 viewBox="0 0 512 512" style="enable-background:new 0 0 512 512;" xml:space="preserve">
<g>
	<g>
		<path d="M511.444,415.071l-35.305-243.529c-3.794-26.159-26.587-45.886-53.019-45.886H137.546L450.127,23.744
			c4.06-1.324,6.279-5.689,4.956-9.749c-1.324-4.06-5.689-6.28-9.75-4.956L87.557,125.687
			c-25.865,0.646-47.967,20.134-51.695,45.855l-2.302,15.881c-0.612,4.227,2.317,8.15,6.543,8.762s8.15-2.317,8.763-6.543
			l2.712-18.707c2.639-18.203,18.943-31.24,37.282-29.812l0.02,0.001c0.008,0,0.018-0.002,0.026-0.002h334.216
			c18.933,0,34.996,13.901,37.712,32.639l35.305,243.529c1.95,13.448-3.383,27.09-14.458,35.666
			c-6.806,5.27-15.289,7.908-23.898,7.908H387.04H211.474c-4.271,0-7.733,3.462-7.733,7.733s3.462,7.733,7.733,7.733h167.833v19.281
			c0,4.271,3.462,7.733,7.733,7.733h71.385c4.271,0,7.733-3.462,7.733-7.733v-19.857c12.642-1.842,24.298-8.143,32.775-17.937
			C509.116,446.051,513.677,430.471,511.444,415.071z M450.692,487.877h-55.919V476.33h55.919V487.877z"/>
	</g>
</g>
<g>
	<g>
		<path d="M385.867,184.487H246.586c-4.271,0-7.733,3.462-7.733,7.733s3.462,7.733,7.733,7.733h139.281
			c4.272,0,7.733-3.462,7.733-7.733S390.139,184.487,385.867,184.487z"/>
	</g>
</g>
<g>
	<g>
		<path d="M385.867,402.039H246.586c-4.271,0-7.733,3.462-7.733,7.733s3.462,7.733,7.733,7.733h139.281
			c4.272,0,7.733-3.462,7.733-7.733S390.139,402.039,385.867,402.039z"/>
	</g>
</g>
<g>
	<g>
		<path d="M423.09,365.775H209.363c-4.271,0-7.733,3.462-7.733,7.733s3.462,7.733,7.733,7.733H423.09
			c4.272,0,7.733-3.462,7.733-7.733S427.362,365.775,423.09,365.775z"/>
	</g>
</g>
<g>
	<g>
		<path d="M440.196,329.522H192.257c-4.271,0-7.733,3.462-7.733,7.733c0,4.271,3.462,7.733,7.733,7.733h247.939
			c4.272,0,7.733-3.462,7.733-7.733C447.93,332.984,444.468,329.522,440.196,329.522z"/>
	</g>
</g>
<g>
	<g>
		<path d="M445.362,293.258h-258.27c-4.271,0-7.733,3.462-7.733,7.733s3.462,7.733,7.733,7.733h258.27
			c4.272,0,7.733-3.462,7.733-7.733S449.634,293.258,445.362,293.258z"/>
	</g>
</g>
<g>
	<g>
		<path d="M440.207,257.004H192.247c-4.271,0-7.733,3.462-7.733,7.733c0,4.271,3.462,7.733,7.733,7.733h247.959
			c4.272,0,7.733-3.462,7.733-7.733C447.94,260.467,444.478,257.004,440.207,257.004z"/>
	</g>
</g>
<g>
	<g>
		<path d="M423.09,220.74H209.363c-4.271,0-7.733,3.462-7.733,7.733s3.462,7.733,7.733,7.733H423.09
			c4.272,0,7.733-3.462,7.733-7.733S427.362,220.74,423.09,220.74z"/>
	</g>
</g>
<g>
	<g>
		<path d="M114.134,181.654c-21.32,0-38.665,17.345-38.665,38.665c0,21.32,17.345,38.665,38.665,38.665
			c21.32,0,38.665-17.345,38.665-38.665C152.799,198.999,135.454,181.654,114.134,181.654z M114.135,243.518
			c-12.792,0-23.199-10.407-23.199-23.199c0-12.792,10.407-23.199,23.199-23.199c12.792,0,23.199,10.407,23.199,23.199
			C137.334,233.111,126.927,243.518,114.135,243.518z"/>
	</g>
</g>
<g>
	<g>
		<path d="M107.175,271.356c-25.157,0-45.624,20.467-45.624,45.624c0,25.158,20.467,45.625,45.624,45.625
			c25.157,0,45.624-20.467,45.624-45.625C152.799,291.823,132.332,271.356,107.175,271.356z M107.175,347.139
			c-16.629,0-30.158-13.529-30.158-30.159c0-16.629,13.528-30.158,30.158-30.158c16.629,0,30.158,13.529,30.158,30.158
			C137.333,333.61,123.804,347.139,107.175,347.139z"/>
	</g>
</g>
<g>
	<g>
		<path d="M175.385,460.863H124.96H54.213v0c-8.61,0-17.095-2.64-23.9-7.913c-11.07-8.578-16.4-22.215-14.451-35.66l27.895-192.42
			c0.612-4.227-2.317-8.15-6.543-8.762s-8.15,2.317-8.763,6.543L0.556,415.071c-2.233,15.399,2.327,30.979,12.509,42.745
			c8.477,9.794,20.132,16.096,32.776,17.937v19.857c0,4.271,3.462,7.733,7.733,7.733h71.386c4.271,0,7.733-3.462,7.733-7.733V476.33
			h42.691c4.271,0,7.733-3.462,7.733-7.733S179.655,460.863,175.385,460.863z M117.227,487.877h-55.92V476.33h55.92V487.877z"/>
	</g>
</g>
<g>
</g>
<g>
</g>
<g>
</g>
<g>
</g>
<g>
</g>
<g>
</g>
<g>
</g>
<g>
</g>
<g>
</g>
<g>
</g>
<g>
</g>
<g>
</g>
<g>
</g>
<g>
</g>
<g>
</g>
</svg>
