<?xml version="1.0" encoding="iso-8859-1"?>
<!-- Generator: Adobe Illustrator 19.0.0, SVG Export Plug-In . SVG Version: 6.00 Build 0)  -->
<svg version="1.1" id="Capa_1" xmlns="http://www.w3.org/2000/svg" xmlns:xlink="http://www.w3.org/1999/xlink" x="0px" y="0px"
	 viewBox="0 0 512 512" style="enable-background:new 0 0 512 512;" xml:space="preserve">
<g>
	<g>
		<path d="M504.396,0H7.604C3.405,0,0,3.405,0,7.604v496.792C0,508.595,3.405,512,7.604,512h496.792c4.2,0,7.604-3.405,7.604-7.604
			V7.604C512,3.405,508.596,0,504.396,0z M496.792,496.792H15.208V15.208h481.584V496.792z"/>
	</g>
</g>
<g>
	<g>
		<path d="M473.841,30.557H38.155c-4.199,0-7.604,3.405-7.604,7.604v435.687c0,4.199,3.405,7.604,7.604,7.604h435.687
			c4.2,0,7.604-3.405,7.604-7.604V38.161C481.445,33.961,478.042,30.557,473.841,30.557z M263.607,154.684H298.2l-34.593,41.571
			V154.684z M183.181,248.395l-28.503-51.089v-42.622H248.4v59.847l-28.18,33.864H183.181z M207.565,263.603l-9.518,11.438
			l-6.381-11.438H207.565z M154.678,45.765h93.721v93.711h-93.721V45.765z M139.47,45.765v93.711h-17.055L70.134,45.765H139.47z
			 M139.47,154.684v15.362l-8.57-15.362H139.47z M45.759,116.939l12.518,22.537H45.759V116.939z M45.759,154.684h20.965
			l52.049,93.711H45.759V154.684z M139.47,357.314h-13.141c-4.199,0-7.604,3.405-7.604,7.604c0,4.199,3.405,7.604,7.604,7.604
			h13.141v93.721H45.759v-93.721h45.084c4.199,0,7.604-3.405,7.604-7.604c0-4.199-3.405-7.604-7.604-7.604H45.759v-93.711h81.46
			l12.252,22.06V357.314z M248.399,466.243h-93.721v-93.721h93.721V466.243z M154.678,357.314L154.678,357.314v-44.271
			l24.588,44.271H154.678z M248.399,357.314h-46.266l46.266-55.599V357.314z M357.318,466.243h-93.711v-93.721h93.711V466.243z
			 M357.318,357.314h-93.711v-73.875l16.507-19.836h46.048l31.157,52.499V357.314z M292.769,248.395l14.223-17.093l10.144,17.093
			H292.769z M372.525,466.243v-93.721h0.001h18.276l55.621,93.721H372.525z M372.526,357.314v-15.587l9.25,15.587H372.526z
			 M466.238,466.243h-2.128L314.574,214.282c-1.26-2.124-3.475-3.504-5.936-3.7c-2.471-0.192-4.867,0.818-6.446,2.716
			L190.933,346.999L45.759,85.617V45.765h6.961l137.443,246.362c1.221,2.189,3.442,3.635,5.937,3.867
			c2.499,0.232,4.945-0.782,6.548-2.707l110.944-133.322l152.647,259.611V466.243z M328.13,154.684h29.188v49.642L328.13,154.684z
			 M466.238,389.572l-10.025-17.05h10.025V389.572z M466.238,357.314h-18.967l-55.099-93.711h74.067V357.314z M466.238,248.395
			h-83.009l-10.703-18.205v-75.506h0h93.712V248.395z M466.238,139.476h-93.712v-37.089c0-4.199-3.405-7.604-7.604-7.604
			s-7.604,3.405-7.604,7.604v37.089h-93.711V45.765h93.711V66.9c0,4.199,3.405,7.604,7.604,7.604s7.604-3.405,7.604-7.604V45.765
			h93.712V139.476z"/>
	</g>
</g>
<g>
</g>
<g>
</g>
<g>
</g>
<g>
</g>
<g>
</g>
<g>
</g>
<g>
</g>
<g>
</g>
<g>
</g>
<g>
</g>
<g>
</g>
<g>
</g>
<g>
</g>
<g>
</g>
<g>
</g>
</svg>
