<?xml version="1.0" encoding="iso-8859-1"?>
<!-- Generator: Adobe Illustrator 19.0.0, SVG Export Plug-In . SVG Version: 6.00 Build 0)  -->
<svg version="1.1" id="Capa_1" xmlns="http://www.w3.org/2000/svg" xmlns:xlink="http://www.w3.org/1999/xlink" x="0px" y="0px"
	 viewBox="0 0 511.999 511.999" style="enable-background:new 0 0 511.999 511.999;" xml:space="preserve">
<g>
	<g>
		<path d="M475.688,92.156H289.599l62.426-79.869c2.586-3.309,2-8.088-1.309-10.674c-3.309-2.586-8.089-1.999-10.674,1.309
			l-69.746,89.234h-26.48L174.07,2.922c-2.585-3.309-7.365-3.895-10.674-1.309c-3.309,2.586-3.894,7.365-1.309,10.674l62.426,79.869
			h-91.696c-4.199,0-7.604,3.405-7.604,7.604s3.405,7.604,7.604,7.604h342.869c5.511,0,9.979,4.468,9.979,9.979v269.898
			c0,5.511-4.468,9.979-9.979,9.979H36.308c-5.511,0-9.979-4.468-9.979-9.979V117.343c0-5.511,4.468-9.979,9.979-9.979h61.025
			c4.199,0,7.604-3.405,7.604-7.604s-3.405-7.604-7.604-7.604H36.309c-13.911,0-25.187,11.277-25.187,25.187v269.898
			c0,13.911,11.277,25.187,25.187,25.187h89.187l-13.53,90.846c-0.454,3.045,0.969,6.154,3.815,7.766
			c1.184,0.671,2.549,0.958,3.91,0.958h36.87c2.88,0,5.513-1.627,6.801-4.203l47.683-95.367h89.908l47.683,95.367
			c1.288,2.576,3.921,4.203,6.801,4.203h36.87c1.361,0,2.726-0.287,3.91-0.958c2.845-1.612,4.269-4.722,3.815-7.766l-13.53-90.846
			h89.187c13.911,0,25.187-11.277,25.187-25.187V117.343C500.874,103.433,489.598,92.156,475.688,92.156z M151.859,496.792h-23.554
			l12.565-84.362h53.17L151.859,496.792z M360.136,496.792l-42.181-84.362h53.171l12.564,84.362H360.136z"/>
	</g>
</g>
<g>
	<g>
		<path d="M331.77,126.1H104.243c-35.042,0-63.448,28.406-63.448,63.448v125.669c0,34.939,28.463,63.364,63.448,63.364h146.181
			c4.199,0,7.604-3.405,7.604-7.604s-3.405-7.604-7.604-7.604H104.243c-26.6,0-48.24-21.602-48.24-48.156V189.548
			c0-26.642,21.598-48.24,48.24-48.24h227.528c26.553,0,48.156,21.641,48.156,48.24v125.67
			c-0.001,26.596-21.562,48.156-48.157,48.156h-45.86c-4.199,0-7.604,3.405-7.604,7.604s3.405,7.604,7.604,7.604h45.86
			c34.994,0,63.364-28.369,63.364-63.364v-125.67C395.134,154.563,366.709,126.1,331.77,126.1z"/>
	</g>
</g>
<g>
	<g>
		<path d="M460.8,298.856h-39.541c-4.199,0-7.604,3.405-7.604,7.604s3.405,7.604,7.604,7.604H460.8c4.199,0,7.604-3.405,7.604-7.604
			S464.999,298.856,460.8,298.856z"/>
	</g>
</g>
<g>
	<g>
		<path d="M460.8,266.919h-39.541c-4.199,0-7.604,3.405-7.604,7.604s3.405,7.604,7.604,7.604H460.8c4.199,0,7.604-3.405,7.604-7.604
			S464.999,266.919,460.8,266.919z"/>
	</g>
</g>
<g>
	<g>
		<path d="M460.8,330.792h-39.541c-4.199,0-7.604,3.405-7.604,7.604S417.06,346,421.259,346H460.8c4.199,0,7.604-3.405,7.604-7.604
			S464.999,330.792,460.8,330.792z"/>
	</g>
</g>
<g>
	<g>
		<path d="M468.631,171.896c-7.372-7.373-17.174-11.433-27.6-11.433s-20.229,4.061-27.601,11.433
			c-7.373,7.372-11.432,17.174-11.432,27.6s4.059,20.229,11.432,27.601c7.372,7.373,17.174,11.432,27.601,11.432
			c10.427,0,20.229-4.06,27.6-11.432c7.373-7.373,11.433-17.174,11.433-27.601C480.064,189.07,476.004,179.268,468.631,171.896z
			 M457.877,216.345c-4.499,4.5-10.483,6.978-16.847,6.978s-12.348-2.478-16.847-6.978c-4.5-4.501-6.978-10.483-6.978-16.847
			c0-6.364,2.478-12.347,6.978-16.847c4.5-4.5,10.483-6.978,16.847-6.978c3.738,0,7.341,0.862,10.593,2.479l-6.651,6.651
			c-2.97,2.97-2.97,7.783,0,10.753c1.484,1.485,3.431,2.227,5.377,2.227c1.946,0,3.892-0.742,5.376-2.227l6.651-6.651
			c1.618,3.252,2.479,6.856,2.479,10.594C464.856,205.861,462.377,211.844,457.877,216.345z"/>
	</g>
</g>
<g>
</g>
<g>
</g>
<g>
</g>
<g>
</g>
<g>
</g>
<g>
</g>
<g>
</g>
<g>
</g>
<g>
</g>
<g>
</g>
<g>
</g>
<g>
</g>
<g>
</g>
<g>
</g>
<g>
</g>
</svg>
