<?xml version="1.0" encoding="iso-8859-1"?>
<!-- Generator: Adobe Illustrator 19.0.0, SVG Export Plug-In . SVG Version: 6.00 Build 0)  -->
<svg version="1.1" id="Capa_1" xmlns="http://www.w3.org/2000/svg" xmlns:xlink="http://www.w3.org/1999/xlink" x="0px" y="0px"
	 viewBox="0 0 512 512" style="enable-background:new 0 0 512 512;" xml:space="preserve">
<g>
	<g>
		<path d="M504.396,0H7.604C3.405,0,0,3.405,0,7.604v496.792C0,508.595,3.405,512,7.604,512h496.792
			c4.199,0,7.604-3.405,7.604-7.604V7.604C512,3.405,508.596,0,504.396,0z M496.792,496.792H15.208V15.208h481.584V496.792z"/>
	</g>
</g>
<g>
	<g>
		<path d="M473.845,30.557H38.159c-4.199,0-7.604,3.405-7.604,7.604v435.687c0,4.2,3.405,7.604,7.604,7.604h359.39
			c4.199,0,7.604-3.405,7.604-7.604c0-4.199-3.405-7.604-7.604-7.604H372.53v-93.721h93.711v93.721h-33.207
			c-4.199,0-7.604,3.405-7.604,7.604c0,4.199,3.405,7.604,7.604,7.604h40.811c4.199,0,7.604-3.405,7.604-7.604V38.161
			C481.449,33.961,478.045,30.557,473.845,30.557z M372.53,45.765h69.336l-52.281,93.711H372.53V45.765z M372.53,154.684h8.57
			l-8.57,15.362V154.684z M154.682,45.765h93.711v22.657c0,4.199,3.405,7.604,7.604,7.604c4.199,0.001,7.604-3.404,7.604-7.603
			V45.765h93.721v93.711h-93.721v-35.567c0-4.199-3.405-7.604-7.604-7.604c-4.199,0-7.604,3.405-7.604,7.604v35.567h-93.711V45.765z
			 M291.78,248.395l-28.179-33.863v-59.848h93.721v42.622l-28.503,51.089H291.78z M320.336,263.603l-6.381,11.438l-9.518-11.438
			H320.336z M248.393,154.684v41.572l-34.595-41.572H248.393z M154.682,154.684h29.189l-29.189,49.643V154.684z M45.763,45.765
			h93.711v93.711H45.763V45.765z M45.763,154.684h93.711v75.508l-10.703,18.203H45.763V154.684z M45.763,263.603h74.067
			L64.73,357.314H45.763V263.603z M55.788,372.522l-10.024,17.049v-17.049H55.788z M139.474,466.243H65.576l55.622-93.721h18.276
			V466.243z M139.474,357.314h-9.25l9.25-15.587V357.314z M248.393,466.243h-93.711v-93.721h93.711V466.243z M248.393,357.314
			h-93.711v-41.212l31.157-52.499h46.049l16.506,19.835V357.314z M194.864,248.395l10.145-17.093l14.223,17.093H194.864z
			 M357.322,466.243h-93.721v-93.721h93.721V466.243z M263.601,357.314v-55.599l46.266,55.599H263.601z M357.322,357.314h-24.588v0
			l24.588-44.271V357.314z M321.068,346.999L209.81,213.298c-1.581-1.899-3.991-2.908-6.446-2.716
			c-2.463,0.196-4.676,1.576-5.937,3.699L47.892,466.243h-2.128v-46.666l152.645-259.612l110.944,133.322
			c1.603,1.926,4.056,2.938,6.548,2.707c2.495-0.232,4.716-1.678,5.937-3.867L459.28,45.765h6.961v39.852L321.068,346.999z
			 M466.241,357.314H372.53v-71.652l12.251-22.06h81.46V357.314z M466.241,248.395h-73.013l52.049-93.711h20.965V248.395z
			 M466.242,139.476h-12.518l12.518-22.537V139.476z"/>
	</g>
</g>
<g>
</g>
<g>
</g>
<g>
</g>
<g>
</g>
<g>
</g>
<g>
</g>
<g>
</g>
<g>
</g>
<g>
</g>
<g>
</g>
<g>
</g>
<g>
</g>
<g>
</g>
<g>
</g>
<g>
</g>
</svg>
