<?xml version="1.0" encoding="iso-8859-1"?>
<!-- Generator: Adobe Illustrator 19.0.0, SVG Export Plug-In . SVG Version: 6.00 Build 0)  -->
<svg version="1.1" id="Capa_1" xmlns="http://www.w3.org/2000/svg" xmlns:xlink="http://www.w3.org/1999/xlink" x="0px" y="0px"
	 viewBox="0 0 512 512" style="enable-background:new 0 0 512 512;" xml:space="preserve">
<g>
	<g>
		<path d="M479.775,219.207v-99.492c0-4.195-3.401-7.597-7.597-7.597h-22.02V45.581c0-4.195-3.401-7.597-7.597-7.597h-234.37
			c-4.195,0-7.597,3.401-7.597,7.597v66.537h-22.026c-4.195,0-7.597,3.401-7.597,7.597v53.31h-63.777
			c-11.274-12.437-27.549-20.262-45.618-20.262C27.623,152.763,0,180.385,0,214.338v198.103c0,33.953,27.623,61.575,61.575,61.575
			h415.971c18.998,0,34.454-15.456,34.454-34.455v-185.98C512,235.332,497.737,220.36,479.775,219.207z M450.157,127.312h14.424
			v91.812h-14.424V127.312z M186.164,127.312h14.43v91.812h-14.43V127.312z M144.65,458.823h-42.642
			c12.942-11.297,21.143-27.894,21.143-46.382v-38.49c0-4.195-3.401-7.597-7.597-7.597c-4.196,0-7.598,3.401-7.598,7.597v37.712
			c0,25.397-20.093,46.67-45.486,47.151c-25.983,0.492-47.277-20.5-47.277-46.374V215.117c0-25.398,20.093-46.67,45.486-47.152
			c25.983-0.492,47.277,20.5,47.277,46.374v124.159c0,4.195,3.401,7.597,7.597,7.597c4.195,0,7.597-3.401,7.597-7.597v-124.16
			c0-9.335-2.098-18.185-5.831-26.12h53.651v30.989c-17.96,1.156-32.22,16.126-32.22,34.374v185.981
			C138.75,446.69,140.927,453.321,144.65,458.823z M496.807,439.562L496.807,439.562c-0.001,10.638-8.625,19.261-19.262,19.261
			H173.204c-10.637,0-19.26-8.623-19.26-19.26V253.582c0-10.638,8.623-19.26,19.26-19.26h152.171v-0.003h43.323
			c4.195,0,7.597-3.401,7.597-7.597s-3.401-7.597-7.597-7.597H215.787V53.177h219.177v165.947h-30.812
			c-4.195,0-7.597,3.401-7.597,7.597s3.401,7.597,7.597,7.597h19.888v0.003h53.507c10.638,0,19.26,8.623,19.26,19.26V439.562z"/>
	</g>
</g>
<g>
	<g>
		<path d="M405.779,73.909H244.971c-4.195,0-7.597,3.401-7.597,7.597s3.401,7.597,7.597,7.597h160.808
			c4.195,0,7.597-3.401,7.597-7.597S409.975,73.909,405.779,73.909z"/>
	</g>
</g>
<g>
	<g>
		<path d="M405.779,150.322H244.971c-4.195,0-7.597,3.401-7.597,7.597c0,4.195,3.401,7.597,7.597,7.597h160.808
			c4.195,0,7.597-3.401,7.597-7.597C413.376,153.723,409.975,150.322,405.779,150.322z"/>
	</g>
</g>
<g>
	<g>
		<path d="M405.779,188.527H244.971c-4.195,0-7.597,3.401-7.597,7.597s3.401,7.597,7.597,7.597h160.808
			c4.195,0,7.597-3.4,7.597-7.597C413.376,191.928,409.975,188.527,405.779,188.527z"/>
	</g>
</g>
<g>
	<g>
		<path d="M405.779,112.116H244.971c-4.195,0-7.597,3.401-7.597,7.597s3.401,7.597,7.597,7.597h160.808
			c4.195,0,7.597-3.401,7.597-7.597S409.975,112.116,405.779,112.116z"/>
	</g>
</g>
<g>
	<g>
		<path d="M471.919,251.795H340.002c-4.195,0-7.597,3.401-7.597,7.597v59.686c0,4.195,3.401,7.597,7.597,7.597h131.916
			c4.195,0,7.597-3.401,7.597-7.597v-59.686C479.515,255.196,476.114,251.795,471.919,251.795z M464.322,311.481H347.599v-44.493
			h116.723V311.481z"/>
	</g>
</g>
<g>
	<g>
		<path d="M363.574,340.562h-23.571c-4.195,0-7.597,3.401-7.597,7.597s3.401,7.597,7.597,7.597h23.571
			c4.195,0,7.597-3.401,7.597-7.597S367.769,340.562,363.574,340.562z"/>
	</g>
</g>
<g>
	<g>
		<path d="M471.919,340.609h-23.571c-4.195,0-7.597,3.401-7.597,7.597s3.401,7.597,7.597,7.597h23.571
			c4.195,0,7.597-3.401,7.597-7.597S476.114,340.609,471.919,340.609z"/>
	</g>
</g>
<g>
	<g>
		<path d="M417.747,340.516h-23.571c-4.195,0-7.597,3.401-7.597,7.597s3.401,7.597,7.597,7.597h23.571
			c4.195,0,7.597-3.401,7.597-7.597S421.942,340.516,417.747,340.516z"/>
	</g>
</g>
<g>
	<g>
		<path d="M363.574,369.078h-23.571c-4.195,0-7.597,3.401-7.597,7.597s3.401,7.597,7.597,7.597h23.571
			c4.195,0,7.597-3.401,7.597-7.597S367.769,369.078,363.574,369.078z"/>
	</g>
</g>
<g>
	<g>
		<path d="M471.919,369.125h-23.571c-4.195,0-7.597,3.401-7.597,7.597s3.401,7.597,7.597,7.597h23.571
			c4.195,0,7.597-3.401,7.597-7.597S476.114,369.125,471.919,369.125z"/>
	</g>
</g>
<g>
	<g>
		<path d="M417.747,369.032h-23.571c-4.195,0-7.597,3.401-7.597,7.597s3.401,7.597,7.597,7.597h23.571
			c4.195,0,7.597-3.401,7.597-7.597S421.942,369.032,417.747,369.032z"/>
	</g>
</g>
<g>
	<g>
		<path d="M363.574,397.594h-23.571c-4.195,0-7.597,3.401-7.597,7.597s3.401,7.597,7.597,7.597h23.571
			c4.195,0,7.597-3.401,7.597-7.597S367.769,397.594,363.574,397.594z"/>
	</g>
</g>
<g>
	<g>
		<path d="M471.919,397.64h-23.571c-4.195,0-7.597,3.401-7.597,7.597s3.401,7.597,7.597,7.597h23.571
			c4.195,0,7.597-3.401,7.597-7.597S476.114,397.64,471.919,397.64z"/>
	</g>
</g>
<g>
	<g>
		<path d="M417.747,397.546h-23.571c-4.195,0-7.597,3.401-7.597,7.597c0,4.195,3.401,7.597,7.597,7.597h23.571
			c4.195,0,7.597-3.401,7.597-7.597C425.343,400.948,421.942,397.546,417.747,397.546z"/>
	</g>
</g>
<g>
	<g>
		<path d="M363.574,426.109h-23.571c-4.195,0-7.597,3.401-7.597,7.597s3.401,7.597,7.597,7.597h23.571
			c4.195,0,7.597-3.401,7.597-7.597S367.769,426.109,363.574,426.109z"/>
	</g>
</g>
<g>
	<g>
		<path d="M471.919,426.156h-23.571c-4.195,0-7.597,3.401-7.597,7.597s3.401,7.597,7.597,7.597h23.571
			c4.195,0,7.597-3.401,7.597-7.597S476.114,426.156,471.919,426.156z"/>
	</g>
</g>
<g>
	<g>
		<path d="M417.747,426.062h-23.571c-4.195,0-7.597,3.401-7.597,7.597c0,4.195,3.401,7.597,7.597,7.597h23.571
			c4.195,0,7.597-3.401,7.597-7.597C425.343,429.464,421.942,426.062,417.747,426.062z"/>
	</g>
</g>
<g>
</g>
<g>
</g>
<g>
</g>
<g>
</g>
<g>
</g>
<g>
</g>
<g>
</g>
<g>
</g>
<g>
</g>
<g>
</g>
<g>
</g>
<g>
</g>
<g>
</g>
<g>
</g>
<g>
</g>
</svg>
