<?xml version="1.0" encoding="iso-8859-1"?>
<!-- Generator: Adobe Illustrator 19.0.0, SVG Export Plug-In . SVG Version: 6.00 Build 0)  -->
<svg version="1.1" id="Capa_1" xmlns="http://www.w3.org/2000/svg" xmlns:xlink="http://www.w3.org/1999/xlink" x="0px" y="0px"
	 viewBox="0 0 511.999 511.999" style="enable-background:new 0 0 511.999 511.999;" xml:space="preserve">
<g>
	<g>
		<path d="M429.488,173.398H82.512c-4.2,0-7.603,3.404-7.603,7.603v117.724c0,4.199,3.403,7.603,7.603,7.603h346.975
			c4.2,0,7.603-3.404,7.603-7.603V181.001h0.001C437.091,176.802,433.688,173.398,429.488,173.398z M90.115,291.122V188.603h331.77
			v102.518H90.115z"/>
	</g>
</g>
<g>
	<g>
		<path d="M436.453,105.149H309.147c-11.111,0-21.909,3.684-30.703,10.476l-23.1,17.84c-6.132,4.736-13.661,7.305-21.409,7.305
			H122.742c-4.199,0-7.603,3.404-7.603,7.603s3.404,7.603,7.603,7.603h111.192c11.051,0,21.955-3.72,30.702-10.475l23.1-17.84
			c6.132-4.736,13.662-7.305,21.409-7.305h127.305c8.71,0,15.77,7.06,15.77,15.77v239.753c0,8.709-7.06,15.769-15.769,15.769
			h-78.531c-4.199,0-7.603,3.404-7.603,7.603s3.404,7.603,7.603,7.603h78.531c17.107,0,30.976-13.868,30.976-30.976V136.123
			C467.428,119.016,453.56,105.149,436.453,105.149z"/>
	</g>
</g>
<g>
	<g>
		<path d="M322.441,391.646H75.547c-8.71,0-15.769-7.06-15.769-15.769V171.744c0-8.71,7.06-15.77,15.77-15.77h11.715
			c4.199,0,7.603-3.404,7.603-7.603s-3.404-7.603-7.603-7.603H75.547c-17.107,0-30.976,13.868-30.976,30.976v204.133
			c0,17.107,13.867,30.974,30.975,30.974h246.895c4.199,0,7.603-3.404,7.603-7.603S326.639,391.646,322.441,391.646z"/>
	</g>
</g>
<g>
	<g>
		<path d="M446.38,60.782H65.62C29.437,60.782,0,90.219,0,126.402v259.195c0,36.183,29.437,65.62,65.62,65.62h380.76
			c36.183,0,65.62-29.437,65.62-65.62V126.402C512,90.219,482.563,60.782,446.38,60.782z M446.38,436.012H65.62
			c-27.798,0-50.414-22.616-50.414-50.414V126.402c0-27.799,22.617-50.414,50.414-50.414h380.76
			c27.799,0,50.414,22.617,50.414,50.414v259.196h0.001C496.795,413.397,474.178,436.012,446.38,436.012z"/>
	</g>
</g>
<g>
	<g>
		<path d="M123.457,319.362h-22.355c-14.443,0-26.193,11.75-26.193,26.193c0,14.443,11.75,26.193,26.193,26.193h22.355
			c14.443,0,26.193-11.75,26.193-26.193C149.65,331.112,137.9,319.362,123.457,319.362z M123.457,356.542h-22.355
			c-6.059,0-10.987-4.929-10.987-10.987c0-6.059,4.929-10.987,10.987-10.987h22.355c6.059,0,10.987,4.929,10.987,10.987
			C134.445,351.614,129.516,356.542,123.457,356.542z"/>
	</g>
</g>
<g>
	<g>
		<path d="M315.084,319.362h-22.355c-14.443,0-26.193,11.75-26.193,26.193c0,14.443,11.75,26.193,26.193,26.193h22.355
			c14.443,0,26.193-11.75,26.193-26.193C341.277,331.112,329.527,319.362,315.084,319.362z M315.084,356.542h-22.355
			c-6.059,0-10.987-4.929-10.987-10.987s4.929-10.987,10.987-10.987h22.355c6.059,0,10.987,4.929,10.987,10.987
			S321.143,356.542,315.084,356.542z"/>
	</g>
</g>
<g>
	<g>
		<path d="M219.271,319.362h-22.354c-14.443,0-26.193,11.75-26.193,26.193c0,14.443,11.75,26.193,26.193,26.193h22.354
			c14.443,0,26.193-11.75,26.193-26.193C245.464,331.112,233.714,319.362,219.271,319.362z M219.27,356.542h-22.354
			c-6.059,0-10.987-4.929-10.987-10.987c0-6.059,4.929-10.987,10.987-10.987h22.354c6.059,0,10.987,4.929,10.987,10.987
			C230.257,351.614,225.329,356.542,219.27,356.542z"/>
	</g>
</g>
<g>
	<g>
		<path d="M410.898,319.362h-22.355c-14.443,0-26.193,11.75-26.193,26.193c0,14.443,11.75,26.193,26.193,26.193h22.355
			c14.443,0,26.193-11.75,26.193-26.193C437.091,331.112,425.341,319.362,410.898,319.362z M410.898,356.542h-22.355
			c-6.059,0-10.987-4.929-10.987-10.987s4.929-10.987,10.987-10.987h22.355c6.059,0,10.987,4.929,10.987,10.987
			S416.956,356.542,410.898,356.542z"/>
	</g>
</g>
<g>
</g>
<g>
</g>
<g>
</g>
<g>
</g>
<g>
</g>
<g>
</g>
<g>
</g>
<g>
</g>
<g>
</g>
<g>
</g>
<g>
</g>
<g>
</g>
<g>
</g>
<g>
</g>
<g>
</g>
</svg>
