<?xml version="1.0" encoding="iso-8859-1"?>
<!-- Generator: Adobe Illustrator 19.0.0, SVG Export Plug-In . SVG Version: 6.00 Build 0)  -->
<svg version="1.1" id="Capa_1" xmlns="http://www.w3.org/2000/svg" xmlns:xlink="http://www.w3.org/1999/xlink" x="0px" y="0px"
	 viewBox="0 0 512.001 512.001" style="enable-background:new 0 0 512.001 512.001;" xml:space="preserve">
<g>
	<g>
		<path d="M511.411,153.719l-31.349-75.228c-0.921-2.213-2.827-3.865-5.146-4.467l-37.663-9.772
			c-12.6-3.265-25.853-6.204-39.497-8.762c-4.194-0.786-8.228,2.005-8.966,6.209c-0.724,4.128,2.011,8.071,6.131,8.844
			c13.305,2.495,26.221,5.359,38.487,8.537l33.977,8.817l24.294,58.297l-119.096-24.89l-3.62-21.439
			c-0.494-2.935-2.645-5.318-5.513-6.109c-29.592-8.172-67.749-12.673-107.438-12.673c-0.046,0-0.092,0-0.138,0
			c-39.62,0-77.73,4.5-107.326,12.673c-2.869,0.792-5.019,3.175-5.513,6.109l-3.62,21.439l-119.096,24.89l24.292-58.295
			l33.997-8.807c82.815-21.467,187.451-26.663,281.464-14.117c4.154,0.555,7.974-2.347,8.573-6.493
			c0.611-4.224-2.35-8.128-6.58-8.693C266.185,37,159.384,42.328,74.766,64.263l-37.68,9.762c-2.321,0.602-4.227,2.255-5.149,4.468
			L0.589,153.72c-0.733,1.759-0.784,3.728-0.143,5.523l12.55,35.117c1.106,3.094,4.027,5.082,7.208,5.082
			c0.497,0,1.002-0.049,1.507-0.15l119.096-23.833c3.113-0.623,5.519-3.102,6.048-6.233l10.465-61.953
			c27.607-7.029,62.354-10.875,98.557-10.875c0.044,0,0.09,0,0.135,0c36.266,0,71.062,3.85,98.67,10.876l10.465,61.953
			c0.53,3.131,2.936,5.61,6.049,6.233l119.106,23.813c3.728,0.743,7.436-1.356,8.713-4.933l12.54-35.097
			C512.195,157.449,512.144,155.479,511.411,153.719z M132.631,161.475l-107.438,21.5l-7.367-20.613l118.849-24.839L132.631,161.475
			z M486.816,182.956l-107.448-21.483l-4.045-23.951l118.85,24.839L486.816,182.956z"/>
	</g>
</g>
<g>
	<g>
		<path d="M252.131,209.185c-49.826,0-90.361,40.535-90.361,90.361c0,49.831,40.535,90.371,90.361,90.371
			c32.097-0.001,62.055-17.253,78.18-45.019c7.976-13.702,12.191-29.384,12.191-45.352
			C342.502,249.721,301.961,209.185,252.131,209.185z M321.711,327.706l-19.141-20.497h24.222
			C326.071,314.263,324.355,321.167,321.711,327.706z M291.863,291.89c-3.59-18.662-20.036-32.807-39.73-32.807
			c-22.314,0-40.467,18.153-40.467,40.466c0,22.314,18.153,40.467,40.467,40.467c16.662,0,31-10.125,37.196-24.543l24.725,26.475
			c-13.915,20.267-37.15,32.65-61.924,32.65c-41.379,0.001-75.044-33.668-75.044-75.053c0-41.379,33.665-75.044,75.044-75.044
			c38.801,0,70.819,29.592,74.666,67.389H291.863z M277.283,299.55c0,13.867-11.282,25.15-25.149,25.15
			c-13.867,0-25.15-11.282-25.15-25.15c0-13.867,11.283-25.149,25.15-25.149C266.002,274.401,277.283,285.683,277.283,299.55z"/>
	</g>
</g>
<g>
	<g>
		<path d="M454.939,409.315h-0.024l-25.169-195.494c-0.405-3.153-2.717-5.728-5.808-6.469l-72.021-17.285l-17.285-72.021
			c-0.827-3.443-3.906-5.872-7.447-5.872h-33.495c-1.294,0-2.592,0.254-3.736,0.858c-2.774,1.463-4.305,4.351-4.109,7.31
			l3.98,59.715c-12.524-1.335-25.166-2.01-37.695-2.01c-12.524,0-25.162,0.675-37.684,2.01l3.98-59.715
			c0.197-2.959-1.334-5.847-4.109-7.31c-1.145-0.604-2.443-0.858-3.736-0.858h-33.495c-3.541,0-6.62,2.427-7.447,5.872
			l-17.285,72.021l-72.019,17.285c-3.091,0.742-5.403,3.317-5.808,6.469l-17.26,134.036c-0.54,4.195,2.422,8.033,6.617,8.573
			c4.195,0.54,8.033-2.422,8.574-6.617l16.585-128.8l71.451-17.148c2.801-0.672,4.988-2.859,5.66-5.659l16.971-70.714h19.473
			l-4.051,60.759c-0.152,2.291,0.731,4.531,2.407,6.1c1.677,1.57,3.965,2.306,6.246,2c14.865-1.981,29.98-2.986,44.928-2.986
			c14.955,0,30.075,1.005,44.939,2.986c2.279,0.306,4.571-0.431,6.246-2c1.676-1.569,2.56-3.809,2.407-6.1l-4.051-60.759h19.473
			l16.971,70.714c0.672,2.801,2.859,4.987,5.66,5.659l71.451,17.148l24.243,188.302H64.79l3.105-24.091
			c0.541-4.195-2.421-8.034-6.617-8.575c-4.195-0.54-8.033,2.422-8.575,6.617l-3.358,26.048H49.33
			c-10.228,0-18.518,8.291-18.518,18.518v33.558c0,4.23,3.429,7.659,7.659,7.659h427.327c4.23,0,7.659-3.429,7.659-7.659v-33.559
			C473.456,417.606,465.166,409.315,454.939,409.315z M458.139,453.734H46.129v-25.9c0-1.765,1.436-3.2,3.201-3.2h6.732
			c0.006,0,0.012,0.001,0.018,0.001h392.097c0.006,0,0.012-0.001,0.018-0.001h6.741c1.766,0,3.201,1.436,3.201,3.2V453.734z"/>
	</g>
</g>
<g>
</g>
<g>
</g>
<g>
</g>
<g>
</g>
<g>
</g>
<g>
</g>
<g>
</g>
<g>
</g>
<g>
</g>
<g>
</g>
<g>
</g>
<g>
</g>
<g>
</g>
<g>
</g>
<g>
</g>
</svg>
