<?xml version="1.0" encoding="iso-8859-1"?>
<!-- Generator: Adobe Illustrator 19.0.0, SVG Export Plug-In . SVG Version: 6.00 Build 0)  -->
<svg version="1.1" id="Capa_1" xmlns="http://www.w3.org/2000/svg" xmlns:xlink="http://www.w3.org/1999/xlink" x="0px" y="0px"
	 viewBox="0 0 512 512" style="enable-background:new 0 0 512 512;" xml:space="preserve">
<g>
	<g>
		<path d="M487.329,429.437h-55.422v-279.88c0-4.199-3.405-7.604-7.604-7.604c-4.199,0-7.604,3.405-7.604,7.604v279.88h-257.42
			c-4.232,0-7.579,3.461-7.585,7.693c-0.049,32.905-26.835,59.661-59.751,59.661c-15.901,0-30.875-6.216-42.181-17.523
			c-11.276-11.199-17.486-26.196-17.486-42.227v-65.967c0-4.199-3.405-7.604-7.604-7.604s-7.604,3.405-7.604,7.604v65.967
			c0,20.113,7.805,38.942,21.959,53C53.187,504.201,71.979,512,91.943,512h328.031c41.311,0,74.923-33.591,74.959-74.894
			C494.936,432.889,491.545,429.437,487.329,429.437z M419.974,496.792H137.157c16.157-12.257,27.212-30.906,29.36-52.147h257.784
			h54.94C475.496,474.015,450.344,496.792,419.974,496.792z"/>
	</g>
</g>
<g>
	<g>
		<path d="M424.302,0H24.671c-4.199,0-7.604,3.405-7.604,7.604v327.984c0,4.199,3.405,7.604,7.604,7.604
			c4.199,0,7.604-3.405,7.604-7.604V15.208h384.423v98.864c0,4.199,3.405,7.604,7.604,7.604s7.604-3.405,7.604-7.604V7.604
			C431.906,3.405,428.501,0,424.302,0z"/>
	</g>
</g>
<g>
	<g>
		<path d="M341.763,65.409h-234.55c-4.199,0-7.604,3.405-7.604,7.604s3.405,7.604,7.604,7.604h234.55c4.2,0,7.604-3.405,7.604-7.604
			S345.963,65.409,341.763,65.409z"/>
	</g>
</g>
<g>
	<g>
		<path d="M381.301,138.403H67.674c-4.199,0-7.604,3.405-7.604,7.604s3.405,7.604,7.604,7.604H381.3c4.2,0,7.604-3.405,7.604-7.604
			S385.501,138.403,381.301,138.403z"/>
	</g>
</g>
<g>
	<g>
		<path d="M381.301,196.951H67.674c-4.199,0-7.604,3.405-7.604,7.604c0,4.199,3.405,7.604,7.604,7.604H381.3
			c4.2,0,7.604-3.405,7.604-7.604C388.904,200.355,385.501,196.951,381.301,196.951z"/>
	</g>
</g>
<g>
	<g>
		<path d="M381.301,255.498H67.674c-4.199,0-7.604,3.405-7.604,7.604s3.405,7.604,7.604,7.604H381.3c4.2,0,7.604-3.405,7.604-7.604
			S385.501,255.498,381.301,255.498z"/>
	</g>
</g>
<g>
	<g>
		<path d="M381.301,314.046H67.674c-4.199,0-7.604,3.405-7.604,7.604c0,4.199,3.405,7.604,7.604,7.604H381.3
			c4.2,0,7.604-3.405,7.604-7.604C388.904,317.45,385.501,314.046,381.301,314.046z"/>
	</g>
</g>
<g>
	<g>
		<path d="M381.301,372.594H67.674c-4.199,0-7.604,3.405-7.604,7.604c0,4.199,3.405,7.604,7.604,7.604H381.3
			c4.2,0,7.604-3.405,7.604-7.604C388.904,375.999,385.501,372.594,381.301,372.594z"/>
	</g>
</g>
<g>
</g>
<g>
</g>
<g>
</g>
<g>
</g>
<g>
</g>
<g>
</g>
<g>
</g>
<g>
</g>
<g>
</g>
<g>
</g>
<g>
</g>
<g>
</g>
<g>
</g>
<g>
</g>
<g>
</g>
</svg>
