<?xml version="1.0" encoding="iso-8859-1"?>
<!-- Generator: Adobe Illustrator 19.0.0, SVG Export Plug-In . SVG Version: 6.00 Build 0)  -->
<svg version="1.1" id="Capa_1" xmlns="http://www.w3.org/2000/svg" xmlns:xlink="http://www.w3.org/1999/xlink" x="0px" y="0px"
	 viewBox="0 0 512 512" style="enable-background:new 0 0 512 512;" xml:space="preserve">
<g>
	<g>
		<path d="M427.744,168.654c4.195-0.001,7.596-3.402,7.596-7.598v-54.692h9.801c4.195,0,7.596-3.401,7.596-7.596V83.105h51.415
			c4.195,0,7.597-3.401,7.597-7.597V30.851c0-4.195-3.401-7.596-7.597-7.596h-51.415V7.597c0-4.195-3.401-7.597-7.596-7.597H66.852
			c-4.195,0-7.597,3.401-7.597,7.597v15.658H7.847c-4.195,0-7.597,3.401-7.597,7.596v44.657c0,4.195,3.401,7.597,7.597,7.597h51.409
			v15.664c0,4.195,3.401,7.597,7.597,7.597h9.807v299.269h-9.807c-4.195,0-7.597,3.401-7.597,7.597v15.658H7.847
			c-4.195,0-7.597,3.401-7.597,7.597v44.657c0,4.195,3.401,7.596,7.597,7.596h51.409v15.664c0,4.195,3.401,7.596,7.597,7.596h68.737
			c4.195,0,7.596-3.401,7.596-7.596s-3.401-7.597-7.596-7.597H74.449v-75.979h9.807h343.489h9.8v75.979H171.042
			c-4.195,0-7.597,3.401-7.597,7.597s3.401,7.596,7.597,7.596h274.099c4.195,0,7.596-3.401,7.596-7.596v-15.664h51.415
			c4.195,0,7.597-3.401,7.597-7.596v-44.657c0-4.195-3.401-7.597-7.597-7.597h-51.415v-15.658c0-4.195-3.401-7.597-7.596-7.597
			h-9.801V196.508c0-4.195-3.401-7.597-7.596-7.597c-4.195,0-7.597,3.401-7.597,7.597v209.126H91.852V106.366h328.296v54.692
			C420.148,165.253,423.549,168.654,427.744,168.654z M452.738,38.448h43.819v29.464h-43.819V38.448z M59.256,67.912H15.443V38.448
			h43.813V67.912z M59.256,473.546H15.443v-29.464h43.813V473.546z M452.738,444.082h43.819v29.464h-43.819V444.082z M84.256,91.173
			h-9.807V15.193h363.095v75.979h-9.801H84.256z"/>
	</g>
</g>
<g>
	<g>
		<path d="M386.653,132.191H125.347c-4.195,0-7.597,3.401-7.597,7.597s3.401,7.597,7.597,7.597h261.306
			c4.195,0,7.597-3.401,7.597-7.597S390.85,132.191,386.653,132.191z"/>
	</g>
</g>
<g>
	<g>
		<path d="M386.653,224.56H125.347c-4.195,0-7.597,3.401-7.597,7.597s3.401,7.596,7.597,7.596h261.306
			c4.195,0,7.597-3.401,7.597-7.596S390.85,224.56,386.653,224.56z"/>
	</g>
</g>
<g>
	<g>
		<path d="M386.653,363.114H125.347c-4.195,0-7.597,3.401-7.597,7.596s3.401,7.597,7.597,7.597h261.306
			c4.195,0,7.597-3.401,7.597-7.597S390.85,363.114,386.653,363.114z"/>
	</g>
</g>
<g>
	<g>
		<path d="M386.653,316.929H125.347c-4.195,0-7.597,3.401-7.597,7.596s3.401,7.597,7.597,7.597h261.306
			c4.195,0,7.597-3.401,7.597-7.597S390.85,316.929,386.653,316.929z"/>
	</g>
</g>
<g>
	<g>
		<path d="M386.653,178.376H125.347c-4.195,0-7.597,3.401-7.597,7.597s3.401,7.596,7.597,7.596h261.306
			c4.195,0,7.597-3.401,7.597-7.596S390.85,178.376,386.653,178.376z"/>
	</g>
</g>
<g>
	<g>
		<path d="M386.653,270.745H125.347c-4.195,0-7.597,3.401-7.597,7.597s3.401,7.596,7.597,7.596h261.306
			c4.195,0,7.597-3.401,7.597-7.596S390.85,270.745,386.653,270.745z"/>
	</g>
</g>
<g>
</g>
<g>
</g>
<g>
</g>
<g>
</g>
<g>
</g>
<g>
</g>
<g>
</g>
<g>
</g>
<g>
</g>
<g>
</g>
<g>
</g>
<g>
</g>
<g>
</g>
<g>
</g>
<g>
</g>
</svg>
