<?xml version="1.0" encoding="iso-8859-1"?>
<!-- Generator: Adobe Illustrator 19.0.0, SVG Export Plug-In . SVG Version: 6.00 Build 0)  -->
<svg version="1.1" id="Capa_1" xmlns="http://www.w3.org/2000/svg" xmlns:xlink="http://www.w3.org/1999/xlink" x="0px" y="0px"
	 viewBox="0 0 512 512" style="enable-background:new 0 0 512 512;" xml:space="preserve">
<g>
	<g>
		<path d="M504.396,49.115H7.604c-4.2,0-7.604,3.405-7.604,7.604v398.562c0,4.2,3.405,7.604,7.604,7.604h496.791
			c4.2,0,7.604-3.405,7.604-7.604V56.719C512,52.519,508.595,49.115,504.396,49.115z M15.209,150.319h43.691
			c6.931,0,12.571,5.639,12.571,12.571v186.22c0,6.931-5.639,12.571-12.571,12.571H15.209V150.319z M496.791,135.11h-43.685
			c-15.343,0-27.779,12.438-27.779,27.779v139.422c0,4.2,3.405,7.604,7.604,7.604s7.604-3.405,7.604-7.604V162.89
			c0-6.942,5.628-12.57,12.571-12.57h43.685V361.68h-43.685c-6.942,0-12.571-5.628-12.571-12.571v-11.308
			c0-4.2-3.405-7.604-7.604-7.604s-7.604,3.405-7.604,7.604v11.308c0,15.343,12.438,27.779,27.779,27.779h43.685v70.789H15.209v0
			v-70.789h43.691c15.343,0,27.779-12.438,27.779-27.779V162.89c0-15.343-12.438-27.779-27.779-27.779H15.209V64.323h481.583V135.11
			z"/>
	</g>
</g>
<g>
	<g>
		<path d="M369.664,135.111H142.336c-15.343,0-27.779,12.438-27.779,27.779v18.767c0,4.2,3.405,7.604,7.604,7.604
			c4.2,0,7.604-3.405,7.604-7.604V162.89c0-6.942,5.628-12.57,12.571-12.57h227.329c6.942,0,12.57,5.628,12.57,12.57v186.222
			c0,6.942-5.628,12.571-12.57,12.571H142.336c-6.942,0-12.571-5.628-12.571-12.571V217.146c0-4.2-3.405-7.604-7.604-7.604
			c-4.201,0-7.605,3.404-7.605,7.604v131.966c0,15.343,12.438,27.779,27.779,27.779h227.329c15.343,0,27.779-12.438,27.779-27.779
			V162.89C397.443,147.548,385.005,135.111,369.664,135.111z"/>
	</g>
</g>
<g>
	<g>
		<path d="M65.384,74.51H32.939c-4.2,0-7.604,3.405-7.604,7.604v32.445c0,4.2,3.405,7.604,7.604,7.604h32.445
			c4.2,0,7.604-3.405,7.604-7.604V82.115C72.989,77.915,69.584,74.51,65.384,74.51z M57.78,106.955H40.543V89.719H57.78V106.955z"/>
	</g>
</g>
<g>
	<g>
		<path d="M230.855,74.51H198.41c-4.2,0-7.604,3.405-7.604,7.604v32.445c0,4.2,3.404,7.604,7.604,7.604h32.445
			c4.2,0,7.604-3.405,7.604-7.604V82.115C238.46,77.915,235.055,74.51,230.855,74.51z M223.251,106.955h-17.237V89.719h17.237
			V106.955z"/>
	</g>
</g>
<g>
	<g>
		<path d="M396.326,74.51h-32.445c-4.2,0-7.604,3.405-7.604,7.604v32.445c0,4.2,3.405,7.604,7.604,7.604h32.445
			c4.2,0,7.604-3.405,7.604-7.604V82.115C403.931,77.915,400.526,74.51,396.326,74.51z M388.722,106.955h-17.237V89.719h17.237
			V106.955z"/>
	</g>
</g>
<g>
	<g>
		<path d="M148.119,74.51h-32.445c-4.2,0-7.604,3.405-7.604,7.604v32.445c0,4.2,3.405,7.604,7.604,7.604h32.445
			c4.2,0,7.604-3.405,7.604-7.604V82.115C155.723,77.915,152.319,74.51,148.119,74.51z M140.515,106.955h-17.237V89.719h17.237
			V106.955z"/>
	</g>
</g>
<g>
	<g>
		<path d="M313.591,74.51h-32.445c-4.2,0-7.604,3.405-7.604,7.604v32.445c0,4.2,3.405,7.604,7.604,7.604h32.445
			c4.2,0,7.604-3.405,7.604-7.604V82.115C321.195,77.915,317.791,74.51,313.591,74.51z M305.987,106.955H288.75V89.719h17.237
			V106.955z"/>
	</g>
</g>
<g>
	<g>
		<path d="M479.062,74.51h-32.445c-4.2,0-7.604,3.405-7.604,7.604v32.445c0,4.2,3.405,7.604,7.604,7.604h32.445
			c4.2,0,7.604-3.405,7.604-7.604V82.115C486.666,77.915,483.262,74.51,479.062,74.51z M471.458,106.955h-17.237V89.719h17.237
			V106.955z"/>
	</g>
</g>
<g>
	<g>
		<path d="M65.384,389.838H32.939c-4.2,0-7.604,3.405-7.604,7.604v32.445c0,4.2,3.405,7.604,7.604,7.604h32.445
			c4.2,0,7.604-3.405,7.604-7.604v-32.445C72.989,393.243,69.584,389.838,65.384,389.838z M57.78,422.283H40.543v-17.237H57.78
			V422.283z"/>
	</g>
</g>
<g>
	<g>
		<path d="M230.855,389.838H198.41c-4.2,0-7.604,3.405-7.604,7.604v32.445c0,4.2,3.405,7.604,7.604,7.604h32.445
			c4.2,0,7.604-3.405,7.604-7.604v-32.445C238.46,393.243,235.055,389.838,230.855,389.838z M223.251,422.283h-17.237v-17.237
			h17.237V422.283z"/>
	</g>
</g>
<g>
	<g>
		<path d="M396.326,389.838h-32.445c-4.2,0-7.604,3.405-7.604,7.604v32.445c0,4.2,3.405,7.604,7.604,7.604h32.445
			c4.2,0,7.604-3.405,7.604-7.604v-32.445C403.931,393.243,400.526,389.838,396.326,389.838z M388.722,422.283h-17.237v-17.237
			h17.237V422.283z"/>
	</g>
</g>
<g>
	<g>
		<path d="M148.119,389.838h-32.445c-4.2,0-7.604,3.405-7.604,7.604v32.445c0,4.2,3.405,7.604,7.604,7.604h32.445
			c4.2,0,7.604-3.405,7.604-7.604v-32.445C155.723,393.243,152.32,389.838,148.119,389.838z M140.515,422.283h-17.237v-17.237
			h17.237V422.283z"/>
	</g>
</g>
<g>
	<g>
		<path d="M313.591,389.838h-32.445c-4.2,0-7.604,3.405-7.604,7.604v32.445c0,4.2,3.405,7.604,7.604,7.604h32.445
			c4.2,0,7.604-3.405,7.604-7.604v-32.445C321.195,393.243,317.791,389.838,313.591,389.838z M305.987,422.283H288.75v-17.237
			h17.237V422.283z"/>
	</g>
</g>
<g>
	<g>
		<path d="M479.062,389.838h-32.445c-4.2,0-7.604,3.405-7.604,7.604v32.445c0,4.2,3.405,7.604,7.604,7.604h32.445
			c4.2,0,7.604-3.405,7.604-7.604v-32.445C486.666,393.243,483.262,389.838,479.062,389.838z M471.458,422.283h-17.237v-17.237
			h17.237V422.283z"/>
	</g>
</g>
<g>
</g>
<g>
</g>
<g>
</g>
<g>
</g>
<g>
</g>
<g>
</g>
<g>
</g>
<g>
</g>
<g>
</g>
<g>
</g>
<g>
</g>
<g>
</g>
<g>
</g>
<g>
</g>
<g>
</g>
</svg>
