<?xml version="1.0" encoding="iso-8859-1"?>
<!-- Generator: Adobe Illustrator 19.0.0, SVG Export Plug-In . SVG Version: 6.00 Build 0)  -->
<svg version="1.1" id="Capa_1" xmlns="http://www.w3.org/2000/svg" xmlns:xlink="http://www.w3.org/1999/xlink" x="0px" y="0px"
	 viewBox="0 0 511.999 511.999" style="enable-background:new 0 0 511.999 511.999;" xml:space="preserve">
<g>
	<g>
		<path d="M166.313,313.753c-20.122,0-36.491,16.37-36.491,36.491s16.371,36.491,36.491,36.491c20.122,0,36.491-16.37,36.491-36.491
			S186.434,313.753,166.313,313.753z M166.313,371.531c-11.737,0-21.286-9.549-21.286-21.286s9.55-21.286,21.286-21.286
			c11.737,0,21.286,9.549,21.286,21.286S178.05,371.531,166.313,371.531z"/>
	</g>
</g>
<g>
	<g>
		<path d="M241.834,407.252H137.425c-4.199,0-7.603,3.404-7.603,7.603c0,4.199,3.404,7.603,7.603,7.603h104.409
			c4.199,0,7.603-3.404,7.603-7.603C249.436,410.655,246.033,407.252,241.834,407.252z"/>
	</g>
</g>
<g>
	<g>
		<path d="M380.139,38.885c-36.033,0-69.952,15.806-93.146,42.838C263.775,32.346,213.655,0,158.315,0
			C79.929,0,16.157,63.777,16.157,142.168c0,35.39,13.086,69.302,36.845,95.491c13.831,15.245,30.603,27.147,49.12,35.117
			c-2.502,1.245-4.224,3.82-4.224,6.803v29.199H76.013l-54.829-39.385c-2.784-2-6.63-1.925-9.369,0.387
			c-1.75,1.478-2.669,3.721-2.669,6.012v188.01c0,2.747,1.329,5.4,3.683,6.815c1.213,0.73,2.57,1.089,3.919,1.089
			c1.563,0,3.119-0.482,4.436-1.428l54.829-39.385h21.884v29.202c0,4.199,3.404,7.603,7.603,7.603h9.48
			c4.199,0,7.603-3.404,7.603-7.603c0-4.199-3.404-7.603-7.603-7.603h-1.877V287.18h197.516c4.199,0,7.603-3.404,7.603-7.603
			c0-4.199-3.404-7.603-7.603-7.603H151.906v-37.717h232.62v37.717H346.1c-4.199,0-7.603,3.404-7.603,7.603
			c0,4.199,3.404,7.603,7.603,7.603h97.178v165.311H150.459c-4.199,0-7.603,3.404-7.603,7.603s3.404,7.603,7.603,7.603h5.582v36.7
			c0,4.199,3.404,7.603,7.603,7.603h229.091c4.199,0,7.603-3.404,7.603-7.603v-36.7h50.542c4.199,0,7.603-3.404,7.603-7.603V279.578
			c0-4.199-3.404-7.603-7.603-7.603h-17.047c13.933-6.787,26.583-16.219,37.216-27.94c20.51-22.606,31.804-51.879,31.804-82.426
			C502.855,93.94,447.804,38.885,380.139,38.885z M65.964,419.39l-41.612,29.89v-158.89l41.612,29.89V419.39z M97.894,415.687
			h-0.001H81.169v-91.703h16.725V415.687z M385.134,496.795H171.247v-29.098h213.886V496.795z M136.7,267.28
			c-27.804-4.769-53.276-18.718-72.438-39.838c-21.216-23.385-32.901-53.669-32.901-85.274c0-70.008,56.952-126.963,126.953-126.963
			c52.227,0,99.253,32.252,118.214,80.626c-4.353,6.837-7.989,14.037-10.881,21.508c-3.481-15.06-10.132-29.318-19.521-41.696
			c-1.328-1.75-3.347-2.84-5.539-2.989c-2.196-0.149-4.341,0.656-5.894,2.209l-42.677,42.677c-2.541-3.468-5.603-6.53-9.071-9.071
			l42.677-42.677c1.553-1.553,2.359-3.702,2.209-5.893c-0.149-2.192-1.24-4.211-2.989-5.539
			c-15.029-11.403-32.829-18.776-51.476-21.326c-2.175-0.298-4.373,0.36-6.028,1.804c-1.654,1.443-2.604,3.532-2.604,5.728V100.9
			c-2.091-0.323-4.233-0.494-6.415-0.494c-2.181,0-4.322,0.169-6.415,0.494V40.567c0-2.197-0.95-4.285-2.604-5.728
			c-1.654-1.443-3.854-2.1-6.028-1.804c-18.648,2.548-36.447,9.923-51.476,21.326c-1.751,1.328-2.84,3.347-2.989,5.539
			c-0.15,2.192,0.656,4.341,2.209,5.894l42.676,42.677c-3.468,2.541-6.53,5.604-9.071,9.071L81.945,74.864
			c-1.553-1.553-3.705-2.36-5.894-2.209c-2.192,0.149-4.211,1.24-5.539,2.989c-11.403,15.03-18.777,32.829-21.326,51.476
			c-0.297,2.175,0.36,4.373,1.804,6.028c1.444,1.655,3.532,2.604,5.728,2.604h60.333c-0.323,2.091-0.494,4.233-0.494,6.415
			s0.169,4.322,0.494,6.415H56.719c-2.197,0-4.285,0.95-5.728,2.604c-1.443,1.654-2.101,3.853-1.804,6.028
			c2.548,18.647,9.923,36.447,21.327,51.477c1.328,1.751,3.347,2.84,5.539,2.989c0.173,0.012,0.346,0.018,0.518,0.018
			c2.009,0,3.945-0.797,5.376-2.227l42.677-42.677c2.541,3.468,5.603,6.53,9.071,9.071l-42.677,42.677
			c-1.553,1.553-2.359,3.702-2.209,5.893c0.149,2.192,1.24,4.211,2.989,5.539c13.253,10.055,28.661,16.972,44.903,20.216V267.28z
			 M199.587,148.581c0.323-2.091,0.494-4.233,0.494-6.415c0-2.181-0.169-4.322-0.494-6.415h60.334v0.001
			c0.081,0,0.161-0.01,0.242-0.013c-0.907,4.229-1.598,8.513-2.055,12.841H199.587z M250.793,163.786
			c-2.349,10.055-6.342,19.691-11.803,28.477l-28.477-28.477H250.793z M210.514,120.548l28.477-28.476
			c5.461,8.786,9.454,18.422,11.802,28.476H210.514z M179.94,89.973V49.695c10.055,2.348,19.691,6.342,28.476,11.802L179.94,89.973z
			 M136.701,49.694v40.28l-28.476-28.477C117.01,56.035,126.647,52.042,136.701,49.694z M106.127,120.548H65.848
			c2.348-10.055,6.342-19.691,11.802-28.476L106.127,120.548z M106.127,163.786L77.65,192.263
			c-5.461-8.787-9.455-18.423-11.803-28.477H106.127z M136.701,226.657v7.983c-10.055-2.348-19.691-6.342-28.476-11.802
			l28.476-28.476V226.657z M164.732,219.055h-12.826v-35.622c2.091,0.323,4.233,0.494,6.415,0.494c2.18,0,4.321-0.169,6.411-0.493
			V219.055z M158.32,168.722c-14.643,0-26.554-11.913-26.554-26.554c0-14.643,11.912-26.554,26.554-26.554
			s26.554,11.912,26.554,26.554S172.963,168.722,158.32,168.722z M179.937,219.054v-24.695l24.695,24.695H179.937z M259.329,219.055
			h-33.245c-0.146-0.175-0.295-0.348-0.457-0.509l-42.681-42.681c3.468-2.541,6.53-5.603,9.071-9.071l42.677,42.677
			c1.43,1.43,3.366,2.227,5.375,2.227c0.172,0,0.345-0.006,0.518-0.018c2.192-0.149,4.211-1.24,5.539-2.989
			c5.488-7.233,10.031-15.112,13.565-23.413c1.541,7.89,3.86,15.607,6.953,23.101C264.393,212.053,261.946,215.623,259.329,219.055z
			 M316.483,219.054l34.714-34.714c1.817,2.307,3.902,4.392,6.209,6.209l-28.514,28.506H316.483z M311.333,202.702
			c-4.002-6.695-7.009-13.949-8.911-21.5h30.411L311.333,202.702z M360.544,219.054h-10.145l10.145-10.142V219.054z
			 M384.525,219.054h-8.776v-20.892c1.439,0.171,2.902,0.271,4.387,0.271c1.486,0,2.949-0.098,4.389-0.271V219.054z
			 M380.137,183.227c-11.921,0-21.62-9.699-21.62-21.62c0-11.921,9.699-21.62,21.62-21.62c11.921,0,21.62,9.699,21.62,21.62
			C401.757,173.529,392.058,183.227,380.137,183.227z M339.044,92.802c6.695-4.002,13.949-7.009,21.499-8.911v30.411L339.044,92.802
			z M399.732,114.302v-30.41c7.551,1.903,14.804,4.909,21.499,8.911L399.732,114.302z M399.732,226.657v-17.743l21.499,21.499
			c-6.695,4.002-13.949,7.009-21.499,8.911L399.732,226.657L399.732,226.657z M459.789,233.821
			c-15.929,17.558-37.013,29.247-60.057,33.495v-12.399c13.732-2.88,26.751-8.794,37.981-17.313c1.751-1.328,2.84-3.347,2.989-5.539
			c0.15-2.192-0.656-4.341-2.209-5.893l-35.625-35.625c2.307-1.817,4.391-3.901,6.208-6.208l35.624,35.625
			c1.43,1.43,3.366,2.227,5.376,2.227c0.172,0,0.346-0.006,0.518-0.018c2.192-0.149,4.211-1.24,5.539-2.989
			c9.869-13.009,16.252-28.415,18.458-44.554c0.297-2.175-0.36-4.373-1.804-6.028c-1.444-1.655-3.533-2.604-5.728-2.604h-50.368
			c0.172-1.44,0.271-2.903,0.271-4.389c0-1.486-0.098-2.949-0.271-4.389h50.368c2.197,0,4.285-0.95,5.728-2.604
			c1.444-1.654,2.101-3.853,1.804-6.028c-2.206-16.139-8.589-31.546-18.458-44.554c-1.328-1.751-3.347-2.84-5.539-2.989
			c-2.196-0.149-4.341,0.656-5.893,2.209l-35.624,35.624c-1.817-2.307-3.901-4.391-6.208-6.208l35.624-35.625
			c1.553-1.553,2.359-3.702,2.209-5.893c-0.149-2.192-1.24-4.211-2.989-5.539c-13.009-9.869-28.415-16.252-44.554-18.457
			c-2.175-0.299-4.373,0.36-6.028,1.804c-1.654,1.443-2.604,3.533-2.604,5.728v50.368c-1.44-0.172-2.903-0.271-4.389-0.271
			c-1.486,0-2.949,0.098-4.389,0.271V74.686c0-2.196-0.95-4.285-2.604-5.728c-1.654-1.444-3.854-2.101-6.028-1.804
			c-16.139,2.206-31.546,8.588-44.554,18.457c-1.75,1.328-2.84,3.347-2.989,5.539c-0.15,2.192,0.656,4.341,2.209,5.894
			l35.624,35.625c-2.307,1.817-4.391,3.901-6.208,6.208l-35.624-35.624c-1.553-1.553-3.702-2.36-5.893-2.209
			c-2.192,0.149-4.211,1.24-5.539,2.989c-9.869,13.009-16.252,28.415-18.458,44.554c-0.297,2.175,0.36,4.373,1.804,6.028
			s3.533,2.604,5.728,2.604h50.368c-0.172,1.44-0.271,2.903-0.271,4.389c0,1.486,0.098,2.949,0.271,4.389h-50.368
			c-2.196,0-4.285,0.95-5.728,2.604c-1.443,1.654-2.101,3.853-1.804,6.028c2.199,16.086,8.548,31.443,18.363,44.425h-14.784
			c-2.688-4.238-5.102-8.671-7.17-13.232c-6.287-13.932-9.475-28.807-9.475-44.212c0-21.743,6.458-42.687,18.676-60.567
			c20.082-29.401,53.295-46.954,88.845-46.954c59.282,0,107.511,48.234,107.511,107.521
			C487.65,188.373,477.755,214.017,459.789,233.821z M427.441,181.202h30.411c-1.903,7.551-4.909,14.805-8.911,21.5L427.441,181.202
			z M427.441,142.013l21.499-21.499c4.002,6.695,7.009,13.949,8.911,21.499H427.441z M332.832,142.013h-30.41
			c1.903-7.551,4.909-14.804,8.911-21.499L332.832,142.013z"/>
	</g>
</g>
<g>
	<g>
		<path d="M416.962,305.896H260.856c-4.199,0-7.603,3.404-7.603,7.603v51.698c0,4.199,3.404,7.603,7.603,7.603h156.107
			c4.199,0,7.603-3.404,7.603-7.603v-51.698C424.565,309.3,421.161,305.896,416.962,305.896z M409.359,357.593H268.458v-36.492
			h140.901V357.593z"/>
	</g>
</g>
<g>
</g>
<g>
</g>
<g>
</g>
<g>
</g>
<g>
</g>
<g>
</g>
<g>
</g>
<g>
</g>
<g>
</g>
<g>
</g>
<g>
</g>
<g>
</g>
<g>
</g>
<g>
</g>
<g>
</g>
</svg>
