<?xml version="1.0" encoding="iso-8859-1"?>
<!-- Generator: Adobe Illustrator 19.0.0, SVG Export Plug-In . SVG Version: 6.00 Build 0)  -->
<svg version="1.1" id="Capa_1" xmlns="http://www.w3.org/2000/svg" xmlns:xlink="http://www.w3.org/1999/xlink" x="0px" y="0px"
	 viewBox="0 0 512 512" style="enable-background:new 0 0 512 512;" xml:space="preserve">
<g>
	<g>
		<path d="M425.095,12.062c-42.13,0-86.905,14.011-86.905,39.978c0,6.122,2.491,11.577,6.845,16.344
			c0.622,1.208,1.265,2.449,1.944,3.757c8.442,16.244,21.302,41.002,26.606,74.852c-6.551-9.176-13.864-17.844-21.902-25.881
			c-75.795-75.796-196.277-80.662-277.685-12.455c-3.311,2.773-3.667,7.74-0.77,10.944c2.757,3.049,7.415,3.324,10.567,0.685
			c75.392-63.131,186.949-58.612,257.135,11.576c31.003,31.003,50.501,72.049,54.9,115.579c4.019,39.765-4.622,80.007-24.383,114.37
			l-30.616-30.617c12.615-26.45,17.245-56.719,13.042-85.872c-4.626-32.093-19.221-61.206-42.208-84.192
			c-28.21-28.211-65.718-43.745-105.613-43.744c-39.894,0.001-77.4,15.537-105.607,43.744
			c-28.211,28.211-43.747,65.718-43.747,105.61c0,39.892,15.537,77.4,43.747,105.61c22.986,22.987,52.098,37.583,84.186,42.213
			c7.023,1.014,14.104,1.513,21.188,1.513c22.319,0,44.597-4.985,64.676-14.561l30.628,30.628
			c-34.364,19.756-74.61,28.393-114.378,24.375c-43.535-4.399-84.58-23.894-115.58-54.892
			C0.984,331.442-3.532,219.88,59.601,144.479c2.639-3.152,2.364-7.809-0.685-10.567c-3.204-2.897-8.17-2.54-10.944,0.771
			C-20.235,216.1-15.374,336.586,60.415,412.376c14.341,14.341,30.678,26.393,48.362,35.868
			c-28.727,12.202-47.864,13.841-48.069,13.857c-4.166,0.307-7.305,3.919-7.027,8.088l1.238,18.563
			c0.243,3.644,3.049,6.594,6.674,7.042c22.369,2.761,43.498,4.144,63.598,4.144c26.567,0,51.333-2.416,74.774-7.258
			c41.789-8.633,78.545-24.798,112.328-49.369l3.973,3.973c5.588,5.588,12.93,8.383,20.271,8.383s14.682-2.794,20.271-8.383
			c5.883-5.883,8.666-13.71,8.355-21.434c0.388,0.015,0.775,0.027,1.164,0.027c7.541,0,15.082-2.948,20.722-8.844
			c10.839-11.331,10.218-29.41-0.87-40.497l-3.622-3.622c1.464-2.431,2.876-4.89,4.234-7.375
			c3.258-4.344,28.02-37.974,49.642-84.866c1.774-3.848,0.031-8.406-3.845-10.117l-0.005-0.002c-3.803-1.679-8.236,0.019-9.98,3.793
			c-4.439,9.613-9.04,18.68-13.559,27.048c3.109-18.222,3.797-36.902,1.919-55.484c-2.445-24.191-9.217-47.666-19.769-69.323
			c-0.303-40.508-11.404-71.349-21.708-93.415c15.95,5.828,36.065,8.846,55.613,8.846c21.449,0,43.581-3.634,60.144-10.626
			c-8.989,26.168-20.386,65.086-30.079,98.184c-5.797,19.797-10.804,36.894-14.429,48.363c-1.471,4.644-3.084,9.385-4.818,14.162
			c-1.417,3.906,0.525,8.228,4.403,9.719l0.003,0.001c3.958,1.523,8.416-0.483,9.863-4.469c1.814-4.996,3.503-9.959,5.045-14.826
			c3.675-11.628,8.702-28.798,14.524-48.678c13.086-44.684,29.309-100.076,37.895-118.563c2.796-3.994,4.35-8.413,4.35-13.247
			C512,26.073,467.224,12.062,425.095,12.062z M69.669,481.436l-0.347-5.194c10.455-1.815,31.086-6.702,57.41-19.46
			c18.567,7.758,38.276,12.82,58.485,14.862c6.885,0.696,13.78,1.04,20.665,1.04c4.574,0,9.141-0.159,13.694-0.461
			C176.008,484.942,126.751,487.876,69.669,481.436z M263.741,354.217c-9.62,9.619-10.952,24.427-4.013,35.493
			c-22.729,9.871-48.266,13.357-72.926,9.8c-28.814-4.157-54.959-17.267-75.605-37.915c-25.339-25.339-39.294-59.027-39.294-94.859
			c0-35.832,13.955-69.52,39.294-94.859c25.336-25.336,59.024-39.289,94.856-39.29c35.835-0.001,69.523,13.952,94.862,39.29
			c20.647,20.647,33.756,46.792,37.91,75.609c3.555,24.661,0.068,50.199-9.802,72.927c-11.066-6.938-25.873-5.605-35.493,4.014
			c-5.884,5.883-8.666,13.71-8.355,21.434C277.451,345.551,269.625,348.334,263.741,354.217z M346.053,436.53
			c-5.249,5.249-13.789,5.249-19.037,0l-52.524-52.524c-5.249-5.249-5.249-13.789,0-19.037c2.624-2.624,6.071-3.936,9.518-3.936
			c3.447,0,6.895,1.312,9.518,3.936l52.524,52.524C351.301,422.741,351.301,431.281,346.053,436.53z M375.841,406.741
			c-5.249,5.249-13.789,5.249-19.037,0l-52.524-52.524c-5.249-5.249-5.249-13.789,0-19.037c2.624-2.624,6.071-3.936,9.518-3.936
			c3.447,0,6.895,1.312,9.518,3.936l52.524,52.524C381.089,392.953,381.089,401.493,375.841,406.741z M425.094,76.812
			c-43.768,0-71.7-14.672-71.7-24.773c0-10.1,27.932-24.772,71.7-24.772s71.7,14.672,71.7,24.772
			C496.793,62.14,468.861,76.812,425.094,76.812z"/>
	</g>
</g>
<g>
</g>
<g>
</g>
<g>
</g>
<g>
</g>
<g>
</g>
<g>
</g>
<g>
</g>
<g>
</g>
<g>
</g>
<g>
</g>
<g>
</g>
<g>
</g>
<g>
</g>
<g>
</g>
<g>
</g>
</svg>
