<?xml version="1.0" encoding="iso-8859-1"?>
<!-- Generator: Adobe Illustrator 19.0.0, SVG Export Plug-In . SVG Version: 6.00 Build 0)  -->
<svg version="1.1" id="Capa_1" xmlns="http://www.w3.org/2000/svg" xmlns:xlink="http://www.w3.org/1999/xlink" x="0px" y="0px"
	 viewBox="0 0 512.003 512.003" style="enable-background:new 0 0 512.003 512.003;" xml:space="preserve">
<g>
	<g>
		<path d="M372.102,75.624c-22.489,0-40.786,18.296-40.786,40.786s18.297,40.786,40.786,40.786s40.786-18.297,40.786-40.786
			S394.591,75.624,372.102,75.624z M372.102,142.029c-14.127,0-25.62-11.494-25.62-25.62s11.494-25.62,25.62-25.62
			c14.127,0,25.62,11.493,25.62,25.62C397.723,130.536,386.23,142.029,372.102,142.029z"/>
	</g>
</g>
<g>
	<g>
		<path d="M156.759,75.624c-22.489,0-40.786,18.296-40.786,40.786s18.297,40.786,40.786,40.786
			c22.489,0,40.786-18.297,40.786-40.786S179.248,75.624,156.759,75.624z M156.759,142.029c-14.128,0-25.62-11.494-25.62-25.62
			s11.493-25.62,25.62-25.62c14.127,0,25.62,11.493,25.62,25.62C182.379,130.536,170.886,142.029,156.759,142.029z"/>
	</g>
</g>
<g>
	<g>
		<path d="M511.951,414.784c-0.777-12.297-10.613-22.405-22.888-23.487c-12.232-1.078-22.878,6.641-26.32,17.529H310.499
			c-0.515-2.868-1.314-5.638-2.371-8.28H440.59c4.188,0,7.583-3.395,7.583-7.583v-99.466h27.324l22.474,14.447
			c1.246,0.801,2.672,1.204,4.101,1.204c1.783,0,3.57-0.627,5.017-1.895c1.693-1.483,2.566-3.694,2.566-5.945v-75.163
			c0-2.215-0.856-4.392-2.509-5.867c-2.611-2.328-6.352-2.551-9.173-0.74l-22.474,14.447h-27.324v-21.072
			c0-2.861-1.585-5.349-3.925-6.642c9.88-7.935,18.446-17.471,25.296-28.287c11.656-18.404,17.818-39.697,17.818-61.576
			c0-63.555-51.706-115.26-115.26-115.26c-49.076,0-91.078,30.838-107.668,74.154C247.843,31.988,205.837,1.148,156.758,1.148
			c-63.549,0-115.25,51.705-115.25,115.26c0,21.881,6.159,43.174,17.812,61.576c7.89,12.461,18.049,23.232,29.884,31.8
			c-0.434,0.955-0.681,2.012-0.681,3.13v29.124H66.694l-54.687-39.284c-2.774-1.993-6.608-1.921-9.34,0.381
			C0.919,204.61,0,206.848,0,209.133V396.66c0,2.74,1.326,5.386,3.673,6.797c1.21,0.728,2.563,1.086,3.909,1.086
			c1.56,0,3.111-0.48,4.425-1.425l54.687-39.284h21.827v29.128c0,4.188,3.395,7.583,7.583,7.583h18.147
			c4.188,0,7.583-3.395,7.583-7.583c0-4.188-3.395-7.583-7.583-7.583h-10.565V220.497h329.321v13.49H308.762
			c-11.08,0-20.062,8.982-20.062,20.062v19.387c0,11.08,8.982,20.061,20.061,20.061h57.244c4.188,0,7.583-3.395,7.583-7.583
			c0-4.188-3.395-7.583-7.583-7.583h-57.243c-2.705,0-4.897-2.192-4.897-4.896v-19.387c0-2.704,2.192-4.896,4.896-4.896h161.38
			v29.179h-68.749c-4.188,0-7.583,3.395-7.583,7.583s3.395,7.583,7.583,7.583h31.615v91.883h-135.17
			c-7.688-7.311-18.073-11.813-29.493-11.813c-11.422,0-21.805,4.502-29.494,11.813h-89.21c-4.188,0-7.583,3.395-7.583,7.583
			c0,4.188,3.395,7.583,7.583,7.583h78.921c-1.964,4.91-3.056,10.259-3.056,15.862c0,10.543,3.836,20.204,10.176,27.676h-3.732
			c-4.152,0-7.773,3.199-7.897,7.349c-0.129,4.294,3.313,7.816,7.58,7.816h23.602l-23.153,40.239
			c-2.088,3.63-0.839,8.266,2.792,10.354c3.629,2.089,8.265,0.84,10.354-2.791l23.12-40.181l23.121,40.181
			c1.403,2.438,3.955,3.803,6.58,3.803c1.283,0,2.583-0.327,3.774-1.012c3.631-2.089,4.879-6.725,2.792-10.354l-23.154-40.239
			h23.285c4.152,0,7.773-3.199,7.897-7.349c0.129-4.294-3.313-7.816-7.58-7.816h-4.05c4.783-5.638,8.132-12.522,9.491-20.093
			h152.245c3.226,10.208,12.785,17.629,24.045,17.629C501.23,441.619,512.874,429.418,511.951,414.784z M485.307,245.71l9.18-5.901
			v47.867l-9.18-5.902V245.71z M56.67,352.363l-41.504,29.814v-158.48l41.504,29.813V352.363z M88.516,348.67h-16.68v-91.466h16.68
			V348.67z M202.696,205.332h-91.868c-33.445-17.274-54.155-51.181-54.155-88.922c0-55.192,44.898-100.094,100.084-100.094
			c55.193,0,100.094,44.902,100.094,100.094C256.851,154.151,236.141,188.058,202.696,205.332z M230.072,205.332
			c9.391-7.745,17.554-16.954,24.134-27.346c4.107-6.486,7.516-13.336,10.229-20.439c2.713,7.103,6.122,13.954,10.229,20.439
			c6.58,10.392,14.743,19.601,24.134,27.346H230.072z M418.031,205.332h-91.858c-33.445-17.274-54.155-51.181-54.155-88.922
			c0-55.192,44.898-100.094,100.084-100.094c55.192,0,100.094,44.902,100.094,100.094
			C472.196,154.148,451.481,188.055,418.031,205.332z M268.343,444.084c-15.26,0-27.675-12.416-27.675-27.676
			c0-15.261,12.415-27.676,27.675-27.676c15.261,0,27.676,12.415,27.676,27.676C296.019,431.668,283.604,444.084,268.343,444.084z
			 M486.788,426.454c-5.54,0-10.047-4.507-10.047-10.046c0-5.54,4.506-10.047,10.047-10.047s10.047,4.507,10.047,10.047
			C496.834,421.947,492.328,426.454,486.788,426.454z"/>
	</g>
</g>
<g>
	<g>
		<path d="M156.759,246.999c-20.069,0-36.396,16.327-36.396,36.397s16.326,36.397,36.396,36.397
			c20.069,0,36.397-16.328,36.397-36.397S176.828,246.999,156.759,246.999z M156.759,304.628c-11.706,0-21.23-9.524-21.23-21.231
			s9.524-21.231,21.23-21.231c11.707,0,21.231,9.524,21.231,21.231S168.466,304.628,156.759,304.628z"/>
	</g>
</g>
<g>
	<g>
		<path d="M232.085,340.257H127.946c-4.189,0-7.583,3.395-7.583,7.583c0,4.188,3.394,7.583,7.583,7.583h104.139
			c4.188,0,7.583-3.395,7.583-7.583C239.667,343.652,236.273,340.257,232.085,340.257z"/>
	</g>
</g>
<g>
</g>
<g>
</g>
<g>
</g>
<g>
</g>
<g>
</g>
<g>
</g>
<g>
</g>
<g>
</g>
<g>
</g>
<g>
</g>
<g>
</g>
<g>
</g>
<g>
</g>
<g>
</g>
<g>
</g>
</svg>
