<?xml version="1.0" encoding="iso-8859-1"?>
<!-- Generator: Adobe Illustrator 19.0.0, SVG Export Plug-In . SVG Version: 6.00 Build 0)  -->
<svg version="1.1" id="Capa_1" xmlns="http://www.w3.org/2000/svg" xmlns:xlink="http://www.w3.org/1999/xlink" x="0px" y="0px"
	 viewBox="0 0 512 512" style="enable-background:new 0 0 512 512;" xml:space="preserve">
<g>
	<g>
		<path d="M426.447,0H85.553C38.507,0,0.231,38.275,0.231,85.323v419.08c0,4.196,3.4,7.597,7.597,7.597h41.64
			c4.197,0,7.597-3.401,7.597-7.597v-43.28h56.975v43.28c0,4.196,3.4,7.597,7.597,7.597h41.64c4.197,0,7.597-3.401,7.597-7.597
			v-43.28h170.247v43.28c0,4.196,3.4,7.597,7.597,7.597h41.641c4.197,0,7.597-3.401,7.597-7.597v-43.28h56.974v43.28
			c0,4.196,3.4,7.597,7.597,7.597h41.641c4.197,0,7.597-3.401,7.597-7.597V85.323C511.771,38.275,473.494,0,426.447,0z
			 M377.269,15.198c18.725,0,36.339,7.294,49.588,20.533c13.244,13.253,20.538,30.867,20.538,49.593v62.27
			c0,7.42-6.036,13.456-13.456,13.456H233.91c-7.42,0-13.456-6.036-13.456-13.456v-62.27c0-22.783-8.873-44.209-24.988-60.336
			c-3.641-3.638-7.554-6.908-11.689-9.79H377.269z M382.765,496.806h-26.447v-35.683h26.447V496.806z M470.129,496.806v-43.28
			c0-4.196-3.401-7.597-7.597-7.597h-72.169H170.876V284.626c0-4.196-3.401-7.597-7.597-7.597c-4.196,0-7.597,3.401-7.597,7.597
			v212.179h-26.446v-43.28c0-4.196-3.401-7.597-7.597-7.597h-72.17c-4.196,0-7.597,3.401-7.597,7.597v43.28H15.426V86.387
			c0-38.485,30.561-70.599,69.041-71.185c39.166-0.597,71.216,31.088,71.216,70.12v163.85c0,4.196,3.401,7.597,7.597,7.597
			s7.597-3.401,7.597-7.597V85.323c0-29.032-14.586-54.709-36.805-70.128h0.972c0.029,0,0.059,0.004,0.088,0.004
			c18.725,0,36.339,7.294,49.588,20.533c13.244,13.253,20.538,30.867,20.538,49.593v62.27c0,15.823,12.827,28.65,28.65,28.65
			h200.029c15.823,0,28.65-12.827,28.65-28.65v-62.27c0-22.783-8.873-44.21-24.988-60.336c-3.652-3.65-7.588-6.906-11.739-9.794
			h0.585c38.731,0,70.128,31.397,70.128,70.128v411.483H470.129z"/>
	</g>
</g>
<g>
	<g>
		<path d="M430.844,221.015H236.608c-17.313,0-31.349,14.035-31.349,31.349v106.76c0,17.313,14.035,31.349,31.349,31.349h117.681
			c4.196,0,7.597-3.401,7.597-7.597s-3.401-7.597-7.597-7.597H236.608c-8.922,0-16.154-7.232-16.154-16.154v-106.76
			c0-8.922,7.232-16.154,16.154-16.154h194.236c8.922,0,16.154,7.232,16.154,16.154v106.76c0,8.922-7.232,16.154-16.154,16.154
			h-41.101c-4.196,0-7.597,3.401-7.597,7.597s3.401,7.597,7.597,7.597h41.101c17.313,0,31.349-14.035,31.349-31.349v-106.76
			C462.193,235.051,448.157,221.015,430.844,221.015z"/>
	</g>
</g>
<g>
</g>
<g>
</g>
<g>
</g>
<g>
</g>
<g>
</g>
<g>
</g>
<g>
</g>
<g>
</g>
<g>
</g>
<g>
</g>
<g>
</g>
<g>
</g>
<g>
</g>
<g>
</g>
<g>
</g>
</svg>
