<?xml version="1.0" encoding="iso-8859-1"?>
<!-- Generator: Adobe Illustrator 19.0.0, SVG Export Plug-In . SVG Version: 6.00 Build 0)  -->
<svg version="1.1" id="Capa_1" xmlns="http://www.w3.org/2000/svg" xmlns:xlink="http://www.w3.org/1999/xlink" x="0px" y="0px"
	 viewBox="0 0 512 512" style="enable-background:new 0 0 512 512;" xml:space="preserve">
<g>
	<g>
		<path d="M371.426,0H225.081c-4.199,0-7.604,3.405-7.604,7.604c0,4.199,3.405,7.604,7.604,7.604h146.345
			c12.936,0,23.421,10.486,23.421,23.421v434.743c0,12.936-10.486,23.421-23.421,23.421H140.574
			c-12.936,0-23.421-10.486-23.421-23.421V38.629c0-12.936,10.486-23.421,23.421-23.421h49.021c4.199,0,7.604-3.405,7.604-7.604
			S193.795,0,189.595,0h-49.021c-21.334,0-38.628,17.294-38.629,38.629v434.742c0,21.335,17.295,38.629,38.629,38.629h230.852
			c21.334,0,38.628-17.294,38.629-38.628V38.629C410.055,17.294,392.76,0,371.426,0z"/>
	</g>
</g>
<g>
	<g>
		<path d="M381.047,325.123c4.199,0,7.604-3.405,7.604-7.604V71.059c0-4.199-3.405-7.604-7.604-7.604H132
			c-4.199,0-7.604,3.405-7.604,7.604v367.435c0,4.199,3.405,7.604,7.604,7.604h249.047c4.199,0,7.604-3.405,7.604-7.603v-85.488
			c0-4.199-3.405-7.604-7.604-7.604s-7.604,3.405-7.604,7.604v77.883H139.604V78.662h233.839v238.857
			C373.443,321.719,376.847,325.123,381.047,325.123z"/>
	</g>
</g>
<g>
	<g>
		<path d="M287.124,449.557h-62.246c-6.932,0-12.571,5.639-12.571,12.571v19.357c0,6.932,5.639,12.571,12.571,12.571h62.246
			c6.931,0,12.57-5.639,12.571-12.571v-19.357C299.694,455.196,294.055,449.557,287.124,449.557z M284.487,478.848h-56.972v-14.083
			h56.972V478.848z"/>
	</g>
</g>
<g>
	<g>
		<path d="M197.201,90.61h-27.727c-10.233,0-18.558,8.325-18.558,18.558v27.727c0,10.233,8.325,18.558,18.558,18.558h27.727
			c10.233,0,18.558-8.325,18.558-18.558v-27.727C215.759,98.935,207.434,90.61,197.201,90.61z M200.551,136.895
			c0,1.847-1.503,3.35-3.35,3.35h-27.727c-1.847,0-3.35-1.503-3.35-3.35v-27.727c0-1.847,1.503-3.35,3.35-3.35h27.727
			c1.847,0,3.35,1.503,3.35,3.35V136.895z"/>
	</g>
</g>
<g>
	<g>
		<path d="M270.387,90.61h-27.728c-10.233,0-18.558,8.325-18.558,18.558v27.727c0,10.233,8.325,18.558,18.558,18.558h27.728
			c10.233,0,18.558-8.325,18.558-18.558v-27.727C288.944,98.935,280.62,90.61,270.387,90.61z M273.737,136.895
			c0,1.847-1.503,3.35-3.35,3.35H242.66c-1.847,0-3.35-1.503-3.35-3.35v-27.727c0-1.847,1.503-3.35,3.35-3.35h27.728
			c1.847,0,3.35,1.503,3.35,3.35V136.895z"/>
	</g>
</g>
<g>
	<g>
		<path d="M343.572,90.61h-27.727c-10.233,0-18.558,8.325-18.558,18.558v27.727c0,10.233,8.325,18.558,18.558,18.558h27.727
			c10.233,0,18.558-8.325,18.558-18.558v-27.727C362.13,98.935,353.805,90.61,343.572,90.61z M346.922,136.895
			c0,1.847-1.503,3.35-3.35,3.35h-27.727c-1.847,0-3.35-1.503-3.35-3.35v-27.727c0-1.847,1.503-3.35,3.35-3.35h27.727
			c1.847,0,3.35,1.503,3.35,3.35V136.895z"/>
	</g>
</g>
<g>
	<g>
		<path d="M197.201,163.211h-27.727c-10.233,0-18.558,8.325-18.558,18.558v27.727c0,10.233,8.325,18.558,18.558,18.558h27.727
			c10.233,0,18.558-8.325,18.558-18.558v-27.727C215.759,171.536,207.434,163.211,197.201,163.211z M200.551,209.495
			c0,1.847-1.503,3.35-3.35,3.35h-27.727c-1.847,0-3.35-1.503-3.35-3.35v-27.727c0-1.847,1.503-3.35,3.35-3.35h27.727
			c1.847,0,3.35,1.503,3.35,3.35V209.495z"/>
	</g>
</g>
<g>
	<g>
		<path d="M270.387,163.211h-27.728c-10.233,0-18.558,8.325-18.558,18.558v27.727c0,10.233,8.325,18.558,18.558,18.558h27.728
			c10.233,0,18.558-8.325,18.558-18.558v-27.727C288.944,171.536,280.62,163.211,270.387,163.211z M273.737,209.495
			c0,1.847-1.503,3.35-3.35,3.35H242.66c-1.847,0-3.35-1.503-3.35-3.35v-27.727c0-1.847,1.503-3.35,3.35-3.35h27.728
			c1.847,0,3.35,1.503,3.35,3.35V209.495z"/>
	</g>
</g>
<g>
	<g>
		<path d="M343.572,163.211h-27.727c-10.233,0-18.558,8.325-18.558,18.558v27.727c0,10.233,8.325,18.558,18.558,18.558h27.727
			c10.233,0,18.558-8.325,18.558-18.558v-27.727C362.13,171.536,353.805,163.211,343.572,163.211z M346.922,209.495
			c0,1.847-1.503,3.35-3.35,3.35h-27.727c-1.847,0-3.35-1.503-3.35-3.35v-27.727c0-1.847,1.503-3.35,3.35-3.35h27.727
			c1.847,0,3.35,1.503,3.35,3.35V209.495z"/>
	</g>
</g>
<g>
	<g>
		<path d="M197.201,354.493h-27.727c-10.233,0-18.558,8.325-18.558,18.558v27.727c0,10.233,8.325,18.558,18.558,18.558h27.727
			c10.233,0,18.558-8.325,18.558-18.558V373.05C215.759,362.817,207.434,354.493,197.201,354.493z M200.551,400.777
			c0,1.847-1.503,3.35-3.35,3.35h-27.727c-1.847,0-3.35-1.503-3.35-3.35V373.05c0-1.847,1.503-3.35,3.35-3.35v0h27.727
			c1.847,0,3.35,1.503,3.35,3.35V400.777z"/>
	</g>
</g>
<g>
	<g>
		<path d="M270.387,354.493h-27.728c-10.233,0-18.558,8.325-18.558,18.558v27.727c0,10.233,8.325,18.558,18.558,18.558h27.728
			c10.233,0,18.558-8.325,18.558-18.558V373.05C288.944,362.817,280.62,354.493,270.387,354.493z M273.737,400.777
			c0,1.847-1.503,3.35-3.35,3.35H242.66c-1.847,0-3.35-1.503-3.35-3.35V373.05c0-1.847,1.503-3.35,3.35-3.35v0h27.728
			c1.847,0,3.35,1.503,3.35,3.35V400.777z"/>
	</g>
</g>
<g>
	<g>
		<path d="M343.572,354.493h-27.727c-10.233,0-18.558,8.325-18.558,18.558v27.727c0,10.233,8.325,18.558,18.558,18.558h27.727
			c10.233,0,18.558-8.325,18.558-18.558V373.05C362.13,362.817,353.805,354.493,343.572,354.493z M346.922,400.777
			c0,1.847-1.503,3.35-3.35,3.35h-27.727c-1.847,0-3.35-1.503-3.35-3.35V373.05c0-1.847,1.503-3.35,3.35-3.35v0h27.727
			c1.847,0,3.35,1.503,3.35,3.35V400.777z"/>
	</g>
</g>
<g>
	<g>
		<path d="M275.601,30.351h-39.203c-4.199,0-7.604,3.405-7.604,7.604c0,4.199,3.405,7.604,7.604,7.604h39.203
			c4.199,0,7.604-3.405,7.604-7.604C283.205,33.755,279.8,30.351,275.601,30.351z"/>
	</g>
</g>
<g>
</g>
<g>
</g>
<g>
</g>
<g>
</g>
<g>
</g>
<g>
</g>
<g>
</g>
<g>
</g>
<g>
</g>
<g>
</g>
<g>
</g>
<g>
</g>
<g>
</g>
<g>
</g>
<g>
</g>
</svg>
