<?xml version="1.0" encoding="iso-8859-1"?>
<!-- Generator: Adobe Illustrator 19.0.0, SVG Export Plug-In . SVG Version: 6.00 Build 0)  -->
<svg version="1.1" id="Capa_1" xmlns="http://www.w3.org/2000/svg" xmlns:xlink="http://www.w3.org/1999/xlink" x="0px" y="0px"
	 viewBox="0 0 512 512" style="enable-background:new 0 0 512 512;" xml:space="preserve">
<g>
	<g>
		<path d="M378.13,36.146c-24.517,0-48.051,6.67-68.418,18.801c-34.426-13.889-73.268-13.95-107.734-0.187
			c-20.297-12.015-43.714-18.614-68.107-18.614C60.054,36.146,0,96.199,0,170.016c0,35.344,13.65,68.665,38.433,93.825
			c1.442,1.463,3.407,2.291,5.46,2.299c0.01,0,0.021,0,0.031,0c0.638,0,1.265-0.088,1.873-0.24c0.667,0.025,1.343,0.039,2.032,0.039
			c28.482-0.002,73.571-21.204,116.735-55.176c48.208-37.89,81.367-81.879,82.512-109.459c0.039-0.936-0.094-1.872-0.391-2.761
			c-0.351-1.052-0.898-2.043-1.597-2.914c-7.696-11.522-16.981-21.611-27.468-30.044c24.889-7.637,51.692-7.582,76.552,0.173
			c-10.4,8.398-19.613,18.425-27.257,29.868c-0.703,0.876-1.253,1.872-1.604,2.931c-0.294,0.885-0.424,1.817-0.385,2.748
			c1.145,27.58,34.304,71.568,82.508,109.456c43.169,33.978,88.256,55.179,116.739,55.179c0.686,0,1.363-0.014,2.031-0.039
			c0.608,0.153,1.236,0.24,1.873,0.24c0.01,0,0.021,0,0.031,0c2.053-0.008,4.019-0.835,5.46-2.299
			C498.351,238.681,512,205.36,512,170.016C512,96.2,451.946,36.146,378.13,36.146z M224.234,93.512
			c-4.854,0.792-10,2.035-15.424,3.757c-12.907,3.947-27.51,10.408-42.598,18.825c-3.797,2.118-5.126,6.934-2.912,10.677
			c2.122,3.587,6.721,4.852,10.36,2.82c14.16-7.906,27.765-13.943,39.737-17.604c6.144-1.951,11.89-3.219,16.995-3.766
			c-2.68,9.686-9.428,21.875-19.595,35.238c-14.064,18.485-33.344,37.567-55.763,55.187
			c-42.319,33.308-79.678,49.236-101.751,51.575c1.44-5.162,4.305-12.026,9.712-20.918c13.5-22.043,37.441-47.39,65.683-69.542
			c5.26-4.121,10.615-8.098,15.987-11.873c3.437-2.415,4.322-7.121,1.98-10.607c-2.406-3.58-7.286-4.504-10.816-2.025
			c-5.601,3.935-11.181,8.079-16.662,12.372c-30.068,23.583-54.686,49.73-69.331,73.643c-4.503,7.405-7.861,14.305-10.079,20.661
			c-15.783-20.544-24.339-45.596-24.339-71.917c0-65.317,53.139-118.455,118.455-118.455
			C169.018,51.561,201.887,67.03,224.234,93.512z M356.963,198.642c-22.415-17.617-41.696-36.699-55.759-55.184
			c-10.166-13.362-16.913-25.551-19.595-35.237c5.112,0.549,10.877,1.822,17.073,3.789c24.703,7.555,55.554,24.959,84.637,47.748
			c28.244,22.153,52.185,47.501,65.673,69.523c5.415,8.906,8.283,15.775,9.724,20.94
			C436.644,247.881,399.285,231.953,356.963,198.642z M472.244,241.934c-2.22-6.359-5.582-13.265-10.092-20.683
			c-14.633-23.893-39.25-50.04-69.321-73.625c-30.521-23.914-63.194-42.268-89.562-50.332c-5.466-1.735-10.636-2.984-15.505-3.78
			c22.347-26.483,55.218-41.953,90.364-41.953c65.316,0,118.455,53.138,118.455,118.455
			C496.585,196.338,488.027,221.389,472.244,241.934z"/>
	</g>
</g>
<g>
	<g>
		<path d="M214.088,237.931c-4.061-1.272-8.387,0.99-9.659,5.052c-3.583,11.441-8.952,15.514-15.749,20.672
			c-7.54,5.721-16.086,12.206-21.141,28.344c-5.054,16.139-1.735,26.339,1.195,35.34c2.641,8.112,4.726,14.52,1.143,25.961
			c-3.583,11.443-8.952,15.517-15.75,20.675c-7.54,5.722-16.087,12.207-21.142,28.346c-5.055,16.14-1.735,26.342,1.194,35.343
			c2.64,8.114,4.726,14.523,1.142,25.965c-1.272,4.062,0.99,8.387,5.052,9.659c0.767,0.24,1.543,0.355,2.306,0.355
			c3.28,0,6.321-2.111,7.353-5.406c5.055-16.14,1.735-26.341-1.194-35.343c-2.64-8.113-4.726-14.523-1.142-25.965
			c3.583-11.443,8.952-15.517,15.75-20.675c7.54-5.722,16.087-12.208,21.142-28.347c5.054-16.139,1.735-26.339-1.195-35.34
			c-2.641-8.112-4.726-14.52-1.143-25.961s8.952-15.514,15.749-20.672c7.54-5.721,16.086-12.206,21.141-28.344
			C220.413,243.528,218.151,239.203,214.088,237.931z"/>
	</g>
</g>
<g>
	<g>
		<path d="M378.698,347.169c-5.055-16.14-13.601-22.625-21.142-28.346c-6.797-5.158-12.166-9.232-15.75-20.675
			c-3.585-11.443-1.498-17.852,1.142-25.965c2.93-9.001,6.249-19.203,1.194-35.343c-1.272-4.061-5.594-6.324-9.659-5.052
			c-4.062,1.272-6.323,5.597-5.052,9.659c3.584,11.443,1.498,17.852-1.142,25.965c-2.929,9.001-6.249,19.203-1.194,35.343
			c5.055,16.14,13.601,22.625,21.142,28.346c6.797,5.158,12.166,9.232,15.75,20.675c1.032,3.297,4.073,5.407,7.353,5.407
			c0.763,0,1.539-0.114,2.306-0.355C377.709,355.555,379.969,351.231,378.698,347.169z"/>
	</g>
</g>
<g>
	<g>
		<path d="M413.25,457.484c-5.055-16.138-13.601-22.622-21.141-28.343c-6.797-5.157-12.166-9.231-15.749-20.672
			c-3.583-11.44-1.498-17.848,1.143-25.96c0.355-1.09,0.709-2.18,1.049-3.281c1.258-4.067-1.019-8.383-5.086-9.641
			c-4.068-1.258-8.383,1.018-9.641,5.086c-0.319,1.029-0.649,2.046-0.981,3.065c-2.929,9-6.249,19.201-1.195,35.339
			c5.055,16.139,13.601,22.623,21.141,28.344c6.797,5.157,12.166,9.231,15.749,20.672c1.032,3.296,4.073,5.406,7.353,5.406
			c0.763,0,1.539-0.114,2.306-0.355C412.26,465.871,414.521,461.547,413.25,457.484z"/>
	</g>
</g>
<g>
	<g>
		<path d="M256.494,352.531c0-11.989,3.905-17.481,8.85-24.433c5.486-7.713,11.703-16.455,11.703-33.367
			c0-4.257-3.451-7.708-7.708-7.708c-4.257,0-7.708,3.451-7.708,7.708c0,11.989-3.905,17.48-8.85,24.432
			c-5.486,7.714-11.703,16.456-11.703,33.368c0,16.912,6.217,25.656,11.703,33.371c4.945,6.953,8.85,12.446,8.85,24.437
			s-3.906,17.483-8.85,24.437c-5.486,7.714-11.703,16.457-11.703,33.371c0,4.257,3.451,7.708,7.708,7.708
			c4.257,0,7.708-3.451,7.708-7.708c0-11.991,3.906-17.484,8.85-24.437c5.486-7.714,11.703-16.457,11.703-33.371
			s-6.217-25.656-11.703-33.371C260.399,370.015,256.494,364.522,256.494,352.531z"/>
	</g>
</g>
<g>
	<g>
		<path d="M448.802,287.281c-4.257,0-7.708,3.451-7.708,7.708v21.581c0,4.257,3.451,7.708,7.708,7.708
			c4.257,0,7.708-3.451,7.708-7.708v-21.581C456.51,290.732,453.059,287.281,448.802,287.281z"/>
	</g>
</g>
<g>
	<g>
		<path d="M448.802,344.831c-4.257,0-7.708,3.451-7.708,7.708v21.581c0,4.257,3.451,7.708,7.708,7.708
			c4.257,0,7.708-3.451,7.708-7.708v-21.581C456.51,348.282,453.059,344.831,448.802,344.831z"/>
	</g>
</g>
<g>
	<g>
		<path d="M488.368,326.846h-21.581c-4.257,0-7.708,3.451-7.708,7.708c0,4.257,3.451,7.708,7.708,7.708h21.581
			c4.257,0,7.708-3.451,7.708-7.708C496.075,330.297,492.624,326.846,488.368,326.846z"/>
	</g>
</g>
<g>
	<g>
		<path d="M430.818,326.846h-21.581c-4.257,0-7.708,3.451-7.708,7.708c0,4.257,3.451,7.708,7.708,7.708h21.581
			c4.257,0,7.708-3.451,7.708-7.708C438.525,330.297,435.074,326.846,430.818,326.846z"/>
	</g>
</g>
<g>
	<g>
		<path d="M106.604,276.49c-4.257,0-7.708,3.451-7.708,7.708v21.581c0,4.257,3.451,7.708,7.708,7.708s7.708-3.451,7.708-7.708
			v-21.581C114.311,279.941,110.86,276.49,106.604,276.49z"/>
	</g>
</g>
<g>
	<g>
		<path d="M106.604,334.04c-4.257,0-7.708,3.451-7.708,7.708v21.581c0,4.257,3.451,7.708,7.708,7.708s7.708-3.451,7.708-7.708
			v-21.581C114.311,337.491,110.86,334.04,106.604,334.04z"/>
	</g>
</g>
<g>
	<g>
		<path d="M146.169,316.056h-21.581c-4.257,0-7.708,3.451-7.708,7.708c0,4.257,3.451,7.708,7.708,7.708h21.581
			c4.257,0,7.708-3.451,7.708-7.708C153.877,319.507,150.426,316.056,146.169,316.056z"/>
	</g>
</g>
<g>
	<g>
		<path d="M88.619,316.056H67.038c-4.257,0-7.708,3.451-7.708,7.708c0,4.257,3.451,7.708,7.708,7.708h21.581
			c4.257,0,7.708-3.451,7.708-7.708C96.327,319.507,92.876,316.056,88.619,316.056z"/>
	</g>
</g>
<g>
	<g>
		<path d="M326.44,378.878c-2.581-6.103-11.444-6.255-14.156-0.173c-2.911,6.529,4.264,13.204,10.562,9.969
			C326.344,386.879,327.977,382.521,326.44,378.878z"/>
	</g>
</g>
<g>
	<g>
		<path d="M399.722,286.603c-1.754-2.572-4.93-3.915-7.994-3.266c-3.199,0.678-5.646,3.358-6.063,6.599
			c-0.878,6.823,7.397,11.234,12.622,6.829C401.252,294.267,401.848,289.828,399.722,286.603z"/>
	</g>
</g>
<g>
	<g>
		<path d="M213.91,420.498c-1.194-2.983-4.297-4.906-7.492-4.752c-3.21,0.155-6.066,2.384-6.992,5.459
			c-0.888,2.949,0.096,6.242,2.484,8.193c2.661,2.173,6.508,2.312,9.319,0.342C214.134,427.705,215.294,423.781,213.91,420.498z"/>
	</g>
</g>
<g>
	<g>
		<path d="M295.61,220.112c-2.613-6.312-11.847-6.166-14.302,0.176c-1.21,3.124-0.196,6.801,2.454,8.855
			c2.48,1.922,5.917,2.129,8.625,0.558C295.654,227.807,297.082,223.601,295.61,220.112z"/>
	</g>
</g>
<g>
	<g>
		<path d="M229.325,303.343c-1.188-2.969-4.311-4.91-7.492-4.749c-3.207,0.163-6.071,2.387-6.992,5.465
			c-2.001,6.693,5.567,12.488,11.487,8.745C229.461,310.825,230.74,306.769,229.325,303.343z"/>
	</g>
</g>
<g>
</g>
<g>
</g>
<g>
</g>
<g>
</g>
<g>
</g>
<g>
</g>
<g>
</g>
<g>
</g>
<g>
</g>
<g>
</g>
<g>
</g>
<g>
</g>
<g>
</g>
<g>
</g>
<g>
</g>
</svg>
