<?xml version="1.0" encoding="iso-8859-1"?>
<!-- Generator: Adobe Illustrator 19.0.0, SVG Export Plug-In . SVG Version: 6.00 Build 0)  -->
<svg version="1.1" id="Capa_1" xmlns="http://www.w3.org/2000/svg" xmlns:xlink="http://www.w3.org/1999/xlink" x="0px" y="0px"
	 viewBox="0 0 512 512" style="enable-background:new 0 0 512 512;" xml:space="preserve">
<g>
	<g>
		<path d="M428.379,301.919c-4.208,0-7.62,3.412-7.62,7.62v81.693c0,10.566-8.565,19.13-19.13,19.13H80.162
			c-10.549,0-19.13-8.582-19.13-19.13l0.004-259.704c0.021-2.482,2.043-4.495,4.529-4.495h39.081c4.208,0,7.62-3.412,7.62-7.62
			s-3.412-7.62-7.62-7.62H65.564c-7.413,0-13.879,4.106-17.263,10.159H7.62c-4.208,0-7.62,3.412-7.62,7.62v201.452
			c0,4.208,3.412,7.62,7.62,7.62h38.172v52.588c0,18.982,15.388,34.37,34.37,34.37h321.467c18.982,0,34.37-15.388,34.37-34.37
			v-81.694C435.999,305.331,432.587,301.919,428.379,301.919z M45.792,323.405H15.239V137.193h30.553V323.405z"/>
	</g>
</g>
<g>
	<g>
		<path d="M506.332,86.644c-2.172-0.586-4.498-0.094-6.368,1.155l-35.897,23.994H333.804c-0.013,0-0.026,0.001-0.04,0.001h-193.56
			c-4.208,0-7.62,3.412-7.62,7.62s3.412,7.62,7.62,7.62H295.31c-11.226,10.511-18.174,25.538-17.879,42.16
			c0.548,30.881,26.342,55.365,57.227,55.365h86.103v49.42c0,4.208,3.412,7.62,7.62,7.62s7.62-3.412,7.62-7.62v-49.42h28.068
			l36.078,24.116c1.277,0.853,2.753,1.285,4.235,1.285c1.368,0,2.743-0.369,3.966-1.113c2.34-1.425,3.652-4.075,3.652-6.815V94.013
			C512,90.623,509.75,87.566,506.332,86.644z M458.759,209.319H333.804c-22.687,0-41.144-18.457-41.144-41.143
			c0-22.674,18.435-41.122,41.103-41.143l124.996-0.001V209.319z M496.761,228.082l-22.761-15.214v-89.382l22.761-15.214V228.082z"
			/>
	</g>
</g>
<g>
	<g>
		<path d="M289.259,227.605H110.153c-17.001,0-30.832,13.831-30.832,30.832v101.39c0,17,13.831,30.831,30.832,30.831h179.106
			c17,0,30.832-13.831,30.832-30.831v-101.39C320.091,241.436,306.26,227.605,289.259,227.605z M304.851,359.827
			c0,8.597-6.995,15.592-15.593,15.592H110.153c-8.598,0-15.593-6.995-15.593-15.592v-101.39c0-8.598,6.995-15.593,15.593-15.593
			h179.106c8.598,0,15.592,6.995,15.592,15.593V359.827z"/>
	</g>
</g>
<g>
	<g>
		<path d="M119.702,168.175h-18.286c-12.183,0-22.096,9.913-22.096,22.097c0,12.184,9.913,22.096,22.096,22.096h18.286
			c12.183,0,22.096-9.912,22.096-22.096C141.798,178.088,131.886,168.175,119.702,168.175z M119.702,197.129h-18.286
			c-3.781,0-6.857-3.076-6.857-6.857c0-3.781,3.075-6.858,6.857-6.858h18.286c3.781,0,6.857,3.076,6.857,6.858
			C126.559,194.052,123.484,197.129,119.702,197.129z"/>
	</g>
</g>
<g>
	<g>
		<path d="M190.053,168.175h-18.286c-12.183,0-22.096,9.913-22.096,22.097c0,12.184,9.913,22.096,22.096,22.096h18.286
			c12.183,0,22.096-9.912,22.096-22.096C212.149,178.088,202.236,168.175,190.053,168.175z M190.053,197.129h-18.286
			c-3.78,0-6.857-3.076-6.857-6.857c0-3.781,3.075-6.858,6.857-6.858h18.286c3.781,0,6.857,3.076,6.857,6.858
			C196.91,194.052,193.834,197.129,190.053,197.129z"/>
	</g>
</g>
<g>
</g>
<g>
</g>
<g>
</g>
<g>
</g>
<g>
</g>
<g>
</g>
<g>
</g>
<g>
</g>
<g>
</g>
<g>
</g>
<g>
</g>
<g>
</g>
<g>
</g>
<g>
</g>
<g>
</g>
</svg>
