<?xml version="1.0" encoding="iso-8859-1"?>
<!-- Generator: Adobe Illustrator 19.0.0, SVG Export Plug-In . SVG Version: 6.00 Build 0)  -->
<svg version="1.1" id="Capa_1" xmlns="http://www.w3.org/2000/svg" xmlns:xlink="http://www.w3.org/1999/xlink" x="0px" y="0px"
	 viewBox="0 0 511.999 511.999" style="enable-background:new 0 0 511.999 511.999;" xml:space="preserve">
<g>
	<g>
		<path d="M396.97,16.048H156.246c-63.529,0-115.029,51.5-115.029,115.029v44.945c0,4.207,3.411,7.618,7.618,7.618
			s7.618-3.411,7.618-7.618v-43.673c0-54.94,43.871-100.528,98.809-101.06c55.476-0.537,100.777,44.435,100.777,99.788v131.788
			h-68.56H56.453v-51.29c0-4.207-3.411-7.618-7.618-7.618c-4.207,0-7.618,3.411-7.618,7.618v51.29H7.618
			c-4.207,0-7.618,3.411-7.618,7.618v27.425c0,4.207,3.411,7.618,7.618,7.618h213.379v182.807c0,4.207,3.411,7.618,7.618,7.618
			h86.843c4.207,0,7.618-3.411,7.618-7.618V305.527h54.847c4.207,0,7.618-3.411,7.618-7.618s-3.411-7.618-7.618-7.618h-62.465
			h-85.395v-12.188h33.594h233.105v12.188h-83.286c-4.207,0-7.618,3.411-7.618,7.618s3.411,7.618,7.618,7.618h90.905
			c4.207,0,7.618-3.411,7.618-7.618v-27.425V131.078C512,67.548,460.499,16.048,396.97,16.048z M214.827,290.289H15.24v-12.188
			h33.595h138.644h27.347V290.289z M274.323,305.527h33.517v175.189h-33.517V305.527z M236.234,305.527h22.853v175.189h-22.853
			V305.527z M496.764,262.865H271.276V131.077c0-42.635-23.315-79.925-57.864-99.794H396.97c55.027,0,99.794,44.767,99.794,99.794
			V262.865z"/>
	</g>
</g>
<g>
	<g>
		<path d="M451.818,127.267H297.175c-4.208,0-7.618,3.411-7.618,7.618v33.519c0,4.207,3.41,7.618,7.618,7.618h103.008v60.943
			c0,4.207,3.41,7.618,7.618,7.618h67.63c4.208,0,7.618-3.411,7.618-7.618v-78.464C483.052,141.279,469.04,127.267,451.818,127.267z
			 M467.815,229.347h-52.394v-60.943c0-4.207-3.41-7.618-7.618-7.618H304.795v-18.283h147.023c8.821,0,15.997,7.176,15.997,15.997
			V229.347z"/>
	</g>
</g>
<g>
</g>
<g>
</g>
<g>
</g>
<g>
</g>
<g>
</g>
<g>
</g>
<g>
</g>
<g>
</g>
<g>
</g>
<g>
</g>
<g>
</g>
<g>
</g>
<g>
</g>
<g>
</g>
<g>
</g>
</svg>
