<?xml version="1.0" encoding="iso-8859-1"?>
<!-- Generator: Adobe Illustrator 19.0.0, SVG Export Plug-In . SVG Version: 6.00 Build 0)  -->
<svg version="1.1" id="Capa_1" xmlns="http://www.w3.org/2000/svg" xmlns:xlink="http://www.w3.org/1999/xlink" x="0px" y="0px"
	 viewBox="0 0 512 512" style="enable-background:new 0 0 512 512;" xml:space="preserve">
<g>
	<g>
		<path d="M397.448,16.056c-0.067-0.002-0.132-0.01-0.199-0.01h-76.94c-0.053,0-0.104,0.004-0.156,0.004H156.247
			c-63.529,0-115.03,51.5-115.03,115.03v131.788H7.618c-4.207,0-7.618,3.411-7.618,7.618v27.425c0,4.207,3.411,7.618,7.618,7.618
			h213.379v40.625c0,4.207,3.411,7.618,7.618,7.618c4.207,0,7.618-3.411,7.618-7.618v-40.625h22.854v175.189h-22.854v-99.01
			c0-4.207-3.411-7.618-7.618-7.618c-4.207,0-7.618,3.411-7.618,7.618v106.629c0,4.207,3.411,7.618,7.618,7.618h86.844
			c4.207,0,7.618-3.411,7.618-7.618V305.529h181.304c4.207,0,7.618-3.411,7.618-7.618v-27.425V131.08
			C512,67.812,460.656,16.316,397.448,16.056z M56.453,131.08c0-55.026,44.768-99.794,99.794-99.794
			c32.44,0,61.31,15.563,79.548,39.611H101.682c-4.207,0-7.618,3.411-7.618,7.618v184.353H56.453V131.08z M119.754,86.134h125.575
			c6.846,13.516,10.711,28.788,10.711,44.946v94.784L119.754,86.134z M201.642,191.913l-92.342,64.02V97.237L201.642,191.913z
			 M214.827,290.292H15.24v-12.188h33.595H187.48h27.346V290.292z M126.041,262.866l86.39-59.893l43.611,44.713v15.181H126.041z
			 M307.841,480.718h-33.517V305.529h33.517V480.718z M496.764,290.293H315.459h-85.396v-12.188h33.595h233.105V290.293z
			 M496.764,262.867H271.277V131.08c0-42.635-23.315-79.925-57.864-99.794h80.082c-2.802,4.682-4.419,10.152-4.419,15.993v154.642
			c0,4.207,3.411,7.618,7.618,7.618h33.518c4.207,0,7.618-3.411,7.618-7.618V98.913h10.158c4.207,0,7.618-3.411,7.618-7.618
			s-3.411-7.618-7.618-7.618h-17.776c-4.207,0-7.618,3.411-7.618,7.618v103.008h-18.282V47.28c0-8.794,7.135-15.951,15.919-15.993
			h69.4v52.39h-6.091c-4.207,0-7.618,3.411-7.618,7.618s3.411,7.618,7.618,7.618h13.709c4.207,0,7.618-3.411,7.618-7.618V31.598
			c51.349,4.04,91.896,47.113,91.896,99.481V262.867z"/>
	</g>
</g>
<g>
</g>
<g>
</g>
<g>
</g>
<g>
</g>
<g>
</g>
<g>
</g>
<g>
</g>
<g>
</g>
<g>
</g>
<g>
</g>
<g>
</g>
<g>
</g>
<g>
</g>
<g>
</g>
<g>
</g>
</svg>
