<?xml version="1.0" encoding="iso-8859-1"?>
<!-- Generator: Adobe Illustrator 19.0.0, SVG Export Plug-In . SVG Version: 6.00 Build 0)  -->
<svg version="1.1" id="Capa_1" xmlns="http://www.w3.org/2000/svg" xmlns:xlink="http://www.w3.org/1999/xlink" x="0px" y="0px"
	 viewBox="0 0 512.001 512.001" style="enable-background:new 0 0 512.001 512.001;" xml:space="preserve">
<g>
	<g>
		<path d="M468.171,123.731h-6.398c-3.788-6.246-12.008-9.553-19.797-10.022c-5.33-0.32-10.757-0.484-16.133-0.484
			c-25.502,0-50.106,3.54-73.175,10.506h-0.603v-8.162c0-0.182-0.01-0.362-0.014-0.543c18.32-16.332,34.425-35.884,47.864-58.127
			c2.786-4.611,5.455-9.341,7.929-14.058c4.92-9.373,5.794-22.133-3.913-27.999c-9.703-5.866-20.597,0.84-26.607,9.555
			c-3.03,4.394-5.978,8.955-8.759,13.558c-11.264,18.641-19.978,38.058-26.004,57.873c-4.329-3.471-9.816-5.555-15.784-5.555h-20.87
			c3.334-16.541,5.024-33.716,5.024-51.319c0-5.361-0.162-10.79-0.485-16.134c-0.637-10.566-6.488-21.939-17.831-21.939
			s-17.194,11.372-17.831,21.939c-0.321,5.327-0.485,10.755-0.485,16.135c0,17.603,1.69,34.777,5.024,51.319h-38.41
			c-5.919-17.891-14.038-35.423-24.248-52.318c-2.778-4.597-5.724-9.158-8.759-13.558c-6.009-8.714-16.899-15.42-26.608-9.556
			c-9.709,5.867-8.835,18.627-3.915,27.999c2.479,4.724,5.147,9.453,7.929,14.058c7.268,12.028,15.321,23.262,24.076,33.634
			c-11.98,1.709-21.275,11.841-21.685,24.187c-9.292-0.991-18.741-1.494-28.318-1.494c-2.221,0-4.452,0.034-6.681,0.09V97.878
			c0-4.199-3.405-7.604-7.604-7.604H55.387c-4.199,0-7.604,3.405-7.604,7.604v25.853h-3.954C19.662,123.731,0,143.393,0,167.56
			v64.142v180.965v14.989c0,24.167,19.662,43.829,43.829,43.829h135.303c31.188,24.796,70.633,39.633,113.48,39.633
			c42.849,0,82.292-14.837,113.482-39.633h62.078c24.167,0,43.829-19.662,43.829-43.829V167.56
			C512,143.393,492.337,123.731,468.171,123.731z M381.58,45.82c2.624-4.342,5.404-8.645,8.261-12.789
			c2.795-4.052,5.351-5.138,6.189-5.138c0.004,0,0.009,0,0.013,0c0.393,0.724,0.635,3.499-1.666,7.881
			c-2.335,4.449-4.851,8.911-7.48,13.261c-6.961,11.52-14.67,22.263-23.057,32.151C368.692,69.162,374.62,57.339,381.58,45.82z
			 M425.843,128.433c5.072,0,10.192,0.153,15.218,0.456c4.94,0.297,7.19,1.94,7.606,2.65c-0.416,0.711-2.667,2.353-7.606,2.65
			c-5.024,0.303-10.144,0.456-15.218,0.456c-13.459,0-26.642-1.04-39.442-3.107C399.2,129.475,412.382,128.433,425.843,128.433z
			 M289.965,23.736c0.298-4.941,1.94-7.19,2.65-7.606c0.711,0.416,2.352,2.665,2.65,7.605c0.303,5.041,0.456,10.161,0.456,15.22
			c0,13.459-1.04,26.642-3.106,39.443c-2.066-12.8-3.106-25.983-3.106-39.443C289.509,33.881,289.662,28.76,289.965,23.736z
			 M198.334,49.035c-2.626-4.345-5.142-8.807-7.481-13.262c-2.3-4.382-2.058-7.157-1.665-7.88c0.818-0.048,3.392,1.066,6.202,5.138
			c2.862,4.15,5.641,8.453,8.262,12.79c6.961,11.52,12.888,23.34,17.741,35.365C213.003,71.298,205.295,60.553,198.334,49.035z
			 M202.894,115.57c0-5.562,4.525-10.088,10.088-10.088h10.111c3.406,3.416,6.896,6.717,10.474,9.891
			c1.427,1.267,3.232,1.917,5.049,1.917c1.354,0,2.714-0.361,3.931-1.096c2.85-1.723,4.248-5.099,3.449-8.332
			c-0.197-0.795-0.409-1.587-0.613-2.381h37.516c0.768,2.846,1.585,5.672,2.456,8.473c0.99,3.18,3.932,5.347,7.261,5.347
			c3.329,0,6.273-2.167,7.261-5.347c0.871-2.801,1.687-5.627,2.456-8.473h24.444c5.557,0,10.078,4.525,10.078,10.088v8.162h-104.29
			c-9.639-2.91-19.542-5.227-29.671-6.931V115.57z M159.389,128.433c13.46,0,26.641,1.041,39.442,3.106
			c-12.8,2.066-25.982,3.107-39.442,3.107c-5.074,0-10.195-0.153-15.218-0.456c-4.941-0.297-7.19-1.94-7.606-2.65
			c0.416-0.711,2.665-2.353,7.605-2.65C149.197,128.588,154.317,128.433,159.389,128.433z M62.991,105.482H137.5v9.093
			c-5.811,1.41-11.185,4.448-14.04,9.156H62.991V105.482z M15.208,239.306h31.159c17.55,0,31.828,14.278,31.828,31.828v102.102
			c0,17.55-14.278,31.828-31.828,31.828H15.208V239.306z M43.829,456.278c-15.807,0-28.621-12.814-28.621-28.621v-7.385h31.159
			c25.977,0,47.036-21.059,47.036-47.036V271.134c0-25.977-21.059-47.036-47.036-47.036H15.208v-27.37h40.554
			c4.199,0,7.603-3.405,7.603-7.603v-0.001c0-4.199-3.405-7.603-7.603-7.603H15.208v-13.96c0-15.807,12.814-28.621,28.621-28.621
			h11.558h67.828c3.67,6.514,12.083,9.952,20.04,10.432c5.327,0.321,10.755,0.485,16.134,0.485c26.001,0,51.077-3.675,74.542-10.916
			h110.528h6.841c23.464,7.241,48.539,10.916,74.542,10.916c5.379,0,10.806-0.163,16.133-0.485
			c7.958-0.48,16.372-3.919,20.041-10.432h6.154c15.807,0,28.621,12.814,28.621,28.621v13.96h-95.777
			c-30.343-22.446-67.848-35.738-108.402-35.738s-78.058,13.292-108.401,35.738H91.247c-4.199,0-7.603,3.405-7.603,7.603v0.001
			c0,4.199,3.405,7.603,7.603,7.603h74.941c-34.644,33.264-56.243,80.016-56.243,131.722c0,49.721,19.977,94.857,52.314,127.828
			H43.829z M292.612,495.911c-92.336,0-167.458-75.122-167.458-167.459s75.122-167.46,167.458-167.46
			c92.337,0,167.461,75.122,167.461,167.46S384.949,495.911,292.612,495.911z M496.792,427.656c0,15.782-12.84,28.621-28.621,28.621
			h-45.205c32.338-32.971,52.315-78.107,52.315-127.828c0-51.706-21.599-98.459-56.243-131.722h77.754V427.656z"/>
	</g>
</g>
<g>
	<g>
		<path d="M291.449,179.071c-81.254,0.621-147.594,66.961-148.215,148.215c-0.635,82.906,66.621,150.554,149.378,150.554
			c33.081,0,65.168-10.982,91.219-31.075c3.458-2.667,3.975-7.691,1.125-11c-2.632-3.056-7.194-3.526-10.388-1.063
			c-23.401,18.059-52.231,27.929-81.958,27.929c-74.331,0-134.739-60.761-134.17-135.227
			c0.558-72.982,60.142-132.57,133.125-133.128c74.467-0.571,135.23,59.838,135.23,134.17c0,30.083-10.078,59.182-28.514,82.713
			c-2.487,3.174-2.047,7.739,0.99,10.392c3.289,2.874,8.317,2.391,11.01-1.049c20.51-26.195,31.723-58.579,31.723-92.056
			C442.003,245.693,374.354,178.437,291.449,179.071z"/>
	</g>
</g>
<g>
	<g>
		<path d="M292.612,265.566c-34.675,0-62.885,28.21-62.885,62.885c0,34.675,28.21,62.886,62.885,62.886
			c34.675,0,62.886-28.211,62.886-62.886C355.497,293.776,327.287,265.566,292.612,265.566z M292.613,376.129
			c-26.289,0-47.677-21.388-47.677-47.678c0-26.289,21.388-47.677,47.677-47.677c26.289-0.001,47.678,21.387,47.678,47.677
			C340.29,354.74,318.902,376.129,292.613,376.129z"/>
	</g>
</g>
<g>
</g>
<g>
</g>
<g>
</g>
<g>
</g>
<g>
</g>
<g>
</g>
<g>
</g>
<g>
</g>
<g>
</g>
<g>
</g>
<g>
</g>
<g>
</g>
<g>
</g>
<g>
</g>
<g>
</g>
</svg>
