<?xml version="1.0" encoding="iso-8859-1"?>
<!-- Generator: Adobe Illustrator 19.0.0, SVG Export Plug-In . SVG Version: 6.00 Build 0)  -->
<svg version="1.1" id="Capa_1" xmlns="http://www.w3.org/2000/svg" xmlns:xlink="http://www.w3.org/1999/xlink" x="0px" y="0px"
	 viewBox="0 0 512 512" style="enable-background:new 0 0 512 512;" xml:space="preserve">
<g>
	<g>
		<path d="M397.448,16.056c-0.067-0.002-0.132-0.01-0.199-0.01h-76.94c-0.053,0-0.104,0.004-0.156,0.004H156.247
			c-63.427,0-115.03,51.602-115.03,115.03v131.788H7.618c-4.207,0-7.618,3.411-7.618,7.618v27.425c0,4.207,3.411,7.618,7.618,7.618
			h213.379v182.807c0,4.207,3.411,7.618,7.618,7.618h86.844c4.207,0,7.618-3.411,7.618-7.618V305.529h181.304
			c4.207,0,7.618-3.411,7.618-7.618v-27.425V131.08C512,67.812,460.656,16.315,397.448,16.056z M304.312,47.28
			c0-8.794,7.135-15.951,15.918-15.993h69.4v52.39h-59.419c-4.207,0-7.618,3.411-7.618,7.618v103.008h-18.281V47.28z
			 M214.827,290.292H15.24v-12.188h33.595h165.992V290.292z M56.453,262.868V131.08c0-55.026,44.768-99.794,99.794-99.794
			s99.794,44.767,99.794,99.794v131.788H56.453z M259.087,480.718h-22.854V305.529h22.854V480.718z M307.841,480.718h-33.518
			V305.529h33.518V480.718z M496.764,290.293L496.764,290.293H315.459h-85.396v-12.188h33.595h85.371
			c4.207,0,7.618-3.411,7.618-7.618c0-4.207-3.411-7.618-7.618-7.618h-77.753V131.08c0-42.635-23.315-79.925-57.864-99.794h80.082
			c-2.802,4.682-4.419,10.152-4.419,15.993v154.642c0,4.207,3.411,7.618,7.618,7.618h33.518c4.207,0,7.618-3.411,7.618-7.618V98.913
			h59.419c4.207,0,7.618-3.411,7.618-7.618V31.598c51.349,4.039,91.896,47.113,91.896,99.482v131.788H384.582
			c-4.207,0-7.618,3.411-7.618,7.618c0,4.207,3.411,7.618,7.618,7.618h112.182V290.293z"/>
	</g>
</g>
<g>
	<g>
		<path d="M156.247,54.024c-18.393,0-33.359,14.964-33.359,33.359c0,18.394,14.965,33.359,33.359,33.359
			s33.358-14.964,33.358-33.359C189.604,68.989,174.64,54.024,156.247,54.024z M156.247,105.505
			c-9.992,0-18.122-8.129-18.122-18.122c0-9.993,8.13-18.122,18.122-18.122s18.121,8.129,18.121,18.122
			C174.368,97.376,166.239,105.505,156.247,105.505z"/>
	</g>
</g>
<g>
	<g>
		<path d="M221.255,156.963H91.238c-4.207,0-7.618,3.411-7.618,7.618c0,4.207,3.411,7.618,7.618,7.618h130.018
			c4.207,0,7.618-3.411,7.618-7.618C228.874,160.374,225.463,156.963,221.255,156.963z"/>
	</g>
</g>
<g>
	<g>
		<path d="M199.6,197.593h-86.708c-4.207,0-7.618,3.411-7.618,7.618s3.411,7.618,7.618,7.618H199.6c4.207,0,7.618-3.411,7.618-7.618
			S203.809,197.593,199.6,197.593z"/>
	</g>
</g>
<g>
</g>
<g>
</g>
<g>
</g>
<g>
</g>
<g>
</g>
<g>
</g>
<g>
</g>
<g>
</g>
<g>
</g>
<g>
</g>
<g>
</g>
<g>
</g>
<g>
</g>
<g>
</g>
<g>
</g>
</svg>
