<?xml version="1.0" encoding="iso-8859-1"?>
<!-- Generator: Adobe Illustrator 19.0.0, SVG Export Plug-In . SVG Version: 6.00 Build 0)  -->
<svg version="1.1" id="Capa_1" xmlns="http://www.w3.org/2000/svg" xmlns:xlink="http://www.w3.org/1999/xlink" x="0px" y="0px"
	 viewBox="0 0 512.001 512.001" style="enable-background:new 0 0 512.001 512.001;" xml:space="preserve">
<g>
	<g>
		<path d="M468.171,79.034H409.6c-4.199,0-7.604,3.405-7.604,7.604s3.405,7.604,7.604,7.604h58.572
			c15.807,0,28.621,12.814,28.621,28.621v13.961h-95.778c-30.343-22.446-67.848-35.738-108.401-35.738
			c-40.553,0-78.059,13.292-108.401,35.738H15.208v-13.961c0-15.807,12.814-28.621,28.621-28.621h11.555h89.723h50.184h149.172
			h29.65c4.199,0,7.604-3.405,7.604-7.604s-3.405-7.604-7.604-7.604h-22.046V70.87c0-13.968-11.324-25.292-25.292-25.292H212.977
			c-13.968,0-25.291,11.323-25.291,25.291v8.164H152.71v-25.85c0-4.199-3.405-7.604-7.604-7.604H55.384
			c-4.199,0-7.604,3.405-7.604,7.604v25.851h-3.951C19.623,79.034,0,98.657,0,122.863v64.143v180.965v14.988
			c0,24.206,19.623,43.829,43.829,43.829H179.13c31.188,24.797,70.634,39.634,113.482,39.634c42.849,0,82.293-14.837,113.483-39.634
			h62.077c24.206,0,43.829-19.623,43.829-43.829V122.863C512,98.657,492.377,79.034,468.171,79.034z M202.894,70.87
			c0-5.56,4.523-10.084,10.083-10.084h113.798c5.56,0,10.084,4.524,10.084,10.084v8.164H202.894V70.87z M62.988,60.787h74.515
			v18.247H62.988V60.787z M43.829,411.581c-15.807,0-28.621-12.814-28.621-28.621v-7.384h31.159
			c25.977,0,47.036-21.059,47.036-47.036v-55.717c0-4.199-3.405-7.604-7.604-7.604c-4.199,0-7.604,3.405-7.604,7.604v55.717
			c0,17.578-14.25,31.828-31.828,31.828H15.208V194.61h31.159c17.578,0,31.828,14.25,31.828,31.828v10.899
			c0,4.199,3.405,7.604,7.604,7.604c4.199,0,7.604-3.405,7.604-7.604v-10.899c0-25.977-21.059-47.036-47.036-47.036H15.208v-27.37
			h150.98c-34.644,33.264-56.243,80.017-56.243,131.723c0,49.72,19.976,94.855,52.313,127.826H43.829z M292.613,451.214
			c-92.337,0-167.459-75.122-167.459-167.459s75.122-167.459,167.459-167.459s167.459,75.122,167.459,167.459
			S384.95,451.214,292.613,451.214z M496.792,382.959c0,15.782-12.84,28.621-28.621,28.621h-45.204
			c32.337-32.971,52.313-78.106,52.313-127.826c0-51.706-21.599-98.459-56.243-131.723h77.755V382.959z"/>
	</g>
</g>
<g>
	<g>
		<path d="M292.613,134.367c-82.373,0-149.388,67.015-149.388,149.388s67.015,149.388,149.388,149.388
			s149.388-67.015,149.388-149.388S374.985,134.367,292.613,134.367z M292.613,417.934c-73.988,0-134.18-60.193-134.18-134.18
			s60.193-134.18,134.18-134.18s134.181,60.193,134.181,134.18S366.599,417.934,292.613,417.934z"/>
	</g>
</g>
<g>
	<g>
		<path d="M292.613,220.869c-34.675,0-62.886,28.211-62.886,62.886s28.211,62.886,62.886,62.886
			c34.675,0,62.886-28.211,62.886-62.886S327.288,220.869,292.613,220.869z M292.613,331.433c-26.289,0-47.678-21.388-47.678-47.678
			s21.388-47.678,47.678-47.678c26.289,0,47.678,21.388,47.678,47.678S318.902,331.433,292.613,331.433z"/>
	</g>
</g>
<g>
</g>
<g>
</g>
<g>
</g>
<g>
</g>
<g>
</g>
<g>
</g>
<g>
</g>
<g>
</g>
<g>
</g>
<g>
</g>
<g>
</g>
<g>
</g>
<g>
</g>
<g>
</g>
<g>
</g>
</svg>
