<?xml version="1.0" encoding="iso-8859-1"?>
<!-- Generator: Adobe Illustrator 19.0.0, SVG Export Plug-In . SVG Version: 6.00 Build 0)  -->
<svg version="1.1" id="Capa_1" xmlns="http://www.w3.org/2000/svg" xmlns:xlink="http://www.w3.org/1999/xlink" x="0px" y="0px"
	 viewBox="0 0 512 512" style="enable-background:new 0 0 512 512;" xml:space="preserve">
<g>
	<g>
		<path d="M324.156,230.727H187.843c-4.199,0-7.604,3.405-7.604,7.604v71.676c0,4.199,3.405,7.604,7.604,7.604h136.313
			c4.199,0,7.604-3.405,7.604-7.604v-71.676C331.76,234.132,328.355,230.727,324.156,230.727z M316.552,302.403H195.447v-56.468
			h121.105V302.403z"/>
	</g>
</g>
<g>
	<g>
		<path d="M504.396,247.057c-4.199,0-7.604,3.405-7.604,7.604v143.29H105.444c-4.199,0-7.604,3.405-7.604,7.604
			c0,4.199,3.405,7.604,7.604,7.604h398.952c4.199,0,7.604-3.405,7.604-7.604V254.661C512,250.461,508.595,247.057,504.396,247.057z
			"/>
	</g>
</g>
<g>
	<g>
		<path d="M504.396,98.841H7.604c-4.199,0-7.604,3.405-7.604,7.604v299.109c0,4.199,3.405,7.604,7.604,7.604h62.354
			c4.199,0,7.604-3.405,7.604-7.604c0-4.199-3.405-7.604-7.604-7.604h-54.75V189.602h19.784c4.199,0,7.604-3.405,7.604-7.604
			v-34.486h426.806v34.486c0,4.199,3.405,7.604,7.604,7.604h19.786v29.572c0,4.199,3.405,7.604,7.604,7.604s7.604-3.405,7.604-7.604
			V106.445C512,102.245,508.595,98.841,504.396,98.841z M496.792,174.395h-12.182v-0.001v-34.485c0-4.199-3.405-7.604-7.604-7.604
			H34.992c-4.199,0-7.604,3.405-7.604,7.604v34.485h-12.18v-60.345h481.584V174.395z"/>
	</g>
</g>
<g>
	<g>
		<path d="M462.471,207.107c-1.158-2.88-3.95-4.767-7.054-4.767H352.545h-193.09H56.58c-3.104,0-5.897,1.887-7.054,4.767
			c-18.147,45.127-18.147,89,0,134.126c1.159,2.879,3.951,4.767,7.054,4.767h102.877h193.089h102.871
			c3.104,0,5.897-1.887,7.054-4.767C480.616,296.106,480.616,252.234,462.471,207.107z M61.789,330.792
			c-14.15-38.048-14.15-75.196,0-113.244h12.697c-11.178,16.666-17.227,36.281-17.227,56.646c0,20.346,6.038,39.943,17.194,56.598
			H61.789z M151.851,312.248c-17.782-3.545-31.227-19.269-31.227-38.079s13.444-34.533,31.227-38.079V312.248z M151.851,220.676
			c-26.208,3.709-46.435,26.278-46.435,53.493c0,27.215,20.227,49.785,46.435,53.493v3.129H93.529
			c-13.597-15.746-21.061-35.711-21.061-56.598c0-20.908,7.48-40.893,21.105-56.646h58.279V220.676z M344.941,330.792H167.059
			V217.547h177.882V330.792z M425.531,217.547l-3.655,20.508c-3.976-7.618-9.186-14.558-15.434-20.508H425.531z M360.149,236.091
			c17.783,3.545,31.227,19.269,31.227,38.079s-13.445,34.533-31.227,38.079V236.091z M380.145,330.792H360.15v-3.129h-0.001
			c26.208-3.709,46.435-26.278,46.435-53.493s-20.228-49.785-46.435-53.493v-3.129h19.893c21.62,10.431,35.515,32.499,35.515,56.646
			C415.556,298.303,401.707,320.34,380.145,330.792z M450.206,330.792h-43.715c15.031-14.338,24.051-34.406,24.258-55.848
			l10.229-57.397h9.228C464.357,255.595,464.357,292.742,450.206,330.792z"/>
	</g>
</g>
<g>
</g>
<g>
</g>
<g>
</g>
<g>
</g>
<g>
</g>
<g>
</g>
<g>
</g>
<g>
</g>
<g>
</g>
<g>
</g>
<g>
</g>
<g>
</g>
<g>
</g>
<g>
</g>
<g>
</g>
</svg>
