<?xml version="1.0" encoding="iso-8859-1"?>
<!-- Generator: Adobe Illustrator 19.0.0, SVG Export Plug-In . SVG Version: 6.00 Build 0)  -->
<svg version="1.1" id="Capa_1" xmlns="http://www.w3.org/2000/svg" xmlns:xlink="http://www.w3.org/1999/xlink" x="0px" y="0px"
	 viewBox="0 0 512 512" style="enable-background:new 0 0 512 512;" xml:space="preserve">
<g>
	<g>
		<path d="M396.971,16.048H156.247c-63.427,0-115.029,51.602-115.029,115.03v131.788H7.618c-4.207,0-7.618,3.411-7.618,7.618v27.425
			c0,4.207,3.411,7.618,7.618,7.618h213.379v182.807c0,4.207,3.411,7.618,7.618,7.618h86.844c4.207,0,7.618-3.411,7.618-7.618
			V305.527h181.304c4.207,0,7.618-3.411,7.618-7.618v-27.425V131.078C512,67.65,460.398,16.048,396.971,16.048z M15.24,290.29
			v-12.188h33.595h138.644h27.346v12.188H15.24z M187.481,262.866H56.454V131.078c0-55.026,44.767-99.794,99.794-99.794
			c55.027,0,99.794,44.767,99.794,99.794v131.788H187.481z M307.841,480.716h-33.518V461.69c0-4.207-3.411-7.618-7.618-7.618
			s-7.618,3.411-7.618,7.618v19.025h-22.854V305.527h22.854v120.611c0,4.207,3.411,7.618,7.618,7.618s7.618-3.411,7.618-7.618
			V305.527h33.518V480.716z M496.764,290.291H315.459h-85.396v-12.188h33.595h233.105V290.291z M496.765,262.866H271.277V131.078
			c0-42.635-23.315-79.925-57.864-99.794h183.558c55.026,0,99.794,44.767,99.794,99.794V262.866z"/>
	</g>
</g>
<g>
	<g>
		<path d="M156.247,54.022c-18.393,0-33.359,14.964-33.359,33.359c0,18.394,14.965,33.359,33.359,33.359
			s33.358-14.964,33.358-33.359C189.604,68.987,174.64,54.022,156.247,54.022z M156.247,105.503
			c-9.992,0-18.122-8.129-18.122-18.122c0-9.993,8.13-18.122,18.122-18.122s18.121,8.129,18.121,18.122
			C174.368,97.374,166.239,105.503,156.247,105.503z"/>
	</g>
</g>
<g>
	<g>
		<path d="M221.255,156.961H91.238c-4.207,0-7.618,3.411-7.618,7.618s3.411,7.618,7.618,7.618h130.018
			c4.207,0,7.618-3.411,7.618-7.618C228.874,160.372,225.463,156.961,221.255,156.961z"/>
	</g>
</g>
<g>
	<g>
		<path d="M199.6,197.591h-86.708c-4.207,0-7.618,3.411-7.618,7.618s3.411,7.618,7.618,7.618H199.6c4.208,0,7.618-3.411,7.618-7.618
			S203.808,197.591,199.6,197.591z"/>
	</g>
</g>
<g>
	<g>
		<path d="M450.858,127.268H296.217c-4.207,0-7.618,3.411-7.618,7.618v33.519c0,4.207,3.411,7.618,7.618,7.618h37.012
			c4.207,0,7.618-3.411,7.618-7.618s-3.411-7.618-7.618-7.618h-29.394v-18.283h147.023c8.835,0,15.997,7.162,15.997,15.997v70.845
			h-52.394v-60.943c0-4.207-3.411-7.618-7.618-7.618h-38.062c-4.207,0-7.618,3.411-7.618,7.618s3.411,7.618,7.618,7.618h30.443
			v60.943c0,4.207,3.411,7.618,7.618,7.618h67.63c4.207,0,7.618-3.411,7.618-7.618v-78.464
			C482.092,141.252,468.108,127.268,450.858,127.268z"/>
	</g>
</g>
<g>
</g>
<g>
</g>
<g>
</g>
<g>
</g>
<g>
</g>
<g>
</g>
<g>
</g>
<g>
</g>
<g>
</g>
<g>
</g>
<g>
</g>
<g>
</g>
<g>
</g>
<g>
</g>
<g>
</g>
</svg>
