<?xml version="1.0" encoding="iso-8859-1"?>
<!-- Generator: Adobe Illustrator 19.0.0, SVG Export Plug-In . SVG Version: 6.00 Build 0)  -->
<svg version="1.1" id="Capa_1" xmlns="http://www.w3.org/2000/svg" xmlns:xlink="http://www.w3.org/1999/xlink" x="0px" y="0px"
	 viewBox="0 0 511.998 511.998" style="enable-background:new 0 0 511.998 511.998;" xml:space="preserve">
<g>
	<g>
		<path d="M384.023,217.689c-4.199,0-7.604,3.405-7.604,7.604v256.155h0c0.021,4.092-1.559,7.937-4.45,10.828
			c-2.893,2.891-6.736,4.455-10.87,4.45l-210.139,0.066c-8.445,0-15.316-6.871-15.316-15.319l-0.009-30.264
			c-0.001-4.199-3.407-7.603-7.606-7.602c-4.199,0.001-7.603,3.407-7.602,7.606l0.009,30.261c0,16.832,13.693,30.524,30.526,30.524
			l210.1-0.066c8.169,0.005,15.875-3.12,21.66-8.904c5.784-5.785,8.946-13.477,8.904-21.622V225.293
			C391.627,221.094,388.222,217.689,384.023,217.689z"/>
	</g>
</g>
<g>
	<g>
		<path d="M381.095,118.294L327.63,72.003c-4.892-4.262-11.144-6.827-17.861-7.348c5.097-12.703,4.482-27.137-2.118-39.586
			C299.379,9.466,282.863,0,265.204,0h-19.058c-17.611,0-33.624,9.694-41.79,25.298c-6.492,12.407-7.064,26.753-1.987,39.379
			c-6.571,0.397-12.884,2.982-17.918,7.377l-53.343,46.178c-6.823,5.761-10.738,14.199-10.738,23.153l0.053,274.448
			c0.001,4.199,3.406,7.603,7.605,7.603c4.199-0.001,7.603-3.406,7.603-7.605l-0.053-274.446c0-4.463,1.947-8.665,5.412-11.591
			l53.44-46.261c2.787-2.433,6.322-3.753,10.019-3.705l6.959-0.004l17.8,25.676c-7.639,8.07-11.252,18.998-9.788,30.335
			c0.839,6.496,3.45,12.686,7.51,17.827c8.065,10.213,20.402,15.375,33.327,13.964c6.728-0.735,13.165-3.362,18.493-7.534
			c19.396-15.19,19.017-44.628-1.138-59.261c-4.613-3.35-9.992-5.572-15.626-6.446c-7.097-1.101-14.058-0.199-20.295,2.431
			l-11.786-17.002l77.624-0.051c3.826,0.046,7.417,1.364,10.128,3.726l53.474,46.299c3.36,2.919,5.288,7.147,5.288,11.6v48.529
			c0,4.199,3.405,7.604,7.604,7.604c4.199,0,7.604-3.405,7.604-7.604v-48.532C391.627,132.524,387.791,124.111,381.095,118.294z
			 M256.064,109.128c1.832,0,3.622,0.249,5.353,0.685l-5.357,7.727l-5.355-7.725C252.439,109.378,254.23,109.128,256.064,109.128z
			 M238.203,118.475l11.608,16.744c1.42,2.049,3.756,3.272,6.249,3.272c2.493,0,4.829-1.223,6.248-3.272l11.609-16.744
			c5.899,8.48,5.09,20.244-2.466,27.798c-4.107,4.108-9.572,6.37-15.387,6.37c-5.815,0-11.28-2.262-15.388-6.37
			c-4.108-4.108-6.369-9.572-6.369-15.387C234.307,126.379,235.68,122.091,238.203,118.475z M292.761,64.561l-73.359,0.048
			c-6.433-9.811-7.044-21.8-1.57-32.26c5.616-10.733,16.202-17.14,28.315-17.14h19.838c12.11,0,22.692,6.406,28.308,17.134
			C299.761,42.787,299.161,54.757,292.761,64.561z"/>
	</g>
</g>
<g>
	<g>
		<path d="M325.655,259.212H186.341c-4.2,0-7.604,3.405-7.604,7.604c0,4.199,3.404,7.604,7.604,7.604h139.314
			c4.2,0,7.604-3.405,7.604-7.604C333.259,262.616,329.855,259.212,325.655,259.212z"/>
	</g>
</g>
<g>
	<g>
		<path d="M325.655,307.289H186.341c-4.2,0-7.604,3.405-7.604,7.604s3.404,7.604,7.604,7.604h139.314c4.2,0,7.604-3.405,7.604-7.604
			S329.855,307.289,325.655,307.289z"/>
	</g>
</g>
<g>
	<g>
		<path d="M325.655,355.367H186.341c-4.2,0-7.604,3.405-7.604,7.604c0,4.199,3.404,7.604,7.604,7.604h139.314
			c4.2,0,7.604-3.405,7.604-7.604C333.259,358.771,329.855,355.367,325.655,355.367z"/>
	</g>
</g>
<g>
	<g>
		<path d="M325.655,403.444H186.341c-4.2,0-7.604,3.405-7.604,7.604c0,4.199,3.404,7.604,7.604,7.604h139.314
			c4.2,0,7.604-3.405,7.604-7.604C333.259,406.848,329.855,403.444,325.655,403.444z"/>
	</g>
</g>
<g>
</g>
<g>
</g>
<g>
</g>
<g>
</g>
<g>
</g>
<g>
</g>
<g>
</g>
<g>
</g>
<g>
</g>
<g>
</g>
<g>
</g>
<g>
</g>
<g>
</g>
<g>
</g>
<g>
</g>
</svg>
