<?xml version="1.0" encoding="iso-8859-1"?>
<!-- Generator: Adobe Illustrator 19.0.0, SVG Export Plug-In . SVG Version: 6.00 Build 0)  -->
<svg version="1.1" id="Capa_1" xmlns="http://www.w3.org/2000/svg" xmlns:xlink="http://www.w3.org/1999/xlink" x="0px" y="0px"
	 viewBox="0 0 512 512" style="enable-background:new 0 0 512 512;" xml:space="preserve">
<g>
	<g>
		<path d="M339.104,172.919c-45.812-45.81-120.347-45.81-166.159,0c-45.81,45.81-45.81,120.348,0,166.157
			c22.906,22.905,52.992,34.358,83.079,34.358c30.086,0,60.174-11.453,83.08-34.358
			C384.914,293.266,384.914,218.728,339.104,172.919z M328.35,328.322c-39.879,39.88-104.77,39.88-144.649,0
			c-39.881-39.881-39.881-104.769,0-144.65c19.939-19.94,46.132-29.91,72.324-29.91s52.385,9.97,72.324,29.91
			C368.23,223.552,368.23,288.442,328.35,328.322z"/>
	</g>
</g>
<g>
	<g>
		<path d="M313.591,265.85h-0.003c-3.794-0.65-7.432,1.652-8.567,5.33c-2.449,7.93-6.782,15.125-12.739,21.081
			c-19.993,19.992-52.524,19.992-72.516,0c-19.993-19.993-19.993-52.525-0.001-72.518c19.994-19.992,52.526-19.993,72.517,0
			c5.942,5.943,10.268,13.11,12.714,20.997c1.141,3.675,4.776,5.975,8.569,5.323h0.002c4.55-0.781,7.328-5.394,5.964-9.804
			c-3.171-10.249-8.782-19.557-16.495-27.27c-25.923-25.922-68.102-25.922-94.026,0c-25.921,25.922-25.921,68.102,0.001,94.026
			c12.961,12.962,29.987,19.441,47.012,19.441c17.025,0,34.051-6.481,47.011-19.441c7.729-7.729,13.351-17.069,16.523-27.364
			C320.919,271.239,318.141,266.629,313.591,265.85z"/>
	</g>
</g>
<g>
	<g>
		<path d="M437.023,74.992c-48.345-48.345-112.625-74.97-180.999-74.97S123.37,26.647,75.025,74.992
			c-12.565,12.563-23.778,26.36-33.408,41.095c-2.34,3.58-1.22,8.393,2.431,10.621c3.519,2.147,8.086,1.084,10.343-2.366
			c9.048-13.834,19.582-26.791,31.388-38.595c45.472-45.472,105.932-70.515,170.245-70.515s124.772,25.042,170.245,70.513
			c45.477,45.477,70.523,105.94,70.523,170.251s-25.044,124.773-70.523,170.251c-45.472,45.477-105.932,70.523-170.245,70.523
			S131.251,471.724,85.78,426.247C49.249,389.716,25.824,343.502,18.038,292.6c-7.256-47.436-0.476-95.039,19.61-138.156
			c1.741-3.738,0.23-8.179-3.453-10.034c-3.819-1.922-8.496-0.33-10.303,3.547C2.509,193.82-4.714,244.452,3.003,294.9
			c8.281,54.126,33.185,103.264,72.021,142.101c48.346,48.35,112.625,74.977,181,74.977c68.375,0,132.654-26.627,181-74.977
			C485.374,388.651,512,324.37,512,255.997C512,187.623,485.373,123.342,437.023,74.992z"/>
	</g>
</g>
<g>
</g>
<g>
</g>
<g>
</g>
<g>
</g>
<g>
</g>
<g>
</g>
<g>
</g>
<g>
</g>
<g>
</g>
<g>
</g>
<g>
</g>
<g>
</g>
<g>
</g>
<g>
</g>
<g>
</g>
</svg>
