<?xml version="1.0" encoding="iso-8859-1"?>
<!-- Generator: Adobe Illustrator 19.0.0, SVG Export Plug-In . SVG Version: 6.00 Build 0)  -->
<svg version="1.1" id="Capa_1" xmlns="http://www.w3.org/2000/svg" xmlns:xlink="http://www.w3.org/1999/xlink" x="0px" y="0px"
	 viewBox="0 0 512 512" style="enable-background:new 0 0 512 512;" xml:space="preserve">
<g>
	<g>
		<path d="M339.085,172.908c-22.191-22.196-51.697-34.42-83.085-34.42c-31.388,0-60.895,12.224-83.085,34.419
			c-22.196,22.19-34.419,51.695-34.419,83.082c0,31.385,12.224,60.893,34.418,83.089c22.263,22.263,52.464,34.381,83.302,34.379
			c7.291,0,14.619-0.678,21.885-2.059c4.318-0.82,7.019-5.159,5.9-9.409c-1.019-3.871-4.861-6.268-8.794-5.522
			c-33.063,6.271-67.586-4.191-91.537-28.143c-19.324-19.323-29.965-45.011-29.965-72.333c0-27.322,10.641-53.008,29.965-72.327
			c19.318-19.323,45.005-29.964,72.329-29.964s53.011,10.642,72.33,29.965c19.323,19.318,29.964,45.003,29.964,72.326
			S347.652,309,328.328,328.323c-6.635,6.636-14.056,12.273-22.128,16.82c-3.501,1.972-4.922,6.281-3.201,9.912
			c1.877,3.961,6.725,5.554,10.547,3.407c9.325-5.236,17.889-11.735,25.539-19.384c22.195-22.195,34.418-51.704,34.418-83.089
			C373.503,224.603,361.279,195.097,339.085,172.908z"/>
	</g>
</g>
<g>
	<g>
		<path d="M303.02,208.971c-25.926-25.926-68.112-25.926-94.038,0c-25.925,25.926-25.925,68.111,0,94.037
			c12.963,12.963,29.991,19.444,47.019,19.444s34.056-6.481,47.019-19.444c12.559-12.559,19.476-29.258,19.476-47.019
			S315.579,221.529,303.02,208.971z M292.263,292.252c-19.995,19.995-52.532,19.995-72.526,0c-19.996-19.996-19.996-52.532,0-72.527
			c9.997-9.997,23.131-14.997,36.263-14.997c13.132,0,26.266,4.999,36.263,14.997c9.688,9.687,15.021,22.564,15.021,36.263
			C307.286,269.688,301.951,282.567,292.263,292.252z"/>
	</g>
</g>
<g>
	<g>
		<path d="M437.016,74.966c-26.502-26.501-57.515-46.379-92.279-59.164c-4.01-1.474-8.447,0.694-9.8,4.745v0.001
			c-1.308,3.915,0.755,8.131,4.629,9.558c32.653,12.022,61.789,30.708,86.695,55.614c45.482,45.482,70.529,105.95,70.529,170.267
			s-25.047,124.784-70.529,170.266c-45.477,45.482-105.942,70.529-170.261,70.529S131.216,471.734,85.74,426.253
			c-45.484-45.481-70.53-105.948-70.53-170.265S40.257,131.203,85.739,85.721c29.844-29.844,67.034-51.371,107.552-62.254
			c36.94-9.923,75.968-10.904,113.346-2.903c4.028,0.862,8.015-1.603,9-5.602l0.002-0.007c1.022-4.146-1.564-8.352-5.739-9.247
			c-39.752-8.521-81.265-7.483-120.555,3.07c-43.09,11.575-82.635,34.462-114.362,66.188C26.63,123.32,0,187.608,0,255.988
			s26.63,132.667,74.983,181.021c48.35,48.354,112.635,74.984,181.017,74.984s132.667-26.629,181.017-74.984
			C485.372,388.655,512,324.367,512,255.988S485.371,123.32,437.016,74.966z"/>
	</g>
</g>
<g>
</g>
<g>
</g>
<g>
</g>
<g>
</g>
<g>
</g>
<g>
</g>
<g>
</g>
<g>
</g>
<g>
</g>
<g>
</g>
<g>
</g>
<g>
</g>
<g>
</g>
<g>
</g>
<g>
</g>
</svg>
