<?xml version="1.0" encoding="iso-8859-1"?>
<!-- Generator: Adobe Illustrator 19.0.0, SVG Export Plug-In . SVG Version: 6.00 Build 0)  -->
<svg version="1.1" id="Capa_1" xmlns="http://www.w3.org/2000/svg" xmlns:xlink="http://www.w3.org/1999/xlink" x="0px" y="0px"
	 viewBox="0 0 512 512" style="enable-background:new 0 0 512 512;" xml:space="preserve">
<g>
	<g>
		<path d="M389.217,288.639h-263.66c-4.199,0-7.604,3.405-7.604,7.604c0,4.199,3.405,7.604,7.604,7.604h263.661
			c4.2,0,7.604-3.405,7.604-7.604C396.822,292.044,393.418,288.639,389.217,288.639z"/>
	</g>
</g>
<g>
	<g>
		<path d="M389.217,338.596h-263.66c-4.199,0-7.604,3.405-7.604,7.604c0,4.199,3.405,7.604,7.604,7.604h263.661
			c4.2,0,7.604-3.405,7.604-7.604C396.822,342.001,393.418,338.596,389.217,338.596z"/>
	</g>
</g>
<g>
	<g>
		<path d="M389.217,388.552h-263.66c-4.199,0-7.604,3.405-7.604,7.604s3.405,7.604,7.604,7.604h263.661
			c4.2,0,7.604-3.405,7.604-7.604S393.418,388.552,389.217,388.552z"/>
	</g>
</g>
<g>
	<g>
		<path d="M509.774,66.487l-64.26-64.26C444.088,0.801,442.153,0,440.136,0h-19.002H135.271H70.974
			c-4.199,0-7.604,3.405-7.604,7.604s3.405,7.604,7.604,7.604h56.693v156.791c0,13.038,10.569,23.609,23.609,23.609h253.855
			c13.038,0,23.608-10.569,23.608-23.608V15.208h8.249l59.805,59.805v421.78h-68.053v-227.05c0-14.088-11.42-25.509-25.509-25.509
			h-56.486c-4.199,0-7.604,3.405-7.604,7.604c0,4.199,3.405,7.604,7.604,7.604h56.486c5.689,0,10.301,4.612,10.301,10.301V431.57
			H97.081V269.742c0-5.689,4.612-10.301,10.301-10.301h203.875c4.199,0,7.604-3.405,7.604-7.604c0-4.199-3.405-7.604-7.604-7.604
			H107.382c-14.088,0-25.509,11.42-25.509,25.509v227.05H15.208V15.208h20.279c4.199,0,7.604-3.405,7.604-7.604S39.687,0,35.487,0
			H7.604C3.405,0,0,3.405,0,7.604v496.792C0,508.595,3.405,512,7.604,512h81.873h331.657h83.261c4.199,0,7.604-3.405,7.604-7.604
			V71.864C512,69.847,511.199,67.912,509.774,66.487z M413.531,171.999c0,4.632-3.769,8.401-8.4,8.401H151.276
			c-4.632,0-8.401-3.769-8.401-8.401V15.208h270.655V171.999z M413.531,496.792H97.081v-50.014h316.449V496.792z"/>
	</g>
</g>
<g>
	<g>
		<path d="M372.565,30.529h-86.036c-4.2,0-7.604,3.405-7.604,7.604v118.916c0,4.199,3.405,7.604,7.604,7.604h86.036
			c4.2,0,7.604-3.405,7.604-7.604V38.133C380.169,33.934,376.765,30.529,372.565,30.529z M364.961,149.445h-70.828V45.737h70.828
			V149.445z"/>
	</g>
</g>
<g>
</g>
<g>
</g>
<g>
</g>
<g>
</g>
<g>
</g>
<g>
</g>
<g>
</g>
<g>
</g>
<g>
</g>
<g>
</g>
<g>
</g>
<g>
</g>
<g>
</g>
<g>
</g>
<g>
</g>
</svg>
