<?xml version="1.0" encoding="iso-8859-1"?>
<!-- Generator: Adobe Illustrator 19.0.0, SVG Export Plug-In . SVG Version: 6.00 Build 0)  -->
<svg version="1.1" id="Capa_1" xmlns="http://www.w3.org/2000/svg" xmlns:xlink="http://www.w3.org/1999/xlink" x="0px" y="0px"
	 viewBox="0 0 512 512" style="enable-background:new 0 0 512 512;" xml:space="preserve">
<g>
	<g>
		<path d="M443.765,2.596H68.236C30.55,2.596,0,33.147,0,70.832v36.818c0,4.199,3.405,7.604,7.604,7.604s7.604-3.405,7.604-7.604
			V70.832c0-29.286,23.742-53.028,53.027-53.028h375.529c29.286,0,53.028,23.742,53.028,53.027v105.634H462.9
			c-10.978-28.59-27.939-54.815-50.244-77.12C370.812,57.501,315.177,34.456,256,34.456S141.188,57.501,99.344,99.345
			C57.5,141.189,34.455,196.823,34.455,256s23.044,114.812,64.889,156.656C141.188,454.5,196.823,477.545,256,477.545
			s114.812-23.044,156.656-64.889c22.305-22.305,39.266-48.529,50.244-77.119h33.892V441.17c0,29.286-23.742,53.027-53.027,53.027
			H68.236c-29.286,0-53.028-23.742-53.028-53.028V143.136c0-4.199-3.405-7.604-7.604-7.604S0,138.937,0,143.136v298.033
			c0,37.685,30.55,68.235,68.235,68.235h375.53c37.685,0,68.235-30.55,68.235-68.235V327.932V184.069V70.832
			C512,33.147,481.45,2.596,443.765,2.596z M452.155,320.328H335.492c30.286-37.368,30.286-91.287,0.001-128.655h49.779
			c4.199,0,7.604-3.405,7.604-7.604s-3.405-7.604-7.604-7.604h-64.998c-40.121-32.472-99.286-30.065-136.58,7.228
			c-20.005,20.003-30.7,46.835-29.91,75.241c0.695,25.009,10.643,49.024,27.816,67.218c20.175,21.372,47.288,32.057,74.401,32.057
			c22.8,0,45.598-7.56,64.272-22.673h126.234c-10.234,24.508-25.259,47.021-44.605,66.366
			c-38.557,38.557-89.686,59.976-144.145,60.427c-54.622,0.453-107.465-20.883-146.409-59.186
			c-39.763-39.109-61.685-91.44-61.686-147.142c0-54.707,21.709-107.149,60.378-145.847c38.421-38.451,89.338-59.874,143.597-60.478
			c54.683-0.609,107.645,20.615,146.71,58.883c20.097,19.687,35.653,42.745,46.158,67.905h-25.749c-4.199,0-7.604,3.405-7.604,7.604
			s3.405,7.604,7.604,7.604h31.398c6.698,20.493,10.181,42.142,10.181,64.326C462.336,278.185,458.852,299.834,452.155,320.328z
			 M278.141,309.954c6.953-2.843,13.465-7.077,19.1-12.712c22.741-22.741,22.741-59.743,0-82.484
			c-5.635-5.635-12.147-9.87-19.1-12.712c7.182-6.444,16.666-10.373,27.052-10.373h9.441c0.987,0.9,1.964,1.819,2.918,2.774
			c33.941,33.941,33.941,89.166,0,123.106c-0.955,0.955-1.931,1.874-2.919,2.775h-9.439v-0.001
			C294.807,320.328,285.323,316.399,278.141,309.954z M261.263,197.946c-16.638-1.494-33.797,4.105-46.505,16.813
			c-22.741,22.741-22.741,59.743,0,82.484c11.37,11.37,26.306,17.055,41.242,17.055c1.756,0,3.512-0.085,5.263-0.243
			c7.988,10.214,19.442,17.589,32.585,20.318c-32.411,15.615-72.559,10.023-99.402-16.82
			c-16.442-16.442-25.497-38.302-25.497-61.554s9.055-45.112,25.497-61.553c16.97-16.97,39.262-25.455,61.554-25.455
			c12.968,0,25.929,2.894,37.849,8.637C280.705,180.355,269.251,187.732,261.263,197.946z M268.592,214.776
			c6.554,1.99,12.725,5.564,17.896,10.735c16.811,16.812,16.811,44.166,0,60.977c-5.172,5.173-11.342,8.747-17.896,10.737
			c-2.532-5.289-3.953-11.207-3.953-17.452v-47.545C264.639,225.983,266.061,220.065,268.592,214.776z M252.838,298.969
			c-9.964-0.726-19.724-4.879-27.326-12.481c-16.812-16.812-16.812-44.166,0-60.977c7.604-7.603,17.36-11.755,27.327-12.481
			c-2.202,5.988-3.407,12.454-3.407,19.196v47.545C249.431,286.515,250.635,292.981,252.838,298.969z M496.792,320.328h-28.684
			c6.216-20.592,9.437-42.212,9.437-64.329c0-22.115-3.221-43.736-9.437-64.326h28.684V320.328z"/>
	</g>
</g>
<g>
</g>
<g>
</g>
<g>
</g>
<g>
</g>
<g>
</g>
<g>
</g>
<g>
</g>
<g>
</g>
<g>
</g>
<g>
</g>
<g>
</g>
<g>
</g>
<g>
</g>
<g>
</g>
<g>
</g>
</svg>
