<?xml version="1.0" encoding="iso-8859-1"?>
<!-- Generator: Adobe Illustrator 19.0.0, SVG Export Plug-In . SVG Version: 6.00 Build 0)  -->
<svg version="1.1" id="Capa_1" xmlns="http://www.w3.org/2000/svg" xmlns:xlink="http://www.w3.org/1999/xlink" x="0px" y="0px"
	 viewBox="0 0 511.999 511.999" style="enable-background:new 0 0 511.999 511.999;" xml:space="preserve">
<g>
	<g>
		<path d="M470.565,308.009H332.981c-2.169,0-4.303,0.812-5.786,2.393c-2.361,2.518-2.725,6.185-1.086,9.059l20.686,36.264H308.98
			c-22.05,0-39.996-17.908-40.058-39.943c-0.012-4.275-3.384-7.773-7.658-7.773h-16.225c-4.229,0-7.658,3.429-7.658,7.658
			s3.429,7.658,7.658,7.658h9.094c3.741,26.923,26.912,47.716,54.847,47.716h51h75.709v32.4H232.468
			c-3.741-26.923-26.911-47.716-54.846-47.716h-8.321h-30.379h-2.126c-9.656,0-17.484-7.828-17.484-17.484v-14.916h89.987
			c4.229,0,7.658-3.429,7.658-7.658s-3.429-7.658-7.658-7.658h-9.549c2.904-4.817,4.475-10.39,4.475-16.28
			c0-10.148-4.866-19.462-12.714-25.315c8.083-6.013,12.714-15.192,12.714-25.308c0-10.148-4.866-19.462-12.714-25.315
			c8.083-6.013,12.714-15.192,12.714-25.307c0-10.149-4.866-19.462-12.714-25.315c8.083-6.013,12.714-15.192,12.714-25.308
			c0-12.781-7.719-24.231-19.392-29.114h76.43c4.275,0,7.646-3.499,7.658-7.773c0.062-22.035,18.009-39.943,40.058-39.943h37.815
			l-20.576,36.071c-1.075,1.884-1.427,4.139-0.789,6.212c1.016,3.299,4.022,5.433,7.33,5.433h137.584
			c2.169,0,4.303-0.812,5.786-2.393c2.362-2.518,2.726-6.186,1.087-9.059l-26.213-45.953V7.658c0-4.229-3.429-7.658-7.658-7.658
			h-68.631c-4.229,0-7.658,3.429-7.658,7.658c0,4.229,3.429,7.658,7.658,7.658h60.973v32.4h-75.709h-51
			c-27.936,0-51.106,20.794-54.847,47.716H119.311V80.516c0-9.656,7.828-17.484,17.484-17.484h40.826
			c27.936,0,51.106-20.794,54.846-47.716h106.507c4.229,0,7.658-3.429,7.658-7.658c0-4.229-3.429-7.658-7.658-7.658H225.337
			c-4.275,0-7.646,3.499-7.658,7.773c-0.062,22.035-18.009,39.943-40.058,39.943h-40.826c-18.115,0-32.8,14.685-32.8,32.8v22.574
			c0,3.228,1.999,5.983,4.824,7.11c-3.122,4.941-4.824,10.711-4.824,16.827c0,10.148,4.866,19.462,12.714,25.315
			c-8.083,6.013-12.714,15.192-12.714,25.307c0,10.149,4.866,19.462,12.714,25.315c-8.083,6.013-12.714,15.192-12.714,25.308
			c0,10.148,4.866,19.462,12.714,25.315c-8.083,6.013-12.714,15.192-12.714,25.307c0,12.781,7.719,24.231,19.392,29.114h-11.734
			c-4.229,0-7.658,3.429-7.658,7.658v22.574c0,16.201,11.808,29.686,27.268,32.324v55.639h-5.423c-4.229,0-7.658,3.429-7.658,7.658
			v28.267h-11.102c-3.73-17.671-20.088-30.742-39.155-29.281c-18.146,1.391-32.784,16.136-34.054,34.29
			c-1.512,21.623,15.651,39.701,36.958,39.701c17.806,0,32.713-12.626,36.251-29.394h11.101v26.896c0,4.229,3.429,7.658,7.658,7.658
			h56.541c4.229,0,7.658-3.429,7.658-7.658v-26.896h11.101c3.729,17.672,20.088,30.744,39.156,29.283
			c18.146-1.391,32.784-16.136,34.054-34.29c1.512-21.622-15.652-39.702-36.959-39.702c-17.805,0-32.712,12.626-36.25,29.393
			h-11.102v-28.267c0-4.229-3.429-7.658-7.658-7.658h-5.423v-55.163h0.663c22.049,0,39.996,17.908,40.058,39.943
			c0.012,4.275,3.384,7.773,7.658,7.773h218.008c4.229,0,7.658-3.429,7.658-7.658v-45.684l26.103-45.759
			c1.075-1.885,1.427-4.14,0.789-6.213C476.879,310.143,473.873,308.009,470.565,308.009z M364.428,63.032h74.471l18.483,32.4
			H345.945L364.428,63.032z M126.141,215.028c4.341-3.09,9.719-3.863,14.751-2.121l37.078,12.835
			c6.544,2.265,10.941,8.44,10.941,15.365c0,5.328-2.489,10.156-6.829,13.245c-4.339,3.089-9.711,3.864-14.747,2.121l-0.002-0.001
			l-37.079-12.834c-6.544-2.265-10.941-8.44-10.941-15.365C119.312,222.946,121.801,218.117,126.141,215.028z M119.313,177.65
			c0-5.327,2.489-10.155,6.829-13.245c2.814-2.003,6.065-3.033,9.377-3.033c1.792,0,3.602,0.301,5.37,0.913l21.431,7.418
			l15.648,5.417c6.544,2.265,10.941,8.44,10.941,15.366c0,5.328-2.489,10.156-6.829,13.245c-4.34,3.091-9.716,3.863-14.75,2.12
			l-13.789-4.774l-7.64-2.645c-0.001,0-0.002-0.001-0.003-0.001l-15.645-5.416C123.71,190.751,119.313,184.576,119.313,177.65z
			 M126.141,113.783c4.341-3.09,9.717-3.863,14.752-2.121l37.078,12.835c6.544,2.266,10.941,8.44,10.941,15.366
			c-0.001,5.327-2.49,10.155-6.83,13.245c-4.34,3.091-9.715,3.864-14.751,2.121l-21.429-7.418c-0.001,0-0.002-0.001-0.003-0.001
			l-15.645-5.416c-6.544-2.266-10.941-8.44-10.941-15.366C119.312,121.701,121.801,116.873,126.141,113.783z M119.31,278.897
			c0.001-5.33,2.49-10.158,6.83-13.247c4.34-3.091,9.717-3.863,14.751-2.12l1.459,0.505l19.969,6.913l15.648,5.417
			c6.544,2.265,10.941,8.44,10.941,15.366c0,5.327-2.489,10.155-6.829,13.245c-4.34,3.091-9.716,3.864-14.751,2.121l-37.078-12.834
			C123.707,291.999,119.31,285.823,119.31,278.897z M70.829,491.523c-11.984,0-21.735-9.75-21.735-21.735s9.75-21.736,21.735-21.736
			s21.736,9.75,21.736,21.736C92.565,481.774,82.813,491.523,70.829,491.523z M237.392,448.053c11.984,0,21.736,9.75,21.736,21.736
			c0,11.985-9.75,21.735-21.736,21.735s-21.736-9.75-21.736-21.735S225.407,448.053,237.392,448.053z M146.579,371.042h15.063
			v55.163h-15.063V371.042z M174.723,496.684h-41.225v-55.162h5.423H169.3h5.423V496.684z M438.898,355.726h-74.472l-18.483-32.4
			H457.38L438.898,355.726z"/>
	</g>
</g>
<g>
</g>
<g>
</g>
<g>
</g>
<g>
</g>
<g>
</g>
<g>
</g>
<g>
</g>
<g>
</g>
<g>
</g>
<g>
</g>
<g>
</g>
<g>
</g>
<g>
</g>
<g>
</g>
<g>
</g>
</svg>
