<?xml version="1.0" encoding="iso-8859-1"?>
<!-- Generator: Adobe Illustrator 19.0.0, SVG Export Plug-In . SVG Version: 6.00 Build 0)  -->
<svg version="1.1" id="Capa_1" xmlns="http://www.w3.org/2000/svg" xmlns:xlink="http://www.w3.org/1999/xlink" x="0px" y="0px"
	 viewBox="0 0 511.999 511.999" style="enable-background:new 0 0 511.999 511.999;" xml:space="preserve">
<g>
	<g>
		<path d="M504.396,87.657H137.866c-4.2,0-7.604,3.405-7.604,7.604s3.405,7.604,7.604,7.604h346.816l-108.2,98.207
			c-3.107-10.786-8.891-20.958-17.375-29.44c-26.768-26.768-70.324-26.768-97.091,0l-6.016,6.017l-6.017-6.017
			c-26.769-26.769-70.324-26.768-97.091,0c-8.49,8.491-14.277,18.671-17.382,29.468l-108.23-98.234h75.096
			c4.2,0,7.604-3.405,7.604-7.604s-3.405-7.604-7.604-7.604H7.604c-4.2,0-7.604,3.405-7.604,7.604v321.477
			c0,4.2,3.405,7.604,7.604,7.604H382.22c4.2,0,7.604-3.405,7.604-7.604c0-4.2-3.405-7.604-7.604-7.604H27.354l139.423-126.527
			l83.846,83.846c1.484,1.484,3.431,2.228,5.377,2.228c1.946,0,3.892-0.742,5.377-2.228l34.142-34.142l49.767-49.767
			l139.412,126.588h-66.991c-4.2,0-7.604,3.405-7.604,7.604s3.405,7.604,7.604,7.604h86.687c4.2,0,7.604-3.405,7.604-7.604V95.261
			C512,91.062,508.595,87.657,504.396,87.657z M15.209,399.618v-287.17l117.63,106.766c-0.249,17.901,6.424,35.881,20.053,49.51
			l3.118,3.118L15.209,399.618z M284.765,321.558L256,350.323l-92.353-92.353c-20.838-20.838-20.838-54.746,0-75.584
			c10.419-10.419,24.105-15.629,37.791-15.629c13.687,0,27.373,5.21,37.792,15.629l11.393,11.393
			c1.427,1.427,3.36,2.228,5.377,2.228c2.017,0,3.951-0.801,5.377-2.228l11.392-11.393c20.838-20.838,54.745-20.838,75.583,0
			c20.838,20.838,20.838,54.746,0,75.584L284.765,321.558z M496.791,399.57L356.053,271.778l3.054-3.055
			c13.637-13.637,20.31-31.63,20.052-49.542l117.631-106.766V399.57z"/>
	</g>
</g>
<g>
</g>
<g>
</g>
<g>
</g>
<g>
</g>
<g>
</g>
<g>
</g>
<g>
</g>
<g>
</g>
<g>
</g>
<g>
</g>
<g>
</g>
<g>
</g>
<g>
</g>
<g>
</g>
<g>
</g>
</svg>
