<?xml version="1.0" encoding="iso-8859-1"?>
<!-- Generator: Adobe Illustrator 19.0.0, SVG Export Plug-In . SVG Version: 6.00 Build 0)  -->
<svg version="1.1" id="Capa_1" xmlns="http://www.w3.org/2000/svg" xmlns:xlink="http://www.w3.org/1999/xlink" x="0px" y="0px"
	 viewBox="0 0 512.001 512.001" style="enable-background:new 0 0 512.001 512.001;" xml:space="preserve">
<g>
	<g>
		<path d="M7.589,96.787c-4.191,0-7.589,3.398-7.589,7.589v403.326h15.178V104.376C15.178,100.185,11.78,96.787,7.589,96.787z"/>
	</g>
</g>
<g>
	<g>
		<path d="M506.078,407.318c-37.053-8.34-69.231-31.612-88.911-64.138c19.681-32.525,51.858-55.799,88.912-64.139
			c3.781-0.852,6.367-4.441,5.858-8.396c-0.418-3.25-3.007-5.777-6.206-6.489c-11.098-2.47-22.476-3.723-33.824-3.723
			c-36.63,0-72.183,13.02-100.109,36.662c-6.639,5.621-16.448,5.621-23.087,0c-27.925-23.642-63.476-36.663-100.108-36.663
			c-53.158,0-102.59,27.409-130.936,72.033l-58.476-38.961v-99.419h0l58.476-38.96c28.345,44.622,77.778,72.031,130.936,72.031
			c36.632,0,72.183-13.02,100.108-36.662c6.687-5.662,16.398-5.662,23.088,0c27.924,23.642,63.476,36.662,100.108,36.662
			c11.468,0,22.965-1.279,34.172-3.803c3.463-0.779,5.922-3.854,5.922-7.403s-2.461-6.625-5.923-7.404
			c-37.053-8.34-69.231-31.612-88.911-64.138c19.681-32.525,51.858-55.799,88.912-64.139c3.781-0.852,6.367-4.441,5.858-8.396
			c-0.418-3.25-3.007-5.777-6.206-6.489c-11.098-2.47-22.476-3.723-33.824-3.723c-36.63,0-72.183,13.02-100.109,36.662
			c-6.639,5.621-16.448,5.621-23.087,0C320.786,74.681,285.235,61.66,248.604,61.66c-53.158,0-102.589,27.409-130.936,72.032
			L59.192,94.73V34.525c0-16.104-12.603-29.735-28.7-30.212C13.765,3.816,0,17.278,0,33.895V68.96c0,4.191,3.398,7.589,7.589,7.589
			c4.191,0,7.589-3.398,7.589-7.589V34.313c0-7.754,5.946-14.435,13.69-14.819c8.279-0.409,15.146,6.208,15.146,14.4v473.806h15.178
			V392.856l58.476-38.96c28.345,44.622,77.778,72.031,130.936,72.031c36.633,0,72.184-13.02,100.108-36.662
			c6.687-5.662,16.399-5.662,23.087,0c27.924,23.642,63.476,36.662,100.109,36.662c11.468,0,22.965-1.279,34.172-3.803
			c3.463-0.779,5.922-3.854,5.922-7.403C512.001,411.173,509.54,408.097,506.078,407.318z M248.605,76.837
			c33.043,0,65.111,11.744,90.299,33.069c12.373,10.475,30.333,10.477,42.703,0C406.3,89,437.61,77.301,469.966,76.852
			c-28.454,13.644-52.423,35.841-68.199,63.829c-1.304,2.313-1.304,5.139,0,7.452c15.777,27.988,39.746,50.186,68.199,63.829
			c-32.357-0.449-63.666-12.147-88.359-33.054c-12.374-10.477-30.331-10.477-42.704,0c-25.186,21.323-57.254,33.068-90.299,33.068
			c-8.885,0-17.654-0.86-26.209-2.498c12.413-19.406,18.94-41.674,18.94-65.076c0-23.406-6.527-45.672-18.939-65.068
			C230.953,77.697,239.72,76.837,248.605,76.837z M206.768,83.282c12.695,17.912,19.387,38.931,19.387,61.121
			c0,22.186-6.693,43.208-19.389,61.13c-32.121-10.102-60.057-31.615-77.914-61.125C146.71,114.896,174.649,93.385,206.768,83.282z
			 M59.192,112.966l47.188,31.442l-47.188,31.44V112.966z M59.192,374.619v-62.88l47.188,31.441L59.192,374.619z M381.607,377.682
			c-12.374-10.477-30.331-10.477-42.704,0c-25.185,21.324-57.253,33.068-90.299,33.068c-8.887,0-17.656-0.86-26.213-2.499
			c12.411-19.395,18.939-41.664,18.939-65.075c0-10.198-1.258-20.264-3.744-30.025c-1.076-4.222-5.548-6.617-9.69-5.262l-0.02,0.007
			c-3.793,1.242-5.962,5.209-4.979,9.078c2.162,8.514,3.255,17.298,3.255,26.202c0,22.195-6.693,43.216-19.387,61.127
			c-32.119-10.102-60.054-31.614-77.909-61.123c17.853-29.51,45.788-51.021,77.905-61.125c1.095,1.549,2.148,3.126,3.158,4.724
			c2.138,3.386,6.504,4.574,10.03,2.675c3.86-2.078,5.172-6.996,2.833-10.706c-0.135-0.214-0.269-0.426-0.405-0.638
			c8.561-1.641,17.335-2.502,26.227-2.502c33.043,0,65.112,11.744,90.299,33.069c12.373,10.476,30.333,10.476,42.703,0
			c24.694-20.906,56.004-32.604,88.36-33.054c-28.454,13.644-52.423,35.841-68.199,63.829c-1.304,2.313-1.304,5.139,0,7.452
			c15.776,27.988,39.745,50.186,68.199,63.829C437.608,410.286,406.299,398.588,381.607,377.682z"/>
	</g>
</g>
<g>
	<g>
		<path d="M183.25,134.17c-3.173,1.883-4.551,5.996-3.107,9.404c1.26,2.994,4.316,4.9,7.565,4.663
			c3.041-0.223,5.68-2.296,6.642-5.183C196.537,136.487,189.155,130.667,183.25,134.17z"/>
	</g>
</g>
<g>
	<g>
		<path d="M289.763,114.237c-4.192,0-7.589,3.397-7.589,7.589c0,4.192,3.397,7.589,7.589,7.589
			c12.559,0,22.777,10.218,22.777,22.777s-10.218,22.776-22.777,22.776c-4.192,0-7.589,3.397-7.589,7.589s3.397,7.589,7.589,7.589
			c20.928,0,37.955-17.026,37.955-37.954C327.718,131.264,310.692,114.237,289.763,114.237z"/>
	</g>
</g>
<g>
	<g>
		<path d="M194.373,337.134c-0.96-2.968-3.719-5.118-6.847-5.264c-3.291-0.154-6.358,1.882-7.492,4.968
			c-1.188,3.229,0.015,7.014,2.901,8.918c2.824,1.856,6.602,1.636,9.169-0.566C194.389,343.231,195.299,339.995,194.373,337.134z"/>
	</g>
</g>
<g>
	<g>
		<path d="M289.763,313.011c-4.192,0-7.589,3.397-7.589,7.589s3.397,7.589,7.589,7.589c12.559,0,22.777,10.218,22.777,22.776
			c0,12.558-10.218,22.776-22.777,22.776c-4.192,0-7.589,3.397-7.589,7.589s3.397,7.589,7.589,7.589
			c20.928,0,37.955-17.026,37.955-37.954C327.718,330.037,310.692,313.011,289.763,313.011z"/>
	</g>
</g>
<g>
</g>
<g>
</g>
<g>
</g>
<g>
</g>
<g>
</g>
<g>
</g>
<g>
</g>
<g>
</g>
<g>
</g>
<g>
</g>
<g>
</g>
<g>
</g>
<g>
</g>
<g>
</g>
<g>
</g>
</svg>
