<?xml version="1.0" encoding="iso-8859-1"?>
<!-- Generator: Adobe Illustrator 19.0.0, SVG Export Plug-In . SVG Version: 6.00 Build 0)  -->
<svg version="1.1" id="Capa_1" xmlns="http://www.w3.org/2000/svg" xmlns:xlink="http://www.w3.org/1999/xlink" x="0px" y="0px"
	 viewBox="0 0 512 512" style="enable-background:new 0 0 512 512;" xml:space="preserve">
<g>
	<g>
		<path d="M504.396,87.657H7.604C3.405,87.657,0,91.062,0,95.261v42.909c0,4.199,3.405,7.604,7.604,7.604s7.604-3.405,7.604-7.604
			v-25.738l131.678,119.514l10.222-11.261L27.296,102.865h457.435l-129.813,117.82l10.222,11.261l131.652-119.489v287.14
			l-129.835-117.83l-10.22,11.262l127.935,116.105h-77.096c-4.199,0-7.604,3.405-7.604,7.604c0,4.199,3.405,7.604,7.604,7.604h96.82
			c4.199,0,7.604-3.405,7.604-7.604V95.261C512,91.062,508.595,87.657,504.396,87.657z"/>
	</g>
</g>
<g>
	<g>
		<path d="M372.089,409.135H27.355l127.934-116.105l-10.22-11.262L15.208,399.623V173.656c0-4.199-3.405-7.604-7.604-7.604
			S0,169.457,0,173.656v243.082c0,4.199,3.405,7.604,7.604,7.604h364.485c4.199,0,7.604-3.405,7.604-7.604
			C379.693,412.539,376.289,409.135,372.089,409.135z"/>
	</g>
</g>
<g>
	<g>
		<path d="M257.434,172.136c-65.295,0-94.252,44.286-94.252,100.213c0,64.726,39.461,94.534,81.76,94.534
			c19.589,0,49.965-6.529,49.965-17.033c0-3.123-2.839-8.8-7.666-8.8c-5.962,0-15.047,7.665-38.892,7.665
			c-49.68,0-65.011-36.338-65.011-76.65c0-43.151,17.034-81.76,73.811-81.76c49.396,0,71.825,28.673,71.825,78.921
			c0,15.897-2.272,41.732-17.318,41.732c-6.245,0-11.071-4.542-12.491-13.91v-47.693c0-24.414-19.021-37.189-43.719-37.189
			c-18.168,0-38.609,7.381-38.609,16.749c0,3.974,3.123,11.64,7.665,11.64c4.826,0,9.936-7.381,27.536-7.381
			c17.034,0,24.983,6.813,24.983,21.292v4.826h-10.504v-0.002c-33.215,0-56.493,7.381-56.493,33.783
			c0,22.995,17.601,32.08,35.769,32.08c15.898,0,25.55-6.813,35.202-17.885c2.271,10.787,13.342,19.873,28.957,19.873
			c27.82,0,38.892-28.957,38.892-61.888C348.845,206.486,315.63,172.136,257.434,172.136z M277.873,285.123
			c0,11.071-11.923,22.995-27.254,22.995c-9.368,0-16.181-4.826-16.181-15.33c0-15.046,13.626-19.304,34.918-19.304h8.516V285.123z"
			/>
	</g>
</g>
<g>
</g>
<g>
</g>
<g>
</g>
<g>
</g>
<g>
</g>
<g>
</g>
<g>
</g>
<g>
</g>
<g>
</g>
<g>
</g>
<g>
</g>
<g>
</g>
<g>
</g>
<g>
</g>
<g>
</g>
</svg>
