<?xml version="1.0" encoding="iso-8859-1"?>
<!-- Generator: Adobe Illustrator 19.0.0, SVG Export Plug-In . SVG Version: 6.00 Build 0)  -->
<svg version="1.1" id="Capa_1" xmlns="http://www.w3.org/2000/svg" xmlns:xlink="http://www.w3.org/1999/xlink" x="0px" y="0px"
	 viewBox="0 0 512 512" style="enable-background:new 0 0 512 512;" xml:space="preserve">
<g>
	<g>
		<path d="M391.637,354.426h-79.375v-48.058c0-4.199-3.405-7.604-7.604-7.604c-4.199,0-7.604,3.405-7.604,7.604v48.057h-88.196
			V224.17c13.609,5.59,28.5,8.683,44.1,8.683c15.599,0,30.488-3.091,44.096-8.682v46.71c0,4.199,3.405,7.604,7.604,7.604
			s7.604-3.405,7.604-7.604v-54.303c34.263-20.366,57.248-57.801,57.122-100.499C369.199,52.893,317.869,0.934,254.688,0.013
			c-64.986-0.948-118.155,51.641-118.155,116.414c0,42.552,22.951,79.839,57.119,100.149v137.851h-73.288
			c-33.433,0-60.536,27.103-60.536,60.536v89.435c0,4.199,3.405,7.604,7.604,7.604h377.137c4.199,0,7.604-3.405,7.604-7.604v-89.435
			C452.173,381.529,425.07,354.426,391.637,354.426z M151.74,116.426c0-55.811,45.407-101.218,101.218-101.218
			s101.219,45.407,101.219,101.218c0,55.812-45.407,101.219-101.219,101.219S151.74,172.239,151.74,116.426z M75.035,496.793
			v-81.831c0-24.994,20.334-45.328,45.328-45.328h271.275c24.993,0,45.327,20.334,45.327,45.328v81.831H75.035z"/>
	</g>
</g>
<g>
	<g>
		<path d="M414.155,407.358H176.883c-4.2,0-7.604,3.405-7.604,7.604s3.404,7.604,7.604,7.604h237.271c4.2,0,7.604-3.405,7.604-7.604
			S418.354,407.358,414.155,407.358z"/>
	</g>
</g>
<g>
	<g>
		<path d="M151.535,407.358H97.846c-4.2,0-7.604,3.405-7.604,7.604s3.404,7.604,7.604,7.604h53.689c4.2,0,7.604-3.405,7.604-7.604
			S155.735,407.358,151.535,407.358z"/>
	</g>
</g>
<g>
</g>
<g>
</g>
<g>
</g>
<g>
</g>
<g>
</g>
<g>
</g>
<g>
</g>
<g>
</g>
<g>
</g>
<g>
</g>
<g>
</g>
<g>
</g>
<g>
</g>
<g>
</g>
<g>
</g>
</svg>
