<?xml version="1.0" encoding="iso-8859-1"?>
<!-- Generator: Adobe Illustrator 19.0.0, SVG Export Plug-In . SVG Version: 6.00 Build 0)  -->
<svg version="1.1" id="Capa_1" xmlns="http://www.w3.org/2000/svg" xmlns:xlink="http://www.w3.org/1999/xlink" x="0px" y="0px"
	 viewBox="0 0 512 512" style="enable-background:new 0 0 512 512;" xml:space="preserve">
<g>
	<g>
		<path d="M426.288,147.466v-36.246c0-16.92-12.574-30.951-28.865-33.252v-44.38C397.424,15.039,382.385,0,363.834,0H218.162
			c-4.199,0-7.604,3.405-7.604,7.604s3.405,7.604,7.604,7.604h145.673c10.152,0,18.381,8.229,18.381,18.381v64.832
			C347.614,70.651,303.717,54.008,256,54.008s-91.614,16.643-126.216,44.413V33.589c0-10.152,8.229-18.381,18.381-18.381h34.51
			c4.199,0,7.604-3.405,7.604-7.604c0-4.199-3.405-7.604-7.604-7.604h-34.51c-18.551,0-33.589,15.039-33.589,33.589v44.38
			c-16.291,2.3-28.865,16.331-28.865,33.252v36.248c-20.062,31.368-31.704,68.616-31.704,108.533s11.642,77.166,31.704,108.533
			v36.256c0,16.92,12.574,30.951,28.865,33.252v44.37c0,18.551,15.039,33.589,33.589,33.589h215.679
			c18.546,0,33.579-15.034,33.579-33.579v-44.38c16.291-2.3,28.865-16.331,28.865-33.252v-36.254
			c20.062-31.368,31.704-68.617,31.704-108.535C457.993,216.083,446.35,178.834,426.288,147.466z M397.424,93.476
			c7.848,2.091,13.657,9.242,13.657,17.745v15.505c-4.306-5.156-8.866-10.094-13.657-14.797V93.476z M100.92,111.221
			c0-8.502,5.807-15.654,13.657-17.745v18.453c-4.79,4.703-9.351,9.641-13.657,14.798V111.221z M114.576,418.534
			c-7.849-2.091-13.657-9.242-13.657-17.745v-15.515c4.306,5.158,8.866,10.094,13.657,14.798V418.534z M382.216,478.411
			c0,10.136-8.242,18.381-18.371,18.381H148.156c-10.13,0-18.371-8.246-18.371-18.381v-64.83
			c34.602,27.771,78.498,44.413,126.216,44.413c47.717,0,91.614-16.643,126.216-44.413V478.411z M411.079,400.79
			c0,8.502-5.807,15.654-13.657,17.745v-18.461c4.79-4.703,9.351-9.64,13.657-14.797V400.79z M256,442.786
			c-102.993,0-186.785-83.792-186.785-186.785S153.007,69.216,256,69.216s186.785,83.792,186.785,186.785
			S358.993,442.786,256,442.786z"/>
	</g>
</g>
<g>
	<g>
		<path d="M254.768,97.854c-86.022,0.66-156.254,70.891-156.913,156.913c-0.674,87.769,70.53,159.386,158.147,159.386
			c25.939,0,51.406-6.351,74.143-18.43c3.836-2.038,5.17-6.889,2.939-10.617c-2.07-3.46-6.49-4.718-10.05-2.826
			c-20.55,10.922-43.575,16.665-67.031,16.665c-79.192,0-143.549-64.73-142.94-144.06c0.596-77.75,64.075-141.229,141.825-141.825
			c79.33-0.608,144.06,63.749,144.06,142.94c0,41.329-17.531,79.993-48.343,107.17c-3.025,2.668-3.395,7.255-0.879,10.407
			c2.707,3.391,7.709,3.847,10.963,0.976c34.078-30.065,53.467-72.835,53.467-118.554
			C414.154,168.384,342.537,97.181,254.768,97.854z"/>
	</g>
</g>
<g>
	<g>
		<path d="M325.774,248.397h-36.831c-2.896-12.55-12.79-22.444-25.339-25.339v-75.927c0-4.199-3.405-7.604-7.604-7.604
			s-7.604,3.405-7.604,7.604v75.927c-14.995,3.46-26.212,16.912-26.212,32.943c0,18.647,15.17,33.816,33.816,33.816
			c16.031,0,29.483-11.217,32.943-26.212h36.831c4.199,0,7.604-3.405,7.604-7.604C333.378,251.802,329.973,248.397,325.774,248.397z
			 M256,274.609c-10.261,0-18.608-8.348-18.608-18.608s8.348-18.608,18.608-18.608s18.608,8.347,18.608,18.608
			S266.261,274.609,256,274.609z"/>
	</g>
</g>
<g>
</g>
<g>
</g>
<g>
</g>
<g>
</g>
<g>
</g>
<g>
</g>
<g>
</g>
<g>
</g>
<g>
</g>
<g>
</g>
<g>
</g>
<g>
</g>
<g>
</g>
<g>
</g>
<g>
</g>
</svg>
