<?xml version="1.0" encoding="iso-8859-1"?>
<!-- Generator: Adobe Illustrator 19.0.0, SVG Export Plug-In . SVG Version: 6.00 Build 0)  -->
<svg version="1.1" id="Capa_1" xmlns="http://www.w3.org/2000/svg" xmlns:xlink="http://www.w3.org/1999/xlink" x="0px" y="0px"
	 viewBox="0 0 512.002 512.002" style="enable-background:new 0 0 512.002 512.002;" xml:space="preserve">
<g>
	<g>
		<path d="M506.383,171.153c-3.345-13.561-6.803-27.584-6.803-41.855c0-14.69,2.654-22.105,5.22-29.276
			c2.008-5.615,4.087-11.42,4.087-19.369c0-11.042-8.297-21.831-22.764-29.599c-10.332-5.549-28.658-12.162-57.28-12.162
			c-8.142,0-16.221,0.358-24.109,1.067c-4.219,0.379-7.267,4.21-6.758,8.414l0.014,0.122c0.492,4.067,4.137,6.966,8.217,6.602
			c7.399-0.661,14.984-0.995,22.635-0.995c45.258,0,64.836,17.583,64.836,26.553c0,5.309-1.341,9.057-3.198,14.244
			c-2.722,7.606-6.11,17.071-6.11,34.401c0,16.119,3.85,31.727,7.245,45.497c2.661,10.789,5.175,20.978,5.175,29.022
			c0,4.951-1.531,12.238-8.825,18.848c-9.219,8.354-29.707,17.375-74.946,12.913c-60.761-5.986-102.991-31.202-113.655-38.169
			c0.295-1.376,0.457-2.8,0.457-4.263v-90.431c0-1.04-0.103-2.054-0.255-3.054c19.315-18.589,43.788-31.681,72.894-38.959
			c3.92-0.979,6.335-4.92,5.493-8.871l-0.025-0.119c-0.893-4.195-5.096-6.781-9.257-5.739c-30.45,7.623-56.352,21.173-77.173,40.366
			c-3.373-2.484-7.524-3.971-12.025-3.971h-46.962c-4.502,0-8.653,1.487-12.026,3.972C178.12,47.276,122.786,38.892,83.157,38.892
			c-28.627,0-46.955,6.613-57.288,12.162C11.4,58.821,3.102,69.61,3.102,80.652c0,7.95,2.08,13.756,4.092,19.371
			c2.569,7.171,5.225,14.585,5.225,29.274c0,14.272-3.458,28.295-6.803,41.855C2.728,182.863,0,193.924,0,203.815
			c0,11.347,4.908,22.044,13.82,30.121c13.237,11.995,34.26,18.031,62.672,18.03c7.478,0,15.472-0.419,23.967-1.256
			c21.182-2.086,40.139-6.32,56.488-11.345c-6.483,11.862-15.352,28.925-24.481,49.055c-1.737,3.829-0.026,8.341,3.821,10.035
			l0.114,0.05c3.778,1.664,8.197-0.017,9.903-3.776c14.274-31.456,28.182-55.76,32.456-63.044
			c21.663-8.641,36.324-17.631,42.406-21.665c3.244,2.189,7.151,3.469,11.351,3.469h14.868l-29.543,236.428L174.97,410.5
			c-1.804-1.659-4.297-2.347-6.698-1.846c-18.863,3.93-44.923,26.97-59.434,41.057c-3.405-31.207,4.635-72.906,23.608-122.041
			c1.487-3.853-0.385-8.19-4.219-9.728l-0.117-0.047c-3.895-1.563-8.329,0.355-9.844,4.269
			C94.872,382.669,87.551,431.435,96.508,467.2c0.538,2.149,1.931,4.034,3.901,5.049c3.105,1.6,6.774,0.894,9.06-1.544
			c10.413-11.1,39.853-39.513,58.335-46.135l50.608,46.53c1.428,1.312,3.272,2.006,5.147,2.006c1.199,0,2.413-0.284,3.536-0.872
			c2.277-1.193,3.727-3.536,4.045-6.087l24.858-198.939l24.861,198.963c0.319,2.553,1.78,4.891,4.065,6.075
			c1.118,0.58,2.323,0.86,3.514,0.86c1.876,0,3.72-0.695,5.147-2.006l50.608-46.53c18.405,6.594,47.674,34.796,58.202,45.994
			c1.513,1.608,3.624,2.599,5.83,2.544c3.509-0.086,6.4-2.488,7.223-5.747c9.658-38.312,0.636-91.452-26.817-157.946
			c-12.043-29.17-24.93-54.229-33.577-70.048c16.346,5.024,35.299,9.257,56.477,11.342c8.498,0.838,16.486,1.257,23.969,1.256
			c28.412-0.001,49.444-6.039,62.682-18.035c8.912-8.076,13.82-18.772,13.82-30.117C512,193.924,509.272,182.863,506.383,171.153z
			 M98.966,235.577c-45.232,4.462-65.717-4.556-74.933-12.908c-7.294-6.61-8.825-13.901-8.825-18.853
			c0-8.044,2.513-18.233,5.175-29.022c3.396-13.77,7.245-29.378,7.245-45.497c0-17.331-3.391-26.797-6.117-34.403
			c-1.858-5.186-3.201-8.934-3.201-14.242c0-8.97,19.582-26.553,64.847-26.553c37.591,0,90.232,7.984,129.268,45.549
			c-0.152,1.002-0.256,2.02-0.256,3.064v90.431c0,1.464,0.163,2.89,0.458,4.266C201.939,204.391,159.708,229.593,98.966,235.577z
			 M232.516,198.283c-2.834,0-5.139-2.305-5.139-5.139v-90.431c0-2.834,2.306-5.139,5.139-5.139h46.962
			c2.834,0,5.139,2.305,5.139,5.139v90.431c0,2.834-2.305,5.139-5.139,5.139H232.516z M403.179,449.734
			c-14.506-14.086-40.583-37.148-59.457-41.08c-2.4-0.501-4.893,0.188-6.698,1.846l-42.872,39.418L264.61,213.49h14.868
			c4.201,0,8.109-1.281,11.354-3.47c6.078,4.033,20.737,13.024,42.4,21.666C343.678,249.524,412.108,370.028,403.179,449.734z"/>
	</g>
</g>
<g>
	<g>
		<path d="M396.176,171.246c-42.167,0-69.076-13.811-69.076-23.319s26.909-23.319,69.076-23.319c4.199,0,7.604-3.405,7.604-7.604
			s-3.405-7.604-7.604-7.604c-21.434,0-41.7,3.413-57.065,9.609c-17.553,7.079-27.219,17.348-27.219,28.917
			c0,11.569,9.667,21.84,27.219,28.917c15.365,6.197,35.632,9.609,57.065,9.609c4.199,0,7.604-3.405,7.604-7.604
			S400.376,171.246,396.176,171.246z"/>
	</g>
</g>
<g>
	<g>
		<path d="M172.882,119.01c-15.365-6.197-35.632-9.609-57.065-9.609c-4.199,0-7.604,3.405-7.604,7.604s3.405,7.604,7.604,7.604
			c42.168,0,69.076,13.811,69.076,23.319s-26.91,23.319-69.076,23.319c-4.199,0-7.604,3.405-7.604,7.604
			c0,4.199,3.405,7.604,7.604,7.604c21.434,0,41.7-3.413,57.065-9.609c17.553-7.079,27.219-17.348,27.219-28.917
			S190.435,126.089,172.882,119.01z"/>
	</g>
</g>
<g>
</g>
<g>
</g>
<g>
</g>
<g>
</g>
<g>
</g>
<g>
</g>
<g>
</g>
<g>
</g>
<g>
</g>
<g>
</g>
<g>
</g>
<g>
</g>
<g>
</g>
<g>
</g>
<g>
</g>
</svg>
