<svg xmlns="http://www.w3.org/2000/svg" style="display: none;">
<symbol id="user" viewBox="0 0 512 512">
    <title>user</title>
    <path style="fill:#080808" d="M450.876,411.53v88.942c0,6.364-5.165,11.528-11.528,11.528H338.117H173.883H72.652 c-6.364,0-11.528-5.165-11.528-11.528V411.53c0-42.724,34.043-77.632,76.422-79.062c0.415-0.046,59.325,1.706,68.121-61.562 c-28.614-19.944-49.595-56.478-55.313-100.574c-1.13-1.084-2.075-2.398-2.698-3.931c-2.34-5.707-4.3-11.667-5.856-17.731 c-7.321-28.729-5.072-58.461,6.329-83.719c11.747-26.008,31.761-44.246,56.362-51.348c5.142-1.487,10.514-2.456,15.99-2.871 C234.834,3.608,250.028,0,265.684,0c59.89,0,108.621,52.547,108.621,117.14c0,16.82-3.24,33.075-9.626,48.281 c-0.68,1.614-1.683,2.974-2.894,4.07c-3.528,28.256-13.442,54.368-28.821,75.188c-7.908,10.71-16.878,19.529-26.619,26.319 c8.762,63.164,67.695,61.423,68.11,61.47C416.833,333.898,450.876,368.806,450.876,411.53z M427.82,488.943V411.53 c0-30.919-25.155-56.074-56.086-56.074c-0.415,0-16.878,0-33.594-7.102l-61.619,87.754c-2.34,3.332-5.43,5.995-8.946,7.828 c-3.528,1.821-7.47,2.824-11.551,2.824c-8.151,0-15.817-3.989-20.509-10.652l-61.619-87.766 c-14.664,6.663-33.213,7.113-33.628,7.113c-30.931,0-56.086,25.155-56.086,56.074v77.413h89.703h164.234L427.82,488.943 L427.82,488.943z M351.132,121.786c0.069-1.545,0.115-3.09,0.115-4.646c0-51.878-38.39-94.083-85.564-94.083 c-12.704,0-25.074,3.113-36.741,9.246c-1.499,0.784-3.159,1.234-4.842,1.303c-4.554,0.208-9.004,0.934-13.212,2.144 c-37.709,10.894-58.634,58.253-47.036,105.958c12.451-13.073,21.535-29.19,26.077-46.69c1.556-5.937,6.698-10.18,12.82-10.572 c6.099-0.38,11.701,3.159,13.972,8.808c1.464,3.666,3.92,6.848,7.102,9.223c3.724,2.778,8.162,4.242,12.831,4.242h78.578 C329.263,106.719,341.979,112.494,351.132,121.786z M340.192,146.226c0-0.081,0.012-0.161,0.012-0.242 c-4.277-9.546-13.857-16.209-24.971-16.209h-78.578c-9.684,0-18.884-3.055-26.619-8.819c-1.245-0.934-2.444-1.925-3.574-2.974 c-7.493,17.892-18.987,34.032-33.536,46.99c3.113,27.092,12.935,51.843,27.933,70.173c15.367,18.768,34.954,29.109,55.163,29.109 C302.436,264.254,340.192,211.304,340.192,146.226z M257.649,422.851l60.536-86.21c-17.074-13.189-29.305-32.36-33.525-54.345 c-9.2,3.297-18.803,5.015-28.637,5.015c-9.914,0-19.529-1.775-28.671-5.084c-4.208,22.008-16.428,41.191-33.513,54.403 l60.547,86.221c0.404,0.565,0.945,0.853,1.637,0.853C256.703,423.704,257.257,423.416,257.649,422.851z" data-original="#1E0478" class="" data-old_color="#0A0A0B"/><path style="fill:#415AE2" d="M427.82,411.53v77.413h-89.703H173.883H84.18V411.53c0-30.919,25.155-56.074,56.086-56.074 c0.415,0,18.964-0.45,33.628-7.113l61.619,87.766c4.692,6.663,12.358,10.652,20.509,10.652c4.081,0,8.024-1.003,11.551-2.824 c3.516-1.833,6.606-4.496,8.946-7.828l61.619-87.754c16.716,7.102,33.179,7.102,33.594,7.102 C402.664,355.456,427.82,380.611,427.82,411.53z" data-original="#6F7CCD" class="" data-old_color="#415AE1"/><path style="fill:#FFC900" d="M351.248,117.14c0,1.556-0.046,3.101-0.115,4.646c-9.154-9.292-21.869-15.068-35.899-15.068h-78.578 c-4.669,0-9.107-1.464-12.831-4.242c-3.182-2.375-5.637-5.557-7.102-9.223c-2.271-5.649-7.874-9.188-13.972-8.808 c-6.122,0.392-11.263,4.634-12.82,10.572c-4.542,17.5-13.627,33.617-26.077,46.69c-11.598-47.705,9.326-95.063,47.036-105.958 c4.208-1.21,8.658-1.937,13.212-2.144c1.683-0.069,3.343-0.519,4.842-1.303c11.667-6.133,24.037-9.246,36.741-9.246 C312.858,23.057,351.248,65.262,351.248,117.14z" data-original="#9B8CCC" class="active-path" data-old_color="#FFD100"/><g> <path style="fill:#FFFFFF" d="M340.204,145.984c0,0.081-0.012,0.161-0.012,0.242c0,65.078-37.756,118.028-84.169,118.028 c-20.209,0-39.796-10.341-55.163-29.109c-14.998-18.33-24.821-43.082-27.933-70.173c14.549-12.958,26.043-29.098,33.536-46.99 c1.13,1.049,2.329,2.041,3.574,2.974c7.736,5.764,16.935,8.819,26.619,8.819h78.578 C326.346,129.775,335.927,136.439,340.204,145.984z" data-original="#FFFFFF" class=""/> <path style="fill:#FFFFFF" d="M318.184,336.641l-60.536,86.21c-0.392,0.565-0.945,0.853-1.626,0.853 c-0.692,0-1.234-0.288-1.637-0.853l-60.547-86.221c17.085-13.212,29.305-32.395,33.513-54.403 c9.142,3.309,18.757,5.084,28.671,5.084c9.834,0,19.437-1.718,28.637-5.015C288.879,304.281,301.111,323.453,318.184,336.641z" data-original="#FFFFFF" class=""/> </g></symbol><symbol id="bar-chart-1" viewBox="0 0 512 512"><title>bar-chart-1</title><g> <path style="fill:#0E0D0D" d="M499.904,456.612c6.677,0,12.096,5.407,12.096,12.096c0,6.677-5.419,12.096-12.096,12.096H12.096 C5.419,480.804,0,475.385,0,468.708c0-6.689,5.419-12.096,12.096-12.096H499.904z" data-original="#1E0478" class="" data-old_color="#0F0E0E"/> <path style="fill:#0E0D0D" d="M480.466,100.397v300.525c0,6.677-5.407,12.096-12.096,12.096h-84.95h-84.938h-84.962h-84.938H43.63 c-6.689,0-12.096-5.419-12.096-12.096V169.356c0-6.677,5.407-12.096,12.096-12.096h84.95c6.677,0,12.096,5.419,12.096,12.096 v102.828h60.746V43.292c0-6.677,5.419-12.096,12.096-12.096h84.962c6.677,0,12.096,5.419,12.096,12.096v139.346h60.746v-82.241 c0-6.677,5.419-12.096,12.096-12.096h84.95C475.059,88.301,480.466,93.72,480.466,100.397z M456.274,388.826V112.493h-60.758 v82.241v194.093H456.274z M371.323,388.826V206.83h-60.746v181.997H371.323z M286.385,388.826V194.734V55.388h-60.77v333.439 H286.385z M201.423,388.826v-92.45h-60.746v92.45H201.423z M116.485,388.826V181.452H55.726v207.374H116.485z" data-original="#1E0478" class="" data-old_color="#0F0E0E"/> </g><polygon style="fill:#04C300" points="456.274,112.493 456.274,388.826 395.515,388.826 395.515,194.734 395.515,112.493 " data-original="#94E7EF" class="" data-old_color="#05C301"/><rect x="310.577" y="206.83" style="fill:#0088FF" width="60.746" height="181.997" data-original="#9B8CCC" class="active-path" data-old_color="#0089FF"/><polygon style="fill:#04C300" points="286.385,194.734 286.385,388.826 225.615,388.826 225.615,55.388 286.385,55.388 " data-original="#94E7EF" class="" data-old_color="#05C301"/><rect x="140.677" y="296.376" style="fill:#0088FF" width="60.746" height="92.45" data-original="#9B8CCC" class="active-path" data-old_color="#0089FF"/><rect x="55.726" y="181.452" style="fill:#04C300" width="60.758" height="207.374" data-original="#94E7EF" class="" data-old_color="#05C301"/></symbol><symbol id="rocket" viewBox="0 0 512.001 512.001"><title>rocket</title><g> <g> <path d="M391.105,120.92c-9.444-9.444-22-14.645-35.355-14.645c-13.355,0-25.911,5.201-35.355,14.645 c-9.443,9.444-14.645,22-14.645,35.355c0,13.355,5.201,25.912,14.645,35.355c9.444,9.444,22,14.645,35.355,14.645 c13.355,0,25.911-5.201,35.355-14.645c9.443-9.444,14.645-22,14.645-35.355C405.75,142.919,400.549,130.363,391.105,120.92z M376.962,177.488c-5.666,5.667-13.2,8.787-21.213,8.787s-15.547-3.121-21.213-8.787c-5.666-5.666-8.787-13.2-8.787-21.213 s3.12-15.547,8.787-21.213c5.666-5.667,13.2-8.787,21.213-8.787s15.547,3.121,21.213,8.787c5.667,5.666,8.787,13.2,8.787,21.213 S382.628,171.822,376.962,177.488z"/> </g> </g><g> <g> <path d="M495.931,16.094C485.252,5.415,470.24,0,451.313,0c-58.198,0-147.462,51.658-227.409,131.605 c-5.114,5.114-10.128,10.295-15.042,15.524h-77.78c-3.099,0-6.022,1.437-7.916,3.89L2.109,307.846 c-2.688,3.482-2.785,8.311-0.238,11.899c1.913,2.694,4.978,4.212,8.156,4.212c1.052,0,2.116-0.167,3.155-0.512l112.057-37.282 l4.025,4.025l-7.668,7.668c-5.064,5.065-7.854,11.817-7.854,19.012s2.79,13.946,7.854,19.012l8.89,8.889L96.975,378.28 c-4.898,4.898-7.596,11.427-7.596,18.385c0,6.957,2.697,13.487,7.597,18.386c4.898,4.898,11.428,7.595,18.385,7.595 c6.957,0,13.486-2.698,18.385-7.596l33.511-33.511l8.889,8.89c5.066,5.065,11.817,7.854,19.012,7.854 c7.194,0,13.946-2.789,19.012-7.854l7.668-7.668l4.025,4.025l-37.282,112.058c-1.389,4.174,0.113,8.765,3.7,11.311 c1.735,1.232,3.763,1.846,5.787,1.846c2.159,0,4.314-0.697,6.111-2.084l156.829-121.056c2.453-1.894,3.89-4.817,3.89-7.916v-77.78 c5.229-4.914,10.41-9.928,15.523-15.042c50.708-50.709,90.917-106.057,113.22-155.849c2.19-4.89,4.183-9.68,5.98-14.367 c0.018-0.046,0.036-0.092,0.053-0.137C517.225,71.956,516.014,36.177,495.931,16.094z M120.965,266.506L37.969,294.12 l98.027-126.992h54.794C162.175,200.082,138.073,234.298,120.965,266.506z M135.739,311.999l7.668-7.668l13.759,13.759 l-12.537,12.537l-8.89-8.89C133.099,319.098,133.099,314.638,135.739,311.999z M119.603,400.907 c-1.12,1.121-2.627,1.738-4.242,1.738s-3.123-0.618-4.243-1.738c-1.121-1.121-1.738-2.627-1.738-4.243 c0-1.615,0.617-3.122,1.738-4.242l157.367-157.368c1.121-1.12,2.627-1.737,4.242-1.737c1.614,0,3.121,0.617,4.242,1.738 c2.297,2.297,2.299,6.174,0.01,8.475c-0.004,0.003-0.007,0.007-0.01,0.01L119.603,400.907z M200.026,376.286 c-1.287,1.288-3.017,1.997-4.869,1.997c-1.853,0-3.582-0.709-4.869-1.996l-8.889-8.89l12.537-12.537l13.758,13.758 L200.026,376.286z M344.897,376.03l-126.993,98.025l27.612-82.994c32.209-17.108,66.427-41.211,99.381-69.827V376.03z M475.386,124.096c-21.33,47.625-60.08,100.854-109.108,149.882c-40.8,40.8-85.678,75.297-127.131,97.807l-3.168-3.168 l21.944-21.944c3.905-3.905,3.905-10.237,0-14.142c-3.906-3.905-10.236-3.905-14.143,0l-21.944,21.944l-13.759-13.758 l83.035-83.035c0.089-0.089,0.171-0.182,0.259-0.272c0.218-0.225,0.436-0.448,0.646-0.68c0.098-0.108,0.188-0.22,0.284-0.329 c0.193-0.221,0.388-0.442,0.573-0.669c0.077-0.094,0.147-0.19,0.223-0.285c0.198-0.249,0.395-0.497,0.582-0.752 c0.051-0.068,0.097-0.138,0.147-0.207c0.206-0.286,0.409-0.574,0.603-0.867c0.025-0.039,0.049-0.078,0.074-0.117 c0.213-0.325,0.419-0.653,0.616-0.986c0.008-0.013,0.015-0.026,0.022-0.039c1.066-1.812,1.904-3.743,2.5-5.759 c0.014-0.046,0.024-0.094,0.038-0.14c0.101-0.346,0.196-0.694,0.281-1.045c0.037-0.148,0.066-0.299,0.101-0.448 c0.056-0.248,0.113-0.494,0.162-0.744c0.064-0.328,0.118-0.657,0.17-0.986c0.012-0.072,0.025-0.143,0.036-0.215 c0.378-2.546,0.378-5.138,0.001-7.685c-0.014-0.088-0.031-0.175-0.045-0.264c-0.05-0.312-0.1-0.624-0.161-0.935 c-0.053-0.272-0.115-0.54-0.177-0.81c-0.029-0.127-0.055-0.256-0.086-0.383c-0.09-0.373-0.191-0.742-0.299-1.109 c-0.007-0.025-0.013-0.05-0.02-0.074c-0.716-2.427-1.783-4.732-3.179-6.853c-0.011-0.016-0.021-0.032-0.03-0.048 c-0.211-0.319-0.431-0.632-0.656-0.942c-0.031-0.044-0.061-0.088-0.094-0.132c-0.209-0.285-0.428-0.564-0.65-0.84 c-0.052-0.065-0.101-0.133-0.154-0.198c-0.221-0.271-0.451-0.535-0.684-0.797c-0.059-0.066-0.113-0.135-0.173-0.2 c-0.295-0.326-0.599-0.646-0.911-0.958c-1.531-1.531-3.221-2.846-5.033-3.932c-3.988-2.389-8.568-3.664-13.352-3.664 c-0.001,0-0.001,0-0.001,0c-6.957,0-13.486,2.697-18.384,7.595l-83.034,83.035l-13.759-13.759l21.945-21.944 c3.905-3.905,3.905-10.237,0-14.142c-3.905-3.905-10.235-3.905-14.143-0.001l-21.945,21.944l-3.167-3.167 c22.508-41.452,57.006-86.331,97.807-127.132c49.891-49.89,104.395-88.914,150.72-109.542 c2.893,21.909,12.963,42.606,28.704,58.348c15.729,15.729,36.402,25.794,58.289,28.695 C475.632,123.532,475.513,123.812,475.386,124.096z M483.455,103.918c-19.394-1.317-38.017-9.681-51.842-23.507 c-13.843-13.842-22.196-32.465-23.507-51.905C424.044,22.962,438.656,20,451.313,20c13.43,0,23.684,3.444,30.476,10.236 C494.949,43.396,495.384,69.699,483.455,103.918z"/> </g> </g><g> <g> <path d="M278.404,312.047c-3.905-3.905-10.235-3.905-14.142,0l-0.167,0.167c-3.905,3.905-3.905,10.237,0,14.142 c1.953,1.953,4.512,2.929,7.071,2.929c2.56,0,5.118-0.977,7.071-2.929l0.167-0.167 C282.309,322.284,282.309,315.952,278.404,312.047z"/> </g> </g><g> <g> <path d="M199.975,233.617c-3.906-3.905-10.236-3.905-14.142,0l-0.167,0.167c-3.905,3.905-3.905,10.237,0,14.142 c1.953,1.953,4.512,2.929,7.071,2.929c2.56,0,5.118-0.977,7.071-2.929l0.167-0.167C203.88,243.854,203.88,237.522,199.975,233.617 z"/> </g> </g></symbol><symbol id="transport" viewBox="0 0 512.001 512.001"><title>transport</title><g> <g> <path style="fill:#55D08F;" d="M127.943,274.724c19.113-36.952,48.259-77.79,85.243-117.596h-82.105L10.026,313.957 L127.943,274.724z"/> <path style="fill:#55D08F;" d="M261.414,227.983l-90.105,90.106l-26.68,26.679l-40.582,40.582c-6.223,6.222-6.223,16.405,0,22.627 c6.224,6.223,16.405,6.223,22.628,0l40.582-40.582l26.679-26.68l90.106-90.105c6.222-6.223,6.222-16.405-0.001-22.627 C277.818,221.761,267.635,221.761,261.414,227.983z"/> <path style="fill:#55D08F;" d="M354.897,298.839c-39.806,36.984-80.645,66.13-117.597,85.242L198.068,502l156.829-121.056V298.839 z"/> </g> <g> <path style="fill:#E9C1A4;" d="M221.836,368.618l-27.901-27.901l-26.679,26.68l15.96,15.961c6.567,6.567,17.314,6.567,23.881,0 L221.836,368.618z"/> <path style="fill:#E9C1A4;" d="M144.628,344.768l26.68-26.679l-27.901-27.901l-14.739,14.739c-6.567,6.567-6.567,17.314,0,23.881 L144.628,344.768z"/> </g> <path style="fill:#E6E6E6;" d="M143.407,290.188l27.901,27.901l90.105-90.106c6.222-6.222,16.404-6.222,22.627,0.001 c6.223,6.223,6.223,16.405,0.001,22.627l-90.106,90.105l27.901,27.901l15.465,15.464c36.951-19.112,77.79-48.258,117.596-85.242 c6.182-5.743,12.338-11.676,18.452-17.79c56.833-56.834,98.053-117.419,117.02-166.938c-24.644,0.409-48.399-9.2-65.827-26.629 c-17.429-17.428-27.037-41.184-26.629-65.827c-49.518,18.967-110.103,60.187-166.937,117.02 c-6.113,6.114-12.046,12.27-17.789,18.453c-36.984,39.806-66.13,80.644-85.243,117.596L143.407,290.188L143.407,290.188z M327.465,184.559c-15.621-15.621-15.621-40.948,0-56.568c15.621-15.621,40.947-15.621,56.568,0s15.621,40.947,0,56.568 C368.413,200.18,343.086,200.18,327.465,184.559z"/> <circle style="fill:#83D8EF;" cx="355.751" cy="156.28" r="40"/> <path style="fill:#FF3D53;" d="M424.542,87.482c17.428,17.429,41.184,27.038,65.827,26.629 c15.444-40.319,16.136-73.301-1.509-90.946c-17.646-17.645-50.627-16.954-90.947-1.51 C397.504,46.299,407.113,70.054,424.542,87.482z"/> </g><path d="M355.75,106.275c-13.355,0-25.911,5.201-35.355,14.645c-9.443,9.444-14.645,22-14.645,35.355s5.201,25.912,14.645,35.355 c9.444,9.444,22,14.645,35.355,14.645s25.911-5.201,35.355-14.645c9.443-9.444,14.645-22,14.645-35.355 c0-13.356-5.201-25.912-14.645-35.355C381.661,111.476,369.105,106.275,355.75,106.275z M376.962,177.488 c-5.666,5.667-13.2,8.787-21.213,8.787s-15.547-3.121-21.213-8.787c-5.666-5.666-8.787-13.2-8.787-21.213s3.12-15.547,8.787-21.213 c5.666-5.667,13.2-8.787,21.213-8.787s15.547,3.121,21.213,8.787c5.667,5.666,8.787,13.2,8.787,21.213 S382.628,171.822,376.962,177.488z"/><path d="M499.674,117.77c17.551-45.814,16.34-81.593-3.743-101.676C485.252,5.415,470.24,0,451.313,0 c-58.198,0-147.462,51.658-227.409,131.605c-5.114,5.114-10.128,10.295-15.042,15.524h-77.78c-3.099,0-6.022,1.437-7.916,3.89 L2.109,307.846c-2.688,3.482-2.785,8.311-0.238,11.899c1.913,2.694,4.978,4.212,8.156,4.212c1.052,0,2.116-0.167,3.155-0.512 l112.057-37.282l4.025,4.025l-7.668,7.668c-5.064,5.065-7.854,11.817-7.854,19.012s2.79,13.946,7.854,19.012l8.89,8.889 L96.975,378.28c-4.898,4.898-7.596,11.427-7.596,18.385c0,6.957,2.697,13.487,7.597,18.386c4.898,4.898,11.428,7.595,18.385,7.595 s13.486-2.698,18.385-7.596l33.511-33.511l8.889,8.89c5.066,5.065,11.817,7.854,19.012,7.854c7.194,0,13.946-2.789,19.012-7.854 l7.668-7.668l4.025,4.025l-37.282,112.058c-1.389,4.174,0.113,8.765,3.7,11.311c1.735,1.232,3.763,1.846,5.787,1.846 c2.159,0,4.314-0.697,6.111-2.084l156.829-121.056c2.453-1.894,3.89-4.817,3.89-7.916v-77.78c5.229-4.914,10.41-9.928,15.523-15.042 c50.708-50.709,90.917-106.057,113.22-155.849c2.19-4.89,4.183-9.68,5.98-14.367C499.639,117.861,499.657,117.815,499.674,117.77z M481.789,30.236c13.16,13.16,13.595,39.463,1.666,73.682c-19.394-1.317-38.017-9.681-51.842-23.507 c-13.843-13.842-22.196-32.465-23.507-51.905C424.044,22.962,438.656,20,451.313,20C464.743,20,474.997,23.444,481.789,30.236z M135.996,167.128h54.794c-28.615,32.954-52.717,67.17-69.825,99.378L37.969,294.12L135.996,167.128z M135.739,321.737 c-2.64-2.639-2.64-7.099,0-9.738l7.668-7.668l13.759,13.759l-12.537,12.537L135.739,321.737z M119.603,400.907 c-1.12,1.121-2.627,1.738-4.242,1.738s-3.123-0.618-4.243-1.738c-1.121-1.121-1.738-2.627-1.738-4.243 c0-1.615,0.617-3.122,1.738-4.242l0,0l0,0l157.367-157.368l0,0c1.121-1.12,2.627-1.737,4.242-1.737c1.614,0,3.121,0.617,4.242,1.738 c2.297,2.297,2.299,6.174,0.01,8.475c-0.004,0.003-0.007,0.007-0.01,0.01l0,0c-0.002,0.001,0.012-0.012,0.01-0.01L119.603,400.907 L119.603,400.907z M200.026,376.286c-1.287,1.288-3.017,1.997-4.869,1.997c-1.853,0-3.582-0.709-4.869-1.996l-8.889-8.89 l12.537-12.537l0,0l13.758,13.758L200.026,376.286z M344.897,376.03l-126.993,98.025l27.612-82.994 c32.209-17.108,66.427-41.211,99.381-69.827V376.03z M366.278,273.978c-40.8,40.8-85.678,75.297-127.131,97.807l-3.168-3.168 l21.944-21.944c3.905-3.905,3.905-10.237,0-14.142c-3.906-3.905-10.236-3.905-14.143,0l-21.944,21.944l-13.759-13.758l83.035-83.035 c0.089-0.089,0.171-0.182,0.259-0.272c0.218-0.225,0.436-0.448,0.646-0.68c0.098-0.108,0.188-0.22,0.284-0.329 c0.193-0.221,0.388-0.442,0.573-0.669c0.077-0.094,0.147-0.19,0.223-0.285c0.198-0.249,0.395-0.497,0.582-0.752 c0.051-0.068,0.097-0.138,0.147-0.207c0.206-0.286,0.409-0.574,0.603-0.867c0.025-0.039,0.049-0.078,0.074-0.117 c0.213-0.325,0.419-0.653,0.616-0.986c0.008-0.013,0.015-0.026,0.022-0.039c1.066-1.812,1.904-3.743,2.5-5.759 c0.014-0.046,0.024-0.094,0.038-0.14c0.101-0.346,0.196-0.694,0.281-1.045c0.037-0.148,0.066-0.299,0.101-0.448 c0.056-0.248,0.113-0.494,0.162-0.744c0.064-0.328,0.118-0.657,0.17-0.986c0.012-0.072,0.025-0.143,0.036-0.215 c0.378-2.546,0.378-5.138,0.001-7.685c-0.014-0.088-0.031-0.175-0.045-0.264c-0.05-0.312-0.1-0.624-0.161-0.935 c-0.053-0.272-0.115-0.54-0.177-0.81c-0.029-0.127-0.055-0.256-0.086-0.383c-0.09-0.373-0.191-0.742-0.299-1.109 c-0.007-0.025-0.013-0.05-0.02-0.074c-0.716-2.427-1.783-4.732-3.179-6.853c-0.011-0.016-0.021-0.032-0.03-0.048 c-0.211-0.319-0.431-0.632-0.656-0.942c-0.031-0.044-0.061-0.088-0.094-0.132c-0.209-0.285-0.428-0.564-0.65-0.84 c-0.052-0.065-0.101-0.133-0.154-0.198c-0.221-0.271-0.451-0.535-0.684-0.797c-0.059-0.066-0.113-0.135-0.173-0.2 c-0.295-0.326-0.599-0.646-0.911-0.958c-1.531-1.531-3.221-2.846-5.033-3.932c-3.988-2.389-8.568-3.664-13.352-3.664l0,0 c-0.001,0-0.001,0-0.001,0c-6.957,0-13.486,2.697-18.384,7.595l-83.034,83.035l-13.759-13.759l21.945-21.944 c3.905-3.905,3.905-10.237,0-14.142s-10.235-3.905-14.143-0.001l-21.945,21.944l-3.167-3.167 c22.508-41.452,57.006-86.331,97.807-127.132c49.891-49.89,104.395-88.914,150.72-109.542c2.893,21.909,12.963,42.606,28.704,58.348 c15.729,15.729,36.402,25.794,58.289,28.695c-0.126,0.284-0.245,0.564-0.372,0.848C454.056,171.721,415.306,224.95,366.278,273.978z "/><path d="M264.262,312.047l-0.167,0.167c-3.905,3.905-3.905,10.237,0,14.142c1.953,1.953,4.512,2.929,7.071,2.929 c2.56,0,5.118-0.977,7.071-2.929l0.167-0.167c3.905-3.905,3.905-10.237,0-14.142C274.499,308.142,268.169,308.142,264.262,312.047z"/><path d="M185.833,233.617l-0.167,0.167c-3.905,3.905-3.905,10.237,0,14.142c1.953,1.953,4.512,2.929,7.071,2.929 c2.56,0,5.118-0.977,7.071-2.929l0.167-0.167c3.905-3.905,3.905-10.237,0-14.142C196.069,229.712,189.739,229.712,185.833,233.617z"/></symbol><symbol id="message" viewBox="0 0 511.999 511.999"><title>message</title><path d="M511.947,220.792c-0.027-0.26-0.07-0.514-0.114-0.767c-0.017-0.089-0.023-0.179-0.042-0.268 c-0.061-0.306-0.14-0.606-0.227-0.902c-0.011-0.035-0.017-0.07-0.027-0.107c-0.092-0.301-0.201-0.595-0.317-0.884 c-0.013-0.032-0.022-0.065-0.035-0.096c-0.112-0.273-0.242-0.538-0.377-0.798c-0.025-0.049-0.046-0.099-0.07-0.147 c-0.125-0.234-0.265-0.458-0.406-0.681c-0.046-0.071-0.085-0.147-0.133-0.218c-0.133-0.201-0.284-0.39-0.429-0.58 c-0.067-0.085-0.125-0.176-0.194-0.259c-0.173-0.21-0.361-0.409-0.548-0.605c-0.052-0.054-0.098-0.113-0.15-0.166L297.686,3.124 c-0.146-0.146-0.302-0.274-0.452-0.41c-0.107-0.095-0.208-0.196-0.319-0.286c-0.169-0.14-0.346-0.263-0.521-0.39 c-0.107-0.078-0.208-0.16-0.319-0.234c-0.177-0.118-0.361-0.223-0.542-0.33c-0.118-0.07-0.234-0.144-0.356-0.209 c-0.173-0.094-0.352-0.173-0.531-0.256c-0.138-0.065-0.275-0.134-0.417-0.194c-0.166-0.068-0.335-0.125-0.507-0.185 c-0.16-0.058-0.319-0.119-0.481-0.169c-0.164-0.049-0.33-0.085-0.494-0.127c-0.173-0.044-0.346-0.093-0.521-0.128 c-0.181-0.036-0.363-0.057-0.544-0.083c-0.164-0.025-0.325-0.054-0.492-0.071c-0.298-0.029-0.598-0.041-0.898-0.045 c-0.05,0-0.1-0.008-0.153-0.008c-0.077,0-0.15,0.01-0.227,0.012c-0.273,0.005-0.546,0.015-0.817,0.042 c-0.194,0.018-0.381,0.053-0.571,0.082c-0.151,0.023-0.306,0.041-0.461,0.07c-0.206,0.041-0.409,0.097-0.61,0.149 c-0.133,0.035-0.267,0.063-0.398,0.102c-0.201,0.061-0.394,0.133-0.588,0.206c-0.133,0.048-0.267,0.092-0.398,0.145 c-0.186,0.077-0.365,0.166-0.546,0.253c-0.133,0.064-0.269,0.123-0.4,0.193c-0.179,0.095-0.35,0.204-0.523,0.309 c-0.125,0.076-0.252,0.146-0.373,0.227c-0.201,0.133-0.391,0.281-0.581,0.427c-0.085,0.066-0.175,0.125-0.258,0.193 c-0.282,0.23-0.553,0.474-0.809,0.732L3.125,282.599c-0.011,0.011-0.018,0.021-0.027,0.03c-0.236,0.237-0.461,0.484-0.673,0.742 c-0.061,0.073-0.111,0.153-0.169,0.226c-0.156,0.202-0.313,0.401-0.454,0.613c-0.044,0.065-0.079,0.133-0.121,0.198 c-0.146,0.229-0.289,0.46-0.419,0.699c-0.022,0.046-0.044,0.095-0.067,0.141c-0.135,0.262-0.267,0.529-0.379,0.804 c-0.015,0.031-0.023,0.063-0.035,0.094c-0.116,0.29-0.225,0.585-0.317,0.886c-0.011,0.034-0.017,0.07-0.027,0.106 c-0.087,0.297-0.166,0.597-0.227,0.904c-0.017,0.083-0.025,0.169-0.039,0.253c-0.046,0.258-0.09,0.516-0.116,0.782 C0.019,289.429,0,289.784,0,290.142s0.019,0.713,0.054,1.065c0.027,0.265,0.07,0.523,0.116,0.781 c0.015,0.084,0.023,0.17,0.039,0.253c0.061,0.307,0.14,0.607,0.227,0.905c0.011,0.034,0.017,0.07,0.027,0.106 c0.092,0.301,0.201,0.595,0.317,0.884c0.013,0.031,0.021,0.064,0.035,0.096c0.112,0.273,0.241,0.538,0.377,0.798 c0.025,0.049,0.044,0.099,0.07,0.148c0.125,0.236,0.267,0.461,0.411,0.686c0.044,0.069,0.081,0.144,0.127,0.212 c0.135,0.201,0.286,0.391,0.433,0.583c0.064,0.084,0.123,0.174,0.192,0.256c0.173,0.21,0.358,0.409,0.548,0.604 c0.052,0.054,0.096,0.114,0.15,0.166l192.981,192.981h-46.774c-5.891,0-10.667,4.776-10.667,10.667 c0,5.89,4.776,10.667,10.667,10.667h213.333c5.891,0,10.667-4.777,10.667-10.667c0-5.891-4.776-10.667-10.667-10.667H247.611 l261.267-261.267c0.008-0.009,0.016-0.02,0.027-0.029c0.236-0.237,0.461-0.484,0.671-0.742c0.063-0.074,0.112-0.154,0.173-0.228 c0.155-0.201,0.31-0.4,0.45-0.61c0.046-0.067,0.083-0.138,0.125-0.205c0.146-0.226,0.288-0.455,0.415-0.692 c0.025-0.046,0.044-0.094,0.068-0.141c0.135-0.262,0.264-0.529,0.379-0.804c0.013-0.031,0.023-0.063,0.035-0.094 c0.116-0.29,0.225-0.585,0.317-0.886c0.011-0.035,0.017-0.071,0.027-0.107c0.087-0.297,0.166-0.596,0.227-0.902 c0.019-0.089,0.025-0.179,0.042-0.269c0.044-0.254,0.087-0.508,0.114-0.767c0.035-0.352,0.052-0.707,0.052-1.065 C511.999,221.499,511.982,221.144,511.947,220.792z M36.419,279.475L279.475,36.421v243.055H36.419V279.475z M366.943,232.523 h108.639L221.858,486.247L36.419,300.808h174.772v94.555c0,5.891,4.778,10.667,10.667,10.667c5.891,0,10.667-4.776,10.667-10.667 v-94.555h57.618c5.89,0,10.667-4.775,10.667-10.667V36.417L475.582,211.19H366.943c-5.889,0-10.667,4.776-10.667,10.667 S361.053,232.523,366.943,232.523z"/><path d="M332.809,211.189h-6.4c-5.889,0-10.667,4.776-10.667,10.667c0,5.891,4.778,10.667,10.667,10.667h6.4 c5.891,0,10.667-4.776,10.667-10.667C343.476,215.965,338.7,211.189,332.809,211.189z"/><path d="M221.858,418.829c-5.889,0-10.667,4.777-10.667,10.667v6.402c0,5.891,4.778,10.667,10.667,10.667 c5.891,0,10.667-4.775,10.667-10.667v-6.402C232.525,423.604,227.75,418.829,221.858,418.829z"/></symbol><symbol id="multimedia" viewBox="0 0 512 512"><title>multimedia</title><g> <polygon style="fill:#FF2C47;" points="290.144,290.143 290.144,10.667 10.667,290.143 221.858,290.143 "/> <polygon style="fill:#FF9600;" points="290.144,10.667 290.144,290.143 221.858,290.143 10.667,290.143 221.858,501.332 501.333,221.856 "/> </g><g> <path style="fill:#000003;" d="M508.905,229.369c0.236-0.237,0.461-0.484,0.671-0.742c0.063-0.074,0.112-0.154,0.173-0.228 c0.155-0.201,0.31-0.4,0.45-0.61c0.046-0.067,0.083-0.138,0.125-0.205c0.146-0.226,0.288-0.455,0.415-0.692 c0.025-0.046,0.044-0.094,0.069-0.141c0.135-0.262,0.265-0.529,0.379-0.804c0.013-0.031,0.023-0.063,0.035-0.094 c0.116-0.29,0.225-0.585,0.317-0.886c0.011-0.035,0.017-0.071,0.027-0.107c0.087-0.297,0.166-0.596,0.227-0.902 c0.019-0.089,0.025-0.179,0.042-0.268c0.044-0.254,0.087-0.508,0.114-0.767c0.035-0.352,0.052-0.707,0.052-1.065 s-0.017-0.713-0.052-1.065c-0.027-0.26-0.07-0.513-0.114-0.767c-0.017-0.089-0.022-0.179-0.042-0.268 c-0.061-0.306-0.14-0.606-0.227-0.902c-0.011-0.035-0.017-0.07-0.027-0.107c-0.092-0.301-0.201-0.595-0.317-0.884 c-0.013-0.032-0.022-0.065-0.035-0.096c-0.112-0.273-0.242-0.538-0.377-0.798c-0.025-0.049-0.046-0.099-0.07-0.147 c-0.125-0.234-0.264-0.458-0.406-0.681c-0.046-0.071-0.085-0.147-0.133-0.218c-0.133-0.201-0.284-0.39-0.429-0.58 c-0.067-0.085-0.125-0.176-0.194-0.259c-0.173-0.21-0.361-0.409-0.548-0.605c-0.052-0.054-0.098-0.113-0.15-0.166L297.686,3.124 c-0.146-0.146-0.302-0.274-0.452-0.41c-0.107-0.095-0.208-0.196-0.319-0.286c-0.169-0.14-0.346-0.263-0.521-0.39 c-0.107-0.078-0.208-0.16-0.319-0.234c-0.177-0.118-0.361-0.223-0.542-0.331c-0.118-0.069-0.234-0.144-0.356-0.209 c-0.173-0.094-0.352-0.173-0.531-0.256c-0.138-0.064-0.275-0.134-0.417-0.194c-0.166-0.069-0.335-0.125-0.507-0.185 c-0.16-0.058-0.319-0.119-0.481-0.169c-0.164-0.049-0.33-0.085-0.494-0.127c-0.173-0.044-0.346-0.093-0.521-0.128 c-0.181-0.036-0.363-0.057-0.544-0.083c-0.164-0.023-0.325-0.054-0.492-0.07c-0.298-0.029-0.598-0.042-0.898-0.045 c-0.05-0.001-0.1-0.007-0.153-0.007c-0.077,0-0.15,0.01-0.227,0.012c-0.273,0.005-0.546,0.015-0.817,0.042 c-0.194,0.019-0.381,0.053-0.571,0.082c-0.153,0.023-0.306,0.041-0.461,0.07c-0.206,0.041-0.409,0.097-0.61,0.149 c-0.133,0.035-0.267,0.063-0.398,0.102c-0.201,0.061-0.394,0.133-0.588,0.206c-0.133,0.048-0.267,0.091-0.398,0.145 c-0.186,0.077-0.365,0.166-0.546,0.253c-0.133,0.064-0.269,0.123-0.4,0.193c-0.179,0.095-0.35,0.204-0.523,0.308 c-0.125,0.076-0.252,0.146-0.373,0.227c-0.201,0.133-0.391,0.281-0.581,0.427c-0.085,0.066-0.175,0.125-0.258,0.193 c-0.282,0.23-0.553,0.474-0.809,0.731L3.125,282.6c-0.011,0.01-0.019,0.02-0.027,0.03c-0.236,0.237-0.461,0.484-0.673,0.742 c-0.061,0.074-0.111,0.153-0.169,0.226c-0.156,0.201-0.313,0.401-0.454,0.613c-0.044,0.064-0.079,0.133-0.121,0.198 c-0.146,0.228-0.289,0.459-0.419,0.699c-0.022,0.046-0.044,0.094-0.067,0.141c-0.135,0.262-0.267,0.529-0.379,0.804 c-0.015,0.031-0.023,0.063-0.035,0.094c-0.116,0.29-0.225,0.585-0.317,0.886c-0.011,0.035-0.017,0.07-0.027,0.106 c-0.087,0.297-0.166,0.597-0.227,0.905c-0.017,0.083-0.025,0.169-0.039,0.253c-0.046,0.258-0.09,0.516-0.116,0.781 C0.019,289.43,0,289.785,0,290.143s0.019,0.713,0.054,1.065c0.027,0.265,0.07,0.523,0.116,0.781 c0.015,0.084,0.022,0.17,0.039,0.253c0.061,0.307,0.14,0.607,0.227,0.905c0.011,0.034,0.017,0.07,0.027,0.106 c0.092,0.301,0.201,0.595,0.317,0.884c0.013,0.032,0.021,0.065,0.035,0.096c0.112,0.273,0.242,0.538,0.377,0.798 c0.026,0.049,0.044,0.099,0.07,0.147c0.125,0.236,0.267,0.462,0.411,0.686c0.044,0.069,0.081,0.143,0.127,0.212 c0.135,0.202,0.286,0.393,0.433,0.583c0.065,0.084,0.123,0.174,0.192,0.256c0.173,0.21,0.358,0.409,0.548,0.605 c0.052,0.054,0.096,0.113,0.15,0.166l192.981,192.981h-46.774c-5.891,0-10.667,4.775-10.667,10.667s4.776,10.667,10.667,10.667 h213.333c5.891,0,10.667-4.775,10.667-10.667s-4.776-10.667-10.667-10.667H247.611l261.266-261.267 C508.885,229.389,508.894,229.378,508.905,229.369z M366.943,232.523h108.639L221.858,486.247L36.42,300.809h174.772v94.555 c0,5.891,4.778,10.667,10.667,10.667c5.891,0,10.667-4.775,10.667-10.667v-94.555h57.618c5.889,0,10.667-4.775,10.667-10.667 V36.417L475.582,211.19H366.943c-5.889,0-10.667,4.776-10.667,10.667S361.053,232.523,366.943,232.523z M36.42,279.476 L279.475,36.421v243.055H36.42z"/> <path style="fill:#000003;" d="M332.809,211.19h-6.4c-5.889,0-10.667,4.776-10.667,10.667s4.778,10.667,10.667,10.667h6.4 c5.891,0,10.667-4.775,10.667-10.667S338.7,211.19,332.809,211.19z"/> <path style="fill:#000003;" d="M221.858,418.829c-5.889,0-10.667,4.775-10.667,10.667v6.402c0,5.891,4.778,10.667,10.667,10.667 c5.891,0,10.667-4.775,10.667-10.667v-6.402C232.525,423.604,227.75,418.829,221.858,418.829z"/> </g></symbol><symbol id="bar-chart" viewBox="0 0 512 512"><title>bar-chart</title><g> <g> <path d="M499.904,456.607H12.096C5.415,456.607,0,462.022,0,468.703c0,6.679,5.415,12.096,12.096,12.096h487.808 c6.679,0,12.096-5.417,12.096-12.096C512,462.023,506.585,456.607,499.904,456.607z"/> </g> </g><g> <g> <path d="M468.37,88.305h-84.948c-6.679,0-12.096,5.417-12.096,12.096v82.24h-60.757V43.297c0-6.679-5.417-12.096-12.096-12.096 h-84.95c-6.679,0-12.096,5.417-12.096,12.096v228.882h-60.757V169.36c0-6.681-5.417-12.096-12.096-12.096H43.626 c-6.681,0-12.096,5.415-12.096,12.096v231.563c0,6.681,5.417,12.096,12.096,12.096h84.948h84.948h84.95h84.949h84.948 c6.681,0,12.096-5.417,12.096-12.096V100.401C480.466,93.722,475.051,88.305,468.37,88.305z M116.479,388.827H55.722V181.456 h60.757V388.827z M201.429,388.827h-60.757v-92.456h60.757V388.827z M286.378,194.737v194.09H225.62V55.393h60.758V194.737z M371.328,388.827h-60.757V206.833h60.757V388.827z M456.276,388.827H395.52v-194.09v-82.24h60.757V388.827z"/> </g> </g></symbol><symbol id="settings" viewBox="0 0 511.999 511.999"><title>settings</title><g> <g> <path d="M489.175,206.556c-9.629-1.442-19.514-2.825-29.379-4.111c-1.195-0.155-2.165-0.966-2.467-2.064 c-4.553-16.523-11.16-32.467-19.636-47.389c-0.57-1.002-0.463-2.266,0.273-3.223c6.067-7.885,12.081-15.856,17.876-23.69 c7.824-10.578,6.688-25.588-2.64-34.917l-32.366-32.366c-9.329-9.328-24.338-10.464-34.918-2.638 c-7.817,5.782-15.787,11.796-23.689,17.875c-0.954,0.736-2.221,0.843-3.223,0.274c-14.921-8.476-30.865-15.083-47.389-19.637 c-1.099-0.301-1.91-1.271-2.066-2.469c-1.289-9.88-2.671-19.764-4.109-29.376C303.495,9.812,292.079,0,278.886,0h-45.773 c-13.194,0-24.61,9.812-26.554,22.824c-1.439,9.614-2.821,19.497-4.11,29.379c-0.157,1.197-0.967,2.165-2.067,2.467 c-16.524,4.556-32.469,11.162-47.387,19.637c-1.003,0.569-2.269,0.459-3.225-0.274c-7.901-6.079-15.872-12.093-23.69-17.876 c-10.581-7.825-25.59-6.687-34.917,2.64L58.797,91.163c-9.329,9.33-10.464,24.341-2.638,34.918 c5.804,7.846,11.818,15.815,17.875,23.688c0.735,0.955,0.843,2.22,0.274,3.223c-8.478,14.925-15.084,30.869-19.637,47.389 c-0.301,1.097-1.271,1.908-2.467,2.065c-9.86,1.287-19.744,2.669-29.378,4.111C9.812,208.502,0,219.92,0,233.112v45.774 c0,13.193,9.812,24.61,22.824,26.556c9.634,1.442,19.519,2.824,29.379,4.11c1.197,0.157,2.165,0.967,2.467,2.066 c4.553,16.521,11.16,32.465,19.637,47.389c0.569,1.003,0.461,2.268-0.274,3.223c-6.072,7.892-12.086,15.862-17.875,23.689 c-7.825,10.578-6.691,25.589,2.638,34.918l32.366,32.366c9.33,9.329,24.341,10.465,34.918,2.638 c7.817-5.782,15.787-11.796,23.689-17.875c0.955-0.736,2.221-0.842,3.223-0.274c14.92,8.476,30.863,15.081,47.389,19.637 c1.099,0.302,1.91,1.271,2.066,2.467c1.289,9.88,2.672,19.765,4.11,29.376c1.946,13.013,13.362,22.825,26.556,22.825h45.773 c13.193,0,24.61-9.812,26.555-22.827c1.439-9.623,2.821-19.507,4.109-29.376c0.157-1.197,0.967-2.166,2.066-2.469 c16.524-4.556,32.469-11.162,47.388-19.637c1.003-0.567,2.268-0.459,3.224,0.274c7.901,6.079,15.872,12.093,23.689,17.875 c10.578,7.825,25.588,6.691,34.918-2.638l32.366-32.366c9.328-9.329,10.464-24.339,2.639-34.918 c-5.795-7.831-11.81-15.802-17.876-23.689c-0.735-0.955-0.843-2.22-0.273-3.223c8.477-14.924,15.083-30.868,19.636-47.388 c0.304-1.1,1.272-1.91,2.469-2.067c9.863-1.286,19.748-2.669,29.378-4.11c13.013-1.945,22.825-13.362,22.825-26.555v-45.774 C511.999,219.919,502.187,208.501,489.175,206.556z M488.091,278.888c0,1.45-1.054,2.7-2.453,2.911 c-9.482,1.419-19.216,2.779-28.932,4.048c-10.758,1.402-19.56,9.024-22.426,19.42c-4.029,14.618-9.875,28.727-17.375,41.932 c-5.333,9.389-4.504,21.012,2.112,29.612c5.976,7.768,11.899,15.617,17.604,23.329c0.842,1.137,0.702,2.769-0.323,3.794 l-32.367,32.366c-1.026,1.026-2.657,1.163-3.793,0.324c-7.697-5.695-15.548-11.618-23.33-17.605 c-8.599-6.617-20.221-7.446-29.609-2.114c-13.205,7.5-27.314,13.347-41.934,17.377c-10.394,2.865-18.016,11.667-19.421,22.426 c-1.267,9.722-2.629,19.456-4.047,28.932c-0.209,1.399-1.461,2.453-2.911,2.453h-45.773c-1.45,0-2.702-1.054-2.911-2.454 c-1.415-9.465-2.778-19.199-4.047-28.93c-1.403-10.759-9.027-19.561-19.421-22.426c-14.621-4.03-28.73-9.877-41.934-17.378 c-4.117-2.337-8.664-3.491-13.196-3.491c-5.804,0-11.585,1.89-16.412,5.607c-7.783,5.987-15.633,11.91-23.33,17.605 c-1.138,0.839-2.767,0.702-3.792-0.324l-32.367-32.366c-1.026-1.026-1.166-2.656-0.324-3.793 c5.701-7.707,11.623-15.556,17.604-23.33c6.615-8.6,7.445-20.221,2.114-29.609c-7.503-13.209-13.348-27.317-17.377-41.934 c-2.865-10.394-11.667-18.017-22.425-19.42c-9.712-1.267-19.447-2.63-28.934-4.048c-1.399-0.21-2.453-1.461-2.453-2.911v-45.774 c0-1.45,1.054-2.701,2.453-2.911c9.487-1.419,19.221-2.781,28.932-4.048c10.759-1.402,19.561-9.025,22.426-19.42 c4.027-14.616,9.874-28.725,17.377-41.934c5.332-9.389,4.502-21.011-2.113-29.609c-5.965-7.756-11.888-15.604-17.604-23.33 c-0.84-1.137-0.701-2.769,0.324-3.793l32.365-32.367c1.024-1.026,2.655-1.163,3.792-0.324c7.697,5.694,15.547,11.617,23.33,17.605 c8.6,6.614,20.221,7.445,29.611,2.112c13.203-7.5,27.312-13.347,41.932-17.377c10.395-2.865,18.019-11.667,19.422-22.426 c1.27-9.731,2.631-19.465,4.048-28.933c0.209-1.397,1.461-2.452,2.911-2.452h45.773c1.45,0,2.702,1.054,2.911,2.453 c1.417,9.465,2.778,19.198,4.048,28.932c1.403,10.759,9.027,19.561,19.421,22.426c14.62,4.03,28.728,9.877,41.934,17.377 c9.388,5.33,21.01,4.502,29.608-2.114c7.783-5.987,15.633-11.91,23.329-17.604c1.137-0.842,2.769-0.703,3.794,0.324l32.366,32.366 c1.026,1.026,1.164,2.657,0.324,3.793c-5.705,7.714-11.628,15.562-17.604,23.33c-6.615,8.601-7.445,20.223-2.112,29.612 c7.501,13.205,13.347,27.313,17.377,41.933c2.865,10.394,11.669,18.016,22.424,19.418c9.716,1.268,19.451,2.63,28.934,4.048 c1.399,0.21,2.453,1.461,2.453,2.911V278.888z"/> </g> </g><g> <g> <path d="M256,144.866c-61.28,0-111.134,49.854-111.134,111.134S194.72,367.134,256,367.134S367.134,317.28,367.134,256 S317.28,144.866,256,144.866z M256,343.225c-48.097,0-87.225-39.129-87.225-87.225c0-48.097,39.13-87.225,87.225-87.225 c48.096,0,87.225,39.129,87.225,87.225S304.097,343.225,256,343.225z"/> </g> </g></symbol><symbol id="monitor" viewBox="0 0 511.999 511.999"><title>monitor</title><g> <g> <path d="M481.091,27.937H30.909C13.866,27.937,0,41.803,0,58.846v310.819c0,17.043,13.866,30.909,30.909,30.909h154.26v22.49 c0,20.617-16.774,37.391-37.391,37.391h-33.997c-6.518,0-11.803,5.284-11.803,11.803c0,6.519,5.285,11.803,11.803,11.803h284.436 c6.518,0,11.803-5.284,11.803-11.803c0-6.519-5.285-11.803-11.803-11.803h-33.998c-20.617,0-37.391-16.774-37.391-37.391v-22.489 h154.26c17.043,0,30.91-13.866,30.91-30.909V58.846C512,41.803,498.134,27.937,481.091,27.937z M195.92,460.457 c8.046-10.336,12.857-23.308,12.857-37.391v-22.49h94.447v22.49c0,14.083,4.811,27.056,12.857,37.391H195.92z M488.394,369.666 c0,4.027-3.276,7.304-7.304,7.304H30.909c-4.027,0-7.304-3.276-7.304-7.304v-62.033h464.789V369.666z M488.394,284.026H23.606 V58.846c0-4.027,3.276-7.304,7.304-7.304h450.18c4.027,0,7.305,3.276,7.305,7.304V284.026z"/> </g> </g><g> <g> <circle cx="256.003" cy="342.305" r="12.738"/> </g> </g><g> <g> <path d="M276.238,109.254c-4.61-4.609-12.081-4.609-16.693,0l-83.414,83.414c-4.609,4.609-4.609,12.083,0,16.693 c2.306,2.305,5.325,3.457,8.347,3.457c3.022,0,6.041-1.152,8.346-3.457l83.414-83.414 C280.847,121.338,280.847,113.864,276.238,109.254z"/> </g> </g><g> <g> <path d="M325.678,157.593c-4.608-4.609-12.079-4.609-16.692-0.001l-33.23,33.228c-4.609,4.61-4.609,12.084,0,16.693 c2.305,2.305,5.325,3.457,8.346,3.457c3.02,0,6.041-1.152,8.346-3.457l33.23-33.228 C330.287,169.676,330.287,162.202,325.678,157.593z"/> </g> </g></symbol><symbol id="user-1" viewBox="0 0 512 512"><title>user-1</title><path d="M374.45,332.463c-0.407-0.044-59.344,1.695-68.107-61.463c9.737-6.794,18.711-15.614,26.617-26.316 c15.38-20.82,25.29-46.938,28.82-75.189c1.213-1.097,2.217-2.462,2.893-4.071c6.387-15.215,9.626-31.461,9.626-48.289 C374.299,52.547,325.578,0,265.688,0c-15.663,0-30.859,3.608-45.211,10.733c-5.475,0.418-10.84,1.381-15.985,2.867 c-24.597,7.107-44.613,25.344-56.362,51.354c-11.406,25.254-13.654,54.983-6.328,83.712c1.548,6.069,3.516,12.033,5.85,17.731 c0.632,1.541,1.574,2.856,2.705,3.938c5.718,44.095,26.699,80.63,55.307,100.577c-8.79,63.265-67.706,61.509-68.112,61.553 c-42.382,1.438-76.425,36.341-76.425,79.067v88.941c0,6.367,5.161,11.528,11.528,11.528h101.231h164.227h101.233 c6.366,0,11.529-5.161,11.529-11.528v-88.941C450.874,368.804,416.834,333.9,374.45,332.463z M210.893,35.751 c4.207-1.216,8.65-1.937,13.206-2.142c1.691-0.076,3.344-0.523,4.843-1.311c11.671-6.132,24.035-9.241,36.747-9.241 c47.174,0,85.554,42.203,85.554,94.078c0,1.557-0.044,3.106-0.112,4.649c-9.15-9.292-21.863-15.067-35.902-15.067h-78.571 c-4.675,0-9.112-1.468-12.833-4.246c-3.177-2.371-5.633-5.558-7.1-9.216c-2.272-5.658-7.874-9.197-13.972-8.814 c-6.12,0.39-11.27,4.64-12.816,10.579c-4.553,17.496-13.632,33.612-26.088,46.681C152.259,94.002,173.176,46.648,210.893,35.751z M200.863,235.14c-15.001-18.326-24.825-43.073-27.939-70.166c14.547-12.965,26.047-29.099,33.534-46.995 c1.136,1.048,2.329,2.039,3.575,2.97c7.736,5.773,16.942,8.826,26.626,8.826h78.571c11.117,0,20.699,6.668,24.975,16.211 c-0.001,0.082-0.013,0.16-0.013,0.242c0,65.078-37.76,118.023-84.174,118.023C235.818,264.252,216.229,253.913,200.863,235.14z M227.352,282.233c9.139,3.307,18.752,5.076,28.666,5.076c9.835,0,19.444-1.712,28.643-5.015 c4.221,21.991,16.448,41.158,33.527,54.353l-60.535,86.208c-0.395,0.563-0.944,0.848-1.632,0.848c-0.687,0-1.236-0.286-1.63-0.847 l-60.55-86.228C210.921,323.418,223.144,304.237,227.352,282.233z M427.817,488.943h-89.704H173.886H84.183v-77.413 c0-30.922,25.157-56.079,56.079-56.079c0.42,0,18.971-0.451,33.629-7.112l61.629,87.766c4.684,6.672,12.348,10.655,20.5,10.655 c0,0,0,0,0.001,0c8.151,0,15.816-3.983,20.5-10.655l61.618-87.752c16.717,7.099,33.18,7.099,33.6,7.099 c30.922,0,56.078,25.157,56.078,56.079V488.943z"/></symbol><symbol id="cogwheel" viewBox="0 0 512 512"><title>cogwheel</title><path style="fill:#1E0478;" d="M512,233.108v45.785c0,13.186-9.814,24.602-22.821,26.55c-9.635,1.435-19.521,2.821-29.384,4.112 c-1.195,0.155-2.164,0.968-2.463,2.068c-4.555,16.521-11.165,32.456-19.641,47.387c-0.574,1.004-0.466,2.259,0.275,3.216 c6.061,7.89,12.086,15.863,17.872,23.693c7.83,10.579,6.694,25.594-2.642,34.918l-32.36,32.36 c-9.336,9.336-24.339,10.472-34.918,2.642c-7.818-5.786-15.792-11.799-23.693-17.872c-0.956-0.729-2.212-0.837-3.216-0.275 c-14.919,8.476-30.866,15.086-47.387,19.641c-1.1,0.299-1.913,1.267-2.068,2.463c-1.291,9.874-2.678,19.76-4.112,29.383 C303.494,502.186,292.078,512,278.88,512H233.12c-13.197,0-24.614-9.814-26.562-22.821c-1.434-9.611-2.821-19.497-4.112-29.383 c-0.155-1.195-0.968-2.164-2.068-2.463c-16.521-4.555-32.468-11.165-47.387-19.641c-0.992-0.562-2.259-0.466-3.216,0.275 c-7.902,6.073-15.875,12.086-23.693,17.872c-10.579,7.83-25.582,6.694-34.918-2.642l-32.36-32.36 c-9.336-9.324-10.472-24.339-2.642-34.918c5.786-7.83,11.799-15.792,17.872-23.693c0.741-0.956,0.849-2.212,0.275-3.216 c-8.476-14.931-15.086-30.878-19.641-47.387c-0.299-1.1-1.267-1.913-2.463-2.068c-9.862-1.291-19.748-2.666-29.384-4.112 C9.814,303.494,0,292.078,0,278.892v-45.785c0-13.186,9.814-24.602,22.821-26.55c9.635-1.446,19.521-2.821,29.384-4.112 c1.195-0.155,2.164-0.968,2.463-2.068c4.555-16.509,11.165-32.456,19.641-47.387c0.574-1.004,0.466-2.259-0.275-3.216 c-6.061-7.878-12.074-15.851-17.872-23.693c-7.83-10.579-6.694-25.582,2.642-34.918l32.36-32.36 c9.324-9.336,24.339-10.472,34.918-2.642c7.818,5.786,15.792,11.799,23.693,17.872c0.956,0.729,2.223,0.849,3.216,0.275 c14.919-8.476,30.866-15.086,47.387-19.641c1.1-0.299,1.913-1.267,2.068-2.463c1.291-9.886,2.678-19.772,4.112-29.384 C208.506,9.814,219.922,0,233.12,0h45.773c13.186,0,24.602,9.814,26.55,22.821c1.435,9.611,2.821,19.497,4.112,29.384 c0.155,1.195,0.968,2.164,2.068,2.463c16.521,4.555,32.468,11.165,47.387,19.641c1.004,0.574,2.271,0.466,3.216-0.275 c7.902-6.073,15.875-12.086,23.693-17.872c10.579-7.83,25.594-6.694,34.918,2.642l32.36,32.36 c9.336,9.324,10.472,24.339,2.642,34.918c-5.786,7.83-11.811,15.804-17.872,23.693c-0.741,0.956-0.849,2.223-0.275,3.216 c8.476,14.931,15.086,30.866,19.641,47.387c0.299,1.1,1.267,1.913,2.463,2.068c9.862,1.291,19.748,2.678,29.384,4.112 C502.186,208.506,512,219.922,512,233.108z M488.092,278.892v-45.785c0-1.446-1.052-2.69-2.451-2.905 c-9.492-1.423-19.222-2.785-28.941-4.052c-10.747-1.399-19.557-9.013-22.414-19.414c-4.029-14.62-9.874-28.726-17.381-41.935 c-5.332-9.384-4.507-21.004,2.116-29.611c5.977-7.77,11.894-15.612,17.597-23.323c0.849-1.136,0.705-2.773-0.323-3.801l-32.36-32.36 c-1.028-1.028-2.666-1.172-3.801-0.323c-7.687,5.69-15.54,11.608-23.323,17.597c-8.595,6.623-20.227,7.447-29.611,2.116 c-13.209-7.495-27.315-13.341-41.935-17.381c-10.388-2.857-18.015-11.667-19.414-22.426c-1.279-9.731-2.642-19.461-4.052-28.929 c-0.203-1.399-1.458-2.451-2.905-2.451H233.12c-1.458,0-2.702,1.052-2.917,2.451c-1.411,9.468-2.773,19.199-4.052,28.929 c-1.399,10.759-9.025,19.569-19.414,22.426c-14.62,4.041-28.726,9.886-41.935,17.381c-9.384,5.332-21.004,4.507-29.611-2.116 c-7.782-5.989-15.636-11.906-23.323-17.597c-1.148-0.849-2.773-0.705-3.801,0.323l-32.36,32.36 c-1.028,1.028-1.172,2.654-0.323,3.801c5.714,7.722,11.631,15.564,17.597,23.323c6.623,8.595,7.447,20.227,2.116,29.611 c-7.507,13.209-13.353,27.315-17.381,41.935c-2.857,10.388-11.667,18.015-22.426,19.414c-9.707,1.267-19.438,2.63-28.929,4.052 c-1.399,0.215-2.451,1.458-2.451,2.905v45.785c0,1.446,1.052,2.69,2.451,2.905c9.492,1.423,19.222,2.785,28.941,4.052 c10.747,1.399,19.557,9.025,22.414,19.414c4.029,14.62,9.874,28.726,17.381,41.935c5.332,9.384,4.507,21.016-2.116,29.611 c-5.977,7.77-11.894,15.624-17.597,23.323c-0.849,1.148-0.705,2.773,0.323,3.801l32.36,32.36c1.028,1.028,2.654,1.16,3.801,0.323 c7.687-5.69,15.541-11.608,23.323-17.597c4.83-3.718,10.615-5.607,16.413-5.607c4.531,0,9.085,1.148,13.197,3.491 c13.209,7.495,27.315,13.341,41.935,17.381c10.388,2.857,18.015,11.667,19.414,22.426c1.279,9.731,2.642,19.461,4.052,28.929 c0.215,1.399,1.458,2.451,2.917,2.451h45.761c1.458,0,2.714-1.052,2.917-2.451c1.423-9.48,2.773-19.21,4.052-28.929 c1.399-10.759,9.025-19.569,19.414-22.426c14.62-4.041,28.726-9.886,41.935-17.381c9.384-5.332,21.016-4.507,29.611,2.116 c7.782,5.989,15.636,11.906,23.323,17.597c1.136,0.849,2.773,0.705,3.801-0.323l32.36-32.36c1.028-1.028,1.172-2.666,0.323-3.801 c-5.702-7.711-11.62-15.552-17.597-23.323c-6.623-8.607-7.448-20.227-2.116-29.611c7.507-13.209,13.353-27.315,17.381-41.935 c2.857-10.4,11.667-18.015,22.426-19.414c9.707-1.267,19.438-2.63,28.929-4.052C487.04,281.582,488.092,280.339,488.092,278.892z"/><path style="fill:#9B8CCC;" d="M488.092,233.108v45.785c0,1.446-1.052,2.69-2.451,2.905c-9.492,1.423-19.222,2.785-28.929,4.052 c-10.759,1.399-19.569,9.013-22.426,19.414c-4.029,14.62-9.874,28.726-17.381,41.935c-5.332,9.384-4.507,21.004,2.116,29.611 c5.977,7.77,11.894,15.612,17.597,23.323c0.849,1.136,0.705,2.773-0.323,3.801l-32.36,32.36c-1.028,1.028-2.666,1.172-3.801,0.323 c-7.687-5.69-15.54-11.608-23.323-17.597c-8.595-6.623-20.227-7.447-29.611-2.116c-13.209,7.495-27.315,13.341-41.935,17.381 c-10.388,2.857-18.015,11.667-19.414,22.426c-1.279,9.719-2.63,19.45-4.052,28.929c-0.203,1.399-1.458,2.451-2.917,2.451H233.12 c-1.458,0-2.702-1.052-2.917-2.451c-1.411-9.468-2.773-19.199-4.052-28.929c-1.399-10.759-9.025-19.569-19.414-22.426 c-14.62-4.041-28.726-9.886-41.935-17.381c-4.112-2.343-8.667-3.491-13.197-3.491c-5.798,0-11.584,1.889-16.413,5.607 c-7.782,5.989-15.636,11.906-23.323,17.597c-1.148,0.837-2.773,0.705-3.801-0.323l-32.36-32.36 c-1.028-1.028-1.172-2.654-0.323-3.801c5.702-7.699,11.62-15.552,17.597-23.323c6.623-8.595,7.447-20.227,2.116-29.611 c-7.507-13.209-13.353-27.315-17.381-41.935c-2.857-10.388-11.667-18.015-22.414-19.414c-9.719-1.267-19.45-2.63-28.941-4.052 c-1.399-0.215-2.451-1.458-2.451-2.905v-45.785c0-1.446,1.052-2.69,2.451-2.905c9.492-1.423,19.222-2.785,28.929-4.052 c10.759-1.399,19.569-9.025,22.426-19.414c4.029-14.62,9.874-28.726,17.381-41.935c5.332-9.384,4.507-21.016-2.116-29.611 c-5.965-7.758-11.883-15.6-17.597-23.323c-0.849-1.148-0.705-2.773,0.323-3.801l32.36-32.36c1.028-1.028,2.654-1.172,3.801-0.323 c7.687,5.69,15.541,11.608,23.323,17.597c8.607,6.623,20.227,7.447,29.611,2.116c13.209-7.495,27.315-13.341,41.935-17.381 c10.388-2.857,18.015-11.667,19.414-22.426c1.279-9.731,2.642-19.461,4.052-28.929c0.215-1.399,1.458-2.451,2.917-2.451h45.773 c1.446,0,2.702,1.052,2.905,2.451c1.411,9.468,2.773,19.199,4.052,28.929c1.399,10.759,9.025,19.569,19.414,22.426 c14.62,4.041,28.726,9.886,41.935,17.381c9.384,5.332,21.016,4.507,29.611-2.116c7.782-5.989,15.636-11.906,23.323-17.597 c1.136-0.849,2.773-0.705,3.801,0.323l32.36,32.36c1.028,1.028,1.172,2.666,0.323,3.801c-5.702,7.71-11.62,15.552-17.597,23.323 c-6.623,8.607-7.448,20.227-2.116,29.611c7.507,13.209,13.353,27.315,17.381,41.935c2.857,10.4,11.667,18.015,22.414,19.414 c9.719,1.267,19.45,2.63,28.941,4.052C487.04,230.418,488.092,231.661,488.092,233.108z M367.139,256 c0-61.277-49.861-111.139-111.139-111.139S144.861,194.723,144.861,256S194.723,367.139,256,367.139S367.139,317.277,367.139,256z"/><path style="fill:#1E0478;" d="M256,144.861c61.277,0,111.139,49.861,111.139,111.139S317.277,367.139,256,367.139 S144.861,317.277,144.861,256S194.723,144.861,256,144.861z M343.23,256c0-48.092-39.138-87.23-87.23-87.23 s-87.23,39.138-87.23,87.23s39.138,87.23,87.23,87.23S343.23,304.092,343.23,256z"/></symbol><symbol id="computer" viewBox="0 0 512 512"><title>computer</title><path style="fill:#030303" d="M512,58.848V369.66c0,17.043-13.868,30.911-30.911,30.911H326.828v22.496 c0,20.619,16.772,37.391,37.391,37.391h34.004c6.515,0,11.803,5.276,11.803,11.803c0,6.515-5.288,11.803-11.803,11.803H113.778 c-6.515,0-11.803-5.288-11.803-11.803c0-6.527,5.288-11.803,11.803-11.803h34.003c20.619,0,37.391-16.772,37.391-37.391v-22.496 H30.911C13.868,400.571,0,386.703,0,369.66V58.848c0-17.043,13.868-30.911,30.911-30.911h450.178 C498.132,27.937,512,41.805,512,58.848z M488.395,369.66v-62.023H23.605v62.023c0,4.037,3.281,7.306,7.306,7.306h450.178 C485.114,376.966,488.395,373.696,488.395,369.66z M488.395,284.031V58.848c0-4.025-3.281-7.306-7.306-7.306H30.911 c-4.025,0-7.306,3.281-7.306,7.306v225.183H488.395z M195.924,460.458h120.151c-8.038-10.339-12.853-23.31-12.853-37.391v-22.496 h-94.445v22.496C208.778,437.147,203.962,450.119,195.924,460.458z" data-original="#1E0478" class="active-path" data-old_color="#040405"/><path style="fill:#DADADC" d="M488.395,307.637v62.023c0,4.037-3.281,7.306-7.306,7.306H30.911c-4.025,0-7.306-3.269-7.306-7.306 v-62.023H488.395z M268.735,342.301c0-7.034-5.701-12.735-12.735-12.735c-7.034,0-12.735,5.701-12.735,12.735 c0,7.034,5.701,12.735,12.735,12.735C263.034,355.036,268.735,349.336,268.735,342.301z" data-original="#9B8CCC" class="" data-old_color="#D9D8DB"/><path style="fill:#00CEFF" d="M488.395,58.848v225.183H23.605V58.848c0-4.025,3.281-7.306,7.306-7.306h450.178 C485.114,51.542,488.395,54.823,488.395,58.848z M325.683,174.29c4.603-4.615,4.603-12.086,0-16.701 c-4.615-4.603-12.086-4.603-16.701,0l-33.225,33.236c-4.615,4.603-4.615,12.074,0,16.689c2.302,2.302,5.323,3.458,8.345,3.458 s6.043-1.157,8.345-3.458L325.683,174.29z M276.242,125.946c4.603-4.603,4.603-12.086,0-16.689c-4.615-4.615-12.086-4.615-16.701,0 l-83.41,83.409c-4.603,4.615-4.603,12.086,0,16.689c2.302,2.313,5.323,3.458,8.344,3.458s6.043-1.145,8.344-3.458L276.242,125.946z" data-original="#94E7EF" class="" data-old_color="#00DDFF"/><path style="fill:#030303" d="M325.683,157.589c4.603,4.615,4.603,12.086,0,16.701l-33.236,33.225 c-2.302,2.302-5.323,3.458-8.344,3.458s-6.043-1.157-8.345-3.458c-4.615-4.615-4.615-12.086,0-16.689l33.225-33.236 C313.597,152.986,321.068,152.986,325.683,157.589z" data-original="#1E0478" class="active-path" data-old_color="#040405"/><path style="fill:#989899" d="M316.076,460.458H195.924c8.038-10.339,12.853-23.31,12.853-37.391v-22.496h94.445v22.496 C303.223,437.147,308.038,450.119,316.076,460.458z" data-original="#6F7CCD" class="" data-old_color="#999A9B"/><g> <path style="fill:#030303" d="M276.242,109.257c4.603,4.603,4.603,12.086,0,16.689l-83.421,83.41 c-2.302,2.313-5.323,3.458-8.344,3.458s-6.043-1.145-8.344-3.458c-4.603-4.603-4.603-12.074,0-16.689l83.41-83.41 C264.156,104.643,271.627,104.643,276.242,109.257z" data-original="#1E0478" class="active-path" data-old_color="#040405"/> <circle style="fill:#030303" cx="256" cy="342.301" r="12.735" data-original="#1E0478" class="active-path" data-old_color="#040405"/> </g></symbol></svg>