<?xml version="1.0" encoding="iso-8859-1"?>
<!-- Generator: Adobe Illustrator 19.0.0, SVG Export Plug-In . SVG Version: 6.00 Build 0)  -->
<svg version="1.1" id="Capa_1" xmlns="http://www.w3.org/2000/svg" xmlns:xlink="http://www.w3.org/1999/xlink" x="0px" y="0px"
	 viewBox="0 0 512.001 512.001" style="enable-background:new 0 0 512.001 512.001;" xml:space="preserve">
<g>
	<g>
		<path style="fill:#55D08F;" d="M127.943,274.724c19.113-36.952,48.259-77.79,85.243-117.596h-82.105L10.026,313.957
			L127.943,274.724z"/>
		<path style="fill:#55D08F;" d="M261.414,227.983l-90.105,90.106l-26.68,26.679l-40.582,40.582c-6.223,6.222-6.223,16.405,0,22.627
			c6.224,6.223,16.405,6.223,22.628,0l40.582-40.582l26.679-26.68l90.106-90.105c6.222-6.223,6.222-16.405-0.001-22.627
			C277.818,221.761,267.635,221.761,261.414,227.983z"/>
		<path style="fill:#55D08F;" d="M354.897,298.839c-39.806,36.984-80.645,66.13-117.597,85.242L198.068,502l156.829-121.056V298.839
			z"/>
	</g>
	<g>
		<path style="fill:#E9C1A4;" d="M221.836,368.618l-27.901-27.901l-26.679,26.68l15.96,15.961c6.567,6.567,17.314,6.567,23.881,0
			L221.836,368.618z"/>
		<path style="fill:#E9C1A4;" d="M144.628,344.768l26.68-26.679l-27.901-27.901l-14.739,14.739c-6.567,6.567-6.567,17.314,0,23.881
			L144.628,344.768z"/>
	</g>
	<path style="fill:#E6E6E6;" d="M143.407,290.188l27.901,27.901l90.105-90.106c6.222-6.222,16.404-6.222,22.627,0.001
		c6.223,6.223,6.223,16.405,0.001,22.627l-90.106,90.105l27.901,27.901l15.465,15.464c36.951-19.112,77.79-48.258,117.596-85.242
		c6.182-5.743,12.338-11.676,18.452-17.79c56.833-56.834,98.053-117.419,117.02-166.938c-24.644,0.409-48.399-9.2-65.827-26.629
		c-17.429-17.428-27.037-41.184-26.629-65.827c-49.518,18.967-110.103,60.187-166.937,117.02
		c-6.113,6.114-12.046,12.27-17.789,18.453c-36.984,39.806-66.13,80.644-85.243,117.596L143.407,290.188L143.407,290.188z
		 M327.465,184.559c-15.621-15.621-15.621-40.948,0-56.568c15.621-15.621,40.947-15.621,56.568,0s15.621,40.947,0,56.568
		C368.413,200.18,343.086,200.18,327.465,184.559z"/>
	<circle style="fill:#83D8EF;" cx="355.751" cy="156.28" r="40"/>
	<path style="fill:#FF3D53;" d="M424.542,87.482c17.428,17.429,41.184,27.038,65.827,26.629
		c15.444-40.319,16.136-73.301-1.509-90.946c-17.646-17.645-50.627-16.954-90.947-1.51
		C397.504,46.299,407.113,70.054,424.542,87.482z"/>
</g>
<path d="M355.75,106.275c-13.355,0-25.911,5.201-35.355,14.645c-9.443,9.444-14.645,22-14.645,35.355s5.201,25.912,14.645,35.355
	c9.444,9.444,22,14.645,35.355,14.645s25.911-5.201,35.355-14.645c9.443-9.444,14.645-22,14.645-35.355
	c0-13.356-5.201-25.912-14.645-35.355C381.661,111.476,369.105,106.275,355.75,106.275z M376.962,177.488
	c-5.666,5.667-13.2,8.787-21.213,8.787s-15.547-3.121-21.213-8.787c-5.666-5.666-8.787-13.2-8.787-21.213s3.12-15.547,8.787-21.213
	c5.666-5.667,13.2-8.787,21.213-8.787s15.547,3.121,21.213,8.787c5.667,5.666,8.787,13.2,8.787,21.213
	S382.628,171.822,376.962,177.488z"/>
<path d="M499.674,117.77c17.551-45.814,16.34-81.593-3.743-101.676C485.252,5.415,470.24,0,451.313,0
	c-58.198,0-147.462,51.658-227.409,131.605c-5.114,5.114-10.128,10.295-15.042,15.524h-77.78c-3.099,0-6.022,1.437-7.916,3.89
	L2.109,307.846c-2.688,3.482-2.785,8.311-0.238,11.899c1.913,2.694,4.978,4.212,8.156,4.212c1.052,0,2.116-0.167,3.155-0.512
	l112.057-37.282l4.025,4.025l-7.668,7.668c-5.064,5.065-7.854,11.817-7.854,19.012s2.79,13.946,7.854,19.012l8.89,8.889
	L96.975,378.28c-4.898,4.898-7.596,11.427-7.596,18.385c0,6.957,2.697,13.487,7.597,18.386c4.898,4.898,11.428,7.595,18.385,7.595
	s13.486-2.698,18.385-7.596l33.511-33.511l8.889,8.89c5.066,5.065,11.817,7.854,19.012,7.854c7.194,0,13.946-2.789,19.012-7.854
	l7.668-7.668l4.025,4.025l-37.282,112.058c-1.389,4.174,0.113,8.765,3.7,11.311c1.735,1.232,3.763,1.846,5.787,1.846
	c2.159,0,4.314-0.697,6.111-2.084l156.829-121.056c2.453-1.894,3.89-4.817,3.89-7.916v-77.78c5.229-4.914,10.41-9.928,15.523-15.042
	c50.708-50.709,90.917-106.057,113.22-155.849c2.19-4.89,4.183-9.68,5.98-14.367C499.639,117.861,499.657,117.815,499.674,117.77z
	 M481.789,30.236c13.16,13.16,13.595,39.463,1.666,73.682c-19.394-1.317-38.017-9.681-51.842-23.507
	c-13.843-13.842-22.196-32.465-23.507-51.905C424.044,22.962,438.656,20,451.313,20C464.743,20,474.997,23.444,481.789,30.236z
	 M135.996,167.128h54.794c-28.615,32.954-52.717,67.17-69.825,99.378L37.969,294.12L135.996,167.128z M135.739,321.737
	c-2.64-2.639-2.64-7.099,0-9.738l7.668-7.668l13.759,13.759l-12.537,12.537L135.739,321.737z M119.603,400.907
	c-1.12,1.121-2.627,1.738-4.242,1.738s-3.123-0.618-4.243-1.738c-1.121-1.121-1.738-2.627-1.738-4.243
	c0-1.615,0.617-3.122,1.738-4.242l0,0l0,0l157.367-157.368l0,0c1.121-1.12,2.627-1.737,4.242-1.737c1.614,0,3.121,0.617,4.242,1.738
	c2.297,2.297,2.299,6.174,0.01,8.475c-0.004,0.003-0.007,0.007-0.01,0.01l0,0c-0.002,0.001,0.012-0.012,0.01-0.01L119.603,400.907
	L119.603,400.907z M200.026,376.286c-1.287,1.288-3.017,1.997-4.869,1.997c-1.853,0-3.582-0.709-4.869-1.996l-8.889-8.89
	l12.537-12.537l0,0l13.758,13.758L200.026,376.286z M344.897,376.03l-126.993,98.025l27.612-82.994
	c32.209-17.108,66.427-41.211,99.381-69.827V376.03z M366.278,273.978c-40.8,40.8-85.678,75.297-127.131,97.807l-3.168-3.168
	l21.944-21.944c3.905-3.905,3.905-10.237,0-14.142c-3.906-3.905-10.236-3.905-14.143,0l-21.944,21.944l-13.759-13.758l83.035-83.035
	c0.089-0.089,0.171-0.182,0.259-0.272c0.218-0.225,0.436-0.448,0.646-0.68c0.098-0.108,0.188-0.22,0.284-0.329
	c0.193-0.221,0.388-0.442,0.573-0.669c0.077-0.094,0.147-0.19,0.223-0.285c0.198-0.249,0.395-0.497,0.582-0.752
	c0.051-0.068,0.097-0.138,0.147-0.207c0.206-0.286,0.409-0.574,0.603-0.867c0.025-0.039,0.049-0.078,0.074-0.117
	c0.213-0.325,0.419-0.653,0.616-0.986c0.008-0.013,0.015-0.026,0.022-0.039c1.066-1.812,1.904-3.743,2.5-5.759
	c0.014-0.046,0.024-0.094,0.038-0.14c0.101-0.346,0.196-0.694,0.281-1.045c0.037-0.148,0.066-0.299,0.101-0.448
	c0.056-0.248,0.113-0.494,0.162-0.744c0.064-0.328,0.118-0.657,0.17-0.986c0.012-0.072,0.025-0.143,0.036-0.215
	c0.378-2.546,0.378-5.138,0.001-7.685c-0.014-0.088-0.031-0.175-0.045-0.264c-0.05-0.312-0.1-0.624-0.161-0.935
	c-0.053-0.272-0.115-0.54-0.177-0.81c-0.029-0.127-0.055-0.256-0.086-0.383c-0.09-0.373-0.191-0.742-0.299-1.109
	c-0.007-0.025-0.013-0.05-0.02-0.074c-0.716-2.427-1.783-4.732-3.179-6.853c-0.011-0.016-0.021-0.032-0.03-0.048
	c-0.211-0.319-0.431-0.632-0.656-0.942c-0.031-0.044-0.061-0.088-0.094-0.132c-0.209-0.285-0.428-0.564-0.65-0.84
	c-0.052-0.065-0.101-0.133-0.154-0.198c-0.221-0.271-0.451-0.535-0.684-0.797c-0.059-0.066-0.113-0.135-0.173-0.2
	c-0.295-0.326-0.599-0.646-0.911-0.958c-1.531-1.531-3.221-2.846-5.033-3.932c-3.988-2.389-8.568-3.664-13.352-3.664l0,0
	c-0.001,0-0.001,0-0.001,0c-6.957,0-13.486,2.697-18.384,7.595l-83.034,83.035l-13.759-13.759l21.945-21.944
	c3.905-3.905,3.905-10.237,0-14.142s-10.235-3.905-14.143-0.001l-21.945,21.944l-3.167-3.167
	c22.508-41.452,57.006-86.331,97.807-127.132c49.891-49.89,104.395-88.914,150.72-109.542c2.893,21.909,12.963,42.606,28.704,58.348
	c15.729,15.729,36.402,25.794,58.289,28.695c-0.126,0.284-0.245,0.564-0.372,0.848C454.056,171.721,415.306,224.95,366.278,273.978z
	"/>
<path d="M264.262,312.047l-0.167,0.167c-3.905,3.905-3.905,10.237,0,14.142c1.953,1.953,4.512,2.929,7.071,2.929
	c2.56,0,5.118-0.977,7.071-2.929l0.167-0.167c3.905-3.905,3.905-10.237,0-14.142C274.499,308.142,268.169,308.142,264.262,312.047z"
	/>
<path d="M185.833,233.617l-0.167,0.167c-3.905,3.905-3.905,10.237,0,14.142c1.953,1.953,4.512,2.929,7.071,2.929
	c2.56,0,5.118-0.977,7.071-2.929l0.167-0.167c3.905-3.905,3.905-10.237,0-14.142C196.069,229.712,189.739,229.712,185.833,233.617z"
	/>
<g>
</g>
<g>
</g>
<g>
</g>
<g>
</g>
<g>
</g>
<g>
</g>
<g>
</g>
<g>
</g>
<g>
</g>
<g>
</g>
<g>
</g>
<g>
</g>
<g>
</g>
<g>
</g>
<g>
</g>
</svg>
